<svg xmlns="http://www.w3.org/2000/svg" width="40" height="40" viewBox="0 0 40 40" fill="none">
  <path d="M16.9718 26.9008C29.4255 27.6398 31.964 14.9366 39.4336 21.8525C34.702 21.8325 34.0241 25.6275 30.028 28.3639C26.3021 30.9156 20.9592 31.8893 16.9719 26.9009" fill="#1C3A85"/>
  <path d="M0.389052 15.3359C8.91742 15.7754 11.3319 29.4423 23.7767 23.595C18.6065 23.7149 15.8641 14.3822 8.70028 13.0939C6.40537 12.6794 3.78261 13.3486 0.388977 15.3359" fill="#234AA3"/>
  <path d="M11.1101 10.8824C19.3815 12.9699 19.47 23.5313 26.6073 22.0881C22.7489 19.3717 23.2717 6.56297 11.1101 10.8824Z" fill="#1768BA"/>
  <path d="M22.7755 11.3262C25.6951 13.9028 25.097 18.8762 27.9855 21.4079C27.476 19.5504 28.9336 16.9987 28.2381 14.6418C27.7818 13.1089 25.3495 11.3911 22.7755 11.3262Z" fill="#FAC705"/>
</svg>