<svg xmlns="http://www.w3.org/2000/svg" width="40" height="40" viewBox="0 0 40 40" fill="none">
  <path d="M30.3397 19.5193C30.3397 18.5193 29.527 17.6988 28.5365 17.6988C27.546 17.6988 26.7333 18.5193 26.7333 19.5193C26.7587 20.2372 27.2159 20.8526 27.8762 21.0577V23.827C27.0889 21.8013 25.6413 20.1347 23.7365 19.0834C24.0159 18.468 24.2952 17.9552 24.5492 17.4936C25.5651 15.9552 26.7079 14.4936 27.927 13.1347C28.6127 12.3142 29.2476 11.5706 29.7556 10.9039C31.2032 9.05774 32.8286 6.3398 32.5238 4.69877C32.4476 4.23723 32.1683 3.82698 31.7873 3.59621C29.7556 2.39108 27.0127 6.31415 24.2952 10.109C22.4921 12.5962 21.5778 16.1347 21.146 18.1347C20.3079 17.9552 19.4698 17.8526 18.6064 17.8526C17.3619 17.8526 16.1429 18.0577 14.9746 18.468C14.8984 16.2629 14.9746 14.0321 15.1778 11.827C15.7873 6.08339 15.5079 2.72441 14.4159 1.57057C14.1365 1.21159 13.7048 1.0321 13.2476 1.0321C10.0222 1.16031 10.4032 11.0065 10.454 12.1347C10.581 14.827 11.6476 18.109 12.3079 19.9039C10.8095 21.109 9.69206 22.7501 9.15873 24.6218H8.93016C7.91429 24.5706 7.0254 25.3654 7 26.4167V26.4424V29.5706C7.05079 30.6218 7.91429 31.4167 8.93016 31.3911H9.33651C9.79365 32.4424 10.454 33.4167 11.2921 34.186L10.6825 34.7244C10.4032 34.9808 10.3524 35.4167 10.6064 35.7244C12.4095 37.9295 15.3302 39.1859 18.6317 39.1859C21.9333 39.1859 24.8794 37.9295 26.6571 35.7244C26.9111 35.4167 26.8603 34.9808 26.581 34.7244L25.9714 34.186C26.8095 33.3911 27.4952 32.4167 27.927 31.3398H28.3841C29.4254 31.3911 30.2889 30.5706 30.3397 29.5449V26.4424C30.3143 25.7244 29.8571 25.0834 29.1968 24.827V21.0834C29.8571 20.8526 30.3397 20.2372 30.3397 19.5193Z" fill="#CDCCCC"/>
  <path d="M15.7111 34.6731C16.2698 34.3141 14.8222 34.4423 14.6952 34.1859C14.1111 34.1346 13.5524 34.032 12.9936 33.8782C11.9778 33.5961 9.53966 31.9551 9.28569 30.3654C9.03172 28.7756 9.28569 25.7756 10.3778 23.9551C11.0635 22.8526 11.9524 21.8782 12.9936 21.109C12.9936 21.109 10.8603 15.9808 10.6825 12.109C10.5047 8.23717 10.8095 1.33974 13.2984 1.23717C15.7873 1.13461 15.4317 7.57051 15 11.75C14.746 14.5449 14.7206 17.3397 14.873 20.1346C15.9397 19.8013 17.0571 19.5961 18.1492 19.5705C19.1397 19.5449 20.1047 19.6474 21.0698 19.8526C21.0698 19.8526 21.8571 13.9038 24.473 10.1859C27.0889 6.46794 29.8571 2.67307 31.6603 3.74999C33.4635 4.82692 31.1778 8.69871 29.5778 10.6987C28.0032 12.6987 25.2603 15.7244 24.346 17.3397C23.7365 18.4167 23.2285 19.5192 22.7714 20.6731C24.3968 21.5192 25.7428 22.8526 26.5809 24.4936C27.8762 27.0833 27.9778 30.2885 27.2666 31.6474C26.5555 32.9295 25.3365 33.8013 23.9143 34.0577C23.127 34.0833 19.7746 34.9295 19.7746 34.9295L15.7111 34.6731Z" fill="white"/>
  <path d="M21.5779 19.9296C21.5779 19.9296 23.5842 14.6732 25.362 11.7245C27.1398 8.77576 29.5525 6.54499 30.289 6.98088C31.0509 7.44242 28.7398 10.186 26.7334 12.904C25.108 15.2886 23.6096 17.8014 22.289 20.3655L21.5779 19.9296Z" fill="#DD00A1"/>
  <path d="M13.5525 20.827L14.162 20.3911C14.162 20.3911 14.0858 15.1347 14.162 11.9295C14.2382 8.72441 14.416 4.75006 13.3493 4.7757C12.2826 4.80134 11.5461 7.9039 11.9779 12.2372C12.2572 15.1347 12.7906 18.0065 13.5525 20.827Z" fill="#DD00A1"/>
  <path d="M11.7746 32.1091C12.4198 32.1091 12.9428 31.581 12.9428 30.9296C12.9428 30.2782 12.4198 29.7501 11.7746 29.7501C11.1294 29.7501 10.6063 30.2782 10.6063 30.9296C10.6063 31.581 11.1294 32.1091 11.7746 32.1091Z" fill="#F9D8D2"/>
  <path d="M25.4889 32.1091C26.1341 32.1091 26.6572 31.581 26.6572 30.9296C26.6572 30.2782 26.1341 29.7501 25.4889 29.7501C24.8437 29.7501 24.3207 30.2782 24.3207 30.9296C24.3207 31.581 24.8437 32.1091 25.4889 32.1091Z" fill="#F9D8D2"/>
  <path d="M20.5618 30.8271C20.511 30.8014 20.4348 30.8014 20.4094 30.8527C20.4094 30.8527 20.0539 31.4681 19.5714 31.4937C19.2158 31.4937 18.911 31.3399 18.6825 31.0835V30.186C19.0126 30.0065 19.5206 29.4681 19.5206 29.2629C19.419 28.8527 19.038 28.5706 18.6317 28.5963C18.0221 28.5963 17.6158 28.9809 17.6158 29.3142C17.6158 29.6476 18.2761 30.0578 18.4539 30.186V31.0578C18.2507 31.3142 17.9714 31.4424 17.6666 31.4681C17.184 31.4681 16.8285 30.8271 16.8285 30.8014C16.8031 30.7501 16.7269 30.7245 16.6761 30.7501C16.6253 30.7758 16.5999 30.8527 16.6253 30.904C16.6253 30.904 17.0571 31.6732 17.6666 31.6732C18.0221 31.6476 18.3523 31.4937 18.5809 31.2373C18.8348 31.4937 19.165 31.6476 19.5206 31.6732H19.5967C20.0285 31.5963 20.4094 31.3142 20.6126 30.904C20.6126 30.9296 20.6126 30.8527 20.5618 30.8271Z" fill="#10110E"/>
  <path d="M12.9936 21.1346C12.9936 21.1346 11.3429 16.9038 11.0127 14.6987C10.6825 12.4935 10.4032 8.80123 10.8349 6.33969C11.0127 5.21148 11.2667 4.08328 11.5714 2.98071C11.5714 2.98071 10.8095 8.69866 11.0889 11.2115C11.3682 13.7243 12.9936 21.1346 12.9936 21.1346Z" fill="#E5E5E5"/>
  <path d="M21.0953 19.8527C21.0953 19.8527 22.289 13.468 24.0414 10.9552C25.7937 8.44241 27.9525 5.39112 29.0445 4.62189L30.1366 3.85266C30.1366 3.85266 25.743 8.49369 24.0414 12.3142C22.3398 16.1091 21.0953 19.8527 21.0953 19.8527Z" fill="#E5E5E5"/>
  <path d="M14.162 27.1091C13.654 27.1091 13.2477 27.5193 13.2477 28.0321C13.2477 28.545 13.654 28.9552 14.162 28.9552C14.6699 28.9552 15.0763 28.545 15.0763 28.0321C15.0509 27.5193 14.6445 27.1091 14.162 27.1091ZM14.4159 27.9552C14.289 27.9552 14.162 27.8527 14.162 27.6988C14.162 27.5706 14.2636 27.4424 14.4159 27.4424C14.5429 27.4424 14.6699 27.545 14.6699 27.6988C14.6445 27.8527 14.5429 27.9552 14.4159 27.9552C14.4159 27.9552 14.3905 27.9552 14.4159 27.9552Z" fill="#10110E"/>
  <path d="M23.0763 27.1091C22.5683 27.1091 22.162 27.5193 22.162 28.0321C22.162 28.545 22.5683 28.9552 23.0763 28.9552C23.5842 28.9552 23.9906 28.545 23.9906 28.0321C23.9906 27.5193 23.5842 27.1091 23.0763 27.1091ZM23.3302 27.9552C23.2033 27.9552 23.0763 27.8527 23.0763 27.6988C23.1017 27.5706 23.2287 27.468 23.3556 27.4937C23.4572 27.5193 23.5588 27.5963 23.5588 27.6988C23.5842 27.8527 23.4572 27.9552 23.3302 27.9552Z" fill="#10110E"/>
  <path opacity="0.2" d="M18.7842 34.4937C23.4409 34.4937 27.2159 31.75 27.2159 28.3655C27.2159 24.9809 23.4409 22.2372 18.7842 22.2372C14.1274 22.2372 10.3524 24.9809 10.3524 28.3655C10.3524 31.75 14.1274 34.4937 18.7842 34.4937Z" fill="#8ACCCE"/>
  <path d="M28.9936 24.9553V20.9297C29.6285 20.7758 30.1111 20.2117 30.1365 19.545C30.0349 18.6732 29.273 18.0322 28.3841 18.1348C27.6476 18.2117 27.0634 18.8015 26.9873 19.545C27.0126 20.2117 27.4952 20.7758 28.1301 20.9297V24.8527H28.0285C26.8349 20.6732 23.3047 18.0579 18.6825 18.0579C14.0603 18.0579 10.5047 20.6476 9.33646 24.8527H8.93011C8.01582 24.8015 7.25392 25.4938 7.20312 26.4168V29.545C7.25392 30.4425 8.01582 31.1348 8.93011 31.1091H9.46344C9.92059 32.2886 10.6571 33.3399 11.6222 34.1861L10.8349 34.8784C10.6317 35.0579 10.6063 35.3399 10.7841 35.545C12.5365 37.6732 15.4063 38.9297 18.6317 38.9297C21.8825 38.9297 24.7269 37.7245 26.4793 35.545C26.6571 35.3399 26.6317 35.0322 26.4285 34.8784L25.6412 34.1861C26.5809 33.3399 27.3174 32.2886 27.8 31.1091H28.4095C29.2984 31.1604 30.0857 30.4681 30.1365 29.545V26.4168C30.1111 25.7245 29.6285 25.1348 28.9936 24.9553ZM18.6571 22.5194C22.9238 22.5194 26.4031 25.3656 26.4031 28.8527C26.4031 32.622 22.492 34.2886 18.6571 34.2886C14.8222 34.2886 10.9111 32.5963 10.9111 28.8527C10.9365 25.3399 14.3904 22.5194 18.6571 22.5194Z" fill="white"/>
  <path d="M29.2732 28.4936H28.1303C28.1303 28.3141 28.1303 28.1346 28.1303 27.9295C28.1303 27.1603 28.0541 26.391 27.9017 25.6474H28.3843C28.8414 25.6218 29.2224 25.9551 29.2478 26.4167V26.4423L29.2732 28.4936Z" fill="#515151"/>
  <path d="M28.4094 30.3141H27.7999C27.9015 29.8782 28.0031 29.4423 28.0539 29.0064H29.2475V29.5192C29.2221 29.9551 28.8666 30.3141 28.4094 30.2885C28.4348 30.3141 28.4094 30.3141 28.4094 30.3141Z" fill="#515151"/>
  <path d="M18.6571 38.1346C15.7873 38.1346 13.2476 37.0833 11.6222 35.2372L12.4349 34.5192C14.2635 35.75 16.4476 36.391 18.6571 36.3397C20.8666 36.391 23.0254 35.7756 24.8793 34.5192L25.692 35.2372C24.092 37.0833 21.527 38.1346 18.6571 38.1346Z" fill="#515151"/>
  <path d="M8.93026 25.6476H9.43819C9.28581 26.3912 9.20962 27.1604 9.20962 27.9296C9.18423 28.1091 9.18423 28.3143 9.20962 28.4937H8.09216V26.4168C8.09216 25.9809 8.42232 25.6476 8.85407 25.6219C8.85407 25.6219 8.90486 25.6219 8.93026 25.6476Z" fill="#515151"/>
  <path d="M18.6571 22.0064C17.692 22.0064 16.7269 22.1603 15.7872 22.4167V19.2628C16.7269 19.0064 17.692 18.8526 18.6571 18.8782C19.6222 18.8782 20.5872 19.0064 21.5269 19.2628V22.4423C20.6126 22.1346 19.6475 22.0064 18.6571 22.0064Z" fill="black"/>
  <path d="M15.2286 19.4423V22.6218C12.3588 23.6731 10.3524 26.0833 10.3524 28.8269C10.3524 32.391 13.7048 34.8013 18.6572 34.8013C23.6096 34.8013 26.962 32.391 26.962 28.8269C26.962 26.0833 24.9556 23.6731 22.0858 22.6218V19.4423C25.4382 20.6474 27.5207 23.7757 27.5207 27.9551C27.5207 32.6474 23.9651 35.8013 18.6318 35.8013C13.2985 35.8013 9.74292 32.6474 9.74292 27.9551C9.79371 23.7757 11.8763 20.6731 15.2286 19.4423Z" fill="#515151"/>
  <path d="M8.06678 29.0321H9.26043C9.31122 29.468 9.41281 29.9039 9.5144 30.3398H8.90487C8.44773 30.3654 8.06678 30.0321 8.04138 29.5706V29.5449L8.06678 29.0321Z" fill="#515151"/>
  <path d="M28.5618 20.1602C28.9546 20.1602 29.2729 19.8732 29.2729 19.5192C29.2729 19.1652 28.9546 18.8782 28.5618 18.8782C28.1691 18.8782 27.8507 19.1652 27.8507 19.5192C27.8507 19.8732 28.1691 20.1602 28.5618 20.1602Z" fill="#515151"/>
</svg>