<svg xmlns="http://www.w3.org/2000/svg" width="40" height="40" viewBox="0 0 40 40" fill="none">
  <path d="M20.4417 3.5686C13.5272 3.5686 7.88342 9.21243 7.88342 16.1268C7.88342 28.3305 19.7325 37.5793 19.7325 37.5793C20.1462 37.9043 20.7372 37.9043 21.1508 37.5793C21.1508 37.5793 32.9999 28.301 32.9999 16.1268C33.0295 9.21243 27.3856 3.5686 20.4417 3.5686ZM20.4417 5.87341C26.1446 5.87341 30.7246 10.4535 30.7246 16.1564C30.7246 26.1439 21.6827 34.0039 20.4417 35.0676C19.2006 34.0039 10.1587 26.1143 10.1587 16.1564C10.1587 10.4535 14.7683 5.87341 20.4417 5.87341Z" fill="#47495A" stroke="#47495A" stroke-miterlimit="10"/>
  <path d="M20.4417 10.424C17.3095 10.424 14.7388 12.9947 14.7388 16.1269C14.7388 19.259 17.3095 21.8593 20.4417 21.8593C23.5739 21.8593 26.1742 19.2886 26.1742 16.1269C26.1742 12.9947 23.6034 10.424 20.4417 10.424ZM20.4417 12.7288C22.3624 12.7288 23.8694 14.2357 23.8694 16.1564C23.8694 18.0771 22.3328 19.5841 20.4417 19.5841C18.5506 19.5841 17.014 18.0475 17.014 16.1564C17.014 14.2357 18.5506 12.7288 20.4417 12.7288Z" fill="#47495A" stroke="#47495A" stroke-miterlimit="10"/>
</svg>