<svg xmlns="http://www.w3.org/2000/svg" width="40" height="40" viewBox="0 0 40 40" fill="none">
  <path fill-rule="evenodd" clip-rule="evenodd" d="M33.028 7.73438L26.4346 20.0781L33.028 32.4219L35.729 30.9375V9.21875L33.028 7.73438Z" fill="#E25444"/>
  <path fill-rule="evenodd" clip-rule="evenodd" d="M33.028 7.73438L19.8411 9.21875L13.1285 20.0781L19.8411 30.9375L33.028 32.4219V7.73438Z" fill="#7B1D13"/>
  <path fill-rule="evenodd" clip-rule="evenodd" d="M6.41592 7.73438L4.27106 8.67188V31.4844L6.41592 32.4219L19.8412 20.0781L6.41592 7.73438Z" fill="#58150D"/>
  <path fill-rule="evenodd" clip-rule="evenodd" d="M6.38708 7.70844L19.8589 11.389V29.0973L6.38708 32.4306V7.70844Z" fill="#E25444"/>
  <path fill-rule="evenodd" clip-rule="evenodd" d="M19.866 13.3333L14.1458 12.4305L19.866 6.04156L25.5721 12.4305L19.866 13.3333Z" fill="#58150D"/>
  <path fill-rule="evenodd" clip-rule="evenodd" d="M25.5721 12.4305L19.8589 13.3471L14.1458 12.4305V6.04156" fill="#58150D"/>
  <path fill-rule="evenodd" clip-rule="evenodd" d="M19.866 26.7361L14.1458 27.7778L19.866 33.2639L25.5721 27.7778L19.866 26.7361Z" fill="#58150D"/>
  <path fill-rule="evenodd" clip-rule="evenodd" d="M19.8411 1.25L14.1215 4.21875V12.4219L19.8589 10.8334L19.8411 1.25Z" fill="#7B1D13"/>
  <path fill-rule="evenodd" clip-rule="evenodd" d="M19.8589 15.3471L14.1458 15.9583V24.1487L19.8589 24.7916V15.3471Z" fill="#7B1D13"/>
  <path fill-rule="evenodd" clip-rule="evenodd" d="M19.8589 29.1666L14.1458 27.7578V35.8096L19.8589 38.75V29.1666Z" fill="#7B1D13"/>
  <path fill-rule="evenodd" clip-rule="evenodd" d="M25.5721 27.7578L19.8589 29.167V38.75L25.5721 35.8096V27.7578Z" fill="#E25444"/>
  <path fill-rule="evenodd" clip-rule="evenodd" d="M19.8589 15.3471L25.5721 15.9583V24.1487L19.8589 24.7916V15.3471Z" fill="#E25444"/>
  <path fill-rule="evenodd" clip-rule="evenodd" d="M19.8411 1.25L25.5608 4.21875V12.4219L19.8411 10.8594V1.25Z" fill="#E25444"/>
</svg>