<svg xmlns="http://www.w3.org/2000/svg" width="40" height="40" viewBox="0 0 40 40" fill="none">
  <g clip-path="url(#clip0_195_336)">
    <path d="M8.56685 25.2914C8.56685 27.5906 6.70858 29.4489 4.40937 29.4489C2.11016 29.4489 0.251892 27.5906 0.251892 25.2914C0.251892 22.9922 2.11016 21.1339 4.40937 21.1339H8.56685V25.2914ZM10.6456 25.2914C10.6456 22.9922 12.5039 21.1339 14.8031 21.1339C17.1023 21.1339 18.9606 22.9922 18.9606 25.2914V35.6851C18.9606 37.9843 17.1023 39.8426 14.8031 39.8426C12.5039 39.8426 10.6456 37.9843 10.6456 35.6851V25.2914Z" fill="#E01E5A"/>
    <path d="M14.8032 8.50393C12.504 8.50393 10.6457 6.64566 10.6457 4.34645C10.6457 2.04723 12.504 0.188965 14.8032 0.188965C17.1024 0.188965 18.9607 2.04723 18.9607 4.34645V8.50393H14.8032ZM14.8032 10.6142C17.1024 10.6142 18.9607 12.4724 18.9607 14.7716C18.9607 17.0709 17.1024 18.9291 14.8032 18.9291H4.378C2.07879 18.9291 0.22052 17.0709 0.22052 14.7716C0.22052 12.4724 2.07879 10.6142 4.378 10.6142H14.8032Z" fill="#36C5F0"/>
    <path d="M31.5591 14.7716C31.5591 12.4724 33.4174 10.6142 35.7166 10.6142C38.0158 10.6142 39.8741 12.4724 39.8741 14.7716C39.8741 17.0709 38.0158 18.9291 35.7166 18.9291H31.5591V14.7716ZM29.4804 14.7716C29.4804 17.0709 27.6221 18.9291 25.3229 18.9291C23.0237 18.9291 21.1654 17.0709 21.1654 14.7716V4.34645C21.1654 2.04723 23.0237 0.188965 25.3229 0.188965C27.6221 0.188965 29.4804 2.04723 29.4804 4.34645V14.7716Z" fill="#2EB67D"/>
    <path d="M25.3229 31.5276C27.6221 31.5276 29.4804 33.3859 29.4804 35.6851C29.4804 37.9843 27.6221 39.8426 25.3229 39.8426C23.0237 39.8426 21.1654 37.9843 21.1654 35.6851V31.5276H25.3229ZM25.3229 29.4489C23.0237 29.4489 21.1654 27.5906 21.1654 25.2914C21.1654 22.9922 23.0237 21.1339 25.3229 21.1339H35.7481C38.0473 21.1339 39.9056 22.9922 39.9056 25.2914C39.9056 27.5906 38.0473 29.4489 35.7481 29.4489H25.3229Z" fill="#ECB22E"/>
  </g>
  <defs>
    <clipPath id="clip0_195_336">
      <rect width="40" height="40" fill="white"/>
    </clipPath>
  </defs>
</svg>