<svg width="116" height="53" viewBox="0 0 116 53" fill="none" xmlns="http://www.w3.org/2000/svg">
  <path d="M7.56133 42.0446H1.97412V36.4478H7.86373C10.0189 36.4478 11.0989 37.4078 11.0989 39.3038C11.0989 41.1998 9.91813 42.0686 7.56133 42.0686V42.0446ZM11.5741 36.3854C10.6708 35.6517 9.52435 35.285 8.36292 35.3582L0.361328 35.4014V48.8414H1.97412V43.1198H7.92133C9.17891 43.1927 10.4232 42.83 11.4445 42.0926C11.8692 41.753 12.2073 41.3174 12.4309 40.8218C12.6545 40.3261 12.7574 39.7845 12.7309 39.2414C12.7593 38.7112 12.6713 38.1812 12.4732 37.6887C12.275 37.1961 11.9714 36.7529 11.5837 36.3902L11.5741 36.3854ZM22.0045 46.019C21.8493 46.4586 21.5851 46.8517 21.2365 47.1614C20.5165 47.867 19.4173 48.2174 17.9197 48.2174C16.798 48.2889 15.6926 47.9204 14.8381 47.1902C14.4746 46.8338 14.1909 46.4044 14.0055 45.9303C13.8202 45.4562 13.7375 44.9482 13.7629 44.4398C13.754 43.8953 13.8501 43.3542 14.0461 42.8462C14.2238 42.3979 14.5032 41.997 14.8621 41.675C15.7149 40.9598 16.8087 40.5975 17.9197 40.6622C20.7997 40.6622 22.2397 41.9198 22.2397 44.4398C22.25 44.9748 22.1671 45.5075 21.9949 46.0142L22.0045 46.019ZM22.2877 41.0606C21.3053 40.1646 19.8509 39.7166 17.9245 39.7166C16.1037 39.7166 14.6989 40.1742 13.7101 41.0894C13.2565 41.5189 12.9014 42.0418 12.6694 42.6218C12.4373 43.2019 12.3339 43.8254 12.3661 44.4494C12.3438 45.076 12.4561 45.7002 12.6954 46.2798C12.9347 46.8594 13.2954 47.381 13.7533 47.8094C14.2649 48.2721 14.8733 48.6148 15.5341 48.8126C16.314 49.0371 17.1227 49.1455 17.9341 49.1342C19.8541 49.1342 21.2941 48.6926 22.3213 47.8046C23.1819 46.8975 23.6617 45.6949 23.6617 44.4446C23.6617 43.1942 23.1819 41.9916 22.3213 41.0846L22.2877 41.0606ZM34.4845 46.403C34.4845 48.2222 32.8669 49.1198 29.6221 49.1198C28.7845 49.1305 27.9475 49.0662 27.1213 48.9278C26.5323 48.8414 25.969 48.6285 25.4701 48.3038C25.1442 48.0862 24.8758 47.7931 24.6877 47.4494C24.4758 47.0303 24.3486 46.5736 24.3133 46.1054H25.8109C25.7895 46.4147 25.8518 46.7241 25.9911 47.0011C26.1305 47.2781 26.3418 47.5126 26.6029 47.6798C27.1693 48.083 28.1725 48.2846 29.6125 48.2846C31.8781 48.2846 33.0109 47.7182 33.0109 46.5854C33.0101 46.2601 32.8961 45.9452 32.6886 45.6948C32.481 45.4443 32.1928 45.2738 31.8733 45.2126C31.7197 45.1646 30.8029 45.0382 29.1229 44.8334C28.0616 44.7446 27.0108 44.5582 25.9837 44.2766C25.5801 44.149 25.2299 43.8915 24.9877 43.5443C24.7455 43.197 24.6249 42.7795 24.6445 42.3566C24.6277 41.9404 24.7315 41.5281 24.9436 41.1696C25.1557 40.8111 25.4669 40.5215 25.8397 40.3358C26.3135 40.1297 26.8121 39.9861 27.3229 39.9086C28.0038 39.8 28.6927 39.7486 29.3821 39.755C32.5021 39.755 34.0621 40.7342 34.0621 42.6926H32.6221C32.6221 41.3198 31.5277 40.6286 29.3341 40.6286C28.4804 40.5774 27.6263 40.7235 26.8381 41.0558C26.5881 41.1637 26.376 41.3437 26.2289 41.5729C26.0818 41.8021 26.0065 42.0699 26.0125 42.3422C26.0125 42.8798 26.3821 43.2686 27.1213 43.5086C28.1077 43.7181 29.1066 43.864 30.1117 43.9454C31.0921 43.9855 32.0618 44.1649 32.9917 44.4782C33.9805 44.8622 34.4893 45.515 34.4893 46.4414L34.4845 46.403ZM40.4077 48.8654L39.7981 48.9518L39.4141 48.9806C38.6796 49.035 37.9442 48.8873 37.2877 48.5533C37.0605 48.3804 36.8818 48.1516 36.7691 47.8892C36.6564 47.6267 36.6135 47.3397 36.6445 47.0558V40.8974H34.8589V39.9998H36.6349V37.1198H38.0125V39.9998H40.4125V40.9166H38.0125V46.8878C37.9902 47.0577 38.0106 47.2304 38.0718 47.3905C38.1329 47.5506 38.233 47.6928 38.3629 47.8046C38.7503 48.0097 39.1888 48.0981 39.6253 48.059C39.721 48.0707 39.8177 48.0707 39.9133 48.059C40.0237 48.059 40.1773 48.0062 40.3933 47.9486V48.8702L40.4077 48.8654ZM49.9165 46.8206C49.5365 47.1328 49.102 47.372 48.6349 47.5262C48.0986 47.6991 47.5376 47.7834 46.9741 47.7758C44.0941 47.7758 42.6541 46.595 42.6541 44.2094C42.6301 43.7212 42.7169 43.234 42.9081 42.7843C43.0993 42.3345 43.3899 41.9339 43.7581 41.6126C44.6442 40.9295 45.7468 40.5887 46.8637 40.6526C48.2077 40.6526 49.2301 40.9726 49.9309 41.6126C50.2791 41.9325 50.5532 42.3247 50.7339 42.7616C50.9147 43.1986 50.9978 43.6698 50.9773 44.1422C51.0075 44.6385 50.9272 45.1353 50.7421 45.5969C50.5569 46.0584 50.2717 46.4731 49.9069 46.811L49.9165 46.8206ZM52.3501 40.0094H50.9773V41.5262C50.5818 41.0954 50.1463 40.7033 49.6765 40.355C48.7498 39.8978 47.7234 39.6799 46.6909 39.7214C44.8989 39.7214 43.5325 40.1294 42.5917 40.9454C42.1343 41.3514 41.7755 41.8565 41.5426 42.4221C41.3097 42.9877 41.2088 43.5989 41.2477 44.2094C41.2378 44.8528 41.3536 45.4919 41.5885 46.091C41.805 46.6299 42.1435 47.1113 42.5773 47.4974C43.5373 48.2846 44.8717 48.6782 46.5805 48.6782C48.6541 48.6782 50.1133 48.1118 50.9917 46.9694V48.539C51.0149 48.9733 50.9408 49.4073 50.7747 49.8092C50.6086 50.2112 50.3547 50.5709 50.0317 50.8622C49.3917 51.4094 48.3549 51.683 46.9213 51.683C45.5629 51.683 44.5933 51.4958 44.0413 51.1262C43.5596 50.762 43.2378 50.2251 43.1437 49.6286H41.7373C41.7775 50.057 41.9109 50.4715 42.1282 50.8429C42.3454 51.2144 42.6412 51.5338 42.9949 51.779C43.7869 52.2878 45.1165 52.5422 46.9933 52.5422C50.5837 52.5422 52.3789 51.2078 52.3789 48.539V39.995L52.3501 40.0094ZM59.7853 40.9022C59.405 40.8349 59.0196 40.8012 58.6333 40.8014C56.3741 40.8014 55.2445 42.0398 55.2445 44.5166V48.8366H53.8861V40.019H55.2589V41.5886H55.3309C55.5285 41.0094 55.9158 40.5138 56.4301 40.1822C57.1918 39.816 58.0345 39.6507 58.8781 39.7022H59.8045V40.883L59.7853 40.9022ZM61.0669 43.859C61.1803 42.9731 61.5917 42.1522 62.2333 41.531C62.6335 41.212 63.0892 40.9695 63.5773 40.8158C64.1249 40.6494 64.6947 40.5685 65.2669 40.5758C66.3541 40.5301 67.4196 40.8893 68.2573 41.5838C68.6104 41.8523 68.8988 42.1964 69.1014 42.591C69.3041 42.9855 69.4159 43.4204 69.4285 43.8638H61.0765L61.0669 43.859ZM69.5677 41.1422C69.0641 40.6463 68.4483 40.2791 67.7725 40.0718C66.9644 39.8234 66.1218 39.7051 65.2765 39.7214C63.4941 39.7214 62.1117 40.1358 61.1293 40.9646C60.6449 41.3762 60.2606 41.8926 60.0053 42.4747C59.75 43.0568 59.6304 43.6894 59.6557 44.3246C59.6282 44.9617 59.7432 45.597 59.9923 46.1841C60.2414 46.7712 60.6184 47.2952 61.0957 47.7182C62.1181 48.6446 63.5533 49.1054 65.4157 49.1054C66.1084 49.1097 66.7987 49.0258 67.4701 48.8558C68.055 48.7065 68.6124 48.4651 69.1213 48.1406C69.8953 47.6229 70.4548 46.8416 70.6957 45.9422H69.1981C68.6893 47.4398 67.4173 48.203 65.3869 48.203C63.9469 48.203 62.8525 47.8382 62.0701 47.099C61.7416 46.7818 61.4834 46.3991 61.3122 45.9758C61.141 45.5524 61.0607 45.0978 61.0765 44.6414H70.8781C70.9158 43.9935 70.8184 43.3449 70.592 42.7367C70.3656 42.1285 70.0151 41.5741 69.5629 41.1086L69.5677 41.1422Z" fill="#231F20"/>
  <path d="M85.4075 45.2127C85.4075 47.8303 83.2971 49.1391 79.0763 49.1391C76.5483 49.1391 74.7003 48.6879 73.5323 47.7855C72.5723 47.0415 72.0923 45.9135 72.0923 44.3919H73.8011C73.8011 46.8335 75.5611 48.0559 79.0811 48.0591C80.7643 48.0591 81.9819 47.8095 82.7339 47.3103C83.0577 47.0744 83.3158 46.7596 83.4838 46.3958C83.6519 46.0321 83.7241 45.6315 83.6939 45.2319C83.7136 44.8096 83.5981 44.3919 83.3642 44.0397C83.1302 43.6875 82.7901 43.4191 82.3931 43.2735C81.2206 42.9086 80.0172 42.6515 78.7979 42.5055C76.4043 42.1407 74.8491 41.7759 74.1323 41.4111C73.6342 41.1566 73.2223 40.7608 72.9483 40.2733C72.6742 39.7857 72.5501 39.2281 72.5915 38.6703C72.5556 38.1475 72.6578 37.6244 72.8878 37.1535C73.1178 36.6825 73.4675 36.2803 73.9019 35.9871C74.8619 35.3439 76.4651 35.0271 78.7547 35.0271C82.8987 35.0271 84.9691 36.4015 84.9659 39.1503H83.2379C83.2379 37.0927 81.7051 36.0623 78.6395 36.0591C77.0987 36.0591 75.9707 36.2703 75.2555 36.6831C74.9301 36.8898 74.6654 37.1791 74.4883 37.5214C74.3112 37.8638 74.2281 38.247 74.2475 38.6319C74.2314 39.0446 74.3488 39.4515 74.5822 39.7922C74.8157 40.1329 75.1528 40.3892 75.5435 40.5231C76.0043 40.7343 77.3627 41.0287 79.6187 41.4063C81.7355 41.7231 83.1659 42.0927 83.9003 42.5151C84.3911 42.7658 84.7967 43.1562 85.0658 43.6372C85.3349 44.1182 85.4555 44.6681 85.4123 45.2175L85.4075 45.2127ZM99.2219 46.5279C98.5808 47.0407 97.85 47.4297 97.0667 47.6751C96.1956 47.9394 95.2889 48.0673 94.3787 48.0543C92.3483 48.0543 90.7211 47.5215 89.4731 46.4175C88.8559 45.8765 88.3675 45.2044 88.0436 44.4503C87.7197 43.6962 87.5685 42.8792 87.6011 42.0591C87.6011 40.1679 88.2203 38.6943 89.4587 37.6383C90.6971 36.5775 92.3387 36.0495 94.3787 36.0495C96.4187 36.0495 98.0795 36.6015 99.2651 37.7103C99.8669 38.2236 100.342 38.8692 100.652 39.5967C100.963 40.3815 101.115 41.2201 101.099 42.0639C101.138 42.9009 100.99 43.736 100.666 44.5084C100.341 45.2808 99.8477 45.9708 99.2219 46.5279ZM100.124 47.4207C100.964 46.8452 101.642 46.0633 102.092 45.1503C102.531 44.1833 102.747 43.1304 102.726 42.0687C102.764 41.1305 102.598 40.1951 102.239 39.3273C101.881 38.4596 101.337 37.6802 100.647 37.0431C99.8828 36.3349 98.9692 35.8068 97.9739 35.4975C96.8077 35.1519 95.5947 34.99 94.3787 35.0175C91.7579 35.0175 89.7019 35.6575 88.2107 36.9375C87.5039 37.5943 86.94 38.3899 86.5545 39.2744C86.169 40.1589 85.97 41.1134 85.97 42.0783C85.97 43.0432 86.169 43.9977 86.5545 44.8823C86.94 45.7668 87.5039 46.5623 88.2107 47.2191C89.7035 48.5199 91.7723 49.1679 94.3835 49.1679C95.2774 49.1764 96.1703 49.1073 97.0523 48.9615C97.7219 48.8511 98.3699 48.6357 98.9723 48.3231L101.487 50.0655L102.534 49.1055L100.1 47.4591L100.124 47.4207ZM115.441 48.8127H103.839V35.3727L105.438 35.3439V47.7039H115.475V48.8271L115.441 48.8127Z" fill="#367FAF"/>
  <path d="M65.1805 24.5246C65.3917 22.7726 65.3293 22.5134 66.6205 22.7966L66.9373 22.8302C67.9945 22.873 69.0489 22.6948 70.0333 22.307C71.6941 21.539 72.6781 20.2478 71.0413 20.5886C67.3021 21.3566 67.0429 20.1086 67.0429 20.1086C70.9933 14.2526 72.6397 6.81743 71.2189 4.99823C67.3357 0.0302284 60.6061 2.38222 60.4957 2.43982H60.4621C59.642 2.27319 58.8078 2.18479 57.9709 2.17583C56.5546 2.10963 55.1579 2.52779 54.0109 3.36143C54.0109 3.36143 42.0109 -1.58258 42.5629 9.57741C42.6781 11.9486 45.9613 27.539 49.8781 22.8302C51.3181 21.107 52.6957 19.6526 52.6957 19.6526C53.3921 20.1231 54.2303 20.3368 55.0669 20.2574L55.1341 20.1998C55.1105 20.4238 55.1186 20.65 55.1581 20.8718C54.1501 21.995 54.4477 22.1966 52.4317 22.6094C50.4157 23.0222 51.5869 23.7806 52.3693 23.9774C53.3293 24.2126 55.5181 24.5486 57.0013 22.475L56.9389 22.7102C57.3373 23.027 57.3085 24.9854 57.3661 26.387C57.3538 27.5598 57.5007 28.7289 57.8029 29.8622C58.0861 30.635 58.4221 32.6174 61.0765 32.051C63.2893 31.571 64.9837 30.8894 65.1373 24.5342" fill="#231F20"/>
  <path d="M65.1805 24.5246C65.3917 22.7726 65.3293 22.5134 66.6205 22.7966L66.9373 22.8302C67.9945 22.873 69.0489 22.6948 70.0333 22.307C71.6941 21.539 72.6781 20.2478 71.0413 20.5886C67.3021 21.3566 67.0429 20.1086 67.0429 20.1086C70.9933 14.2526 72.6397 6.81743 71.2189 4.99823C67.3357 0.0302283 60.6061 2.38222 60.4957 2.43982H60.4621C59.642 2.27319 58.8078 2.18479 57.9709 2.17583C56.5546 2.10963 55.1579 2.52779 54.0109 3.36143C54.0109 3.36143 42.0109 -1.58258 42.5629 9.57742C42.6781 11.9486 45.9613 27.539 49.8781 22.8302C51.3181 21.107 52.6957 19.6526 52.6957 19.6526C53.3921 20.1231 54.2303 20.3368 55.0669 20.2574L55.1341 20.1998C55.1105 20.4238 55.1186 20.65 55.1581 20.8718C54.1501 21.995 54.4477 22.1966 52.4317 22.6094C50.4157 23.0222 51.5869 23.7806 52.3693 23.9774C53.3293 24.2126 55.5181 24.5486 57.0013 22.475L56.9389 22.7102C57.3373 23.027 57.3085 24.9854 57.3661 26.387C57.3538 27.5598 57.5007 28.7289 57.8029 29.8622C58.0861 30.635 58.4221 32.6174 61.0765 32.051C63.2893 31.571 64.9837 30.8894 65.1373 24.5342" stroke="#231F20" stroke-width="1.96"/>
  <path d="M71.07 20.6079C67.3308 21.3759 67.0716 20.1279 67.0716 20.1279C71.022 14.2719 72.6684 6.83667 71.2476 5.01267C67.3596 0.0494715 60.6349 2.39667 60.5245 2.45907H60.4861C59.6654 2.29627 58.8315 2.2095 57.9949 2.19986C56.5782 2.13096 55.1806 2.54938 54.0349 3.38546C54.0349 3.38546 42.0348 -1.55853 42.5868 9.60147C42.7068 11.9775 45.99 27.5583 49.9068 22.8543C51.3468 21.1311 52.7197 19.6767 52.7197 19.6767C53.4165 20.146 54.2543 20.3597 55.0909 20.2815L55.158 20.2239C55.1395 20.4466 55.1491 20.6708 55.1868 20.8911C54.1788 22.0191 54.4717 22.2207 52.4557 22.6335C50.4397 23.0463 51.6156 23.8047 52.398 24.0015C53.358 24.2367 55.542 24.5727 57.0252 22.4943L56.9676 22.7343C57.3612 23.0511 57.6396 24.7935 57.5916 26.3727C57.5436 27.9519 57.5148 29.0367 57.8268 29.8815C58.1388 30.7263 58.4508 32.6367 61.1004 32.0703C63.318 31.5903 64.4605 30.3615 64.6237 28.3119C64.7389 26.8719 64.9981 27.0687 65.0125 25.7631L65.2188 25.1487C65.454 23.1663 65.2524 22.5327 66.6204 22.8303L66.9373 22.8591C67.9944 22.9023 69.049 22.7241 70.0333 22.3359C71.6941 21.5679 72.678 20.2815 71.0413 20.6175L71.07 20.6079Z" fill="#417BA2"/>
  <path d="M60.5101 2.36785C60.0829 2.49745 67.1869 -0.22415 71.2189 4.93585C72.6589 6.75505 71.0077 14.1902 67.0477 20.0463M57.2076 21.7215C57.102 25.4031 57.2316 29.1087 57.5916 30.0063C57.9516 30.9039 58.7196 32.6607 61.374 32.0943C63.5868 31.6143 64.398 30.6975 64.734 28.6671L65.5549 22.1823L57.2076 21.7215ZM54.0349 3.27025C54.0349 3.27025 42.0348 -1.63535 42.5868 9.51026C42.6924 11.8815 45.9853 27.4719 49.9021 22.7631C51.3421 21.0495 52.6285 19.6911 52.6285 19.6911L54.0349 3.27025Z" stroke="white" stroke-width="0.65" stroke-linecap="round" stroke-linejoin="round"/>
  <path d="M67.0472 20.0463C67.0472 20.0463 67.3016 21.3135 71.0408 20.5263C72.6776 20.1903 71.684 21.4863 70.0328 22.2495C68.6696 22.8783 65.612 23.0415 65.564 22.1679C65.4344 19.9119 67.172 20.5983 67.0472 20.0319C66.9224 19.4655 66.1544 19.0239 65.6408 17.7759C65.1944 16.6911 59.4872 8.34873 67.2248 9.58713C67.508 9.52953 65.2088 2.22872 57.9704 2.11352C50.732 1.99832 50.9672 11.0079 50.9672 11.0079" stroke="white" stroke-width="0.65" stroke-linecap="round" stroke-linejoin="bevel"/>
  <path d="M55.1775 20.8191C54.1695 21.9423 54.4671 22.1439 52.4511 22.5567C50.4351 22.9695 51.6111 23.7279 52.3935 23.9247C53.3535 24.1599 55.5374 24.4959 57.0206 22.4223C57.4718 21.7887 57.0206 20.7807 56.3966 20.5023C56.1941 20.389 55.9562 20.3567 55.7308 20.412C55.5055 20.4672 55.3094 20.6058 55.1823 20.7999L55.1775 20.8191Z" stroke="white" stroke-width="0.65" stroke-linejoin="round"/>
  <path d="M55.1153 20.7999C55.0097 20.1327 55.3312 19.3599 55.672 18.4239C56.1856 17.0367 57.3856 15.6543 56.4256 11.2623C55.72 7.98871 50.9681 10.5807 50.9681 11.0271C51.086 12.4757 51.0603 13.9324 50.8913 15.3759C50.5025 18.1215 52.6337 20.4399 55.0865 20.1759" stroke="white" stroke-width="0.65" stroke-linecap="round" stroke-linejoin="round"/>
  <path d="M54.0015 10.9598C54.0015 11.1134 54.2799 11.5166 54.6687 11.5694C54.8204 11.5878 54.974 11.5578 55.1076 11.4837C55.2412 11.4095 55.348 11.295 55.4127 11.1566C55.4127 11.0078 55.1343 10.8398 54.7455 10.7822C54.3567 10.7246 54.0207 10.8062 54.0015 10.9598Z" fill="white" stroke="white" stroke-width="0.22"/>
  <path d="M65.8339 10.6527C65.8339 10.8015 65.5555 11.2047 65.1667 11.2623C65.015 11.2807 64.8614 11.2507 64.7278 11.1766C64.5941 11.1024 64.4874 10.988 64.4227 10.8495C64.3987 10.6959 64.7011 10.5279 65.0899 10.4751C65.4787 10.4223 65.8099 10.4991 65.8339 10.6527Z" fill="white" stroke="white" stroke-width="0.11"/>
  <path d="M67.2248 9.60156C67.2872 10.792 66.9657 11.6032 66.9272 12.8656C66.8648 14.704 67.8057 16.8112 66.3896 18.9184" stroke="white" stroke-width="0.65" stroke-linecap="round" stroke-linejoin="round"/>
</svg>
