<svg xmlns="http://www.w3.org/2000/svg" width="40" height="42" viewBox="0 0 40 42" fill="none">
  <g clip-path="url(#clip0_195_396)">
    <path d="M5.77437 10.0499L14.1424 15.1644C15.1079 15.7546 16.3309 15.5578 17.1034 14.771C17.6183 14.2464 17.8758 13.5907 17.8758 12.8695V2.64052C17.9402 1.72254 17.4252 0.870129 16.6528 0.411138C15.8803 -0.0478532 14.9148 -0.0478532 14.1424 0.411138C13.3699 0.870129 12.9194 1.72254 12.9194 2.64052V8.47627L8.15603 5.59118C7.57671 5.26333 6.93302 5.13219 6.28933 5.3289C5.64563 5.52561 5.13068 5.91903 4.80883 6.50916C4.16514 7.75499 4.55136 9.26311 5.77437 10.0499ZM25.8576 15.1644L34.2256 10.0499C35.3842 9.32868 35.8348 7.75499 35.1267 6.50916C34.483 5.3289 33.0026 4.86991 31.8439 5.52561L31.7795 5.59118L27.0806 8.4107V2.64052C27.145 1.72254 26.63 0.870129 25.8576 0.411138C25.0851 -0.0478532 24.1196 -0.0478532 23.3472 0.411138C22.5747 0.870129 22.1242 1.72254 22.1242 2.64052V12.6728C22.0598 13.1973 22.1885 13.7219 22.446 14.2464C22.7678 14.8366 23.2828 15.2956 23.9265 15.4267C24.6346 15.6234 25.2783 15.4923 25.8576 15.1644ZM18.4551 21.0002C18.4551 20.869 18.5195 20.6723 18.6482 20.5412L19.6138 19.4921C19.6781 19.3609 19.8712 19.2953 20 19.2953H20.0643C20.1931 19.2953 20.3862 19.3609 20.5149 19.4921L21.4805 20.5412C21.5448 20.6723 21.6092 20.8035 21.6092 21.0002C21.6092 21.1969 21.5448 21.328 21.4161 21.4592L20.4506 22.5083C20.3218 22.6394 20.1931 22.705 20.0643 22.705H20C19.8712 22.705 19.6781 22.6394 19.5494 22.5083L18.5838 21.4592C18.5195 21.328 18.4551 21.1969 18.4551 21.0002ZM15.4941 20.5412V21.4592C15.4941 21.6559 15.5585 21.9181 15.6872 22.0493L19.0344 25.5901C19.1632 25.7212 19.3563 25.7868 19.6138 25.8524H20.4506C20.6437 25.7868 20.8368 25.7212 21.0299 25.5901L24.3771 22.0493C24.5058 21.9181 24.5702 21.6559 24.5702 21.4592V20.5412C24.5702 20.3445 24.5058 20.0822 24.3127 19.951L21.0299 16.4103C20.8368 16.2791 20.6437 16.2135 20.4506 16.148H19.6138C19.3563 16.2135 19.1632 16.2791 19.0344 16.4103L15.6872 19.951C15.5585 20.1478 15.4941 20.3445 15.4941 20.5412ZM1.39727 18.1151L6.16059 21.0002L1.39727 23.8853C0.238619 24.6065 -0.211965 26.1802 0.496096 27.426C0.817942 28.0162 1.3329 28.4752 1.97659 28.6063C2.62028 28.803 3.26397 28.6719 3.8433 28.344L12.2113 23.2296C12.9837 22.705 13.4343 21.8526 13.4343 20.9346C13.4343 20.0166 12.9837 19.1642 12.2113 18.6396L3.8433 13.5252C3.26397 13.1973 2.62028 13.0662 1.97659 13.2629C1.3329 13.4596 0.817942 13.853 0.496096 14.4431C-0.147596 15.8201 0.238619 17.3938 1.39727 18.1151ZM26.5013 21.0002C26.5013 21.9181 26.9518 22.7706 27.7243 23.2951L36.0923 28.4096C36.6716 28.7374 37.3153 28.8686 37.959 28.6719C38.6027 28.4752 39.1176 28.0817 39.4395 27.4916C40.1475 26.2458 39.697 24.6721 38.5383 23.9508L33.8394 21.0002L38.6027 18.1151C39.7613 17.3938 40.2119 15.8201 39.5038 14.5743C39.182 13.9842 38.667 13.5252 38.0234 13.394C37.3797 13.1973 36.736 13.3285 36.1567 13.6563L27.7243 18.7708C26.9518 19.2298 26.5013 20.0822 26.5013 21.0002ZM15.816 26.5736C15.2367 26.4425 14.6573 26.5736 14.1424 26.9015L5.77437 32.0159C4.61573 32.7372 4.16514 34.3109 4.8732 35.5567C5.19505 36.1469 5.71 36.6059 6.3537 36.737C6.99739 36.9337 7.64108 36.8026 8.2204 36.4747L12.9837 33.5896V39.3598C12.9194 40.7368 14.0136 41.917 15.3654 41.9826C15.816 41.9826 16.3309 41.8515 16.7171 41.6548C17.4896 41.1958 17.9402 40.3434 17.9402 39.4254V29.1309C17.8758 27.885 17.039 26.7703 15.816 26.5736ZM34.2256 32.0159L25.8576 26.9015C25.3426 26.5081 24.6346 26.4425 23.9909 26.6392C23.3472 26.8359 22.8322 27.2293 22.5104 27.8195C22.2529 28.2785 22.1242 28.803 22.1885 29.3931V39.3598C22.1242 40.7368 23.2184 41.917 24.5702 41.9826C25.0208 41.9826 25.5357 41.8515 25.9219 41.6548C26.6944 41.1958 27.145 40.3434 27.145 39.4254V33.6552L31.8439 36.5403C32.4232 36.8681 33.0669 36.9993 33.7106 36.8026C34.3543 36.6059 34.8693 36.2124 35.1911 35.6223C35.8348 34.3109 35.4486 32.7372 34.2256 32.0159Z" fill="#29B5E8"/>
  </g>
  <defs>
    <clipPath id="clip0_195_396">
      <rect width="39.6514" height="41.9649" fill="white" transform="translate(0.174255 0.0177002)"/>
    </clipPath>
  </defs>
</svg>