<svg xmlns="http://www.w3.org/2000/svg" width="40" height="41" viewBox="0 0 40 41" fill="none">
  <path d="M31.5247 4.05882C27.8077 6.84648 24.0907 9.63415 20.1083 12.4218C19.8428 11.3598 19.9755 10.4306 19.9755 9.63415C20.1083 7.7757 19.9755 7.64295 18.117 7.90844C12.6743 8.70492 8.02813 13.7493 7.62989 19.3246C7.49714 22.1123 8.02813 24.7672 9.62112 27.1566C10.1521 27.9531 10.1521 28.3514 9.35561 29.0151C8.02812 29.8116 6.83339 30.7408 5.63865 31.8027C4.57666 32.732 4.04566 32.4665 3.24917 31.4045C-3.12277 21.714 0.195939 8.43944 10.4176 2.8641C17.3205 -0.852791 26.082 -0.321805 31.5247 4.05882Z" fill="#45C8EB"/>
  <path d="M9.09009 36.7143C12.8071 33.9267 16.524 31.2718 20.5065 28.3513C20.5065 29.5461 20.6392 30.608 20.5065 31.5372C20.3737 32.9974 20.9047 33.1302 22.0995 32.9975C30.9937 31.9355 35.7726 21.3158 30.7282 13.7493C29.7989 12.2891 29.7989 11.7581 31.2591 10.8289C32.3211 10.2979 33.2504 9.50139 34.1796 8.70492C35.1089 7.90844 35.6399 7.90844 36.4364 8.97041C41.7463 16.4042 41.0826 27.0239 34.7106 33.9267C28.3387 40.8295 17.8515 42.4224 10.0193 37.6436C9.75383 37.3781 9.35559 37.2453 9.09009 36.7143Z" fill="#0494E0"/>
</svg>