<svg width="164" height="24" viewBox="0 0 164 24" fill="none" xmlns="http://www.w3.org/2000/svg">
<path fill-rule="evenodd" clip-rule="evenodd" d="M11.3556 0.717965C10.6912 0.760825 5.93384 2.80736 4.9953 3.56812C4.10325 4.29118 1.39029 8.29558 1.12366 8.69059C1.10828 8.71338 1.09389 8.73174 1.07647 8.75301C0.934183 8.9268 0.253263 9.81329 0.147816 10.9828C0.0470651 12.1002 0.00894901 20.3893 4.62186e-06 22.7727C-0.00133053 23.1285 0.286775 23.412 0.64256 23.412H3.37496C3.67005 23.412 3.92725 23.2111 3.99871 22.9248L4.0879 22.5675C4.13472 22.3799 4.05555 22.1835 3.89174 22.0808C3.69767 21.9591 3.62705 21.7104 3.72824 21.5049L4.96494 18.9935C4.98512 18.9525 5.00088 18.9095 5.01194 18.8652L5.70984 16.0689C5.77789 15.7963 6.01511 15.5994 6.29562 15.5828L17.1974 14.9377C17.5668 14.9159 17.8783 15.2095 17.8783 15.5795V22.7691C17.8783 23.1242 18.1661 23.412 18.5212 23.412H21.8894C22.1937 23.412 22.4563 23.1987 22.5186 22.9009L22.5904 22.5581C22.6291 22.3735 22.5524 22.1838 22.3963 22.078C22.2146 21.9548 22.1438 21.7212 22.2266 21.5178L23.3895 18.6618C23.4129 18.6044 23.4277 18.545 23.4342 18.4833C23.4904 17.9476 23.7928 15.2386 24.1952 14.8975C24.6267 14.5316 29.0096 11.7603 29.3084 11.5715C29.3197 11.5643 29.3283 11.5586 29.3392 11.5507C29.5392 11.4068 31.705 9.85534 32.1852 9.83033C32.6438 9.80644 35.0925 10.6128 35.5267 10.7572C35.5711 10.772 35.616 10.7817 35.6625 10.7867L39.9214 11.2399C40.5214 11.3685 40.9286 11.3221 41.0572 11.2828C41.7943 11.0256 42.4787 10.5613 42.7287 10.3613C43.101 10.0709 43.1553 9.77556 43.1303 9.61876C43.1237 9.5772 43.1124 9.53566 43.0921 9.4988C43.0297 9.38532 42.8582 9.25219 42.73 9.1668C42.6801 9.13359 42.6329 9.09616 42.592 9.05235L40.5428 6.85756C40.4657 6.78041 40.4178 6.53969 40.4035 6.42897V5.96823C40.4464 5.52249 40.1857 5.13961 40.05 5.00389L37.4355 2.45375C37.2806 2.33406 37.2356 2.19171 37.2304 2.10509C37.2292 2.0857 37.2301 2.06628 37.2309 2.04685C37.2314 2.03435 37.2319 2.02185 37.2319 2.00935V1.68372C37.2319 1.6498 37.2352 1.61594 37.2385 1.58216L37.2385 1.58203L37.2393 1.57414C37.2607 1.35241 37.1744 1.18461 37.1248 1.12511C36.8638 0.823947 36.5652 0.81435 36.2906 0.805526C36.2721 0.804932 36.2537 0.804341 36.2355 0.803665C36.0482 0.79673 35.6754 0.980993 35.4188 1.12728C35.3141 1.18695 35.1991 1.22154 35.0786 1.22166C34.1773 1.22253 30.1971 1.23015 29.3244 1.29657C28.7461 1.34058 27.0471 0.890532 25.6057 0.508743C24.5899 0.23967 23.7021 0.00449911 23.4248 6.94777e-05C23.0927 -0.00523472 21.912 0.294043 20.7143 0.597647C19.4925 0.907345 18.2529 1.22154 17.8783 1.22154C17.5468 1.22154 16.3422 1.11247 15.0515 0.995614C13.4533 0.850907 11.7231 0.694254 11.3556 0.717965ZM26.1506 17.2431L29.8295 13.0403C30.0742 12.7607 30.5345 12.9037 30.5777 13.2727L31.5898 21.908C31.6026 22.0173 31.6569 22.1175 31.7416 22.1879L32.2276 22.5914C32.3796 22.7177 32.4256 22.9316 32.3389 23.1092L32.0215 23.7594C31.9364 23.9337 31.7448 24.0292 31.5544 23.9921L28.5982 23.4158C28.4557 23.3881 28.337 23.2901 28.2827 23.1555L26.0756 17.6857C26.0151 17.5358 26.0441 17.3647 26.1506 17.2431ZM8.8783 18.1428L12.2717 16.1495C12.5225 16.0021 12.8442 16.1422 12.9072 16.4262L14.0162 21.4233C14.0336 21.5017 14.0727 21.5737 14.1291 21.631L14.7544 22.2665C14.873 22.3871 14.9096 22.5662 14.8478 22.7237L14.6123 23.324C14.5398 23.5086 14.3501 23.6194 14.1537 23.5918L11.2162 23.1793C11.0782 23.16 10.9582 23.0747 10.8946 22.9508L8.71418 18.7083C8.61027 18.5061 8.68229 18.2579 8.8783 18.1428Z" fill="#1A8596"/>
<path d="M61.6903 12.0085C63.0926 9.92728 65.1195 9.32639 67.4608 9.63716C68.7604 9.74272 69.9699 10.333 70.8417 11.2872C71.7135 12.2414 72.1815 13.4873 72.1502 14.7699C72.2399 17.4204 72.158 20.0768 72.1973 22.7299C72.2071 23.4101 71.8219 23.3682 71.3612 23.3746C70.8566 23.3792 70.4536 23.4043 70.4673 22.6763C70.5105 20.4198 70.4889 18.1631 70.4778 15.9098C70.4695 15.4469 70.4332 14.9849 70.3691 14.5262C69.9542 11.267 67.0454 10.7222 64.8645 11.4443C63.4884 11.8957 62.6207 13.2632 62.6024 15.0033C62.5763 17.4576 62.5776 19.9121 62.6063 22.367C62.6143 23.038 62.5173 23.3984 61.6844 23.3984C60.8377 23.3984 60.761 23.0026 60.767 22.3514C60.7879 20.0304 60.8127 17.7093 60.767 15.3882C60.7014 12.2864 58.5115 10.6017 55.5979 11.3534C54.8886 11.531 54.2563 11.9285 53.7945 12.4871C53.3326 13.0458 53.0658 13.7359 53.0337 14.4553C52.8381 17.1008 52.8043 19.7555 52.9322 22.405C52.9433 23.4597 52.4027 23.4172 51.687 23.3721C51.3772 23.3533 51.1628 23.2747 51.1734 22.9162C51.2533 20.002 50.9551 17.0768 51.3293 14.1735C51.6176 11.9356 52.8411 10.3122 55.1417 9.7893C57.6005 9.22709 59.8685 9.57976 61.4872 11.7622C61.5382 11.8286 61.6006 11.8982 61.6903 12.0085Z" fill="white"/>
<path d="M151.094 11.9407C151.965 10.914 153.127 10.1666 154.433 9.79412C155.738 9.42162 157.127 9.441 158.421 9.84977C161.742 10.7318 163.426 13.5338 163.164 17.5377C163.093 18.8547 162.622 20.1203 161.813 21.1719C161.004 22.2234 159.894 23.0127 158.625 23.4383C157.306 23.8832 155.883 23.9406 154.531 23.6034C153.179 23.2663 151.955 22.5491 151.01 21.5395C149.901 20.269 149.302 18.6428 149.326 16.9677C149.296 11.6654 149.319 6.36238 149.311 1.06005C149.311 0.466886 149.379 0.0194327 150.158 0.00202568C150.967 -0.0160268 151.105 0.403053 151.102 1.06777C151.084 4.61256 151.094 8.15734 151.094 11.9407ZM151.094 16.6698C150.994 21.0289 154.672 23.045 158.36 21.7542C160.643 20.9554 161.888 18.31 161.406 15.5647C161.047 13.5196 160.075 11.9452 157.911 11.374C154.011 10.3353 151.087 12.6241 151.094 16.6691V16.6698Z" fill="white"/>
<path d="M143.102 11.9743C143.102 8.16644 143.108 4.59393 143.095 1.02208C143.095 0.414089 143.181 -0.00950853 143.962 0.00016224C144.606 0.0104784 144.86 0.229047 144.857 0.882812C144.835 6.29153 144.893 11.7003 144.817 17.1076C144.761 21.1334 141.794 23.8221 137.679 23.7594C133.793 23.7008 130.974 20.8142 130.955 16.8743C130.938 13.1993 132.675 10.5887 135.816 9.82405C138.521 9.1632 140.993 9.61001 143.102 11.9743ZM137.877 22.1135C141.068 22.118 143.095 20.009 143.102 16.6758C143.109 13.2528 141.109 11.1432 137.866 11.1516C134.681 11.16 132.689 13.265 132.681 16.6376C132.67 19.9658 134.702 22.1082 137.877 22.1128V22.1135Z" fill="white"/>
<path d="M110.745 12.2447C110.745 8.49226 110.755 4.86108 110.736 1.22991C110.732 0.592908 110.861 0.215738 111.619 0.239593C112.22 0.25829 112.456 0.476858 112.454 1.07775C112.434 6.57997 112.506 12.0835 112.403 17.5831C112.332 21.3729 109.352 24.0156 105.457 23.9975C104.567 24.0214 103.682 23.8713 102.853 23.5559C102.023 23.2405 101.265 22.7662 100.624 22.1604C99.9817 21.5547 99.4684 20.8295 99.1136 20.027C98.7588 19.2245 98.5696 18.3607 98.5569 17.4857C98.4147 13.9629 99.8636 11.304 102.67 10.3156C105.679 9.25563 108.441 9.6586 110.745 12.2447ZM105.536 22.3509C108.689 22.3361 110.779 20.1286 110.743 16.8583C110.702 13.4561 108.66 11.3594 105.414 11.3884C102.255 11.4168 100.258 13.5709 100.278 16.9293C100.299 20.2458 102.354 22.3658 105.536 22.3509Z" fill="white"/>
<path d="M122.008 23.7653C120.131 23.7518 118.454 23.2889 117.33 21.679C117.036 21.2579 116.651 20.7538 117.324 20.3165C117.892 19.9472 118.271 20.1773 118.676 20.6764C119.426 21.4989 120.446 22.0353 121.558 22.1917C122.67 22.3482 123.803 22.1145 124.757 21.532C125.076 21.3416 125.333 21.0663 125.499 20.7382C125.665 20.4101 125.733 20.0423 125.696 19.6776C125.674 19.3267 125.543 18.9906 125.32 18.7156C125.097 18.4405 124.794 18.2395 124.451 18.1399C123.169 17.7223 121.86 17.3901 120.533 17.1458C119.976 17.0161 119.43 16.8405 118.902 16.6209C118.42 16.4177 117.992 16.1082 117.65 15.7163C117.309 15.3244 117.064 14.8607 116.933 14.3608C116.803 13.8608 116.791 13.3381 116.898 12.8329C117.005 12.3277 117.229 11.8535 117.552 11.4469C119.24 9.10328 125.133 8.68225 126.909 11.7229C127.139 12.1168 127.651 12.5565 126.983 12.9936C126.413 13.3669 126 13.2689 125.559 12.6603C124.341 10.9659 121.052 10.6242 119.433 11.9556C119.137 12.1535 118.905 12.4304 118.764 12.7538C118.623 13.0772 118.579 13.4335 118.637 13.7807C118.695 14.128 118.853 14.4517 119.091 14.7136C119.33 14.9756 119.64 15.1649 119.985 15.2592C121.064 15.6261 122.206 15.8182 123.32 16.0845C124.112 16.2543 124.876 16.5308 125.59 16.9066C126.16 17.1872 126.639 17.6175 126.975 18.1501C127.311 18.6824 127.491 19.2961 127.493 19.9229C127.496 20.5495 127.323 21.1648 126.992 21.7002C126.661 22.2357 126.185 22.6704 125.619 22.9562C124.514 23.5489 123.265 23.829 122.008 23.7653Z" fill="white"/>
<path d="M95.4369 18.9569C95.4369 20.1503 95.4041 21.3425 95.4501 22.5371C95.4749 23.1818 95.2784 23.4069 94.5982 23.3869C93.9777 23.3682 93.6808 23.2528 93.69 22.5577C93.728 20.3367 93.722 18.1148 93.6997 15.8937C93.6643 12.505 91.1558 10.5791 87.802 11.3438C86.9001 11.5334 86.0909 12.0201 85.5081 12.7235C84.9253 13.4268 84.6039 14.3048 84.597 15.2122C84.4973 17.5978 84.5269 19.9832 84.5433 22.3688C84.5478 23.0394 84.4547 23.3869 83.6259 23.3966C82.747 23.4069 82.7267 22.9781 82.7477 22.3501C82.8335 19.8356 82.5687 17.3103 82.8913 14.8028C83.329 11.3941 85.766 9.47727 89.4626 9.56881C90.2256 9.55447 90.9839 9.68821 91.6943 9.9624C92.4047 10.2366 93.0532 10.6459 93.6026 11.1668C94.1522 11.6878 94.592 12.3102 94.8968 12.9985C95.2016 13.6867 95.3656 14.4274 95.3793 15.1781C95.4644 16.4321 95.3931 17.6926 95.3931 18.955L95.4369 18.9569Z" fill="white"/>
<path d="M78.3332 16.7053C78.3332 18.6259 78.307 20.5467 78.3475 22.4667C78.362 23.1405 78.187 23.379 77.4538 23.3873C76.6582 23.3964 76.596 23.0386 76.6019 22.4202C76.6215 18.646 76.6156 14.871 76.6078 11.0961C76.6078 10.4952 76.5894 9.9723 77.4597 9.95295C78.3299 9.93361 78.3502 10.4184 78.3443 11.0432C78.322 12.931 78.3332 14.8182 78.3332 16.7053Z" fill="white"/>
<path d="M76.0015 5.77636C76.0069 5.39394 76.1642 5.02882 76.4397 4.75904C76.7153 4.48927 77.0872 4.33629 77.4758 4.33279C77.677 4.32743 77.8768 4.36391 78.0627 4.43987C78.2485 4.51583 78.4158 4.62954 78.5538 4.77355C78.6919 4.91755 78.7975 5.08863 78.8635 5.27554C78.9297 5.46247 78.9551 5.66103 78.9379 5.85823C78.9181 6.23532 78.7491 6.58983 78.4672 6.84596C78.1852 7.10209 77.8126 7.23949 77.429 7.22878C77.0453 7.21809 76.6812 7.06014 76.4144 6.78872C76.1476 6.51728 75.9995 6.15393 76.0015 5.77636Z" fill="white"/>
</svg>
