<svg width="1638" height="272" viewBox="0 0 1638 272" fill="none" xmlns="http://www.w3.org/2000/svg">
<g clip-path="url(#clip0_1448_301)">
<path d="M339.492 137.348C345.018 181.509 350.147 222.983 355.471 264.432C356.111 269.393 355.09 271.147 349.637 271.423C316.771 273.047 316.795 273.218 304.916 242.746C299.973 230.063 295.152 217.332 289.885 204.779C288.724 202.716 288.296 200.319 288.67 197.981C289.043 195.642 290.197 193.499 291.943 191.902C307.509 174.575 322.589 156.818 339.492 137.348Z" fill="#00B06D"/>
<path d="M146.347 174.363C151.047 198.681 155.698 221.529 159.782 244.482C161.046 251.587 166.743 260.616 161.865 265.414C157.675 269.539 148.373 263.701 141.226 263.969C122.241 264.692 113.4 255.752 110.313 236.98C108.506 225.962 107.696 218.305 116.795 209.78C127.369 198.599 137.239 186.771 146.347 174.363V174.363Z" fill="#00B06D"/>
<path d="M199.952 218.719C199.952 205.071 199.741 191.414 200.057 177.765C200.178 172.406 198.687 170.596 193.007 170.409C154.231 169.121 115.461 167.562 76.696 165.732C70.6106 165.448 68.204 167.177 66.9156 173.21C60.9355 201.141 54.145 228.901 48.2784 256.84C46.6578 264.692 43.6517 267.606 35.4515 266.697C26.3584 265.76 17.2048 265.557 8.07917 266.088C1.19967 266.437 -0.104919 263.571 -0.0238881 257.555C0.567635 215.618 1.44286 173.681 1.03771 131.752C0.962673 118.851 5.26253 106.306 13.2328 96.1732C34.6654 66.3101 55.3687 35.9029 76.1287 5.56884C77.2486 3.49149 79.0121 1.83515 81.1533 0.84954C83.2945 -0.136071 85.6972 -0.397574 87.9996 0.104452C165.481 8.41331 243 16.4623 320.557 24.2515C325.405 24.8345 330.034 26.6084 334.033 29.4155C380.172 59.4573 426.237 89.6128 472.595 119.289C479.515 123.722 479.726 126.247 473.049 130.242C471.608 131.017 470.32 132.049 469.248 133.287C455.887 150.581 440.256 149.794 421.335 142.162C398.46 132.93 374.337 126.8 350.839 118.948C348.601 118.036 346.174 117.69 343.772 117.94C341.369 118.191 339.065 119.031 337.063 120.385C315.487 133.815 293.812 147.077 272.036 160.17C270.076 161.224 268.401 162.742 267.159 164.591C265.916 166.44 265.142 168.566 264.906 170.783C260.125 199.606 254.663 228.325 250.271 257.205C249.007 265.487 246.066 268.11 237.85 267.533C227.417 266.915 216.958 266.899 206.523 267.485C200.332 267.761 198.752 265.568 198.922 259.674C199.327 246.025 199.052 232.36 199.052 218.703L199.952 218.719Z" fill="#00B06D"/>
<path d="M660.886 134.214C674.386 113.801 693.898 107.915 716.44 110.968C728.953 112.008 740.595 117.799 748.987 127.157C757.378 136.514 761.884 148.731 761.582 161.308C762.441 187.29 761.656 213.337 762.036 239.352C762.134 246.018 758.422 245.612 753.982 245.652C749.12 245.693 745.239 245.945 745.376 238.808C745.798 216.699 745.587 194.581 745.482 172.464C745.402 167.925 745.054 163.394 744.437 158.897C740.45 126.939 712.438 121.628 691.451 128.684C684.604 131.449 678.807 136.318 674.895 142.591C670.983 148.864 669.156 156.219 669.678 163.598C669.424 187.658 669.424 211.724 669.678 235.795C669.751 242.372 668.819 245.904 660.765 245.896C652.613 245.896 651.851 242.015 651.932 235.625C652.135 212.891 652.37 190.083 651.932 167.333C651.316 136.917 630.216 120.402 602.171 127.775C595.345 129.518 589.26 133.415 584.815 138.891C580.37 144.367 577.802 151.131 577.489 158.182C575.605 184.121 575.278 210.15 576.509 236.128C576.614 246.472 571.412 246.05 564.508 245.628C561.526 245.441 559.468 244.67 559.557 241.162C560.327 212.59 557.459 183.912 561.065 155.446C561.59 145.221 565.474 135.457 572.113 127.674C578.752 119.891 587.773 114.525 597.771 112.413C621.44 106.9 643.27 110.359 658.86 131.753C659.403 132.46 660.003 133.142 660.886 134.214Z" fill="#1D1D1B"/>
<path d="M1521.55 133.548C1529.94 123.483 1541.13 116.156 1553.69 112.503C1566.26 108.851 1579.63 109.04 1592.09 113.046C1624.05 121.693 1640.26 149.169 1637.75 188.419C1637.06 201.33 1632.53 213.739 1624.74 224.049C1616.95 234.358 1606.26 242.097 1594.05 246.269C1581.35 250.632 1567.65 251.195 1554.63 247.889C1541.61 244.583 1529.84 237.551 1520.74 227.652C1510.06 215.192 1504.29 199.248 1504.53 182.824C1504.24 130.86 1504.46 78.8473 1504.38 26.8588C1504.38 21.0453 1505.04 16.6527 1512.53 16.4822C1520.31 16.3035 1521.65 20.412 1521.62 26.9319C1521.46 61.7073 1521.55 96.4664 1521.55 133.548ZM1521.55 179.918C1520.59 222.658 1556.01 242.437 1591.5 229.771C1613.48 221.936 1625.46 196.002 1620.82 169.054C1617.36 148.999 1608.01 133.564 1587.19 127.945C1549.62 117.812 1521.49 140.254 1521.55 179.918Z" fill="#1D1D1B"/>
<path d="M1444.6 133.889C1444.6 96.5401 1444.66 61.5293 1444.54 26.5103C1444.54 20.5506 1445.35 16.3691 1452.88 16.4909C1459.08 16.5883 1461.52 18.7318 1461.5 25.1381C1461.28 78.1659 1461.85 131.194 1461.11 184.213C1460.57 223.682 1432.01 250.046 1392.39 249.437C1383.66 249.448 1375.02 247.69 1366.99 244.268C1358.95 240.846 1351.7 235.831 1345.65 229.524C1339.6 223.217 1334.89 215.75 1331.8 207.571C1328.71 199.392 1327.3 190.67 1327.66 181.932C1327.49 145.882 1344.22 120.306 1374.45 112.811C1386.9 108.88 1400.25 108.788 1412.76 112.546C1425.27 116.304 1436.36 123.74 1444.6 133.889V133.889ZM1394.3 233.295C1425.03 233.344 1444.54 212.664 1444.6 179.983C1444.68 146.426 1425.42 125.737 1394.2 125.819C1363.54 125.9 1344.39 146.539 1344.28 179.61C1344.17 212.266 1363.74 233.246 1394.3 233.295V233.295Z" fill="#1D1D1B"/>
<path d="M1135.44 134.196C1135.44 97.4073 1135.55 61.8037 1135.35 26.2082C1135.35 19.9644 1136.55 16.262 1143.85 16.465C1149.64 16.6517 1151.91 18.7952 1151.89 24.6737C1151.7 78.619 1152.39 132.58 1151.4 186.51C1150.72 223.664 1122.02 249.581 1084.51 249.402C1075.95 249.639 1067.43 248.17 1059.44 245.08C1051.46 241.99 1044.16 237.342 1037.98 231.404C1031.8 225.466 1026.85 218.358 1023.44 210.491C1020.02 202.624 1018.19 194.155 1018.07 185.576C1016.7 151.036 1030.64 124.973 1057.66 115.278C1086.69 104.893 1113.26 108.864 1135.44 134.196ZM1085.3 233.253C1115.65 233.107 1135.8 211.469 1135.42 179.405C1135.03 146.051 1115.36 125.492 1084.12 125.817C1053.71 126.101 1034.48 147.212 1034.7 180.144C1034.89 212.646 1054.66 233.432 1085.3 233.285V233.253Z" fill="#1D1D1B"/>
<path d="M1241.54 249.49C1223.47 249.36 1207.33 244.822 1196.51 229.037C1193.68 224.905 1189.97 219.968 1196.44 215.681C1201.91 212.06 1205.56 214.317 1209.45 219.213C1216.68 227.278 1226.5 232.538 1237.21 234.071C1247.91 235.605 1258.82 233.314 1268.01 227.6C1271.07 225.735 1273.55 223.037 1275.15 219.82C1276.75 216.602 1277.4 212.997 1277.04 209.421C1276.83 205.981 1275.57 202.688 1273.43 199.991C1271.29 197.294 1268.37 195.322 1265.07 194.343C1252.74 190.249 1240.14 186.994 1227.36 184.6C1221.99 183.328 1216.74 181.606 1211.66 179.452C1207.02 177.456 1202.9 174.42 1199.61 170.576C1196.33 166.733 1193.97 162.185 1192.72 157.284C1191.47 152.382 1191.35 147.258 1192.39 142.306C1193.42 137.354 1195.58 132.707 1198.69 128.722C1214.94 105.744 1271.68 101.62 1288.77 131.434C1290.98 135.299 1295.91 139.602 1289.48 143.889C1283.99 147.551 1279.99 146.585 1275.78 140.641C1264.04 124.029 1232.38 120.676 1216.8 133.732C1213.95 135.672 1211.71 138.387 1210.36 141.558C1209 144.729 1208.57 148.222 1209.13 151.627C1209.69 155.031 1211.21 158.204 1213.51 160.772C1215.81 163.34 1218.79 165.196 1222.11 166.12C1232.5 169.717 1243.49 171.601 1254.22 174.239C1261.84 175.902 1269.21 178.616 1276.09 182.302C1281.55 185.069 1286.14 189.292 1289.36 194.506C1292.58 199.721 1294.29 205.724 1294.32 211.853C1294.35 217.983 1292.69 224.002 1289.52 229.246C1286.35 234.49 1281.8 238.756 1276.37 241.574C1265.72 247.392 1253.66 250.133 1241.54 249.49V249.49Z" fill="#1D1D1B"/>
<path d="M985.753 202.341C985.753 214.042 985.437 225.758 985.883 237.442C986.126 243.751 984.262 245.967 977.699 245.772C971.727 245.594 968.842 244.457 968.956 237.653C969.32 215.876 969.264 194.092 969.045 172.316C968.705 139.091 944.557 120.214 912.323 127.7C903.643 129.56 895.856 134.331 890.247 141.225C884.639 148.119 881.544 156.723 881.475 165.617C880.511 188.985 880.802 212.41 880.956 235.81C880.997 242.386 880.106 245.788 872.108 245.886C863.648 245.983 863.454 241.826 863.656 235.631C864.467 210.972 861.931 186.216 865.034 161.631C869.248 128.211 892.706 109.415 928.295 110.316C935.64 110.177 942.941 111.491 949.779 114.18C956.618 116.87 962.86 120.884 968.15 125.993C973.439 131.102 977.672 137.205 980.606 143.954C983.541 150.703 985.119 157.965 985.251 165.325C986.061 177.618 985.381 190.008 985.381 202.358L985.753 202.341Z" fill="#1D1D1B"/>
<path d="M821.092 180.273C821.092 199.102 820.841 217.939 821.23 236.759C821.368 243.369 819.682 245.691 812.624 245.788C804.967 245.878 804.367 242.37 804.4 236.313C804.586 199.305 804.529 162.297 804.456 125.288C804.456 119.402 804.278 114.27 812.641 114.083C821.003 113.897 821.213 118.647 821.157 124.769C820.978 143.265 821.092 161.769 821.092 180.273Z" fill="#1D1D1B"/>
<path d="M798.646 73.1135C798.699 69.364 800.214 65.7841 802.867 63.1393C805.52 60.4946 809.101 58.995 812.843 58.9614C814.778 58.9124 816.702 59.2725 818.489 60.0184C820.275 60.7642 821.885 61.8791 823.213 63.2902C824.541 64.7014 825.558 66.3771 826.196 68.2081C826.834 70.0392 827.08 71.9846 826.918 73.9173C826.865 75.7774 826.447 77.6088 825.687 79.3069C824.928 81.005 823.841 82.5365 822.491 83.8141C821.141 85.0917 819.553 86.0903 817.817 86.7528C816.082 87.4154 814.234 87.729 812.377 87.6757C810.521 87.6224 808.693 87.2032 806.998 86.4421C805.304 85.681 803.775 84.593 802.5 83.24C801.225 81.887 800.229 80.2956 799.567 78.5567C798.906 76.8178 798.593 74.9656 798.646 73.1055V73.1135Z" fill="#1D1D1B"/>
</g>
<defs>
<clipPath id="clip0_1448_301">
<rect width="1638" height="272" fill="white"/>
</clipPath>
</defs>
</svg>
