<svg xmlns="http://www.w3.org/2000/svg" width="40" height="29" viewBox="0 0 40 29" fill="none">
  <g clip-path="url(#clip0_155_2540)">
    <path d="M39.1642 5.47816C38.7041 3.81238 37.3487 2.50034 35.6276 2.05502C32.5083 1.24609 20 1.24609 20 1.24609C20 1.24609 7.49168 1.24609 4.37219 2.05511C2.65123 2.50043 1.29583 3.81238 0.83583 5.47824C-8.29286e-08 8.49762 0 14.7975 0 14.7975C0 14.7975 -8.29286e-08 21.0976 0.83583 24.1168C1.29583 25.7827 2.65123 27.0401 4.37219 27.4855C7.49168 28.2944 20 28.2944 20 28.2944C20 28.2944 32.5083 28.2944 35.6276 27.4854C37.3487 27.04 38.7041 25.7826 39.1642 24.1168C40 21.0975 40 14.7975 40 14.7975C40 14.7975 40 8.49762 39.1642 5.47816Z" fill="#FF0000"/>
    <path d="M15.9091 20.5178V9.07812L26.3635 14.7981L15.9091 20.5178Z" fill="white"/>
  </g>
  <defs>
    <clipPath id="clip0_155_2540">
      <rect width="40" height="28.5714" fill="white" transform="translate(0 0.214233)"/>
    </clipPath>
  </defs>
</svg>