<svg xmlns="http://www.w3.org/2000/svg" width="40" height="40" viewBox="0 0 40 40" fill="none">
  <path d="M27.8991 10.5248C22.8076 5.41482 14.5515 5.41482 9.46 10.5248L1.13817 18.8765C0.646244 19.3708 0.646244 20.1666 1.13817 20.6608L9.46 29.0127C14.5515 34.1226 22.8076 34.1226 27.8991 29.0211C32.9988 23.9195 32.9988 15.6347 27.8991 10.5248ZM25.9314 26.5666C22.1927 30.3195 16.1256 30.3195 12.3869 26.5666L6.26243 20.4263C5.90168 20.0661 5.90168 19.4797 6.26243 19.1112L12.3788 12.9792C16.1174 9.22633 22.1845 9.22633 25.9231 12.9792C29.6701 16.7321 29.6701 22.8138 25.9314 26.5666Z" fill="#4FC4F9"/>
  <path d="M38.8034 18.8848L35.1385 15.1404C34.9171 14.9141 34.5481 15.1236 34.622 15.4335C35.2533 18.2901 35.2533 21.2723 34.622 24.1288C34.5564 24.4388 34.9253 24.6398 35.1385 24.422L38.8034 20.6775C39.2871 20.1749 39.2871 19.3791 38.8034 18.8848Z" fill="#4FC4F9"/>
  <path d="M19.1998 26.3405C22.7454 26.3405 25.6195 23.4038 25.6195 19.7813C25.6195 16.1588 22.7454 13.2221 19.1998 13.2221C15.6544 13.2221 12.7802 16.1588 12.7802 19.7813C12.7802 23.4038 15.6544 26.3405 19.1998 26.3405Z" fill="#4FC4F9"/>
</svg>