<svg xmlns="http://www.w3.org/2000/svg" xmlns:xlink="http://www.w3.org/1999/xlink" viewBox="0 0 120.343 36.343" fill="#fff" fill-rule="evenodd" stroke="#000" stroke-linecap="round" stroke-linejoin="round"><use xlink:href="#A" x="2.171" y="2.171"/><symbol id="A" overflow="visible"><g stroke="none" fill-rule="nonzero"><path d="M40.531 22.083c-4.056 0-6.097-2.918-6.097-6.158s2.119-6.08 6.136-6.08c1.537 0 2.64.339 3.578.938l-1.159 1.898c-.73-.473-1.588-.711-2.458-.682-2.18 0-3.344 1.737-3.344 3.9s1.12 4.06 3.379 4.06a4.08 4.08 0 0 0 2.658-.899l1.06 1.824c-.599.538-2.019 1.238-3.761 1.238zm8.616-7.279c-1.303 0-1.72 1.099-1.72 2.701s.521 2.736 1.824 2.736 1.759-1.086 1.759-2.679-.538-2.758-1.859-2.758zm.043 7.279c-3.04 0-4.36-2.28-4.36-4.517s1.32-4.621 4.36-4.621 4.417 2.258 4.417 4.499-1.359 4.603-4.417 4.603zm8.238-8.877v5.559c0 .86.304 1.281 1.12 1.281.882 0 1.537-.838 1.72-1.042v-5.798h2.441v6.08c-.012.853.068 1.705.239 2.541H60.53c-.098-.38-.157-.768-.178-1.16-.46.599-1.359 1.359-2.801 1.359-1.92 0-2.597-1.216-2.597-2.823v-6.019h2.475v.022zm11.291 8.877c-2.801 0-4.516-1.824-4.516-4.538 0-2.918 1.941-4.56 4.603-4.56.933-.032 1.856.204 2.658.682l-.782 1.681c-.537-.341-1.162-.514-1.798-.5-1.359 0-2.085 1.06-2.085 2.641s.677 2.718 2.141 2.718c.999 0 1.581-.36 1.841-.521l.738 1.637c-.4.261-1.199.76-2.801.76zm9.359-.2v-5.576c0-.86-.304-1.281-1.121-1.281-.882 0-1.563.869-1.737 1.042v5.798h-2.441V9.068h2.441v5.159c.434-.434 1.281-1.238 2.701-1.238 1.919 0 2.597 1.216 2.597 2.823v6.058h-2.441zm6.879-1.898c.373.129.766.187 1.16.174 1.303 0 2.041-.921 2.041-2.701 0-1.598-.538-2.606-1.737-2.606a2 2 0 0 0-1.42.638zm0-10.857v4.799c.564-.562 1.323-.884 2.119-.899 2.158 0 3.678 1.477 3.678 4.473s-1.998 4.621-4.638 4.621c-1.98 0-3.179-.499-3.618-.695V9.068h2.458zm11.578 8.942h-.304c-1.338 0-2.28.4-2.28 1.381 0 .621.5.882 1.042.882a1.85 1.85 0 0 0 1.537-.721zm.261 3.822c-.079-.301-.126-.61-.139-.921-.378.46-1.199 1.138-2.419 1.138-1.477 0-2.619-.882-2.619-2.441 0-2.258 2.319-3.04 4.616-3.04h.304v-.434c0-.721-.304-1.159-1.381-1.159-1.121 0-1.881.582-2.198.799l-1.06-1.477c.521-.434 1.681-1.303 3.539-1.303 2.397 0 3.539.921 3.539 3.24v3.04a12.37 12.37 0 0 0 .239 2.597zm6.579.2c-1.563 0-2.606-.46-3.101-.868l.868-1.737c.339.239 1.181.721 2.141.721.899 0 1.398-.261 1.398-.738 0-.565-.981-.721-2.171-1.32s-1.898-1.238-1.898-2.606c0-1.642 1.303-2.679 3.279-2.679a5.6 5.6 0 0 1 2.801.682l-.838 1.659c-.339-.2-1.021-.538-1.841-.538s-1.181.278-1.181.738c0 .565.799.695 1.798 1.099 1.359.565 2.345 1.199 2.345 2.64-.043 1.859-1.359 2.823-3.5 2.823zm10.058-5.646c-.022-.955-.4-1.737-1.433-1.737-.955 0-1.52.621-1.681 1.737zm-.921 3.8c1.181 0 1.824-.378 2.258-.599l.782 1.563c-.582.321-1.459.838-3.257.838-2.918 0-4.577-1.824-4.577-4.603s1.898-4.499 4.317-4.499c2.736 0 4.061 1.898 3.761 5.137h-5.459c.1 1.303.782 2.158 2.18 2.158z" fill="#000"/><path d="M15.586.004C6.979.007.002 6.984 0 15.591s6.979 15.584 15.586 15.586a15.59 15.59 0 0 0 15.591-15.591C31.175 6.979 24.198.002 15.591 0zm10.523 18.318c0 .942-.543 1.768-1.607 1.954-1.837.33-5.698.521-8.924.521s-7.087-.187-8.924-.521c-1.06-.187-1.607-1.012-1.607-1.954v-6.08c0-.942.73-1.811 1.607-1.954.928-.125 1.864-.187 2.801-.187.378 0 .682.282.682.73v4.256l5.463-.117 5.463.117v-4.256c0-.447.304-.73.682-.73.937-.001 1.873.062 2.801.187a2 2 0 0 1 1.602 1.954l-.043 6.08z" fill="#ed2226"/></g></symbol></svg>