<svg xmlns="http://www.w3.org/2000/svg" width="40" height="40" viewBox="0 0 40 40" fill="none">
  <path fill-rule="evenodd" clip-rule="evenodd" d="M33.562 23.5119C33.5897 24.115 33.3899 24.7064 33.0022 25.1691C32.6145 25.6319 32.0672 25.9321 31.4686 26.0105C27.6918 26.4942 23.886 26.7161 20.0785 26.6745C16.2711 26.7157 12.4653 26.4939 8.68848 26.0105C8.11048 25.9071 7.59017 25.596 7.22539 25.1359C6.8606 24.6758 6.67647 24.0983 6.7076 23.5119V15.701C6.71409 15.1112 6.92009 14.5409 7.29205 14.0831C7.66401 13.6253 8.18001 13.307 8.75601 13.1799C9.94601 13.0205 11.1458 12.9453 12.3464 12.9548C12.5802 12.9607 12.8023 13.0585 12.9645 13.2271C13.1268 13.3956 13.216 13.6213 13.213 13.8552V19.3588C15.6328 19.3588 17.715 19.2125 20.1686 19.2125C22.6222 19.2125 24.6706 19.3476 27.1129 19.3588V13.9002C27.0974 13.6661 27.1751 13.4354 27.329 13.2583C27.4829 13.0812 27.7005 12.9721 27.9345 12.9548C29.1276 12.9453 30.3199 13.0205 31.5024 13.1799C32.0804 13.3048 32.599 13.6222 32.9732 14.0802C33.3474 14.5382 33.555 15.1096 33.562 15.701V23.5119ZM20.1236 0.000380975C16.168 -0.0240287 12.2941 1.12504 8.99157 3.3023C5.68909 5.47956 3.10639 8.5872 1.57009 12.2323C0.0337792 15.8773 -0.387144 19.8961 0.360548 23.7804C1.10824 27.6647 2.99096 31.24 5.77064 34.0543C8.55032 36.8686 12.1021 38.7954 15.9769 39.5911C19.8516 40.3869 23.8753 40.0157 27.5392 38.5247C31.203 37.0336 34.3424 34.4896 36.5604 31.2144C38.7784 27.9391 39.9753 24.0797 39.9999 20.1242V20.0004C40.0088 17.3819 39.5016 14.7873 38.5074 12.3648C37.5132 9.94235 36.0514 7.73953 34.2056 5.88221C32.3597 4.02489 30.166 2.54946 27.7498 1.54023C25.3335 0.531002 22.7421 0.00775872 20.1236 0.000380975Z" fill="#EA2328"/>
</svg>