<?xml version="1.0" encoding="UTF-8" standalone="no"?>
<svg width="43px" height="64px" viewBox="0 0 43 64" version="1.1" xmlns="http://www.w3.org/2000/svg" xmlns:xlink="http://www.w3.org/1999/xlink">
    <!-- Generator: Sketch 47.1 (45422) - http://www.bohemiancoding.com/sketch -->
    <title>cryptopanic-logo-vert-dark</title>
    <desc>Created with Sketch.</desc>
    <defs></defs>
    <g id="Page-4" stroke="none" stroke-width="1" fill="none" fill-rule="evenodd">
        <g id="cryptopanic-web-new-logo" transform="translate(-19.000000, -13.000000)">
            <g id="cryptopanic-logo-vert-dark" transform="translate(19.000000, 13.000000)">
                <g id="Group-5" transform="translate(0.119862, 43.539463)">
                    <path d="M1.09040944,3.70524018 C1.09040944,5.83978071 2.60553724,7.44068611 4.85314403,7.44068611 C6.72949435,7.44068611 7.7429242,6.23245562 7.7429242,6.23245562 L6.8398679,4.94367643 C6.8398679,4.94367643 6.01708327,5.82971212 4.93341571,5.82971212 C3.60893313,5.82971212 2.906556,4.73223609 2.906556,3.66496583 C2.906556,2.62790132 3.55876333,1.61097399 4.93341571,1.61097399 C5.92677764,1.61097399 6.72949435,2.34598087 6.72949435,2.34598087 L7.54224502,1.01692733 C7.54224502,1.01692733 6.62915476,0 4.85314403,0 C2.69584287,0 1.09040944,1.61097399 1.09040944,3.70524018 L1.09040944,3.70524018 Z M8.80652385,7.31986306 L10.5624667,7.31986306 L10.5624667,4.89333349 L11.3852513,4.89333349 L12.6595641,7.31986306 L14.6161861,7.31986306 L13.2214658,4.80271621 C13.0508885,4.50065858 12.9505489,4.36976695 12.9505489,4.36976695 L12.9505489,4.34962977 C13.66296,3.98716062 14.0241825,3.15146787 14.0241825,2.38625522 C14.0241825,1.33912213 13.5124506,0.604115246 12.6996999,0.291989036 C12.3886472,0.171165986 12.0374586,0.120823049 11.3049796,0.120823049 L8.80652385,0.120823049 L8.80652385,7.31986306 Z M10.5624667,3.38304538 L10.5624667,1.63111116 L11.1544702,1.63111116 C12.0374586,1.63111116 12.2381378,1.95330596 12.2381378,2.49700968 C12.2381378,3.07091917 11.8869492,3.38304538 11.3250475,3.38304538 L10.5624667,3.38304538 Z M17.1648116,7.31986306 L18.9207544,7.31986306 L18.9207544,4.36976695 L21.2887687,0.120823049 L19.2920109,0.120823049 L18.4892942,1.85262009 C18.2585132,2.34598087 18.057834,2.88968459 18.057834,2.88968459 L18.0377661,2.88968459 C18.0377661,2.88968459 17.8370869,2.34598087 17.6063058,1.85262009 L16.7935552,0.120823049 L14.7967973,0.120823049 L17.1648116,4.36976695 L17.1648116,7.31986306 Z M22.0914855,7.31986306 L23.8474283,7.31986306 L23.8474283,5.09470524 L25.0715713,5.09470524 C26.4662916,5.09470524 27.4094837,4.04757215 27.4094837,2.59769556 C27.4094837,1.14781897 26.4662916,0.120823049 25.0715713,0.120823049 L22.0914855,0.120823049 L22.0914855,7.31986306 Z M23.8474283,3.58441713 L23.8474283,1.63111116 L24.7404506,1.63111116 C25.3224202,1.63111116 25.623439,2.02378607 25.623439,2.59769556 C25.623439,3.17160504 25.3224202,3.58441713 24.7103487,3.58441713 L23.8474283,3.58441713 Z M29.8276678,7.31986306 L31.5836106,7.31986306 L31.5836106,1.63111116 L33.7609797,1.63111116 L33.7609797,0.120823049 L27.6502987,0.120823049 L27.6502987,1.63111116 L29.8276678,1.63111116 L29.8276678,7.31986306 Z M34.1523041,3.67503441 C34.1523041,5.78943777 35.7376696,7.44068611 37.9050047,7.44068611 C40.0723398,7.44068611 41.6577054,5.78943777 41.6577054,3.67503441 C41.6577054,1.61097399 40.0723398,0 37.9050047,0 C35.7376696,0 34.1523041,1.61097399 34.1523041,3.67503441 L34.1523041,3.67503441 Z M35.9684506,3.67503441 C35.9684506,2.49700968 36.8313711,1.61097399 37.9050047,1.61097399 C38.9786383,1.61097399 39.8415588,2.49700968 39.8415588,3.67503441 C39.8415588,4.90340208 38.9786383,5.82971212 37.9050047,5.82971212 C36.8313711,5.82971212 35.9684506,4.90340208 35.9684506,3.67503441 L35.9684506,3.67503441 Z" id="CRYPTO" fill="#FF9933"></path>
                    <path d="M6.23922924,11.7906188 C6.87416956,12.3323973 7.19163495,13.1645567 7.19163495,14.2871218 C7.19163495,15.409687 6.86553104,16.231011 6.21331344,16.7511184 C5.56109584,17.2712258 4.56550708,17.5312756 3.2265173,17.5312756 L2.02143253,17.5312756 L2.02143253,20.0667865 L0,20.0667865 L0,10.977955 L3.2006015,10.977955 C4.59142314,10.977955 5.60428893,11.2488402 6.23922924,11.7906188 L6.23922924,11.7906188 Z M4.7555496,15.3663393 C4.99743162,15.0932829 5.11837082,14.6945399 5.11837082,14.1700983 C5.11837082,13.6456566 4.96071794,13.2729186 4.64540744,13.0518729 C4.33009695,12.8308273 3.83986127,12.7203061 3.1746857,12.7203061 L2.02143253,12.7203061 L2.02143253,15.7759219 L3.38201211,15.7759219 C4.05582632,15.7759219 4.51366758,15.6393957 4.7555496,15.3663393 L4.7555496,15.3663393 Z M15.2125756,20.0667865 L14.370312,18.1033909 L10.5736471,18.1033909 L9.73138351,20.0667865 L7.58037198,20.0667865 L11.493658,10.977955 L13.450301,10.977955 L17.3635871,20.0667865 L15.2125756,20.0667865 Z M12.4784585,13.6825 L11.3381632,16.3220319 L13.6057959,16.3220319 L12.4784585,13.6825 Z M25.2679066,10.977955 L27.2893391,10.977955 L27.2893391,20.0667865 L25.2679066,20.0667865 L20.9529256,14.3716389 L20.9529256,20.0667865 L18.9314931,20.0667865 L18.9314931,10.977955 L20.8233466,10.977955 L25.2679066,16.8291341 L25.2679066,10.977955 Z M30.0364141,10.977955 L32.0578466,10.977955 L32.0578466,20.0667865 L30.0364141,20.0667865 L30.0364141,10.977955 Z M38.9644078,18.2724249 C39.9578518,18.2724249 40.7698721,17.8780161 41.4004931,17.0891865 L42.6962832,18.4284564 C41.6682846,19.5900296 40.456733,20.1708075 39.061592,20.1708075 C37.6664511,20.1708075 36.5175287,19.7287228 35.6147904,18.8445402 C34.7120521,17.9603576 34.2606898,16.8443106 34.2606898,15.4963655 C34.2606898,14.1484205 34.7206906,13.0237051 35.6407062,12.1221856 C36.5607218,11.2206661 37.6858882,10.7699131 39.0162394,10.7699131 C40.5020861,10.7699131 41.7460321,11.3376885 42.7481148,12.4732563 L41.4911984,13.9035445 C40.8519388,13.1060465 40.0571955,12.7073035 39.1069447,12.7073035 C38.346744,12.7073035 37.6966958,12.9565179 37.1567806,13.4549541 C36.6168654,13.9533904 36.3469118,14.6251857 36.3469118,15.4703603 C36.3469118,16.3155348 36.601748,16.9938314 37.1114279,17.5052703 C37.6211079,18.0167093 38.2387617,18.2724249 38.9644078,18.2724249 L38.9644078,18.2724249 Z" id="PANIC" fill="#FFFFFF"></path>
                </g>
                <path d="M18.2704034,36.4439326 C19.3234926,36.6322065 20.4077729,36.7304652 21.5150013,36.7304652 C26.4206603,36.7304652 30.8758484,34.8016469 34.1636507,31.660971 C31.4298944,31.2121559 27.7475473,30.5576171 27.7430145,30.287598 C27.7365135,29.9234232 35.3184129,28.7266918 36.8090214,28.4949419 C37.0310894,28.1586634 37.2423654,27.8146303 37.442356,27.4633361 C34.763555,27.0185826 31.4273968,26.4132294 31.4230825,26.1562241 C31.4180254,25.8729289 36.005045,25.0858167 38.7444559,24.641075 C39.4470066,22.6972363 39.8300018,20.6004946 39.8300018,18.4142938 C39.8300018,8.29855162 31.6300968,0.0981223469 21.5150013,0.0981223469 C16.6067198,0.0981223469 12.1493909,2.02900349 8.86108002,5.17265448 C11.6057534,5.62711905 15.3664776,6.29675499 15.3618983,6.55328294 C15.3552488,6.94939641 7.4338004,8.17301106 6.20313225,8.36072644 C5.98634625,8.69027195 5.77991156,9.02723357 5.58429083,9.37114861 C8.27934752,9.82206354 11.686189,10.440489 11.6818303,10.6846568 C11.6767215,10.9889842 6.9998268,11.7817522 4.27458246,12.2179333 C3.57901221,14.1532205 3.20000076,16.2394929 3.20000076,18.4142938 C3.20000076,20.6347336 3.59508648,22.7628903 4.31879043,24.7322921 C4.86293424,24.480053 5.46885234,24.1107661 6.11466568,23.7485138 C4.9152775,23.6050665 4.27868474,23.3567437 4.27868474,23.3567437 C6.12231362,22.9334162 9.18461367,21.7724528 9.18461367,21.7724528 C9.33985633,21.6637519 9.49509898,21.555051 9.6387066,21.5123358 C10.8690128,20.7087142 11.8897251,19.9361728 12.7008435,19.1947116 C13.7139079,19.2372678 15.0258225,19.1284078 16.2017775,18.2471655 C15.4061181,18.5150924 13.523597,18.3872647 13.523597,18.3872647 C11.675981,18.0614801 10.8490773,16.9631542 11.0703063,16.8660884 C13.5581759,15.8759862 15.7393841,14.6957369 15.7393841,14.6957369 C16.2205711,13.8960998 18.12986,11.1710858 20.5208253,11.1164173 C21.2699445,11.1124328 21.9336313,10.8212357 22.5002507,10.3088113 L25.9116021,7.16827968 C25.9116021,7.16827968 27.8019342,7.63767061 27.8682468,9.96262742 C27.9461944,12.2215986 26.2268901,13.4832941 26.4637412,14.0693547 C26.7122273,14.5894298 29.2155559,13.1257931 29.2155559,13.1257931 C29.2155559,13.1257931 29.7786776,15.3342393 28.691979,16.0951455 C27.6052804,16.8560517 25.1449942,20.7766164 24.4894447,23.7226985 C24.3265541,24.646497 24.1209473,25.4266891 23.9153405,26.2068813 C23.9425977,26.8240221 23.7605872,29.7855647 22.7011458,31.1636117 L22.5224699,30.247623 C21.5330019,32.3864172 20.361034,34.0167715 19.0803637,35.4918843 C18.7790766,35.8450728 18.5111938,36.1605964 18.2704034,36.4439326 Z M20.0959011,13.5491173 L20.5382047,12.1982507 L21.3454881,11.8643111 C20.9964183,13.8439843 20.0959011,13.5491173 20.0959011,13.5491173 L20.0959011,13.5491173 Z" id="Combined-Shape" fill="#FF9933"></path>
            </g>
        </g>
    </g>
</svg>