<svg xmlns="http://www.w3.org/2000/svg" width="40" height="39" viewBox="0 0 40 39" fill="none">
  <path d="M13.0321 0.0673056C8.75759 0.34768 3.927 0.943475 2.18938 1.46918L0.347504 1.99488V4.93881V7.91779H20.1564H40L39.8957 4.86872L39.7915 1.81964L38.2971 1.36404C37.4631 1.15376 35.3779 0.768241 33.6056 0.557961C30.1998 0.172446 16.5421 -0.142975 13.0321 0.0673056Z" fill="#8A68C9"/>
  <path d="M0.347504 19.4832V23.3384H20.1564H39.9652V19.4832V15.6281H20.1564H0.347504V19.4832Z" fill="#8A68C9"/>
  <path d="M0 34.0276C0 36.586 0.0347524 36.6912 0.973068 37.0416C4.76108 38.5136 16.9939 39.3898 25.821 38.829C31.9722 38.4435 37.2546 37.7075 39.0617 37.0066C39.9305 36.6912 39.9653 36.551 39.9653 34.0276V31.3991H19.9826H0V34.0276Z" fill="#8A68C9"/>
</svg>