<svg xmlns="http://www.w3.org/2000/svg" width="40" height="40" viewBox="0 0 40 40" fill="none">
  <path d="M6.56295 19.9711C6.56295 13.7304 11.4852 8.70308 17.5955 8.70308C19.8021 8.70308 21.8388 9.33872 23.5361 10.4944L28.2886 5.69825C25.3466 3.38685 21.6125 2 17.5955 2C7.86423 2 0 10.0321 0 19.9711C0 29.9102 7.86423 37.9423 17.5955 37.9423V31.2393C11.4852 31.2393 6.56295 26.212 6.56295 19.9711Z" fill="url(#paint0_linear_155_1734)"/>
  <path d="M28.6278 19.971H35.1908C35.1908 15.2327 33.3803 10.8988 30.4383 7.66283L25.799 12.4012C27.5528 14.4237 28.6278 17.0817 28.6278 19.971Z" fill="url(#paint1_linear_155_1734)"/>
  <path d="M22.9703 20.5488H13.2956L30.3819 38L40 37.9422L22.9703 20.5488Z" fill="url(#paint2_linear_155_1734)"/>
  <path opacity="0.6" d="M2.31962 11.0151C-1.92366 23.6123 10.7496 28.8707 10.7496 28.8707C9.39178 27.8305 7.69446 25.4036 7.18527 23.6699C6.1103 20.0873 6.44976 17.2559 8.20365 14.1355" fill="url(#paint3_linear_155_1734)"/>
  <defs>
    <linearGradient id="paint0_linear_155_1734" x1="39.6042" y1="38.057" x2="7.46173" y2="6.13466" gradientUnits="userSpaceOnUse">
      <stop stop-color="#892C6C"/>
      <stop offset="1" stop-color="#D14671"/>
    </linearGradient>
    <linearGradient id="paint1_linear_155_1734" x1="7.07178" y1="4.13044" x2="40.3201" y2="36.1694" gradientUnits="userSpaceOnUse">
      <stop stop-color="#C34170"/>
      <stop offset="1" stop-color="#8B2C6C"/>
    </linearGradient>
    <linearGradient id="paint2_linear_155_1734" x1="38.1897" y1="37.2374" x2="4.32799" y2="5.55151" gradientUnits="userSpaceOnUse">
      <stop stop-color="#882B6B"/>
      <stop offset="1" stop-color="#CF4671"/>
    </linearGradient>
    <linearGradient id="paint3_linear_155_1734" x1="4.22337" y1="26.4505" x2="9.00352" y2="13.4548" gradientUnits="userSpaceOnUse">
      <stop stop-color="white" stop-opacity="0.38"/>
      <stop offset="0.8598" stop-color="white" stop-opacity="0.01"/>
      <stop offset="1" stop-color="white" stop-opacity="0"/>
    </linearGradient>
  </defs>
</svg>