<svg xmlns="http://www.w3.org/2000/svg" width="40" height="45" viewBox="0 0 40 45" fill="none">
  <path d="M11.9335 17.0416C11.3557 17.3916 11.1676 18.1589 11.5438 18.7242C11.6782 18.9396 11.7991 19.0742 11.8395 19.1011L10.3748 17.9569L9.01756 16.8935L1.73438 11.2265C2.01656 10.8765 2.37938 10.5804 2.76907 10.3515L17.6983 1.72308C18.9076 1.02311 20.3992 1.02311 21.6086 1.72308L29.7115 6.40748L11.9335 17.0416Z" fill="#FABF00"/>
  <path d="M16.4619 26.3699L9.95813 36.5598C9.43406 37.3675 8.37249 37.6367 7.53936 37.1521L2.76901 34.3926C1.55963 33.6927 0.820557 32.4004 0.820557 31.0005V13.7436C0.820557 13.1244 0.96837 12.5186 1.23712 11.9937L9.555 18.4818L15.9782 23.4893C16.8516 24.1623 17.0666 25.4142 16.4619 26.3699Z" fill="#337E8D"/>
  <path d="M36.6184 32.5083C37.2365 32.9929 37.2096 33.9756 36.5243 34.3794C36.5243 34.3794 36.5109 34.3794 36.5109 34.3928L21.5951 43.0213C20.3857 43.7213 18.8942 43.7213 17.6848 43.0213L11.2079 39.2792C10.4554 38.8484 10.4419 37.7581 11.1944 37.3139L29.0396 26.6259L36.6184 32.5083Z" fill="#337E8D"/>
  <path d="M38.4727 13.7436V31.0005C38.4727 31.4312 38.4056 31.8485 38.2577 32.2523L30.1683 25.9392L24.0004 21.1471C23.1136 20.4606 22.912 19.2222 23.5032 18.2799L29.8055 8.41306C30.3161 7.61886 31.3642 7.3631 32.1705 7.83424L36.5109 10.3514C37.7202 11.0514 38.4727 12.3436 38.4727 13.7436Z" fill="#337E8D"/>
  <path d="M29.698 27.1239L28.1258 25.899C28.1258 25.899 28.5961 26.8816 27.7764 27.3797C26.9567 27.8777 28.5558 27.6758 28.5558 27.6758L29.698 27.1239Z" fill="#337E8D"/>
  <path d="M38.4324 31.4986C38.4324 31.4986 38.2711 32.3332 38.0964 32.764C38.0964 32.764 38.2039 32.2121 37.4246 31.6063C36.6452 31.0006 37.868 30.7583 37.868 30.7583L38.4324 31.4986Z" fill="#337E8D"/>
  <path d="M0.968384 12.6264C0.968384 12.6264 1.25057 11.8322 1.41182 11.5092C1.41182 11.5092 1.26401 12.0207 1.77464 12.4245C2.28527 12.8283 1.45214 13.0572 1.45214 13.0572L0.968384 12.6264Z" fill="#337E8D"/>
</svg>