<svg xmlns="http://www.w3.org/2000/svg" width="40" height="39" viewBox="0 0 40 39" fill="none">
  <path d="M1.45035 29.3415C1.03666 30.0161 0.572044 30.799 0.17744 31.4227C0.00765442 31.7096 -0.0427905 32.0517 0.0369478 32.3754C0.116686 32.6991 0.320242 32.9786 0.603867 33.1538L8.87781 38.2455C9.02158 38.3343 9.1816 38.3935 9.34851 38.4198C9.51543 38.4461 9.68591 38.4389 9.85001 38.3986C10.0141 38.3583 10.1685 38.2858 10.3043 38.1852C10.4401 38.0846 10.5545 37.958 10.6408 37.8127C10.9718 37.259 11.3982 36.5398 11.8628 35.7697C15.1405 30.3598 18.4374 31.0217 24.3819 33.8603L32.5858 37.7618C32.7396 37.835 32.9065 37.8766 33.0767 37.8841C33.2469 37.8916 33.4168 37.8649 33.5764 37.8056C33.7361 37.7462 33.8822 37.6554 34.0061 37.5386C34.1301 37.4217 34.2293 37.2812 34.2979 37.1253L38.2376 28.2149C38.3714 27.9091 38.3796 27.5629 38.2606 27.2509C38.1415 26.939 37.9047 26.6864 37.6011 26.5474C35.8699 25.7328 32.4267 24.1098 29.3272 22.6141C18.1764 17.1979 8.6996 17.5479 1.45035 29.3415Z" fill="url(#paint0_linear_141_527)"/>
  <path d="M38.5497 9.12118C38.9633 8.44653 39.428 7.66369 39.8226 7.03996C39.9924 6.75304 40.0428 6.41097 39.9631 6.08725C39.8833 5.76354 39.6798 5.48403 39.3961 5.3088L31.1222 0.217143C30.9773 0.119581 30.814 0.0528697 30.6422 0.0211592C30.4705 -0.0105513 30.2941 -0.00658265 30.1239 0.0328182C29.9538 0.0722191 29.7936 0.146209 29.6533 0.250186C29.5129 0.354162 29.3955 0.4859 29.3083 0.637204C28.9773 1.19092 28.5509 1.91012 28.0863 2.68023C24.8085 8.09012 21.5117 7.4282 15.5672 4.5896L7.38871 0.707214C7.23492 0.634014 7.068 0.592423 6.89785 0.584903C6.72769 0.577384 6.55775 0.604089 6.3981 0.663438C6.23846 0.722787 6.09234 0.813573 5.96842 0.930417C5.84449 1.04726 5.74527 1.18779 5.67664 1.34367L1.73698 10.2541C1.60319 10.56 1.59493 10.9062 1.71398 11.2181C1.83303 11.53 2.06986 11.7826 2.37343 11.9216C4.1046 12.7363 7.54783 14.3592 10.6474 15.8549C21.8236 21.2648 31.3004 20.902 38.5497 9.12118Z" fill="url(#paint1_linear_141_527)"/>
  <defs>
    <linearGradient id="paint0_linear_141_527" x1="38.0148" y1="40.8741" x2="12.983" y2="26.4901" gradientUnits="userSpaceOnUse">
      <stop offset="0.18" stop-color="#0052CC"/>
      <stop offset="1" stop-color="#2684FF"/>
    </linearGradient>
    <linearGradient id="paint1_linear_141_527" x1="1.98519" y1="-2.41779" x2="27.0234" y2="11.9725" gradientUnits="userSpaceOnUse">
      <stop offset="0.18" stop-color="#0052CC"/>
      <stop offset="1" stop-color="#2684FF"/>
    </linearGradient>
  </defs>
</svg>