<svg xmlns="http://www.w3.org/2000/svg" width="40" height="40" viewBox="0 0 40 40" fill="none">
  <path d="M20.0008 38.1348C21.5076 38.1348 22.728 36.9143 22.728 35.4075V11.7711H17.2735V35.4075C17.2735 36.9143 18.494 38.1348 20.0008 38.1348Z" fill="#F9AB00"/>
  <path d="M30.8661 20.3957C27.9252 17.4571 23.532 16.8616 20.0002 18.6071L31.6752 30.2821C32.157 30.7639 32.9865 30.573 33.1911 29.9253C34.2184 26.673 33.4434 22.9753 30.8661 20.3957Z" fill="#5BB974"/>
  <path d="M9.13433 20.3957C12.0752 17.4571 16.4684 16.8616 20.0002 18.6071L8.32524 30.2821C7.84342 30.7639 7.01387 30.573 6.80933 29.9253C5.78205 26.673 6.55705 22.9753 9.13433 20.3957Z" fill="#129EAF"/>
  <path d="M30.0002 11.3351C25.3547 11.3351 21.4115 14.3805 20.0002 18.6078H38.4638C39.2206 18.6078 39.7252 17.8078 39.382 17.1328C37.6275 13.6896 34.0865 11.3351 30.0002 11.3351Z" fill="#AF5CF7"/>
  <path d="M21.9299 6.39372C18.6436 9.68008 18.0095 14.6187 20.0004 18.6074L33.0572 5.55053C33.5936 5.01417 33.3845 4.09144 32.664 3.85735C28.9868 2.66417 24.8186 3.50508 21.9299 6.39372Z" fill="#FF8BCB"/>
  <path d="M18.0715 6.39372C21.3578 9.68008 21.9919 14.6187 20.001 18.6074L6.94421 5.55053C6.40784 5.01417 6.61693 4.09144 7.33739 3.85735C11.0147 2.66417 15.1828 3.50508 18.0715 6.39372Z" fill="#FA7B17"/>
  <path d="M10.0009 11.3357C14.6464 11.3357 18.5895 14.3811 20.0009 18.6084H1.53727C0.780453 18.6084 0.275908 17.8084 0.61909 17.1334C2.37364 13.6902 5.91454 11.3357 10.0009 11.3357Z" fill="#4285F4"/>
</svg>