<svg xmlns="http://www.w3.org/2000/svg" width="40" height="40" viewBox="0 0 40 40" fill="none">
  <g clip-path="url(#clip0_141_764)">
    <path d="M25.3304 40.0181H25.8184L33.7623 36.0326L33.8979 35.8428V4.14822L33.7623 3.95843L25.8184 0H25.3032L25.3304 40.0181Z" fill="#5294CF"/>
    <path d="M14.9734 40.0181H14.4853L6.54136 36.0326L6.37868 35.7614L6.29735 4.31089L6.54136 3.95843L14.4853 0H14.9734V40.0181Z" fill="#1F5B98"/>
    <path d="M14.5125 0H25.8184V40.0452H14.5125V0Z" fill="#2D72B8"/>
    <path d="M37.9106 19.1143L37.6394 19.0601L33.8166 18.7076L33.7624 18.7348L25.8184 18.4094H14.5125L6.56849 18.7348V12.6616V12.6344L14.5125 10.7908H25.8184L33.7624 12.6344L36.6905 14.1799V13.1767L37.9377 13.0411L37.775 12.8242L33.8708 10.0316L33.7624 10.0588L25.8184 7.59151H14.5125L6.56849 10.0588V3.95844L2.42027 8.83869V13.0954L2.44738 13.0682L3.64033 13.2038V14.2341L2.39316 14.8848V19.1143H2.42027L3.61322 19.1414V20.9309L2.58295 20.958L2.39316 20.9309V25.1604L3.64033 25.8382V26.8685L2.44738 27.0041L2.39316 26.977V31.2336L6.54138 36.1139V30.0136L14.4853 32.4808H25.7913L33.7624 30.0136L33.8708 30.0678L37.7208 27.3023L37.8835 27.0312L36.6363 26.8956V25.8925L36.4736 25.8382L33.8437 27.2752L33.7352 27.465L25.7642 29.3086H14.4582L6.51426 27.465V21.3647L14.4582 21.69H25.7642L33.7081 21.3647L33.8979 21.446L37.6123 21.1207L37.8835 20.9851L36.6363 20.958V19.1686L37.9106 19.1143Z" fill="#1A476F"/>
    <path d="M33.7624 29.9594V36.0597L37.9106 31.1794V26.9499L33.7624 29.9594Z" fill="#2D72B8"/>
    <path d="M33.7624 27.3836L37.9106 25.1604V20.9037L33.7624 21.2833V27.3836Z" fill="#2D72B8"/>
    <path d="M33.7895 12.6345L33.7624 18.7077L37.9106 19.0872V14.8306L33.7895 12.6345Z" fill="#2D72B8"/>
    <path d="M33.7895 10.0859L37.9377 13.0682V8.83869L33.7895 3.95844V10.0859Z" fill="#2D72B8"/>
  </g>
  <defs>
    <clipPath id="clip0_141_764">
      <rect width="40" height="40" fill="white"/>
    </clipPath>
  </defs>
</svg>