<svg viewBox="0 0 1024 250" xmlns="http://www.w3.org/2000/svg" fill-rule="evenodd" clip-rule="evenodd" stroke-linejoin="round" stroke-miterlimit="1.414"><path d="M54.854 35.52c4.44-2.617 9.084-4.933 13.928-6.947 10.215-4.235 20.743-6.868 31.586-7.9l11.747 13.388-5.36 13.773c-10.58 2.117-20.537 5.965-29.873 11.542-.682.407-1.355.824-2.02 1.25l-1.984-18.13-18.024-6.975z" fill="#5ab552"/><path d="M49.73 38.733l18.64 7.22 1.953 17.78C60.233 71.17 52.36 80.657 46.73 92.196c-.502 1.028-.978 2.058-1.428 3.092l-13.01-15.912-21.38 4.516c5.327-11.486 12.484-21.765 21.47-30.838 5.358-5.41 11.144-10.184 17.35-14.323zM172.393 164.32c2-3.375 3.653-6.81 4.966-10.303l20.18 24.46 33.866-7.306c-1.934 5.35-4.234 10.58-6.887 15.703-6.966 13.436-16.15 25.1-27.552 34.996-11.58 10.04-24.662 17.368-39.257 21.973-.29.092-.58.18-.87.272l-25.1-21.245 6.58-28.928c.164-.067.327-.136.49-.206 14.378-6.112 25.57-15.92 33.583-29.416z" fill="#5ab552"/><path d="M214.788 50.002c2.07 2.863 4.014 5.83 5.848 8.903 7.734 12.998 13.08 26.906 16.035 41.722 2.936 14.696 3.35 29.463 1.25 44.293-1.007 7.13-2.57 14.08-4.693 20.854l-33.815 7.28-20.28-24.56c2.425-9.02 2.634-18.423.635-28.21-2.37-11.605-7.426-21.51-15.165-29.713l36.54-4.332 13.646-36.236zM8.556 89.357l21.842-4.61 12.868 15.725c-3.94 11.287-4.925 23.026-2.965 35.215.556 3.463 1.317 6.832 2.28 10.102l-23.06-5.268-16.57 19.595C.963 151.437-.02 142.565 0 133.503c.028-15.106 2.825-29.69 8.394-43.736.053-.138.107-.275.162-.41z" fill="#5ab552"/><path d="M44.39 151.203c3.314 8.774 8.194 16.817 14.64 24.13 4.875 5.522 10.306 10.1 16.287 13.732L52.42 202.18l1.24 29.858c-7.55-4.73-14.487-10.348-20.818-16.85-10.62-10.906-18.76-23.427-24.415-37.57-1.54-3.866-2.873-7.773-3.988-11.723l16.896-19.962 23.055 5.27z" fill="#5ab552"/><path d="M80.306 191.82c4.926 2.45 10.197 4.322 15.802 5.613 12.564 2.916 24.81 2.423 36.737-1.46l-6.517 28.72 24.86 21.038c-12.436 3.256-25.145 4.65-38.117 4.182-15.136-.492-29.664-3.7-43.597-9.637-3.732-1.586-7.336-3.35-10.823-5.286l-1.236-30.06 22.892-13.11zM211.292 45.407l-13.675 36.32-37.6 4.452c-1.1-.953-2.234-1.875-3.415-2.77-12.268-9.33-26.16-14.793-41.67-16.387-3.507-.338-6.933-.44-10.283-.31l13.1-33.648L89.46.817C97.967.083 106.457-.157 114.932.1c5.106.128 10.163.52 15.187 1.172 7.07.92 14.064 2.36 20.974 4.315 14.617 4.117 27.944 10.8 39.98 20.05 7.595 5.833 14.334 12.42 20.218 19.77z" fill="#5ab552"/><path d="M336.267 136.75h-26.785l-6.692 33.875h30.763l-3.977 20.105h-53.214l23.353-122.1h51.03l-3.98 19.926h-28.05l-5.975 28.988h27.33l-3.803 19.205zM356.475 190.73l-3.795-122.1h25.154l-1.63 61.777c-.358 11.048-1.087 25.178-1.81 34.6h.363c2.533-9.422 6.696-23.73 10.502-34.6L407.15 68.63h24.978l-51.036 122.1h-24.62zM473.315 136.75h-26.78l-6.7 33.875H470.6l-3.984 20.105H413.41l23.35-122.1h51.034l-3.98 19.926H455.76l-5.975 28.988h27.33l-3.802 19.205zM478.287 190.73l23.35-122.1h20.628l9.414 48.552c3.074 16.118 5.062 27.718 5.966 37.864h.363c1.632-13.407 3.803-34.42 7.6-54.71l5.974-31.707h19.548l-23.347 122.1h-19.363l-9.776-45.467c-3.803-17.03-4.888-25.363-6.152-40.582h-.362c-1.628 12.318-4.342 32.43-8.33 53.622l-6.152 32.428h-19.363zM592.444 90.006h-21.176l4.165-21.377h64.974l-4.165 21.376h-21.177L595.88 190.73h-22.625l19.19-100.724zM653.973 167.543c3.98 2.357 10.313 4.167 16.83 4.167 10.32.36 17.554-5.978 17.554-15.58 0-8.152-4.523-12.863-12.125-20.47-9.593-9.06-14.48-18.84-14.48-29.527 0-22.646 15.93-38.59 39.814-38.59 9.413 0 15.387 1.992 18.284 3.804l-6.156 19.566c-3.618-1.992-7.603-3.262-13.21-3.262-9.593 0-16.11 6.162-16.287 15.583 0 5.794 2.353 10.324 12.125 19.02 9.955 8.877 14.657 19.565 14.657 29.348 0 25.365-16.833 40.22-39.995 40.22-12.125 0-19.91-2.72-22.803-4.53l5.79-19.747zM741.745 90.006h-21.177l4.167-21.377h64.967l-4.16 21.376h-21.178l-19.18 100.724h-22.628l19.19-100.724zM815.78 90.913c-11.222 11.41-17.558 45.474-17.558 63.588 0 6.884.904 17.754 10.317 17.754 2.54 0 5.254-1.268 7.416-3.625 12.13-11.955 17.377-51.267 17.377-64.495 0-7.785-1.085-17.028-9.413-17.028-2.89 0-5.606 1.27-8.14 3.806zm40.9 15.035c0 25.908-8.504 58.516-24.613 74.637-7.6 7.61-16.286 11.595-26.97 11.595-26.42 0-30.22-26.448-30.22-39.852 0-24.818 8.51-57.43 25.34-73.916 7.24-7.065 16.108-11.23 26.787-11.23 26.417 0 29.675 24.276 29.675 38.766zM888.13 124.246h5.25c11.395 0 18.997-12.14 18.997-25.002 0-6.52-2.713-13.407-11.222-13.407-2.347 0-4.518.185-5.968.546l-7.057 37.863zM876.364 70.26c7.6-1.27 16.106-2.177 24.254-2.177 10.493 0 20.628 1.998 26.964 8.336 5.067 5.07 7.962 12.136 7.962 20.11 0 17.934-10.855 32.247-24.793 36.955v.364c6.698 3.08 9.592 10.146 9.953 23.73.365 13.59.725 28.623 1.992 33.15h-22.802c-.543-3.44-.907-15.757-.907-29.165 0-14.855-3.078-19.747-10.678-19.747h-3.8l-9.05 48.912h-22.08l22.986-120.47zM990.45 136.75h-26.783l-6.694 33.875h30.762l-3.982 20.105h-53.206l23.35-122.1h51.03l-3.982 19.926H972.9l-5.977 28.988h27.33l-3.802 19.205zM1015.48 178.22c-.373-.145-.898-.218-1.576-.218h-.66v3.017h1.055c.633 0 1.13-.128 1.485-.383.357-.253.535-.666.535-1.234s-.28-.96-.84-1.183zm-4.96 8.348V176.17c.644 0 1.61.002 2.894.007 1.284.003 1.998.01 2.142.018.822.06 1.505.24 2.047.535.924.51 1.386 1.336 1.386 2.482 0 .874-.245 1.505-.732 1.893-.49.388-1.088.62-1.8.697.653.136 1.145.336 1.476.6.61.495.914 1.273.914 2.333v.93c0 .102.008.203.022.305.013.1.038.204.075.306l.095.292h-2.593c-.085-.33-.143-.81-.172-1.438-.03-.628-.088-1.052-.173-1.273-.135-.365-.39-.62-.763-.764-.204-.084-.513-.14-.93-.165l-.596-.038h-.572v3.678h-2.722zm-1.4-10.653c-1.492 1.527-2.238 3.34-2.238 5.436 0 2.172.76 4.018 2.277 5.536 1.508 1.52 3.33 2.278 5.464 2.278 2.13 0 3.948-.763 5.457-2.29 1.508-1.537 2.263-3.378 2.263-5.523 0-2.086-.75-3.898-2.25-5.435-1.517-1.56-3.34-2.342-5.47-2.342-2.15 0-3.985.78-5.503 2.342zm12.07 12.168c-1.823 1.764-4.01 2.647-6.563 2.647-2.634 0-4.855-.904-6.662-2.71-1.803-1.81-2.708-4.03-2.708-6.67 0-2.74.975-5.016 2.925-6.835 1.83-1.696 3.98-2.545 6.445-2.545 2.587 0 4.795.916 6.626 2.75 1.83 1.832 2.746 4.042 2.746 6.63 0 2.664-.937 4.91-2.81 6.733z" fill="#435261" fill-rule="nonzero"/></svg>