<svg xmlns="http://www.w3.org/2000/svg" width="40" height="42" viewBox="0 0 40 42" fill="none">
  <path d="M33.0954 13.2902L35.1801 7.29658C34.2569 5.97862 33.1104 4.83214 31.7924 3.90888C29.9056 2.35507 27.6701 1.28203 25.2776 0.781776C24.1284 0.27257 22.8863 0.00640972 21.6294 0H14.854L19.5446 5.21184L17.4599 10.9449H19.284C21.747 11.1397 24.1006 12.0449 26.0594 13.5508L26.8412 14.072L33.0954 13.2902Z" fill="#5AB552"/>
  <path d="M11.4661 4.42951L9.12074 5.73247L12.2478 6.77484V9.90195H12.5084C14.0139 8.95581 15.7003 8.3345 17.4597 8.0778L18.5021 5.73247L16.4173 3.38715L11.4661 4.42951Z" fill="#5AB552"/>
  <path d="M11.4663 7.29627L8.3392 6.25391C7.21496 6.80314 6.23367 7.60602 5.47269 8.59924C3.8881 10.0471 2.64241 11.8266 1.8244 13.8111L5.47269 13.0293L7.55743 15.6352V15.114C8.64293 13.3044 10.057 11.7136 11.7269 10.4234L11.4663 7.29627Z" fill="#5AB552"/>
  <path d="M28.666 27.1011L29.7084 25.5375L33.0961 29.4464L38.5685 28.4041L37.5261 31.01C36.2557 33.1432 34.6749 35.0753 32.8355 36.743C30.9113 38.356 28.7014 39.5935 26.3207 40.3913H26.0601L21.8906 37.0036L23.1936 32.0523C25.5245 31.0672 27.4533 29.3221 28.666 27.1011Z" fill="#5AB552"/>
  <path d="M36.7435 9.64155L35.9618 8.078L33.6164 14.0716L27.3622 14.8534C28.7281 16.19 29.6397 17.922 29.9681 19.8046C30.2306 21.3572 30.2306 22.9428 29.9681 24.4953L33.3558 28.6648L38.8283 27.3618C39.3316 26.3027 39.5984 25.1467 39.61 23.9741C40.13 21.4819 40.13 18.9092 39.61 16.4169C39.0389 14.0145 38.07 11.7244 36.7435 9.64155Z" fill="#5AB552"/>
  <path d="M1.30296 14.5926L4.95125 13.8109L7.29658 16.4168C6.60459 18.3353 6.42495 20.4012 6.77539 22.4104C6.77539 22.9316 7.03598 23.4528 7.03598 23.9739L3.3877 23.1922L0.521184 26.3193C0.203909 24.863 0.0293557 23.3793 0 21.8892C0.0534498 19.4042 0.493022 16.9426 1.30296 14.5926Z" fill="#5AB552"/>
  <path d="M9.90229 28.9255C8.88549 27.7276 8.01101 26.4159 7.29637 25.0166L3.64808 23.9742L0.78157 27.3619L1.30275 29.4467C2.29167 31.7725 3.70567 33.8935 5.47223 35.7009L8.85992 38.5674V33.3556L12.5082 31.2708C11.4619 30.7124 10.5674 29.9074 9.90229 28.9255Z" fill="#5AB552"/>
  <path d="M13.29 31.7921C14.2085 32.1731 15.1717 32.4358 16.1565 32.5738C18.1291 33.1453 20.2346 33.0538 22.1501 32.3132L21.1078 37.2645L25.2772 40.6522C23.1468 41.1835 20.9582 41.4461 18.7624 41.434C16.3302 41.4404 13.927 40.9063 11.7265 39.8704L9.90231 38.828V33.8768L13.29 31.7921Z" fill="#5AB552"/>
</svg>