<svg xmlns="http://www.w3.org/2000/svg" width="40" height="40" viewBox="0 0 40 40" fill="none">
  <g clip-path="url(#clip0_155_2527)">
    <path d="M39.774 10.3803C39.7694 14.2969 38.2073 18.0512 35.4314 20.8174L35.431 20.8171L25.5834 30.6302C25.2422 30.9703 24.6878 30.9712 24.368 30.6109C21.9738 27.913 20.6434 24.4237 20.6476 20.7984C20.6522 16.8819 22.2143 13.1275 24.9902 10.3613L24.9905 10.3616L33.9876 1.39615C34.7985 0.588048 36.1254 0.582252 36.8132 1.4973C38.7274 4.04425 39.7778 7.15861 39.774 10.3803Z" fill="url(#paint0_linear_155_2527)"/>
    <path d="M4.54255 20.8771C1.76663 18.1109 0.204549 14.3566 0.199961 10.44C0.196188 7.21831 1.24652 4.10395 3.16077 1.55699C3.84851 0.641942 5.17539 0.647742 5.98635 1.45584L14.9835 10.4214L14.9838 10.4211C17.7597 13.1873 19.3218 16.9417 19.3264 20.8583C19.3306 24.4835 18.0001 27.9728 15.6059 30.6707C15.2862 31.031 14.7318 31.0301 14.3906 30.6901L4.54283 20.8769L4.54255 20.8771Z" fill="url(#paint1_linear_155_2527)"/>
    <path d="M35.0607 38.4363C34.3373 39.3237 33.014 39.3159 32.2048 38.5058L26.6475 32.9421C26.3065 32.6007 26.3072 32.0474 26.649 31.7068L35.8789 22.5092C36.2201 22.1692 36.7767 22.1672 37.0777 22.5433C38.6796 24.545 39.3095 27.3115 38.8333 30.3573C38.3974 33.1451 37.0642 35.9791 35.0607 38.4363Z" fill="url(#paint2_linear_155_2527)"/>
    <path d="M7.76933 38.5656C6.96017 39.3758 5.63685 39.3835 4.91337 38.4962C2.90995 36.039 1.57672 33.2049 1.14085 30.4171C0.664641 27.3713 1.29454 24.6048 2.89648 22.6031C3.19747 22.227 3.75396 22.229 4.09517 22.569L13.3252 31.7666C13.6669 32.1072 13.6676 32.6605 13.3266 33.0019L7.76933 38.5656Z" fill="url(#paint3_linear_155_2527)"/>
  </g>
  <defs>
    <linearGradient id="paint0_linear_155_2527" x1="19.987" y1="0.800048" x2="19.987" y2="31.2808" gradientUnits="userSpaceOnUse">
      <stop stop-color="#9F87FF"/>
      <stop offset="1" stop-color="#8566FF"/>
    </linearGradient>
    <linearGradient id="paint1_linear_155_2527" x1="19.987" y1="0.799946" x2="19.987" y2="31.2807" gradientUnits="userSpaceOnUse">
      <stop stop-color="#9F87FF"/>
      <stop offset="1" stop-color="#8566FF"/>
    </linearGradient>
    <linearGradient id="paint2_linear_155_2527" x1="19.9869" y1="21.8964" x2="19.9869" y2="39.1373" gradientUnits="userSpaceOnUse">
      <stop stop-color="#DE99F6"/>
      <stop offset="1" stop-color="#D669FC"/>
    </linearGradient>
    <linearGradient id="paint3_linear_155_2527" x1="19.9871" y1="21.8964" x2="19.9871" y2="39.1373" gradientUnits="userSpaceOnUse">
      <stop stop-color="#DE99F6"/>
      <stop offset="1" stop-color="#D669FC"/>
    </linearGradient>
    <clipPath id="clip0_155_2527">
      <rect width="40" height="40" fill="white"/>
    </clipPath>
  </defs>
</svg>