<svg width="1000" height="1000" viewBox="0 0 1000 1000" fill="none" xmlns="http://www.w3.org/2000/svg">
<path d="M994.35 259.506C994.235 357.421 955.183 451.28 885.784 520.435L885.776 520.427L639.584 765.755C631.054 774.256 617.194 774.279 609.2 765.272C549.345 697.825 516.084 610.591 516.19 519.96C516.305 422.046 555.357 328.187 624.755 259.032L624.763 259.04L849.69 34.9025C869.963 14.7 903.136 14.5551 920.329 37.4313C968.186 101.105 994.444 178.964 994.35 259.506Z" fill="url(#paint0_linear_324_2835)"/>
<path d="M113.565 521.93C44.167 452.774 5.11494 358.916 5.00025 261.001C4.90592 180.459 31.1642 102.6 79.0204 38.9262C96.214 16.0499 129.386 16.1949 149.66 36.3974L374.588 260.536L374.595 260.53C443.993 329.685 483.045 423.543 483.16 521.458C483.266 612.089 450.004 699.322 390.149 766.769C382.156 775.777 368.296 775.753 359.765 767.253L113.572 521.923L113.565 521.93Z" fill="url(#paint1_linear_324_2835)"/>
<path d="M876.52 960.91C858.433 983.094 825.351 982.9 805.121 962.647L666.189 823.554C657.665 815.019 657.681 801.187 666.226 792.672L896.975 562.732C905.505 554.231 919.418 554.181 926.943 563.584C966.991 613.627 982.738 682.789 970.833 758.933C959.936 828.629 926.606 899.48 876.52 960.91Z" fill="url(#paint2_linear_324_2835)"/>
<path d="M194.232 964.141C174.003 984.394 140.92 984.588 122.833 962.404C72.7475 900.974 39.4167 830.123 28.5198 760.427C16.6147 684.283 32.3621 615.121 72.4106 565.078C79.9355 555.675 93.8477 555.725 102.378 564.226L333.128 794.166C341.672 802.681 341.689 816.513 333.164 825.047L194.232 964.141Z" fill="url(#paint3_linear_324_2835)"/>
<defs>
<linearGradient id="paint0_linear_324_2835" x1="499.675" y1="20" x2="499.675" y2="782.018" gradientUnits="userSpaceOnUse">
<stop stop-color="#9F87FF"/>
<stop offset="1" stop-color="#8566FF"/>
</linearGradient>
<linearGradient id="paint1_linear_324_2835" x1="499.675" y1="20" x2="499.675" y2="782.018" gradientUnits="userSpaceOnUse">
<stop stop-color="#9F87FF"/>
<stop offset="1" stop-color="#8566FF"/>
</linearGradient>
<linearGradient id="paint2_linear_324_2835" x1="499.675" y1="547.411" x2="499.675" y2="978.433" gradientUnits="userSpaceOnUse">
<stop stop-color="#DE99F6"/>
<stop offset="1" stop-color="#D669FC"/>
</linearGradient>
<linearGradient id="paint3_linear_324_2835" x1="499.675" y1="547.411" x2="499.675" y2="978.433" gradientUnits="userSpaceOnUse">
<stop stop-color="#DE99F6"/>
<stop offset="1" stop-color="#D669FC"/>
</linearGradient>
</defs>
</svg>
