<svg width="40" height="40" viewBox="0 0 40 40" fill="none" xmlns="http://www.w3.org/2000/svg">
<g clip-path="url(#clip0_155_1545)">
<path d="M11.5059 14.4421L17.1726 16.506V23.1638L11.5059 21.1017V14.4421Z" fill="#E9E9FF" stroke="#CCCCCC" stroke-width="0.129338" stroke-linejoin="bevel"/>
<path d="M5.75745 16.5363V23.1958L11.5061 21.1017V14.4421L5.75745 16.5363Z" fill="#353564" stroke="#CCCCCC" stroke-width="0.129338" stroke-linejoin="bevel"/>
<path d="M5.7572 23.1958L11.4222 25.2579L17.1726 23.1638L11.5058 21.1017L5.7572 23.1958Z" fill="#AFAFDE" stroke="#CCCCCC" stroke-width="0.129338" stroke-linejoin="bevel"/>
<path d="M5.75745 16.5363L11.4224 18.5984L17.1728 16.5042L11.5061 14.4421L5.75745 16.5363Z" fill="#F7F7F4" stroke="#CCCCCC" stroke-width="0.129338" stroke-linejoin="bevel"/>
<path d="M11.4222 18.5984V25.2579L17.1726 23.1638V16.5042L11.4222 18.5984Z" fill="white" stroke="#CCCCCC" stroke-width="0.129338" stroke-linejoin="bevel"/>
<path d="M5.75716 16.5363L11.4221 18.5984V25.2579L5.75537 23.194L5.75716 16.5363Z" fill="#EFEEEA" stroke="#CCCCCC" stroke-width="0.129338" stroke-linejoin="bevel"/>
<path d="M17.1966 9.78584L22.8634 11.8497V18.5075L17.1966 16.4454V9.78584Z" fill="#E9E9FF" stroke="#CCCCCC" stroke-width="0.129338" stroke-linejoin="bevel"/>
<path d="M11.4479 11.88V18.5395L17.1966 16.4454V9.78584L11.4479 11.88Z" fill="#353564" stroke="#CCCCCC" stroke-width="0.129338" stroke-linejoin="bevel"/>
<path d="M11.4479 18.5395L17.1129 20.6016L22.8633 18.5075L17.1966 16.4454L11.4479 18.5395Z" fill="#AFAFDE" stroke="#CCCCCC" stroke-width="0.129338" stroke-linejoin="bevel"/>
<path d="M11.4479 11.88L17.1129 13.9421L22.8633 11.8479L17.1966 9.78584L11.4479 11.88Z" fill="#F7F7F4" stroke="#CCCCCC" stroke-width="0.129338" stroke-linejoin="bevel"/>
<path d="M17.1129 13.9421V20.6016L22.8633 18.5075V11.8479L17.1129 13.9421Z" fill="white" stroke="#CCCCCC" stroke-width="0.129338" stroke-linejoin="bevel"/>
<path d="M11.448 11.88L17.1129 13.9421V20.6016L11.4462 18.5377L11.448 11.88Z" fill="#EFEEEA" stroke="#CCCCCC" stroke-width="0.129338" stroke-linejoin="bevel"/>
<path d="M5.81506 23.2369L11.4818 25.3008V31.9585L5.81506 29.8965V23.2369Z" fill="#E9E9FF" stroke="#CCCCCC" stroke-width="0.129338" stroke-linejoin="bevel"/>
<path d="M0.0665283 25.331V31.9906L5.81515 29.8965V23.2369L0.0665283 25.331Z" fill="#353564" stroke="#CCCCCC" stroke-width="0.129338" stroke-linejoin="bevel"/>
<path d="M0.0664673 31.9906L5.73145 34.0527L11.4819 31.9585L5.81509 29.8965L0.0664673 31.9906Z" fill="#AFAFDE" stroke="#CCCCCC" stroke-width="0.129338" stroke-linejoin="bevel"/>
<path d="M0.0665283 25.331L5.73151 27.3931L11.4819 25.299L5.81515 23.2369L0.0665283 25.331Z" fill="#F7F7F4" stroke="#CCCCCC" stroke-width="0.129338" stroke-linejoin="bevel"/>
<path d="M5.73145 27.3931V34.0527L11.4819 31.9585V25.299L5.73145 27.3931Z" fill="white" stroke="#CCCCCC" stroke-width="0.129338" stroke-linejoin="bevel"/>
<path d="M0.066428 25.331L5.73141 27.3931V34.0527L0.0646362 31.9888L0.066428 25.331Z" fill="#EFEEEA" stroke="#CCCCCC" stroke-width="0.129338" stroke-linejoin="bevel"/>
<path d="M11.5059 25.3064L17.1726 27.3703V34.0281L11.5059 31.966V25.3064Z" fill="#E9E9FF" stroke="#CCCCCC" stroke-width="0.129338" stroke-linejoin="bevel"/>
<path d="M5.75745 27.4005V34.0601L11.5061 31.966V25.3064L5.75745 27.4005Z" fill="#353564" stroke="#CCCCCC" stroke-width="0.129338" stroke-linejoin="bevel"/>
<path d="M5.7572 34.0601L11.4222 36.1222L17.1726 34.0281L11.5058 31.966L5.7572 34.0601Z" fill="#AFAFDE" stroke="#CCCCCC" stroke-width="0.129338" stroke-linejoin="bevel"/>
<path d="M5.75745 27.4005L11.4224 29.4626L17.1728 27.3685L11.5061 25.3064L5.75745 27.4005Z" fill="#F7F7F4" stroke="#CCCCCC" stroke-width="0.129338" stroke-linejoin="bevel"/>
<path d="M11.4222 29.4626V36.1222L17.1726 34.0281V27.3685L11.4222 29.4626Z" fill="white" stroke="#CCCCCC" stroke-width="0.129338" stroke-linejoin="bevel"/>
<path d="M5.75716 27.4005L11.4221 29.4626V36.1222L5.75537 34.0583L5.75716 27.4005Z" fill="#EFEEEA" stroke="#CCCCCC" stroke-width="0.129338" stroke-linejoin="bevel"/>
<path d="M11.5059 18.5806L17.1726 20.6445V27.3023L11.5059 25.2402V18.5806Z" fill="#E9E9FF" stroke="#CCCCCC" stroke-width="0.129338" stroke-linejoin="bevel"/>
<path d="M5.75745 20.6747V27.3343L11.5061 25.2402V18.5806L5.75745 20.6747Z" fill="#353564" stroke="#CCCCCC" stroke-width="0.129338" stroke-linejoin="bevel"/>
<path d="M5.7572 27.3343L11.4222 29.3964L17.1726 27.3023L11.5058 25.2402L5.7572 27.3343Z" fill="#AFAFDE" stroke="#CCCCCC" stroke-width="0.129338" stroke-linejoin="bevel"/>
<path d="M5.75745 20.6747L11.4224 22.7368L17.1728 20.6427L11.5061 18.5806L5.75745 20.6747Z" fill="#F7F7F4" stroke="#CCCCCC" stroke-width="0.129338" stroke-linejoin="bevel"/>
<path d="M11.4222 22.7368V29.3964L17.1726 27.3023V20.6427L11.4222 22.7368Z" fill="white" stroke="#CCCCCC" stroke-width="0.129338" stroke-linejoin="bevel"/>
<path d="M5.75716 20.6747L11.4221 22.7368V29.3964L5.75537 27.3325L5.75716 20.6747Z" fill="#EFEEEA" stroke="#CCCCCC" stroke-width="0.129338" stroke-linejoin="bevel"/>
<path d="M34.2694 21.1673L39.9362 23.2312V29.889L34.2694 27.8269V21.1673Z" fill="#E9E9FF" stroke="#CCCCCC" stroke-width="0.129338" stroke-linejoin="bevel"/>
<path d="M28.5209 23.2615V29.921L34.2695 27.8269V21.1673L28.5209 23.2615Z" fill="#353564" stroke="#CCCCCC" stroke-width="0.129338" stroke-linejoin="bevel"/>
<path d="M28.5209 29.9211L34.1859 31.9831L39.9363 29.889L34.2695 27.8269L28.5209 29.9211Z" fill="#AFAFDE" stroke="#CCCCCC" stroke-width="0.129338" stroke-linejoin="bevel"/>
<path d="M28.5209 23.2615L34.1859 25.3236L39.9363 23.2294L34.2695 21.1673L28.5209 23.2615Z" fill="#F7F7F4" stroke="#CCCCCC" stroke-width="0.129338" stroke-linejoin="bevel"/>
<path d="M34.1858 25.3236V31.9831L39.9362 29.889V23.2294L34.1858 25.3236Z" fill="white" stroke="#CCCCCC" stroke-width="0.129338" stroke-linejoin="bevel"/>
<path d="M28.5208 23.2615L34.1858 25.3236V31.9832L28.519 29.9193L28.5208 23.2615Z" fill="#EFEEEA" stroke="#CCCCCC" stroke-width="0.129338" stroke-linejoin="bevel"/>
<path d="M28.5767 23.2361L34.2434 25.2999V31.9577L28.5767 29.8956V23.2361Z" fill="#E9E9FF" stroke="#CCCCCC" stroke-width="0.129338" stroke-linejoin="bevel"/>
<path d="M22.8281 25.3302V31.9898L28.5767 29.8956V23.2361L22.8281 25.3302Z" fill="#353564" stroke="#CCCCCC" stroke-width="0.129338" stroke-linejoin="bevel"/>
<path d="M22.8279 31.9898L28.4929 34.0518L34.2433 31.9577L28.5765 29.8956L22.8279 31.9898Z" fill="#AFAFDE" stroke="#CCCCCC" stroke-width="0.129338" stroke-linejoin="bevel"/>
<path d="M22.8281 25.3302L28.493 27.3923L34.2434 25.2982L28.5767 23.2361L22.8281 25.3302Z" fill="#F7F7F4" stroke="#CCCCCC" stroke-width="0.129338" stroke-linejoin="bevel"/>
<path d="M28.4929 27.3923V34.0519L34.2433 31.9577V25.2982L28.4929 27.3923Z" fill="#FFD242" stroke="#CCCCCC" stroke-width="0.129338" stroke-linejoin="bevel"/>
<path d="M22.828 25.3302L28.4929 27.3923V34.0518L22.8262 31.988L22.828 25.3302Z" fill="#EFEEEA" stroke="#CCCCCC" stroke-width="0.129338" stroke-linejoin="bevel"/>
<path d="M22.888 25.3064L28.5548 27.3703V34.0281L22.888 31.966V25.3064Z" fill="#E9E9FF" stroke="#CCCCCC" stroke-width="0.129338" stroke-linejoin="bevel"/>
<path d="M17.1393 27.4005V34.0601L22.888 31.966V25.3064L17.1393 27.4005Z" fill="#353564" stroke="#CCCCCC" stroke-width="0.129338" stroke-linejoin="bevel"/>
<path d="M17.1393 34.0601L22.8043 36.1222L28.5547 34.0281L22.888 31.966L17.1393 34.0601Z" fill="#AFAFDE" stroke="#CCCCCC" stroke-width="0.129338" stroke-linejoin="bevel"/>
<path d="M17.1393 27.4005L22.8043 29.4626L28.5547 27.3685L22.888 25.3064L17.1393 27.4005Z" fill="#F7F7F4" stroke="#CCCCCC" stroke-width="0.129338" stroke-linejoin="bevel"/>
<path d="M22.8043 29.4626V36.1222L28.5547 34.0281V27.3685L22.8043 29.4626Z" fill="#FFD242" stroke="#CCCCCC" stroke-width="0.129338" stroke-linejoin="bevel"/>
<path d="M17.1394 27.4005L22.8043 29.4626V36.1222L17.1376 34.0583L17.1394 27.4005Z" fill="#EFEEEA" stroke="#CCCCCC" stroke-width="0.129338" stroke-linejoin="bevel"/>
<path d="M17.1966 27.3759L22.8634 29.4398V36.0976L17.1966 34.0355V27.3759Z" fill="#E9E9FF" stroke="#CCCCCC" stroke-width="0.129338" stroke-linejoin="bevel"/>
<path d="M11.4479 29.4701V36.1296L17.1966 34.0355V27.3759L11.4479 29.4701Z" fill="#353564" stroke="#CCCCCC" stroke-width="0.129338" stroke-linejoin="bevel"/>
<path d="M11.4479 36.1296L17.1129 38.1917L22.8633 36.0976L17.1966 34.0355L11.4479 36.1296Z" fill="#AFAFDE" stroke="#CCCCCC" stroke-width="0.129338" stroke-linejoin="bevel"/>
<path d="M11.4479 29.4701L17.1129 31.5322L22.8633 29.438L17.1966 27.3759L11.4479 29.4701Z" fill="#F7F7F4" stroke="#CCCCCC" stroke-width="0.129338" stroke-linejoin="bevel"/>
<path d="M17.1129 31.5322V38.1917L22.8633 36.0976V29.438L17.1129 31.5322Z" fill="white" stroke="#CCCCCC" stroke-width="0.129338" stroke-linejoin="bevel"/>
<path d="M11.448 29.4701L17.1129 31.5322V38.1917L11.4462 36.1279L11.448 29.4701Z" fill="#EFEEEA" stroke="#CCCCCC" stroke-width="0.129338" stroke-linejoin="bevel"/>
<path d="M34.2694 14.4421L39.9362 16.506V23.1638L34.2694 21.1017V14.4421Z" fill="#E9E9FF" stroke="#CCCCCC" stroke-width="0.129338" stroke-linejoin="bevel"/>
<path d="M28.5209 16.5363V23.1958L34.2695 21.1017V14.4421L28.5209 16.5363Z" fill="#353564" stroke="#CCCCCC" stroke-width="0.129338" stroke-linejoin="bevel"/>
<path d="M28.5209 23.1958L34.1859 25.2579L39.9363 23.1638L34.2695 21.1017L28.5209 23.1958Z" fill="#AFAFDE" stroke="#CCCCCC" stroke-width="0.129338" stroke-linejoin="bevel"/>
<path d="M28.5209 16.5363L34.1859 18.5984L39.9363 16.5042L34.2695 14.4421L28.5209 16.5363Z" fill="#F7F7F4" stroke="#CCCCCC" stroke-width="0.129338" stroke-linejoin="bevel"/>
<path d="M34.1858 18.5984V25.2579L39.9362 23.1638V16.5042L34.1858 18.5984Z" fill="#FFD242" stroke="#CCCCCC" stroke-width="0.129338" stroke-linejoin="bevel"/>
<path d="M28.5208 16.5363L34.1858 18.5984V25.2579L28.519 23.194L28.5208 16.5363Z" fill="#EFEEEA" stroke="#CCCCCC" stroke-width="0.129338" stroke-linejoin="bevel"/>
<path d="M34.2694 7.71631L39.9362 9.78019V16.438L34.2694 14.3759V7.71631Z" fill="#E9E9FF" stroke="#CCCCCC" stroke-width="0.129338" stroke-linejoin="bevel"/>
<path d="M28.5209 9.81043V16.47L34.2695 14.3759V7.71631L28.5209 9.81043Z" fill="#353564" stroke="#CCCCCC" stroke-width="0.129338" stroke-linejoin="bevel"/>
<path d="M28.5209 16.47L34.1859 18.5321L39.9363 16.438L34.2695 14.3759L28.5209 16.47Z" fill="#AFAFDE" stroke="#CCCCCC" stroke-width="0.129338" stroke-linejoin="bevel"/>
<path d="M28.5209 9.81043L34.1859 11.8725L39.9363 9.7784L34.2695 7.71631L28.5209 9.81043Z" fill="#FFC91D" stroke="#CCCCCC" stroke-width="0.129338" stroke-linejoin="bevel"/>
<path d="M34.1858 11.8725V18.5321L39.9362 16.438V9.7784L34.1858 11.8725Z" fill="#FFD242" stroke="#CCCCCC" stroke-width="0.129338" stroke-linejoin="bevel"/>
<path d="M28.5208 9.81043L34.1858 11.8725V18.5321L28.519 16.4682L28.5208 9.81043Z" fill="#EFEEEA" stroke="#CCCCCC" stroke-width="0.129338" stroke-linejoin="bevel"/>
<path d="M28.5787 16.5111L34.2455 18.5749V25.2327L28.5787 23.1706V16.5111Z" fill="#E9E9FF" stroke="#CCCCCC" stroke-width="0.129338" stroke-linejoin="bevel"/>
<path d="M22.83 18.6052V25.2648L28.5786 23.1706V16.5111L22.83 18.6052Z" fill="#353564" stroke="#CCCCCC" stroke-width="0.129338" stroke-linejoin="bevel"/>
<path d="M22.83 25.2648L28.495 27.3269L34.2454 25.2327L28.5786 23.1706L22.83 25.2648Z" fill="#AFAFDE" stroke="#CCCCCC" stroke-width="0.129338" stroke-linejoin="bevel"/>
<path d="M22.83 18.6052L28.495 20.6673L34.2454 18.5732L28.5786 16.5111L22.83 18.6052Z" fill="#F7F7F4" stroke="#CCCCCC" stroke-width="0.129338" stroke-linejoin="bevel"/>
<path d="M28.495 20.6673V27.3269L34.2454 25.2327V18.5732L28.495 20.6673Z" fill="#FFD242" stroke="#CCCCCC" stroke-width="0.129338" stroke-linejoin="bevel"/>
<path d="M22.83 18.6052L28.495 20.6673V27.3269L22.8282 25.263L22.83 18.6052Z" fill="#EFEEEA" stroke="#CCCCCC" stroke-width="0.129338" stroke-linejoin="bevel"/>
<path d="M28.5787 9.78584L34.2455 11.8497V18.5075L28.5787 16.4454V9.78584Z" fill="#E9E9FF" stroke="#CCCCCC" stroke-width="0.129338" stroke-linejoin="bevel"/>
<path d="M22.83 11.88V18.5395L28.5786 16.4454V9.78584L22.83 11.88Z" fill="#353564" stroke="#CCCCCC" stroke-width="0.129338" stroke-linejoin="bevel"/>
<path d="M22.83 18.5395L28.495 20.6016L34.2454 18.5075L28.5786 16.4454L22.83 18.5395Z" fill="#AFAFDE" stroke="#CCCCCC" stroke-width="0.129338" stroke-linejoin="bevel"/>
<path d="M22.83 11.88L28.495 13.9421L34.2454 11.8479L28.5786 9.78584L22.83 11.88Z" fill="#F7F7F4" stroke="#CCCCCC" stroke-width="0.129338" stroke-linejoin="bevel"/>
<path d="M28.495 13.9421V20.6016L34.2454 18.5075V11.8479L28.495 13.9421Z" fill="#3775A9" stroke="#CCCCCC" stroke-width="0.129338" stroke-linejoin="bevel"/>
<path d="M22.83 11.88L28.495 13.9421V20.6016L22.8282 18.5377L22.83 11.88Z" fill="#EFEEEA" stroke="#CCCCCC" stroke-width="0.129338" stroke-linejoin="bevel"/>
<path d="M28.5787 3.06001L34.2455 5.12389V11.7817L28.5787 9.71959V3.06001Z" fill="#E9E9FF" stroke="#CCCCCC" stroke-width="0.129338" stroke-linejoin="bevel"/>
<path d="M22.83 5.15414V11.8137L28.5786 9.71959V3.06001L22.83 5.15414Z" fill="#353564" stroke="#CCCCCC" stroke-width="0.129338" stroke-linejoin="bevel"/>
<path d="M22.83 11.8137L28.495 13.8758L34.2454 11.7817L28.5786 9.71958L22.83 11.8137Z" fill="#AFAFDE" stroke="#CCCCCC" stroke-width="0.129338" stroke-linejoin="bevel"/>
<path d="M22.83 5.15414L28.495 7.21624L34.2454 5.12211L28.5786 3.06001L22.83 5.15414Z" fill="#2F6491" stroke="#CCCCCC" stroke-width="0.129338" stroke-linejoin="bevel"/>
<path d="M28.495 7.21624V13.8758L34.2454 11.7817V5.12211L28.495 7.21624Z" fill="#3775A9" stroke="#CCCCCC" stroke-width="0.129338" stroke-linejoin="bevel"/>
<path d="M22.83 5.15414L28.495 7.21624V13.8758L22.8282 11.8119L22.83 5.15414Z" fill="#EFEEEA" stroke="#CCCCCC" stroke-width="0.129338" stroke-linejoin="bevel"/>
<path d="M22.888 18.5806L28.5548 20.6445V27.3023L22.888 25.2402V18.5806Z" fill="#E9E9FF" stroke="#CCCCCC" stroke-width="0.129338" stroke-linejoin="bevel"/>
<path d="M17.1393 20.6747V27.3343L22.888 25.2402V18.5806L17.1393 20.6747Z" fill="#353564" stroke="#CCCCCC" stroke-width="0.129338" stroke-linejoin="bevel"/>
<path d="M17.1393 27.3343L22.8043 29.3964L28.5547 27.3023L22.888 25.2402L17.1393 27.3343Z" fill="#AFAFDE" stroke="#CCCCCC" stroke-width="0.129338" stroke-linejoin="bevel"/>
<path d="M17.1393 20.6747L22.8043 22.7368L28.5547 20.6427L22.888 18.5806L17.1393 20.6747Z" fill="#F7F7F4" stroke="#CCCCCC" stroke-width="0.129338" stroke-linejoin="bevel"/>
<path d="M22.8043 22.7368V29.3964L28.5547 27.3023V20.6427L22.8043 22.7368Z" fill="#FFD242" stroke="#CCCCCC" stroke-width="0.129338" stroke-linejoin="bevel"/>
<path d="M17.1394 20.6747L22.8043 22.7368V29.3964L17.1376 27.3325L17.1394 20.6747Z" fill="#EFEEEA" stroke="#CCCCCC" stroke-width="0.129338" stroke-linejoin="bevel"/>
<path d="M22.888 11.8554L28.5548 13.9193V20.577L22.888 18.5149V11.8554Z" fill="#E9E9FF" stroke="#CCCCCC" stroke-width="0.129338" stroke-linejoin="bevel"/>
<path d="M17.1393 13.9495V20.6091L22.888 18.5149V11.8554L17.1393 13.9495Z" fill="#353564" stroke="#CCCCCC" stroke-width="0.129338" stroke-linejoin="bevel"/>
<path d="M17.1393 20.6091L22.8043 22.6712L28.5547 20.577L22.888 18.5149L17.1393 20.6091Z" fill="#AFAFDE" stroke="#CCCCCC" stroke-width="0.129338" stroke-linejoin="bevel"/>
<path d="M17.1393 13.9495L22.8043 16.0116L28.5547 13.9175L22.888 11.8554L17.1393 13.9495Z" fill="#F7F7F4" stroke="#CCCCCC" stroke-width="0.129338" stroke-linejoin="bevel"/>
<path d="M22.8043 16.0116V22.6712L28.5547 20.577V13.9175L22.8043 16.0116Z" fill="#3775A9" stroke="#CCCCCC" stroke-width="0.129338" stroke-linejoin="bevel"/>
<path d="M17.1394 13.9495L22.8043 16.0116V22.6712L17.1376 20.6073L17.1394 13.9495Z" fill="#EFEEEA" stroke="#CCCCCC" stroke-width="0.129338" stroke-linejoin="bevel"/>
<path d="M17.1966 20.6501L22.8634 22.714V29.3718L17.1966 27.3097V20.6501Z" fill="#E9E9FF" stroke="#CCCCCC" stroke-width="0.129338" stroke-linejoin="bevel"/>
<path d="M11.4479 22.7442V29.4038L17.1966 27.3097V20.6501L11.4479 22.7442Z" fill="#353564" stroke="#CCCCCC" stroke-width="0.129338" stroke-linejoin="bevel"/>
<path d="M11.4479 29.4038L17.1129 31.4659L22.8633 29.3718L17.1966 27.3097L11.4479 29.4038Z" fill="#AFAFDE" stroke="#CCCCCC" stroke-width="0.129338" stroke-linejoin="bevel"/>
<path d="M11.4479 22.7442L17.1129 24.8063L22.8633 22.7122L17.1966 20.6501L11.4479 22.7442Z" fill="#F7F7F4" stroke="#CCCCCC" stroke-width="0.129338" stroke-linejoin="bevel"/>
<path d="M17.1129 24.8063V31.4659L22.8633 29.3718V22.7122L17.1129 24.8063Z" fill="#3775A9" stroke="#CCCCCC" stroke-width="0.129338" stroke-linejoin="bevel"/>
<path d="M11.448 22.7442L17.1129 24.8063V31.4659L11.4462 29.402L11.448 22.7442Z" fill="#2F6491" stroke="#CCCCCC" stroke-width="0.129338" stroke-linejoin="bevel"/>
<path d="M17.1966 13.9243L22.8634 15.9882V22.646L17.1966 20.5839V13.9243Z" fill="#E9E9FF" stroke="#CCCCCC" stroke-width="0.129338" stroke-linejoin="bevel"/>
<path d="M11.4479 16.0184V22.678L17.1966 20.5839V13.9243L11.4479 16.0184Z" fill="#353564" stroke="#CCCCCC" stroke-width="0.129338" stroke-linejoin="bevel"/>
<path d="M11.4479 22.678L17.1129 24.7401L22.8633 22.646L17.1966 20.5839L11.4479 22.678Z" fill="#AFAFDE" stroke="#CCCCCC" stroke-width="0.129338" stroke-linejoin="bevel"/>
<path d="M11.4479 16.0184L17.1129 18.0805L22.8633 15.9864L17.1966 13.9243L11.4479 16.0184Z" fill="#2F6491" stroke="#CCCCCC" stroke-width="0.129338" stroke-linejoin="bevel"/>
<path d="M17.1129 18.0805V24.7401L22.8633 22.646V15.9864L17.1129 18.0805Z" fill="#3775A9" stroke="#CCCCCC" stroke-width="0.129338" stroke-linejoin="bevel"/>
<path d="M11.448 16.0184L17.1129 18.0805V24.7401L11.4462 22.6762L11.448 16.0184Z" fill="#2F6491" stroke="#CCCCCC" stroke-width="0.129338" stroke-linejoin="bevel"/>
<path d="M22.8856 5.12884L28.5523 7.19272V13.8505L22.8856 11.7884V5.12884Z" fill="#E9E9FF" stroke="#CCCCCC" stroke-width="0.129338" stroke-linejoin="bevel"/>
<path d="M17.1372 7.22296V13.8825L22.8858 11.7884V5.12884L17.1372 7.22296Z" fill="#353564" stroke="#CCCCCC" stroke-width="0.129338" stroke-linejoin="bevel"/>
<path d="M17.137 13.8826L22.8019 15.9447L28.5523 13.8505L22.8856 11.7884L17.137 13.8826Z" fill="#AFAFDE" stroke="#CCCCCC" stroke-width="0.129338" stroke-linejoin="bevel"/>
<path d="M17.1372 7.22296L22.8022 9.28506L28.5526 7.19093L22.8858 5.12884L17.1372 7.22296Z" fill="#2F6491" stroke="#CCCCCC" stroke-width="0.129338" stroke-linejoin="bevel"/>
<path d="M22.802 9.2851V15.9447L28.5524 13.8505V7.19097L22.802 9.2851Z" fill="#3775A9" stroke="#CCCCCC" stroke-width="0.129338" stroke-linejoin="bevel"/>
<path d="M17.137 7.22298L22.802 9.28508V15.9447L17.1353 13.8808L17.137 7.22298Z" fill="#2F6491" stroke="#CCCCCC" stroke-width="0.129338" stroke-linejoin="bevel"/>
</g>
<defs>
<clipPath id="clip0_155_1545">
<rect width="40" height="40" fill="white"/>
</clipPath>
</defs>
</svg>
