<svg xmlns="http://www.w3.org/2000/svg" width="2500" height="2500" viewBox="0 0 192.756 192.756"><g fill-rule="evenodd" clip-rule="evenodd"><path fill="#fff" d="M0 0h192.756v192.756H0V0z"/><path fill="#cf402d" d="M137.664 84.796h-3.83v23.449h17.994l2.438-3.831h-16.602V84.796zM85.141 85.957l-14.046 22.289h4.644l4.237-6.733h9.055l2.38-3.83h-9.055l4.934-7.72 11.551 18.284h4.643L89.321 85.898c-.871-1.451-3.193-1.451-4.18.059zM112.363 88.62h16.107l2.375-3.828-18.6.011c-6.471 0-10.73 5.246-10.73 11.717 0 6.473 4.26 11.719 10.73 11.719l15.734-.019 2.463-3.799h-18.08c-4.363 0-6.914-3.537-6.914-7.901.001-4.363 2.552-7.9 6.915-7.9zM30.166 84.803H13.565c-6.471 0-10.731 5.246-10.731 11.718s4.26 11.718 10.731 11.718h16.601c6.471 0 10.731-5.246 10.731-11.718s-4.26-11.718-10.731-11.718zm0 19.618H13.565c-4.363 0-6.914-3.537-6.914-7.9s2.551-7.901 6.914-7.901h16.601c4.363 0 6.914 3.538 6.914 7.901s-2.551 7.9-6.914 7.9zM165.215 88.62h16.107l2.377-3.828-18.6.011c-6.473 0-10.732 5.246-10.732 11.717 0 6.473 4.26 11.719 10.732 11.719l15.732-.019 2.463-3.799h-18.08c-3.725 0-6.109-2.575-6.732-6.043h20.285l2.438-3.831h-22.723c.664-3.395 3.061-5.927 6.733-5.927zM62.728 98.718a6.957 6.957 0 0 0 0-13.914l-19.532-.008v23.449h4.295V88.621h15.237a3.14 3.14 0 0 1 0 6.28H50.51l13.783 13.318h5.545l-9.867-9.492 2.757-.009zM187.807 84.511c-1.152 0-2.125.886-2.125 2.087 0 1.212.973 2.099 2.125 2.099 1.141 0 2.115-.886 2.115-2.099 0-1.202-.975-2.087-2.115-2.087zm0 3.836c-.957 0-1.705-.742-1.705-1.75 0-.991.748-1.738 1.705-1.738.947 0 1.693.748 1.693 1.738 0 1.008-.746 1.75-1.693 1.75z"/><path d="M188.145 86.748c.354-.044.625-.233.625-.665 0-.476-.281-.687-.852-.687h-.92v2.414h.365v-1.046h.422l.637 1.046h.408l-.685-1.062zm-.782-.294v-.748h.5c.254 0 .525.055.525.354 0 .371-.277.393-.588.393h-.437v.001z" fill="#cf402d"/></g></svg>