<svg xmlns="http://www.w3.org/2000/svg" width="40" height="40" viewBox="0 0 40 40" fill="none">
  <path d="M19.6622 29.5981L34.0195 33.0454V6.29858L19.6622 9.74592V29.5981Z" fill="#205B98"/>
  <path d="M34.0138 6.29858L36.7745 7.66844V31.6812L34.0138 33.0512V6.29858Z" fill="#5294CF"/>
  <path d="M19.6622 29.5981L5.31067 33.0454V6.29858L19.6622 9.74592V29.5981Z" fill="#5294CF"/>
  <path d="M5.31061 6.29858L2.5498 7.66844V31.6812L5.31061 33.0512V6.29858Z" fill="#205B98"/>
  <path d="M23.3356 38.423L28.7888 35.7227V3.70582L23.3356 1L21.6244 18.7972L23.3356 38.423Z" fill="#5294CF"/>
  <path d="M15.9887 38.423L10.5356 35.7227V3.70582L15.9887 1L17.7 18.735L15.9887 38.423Z" fill="#205B98"/>
  <path d="M23.3413 1H15.9887V38.423H23.3413V1Z" fill="#2D72B8"/>
</svg>