<svg xmlns="http://www.w3.org/2000/svg" height="800" width="1200" viewBox="-75.0942 -128.50825 650.8164 771.0495"><path d="M370.987 264.145l-43.522-43.521 34.207-34.205 23.267 23.268zm-9.315-118.773l-34.207-34.205 43.522-43.52 13.952 54.46zM296.008 33.171l54.457 13.95-43.521 43.523-34.205-34.205zM231.693 56.44l-34.206 34.204-43.52-43.521 54.458-13.952zM133.44 67.643l43.524 43.525-34.204 34.204-23.272-23.272zm9.32 118.774l34.204 34.204-43.524 43.524-13.952-54.457zm65.663 112.203l-54.46-13.952 43.524-43.523 34.205 34.206zm77.997-77.997l-34.205 34.205-34.206-34.205 34.206-34.206zm20.523-88.934l34.205 34.206-34.205 34.205-34.206-34.205zm-75.251 34.206L197.487 200.1l-34.204-34.205 34.204-34.204zm-13.681-54.727l34.205-34.205 34.204 34.204-34.205 34.205zm54.726 164.183l34.206-34.204 43.52 43.521-54.458 13.95zM391.6 305.28l26.51-103.47-35.915-35.914 35.912-35.917-26.508-103.471L288.128 0l-35.912 35.916L216.297.001l-103.47 26.51-26.508 103.47 35.918 35.914-35.918 35.917 26.508 103.47 103.472 26.509 35.916-35.918 35.914 35.916zm97.661 107.728c-4.221-5.968-9.257-10.745-15.092-14.35-9.574-5.969-22.622-8.954-39.15-8.954h-41.75v124.324h48.836c17.639 0 31.812-5.71 42.498-17.143 10.685-11.433 16.025-26.59 16.025-45.481 0-15.033-3.792-27.828-11.367-38.396m-50.696 72.881h-13.61v-68.037h13.796c9.693 0 17.142 2.999 22.362 8.99 5.222 5.997 7.828 14.498 7.828 25.487 0 22.378-10.129 33.56-30.376 33.56m-104.002 28.144h31.686V389.71h-31.686zm-90.4-124.325L194.4 514.033h34.107l6.524-18.076h43.237l5.963 18.076h34.492l-49.4-124.325zm-.371 81.087l13.048-42.498 12.855 42.498zm-98.412-81.087h-31.685v124.325h68.408v-28.148H145.38zm-66.537 9.321c-7.458-6.213-20.195-9.316-38.211-9.316H0v124.318h30.383V475.08h13.604c16.528 0 28.642-3.607 36.344-10.82 8.693-8.07 13.046-18.816 13.046-32.241 0-13.915-4.842-24.911-14.534-32.99m-35.604 47.903H30.383v-29.079h11.552c14.04 0 21.06 4.88 21.06 14.631 0 9.635-6.583 14.448-19.756 14.448" fill="#fff"/></svg>