<svg xmlns="http://www.w3.org/2000/svg" width="40" height="40" viewBox="0 0 40 40" fill="none">
  <path fill-rule="evenodd" clip-rule="evenodd" d="M28.7458 28.136C25.793 28.136 23.3993 25.7964 23.3993 22.9108C23.3993 20.0247 25.793 17.6851 28.7458 17.6851C31.6986 17.6851 34.0923 20.0247 34.0923 22.9108C34.0923 25.7964 31.6986 28.136 28.7458 28.136ZM30.3464 12.8506V8.20202C31.5878 7.62891 32.4573 6.40147 32.4573 4.97697V4.86967C32.4573 2.90365 30.8116 1.29514 28.8002 1.29514H28.6909C26.6794 1.29514 25.0337 2.90365 25.0337 4.86967V4.97697C25.0337 6.40147 25.9033 7.62941 27.1447 8.20252V12.8506C25.2964 13.1298 23.6076 13.8749 22.2148 14.9715L9.15643 5.04315C9.24262 4.71975 9.30315 4.38681 9.30366 4.03683C9.30571 1.81058 7.462 0.00301105 5.18326 2.61196e-06C2.90554 -0.00250442 1.05567 1.80005 1.0531 4.0268C1.05054 6.25355 2.89426 8.06112 5.173 8.06363C5.91531 8.06463 6.60272 7.85855 7.20498 7.52361L20.05 17.2905C18.9578 18.902 18.3176 20.8325 18.3176 22.9108C18.3176 25.0864 19.0209 27.099 20.209 28.7542L16.303 32.5724C15.9942 32.4816 15.6741 32.4185 15.3345 32.4185C13.4625 32.4185 11.9446 33.9016 11.9446 35.7313C11.9446 37.5614 13.4625 39.0446 15.3345 39.0446C17.2069 39.0446 18.7244 37.5614 18.7244 35.7313C18.7244 35.4003 18.6597 35.087 18.5669 34.7851L22.4308 31.0085C24.1847 32.3167 26.3691 33.1029 28.7458 33.1029C34.5052 33.1029 39.1735 28.5396 39.1735 22.9108C39.1735 17.815 35.3435 13.6052 30.3464 12.8506Z" fill="#FF7A59"/>
</svg>