<?xml version="1.0" encoding="UTF-8" standalone="no"?>
<svg
   class="pageNav_logo__19-yr"
   width="800"
   height="645.45306"
   viewBox="0 -15 800 645.45306"
   fill="none"
   version="1.1"
   id="svg6"
   sodipodi:docname="edgedb.svg"
   inkscape:version="1.1.2 (0a00cf5339, 2022-02-04)"
   xmlns:inkscape="http://www.inkscape.org/namespaces/inkscape"
   xmlns:sodipodi="http://sodipodi.sourceforge.net/DTD/sodipodi-0.dtd"
   xmlns="http://www.w3.org/2000/svg"
   xmlns:svg="http://www.w3.org/2000/svg">
  <defs
     id="defs10" />
  <sodipodi:namedview
     id="namedview8"
     pagecolor="#505050"
     bordercolor="#ffffff"
     borderopacity="1"
     inkscape:pageshadow="0"
     inkscape:pageopacity="0"
     inkscape:pagecheckerboard="1"
     showgrid="false"
     fit-margin-top="0"
     fit-margin-left="0"
     fit-margin-right="0"
     fit-margin-bottom="0"
     inkscape:zoom="0.37280646"
     inkscape:cx="-669.24805"
     inkscape:cy="-553.90671"
     inkscape:window-width="2460"
     inkscape:window-height="1563"
     inkscape:window-x="0"
     inkscape:window-y="0"
     inkscape:window-maximized="1"
     inkscape:current-layer="svg6" />
  <path
     class="pageNav_logoBar__2v4ah"
     style="fill:#4c4c4c;fill-opacity:1;stroke-width:9.09089"
     fill-rule="evenodd"
     clip-rule="evenodd"
     d="m 501.30432,630.45308 h 27.27266 V -15 h -27.27266 z"
     id="path2" />
  <path
     fill-rule="evenodd"
     clip-rule="evenodd"
     d="m 677.60028,305.95109 c 0,55.20806 -22.13541,65.1044 -46.87535,65.1044 h -52.60352 v -130.2088 h 52.60352 c 24.73994,0 46.87535,9.89634 46.87535,65.1044 z m -26.81812,0 c 0,-38.54173 -11.71907,-40.36445 -28.64539,-40.36445 h -16.40633 v 80.7289 h 16.40633 c 16.92632,0 28.64539,-1.82272 28.64539,-40.36445 z m -278.64846,65.1044 v -130.2088 h 82.81254 v 24.73995 h -55.20806 v 26.56266 h 41.66627 v 24.47904 h -41.66627 v 29.6872 h 55.20806 v 24.73995 z m 360.67554,-57.8126 v 33.07265 h 22.91632 c 14.32269,0 17.96905,-9.37543 17.96905,-16.40632 0,-5.46908 -2.60454,-16.66633 -22.13541,-16.66633 z m 0,-47.65625 v 24.73903 h 18.74996 c 10.67725,0 16.92724,-4.68726 16.92724,-12.49997 0,-7.8118 -6.24999,-12.23906 -16.92724,-12.23906 z m -27.59993,-24.73995 h 53.12442 c 27.86448,0 36.1981,19.53178 36.1981,33.59356 0,13.02088 -8.33362,22.39631 -14.06269,24.99994 C 797.13546,307.51381 800,323.92014 800,332.25285 c 0,10.93725 -5.46817,38.80264 -41.66627,38.80264 h -53.12442 z m -491.66525,65.1044 c 0,55.20806 -22.1354,65.1044 -46.87444,65.1044 H 114.0652 v -130.2088 h 52.60442 c 24.73904,0 46.87444,9.89634 46.87444,65.1044 z m 81.248,41.40627 c 14.06178,0 21.35359,-4.68726 23.95812,-7.81271 v -14.3227 h -22.39631 v -22.39631 h 44.53172 v 51.82352 c -3.90636,5.98908 -25.26085,17.70814 -44.79172,17.70814 -32.03083,0 -59.11441,-12.49997 -59.11441,-67.70803 0,-55.20896 27.34358,-65.10439 52.08352,-65.10439 38.80173,0 48.43716,20.31268 51.5617,38.28082 l -22.91631,5.20908 c -1.30182,-8.33362 -8.59362,-18.74996 -25.25994,-18.74996 -16.92724,0 -28.6463,1.82272 -28.6463,40.36445 0,38.54083 12.23997,42.70809 30.98993,42.70809 z m -108.0743,-41.40627 c 0,-38.54173 -11.71907,-40.36445 -28.6463,-40.36445 h -16.40542 v 80.7289 h 16.40542 c 16.92723,0 28.6463,-1.82272 28.6463,-40.36445 z M 0,371.05549 v -130.2088 h 82.812357 v 24.73995 H 27.604119 v 26.56266 h 41.666542 v 24.47904 H 27.604119 v 29.6872 h 55.208238 v 24.73995 z"
     id="path4"
     style="fill:#4c4c4c;fill-opacity:1;stroke-width:9.09089" />
</svg>
