<svg width="102" height="70" viewBox="0 0 102 70" fill="none" xmlns="http://www.w3.org/2000/svg">
  <path d="M24.8364 62.9267H20.9461C20.8116 56.3421 20.433 50.1522 19.8102 44.357H19.7795L13.8542 62.9267H10.8937L5.00789 44.357H4.9728C4.54006 49.9124 4.26522 56.1023 4.14826 62.9267H0.600098C0.83401 54.6404 1.40856 46.873 2.32374 39.6246H7.14819L12.7577 56.7295H12.7928L18.4374 39.6246H23.0469C24.0557 48.104 24.6522 55.8713 24.8364 62.9267Z" fill="#00758F"/>
  <path d="M41.709 45.7342C40.1243 54.351 38.0352 60.6125 35.4417 64.5189C33.4242 67.5276 31.2093 69.0334 28.7971 69.0363C27.9753 68.9876 27.1702 68.7837 26.4243 68.4354V66.3609C26.9608 66.4324 27.5015 66.4661 28.0427 66.4618C29.0341 66.5072 30.0059 66.1749 30.7619 65.532C31.1402 65.2199 31.4469 64.8299 31.661 64.3887C31.8752 63.9475 31.9919 63.4654 32.0031 62.975C32.0031 62.3303 31.6786 61.0102 31.0382 59.0058L26.7664 45.7167H30.5909L33.661 55.655C34.3481 57.9152 34.6405 59.4927 34.5382 60.3874C36.2726 55.6497 37.45 50.7264 38.0469 45.7167H41.731" fill="#00758F"/>
  <path d="M58.748 56.4664C58.7723 57.388 58.5904 58.3034 58.2155 59.1456C57.8407 59.9879 57.2824 60.7358 56.5814 61.3347C55.1194 62.5978 53.1809 63.2308 50.7657 63.2338C48.3903 63.1952 46.0836 62.4299 44.1562 61.0408L45.1518 59.0409C46.6864 59.881 48.3948 60.3539 50.143 60.4224C51.3126 60.4898 52.4711 60.1624 53.4324 59.4926C53.8316 59.1911 54.1541 58.7996 54.3736 58.35C54.5931 57.9003 54.7034 57.4052 54.6955 56.905C54.6955 55.519 53.735 54.3392 51.9675 53.348C50.3359 52.4708 47.0816 50.5762 47.0816 50.5762C45.3273 49.2867 44.4282 47.9008 44.4282 45.6201C44.3974 44.7586 44.5589 43.901 44.901 43.1097C45.2432 42.3184 45.7574 41.6133 46.4062 41.0457C47.7307 39.8761 49.4354 39.2913 51.5201 39.2913C53.6101 39.2702 55.6591 39.8717 57.4059 41.0193L56.5068 43.0193C55.0983 42.3968 53.5775 42.0684 52.0376 42.0544C51.042 41.9906 50.0587 42.3038 49.2833 42.9316C48.9602 43.1991 48.6994 43.5339 48.5191 43.9127C48.3388 44.2915 48.2434 44.705 48.2395 45.1245C48.2395 46.5061 49.2263 47.7034 51.0377 48.7122C52.6911 49.5893 56.0288 51.5191 56.0288 51.5191C57.8445 52.8085 58.748 54.1813 58.748 56.4444" fill="#F29111"/>
  <path fill-rule="evenodd" clip-rule="evenodd" d="M65.6989 58.2647C64.7603 56.7472 64.2896 54.3087 64.2867 50.9491C64.2867 45.0808 66.0659 42.1452 69.6243 42.1423C71.4839 42.1423 72.8479 42.8484 73.7207 44.2475C74.6622 45.7708 75.1329 48.1875 75.1329 51.4973C75.1329 57.4153 73.3537 60.3729 69.7953 60.3699C67.9357 60.3699 66.5702 59.6682 65.6989 58.2647ZM79.5407 63.4883L75.2689 61.3743C75.6569 61.0631 76.0139 60.715 76.3346 60.3349C78.1504 58.1975 79.0583 55.0338 79.0583 50.8438C79.0583 43.1335 76.0393 39.2783 70.0015 39.2783C67.0425 39.2783 64.737 40.2564 63.0849 42.2125C61.2692 44.3528 60.3613 47.5062 60.3613 51.6728C60.3613 55.7663 61.1654 58.7691 62.7736 60.6813C64.2355 62.4035 66.4489 63.2661 69.4138 63.269C70.4426 63.2793 71.4677 63.1419 72.4575 62.8611L78.0188 66.1067L79.5363 63.4751" fill="#F29111"/>
  <path d="M93.4933 62.9267H82.4409V39.6246H86.1601V60.0584H93.4933V62.9267Z" fill="#F29111"/>
  <path d="M96.1243 62.9223H96.7383V60.5408H97.5453V60.054H95.2866V60.5408H96.1243V62.9091V62.9223ZM100.813 62.9223H101.387V60.0671H100.51L99.7997 62.0144L99.0234 60.0671H98.1813V62.9223H98.7558V60.7513H98.7865L99.5979 62.9223H100.037L100.848 60.7513V62.9223" fill="#F29111"/>
  <path fill-rule="evenodd" clip-rule="evenodd" d="M98.1504 31.8179C95.9049 31.7652 94.1637 31.9889 92.7032 32.6073C92.2646 32.7784 91.6111 32.7784 91.5541 33.3134C91.7778 33.5371 91.8041 33.9011 91.9927 34.2125C92.3763 34.8659 92.8705 35.4476 93.4532 35.9318C94.0453 36.3704 94.633 36.8309 95.2514 37.2476C96.3435 37.923 97.5803 38.3177 98.6461 39.0019C99.2688 39.3966 99.8829 39.8791 100.501 40.3177C100.808 40.5414 101.006 40.9098 101.4 41.0457V40.9624C101.203 40.708 101.146 40.344 100.962 40.0589C100.685 39.7826 100.4 39.5238 100.12 39.2475C99.2996 38.1544 98.3158 37.1944 97.2031 36.4011C96.3259 35.7827 94.3347 34.9362 93.9707 33.8968L93.9137 33.8397C94.5716 33.7512 95.2203 33.6045 95.8523 33.4012C96.8084 33.1468 97.6768 33.2038 98.6592 32.9626C99.0978 32.8485 99.5364 32.7082 100.01 32.5678V32.3135C99.5013 31.8091 99.1329 31.1293 98.6066 30.6512C97.1533 29.3793 95.6034 28.2223 93.9707 27.1908C93.0935 26.625 91.9795 26.261 91.0497 25.7829C90.7164 25.6119 90.1726 25.5285 89.9577 25.2478C89.4961 24.5678 89.1093 23.8399 88.8042 23.0768C87.9928 21.533 87.2033 19.8137 86.5016 18.1778C85.9972 17.0814 85.6902 15.9849 85.0718 14.9718C82.1771 10.1824 79.0325 7.28772 74.2036 4.44568C73.1642 3.85358 71.9318 3.5992 70.6116 3.29219C69.9099 3.26149 69.2081 3.20885 68.5064 3.17815C68.0678 2.98079 67.6073 2.44571 67.1906 2.19133C65.5898 1.1782 61.4627 -1.01473 60.2829 1.88433C59.5241 3.71324 61.4057 5.51583 62.0372 6.44563C62.5797 7.10185 63.0585 7.80824 63.467 8.55523C63.6644 9.03329 63.7214 9.54205 63.9056 10.0464C64.315 11.3338 64.8028 12.5949 65.3661 13.8227C65.6641 14.434 66.0102 15.0206 66.4012 15.577C66.6292 15.8884 67.0196 16.0156 67.1029 16.5375C66.7126 17.0989 66.6643 17.9454 66.4582 18.6471C65.4494 21.8312 65.8398 25.7697 67.274 28.1074C67.7126 28.8135 68.7871 30.3617 70.2213 29.7697C71.4844 29.2609 71.2037 27.6557 71.5677 26.261C71.6511 25.9189 71.594 25.6952 71.7651 25.4715V25.454C72.1554 26.239 72.5502 26.9978 72.9142 27.7873C73.9168 29.2365 75.1511 30.5108 76.5676 31.5591C77.2387 32.0679 77.7737 32.9406 78.6158 33.252V33.1643H78.5588C78.3702 32.9489 78.1533 32.7601 77.9141 32.6029C77.3836 32.0793 76.8953 31.5148 76.4536 30.9144C75.2649 29.2971 74.2131 27.5836 73.3089 25.7917C72.8703 24.9145 72.4668 23.9584 72.1028 23.0856C71.9318 22.7479 71.9318 22.2435 71.6642 22.0725C71.2256 22.6909 70.6292 23.2259 70.3178 23.9847C69.7827 25.1996 69.73 26.6908 69.5327 28.239C69.4187 28.2697 69.4757 28.239 69.4187 28.296C68.5415 28.0679 68.2125 27.1425 67.8748 26.3531C67.0327 24.3531 66.8924 21.1427 67.6248 18.8357C67.8178 18.2436 68.6643 16.3884 68.3266 15.8226C68.1555 15.2875 67.5941 14.9805 67.2871 14.5551C66.8946 13.9867 66.5555 13.3833 66.274 12.7525C65.603 11.178 65.2609 9.4324 64.5196 7.85788C64.1178 7.09363 63.6481 6.36703 63.1162 5.68687C62.5811 4.92811 61.9934 4.39304 61.5723 3.49394C61.432 3.18254 61.2346 2.67378 61.4583 2.34045C61.4736 2.24381 61.5207 2.15507 61.5923 2.08831C61.6638 2.02156 61.7556 1.98062 61.853 1.97204C62.2171 1.66064 63.2565 2.05538 63.6074 2.22643C64.5824 2.59201 65.5148 3.0626 66.388 3.6299C66.7827 3.91498 67.2038 4.45006 67.7038 4.5904H68.2959C69.173 4.78777 70.2037 4.64743 71.0458 4.90181C72.4691 5.37745 73.8274 6.02865 75.0896 6.84035C78.8156 9.22401 81.8425 12.5536 83.8613 16.4893C84.199 17.134 84.3394 17.7261 84.6508 18.4015C85.2385 19.7831 85.9665 21.1909 86.5586 22.5417C87.0732 23.8731 87.7431 25.1391 88.5542 26.3136C88.9708 26.9057 90.6594 27.2127 91.4181 27.5241C92.0762 27.7534 92.7218 28.0169 93.3523 28.3135C94.3084 28.9013 95.2602 29.5767 96.1593 30.2258C96.5979 30.5635 98.0145 31.2696 98.0978 31.831" fill="#00758F"/>
  <path fill-rule="evenodd" clip-rule="evenodd" d="M69.5109 7.34929C69.1218 7.3476 68.7341 7.39624 68.3574 7.49401V7.55103H68.4144C68.6845 7.95772 68.9851 8.34332 69.3135 8.70451C69.5372 9.1431 69.7521 9.60362 69.9583 10.0554L70.0153 9.99835C70.2244 9.83238 70.3883 9.61637 70.4917 9.37029C70.5952 9.12421 70.635 8.856 70.6074 8.59048C70.4833 8.39989 70.3706 8.2022 70.2697 7.9984C70.103 7.7177 69.7346 7.55981 69.5109 7.34929Z" fill="#00758F"/>
</svg>
