<svg xmlns="http://www.w3.org/2000/svg" width="40" height="40" viewBox="0 0 40 40" fill="none">
  <path d="M13.3722 21.826H4.85157C2.13017 21.826 0 23.9511 0 26.6661V35.1627C0 37.8752 2.13017 40.0003 4.85157 40.0003H13.3722C16.0949 40.0003 18.2251 37.8752 18.2251 35.1627V26.6636C18.2251 23.9498 15.9756 21.826 13.3722 21.826ZM15.2664 35.0427C15.2664 36.1052 14.438 36.9302 13.3722 36.9302H4.85157C4.60193 36.9332 4.35421 36.8865 4.12301 36.7926C3.89181 36.6988 3.68182 36.5599 3.5054 36.3839C3.32898 36.208 3.18972 35.9987 3.09582 35.7684C3.00191 35.538 2.95527 35.2912 2.95864 35.0427V26.5474C2.95864 25.4849 3.78711 24.6598 4.85157 24.6598H13.3722C14.438 24.6598 15.2664 25.4849 15.2664 26.5474V35.0427Z" fill="#2055BE"/>
  <path d="M35.2664 14.9855H25.0888V4.83765C24.9696 2.12507 22.8406 0 20.118 0H4.85157C2.13017 0 0 2.12507 0 4.83765V13.0979C0 15.8117 2.13017 17.9356 4.85157 17.9356H22.0109V35.0448C22.0109 37.7587 24.1423 39.8825 26.8637 39.8825H35.1484C37.8698 39.8825 40 37.7587 40 35.0448V19.8231C40 17.228 37.8698 15.1042 35.2664 14.9855ZM4.85157 14.9855C4.60193 14.9885 4.35421 14.9417 4.12301 14.8479C3.89181 14.7541 3.68182 14.6151 3.5054 14.4392C3.32898 14.2633 3.18972 14.054 3.09582 13.8236C3.00191 13.5933 2.95527 13.3465 2.95864 13.0979V4.83765C2.95864 3.77512 3.78711 2.95009 4.85157 2.95009H20.118C21.1837 2.95009 22.0122 3.77512 22.0122 4.83765V14.9855H4.85157ZM37.1594 35.0448C37.1594 36.1074 36.3309 36.9324 35.2664 36.9324H26.9817C26.7321 36.9354 26.4844 36.8886 26.2532 36.7948C26.022 36.701 25.812 36.562 25.6356 36.3861C25.4592 36.2102 25.3199 36.0009 25.226 35.7705C25.1321 35.5402 25.0854 35.2934 25.0888 35.0448V17.9356H35.2664C36.3309 17.9356 37.1594 18.7606 37.1594 19.8231V35.0448Z" fill="#2055BE"/>
</svg>