<svg width="33" height="19" viewBox="0 0 33 19" fill="none" xmlns="http://www.w3.org/2000/svg">
<path d="M23.0634 9.3221C23.4389 12.3167 23.7873 15.1283 24.1491 17.9369C24.1919 18.2733 24.1233 18.392 23.7526 18.4109C21.5201 18.5236 21.5213 18.5326 20.7143 16.4664C20.3783 15.6066 20.0508 14.7434 19.6929 13.8922C19.6142 13.7523 19.5851 13.5899 19.6105 13.4313C19.6359 13.2728 19.7142 13.1275 19.8327 13.0192C20.8887 11.8465 21.9174 10.6422 23.0634 9.3221Z" fill="white"/>
<path d="M9.94189 11.832C10.2616 13.4804 10.5771 15.0298 10.8548 16.586C10.9405 17.0678 11.3263 17.6798 10.9962 18.0055C10.7116 18.2854 10.0799 17.8894 9.5943 17.9074C8.30422 17.9562 7.70376 17.3502 7.49418 16.0777C7.37117 15.3307 7.31673 14.8133 7.93262 14.2347C8.65155 13.4763 9.3226 12.6738 9.94189 11.832V11.832Z" fill="white"/>
<path d="M13.5847 14.8386C13.5847 13.9128 13.5706 12.9871 13.5916 12.0617C13.5997 11.6983 13.4986 11.5757 13.1124 11.5628C10.478 11.4757 7.84409 11.37 5.2108 11.2457C4.7972 11.2264 4.63391 11.3438 4.54605 11.7527C4.13974 13.6462 3.67857 15.5286 3.28169 17.4243C3.17025 17.9566 2.9671 18.1529 2.41035 18.0925C1.79261 18.0285 1.17071 18.0141 0.550668 18.0496C0.0834987 18.0732 -0.00650498 17.8782 0.000352557 17.4715C0.0406406 14.6282 0.100218 11.7849 0.072788 8.94241C0.0677282 8.06773 0.359839 7.21725 0.90127 6.53027C2.3585 4.50515 3.76215 2.44361 5.17394 0.387204C5.25009 0.246394 5.36993 0.134136 5.51541 0.0673466C5.66089 0.000557572 5.82413 -0.0171512 5.98055 0.0168916C11.2446 0.580067 16.5106 1.12567 21.7786 1.6537C22.1081 1.6932 22.4227 1.81348 22.6945 2.00386C25.8293 4.04098 28.9584 6.08538 32.1091 8.09764C32.5805 8.39766 32.5934 8.5691 32.1403 8.8404C32.0428 8.89307 31.9556 8.96307 31.8832 9.04698C30.9758 10.2192 29.9116 10.1665 28.6258 9.64702C27.0718 9.02084 25.4328 8.60553 23.8393 8.07321C23.6876 8.01174 23.5232 7.98845 23.3604 8.00542C23.1976 8.02238 23.0415 8.07907 22.9058 8.1705C21.44 9.08084 19.9675 9.98004 18.4883 10.8681C18.355 10.9394 18.2412 11.0423 18.1568 11.1676C18.0723 11.2929 18.0197 11.437 18.0035 11.5873C17.6791 13.5417 17.3079 15.4875 17.0096 17.447C16.9239 18.0085 16.7237 18.1864 16.1657 18.1474C15.457 18.1054 14.7465 18.1043 14.0377 18.1439C13.6173 18.1628 13.5097 18.0154 13.5234 17.6146C13.5508 16.6893 13.532 15.7626 13.532 14.8369L13.5847 14.8386Z" fill="white"/>
</svg>
