<svg width="40" height="38" viewBox="0 0 40 38" fill="none" xmlns="http://www.w3.org/2000/svg">
<g id="Component 1" clip-path="url(#clip0_155_2195)">
<g id="Layer_2">
<g id="Group">
<g id="Group_2">
<path id="Vector" d="M26.2943 33.8586H13.7058C13.7803 34.0766 13.7803 34.2946 13.7803 34.5125C13.7803 34.5852 13.7803 34.6578 13.7803 34.7305H26.2198C26.2198 34.6578 26.2198 34.5852 26.2198 34.5125C26.2198 34.2946 26.2198 34.0766 26.2943 33.8586ZM34.9349 18.6731L30.9125 30.6617C31.2105 30.7343 31.5084 30.807 31.7319 30.9523L35.7542 19.0364C35.4563 18.9638 35.2328 18.8185 34.9349 18.6731ZM33.7431 12.7879L23.3892 5.44943C23.2403 5.66741 23.0168 5.95804 22.8678 6.17601L33.2216 13.5144C33.3706 13.2238 33.5196 13.0058 33.7431 12.7879ZM16.6108 5.44943L6.33151 12.7152C6.55497 12.9332 6.70395 13.1512 6.85293 13.4418L17.1323 6.17601C16.9088 5.95804 16.7598 5.74006 16.6108 5.44943ZM5.06522 18.7458C4.76727 18.8911 4.5438 18.9638 4.24585 19.0364L8.19371 30.9523C8.49166 30.807 8.78961 30.7343 9.08756 30.7343L5.06522 18.7458Z" fill="#0041CE"/>
</g>
</g>
<g id="Group_3">
<g id="Group_4">
<path id="Vector_2" d="M20.0373 6.10321C21.5183 6.10321 22.7188 4.93213 22.7188 3.48754C22.7188 2.04294 21.5183 0.871857 20.0373 0.871857C18.5563 0.871857 17.3557 2.04294 17.3557 3.48754C17.3557 4.93213 18.5563 6.10321 20.0373 6.10321Z" fill="#0041CE"/>
</g>
</g>
<g id="Group_5">
<g id="Group_6">
<path id="Vector_3" d="M3.27751 17.8738C4.7585 17.8738 5.95908 16.7027 5.95908 15.2581C5.95908 13.8135 4.7585 12.6425 3.27751 12.6425C1.79652 12.6425 0.595947 13.8135 0.595947 15.2581C0.595947 16.7027 1.79652 17.8738 3.27751 17.8738Z" fill="#0041CE"/>
</g>
</g>
<g id="Group_7">
<g id="Group_8">
<path id="Vector_4" d="M36.797 17.8738C38.278 17.8738 39.4786 16.7027 39.4786 15.2581C39.4786 13.8135 38.278 12.6425 36.797 12.6425C35.3161 12.6425 34.1155 13.8135 34.1155 15.2581C34.1155 16.7027 35.3161 17.8738 36.797 17.8738Z" fill="#0041CE"/>
</g>
</g>
<g id="Group_9">
<g id="Group_10">
<path id="Vector_5" d="M30.1676 37.128C31.6486 37.128 32.8492 35.9569 32.8492 34.5123C32.8492 33.0677 31.6486 31.8967 30.1676 31.8967C28.6867 31.8967 27.4861 33.0677 27.4861 34.5123C27.4861 35.9569 28.6867 37.128 30.1676 37.128Z" fill="#0041CE"/>
</g>
</g>
<g id="Group_11">
<g id="Group_12">
<path id="Vector_6" d="M9.83244 37.128C11.3134 37.128 12.514 35.9569 12.514 34.5123C12.514 33.0677 11.3134 31.8967 9.83244 31.8967C8.35146 31.8967 7.15088 33.0677 7.15088 34.5123C7.15088 35.9569 8.35146 37.128 9.83244 37.128Z" fill="#0041CE"/>
</g>
</g>
<g id="Group_13">
<g id="Group_14">
<path id="Vector_7" d="M30.0187 34.7302L29.9442 34.8029V34.8755L29.7207 34.7302H30.0187Z" fill="#0041CE"/>
<path id="Vector_8" d="M10.2794 34.7302L10.0559 34.8755L9.98145 34.7302H10.2794Z" fill="#0041CE"/>
</g>
</g>
<g id="Group_15">
<g id="Group_16">
<path id="Vector_9" d="M19.2179 7.26564L16.6853 14.8947L16.3874 15.7666L14.1527 22.4511L13.8548 23.323L11.3222 30.9521C11.0242 30.8067 10.7263 30.7341 10.4283 30.7341L13.0354 22.8144L13.3334 21.9425L15.419 15.7666L15.717 14.8947L18.3241 7.04767C18.622 7.12033 18.92 7.19298 19.2179 7.26564Z" fill="#0041CE"/>
<path id="Vector_10" d="M26.8901 22.7419L29.4972 30.6616C29.1992 30.7342 28.9013 30.8069 28.6033 30.8795L26.0707 23.2505L25.7728 22.3786L23.5382 15.6941L23.2402 14.8222L20.7821 7.26576C21.0801 7.1931 21.378 7.12044 21.6015 6.97513L24.2085 14.8222L24.5065 15.6941L26.5922 21.87L26.8901 22.7419Z" fill="#0041CE"/>
<path id="Vector_11" d="M30.0187 34.7302L29.9442 34.8029V34.7302H30.0187Z" fill="#0041CE"/>
</g>
</g>
<g id="Group_17">
<g id="Group_18">
<path id="Vector_12" d="M20.7822 27.174L26.1453 23.3231L25.8474 22.4512L19.9629 26.6654L14.1528 22.4512L13.4079 21.87L6.7785 17.0745C6.62952 17.3652 6.48054 17.5831 6.25708 17.8011L13.11 22.7418L13.8548 23.3231L19.218 27.174L12.663 31.8967C12.8865 32.1147 13.0355 32.3327 13.1845 32.6233L19.9629 27.7552L26.6668 32.6233C26.8157 32.3327 26.9647 32.1147 27.1882 31.8967L20.7822 27.174ZM29.7208 34.7304L29.9442 34.8757L30.0187 34.803L30.0932 34.7304H29.7208ZM26.1453 23.3231L26.8902 22.7418L33.7431 17.8011C33.5196 17.5831 33.3707 17.3652 33.2217 17.0745L26.5923 21.87L25.8474 22.4512L19.9629 26.6654L14.1528 22.4512L13.4079 21.87L6.7785 17.0745C6.62952 17.3652 6.48054 17.5831 6.25708 17.8011L13.11 22.7418L13.8548 23.3231L19.218 27.174L12.663 31.8967C12.8865 32.1147 13.0355 32.3327 13.1845 32.6233L19.9629 27.7552L26.6668 32.6233C26.8157 32.3327 26.9647 32.1147 27.1882 31.8967L20.6332 27.174L26.1453 23.3231ZM32.8493 15.7667C32.8493 15.6214 32.8493 15.4761 32.8493 15.3308C32.8493 15.1854 32.8493 15.0401 32.8493 14.9675H7.22542C7.22542 15.1128 7.22542 15.2581 7.22542 15.3308C7.22542 15.4761 7.22542 15.6214 7.22542 15.7667H32.8493ZM9.98147 34.7304L10.1305 34.8757L10.3539 34.7304H9.98147Z" fill="#0041CE"/>
</g>
</g>
</g>
</g>
<defs>
<clipPath id="clip0_155_2195">
<rect width="40" height="38" fill="white"/>
</clipPath>
</defs>
</svg>
