<svg xmlns="http://www.w3.org/2000/svg" width="40" height="40" viewBox="0 0 40 40" fill="none">
  <path d="M39.1035 15.2132L26.8966 8.9181L20.2759 12.5247C20.2759 12.5247 18.069 13.705 17.9311 15.6722C17.6552 15.4755 17.3793 15.2132 17.3104 14.8853V10.3607C17.3104 9.96728 17.5862 9.63941 17.9311 9.50826L26.8966 4.52466L39.1035 10.8197" fill="#2380C3"/>
  <path d="M0.482788 10.754C0.551754 10.4261 0.827616 10.1638 1.17244 10.0327L16.3449 1.57367C17.3793 0.983509 18.6207 0.65564 19.7931 0.65564V5.11466C18.5518 5.11466 17.3793 5.37695 16.2759 5.90154L3.58624 13.0491L16.3449 20.1966C18.5518 21.2458 21.1724 21.2458 23.3793 20.1966L38.5518 11.7376C38.8966 11.6065 39.1724 11.2786 39.1724 10.8851V15.2786C39.1724 15.672 38.8966 15.9999 38.5518 16.131L23.3793 24.5901C21.1724 25.6392 18.5518 25.6392 16.3449 24.5901L1.17244 16.131C0.75865 15.9999 0.482788 15.6065 0.482788 15.213V10.754Z" fill="#2380C3"/>
  <path d="M39.1035 22.4263C39.1035 22.8197 38.8276 23.1476 38.4828 23.2788L23.3104 31.7378C21.1035 32.787 18.4828 32.787 16.2759 31.7378L1.10348 23.2788C0.75865 23.082 0.551754 22.7542 0.482788 22.4263V17.9673C0.482788 18.3607 0.75865 18.6886 1.10348 18.8197L16.2759 27.2788C18.4828 28.3279 21.1035 28.3279 23.3104 27.2788L38.4828 18.8197C38.8276 18.623 39.0345 18.2952 39.0345 17.9673V22.4263H39.1035Z" fill="#2380C3"/>
  <path d="M39.1035 29.3114C39.0345 29.7049 38.8276 30.0327 38.4828 30.1639L23.3104 38.6885C21.1035 39.7376 18.4828 39.7376 16.2759 38.6885L1.10348 30.1639C0.75865 29.9671 0.551754 29.6393 0.482788 29.3114V24.918C0.551754 25.3114 0.75865 25.6393 1.10348 25.7704L16.2069 34.2294C18.4138 35.2786 21.0345 35.2786 23.2414 34.2294L38.4138 25.7704C38.7587 25.6393 39.0345 25.3114 39.0345 24.918L39.1035 29.3114Z" fill="#2380C3"/>
</svg>