<svg width="40" height="40" viewBox="0 0 40 40" fill="none" xmlns="http://www.w3.org/2000/svg">
<g clip-path="url(#clip0_155_1111)">
<path d="M20.0048 15.3856C20.0112 15.3856 20.016 15.3872 20.0208 15.3872C20.0256 15.3872 20.0304 15.3856 20.0368 15.3856C22.2032 15.3856 23.96 17.1408 23.96 19.3104C23.96 20.5232 23.408 21.608 22.5424 22.328C22.1648 22.6848 21.6928 22.9472 21.1168 23.08C20.7744 23.1792 20.4096 23.2336 20.0368 23.2336H20.0208H20.0048C19.6304 23.2336 19.2672 23.1792 18.9232 23.08C18.3472 22.9472 17.8736 22.6848 17.4976 22.328C16.632 21.608 16.08 20.5248 16.08 19.3104C16.08 17.1408 17.8384 15.3856 20.0048 15.3856ZM3.38397 31.1728C5.49277 31.4384 7.36477 29.9024 7.56317 27.7456C7.62877 27.0176 7.49277 26.3104 7.20797 25.6848C4.25437 19.2032 18.8272 19.0544 16.3648 25.1728C16.36 25.1808 16.3536 25.1872 16.3472 25.1984C15.1824 27.0592 15.8128 29.48 17.7504 30.5984C18.4624 31.0096 19.2496 31.1824 20.0208 31.1504C20.792 31.1824 21.5808 31.0096 22.2912 30.5984C24.2272 29.4784 24.8576 27.0592 23.6928 25.1984C23.688 25.1872 23.68 25.1808 23.6752 25.1728C21.2144 19.0544 35.7888 19.2016 32.832 25.6848C32.5472 26.3104 32.4112 27.0176 32.4768 27.7456C32.6768 29.904 34.5472 31.4384 36.656 31.1728C37.5936 31.0544 38.4208 30.6016 39.032 29.944C39.032 29.944 40.0128 29.1312 39.9968 27.0544C39.9824 25.3632 39.032 24.4256 39.032 24.4256C38.2656 23.6512 37.176 23.2256 36.008 23.3504C33.3024 23.2896 32.9008 21.1728 33.6656 17.1776C33.9456 16.4704 34.0672 15.7104 34.0432 14.952C34.1184 12.9104 33.0912 10.896 31.2 9.8016C30.9696 9.6688 30.7328 9.56 30.4912 9.4608C30.4272 9.432 30.36 9.4096 30.2944 9.3824C30.2192 9.3552 30.1472 9.3264 30.072 9.3056C29.4832 9.1072 28.8544 8.9984 28.2 9.0064C26.1648 9.0256 24.392 10.1136 23.3984 11.728C22.0352 13.2224 21.4208 14.1296 20.0192 14.1296C18.688 14.1296 18.0016 13.2208 16.6384 11.728C15.648 10.112 13.8752 9.024 11.84 9.0048C11.184 8.9984 10.5568 9.1056 9.96957 9.304C9.89437 9.3264 9.81917 9.3552 9.74717 9.3808C9.67997 9.4064 9.61597 9.4304 9.54877 9.4592C9.30877 9.5584 9.07037 9.6672 8.84157 9.8C6.94877 10.896 5.92317 12.9104 5.99677 14.952C5.97117 15.7104 6.09437 16.4704 6.37437 17.1776C7.13757 21.1728 6.73597 23.2896 4.03197 23.3504C2.70877 23.208 1.71997 23.7536 0.719971 24.7536C-0.281628 25.7536 -0.198429 28.4304 0.719971 29.5984C1.38557 30.448 2.28957 31.0352 3.38397 31.1728Z" fill="url(#paint0_linear_155_1111)"/>
</g>
<defs>
<linearGradient id="paint0_linear_155_1111" x1="19.9983" y1="9.00453" x2="19.9983" y2="31.2027" gradientUnits="userSpaceOnUse">
<stop stop-color="#AF1F2C"/>
<stop offset="1" stop-color="#930D18"/>
</linearGradient>
<clipPath id="clip0_155_1111">
<rect width="40" height="40" fill="white"/>
</clipPath>
</defs>
</svg>
