<svg xmlns="http://www.w3.org/2000/svg" width="40" height="40" viewBox="0 0 40 40" fill="none">
  <path d="M19.9265 39.0476C30.4185 39.0476 38.9227 30.52 38.9227 20C38.9227 9.48001 30.4185 0.952393 19.9274 0.952393C9.43343 0.952393 0.930176 9.48001 0.930176 20C0.930176 30.52 9.43529 39.0476 19.9265 39.0476Z" fill="#FFF6E2"/>
  <path d="M19.9275 32.7448C26.9591 32.7448 32.6596 27.0267 32.6596 19.9733C32.6596 12.92 26.9591 7.2019 19.9275 7.2019C12.8949 7.2019 7.19446 12.92 7.19446 19.9733C7.19446 27.0267 12.8949 32.7448 19.9275 32.7448Z" fill="#FDB515"/>
  <path d="M28.3535 18.7181C29.1191 16.8505 28.5619 14.8514 27.1089 14.2524C25.6558 13.6543 23.8577 14.6838 23.093 16.5514C22.3275 18.419 22.8847 20.4181 24.3377 21.0171C25.7898 21.6152 27.5879 20.5867 28.3535 18.7181ZM19.9572 35.8048C21.974 35.8048 23.6084 34.0305 23.6084 31.8419C23.6084 29.6524 21.974 27.8781 19.9572 27.8781C17.9405 27.8781 16.3061 29.6524 16.3061 31.8419C16.3061 34.0305 17.9405 35.8048 19.9572 35.8048ZM15.64 21.0152C17.093 20.4162 17.6493 18.4171 16.8847 16.5486C16.1191 14.6819 14.3209 13.6514 12.8679 14.2505C11.4158 14.8486 10.8586 16.8486 11.6233 18.7162C12.3889 20.5838 14.187 21.6133 15.64 21.0143V21.0152Z" fill="white"/>
  <path d="M26.4 32.26C30.3386 30.1429 33.134 26.1572 33.6 21.4819L35.8047 24.0219C34.5758 29.0353 31.0437 33.1457 26.4037 35.16C26.4484 34.76 26.4707 34.3105 26.4707 33.7981C26.4669 33.2847 26.443 32.7715 26.3991 32.26H26.4ZM15.4856 33.1677C16.8744 33.6391 18.3563 33.8915 19.9042 33.8915C21.5191 33.8915 23.0633 33.6162 24.5051 33.1048C24.2028 34.3105 23.733 35.3648 23.134 36.1924C22.0921 36.4019 21.013 36.5124 19.9089 36.5124C18.8707 36.5124 17.8595 36.4143 16.8744 36.2324C16.267 35.4096 15.7916 34.3591 15.4856 33.1677ZM13.4856 32.3C9.48374 30.1829 6.64839 26.1438 6.20094 21.4057L4.04932 24.2124C5.32653 29.1724 8.86234 33.221 13.4847 35.2C13.4409 34.7905 13.4186 34.3286 13.4186 33.8029C13.4186 33.2962 13.4409 32.7934 13.4847 32.3H13.4856ZM30.9554 11.86L32.5172 9.61813C31.401 8.26963 30.0833 7.11053 28.613 6.18384L25.9777 7.70098C27.9348 8.66487 29.6407 10.0902 30.9554 11.86ZM11.374 6.0686C9.83559 7.01019 8.45931 8.20493 7.30048 9.60479L9.06234 11.5838C10.3562 9.93128 11.9967 8.59803 13.8623 7.68289L11.373 6.0686H11.374ZM10.8456 19.9867C10.8456 15.8496 13.6 12.3581 17.3712 11.2505C17.5395 10.7743 17.7526 10.36 17.9926 10.0219C13.3256 10.9257 9.80281 15.0448 9.80281 19.9867C9.80281 23.4876 11.5684 26.5743 14.2568 28.3981C14.3768 28.0515 14.5051 27.7172 14.6475 27.3934C12.3451 25.7429 10.8456 23.0381 10.8456 19.9867Z" fill="#141E35"/>
  <path d="M12.6326 16.9438L13.4001 17.1438C14.1005 15.5319 15.3539 14.2389 16.9229 13.5095C16.9452 13.2029 16.9759 12.9 17.0252 12.6114C16.0479 12.9976 15.1559 13.5799 14.4016 14.3241C13.6473 15.0682 13.0458 15.9592 12.6326 16.9448V16.9438ZM12.9089 21.1124H12.1191C12.2708 22.1422 12.6201 23.1311 13.147 24.0219C13.6739 24.9128 14.3679 25.688 15.1889 26.3029C15.3229 26.0724 15.4596 25.8495 15.6066 25.6362C14.1719 24.5402 13.2056 22.9197 12.9089 21.1124ZM26.4652 17.1714L27.2289 16.9705C26.3154 14.7419 24.4159 13.02 22.0736 12.3581C22.1312 12.6333 22.1805 12.9229 22.2159 13.2248C24.1322 13.8743 25.6764 15.32 26.4661 17.1705L26.4652 17.1714ZM27.828 18.9905L27.0029 18.1362L24.2922 18.5714L23.8754 19.8219L25.1219 20.6581L27.4103 19.8219L27.8289 18.9905H27.828ZM12.1368 18.9905L12.9573 18.1362L15.6726 18.5714L16.0847 19.8219L14.8382 20.6581L12.5536 19.8219L12.1368 18.9905ZM27.4419 22.3838C27.5741 21.9691 27.6725 21.5438 27.7359 21.1124H26.9452C26.9061 21.3571 26.8522 21.5924 26.7908 21.8286C27.0215 22.0152 27.2382 22.1971 27.4419 22.3838ZM24.9396 25.0267C24.7359 25.2267 24.5229 25.4229 24.2977 25.5962C24.4429 25.8095 24.5861 26.0324 24.7182 26.2629C25.0682 25.9929 25.3961 25.6941 25.6987 25.3695C25.4427 25.2629 25.1899 25.1486 24.9405 25.0267H24.9396Z" fill="#141E35"/>
  <path d="M29.0084 19.9867C29.0075 21.1379 28.7906 22.2783 28.3693 23.3457C28.6754 23.7105 28.9061 24.0619 29.0577 24.3771C29.7151 23.0115 30.0564 21.5091 30.0549 19.9867C30.0549 14.7467 26.0977 10.4362 21.0131 9.89428C21.267 10.2095 21.4931 10.6009 21.6791 11.0505C25.854 11.8695 29.0084 15.5562 29.0084 19.9867ZM26.9275 25.7829C26.4408 26.3728 25.8846 26.8987 25.2717 27.3486C25.414 27.6686 25.5479 28.0067 25.6624 28.3543C26.6079 27.7005 27.4391 26.8881 28.121 25.9514C27.7178 25.9473 27.3167 25.8906 26.9275 25.7829ZM20.7963 18.7457C20.787 18.7457 20.7824 18.7409 20.7777 18.7362L19.9265 9.8219H19.1321L18.4047 18.799H18.4093C18.4093 18.8171 18.4047 18.8343 18.4047 18.8524C18.4093 19.0038 18.4233 19.1457 18.4493 19.2838C18.4624 19.4352 18.507 19.5905 18.5777 19.7467C18.7284 20.1371 18.9731 20.4324 19.2614 20.5695C19.3275 20.6229 19.3982 20.6714 19.4698 20.7209C19.4828 20.7305 19.5005 20.7381 19.5135 20.7476V20.7514L28.3507 25.6228L28.8121 24.9781L20.7963 18.7457ZM21.9228 30.9476C21.2354 30.9476 20.654 30.4762 20.4856 29.84L23.7554 28.5857L22.974 26.6371L19.9265 27.8733L16.8754 26.6409L16.0986 28.5857L19.3368 29.8667C19.2372 30.2031 19.0268 30.4939 18.7413 30.6893C18.4558 30.8846 18.1129 30.9726 17.7712 30.9381L17.1098 31.8686C17.3582 31.9524 17.6242 31.9971 17.9042 31.9971C18.7247 31.9971 19.4521 31.6057 19.9135 30.9971C20.2459 31.4325 20.7047 31.7485 21.2239 31.8995C21.743 32.0504 22.2956 32.0286 22.8019 31.8371L22.1535 30.9295C22.0773 30.9423 22.0001 30.9484 21.9228 30.9476Z" fill="#141E35"/>
  <path d="M30.0996 12.2905L29.0391 13.5C30.3763 15.3805 31.0956 17.6472 31.0931 19.9733C31.0931 23.9228 29.0521 27.3971 25.9693 29.3905C26.107 29.9143 26.2177 30.4619 26.3024 31.0266C30.0996 28.8171 32.6549 24.6933 32.6549 19.9733C32.6642 17.0905 31.7061 14.4305 30.0996 12.2905ZM8.76097 19.9743C8.76097 17.5676 9.51911 15.339 10.8103 13.5105L9.74981 12.3009C8.09143 14.498 7.19262 17.1967 7.19446 19.9733C7.19446 24.7247 9.78051 28.8705 13.6224 31.0686C13.707 30.5028 13.814 29.9562 13.9517 29.4352C10.8279 27.4466 8.76097 23.9552 8.76097 19.9743ZM19.9266 7.20188C17.9703 7.20188 16.1163 7.64664 14.4614 8.43426L15.2428 9.80474C16.7137 9.12156 18.3105 8.76919 19.9256 8.77141C21.5945 8.77141 23.1777 9.14093 24.6019 9.79998L25.3833 8.42855C23.6727 7.61863 21.8103 7.19973 19.9256 7.20093L19.9266 7.20188Z" fill="#141E35"/>
</svg>