<svg xmlns="http://www.w3.org/2000/svg" xmlns:xlink="http://www.w3.org/1999/xlink" viewBox="0 0 48 48"><defs/><defs><path id="a" d="M12 0a12 12 0 0112 12v12H12a12 12 0 110-24z"/><path id="c" d="M0 24V11.7A12 12 0 1112 24H0z"/></defs><g fill="none" fill-rule="evenodd"><path fill="#1988E0" d="M35.3 9.7a16 16 0 01-.6 23.2L24 43 13.3 33l-.6-.7A16 16 0 1135.3 9.7z"/><g transform="translate(0 19)"><mask id="b" fill="#fff"><use xlink:href="#a"/></mask><use fill="#2CD4ED" xlink:href="#a"/><path fill="#0DB4E2" d="M35.3-9.3a16 16 0 01-.6 23.2L24 24 13.3 14l-.6-.7A16 16 0 1135.3-9.3z" mask="url(#b)"/></g><g transform="translate(24 19)"><mask id="d" fill="#fff"><use xlink:href="#c"/></mask><use fill="#3169FF" xlink:href="#c"/><path fill="#3153FF" d="M11.3-9.3a16 16 0 01-.6 23.2L0 24l-10.7-10-.6-.7A16 16 0 1111.3-9.3z" mask="url(#d)"/></g></g></svg>