<?xml version="1.0" encoding="utf-8"?>
<!-- Generator: Adobe Illustrator 22.1.0, SVG Export Plug-In . SVG Version: 6.00 Build 0)  -->
<svg version="1.0" id="Layer_1" xmlns="http://www.w3.org/2000/svg" xmlns:xlink="http://www.w3.org/1999/xlink" x="0px" y="0px"
	 width="1000px" height="750px" viewBox="0 0 1000 750" style="enable-background:new 0 0 1000 750;" xml:space="preserve">
<style type="text/css">
	.st0{fill-rule:evenodd;clip-rule:evenodd;fill:#0B5EA0;}
	.st1{fill-rule:evenodd;clip-rule:evenodd;fill:#3FDCFF;}
	.st2{fill-rule:evenodd;clip-rule:evenodd;fill:#009AF0;}
</style>
<g>
	<path class="st0" d="M286.3,117.2c83.4,42.1,164.4,85.7,244.6,130v37l37.4-16.3c46.5,25.8,92.8,51.8,139.1,77.8
		c30.2,16.4,29.4,36,0,52.5c-137.2,80.1-274.5,159.4-411.7,231c-16.2,9.1-31.6,8.4-31.6-15.7c0-162.4,0-324.8,0-487.2
		C264.2,108.6,276.9,112.1,286.3,117.2L286.3,117.2z"/>
	<path class="st1" d="M330.8,179.3h200.1v104.9l41.8-18.1l41.8,18.1V179.3h44.7c7.6,0,12.3,6.6,12.3,13.5v226.5
		c-113.6,66.1-227.1,131.3-340.7,191.5V179.3L330.8,179.3z"/>
	<path class="st2" d="M405.2,570.5V179.3h-74.5v431.5C355.6,597.5,380.4,584.1,405.2,570.5L405.2,570.5z"/>
</g>
</svg>
