<svg version="1.1" xmlns="http://www.w3.org/2000/svg" xmlns:xlink="http://www.w3.org/1999/xlink" x="0px" y="0px"
	 viewBox="0 0 42.3 47" style="enable-background:new 0 0 42.3 47;" xml:space="preserve">
<path fill="#525ebc" class="st0" d="M32.9,9.9c-2.9,1-4.3,2.7-5.3,5.4c-0.2,0.7-0.9,1.5-1.6,2.1l2.4,2.6l-7.6-5.3L0,0c0,0,1.5,9.8,2,13.4
	c0.4,2.5,1,3.7,3,4.8l0.8,0.4l3.4,1.8l-2-1.1l9.4,5.2l-0.1,0.1L6.4,20c0.5,1.8,1.6,5.4,2,7c0.5,1.7,1,2.3,2.7,2.9l3,1.1l1.9-0.7
	l-2.4,1.6L1.7,47c7.9-7.4,14.6-10,19.5-12.1c6.3-2.7,10-4.5,12.5-10.7c1.8-4.4,3.1-10,4.9-12.2l3.7-4.7C42.3,7.2,34.7,9.3,32.9,9.9z
	"/>
</svg>
