<svg xmlns="http://www.w3.org/2000/svg" width="40" height="40" viewBox="0 0 40 40" fill="none">
  <path d="M25.6188 12.436C13.5767 12.4484 9.05939 20.1836 9.05939 20.1836C9.05939 20.1836 12.5619 14.6355 22.302 14.6355C33.0693 14.6355 41.646 23.5446 32.5866 33.4546C32.5866 33.4546 40 30.0318 40 23.211C40 16.3901 32.5742 12.4237 25.6188 12.436Z" fill="#000044"/>
  <path d="M0 22.4943L7.16584 20.7396C7.16584 20.7396 10.8416 10.7926 26.5346 11.0397C33.3168 11.188 37.6733 14.7096 38.8366 16.7732C38.8366 16.7732 34.9134 8.01236 22.6609 8.01236C10.4084 8.01236 3.87376 15.3769 0 22.4943Z" fill="#0066FF"/>
</svg>