<svg xmlns="http://www.w3.org/2000/svg" width="40" height="40" viewBox="0 0 40 40" fill="none">
  <g clip-path="url(#clip0_155_1268)">
    <path d="M4.45374 39.9488C3.86749 39.7988 3.56249 39.5575 1.99874 38.0025C0.143735 36.1475 0.0274854 35.9638 0.0337354 35.0013C0.0337354 33.9263 -0.300015 34.3113 5.64499 28.355C11.64 22.345 11.335 22.605 12.415 22.605C12.9237 22.605 13.0462 22.6313 13.45 22.84L13.9137 23.075L16.8175 20.1713L16.4525 19.5975C15.7487 18.4913 15.0787 16.8825 14.7787 15.5475C13.9325 11.7775 14.8437 7.83253 17.2475 4.81253C21.3937 -0.382472 28.8425 -1.54247 34.3425 2.16878C37.3637 4.20003 39.3312 7.33003 39.8912 11.0225C40.0075 11.8038 40.0075 13.6525 39.8912 14.4813C39.52 17.2663 38.225 19.8513 36.2175 21.8175C35.2875 22.7813 34.1875 23.5763 32.9762 24.1538C31.3812 24.955 30.0212 25.3325 28.1775 25.4888C25.5537 25.71 22.6437 24.98 20.4175 23.555L19.8437 23.19L16.9337 26.0938L17.1687 26.5638C17.3775 26.9675 17.4025 27.09 17.4025 27.5925C17.4087 28.6725 17.6637 28.3675 11.6937 34.3375C7.08998 38.9325 6.37999 39.6113 6.02874 39.7725C5.57999 39.9813 4.88374 40.0588 4.45374 39.9488ZM29.14 23.2488C32.48 22.63 35.3312 20.455 36.8162 17.4025C39.1325 12.5663 37.5712 6.88878 33.0975 3.88753C32.0375 3.17128 30.5525 2.56628 29.1525 2.28628C28.1887 2.09128 26.1387 2.11128 25.1287 2.32628C23.6637 2.63128 22.27 3.23628 21.0475 4.10253C20.3062 4.62253 19.0812 5.84753 18.5675 6.57628C15.7025 10.5875 15.9625 16.0425 19.1987 19.755C20.87 21.6813 23.1825 22.945 25.7025 23.315C26.5487 23.445 28.2737 23.4138 29.1462 23.2563L29.14 23.2488ZM22.91 35.54C21.6862 35.2013 20.4687 34.8363 19.2512 34.46C19.2112 34.4138 21.2625 27.1288 21.3475 27.045C21.3862 26.9988 28.4175 28.965 28.7037 29.1013C28.8075 29.1463 28.6975 29.5825 27.8237 32.6025C27.4725 33.8475 27.12 35.0913 26.7687 36.3338C26.7237 36.4775 26.6525 36.5938 26.6075 36.5938C26.5625 36.5875 24.8962 36.1125 22.9087 35.5388L22.91 35.54ZM27.7662 36.42C27.7662 36.3288 29.8112 29.1938 29.8425 29.1738C29.9212 29.115 37.0487 27.1225 37.0762 27.155C37.11 27.1863 35.0775 34.3813 35.0262 34.42C34.9925 34.4538 28.1512 36.4063 27.93 36.4513C27.8387 36.4713 27.7662 36.4513 27.7662 36.42ZM15.925 33.23C17.33 31.81 18.5862 30.52 18.7112 30.3513C18.9962 29.9863 19.3875 29.1325 19.4975 28.6575C19.5437 28.4625 19.5887 28.0725 19.5962 27.7925L19.6162 27.2775L19.915 27.1925C20.0912 27.1475 20.2412 27.1213 20.2537 27.1338C20.2937 27.18 18.2425 34.335 18.1775 34.4C18.1462 34.425 17.0512 34.7563 15.7362 35.1288L13.3675 35.805L15.9262 33.2338L15.925 33.23ZM29.74 28.1313C29.7 28.0263 29.6687 27.9225 29.6412 27.8175L29.5625 27.5575L29.8237 27.5125C32.055 27.1338 34.4525 26.0863 36.34 24.6613C36.6062 24.4525 36.7562 24.375 36.7812 24.4325C36.8662 24.7063 37.2312 26.0138 37.225 26.0338C37.1662 26.085 29.7562 28.1688 29.7387 28.1375L29.74 28.1313ZM4.60374 25.9638C4.51874 25.8988 2.63749 19.525 2.49374 18.815C2.46749 18.6713 2.73499 18.7438 6.11999 19.7063C9.64874 20.7163 9.77124 20.755 9.81874 20.9425C9.86999 21.1063 9.83749 21.1575 9.60999 21.3138C9.47374 21.4125 8.32624 22.5188 7.06999 23.775C6.31499 24.5488 5.53999 25.305 4.75874 26.0538C4.73374 26.0538 4.66249 26.015 4.60374 25.9638ZM5.96999 18.665C3.99124 18.0988 2.36374 17.63 2.35624 17.6238C2.32999 17.6038 4.45999 10.235 4.49749 10.1888C4.53749 10.1575 11.8675 12.2075 11.9462 12.2788C11.96 12.2925 11.4962 13.9725 10.9175 16.0088C9.95374 19.375 9.84249 19.7138 9.71249 19.7075C9.62749 19.7075 7.94874 19.2325 5.96249 18.6663L5.96999 18.665ZM10.8987 19.5638C10.9187 19.5125 11.2575 18.36 11.64 17.005L12.3362 14.55L12.435 15.085C12.5912 16.0088 12.8787 17.0638 13.21 17.9813C13.385 18.4763 13.515 18.88 13.5087 18.8925C13.4975 18.9063 12.955 19.0625 12.3125 19.2438C11.6612 19.425 11.0762 19.595 11.0037 19.62C10.905 19.6463 10.8725 19.6263 10.8987 19.5613V19.5638ZM8.17624 10.1888C6.19749 9.62253 4.56249 9.12878 4.54499 9.09503C4.47374 8.99128 2.46624 1.89503 2.49374 1.86878C2.53374 1.82378 9.67498 3.87378 9.74749 3.94503C9.82624 4.03003 11.8762 11.2438 11.8237 11.2363L8.18374 10.1875L8.17624 10.1888ZM11.7587 7.33003L10.8925 4.32378L10.7625 3.85378L13.5812 3.04753C15.1375 2.61128 16.4525 2.22753 16.5175 2.20128C16.5687 2.17628 16.3737 2.43628 16.0812 2.76128C14.54 4.46128 13.42 6.50503 12.82 8.71753C12.7237 9.02378 12.6512 9.33753 12.6 9.64878C12.6 10.1438 12.4037 9.61003 11.76 7.33753L11.7587 7.33003Z" fill="black"/>
  </g>
  <defs>
    <clipPath id="clip0_155_1268">
      <rect width="40" height="40" fill="white"/>
    </clipPath>
  </defs>
</svg>