<svg xmlns="http://www.w3.org/2000/svg" width="40" height="40" viewBox="0 0 40 40" fill="none">
  <path d="M14.1465 7.5C14.1465 7.5 -1.32203 16.8119 13.2562 26.0578C16.0605 27.8587 26.2319 32.866 25.9426 37.5C25.9426 37.5 32.1077 28.4956 23.0937 22.8294C13.8349 17.0095 11.5202 10.8382 14.1465 7.5Z" fill="#ED1C24"/>
  <path d="M8.42488 26.5C8.42488 26.5 2.81692 34.4869 13.8519 36.1225C14.9373 36.25 22.9422 37.0359 25 39.5C25 39.5 24.8191 35.2516 18.3066 32.7451C11.7942 30.2386 9.14848 29.6013 8.42488 26.5Z" fill="#ED1C24"/>
  <path d="M29.9323 17.2436C23.5585 10.3152 21.7833 6.02937 24.521 0.5C24.521 0.5 5.50658 8.09456 24.2857 21.5738C31.0017 26.3925 29.8895 31.3224 29.8895 31.5C30.9376 30.3675 36.3061 24.1719 29.9323 17.2436Z" fill="#ED1C24"/>
</svg>