<?xml version="1.0" encoding="utf-8"?>
<!-- Generator: Adobe Illustrator 26.0.3, SVG Export Plug-In . SVG Version: 6.00 Build 0)  -->
<svg version="1.0" id="katman_1" xmlns="http://www.w3.org/2000/svg" xmlns:xlink="http://www.w3.org/1999/xlink" x="0px" y="0px"
	 viewBox="0 0 800 600" style="enable-background:new 0 0 800 600;" xml:space="preserve">
<style type="text/css">
	.st0{fill:#F16626;}
	.st1{fill:none;}
	.st2{fill:#264D63;}
	.st3{fill:#F4802A;}
	.st4{fill:#F89A2B;}
	.st5{fill:#F7981D;}
	.st6{fill:#F5AE5A;}
	.st7{fill:#CC4D27;}
	.st8{fill:#F16739;}
</style>
<path class="st0" d="M278.7,521.1l1,4.4h0.4l1-4.2l17.4-57.9h16.7L288,542.7h-16.3l-26.8-79.3h16.7L278.7,521.1z M338.2,469.4h-15.9
	v-11.9h15.9V469.4z M338.2,542.7h-15.9v-58.9h15.9V542.7z M370.3,469.2v14.5h9.9v11.1h-9.9v30.1c-0.2,1.8,0.4,3.4,1.4,4.8
	c1,1,2.4,1.6,3.8,1.4c0.8,0,1.4,0,2.2-0.2c0.8-0.2,1.4-0.2,2.2-0.4l1.2,11.5c-1.6,0.6-3,1-4.6,1.2c-1.6,0.2-3.2,0.4-4.8,0.4
	c-4.6,0.4-9.3-1.4-12.7-4.4c-3-3-4.4-7.9-4.4-14.3v-30.1h-8.7v-11.1h8.7v-14.5L370.3,469.2z M415.7,543.7c-8.9,0-15.7-2.6-20.6-8.1
	c-5-5.6-7.7-13.1-7.5-20.8v-2.2c-0.4-7.9,2.2-15.5,7.3-21.8c5-5.6,12.3-8.9,19.8-8.5c7.9,0,13.9,2.4,18.2,7.3
	c4.2,4.8,6.3,11.3,6.3,19.6v8.3H404l-0.2,0.4c0,3.6,1.4,7.1,3.6,9.9c2.6,2.6,6.1,4,9.7,3.8c3,0,6.1-0.4,9.1-1c2.6-0.8,5.2-2,7.7-3.2
	l4.2,9.9c-2.8,2.2-6.1,3.8-9.7,4.8C424.5,543.1,420.1,543.7,415.7,543.7L415.7,543.7z M414.7,494.9c-2.8-0.2-5.6,1-7.5,3.2
	c-1.8,2.6-3,5.6-3.2,8.7l0.2,0.2h19.4v-1.2c0.2-2.8-0.6-5.6-2.2-8.1C419.9,495.7,417.3,494.5,414.7,494.9L414.7,494.9z M480.4,526.1
	c0-1.8-1-3.4-2.6-4.4c-2.8-1.6-6.1-2.8-9.5-3.2c-5.6-0.8-11.1-3-15.7-6.3c-3.6-2.6-5.4-6.9-5.4-11.3c0-5,2.4-9.9,6.5-12.9
	c4.8-3.8,10.9-5.6,17.1-5.2c6.5-0.4,12.7,1.6,18,5.2c4.2,3,6.7,8.1,6.5,13.3l-0.2,0.4h-15.3c0-2.2-0.8-4.2-2.2-5.9
	c-3.6-2.8-8.9-3-12.7-0.4c-1.4,1.2-2.2,2.8-2.2,4.6c0,1.8,0.8,3.4,2.2,4.4c2.8,1.6,6.1,2.6,9.5,3c7.3,1.4,12.7,3.6,16.1,6.5
	c3.6,2.8,5.4,7.1,5.2,11.7c0,5.2-2.4,10.1-6.9,13.1c-5.2,3.6-11.5,5.4-18,5c-7.9,0-14.1-2-18.6-6.1c-4.2-3.2-6.7-8.3-6.5-13.5
	l0.2-0.4h14.5c-0.2,2.6,1,5.2,3,6.9c2.2,1.4,5,2.2,7.7,2.2c2.4,0.2,4.6-0.4,6.7-1.8C479.6,530,480.4,528.2,480.4,526.1L480.4,526.1z
	 M537.9,526.1c0-1.8-1-3.4-2.6-4.4c-2.8-1.6-6.1-2.8-9.5-3.2c-5.6-0.8-11.1-3-15.7-6.3c-3.6-2.6-5.4-6.9-5.4-11.3
	c0-5,2.4-9.9,6.5-12.9c4.8-3.8,10.9-5.6,17.1-5.2c6.5-0.4,12.7,1.6,18,5.2c4.2,3,6.7,8.1,6.5,13.3l-0.2,0.4h-15.3
	c0-2.2-0.8-4.2-2.2-5.9c-3.6-2.8-8.9-3-12.7-0.4c-1.4,1.2-2.2,2.8-2.2,4.6c0,1.8,0.8,3.4,2.2,4.4c2.8,1.6,6.1,2.6,9.5,3
	c7.3,1.4,12.7,3.6,16.1,6.5c3.6,2.8,5.4,7.1,5.2,11.7c0,5.2-2.4,10.1-6.9,13.1c-5.2,3.6-11.5,5.4-18,5c-7.9,0-14.1-2-18.6-6.1
	c-4.2-3.2-6.7-8.3-6.5-13.5l0.2-0.4H518c-0.2,2.6,1,5.2,3,6.9c2.2,1.4,5,2.2,7.7,2.2c2.4,0.2,4.6-0.4,6.7-1.8
	C537.1,530,538.1,528.2,537.9,526.1L537.9,526.1z"/>
<path class="st2" d="M428.4,297.8v-0.2l13.9-81.7L428.4,297.8z M529,215.6l-45.2,81.9l-85.5,155.1l0,0l85.5-155.1L529,215.6
	l49.4-89.8L529,215.6z M530.7,55.1l-14.5,26.6L530.7,55.1L530.7,55.1z M257.9,194.9l55.5-59.5L257.9,194.9z M269.8,216.5l61.3-48.6
	L269.8,216.5z"/>
<path class="st2" d="M269.8,216.5l-4-7.5L269.8,216.5l43.6,80.1l7.1,13.1l-7.1-13.1L269.8,216.5z M285.1,188.2l28.4-52.7l17.6,32.5
	l34.1,62.9L331.1,168l-17.6-32.5l-44-80.5l0,0l44,80.3C313.4,135.3,285.1,188.2,285.1,188.2z M412.8,318.5l0.2,0.4l8.3,15.1
	L412.8,318.5z M470.9,164l-28.6,51.8l-31.9,58.5l31.9-58.5L470.9,164z"/>
<path class="st0" d="M357,377l41.2,75.7l22.8-116.6L357,377z"/>
<path class="st3" d="M421.3,333.9l-8.3-15.1l-28.2-51.8l-27.8,110l64-41.2L421.3,333.9z"/>
<path class="st4" d="M313.4,296.5l7.1,13.1L357,377l27.8-110C384.8,267.1,313.4,296.5,313.4,296.5z"/>
<path class="st0" d="M313.4,296.5l71.4-29.5l-19.6-36.3l-34.1-62.9L313.4,296.5L313.4,296.5z"/>
<path class="st5" d="M428.4,297.8l13.9-81.9l-31.9,58.5l-10.9,20l13.1,24.2l8.5,15.5L428.4,297.8L428.4,297.8z"/>
<path class="st4" d="M269.8,216.5l43.6,80.1l17.8-128.7L269.8,216.5L269.8,216.5z"/>
<path class="st3" d="M483.9,297.4l45.2-81.9l-100.7,81.9H483.9z"/>
<path class="st6" d="M313.4,135.3L284.9,188l-15.1,28.4l61.3-48.6C331.1,167.8,313.4,135.3,313.4,135.3z M428.4,297.6L486.5,136
	l-15.5,28.2l-28.6,51.6L428.4,297.6z"/>
<path class="st7" d="M269.8,216.5l15.3-28.4l28.4-52.7l-55.5,59.5l0,0l7.7,14.1C265.8,209,269.8,216.5,269.8,216.5z"/>
<path class="st8" d="M529,215.6L486.3,136l-58.1,161.6L529,215.6z M257.9,194.9l55.5-59.5l-43.8-80.3l0,0L257.9,194.9
	C257.9,195.1,257.9,194.9,257.9,194.9z"/>
<path class="st4" d="M529,215.6l1.6-160.6l0,0l0,0l-14.5,26.6L486.5,136L529,215.6z M269.6,55.1h-87.4l75.7,139.8
	C257.9,195.1,269.6,55.1,269.6,55.1z"/>
<path class="st7" d="M530.7,55.1L530.7,55.1L529,215.6l49.4-89.8l38.9-70.8L530.7,55.1L530.7,55.1z M428.4,297.6v0.2l-7.1,36.3
	l-0.4,1.8l-22.8,116.6l0,0l85.5-155.1L428.4,297.6z"/>
</svg>
