<svg xmlns="http://www.w3.org/2000/svg" width="40" height="37" viewBox="0 0 40 37" fill="none">
  <g clip-path="url(#clip0_155_2380)">
    <path d="M22.5609 22.8962L22.5646 22.877L23.8188 15.468L22.5609 22.8962ZM31.6203 15.4504L27.5497 22.8728L19.8544 36.937L19.8548 36.9376L27.5515 22.871L31.6222 15.4496L36.0693 7.31086L31.6203 15.4504ZM31.7594 0.89209L30.4528 3.30124L31.7601 0.89209H31.7594ZM7.24634 13.5766L12.2366 8.17314L7.24634 13.5766ZM8.3086 15.5335L13.8196 11.1167L8.3086 15.5335ZM8.3086 15.5335L7.93884 14.8534L8.30772 15.5335L12.2288 22.7954L12.8654 23.9799L12.2283 22.7939L8.3086 15.5335ZM9.6834 12.9574L12.2366 8.17314L13.8196 11.1167L16.8889 16.829L13.8213 11.1159L12.2371 8.17079L8.29108 0.89209H8.29019L12.2366 8.17314L9.6834 12.9574ZM21.17 24.7805L21.1881 24.8142L21.927 26.1846L21.17 24.7805Z" fill="#284E64"/>
    <path d="M26.386 10.7751L23.8175 15.4663L20.9604 20.7744L23.8188 15.4679L26.386 10.7751Z" fill="#284E64"/>
    <path d="M16.1453 30.0843L19.8538 36.9386L21.8947 26.3525L16.1453 30.0843Z" fill="#F16827"/>
    <path d="M21.9271 26.1846L21.1882 24.8142L18.655 20.1156L16.1453 30.0843L21.8947 26.3525L21.9271 26.1846Z" fill="#F48029"/>
    <path d="M12.2283 22.7939L12.8654 23.9799L16.1452 30.0843L18.6549 20.1156L12.2283 22.7939Z" fill="#F89A2E"/>
    <path d="M12.2283 22.7937L18.6549 20.1155L16.8889 16.8288L13.8196 11.1166L12.2283 22.7937Z" fill="#F16827"/>
    <path d="M22.561 22.8961L23.8189 15.4679L20.9605 20.7744L19.9858 22.5839L21.1701 24.7804L21.927 26.1845L22.561 22.8961Z" fill="#F89921"/>
    <path d="M8.30872 15.5334L12.2284 22.7937L13.8197 11.1166L8.30872 15.5334Z" fill="#F89A2E"/>
    <path d="M27.5497 22.8727L31.6203 15.4503L22.5646 22.8769L27.5497 22.8727Z" fill="#F48029"/>
    <path d="M12.2367 8.1731L9.68352 12.9574L8.30872 15.5335L13.8197 11.1167L12.2367 8.1731ZM22.5647 22.877L27.7832 8.2211L26.3861 10.7752L23.8189 15.4679L22.5647 22.877Z" fill="#F4AE5C"/>
    <path d="M8.30862 15.5335L9.68342 12.9574L12.2366 8.1731L7.24636 13.5765L7.24536 13.5776L7.93886 14.8534L8.30862 15.5335Z" fill="#CD4E27"/>
    <path d="M31.6203 15.4503L27.7831 8.22106L22.5646 22.8769L31.6203 15.4503ZM7.24636 13.5765L12.2366 8.17305L8.29021 0.891998L8.28977 0.890991L7.24536 13.5776L7.24636 13.5765Z" fill="#F16938"/>
    <path d="M31.6204 15.4503L31.7606 0.891998V0.890991L31.7601 0.891998L30.4529 3.30115L27.7831 8.22106L31.6204 15.4503ZM8.28983 0.890991H0.438965L7.24542 13.5776L8.28983 0.890991Z" fill="#F89A2E"/>
    <path d="M31.7606 0.890991V0.891998L31.6204 15.4503L36.0694 7.31077L39.5784 0.890991H31.7606ZM22.5647 22.8769L22.561 22.8961L21.9271 26.1845L21.8947 26.3525L19.8538 36.9385L19.8545 36.937L27.5498 22.8727L22.5647 22.8769Z" fill="#CD4E27"/>
  </g>
  <defs>
    <clipPath id="clip0_155_2380">
      <rect width="40" height="37" fill="white"/>
    </clipPath>
  </defs>
</svg>