<svg xmlns="http://www.w3.org/2000/svg" width="40" height="40" viewBox="0 0 40 40" fill="none">
  <g clip-path="url(#clip0_141_690)">
    <path d="M0 0H40V40H0V0Z" fill="url(#paint0_linear_141_690)"/>
    <path d="M17.25 6.99641C22.4066 6.99641 26 8.57172 26 9.98562C26 11.3997 22.4066 12.9748 17.25 12.9748C12.0934 12.9748 8.5 11.3995 8.5 9.98578C8.5 8.57172 12.0934 6.99641 17.25 6.99641ZM17.1475 33.5036C12.0516 33.5036 8.5 31.8939 8.5 30.4495V26.1062C10.0605 27.4125 13.2359 28.2694 17.0805 28.2694C17.9665 28.2693 18.8518 28.2206 19.7325 28.1234L19.622 27.133C18.785 27.2256 17.9295 27.273 17.0805 27.273C12.323 27.273 8.915 25.862 8.5 24.4964V19.1277C10.0605 20.4341 13.2359 21.2905 17.0805 21.2905C17.9855 21.2905 18.8784 21.2406 19.7345 21.142L19.62 20.1527C18.8016 20.2467 17.9475 20.2941 17.0805 20.2941C12.323 20.2941 8.915 18.8836 8.5 17.5181V11.7772C9.93953 13.0062 12.9091 13.9714 17.25 13.9714C21.5909 13.9714 24.5605 13.0062 26 11.7772V13.4731H27V9.98562C27 8.05359 23.583 6 17.25 6C10.917 6 7.5 8.05359 7.5 9.98562V30.4497C7.5 32.7583 11.6475 34.5 17.1475 34.5C21.565 34.5 25.2959 33.3347 26.4316 31.6009L25.5934 31.0564C24.7975 32.2725 21.6405 33.5036 17.1475 33.5036ZM29.1034 21.0838C29.385 21.0838 29.6334 21.1958 29.803 21.4002C30.115 21.7737 30.0645 22.3397 30.0341 22.54C30.0484 23.5931 30.63 23.7991 30.6975 23.8194C30.9125 23.8842 31.0641 24.0859 31.0584 24.31C31.053 24.5344 30.9045 24.7287 30.6859 24.783C30.6295 24.8003 30.0334 25.0111 30.0334 26.0983C30.045 26.6845 29.7634 27.3348 29.1184 27.3542H28.7345V26.3578H28.9986C29.0184 26.2916 29.0341 26.1875 29.0334 26.1052C29.0334 25.1959 29.3384 24.6375 29.6645 24.3002C29.3384 23.9634 29.0334 23.4064 29.0334 22.5006C29.0334 22.4703 29.0366 22.4394 29.042 22.4095C29.0609 22.3023 29.0609 22.1619 29.045 22.0802H28.7345V21.0838H29.1034ZM26.7634 21.0838H27.148V22.0802H26.8845C26.8613 22.1624 26.8494 22.2474 26.8491 22.3328C26.8491 23.242 26.5444 23.8005 26.2184 24.1378C26.5445 24.4745 26.8491 25.0316 26.8491 25.9373C26.8491 25.9681 26.8459 25.9986 26.8409 26.0284C26.822 26.1356 26.822 26.2761 26.838 26.3578H27.148V27.3542H26.7791C26.4975 27.3542 26.2491 27.242 26.0791 27.0383C25.7675 26.6647 25.8184 26.0987 25.8484 25.898C25.8344 24.8452 25.2525 24.6389 25.185 24.6191C24.9694 24.5537 24.8184 24.3519 24.8234 24.1278C24.8291 23.9041 24.9781 23.7094 25.1966 23.655C25.2534 23.6375 25.8491 23.4269 25.8491 22.3397C25.8375 21.7537 26.1184 21.1031 26.7634 21.0838ZM32 29.4158H23.5V17.4587H29V19.4516C29 19.7266 29.2234 19.9498 29.5 19.9498H32V29.4158ZM30 17.4587H30.1225L31.6341 18.9534H30V17.4587ZM32.852 18.7541L30.6805 16.6069C30.5868 16.5141 30.4603 16.4621 30.3284 16.4623H29.8175L28.2741 14.6459C28.227 14.5906 28.1684 14.5462 28.1024 14.5157C28.0365 14.4853 27.9647 14.4695 27.892 14.4695H21C20.7234 14.4695 20.5 14.6928 20.5 14.9678V27.9211C20.5 28.1961 20.7234 28.4194 21 28.4194H22V27.423H21.5V15.4659H27.66L28.5069 16.4623H23C22.7234 16.4623 22.5 16.6856 22.5 16.9606V29.9141C22.5 30.1891 22.7234 30.4122 23 30.4122H32.5C32.7766 30.4122 33 30.1891 33 29.9141V19.1078C33 19.042 32.9869 18.9768 32.9615 18.9161C32.9361 18.8554 32.8989 18.8003 32.852 18.7541Z" fill="white"/>
  </g>
  <defs>
    <linearGradient id="paint0_linear_141_690" x1="0" y1="4000" x2="4000" y2="0" gradientUnits="userSpaceOnUse">
      <stop stop-color="#2E27AD"/>
      <stop offset="1" stop-color="#527FFF"/>
    </linearGradient>
    <clipPath id="clip0_141_690">
      <rect width="40" height="40" fill="white"/>
    </clipPath>
  </defs>
</svg>