<svg xmlns="http://www.w3.org/2000/svg" width="40" height="40" viewBox="0 0 40 40" fill="none">
  <g filter="url(#filter0_f_155_2516)">
    <path d="M12.4491 31.5462L12.9593 31.8479C15.1022 33.1173 17.5593 33.7887 20.065 33.7899H20.0703C27.7652 33.7899 34.0277 27.5408 34.0309 19.8601C34.0322 16.1381 32.5815 12.6381 29.9456 10.0052C28.6528 8.7068 27.1148 7.67719 25.4207 6.97601C23.7265 6.27483 21.9098 5.916 20.0758 5.9203C12.3749 5.9203 6.11219 12.1687 6.10945 19.8489C6.10566 22.4715 6.8456 25.0416 8.24373 27.2621L8.57589 27.7889L7.16529 32.9288L12.4491 31.5462ZM3.13232 36.9108L5.51544 28.2264C4.04571 25.6849 3.27249 22.8017 3.27341 19.8478C3.27729 10.607 10.8118 3.08923 20.0705 3.08923C24.5635 3.09151 28.7807 4.83664 31.9523 8.00447C35.1239 11.1723 36.869 15.383 36.8674 19.8612C36.8633 29.1014 29.3277 36.6205 20.0703 36.6205H20.063C17.252 36.6194 14.49 35.9155 12.0365 34.5803L3.13232 36.9108Z" fill="#B3B3B3"/>
  </g>
  <path d="M2.95996 36.7385L5.34308 28.0542C3.87082 25.5065 3.09749 22.6166 3.10104 19.6756C3.10492 10.4348 10.6394 2.91699 19.8981 2.91699C24.3911 2.91927 28.6083 4.66439 31.7799 7.83223C34.9516 11.0001 36.6966 15.2108 36.695 19.689C36.6909 28.9291 29.1553 36.4483 19.8979 36.4483H19.8906C17.0797 36.4471 14.3176 35.7433 11.8642 34.4081L2.95996 36.7385Z" fill="white"/>
  <path d="M19.9032 5.74809C12.2023 5.74809 5.93964 11.9965 5.9369 19.6767C5.93311 22.2993 6.67305 24.8694 8.07118 27.0899L8.40335 27.6169L6.99274 32.7568L12.2767 31.374L12.787 31.6757C14.9299 32.945 17.387 33.6163 19.8927 33.6177H19.898C27.5929 33.6177 33.8556 27.3686 33.8586 19.6879C33.8644 17.8572 33.5063 16.0436 32.8051 14.352C32.1038 12.6604 31.0733 11.1244 29.7733 9.83303C28.4805 8.53456 26.9424 7.50493 25.2482 6.80375C23.554 6.10256 21.7373 5.74375 19.9032 5.74809Z" fill="url(#paint0_linear_155_2516)"/>
  <path fill-rule="evenodd" clip-rule="evenodd" d="M15.7 12.6692C15.3854 11.9718 15.0544 11.9577 14.7555 11.9456L13.951 11.9358C13.6712 11.9358 13.2164 12.0406 12.832 12.4599C12.4475 12.8791 11.3629 13.8924 11.3629 15.9533C11.3629 18.0142 12.8669 20.0057 13.0765 20.2855C13.286 20.5653 15.9798 24.9293 20.2459 26.6084C23.791 28.0037 24.5124 27.7262 25.2822 27.6565C26.052 27.5868 27.7653 26.6432 28.1148 25.6651C28.4643 24.6869 28.4646 23.8488 28.3598 23.6736C28.255 23.4984 27.9751 23.3943 27.555 23.1847C27.135 22.975 25.0719 21.9618 24.6873 21.8219C24.3026 21.682 24.0229 21.6125 23.7428 22.0317C23.4627 22.451 22.6594 23.394 22.4144 23.6736C22.1695 23.9532 21.925 23.9883 21.5049 23.7789C21.0849 23.5695 19.7334 23.127 18.1299 21.7C16.8823 20.5896 16.0401 19.2184 15.7949 18.7994C15.5497 18.3804 15.7689 18.1534 15.9794 17.9447C16.1677 17.757 16.399 17.4555 16.6092 17.211C16.8195 16.9666 16.8887 16.7918 17.0284 16.5127C17.1681 16.2335 17.0985 15.9884 16.9935 15.779C16.8884 15.5696 16.073 13.4977 15.7 12.6692Z" fill="white"/>
  <defs>
    <filter id="filter0_f_155_2516" x="2.43232" y="2.38923" width="35.1351" height="35.2215" filterUnits="userSpaceOnUse" color-interpolation-filters="sRGB">
      <feFlood flood-opacity="0" result="BackgroundImageFix"/>
      <feBlend mode="normal" in="SourceGraphic" in2="BackgroundImageFix" result="shape"/>
      <feGaussianBlur stdDeviation="0.35" result="effect1_foregroundBlur_155_2516"/>
    </filter>
    <linearGradient id="paint0_linear_155_2516" x1="19.6135" y1="7.42052" x2="19.7545" y2="31.2368" gradientUnits="userSpaceOnUse">
      <stop stop-color="#57D163"/>
      <stop offset="1" stop-color="#23B33A"/>
    </linearGradient>
  </defs>
</svg>