<?xml version="1.0" standalone="no"?>
<!DOCTYPE svg PUBLIC "-//W3C//DTD SVG 20010904//EN"
 "http://www.w3.org/TR/2001/REC-SVG-20010904/DTD/svg10.dtd">
<svg version="1.0" xmlns="http://www.w3.org/2000/svg"
 width="128.000000pt" height="128.000000pt" viewBox="0 0 128.000000 128.000000"
 preserveAspectRatio="xMidYMid meet">

<g transform="translate(0.000000,128.000000) scale(0.100000,-0.100000)"
fill="#000000" stroke="none">
<path d="M167 914 l-158 -276 107 -186 c59 -103 130 -226 158 -274 l50 -88
317 0 317 0 157 271 c100 175 154 277 150 288 -3 9 -74 134 -157 279 l-152
262 -315 0 -316 0 -158 -276z m731 -7 l72 -72 0 -224 c0 -243 -6 -277 -56
-300 -17 -7 -111 -11 -280 -11 l-256 0 -29 29 -29 29 0 277 c0 179 4 283 11
296 22 41 62 48 284 49 l211 0 72 -73z"/>
<path d="M382 908 c-14 -14 -17 -514 -4 -536 7 -9 67 -12 268 -10 l259 3 3
222 2 222 -52 3 -53 3 -3 53 -3 52 -203 0 c-144 0 -205 -3 -214 -12z m216
-121 c2 -59 6 -77 17 -77 8 0 15 -9 15 -20 0 -18 -7 -20 -60 -20 -48 0 -60 3
-60 16 0 9 9 18 20 21 17 5 20 14 20 61 0 44 -3 53 -12 44 -17 -17 -28 -15
-28 6 0 20 47 53 70 49 12 -2 16 -20 18 -80z m163 64 c20 -16 24 -28 24 -79 0
-71 -21 -102 -68 -102 -50 0 -67 24 -67 96 0 56 3 65 26 83 33 26 55 26 85 2z
m-145 -262 c26 -29 26 -129 0 -158 -26 -29 -80 -28 -100 1 -24 34 -21 133 4
158 26 26 72 26 96 -1z m132 -62 c2 -59 6 -77 17 -77 8 0 15 -9 15 -20 0 -18
-7 -20 -60 -20 -53 0 -60 2 -60 20 0 13 7 20 20 20 18 0 20 7 20 54 0 49 -2
54 -20 49 -31 -8 -25 24 8 41 49 27 57 19 60 -67z"/>
<path d="M696 815 c-10 -28 -7 -80 7 -99 12 -16 14 -16 26 -3 18 23 11 111
-10 115 -9 2 -19 -4 -23 -13z"/>
<path d="M546 555 c-9 -24 -7 -78 3 -94 5 -8 16 -11 26 -8 23 9 18 110 -6 115
-9 2 -19 -4 -23 -13z"/>
</g>
</svg>
