<svg xmlns="http://www.w3.org/2000/svg" width="40" height="40" viewBox="0 0 40 40" fill="none">
  <path d="M37.2331 2.76611H0V40H37.2331V2.76611Z" fill="#625EFF" fill-opacity="0.2"/>
  <path d="M40 0H2.76688V37.2339H40V0Z" fill="#625EFF"/>
  <path d="M16.8523 23.1475C16.5741 22.8694 16.123 22.8694 15.8448 23.1475L8.29436 30.6984C8.01622 30.9765 8.01622 31.4278 8.29436 31.7059C8.43323 31.8449 8.61581 31.9144 8.79814 31.9144C8.98038 31.9144 9.16263 31.8449 9.30187 31.7059L16.8523 24.1535C17.1304 23.8753 17.1304 23.4247 16.8523 23.1475Z" fill="white"/>
  <path d="M10.5616 25.4126L15.5784 20.3957C15.8564 20.1176 15.8564 19.6663 15.5784 19.3883C15.3002 19.1101 14.8505 19.1101 14.5725 19.3883L9.55566 24.4051C9.27759 24.6832 9.27759 25.1344 9.55566 25.4126C9.69458 25.5515 9.87657 25.6211 10.0588 25.6211C10.2411 25.6211 10.4226 25.5515 10.5616 25.4126Z" fill="white"/>
  <path d="M19.6033 24.4224L14.5865 29.4408C14.3084 29.718 14.3084 30.1692 14.5865 30.4467C14.7254 30.5857 14.9074 30.6552 15.0896 30.6552C15.2719 30.6552 15.4532 30.5857 15.5924 30.4467L20.6108 25.4299C20.8889 25.1518 20.8889 24.7005 20.6108 24.4224C20.3326 24.1443 19.8811 24.1443 19.6033 24.4224Z" fill="white"/>
  <path d="M20.6516 8.61815L22.8907 16.9856C22.9286 17.1269 23.0029 17.2557 23.1063 17.3591C23.2098 17.4626 23.3387 17.537 23.4799 17.5749L31.8472 19.814C31.9876 19.8516 32.1355 19.8519 32.2761 19.8147C32.4167 19.7774 32.5451 19.7041 32.6485 19.6019C32.7528 19.4985 32.8279 19.3693 32.8661 19.2275C32.9044 19.0858 32.9046 18.9365 32.8665 18.7946L30.6216 10.4331C30.5837 10.2918 30.5093 10.163 30.4059 10.0595C30.3024 9.95606 30.1736 9.88173 30.0323 9.84381L21.6709 7.59877C21.5291 7.56077 21.3798 7.56091 21.238 7.5992C21.0962 7.63748 20.9671 7.71255 20.8637 7.81679C20.7615 7.92025 20.6881 8.04865 20.6509 8.18924C20.6137 8.32982 20.614 8.47773 20.6516 8.61815ZM29.1131 11.3523L30.8808 17.8341L24.3991 16.0664L22.6314 9.58456L29.1131 11.3523ZM29.8968 20.5859L22.0422 18.4234L19.9032 10.5451C19.8749 10.4388 19.8259 10.3392 19.759 10.2521C19.6921 10.1649 19.6085 10.0918 19.5133 10.0371C19.4179 9.98223 19.3128 9.94689 19.2037 9.93298C19.0947 9.91898 18.984 9.92673 18.8779 9.95581C18.6659 10.0142 18.4854 10.1543 18.3762 10.3452C18.2669 10.5362 18.2375 10.7626 18.2946 10.9752L20.5337 19.3426C20.5716 19.4839 20.646 19.6127 20.7494 19.7162C20.8528 19.8196 20.9817 19.894 21.123 19.9319L29.4902 22.171C29.7027 22.2281 29.9292 22.1988 30.1202 22.0894C30.3111 21.9802 30.4511 21.7998 30.5096 21.5877C30.5387 21.4816 30.5464 21.3709 30.5324 21.2619C30.5185 21.1529 30.4832 21.0477 30.4283 20.9524C30.3736 20.8571 30.3005 20.7735 30.2133 20.7066C30.1262 20.6397 30.0266 20.5906 29.9203 20.5624L29.8968 20.5859ZM27.5398 22.9429L19.6852 20.7804L17.5463 12.9021C17.518 12.7958 17.469 12.6963 17.402 12.6091C17.3351 12.5219 17.2516 12.4488 17.1563 12.3941C17.061 12.3393 16.9558 12.3039 16.8467 12.29C16.7377 12.2761 16.627 12.2838 16.521 12.3128C16.3089 12.3713 16.1285 12.5113 16.0192 12.7023C15.9099 12.8932 15.8806 13.1197 15.9377 13.3322L18.1768 21.6996C18.2146 21.8409 18.289 21.9698 18.3924 22.0732C18.4959 22.1766 18.6247 22.251 18.766 22.2889L27.1332 24.528C27.3457 24.5851 27.5722 24.5558 27.7631 24.4464C27.9541 24.3372 28.0941 24.1568 28.1526 23.9447C28.1816 23.8387 28.1894 23.7279 28.1755 23.6189C28.1615 23.5099 28.1261 23.4047 28.0714 23.3094C28.0166 23.2141 27.9436 23.1306 27.8564 23.0636C27.7691 22.9967 27.6696 22.9477 27.5634 22.9194L27.5398 22.9429Z" fill="white"/>
</svg>