<?xml version="1.0" encoding="UTF-8" standalone="no"?>
<!-- Generator: Adobe Illustrator 19.2.1, SVG Export Plug-In . SVG Version: 6.00 Build 0)  -->

<svg
   version="1.1"
   id="layer"
   x="0px"
   y="0px"
   viewBox="0 0 600 114"
   xml:space="preserve"
   sodipodi:docname="Teradata_logo_2018.svg"
   width="600"
   height="114"
   inkscape:version="1.1.1 (3bf5ae0d25, 2021-09-20)"
   xmlns:inkscape="http://www.inkscape.org/namespaces/inkscape"
   xmlns:sodipodi="http://sodipodi.sourceforge.net/DTD/sodipodi-0.dtd"
   xmlns="http://www.w3.org/2000/svg"
   xmlns:svg="http://www.w3.org/2000/svg"><defs
   id="defs61" /><sodipodi:namedview
   id="namedview59"
   pagecolor="#ffffff"
   bordercolor="#666666"
   borderopacity="1.0"
   inkscape:pageshadow="2"
   inkscape:pageopacity="0.0"
   inkscape:pagecheckerboard="0"
   showgrid="false"
   inkscape:zoom="1.8082822"
   inkscape:cx="304.43257"
   inkscape:cy="62.21374"
   inkscape:window-width="2560"
   inkscape:window-height="1387"
   inkscape:window-x="1912"
   inkscape:window-y="-8"
   inkscape:window-maximized="1"
   inkscape:current-layer="layer" />
<style
   type="text/css"
   id="style36">
	.st0{fill:#3D4952;}
	.st1{fill:#F06F37;}
</style>
<g
   id="g56"
   transform="translate(-21.5,-263.8)">
	<path
   class="st0"
   d="M 150.3,340.7 H 89 c 2.1,11.6 10.3,18.7 20.2,18.7 6.3,0 14.2,-0.8 20,-10.7 l 19,4 c -7.1,16.8 -21.5,24.9 -39.1,24.9 -22.8,0 -41.3,-17.3 -41.3,-42.6 0,-25.3 18.6,-42.8 41.6,-42.8 21.5,0 40,16.6 40.8,41.2 v 7.3 z m -60.7,-15 h 38.9 c -2.7,-10.3 -10.5,-14.9 -19,-14.9 -8.1,0.1 -17.3,4.9 -19.9,14.9"
   id="path38" />
	<path
   class="st0"
   d="m 377.6,375.3 h -21.3 v -6.9 c -6.5,6 -15.3,9.4 -26.6,9.4 -20.5,0 -39.5,-17.3 -39.5,-42.6 0,-25.3 19,-42.8 39.5,-42.8 11.3,0 20.2,3.4 26.6,9.4 v -38 h 21.3 z m -21.3,-40.2 c 0,-14.9 -11.5,-24.2 -22.9,-24.2 -12.9,0 -22.6,9.4 -22.6,24.2 0,14.9 9.7,24 22.6,24 11.5,0 22.9,-9.2 22.9,-24"
   id="path40" />
	<path
   class="st0"
   d="m 551.9,294.9 v 0 h -29.4 v 17.8 h 29.4 c 8.2,0 13.7,3.5 13.7,11.6 v 1.3 h -23.2 c -20.3,0 -32,10.3 -32,25.8 0,15.8 12.3,26.3 30.7,26.3 11,0 19,-3.7 24.5,-9 v 6.6 H 586 v -52.6 c 0,-19.2 -13.5,-27.4 -34.1,-27.8 m 13.7,47.8 c 0,10.3 -9.8,18.1 -21.1,18.1 -8.2,0 -13.7,-3.9 -13.7,-9.8 0,-5.5 4.5,-9.2 11.3,-9.2 h 23.6 v 0.9 z"
   id="path42" />
	<path
   class="st0"
   d="m 426,294.9 v 0 h -29.4 v 17.8 H 426 c 8.2,0 13.7,3.5 13.7,11.6 v 1.3 h -23.2 c -20.3,0 -32,10.3 -32,25.8 0,15.8 12.3,26.3 30.7,26.3 11,0 19,-3.7 24.5,-9 v 6.6 H 460 v -52.6 c 0,-19.2 -13.5,-27.4 -34,-27.8 m 13.7,47.8 c 0,10.3 -9.8,18.1 -21.1,18.1 -8.2,0 -13.7,-3.9 -13.7,-9.8 0,-5.5 4.5,-9.2 11.3,-9.2 h 23.6 v 0.9 z"
   id="path44" />
	<path
   class="st0"
   d="m 248.9,294.9 v 0 h -29.4 v 17.8 h 29.4 c 8.2,0 13.7,3.5 13.7,11.6 v 1.3 h -23.2 c -20.3,0 -32,10.3 -32,25.8 0,15.8 12.3,26.3 30.7,26.3 11,0 19,-3.7 24.5,-9 v 6.6 H 283 v -52.6 c 0,-19.2 -13.5,-27.4 -34.1,-27.8 m 13.7,47.8 c 0,10.3 -9.8,18.1 -21.1,18.1 -8.2,0 -13.7,-3.9 -13.7,-9.8 0,-5.5 4.5,-9.2 11.3,-9.2 h 23.6 v 0.9 z"
   id="path46" />
	<path
   class="st0"
   d="m 208.1,294.8 c -13.1,0 -22.4,5.2 -28.9,14.6 v -14.7 h -21.3 v 80.5 h 21.3 v -26 c 0,-22.4 9,-36.5 28.7,-36.5 h 1 v -17.9 c -0.3,0 -0.5,0 -0.8,0"
   id="path48" />
	<path
   class="st0"
   d="m 63.8,355.8 c -3.2,1.2 -6.6,2 -9.2,2 -7.1,0 -11.8,-4.2 -11.8,-13.9 V 312.1 H 64.6 V 294.7 H 42.8 V 275 H 21.5 v 37.2 33.4 c 0,22.1 12.6,32.1 31.6,32.1 6.7,0 13.2,-1.4 21.4,-5.9 -4.3,-4.4 -8.4,-9.8 -10.7,-16"
   id="path50" />
	<path
   class="st0"
   d="m 503.7,357.6 c -0.9,0.1 -1.7,0.2 -2.4,0.2 -7.1,0 -11.8,-4.2 -11.8,-13.9 v -31.8 h 22.4 V 294.7 H 489.5 V 275 h -21.3 v 37.2 33.4 c 0,22.1 12.6,32.1 31.6,32.1 4.7,0 8.8,-0.7 13.7,-2.6 -6.3,-4.5 -8.7,-11.9 -9.8,-17.5"
   id="path52" />
	<path
   class="st1"
   d="m 621.5,363 c 0,7.6 -5.8,13.5 -14,13.5 -8.1,0 -14,-5.8 -14,-13.5 0,-7.3 5.8,-13.6 14,-13.6 8.2,0 14,6.4 14,13.6"
   id="path54" />
</g>
</svg>
