<svg xmlns="http://www.w3.org/2000/svg" viewBox="0 0 256.9 56.3"><defs><style>.cls-1{fill:#00af6d;}.cls-2{fill:#2c263f;}</style></defs><title>MindsDBMindsDBGrizPurp</title><g id="_Regular_Sticker" data-name="Regular Sticker"><path class="cls-1" d="M83.4,26.71a3.49,3.49,0,0,1-.29.39c-4.56,3.84-4.56,3.83-10.24,2-3.24-1.05-6.51-2-9.73-3.15a3,3,0,0,0-2.87.29c-3.32,2.07-6.65,4.14-10,6.16a2.86,2.86,0,0,0-1.41,2.28c-.69,4.59-1.48,9.17-2.18,13.76-.16,1.09-.65,1.39-1.72,1.43-6.54.26-6.55.29-6.48-6.27,0-2.62,0-5.24.13-7.86,0-1.2-.35-1.67-1.61-1.7-6-.14-12.08-.33-18.11-.61-1.35-.07-1.55.66-1.77,1.61-1,4.45-2.15,8.89-3.08,13.36-.25,1.22-.73,1.44-1.86,1.43-5.73,0-5.73,0-5.68-5.84s.13-11.5.15-17.25a5.32,5.32,0,0,1,1-3.24c3.63-5.18,7.24-10.38,10.76-15.63a2.68,2.68,0,0,1,2.86-1.35c8.6,1,17.21,1.86,25.81,2.79,3.1.34,6.2.87,9.31,1a9.56,9.56,0,0,1,5,1.82C68.08,16.6,74.84,21,81.57,25.43,82.17,25.82,82.75,26.25,83.4,26.71Z"/><path class="cls-1" d="M61,28.85c.85,7.09,1.6,13.66,2.45,20.2.15,1.17,0,1.52-1.26,1.57-4.76.21-4.76.25-6.48-4.12a17,17,0,0,0-1.18-3c-2.24-3.53-1.4-6.33,1.57-9A61.43,61.43,0,0,0,61,28.85Z"/><path class="cls-1" d="M29.86,34.9c.93,4.8,1.77,9.24,2.67,13.67.24,1.15-.27,1.24-1.14,1-.5-.1-1-.22-1.49-.28-4.82-.56-4.78-.57-6-5.2a2.84,2.84,0,0,1,.8-3C26.48,39.23,28,37.16,29.86,34.9Z"/><path class="cls-2" d="M120.05,38.41V48.83a.37.37,0,0,1-.43.42H118.2a.37.37,0,0,1-.42-.42V38.41c0-4.17-1.85-6.58-5.78-6.58-3.6,0-5.77,2-5.77,6.39V48.83a.38.38,0,0,1-.43.42h-1.42a.38.38,0,0,1-.43-.42V38.27c-.14-4.17-2.32-6.44-5.77-6.44-3.93,0-5.78,2.41-5.78,6.58V48.83a.37.37,0,0,1-.42.42H90.56a.37.37,0,0,1-.43-.42V38.41c0-5.68,3.17-8.66,8.05-8.66,3.17,0,5.58,1.27,6.91,3.74,1.28-2.47,3.74-3.74,6.91-3.74C116.88,29.75,120.05,32.73,120.05,38.41Z"/><path class="cls-2" d="M127.72,22.27a1.94,1.94,0,0,1,2,2,2,2,0,0,1-2,2,1.89,1.89,0,0,1-2-2A1.94,1.94,0,0,1,127.72,22.27Zm1.13,26.56a.37.37,0,0,1-.42.42H127a.37.37,0,0,1-.43-.42V30.74a.38.38,0,0,1,.43-.43h1.42a.38.38,0,0,1,.42.43Z"/><path class="cls-2" d="M137.66,39.22v9.61a.37.37,0,0,1-.43.42h-1.42a.37.37,0,0,1-.42-.42V39.22c0-6.3,3.74-9.47,9-9.47s9,3.17,9,9.47v9.61a.38.38,0,0,1-.43.42h-1.42a.37.37,0,0,1-.43-.42V39.22c0-6-3.93-7.39-6.72-7.39S137.66,33.2,137.66,39.22Z"/><path class="cls-2" d="M175.77,33.58v-17a.37.37,0,0,1,.42-.43h1.42a.38.38,0,0,1,.43.43v23.2c0,6.24-4.31,10.08-9.85,10.08s-9.84-3.93-9.84-10,4.11-10,9.65-10C171.17,29.75,173.92,30.79,175.77,33.58Zm0,6.2c0-4.92-2.84-8-7.58-8s-7.57,3.08-7.57,8c0,4.64,2.84,7.91,7.57,7.91S175.77,44.42,175.77,39.78Z"/><path class="cls-2" d="M185.66,44.75c.19-.09.38,0,.57.24a5.92,5.92,0,0,0,5.16,2.79c2.13,0,5.54-.61,5.54-3.5,0-2.41-2.51-2.84-5.49-3.5-3.27-.62-7.2-1.38-7.2-5.3,0-4.08,3.88-5.73,7.67-5.73,3,0,5.73.94,7.1,4.12.09.23,0,.37-.24.52l-1.13.42c-.19.14-.43,0-.57-.23-1.14-2.23-3.13-2.7-5.07-2.75s-5.44.47-5.44,3.69c0,2.18,2.46,2.61,5.35,3.22,3.36.62,7.29,1.85,7.29,5.45,0,4.21-4,5.63-7.76,5.63-2.94,0-6.11-1.23-7.11-4.07a.44.44,0,0,1,.24-.57Z"/><path class="cls-2" d="M221.83,33.58v-17a.37.37,0,0,1,.42-.43h1.42a.38.38,0,0,1,.43.43v23.2c0,6.24-4.31,10.08-9.85,10.08s-9.84-3.93-9.84-10,4.11-10,9.65-10C217.23,29.75,220,30.79,221.83,33.58Zm0,6.2c0-4.92-2.84-8-7.58-8s-7.57,3.08-7.57,8c0,4.64,2.84,7.91,7.57,7.91S221.83,44.42,221.83,39.78Z"/><path class="cls-2" d="M250.42,39.78c0,6.11-4.31,10-9.85,10s-9.84-3.84-9.84-10.08V16.54a.37.37,0,0,1,.42-.43h1.42a.38.38,0,0,1,.43.43v17a9,9,0,0,1,7.76-3.78C246.3,29.75,250.42,33.53,250.42,39.78Zm-2.27,0c0-4.92-2.84-8-7.58-8s-7.57,3.08-7.57,8c0,4.64,2.84,7.91,7.57,7.91S248.15,44.42,248.15,39.78Z"/></g></svg>