<?xml version="1.0" standalone="no"?>
<!DOCTYPE svg PUBLIC "-//W3C//DTD SVG 1.1//EN" "http://www.w3.org/Graphics/SVG/1.1/DTD/svg11.dtd">
<svg xmlns="http://www.w3.org/2000/svg">
<defs >
<font id="OpenSans" horiz-adv-x="1159" ><font-face
    font-family="Open Sans Light"
    units-per-em="2048"
    panose-1="2 11 3 6 3 5 4 2 2 4"
    ascent="2189"
    descent="-600"
    alphabetic="0" />
<glyph unicode=" " glyph-name="space" horiz-adv-x="532" />
<glyph unicode="!" glyph-name="exclam" horiz-adv-x="492" d="M276 377H215L186 1462H305L276 377ZM164 78Q164 176 244 176Q326 176 326 78Q326 -20 244 -20Q164 -20 164 78Z" />
<glyph unicode="&quot;" glyph-name="quotedbl" horiz-adv-x="723" d="M260 1462L227 934H166L133 1462H260ZM590 1462L557 934H496L463 1462H590Z" />
<glyph unicode="#" glyph-name="numbersign" horiz-adv-x="1323" d="M967 928L891 530H1194V451H874L788 0H698L786 451H426L340 0H252L338 451H55V530H354L430 928H133V1008H444L530 1462H621L532 1008H897L985 1462H1071L983 1008H1268V928H967ZM440 530H803L881
928H518L440 530Z" />
<glyph unicode="$" glyph-name="dollar" horiz-adv-x="1169" d="M991 440Q991 307 892 223T618 117V-119H537V113Q445 115 337 135T164 186V289Q239 253 343 228T537 203V711Q392 755 322 799T220 903T188 1049Q188 1173 282 1257T537 1362V1554H618V1364Q815
1355 969 1292L936 1202Q795 1264 618 1274V788Q831 722 911 644T991 440ZM881 444Q881 529 818 584T618 680V209Q740 222 810 284T881 444ZM297 1049Q297 963 354 908T537 815V1268Q418 1252 358 1192T297 1049Z" />
<glyph unicode="%" glyph-name="percent" horiz-adv-x="1653" d="M211 1026Q211 840 256 747T397 653Q590 653 590 1026Q590 1210 541 1302T397 1395Q301 1395 256 1303T211 1026ZM688 1026Q688 800 613 683T397 565Q264 565 189 685T113 1026Q113 1249 185 1366T397
1483Q536 1483 612 1363T688 1026ZM1063 438Q1063 253 1108 161T1249 68Q1442 68 1442 438Q1442 807 1249 807Q1153 807 1108 716T1063 438ZM1540 438Q1540 212 1466 95T1251 -23Q1115 -23 1040 98T965 438Q965 663 1038 779T1251 895Q1388 895 1464 775T1540 438ZM1280
1462L469 0H373L1184 1462H1280Z" />
<glyph unicode="&amp;" glyph-name="ampersand" horiz-adv-x="1460" d="M123 371Q123 509 196 606T471 811L396 893Q330 964 298 1032T266 1174Q266 1317 361 1401T618 1485Q773 1485 863 1404T954 1180Q954 1075 884 988T631 793L1083 336Q1144 408 1187 493T1262
694H1358Q1295 448 1149 268L1415 0H1280L1087 197Q995 107 923 66T766 2T571 -20Q362 -20 243 83T123 371ZM578 70Q706 70 812 113T1022 260L539 745Q403 673 343 623T255 513T227 375Q227 232 320 151T578 70ZM373 1176Q373 1097 413 1030T565 856Q724 941 786
1015T848 1184Q848 1278 786 1336T618 1395Q504 1395 439 1337T373 1176Z" />
<glyph unicode="&apos;" glyph-name="quotesingle" horiz-adv-x="393" d="M260 1462L227 934H166L133 1462H260Z" />
<glyph unicode="(" glyph-name="parenleft" horiz-adv-x="557" d="M82 561Q82 826 159 1057T383 1462H496Q348 1280 269 1050T190 563Q190 80 494 -324H383Q236 -154 159 73T82 561Z" />
<glyph unicode=")" glyph-name="parenright" horiz-adv-x="557" d="M475 561Q475 298 398 71T174 -324H63Q367 80 367 563Q367 820 288 1050T61 1462H174Q321 1287 398 1056T475 561Z" />
<glyph unicode="*" glyph-name="asterisk" horiz-adv-x="1128" d="M631 1556L594 1151L999 1255L1020 1124L625 1085L872 745L748 674L557 1053L377 674L252 745L494 1085L104 1124L123 1255L524 1151L485 1556H631Z" />
<glyph unicode="+" glyph-name="plus" horiz-adv-x="1169" d="M625 764H1059V682H625V250H543V682H111V764H543V1198H625V764Z" />
<glyph unicode="," glyph-name="comma" horiz-adv-x="440" d="M295 238L307 217Q232 -48 133 -264H68Q145 11 178 238H295Z" />
<glyph unicode="-" glyph-name="hyphen" horiz-adv-x="659" d="M92 512V594H567V512H92Z" />
<glyph unicode="." glyph-name="period" horiz-adv-x="487" d="M162 78Q162 176 242 176Q324 176 324 78Q324 -20 242 -20Q162 -20 162 78Z" />
<glyph unicode="/" glyph-name="slash" horiz-adv-x="698" d="M674 1462L129 0H25L569 1462H674Z" />
<glyph unicode="0" glyph-name="zero" horiz-adv-x="1169" d="M1055 735Q1055 350 938 165T582 -20Q353 -20 234 170T115 735Q115 1117 230 1301T582 1485Q813 1485 934 1295T1055 735ZM223 735Q223 395 312 233T582 70Q771 70 857 238T944 735Q944 1059 858 1227T582
1395Q393 1395 308 1227T223 735Z" />
<glyph unicode="1" glyph-name="one" horiz-adv-x="1169" d="M682 0H584V1065Q584 1210 596 1366Q581 1351 565 1337T256 1094L199 1165L596 1462H682V0Z" />
<glyph unicode="2" glyph-name="two" horiz-adv-x="1169" d="M1028 0H113V88L502 494Q666 664 732 754T829 926T860 1098Q860 1229 774 1311T551 1393Q368 1393 201 1260L147 1329Q330 1483 553 1483Q744 1483 853 1381T963 1100Q963 955 890 820T621 485L246
100V96H1028V0Z" />
<glyph unicode="3" glyph-name="three" horiz-adv-x="1169" d="M979 1118Q979 982 894 889T664 770V764Q840 742 932 652T1024 410Q1024 205 885 93T483 -20Q260 -20 94 63V162Q178 118 282 93T479 68Q700 68 811 157T922 410Q922 555 809 633T475 711H317V807H477Q659
807 765 893T872 1128Q872 1250 786 1323T559 1397Q450 1397 360 1367T158 1262L109 1329Q194 1400 314 1441T557 1483Q759 1483 869 1388T979 1118Z" />
<glyph unicode="4" glyph-name="four" horiz-adv-x="1169" d="M1141 373H889V0H795V373H43V440L768 1470H889V459H1141V373ZM795 459V877Q795 1179 809 1384H801Q781 1347 678 1196L162 459H795Z" />
<glyph unicode="5" glyph-name="five" horiz-adv-x="1169" d="M537 879Q771 879 905 766T1040 455Q1040 230 900 105T514 -20Q405 -20 307 1T143 63V166Q251 111 335 90T514 68Q706 68 822 169T938 444Q938 607 825 700T518 793Q388 793 246 754L186 793L244 1462H948V1366H338L293
850Q449 879 537 879Z" />
<glyph unicode="6" glyph-name="six" horiz-adv-x="1169" d="M131 623Q131 908 208 1102T428 1391T772 1485Q866 1485 944 1462V1374Q871 1401 768 1401Q521 1401 384 1223T229 705H242Q318 803 416 853T623 903Q828 903 943 786T1059 463Q1059 239 938 110T610
-20Q388 -20 260 149T131 623ZM610 68Q774 68 865 171T956 465Q956 633 866 727T621 821Q519 821 432 776T292 657T240 504Q240 393 289 291T423 128T610 68Z" />
<glyph unicode="7" glyph-name="seven" horiz-adv-x="1169" d="M334 0L936 1366H109V1462H1055V1389L451 0H334Z" />
<glyph unicode="8" glyph-name="eight" horiz-adv-x="1169" d="M582 1487Q768 1487 881 1392T995 1135Q995 1023 925 937T696 778Q888 699 966 605T1044 377Q1044 196 918 88T578 -20Q357 -20 239 81T121 375Q121 506 204 605T461 774Q300 850 234 934T168 1137Q168
1242 221 1321T369 1444T582 1487ZM223 360Q223 222 316 146T578 70Q742 70 842 150T942 369Q942 493 864 570T561 733Q377 662 300 576T223 360ZM580 1397Q439 1397 354 1328T268 1137Q268 1067 299 1014T390 917T590 815Q753 878 824 954T895 1137Q895 1257 811
1327T580 1397Z" />
<glyph unicode="9" glyph-name="nine" horiz-adv-x="1169" d="M1036 842Q1036 554 961 360T741 73T391 -20Q287 -20 199 6V92Q242 78 302 71T395 63Q642 63 782 241T938 762H926Q853 666 752 615T541 563Q338 563 225 675T111 993Q111 1213 235 1349T559 1485Q703
1485 811 1410T977 1188T1036 842ZM559 1397Q401 1397 307 1291T213 999Q213 825 300 735T549 645Q650 645 737 690T876 809T928 961Q928 1078 882 1180T752 1339T559 1397Z" />
<glyph unicode=":" glyph-name="colon" horiz-adv-x="487" d="M162 78Q162 176 242 176Q324 176 324 78Q324 -20 242 -20Q162 -20 162 78ZM162 971Q162 1069 242 1069Q324 1069 324 971Q324 918 301 895T242 872Q208 872 185 895T162 971Z" />
<glyph unicode=";" glyph-name="semicolon" horiz-adv-x="487" d="M303 238L315 217Q240 -48 141 -264H76Q105 -167 138 -19T186 238H303ZM162 971Q162 1069 242 1069Q324 1069 324 971Q324 918 301 895T242 872Q208 872 185 895T162 971Z" />
<glyph unicode="&lt;" glyph-name="less" horiz-adv-x="1169" d="M1059 266L111 682V743L1059 1217V1122L236 717L1059 362V266Z" />
<glyph unicode="=" glyph-name="equal" horiz-adv-x="1169" d="M111 885V967H1059V885H111ZM111 477V559H1059V477H111Z" />
<glyph unicode="&gt;" glyph-name="greater" horiz-adv-x="1169" d="M111 362L934 717L111 1122V1217L1059 743V682L111 266V362Z" />
<glyph unicode="?" glyph-name="question" horiz-adv-x="862" d="M293 377V414Q293 537 330 615T469 782L560 861Q632 922 663 982T694 1120Q694 1247 611 1322T391 1397Q312 1397 243 1380T94 1323L57 1403Q167 1451 241 1467T395 1483Q578 1483 683 1385T788
1114Q788 1046 770 995T720 901T641 817T539 729Q475 675 441 631T391 537T375 391V377H293ZM260 78Q260 176 340 176Q422 176 422 78Q422 -20 340 -20Q260 -20 260 78Z" />
<glyph unicode="@" glyph-name="at" horiz-adv-x="1815" d="M1702 725Q1702 497 1612 359T1366 221Q1277 221 1222 275T1157 422H1153Q1110 322 1029 272T840 221Q692 221 611 317T530 588Q530 790 650 918T965 1047Q1103 1047 1251 1006L1229 542V512Q1229 408
1264 356T1380 303Q1483 303 1548 419T1614 723Q1614 917 1535 1063T1310 1287T975 1366Q745 1366 570 1267T300 985T205 567Q205 245 372 70T846 -106Q939 -106 1034 -88T1266 -18V-117Q1063 -197 852 -197Q503 -197 308 3T113 561Q113 817 221 1021T528 1339T977
1452Q1192 1452 1357 1363T1612 1109T1702 725ZM633 590Q633 447 688 375T862 303Q1117 303 1135 649L1151 940Q1072 967 958 967Q809 967 721 865T633 590Z" />
<glyph unicode="A" glyph-name="A" horiz-adv-x="1229" d="M911 516H317L113 0H0L588 1468H653L1229 0H1114L911 516ZM354 608H877L678 1135Q653 1197 618 1307Q591 1211 559 1133L354 608Z" />
<glyph unicode="B" glyph-name="B" horiz-adv-x="1284" d="M207 1462H608Q879 1462 1006 1370T1133 1092Q1133 965 1056 881T829 772V766Q1004 740 1086 656T1169 420Q1169 218 1035 109T655 0H207V1462ZM309 811H631Q837 811 930 879T1024 1094Q1024 1240 919
1306T604 1372H309V811ZM309 721V90H653Q1059 90 1059 420Q1059 721 631 721H309Z" />
<glyph unicode="C" glyph-name="C" horiz-adv-x="1272" d="M831 1391Q556 1391 398 1215T240 733Q240 420 389 247T815 74Q999 74 1153 121V31Q1008 -20 791 -20Q483 -20 306 179T129 735Q129 958 213 1128T456 1390T825 1483Q1039 1483 1208 1403L1167 1311Q1007
1391 831 1391Z" />
<glyph unicode="D" glyph-name="D" horiz-adv-x="1446" d="M1317 745Q1317 377 1124 189T557 0H207V1462H602Q952 1462 1134 1279T1317 745ZM1206 741Q1206 1055 1047 1213T578 1372H309V90H551Q1206 90 1206 741Z" />
<glyph unicode="E" glyph-name="E" horiz-adv-x="1130" d="M1006 0H207V1462H1006V1368H309V815H967V721H309V94H1006V0Z" />
<glyph unicode="F" glyph-name="F" horiz-adv-x="1028" d="M309 0H207V1462H1008V1368H309V748H969V653H309V0Z" />
<glyph unicode="G" glyph-name="G" horiz-adv-x="1481" d="M782 737H1321V70Q1109 -20 844 -20Q498 -20 314 175T129 729Q129 952 220 1124T482 1391T874 1485Q1113 1485 1303 1397L1262 1305Q1072 1393 868 1393Q579 1393 410 1215T240 733Q240 403 401 237T874
70Q1076 70 1217 127V641H782V737Z" />
<glyph unicode="H" glyph-name="H" horiz-adv-x="1473" d="M1266 0H1163V719H309V0H207V1462H309V813H1163V1462H1266V0Z" />
<glyph unicode="I" glyph-name="I" horiz-adv-x="516" d="M207 0V1462H309V0H207Z" />
<glyph unicode="J" glyph-name="J" horiz-adv-x="506" d="M-33 -369Q-125 -369 -184 -342V-254Q-106 -274 -35 -274Q207 -274 207 -10V1462H309V0Q309 -369 -33 -369Z" />
<glyph unicode="K" glyph-name="K" horiz-adv-x="1190" d="M1190 0H1065L504 772L309 600V0H207V1462H309V702L471 864L1044 1462H1174L575 844L1190 0Z" />
<glyph unicode="L" glyph-name="L" horiz-adv-x="1051" d="M207 0V1462H309V96H1006V0H207Z" />
<glyph unicode="M" glyph-name="M" horiz-adv-x="1767" d="M850 0L305 1350H297Q305 1226 305 1096V0H207V1462H365L883 176H889L1407 1462H1561V0H1458V1108Q1458 1224 1470 1348H1462L915 0H850Z" />
<glyph unicode="N" glyph-name="N" horiz-adv-x="1477" d="M1270 0H1167L301 1298H293Q305 1066 305 948V0H207V1462H309L1174 166H1180Q1171 346 1171 508V1462H1270V0Z" />
<glyph unicode="O" glyph-name="O" horiz-adv-x="1565" d="M1436 733Q1436 385 1262 183T782 -20Q477 -20 303 182T129 735Q129 1084 304 1284T784 1485Q1090 1485 1263 1284T1436 733ZM240 733Q240 419 380 248T782 76Q1046 76 1185 246T1325 733Q1325 1049 1186
1217T784 1386Q523 1386 382 1216T240 733Z" />
<glyph unicode="P" glyph-name="P" horiz-adv-x="1198" d="M1087 1042Q1087 830 943 717T535 604H309V0H207V1462H565Q1087 1462 1087 1042ZM309 692H510Q757 692 867 773T977 1038Q977 1207 873 1288T551 1370H309V692Z" />
<glyph unicode="Q" glyph-name="Q" horiz-adv-x="1565" d="M1436 733Q1436 439 1310 247T961 0L1294 -348H1128L846 -18L813 -20H782Q477 -20 303 182T129 735Q129 1084 304 1284T784 1485Q1090 1485 1263 1284T1436 733ZM240 733Q240 419 380 248T782 76Q1046
76 1185 246T1325 733Q1325 1049 1186 1217T784 1386Q523 1386 382 1216T240 733Z" />
<glyph unicode="R" glyph-name="R" horiz-adv-x="1217" d="M309 637V0H207V1462H555Q827 1462 957 1362T1087 1059Q1087 912 1010 811T774 666L1171 0H1049L672 637H309ZM309 725H588Q773 725 875 807T977 1051Q977 1218 877 1294T551 1370H309V725Z" />
<glyph unicode="S" glyph-name="S" horiz-adv-x="1116" d="M1014 377Q1014 194 880 87T522 -20Q254 -20 111 39V141Q269 74 514 74Q694 74 799 156T905 373Q905 456 870 510T756 610T524 707Q300 784 215 873T129 1112Q129 1276 257 1379T588 1483Q794 1483 975
1405L938 1317Q756 1393 590 1393Q428 1393 332 1318T236 1114Q236 1033 265 981T362 888T592 788Q763 729 849 674T974 548T1014 377Z" />
<glyph unicode="T" glyph-name="T" horiz-adv-x="1073" d="M588 0H485V1366H10V1462H1063V1366H588V0Z" />
<glyph unicode="U" glyph-name="U" horiz-adv-x="1473" d="M1282 1462V516Q1282 264 1136 122T729 -20Q475 -20 333 122T190 520V1462H293V516Q293 305 410 188T741 70Q950 70 1065 185T1180 506V1462H1282Z" />
<glyph unicode="V" glyph-name="V" horiz-adv-x="1182" d="M1071 1462H1182L635 0H545L0 1462H109L477 467Q561 242 590 129Q610 204 669 362L1071 1462Z" />
<glyph unicode="W" glyph-name="W" horiz-adv-x="1827" d="M1372 0H1288L967 1128Q927 1267 907 1356Q891 1269 862 1156T539 0H453L51 1462H158L414 520Q429 463 442 415T465 324T484 242T500 162Q524 298 602 575L852 1462H965L1258 444Q1309 268 1331 160Q1344
232 1364 313T1673 1462H1776L1372 0Z" />
<glyph unicode="X" glyph-name="X" horiz-adv-x="1102" d="M1102 0H985L553 682L113 0H0L492 762L45 1462H160L555 836L956 1462H1065L612 764L1102 0Z" />
<glyph unicode="Y" glyph-name="Y" horiz-adv-x="1081" d="M543 662L971 1462H1081L594 565V0H489V557L0 1462H117L543 662Z" />
<glyph unicode="Z" glyph-name="Z" horiz-adv-x="1180" d="M1098 0H82V76L938 1366H121V1462H1075V1386L217 96H1098V0Z" />
<glyph unicode="[" glyph-name="bracketleft" horiz-adv-x="653" d="M602 -324H174V1462H602V1368H272V-229H602V-324Z" />
<glyph unicode="\" glyph-name="backslash" horiz-adv-x="698" d="M127 1462L674 0H571L25 1462H127Z" />
<glyph unicode="]" glyph-name="bracketright" horiz-adv-x="653" d="M51 -229H381V1368H51V1462H479V-324H51V-229Z" />
<glyph unicode="^" glyph-name="asciicircum" horiz-adv-x="1169" d="M88 561L553 1473H621L1081 561H981L586 1352L188 561H88Z" />
<glyph unicode="_" glyph-name="underscore" horiz-adv-x="842" d="M846 -266H-4V-184H846V-266Z" />
<glyph unicode="`" glyph-name="grave" horiz-adv-x="1182" d="M776 1241H707Q611 1320 519 1412T393 1552V1569H535Q561 1521 633 1427T776 1257V1241Z" />
<glyph unicode="a" glyph-name="a" horiz-adv-x="1085" d="M842 0L817 172H809Q727 67 641 24T436 -20Q276 -20 187 62T98 289Q98 448 230 536T614 629L821 635V707Q821 862 758 941T555 1020Q404 1020 242 936L205 1022Q384 1106 559 1106Q738 1106 826 1013T915
723V0H842ZM442 70Q616 70 716 169T817 446V553L627 545Q398 534 301 474T203 285Q203 183 265 127T442 70Z" />
<glyph unicode="b" glyph-name="b" horiz-adv-x="1219" d="M641 1108Q869 1108 984 965T1100 545Q1100 274 979 127T637 -20Q521 -20 428 28T281 164H272L244 0H182V1556H281V1165Q281 1077 277 1003L274 918H281Q343 1016 430 1062T641 1108ZM639 1018Q447 1018
364 908T281 545V528Q281 282 367 175T637 68Q815 68 905 192T995 547Q995 1018 639 1018Z" />
<glyph unicode="c" glyph-name="c" horiz-adv-x="973" d="M616 -20Q383 -20 251 127T119 537Q119 807 256 957T631 1108Q772 1108 901 1059L874 971Q733 1018 629 1018Q429 1018 326 895T223 539Q223 319 326 195T614 70Q762 70 889 123V31Q785 -20 616 -20Z" />
<glyph unicode="d" glyph-name="d" horiz-adv-x="1219" d="M580 1108Q698 1108 784 1065T938 918H944Q938 1044 938 1165V1556H1036V0H971L946 166H938Q814 -20 582 -20Q357 -20 238 120T119 528Q119 810 237 959T580 1108ZM580 1018Q402 1018 313 893T223 530Q223
68 582 68Q766 68 852 175T938 528V545Q938 797 854 907T580 1018Z" />
<glyph unicode="e" glyph-name="e" horiz-adv-x="1124" d="M621 -20Q384 -20 252 126T119 535Q119 795 247 951T592 1108Q784 1108 895 974T1006 610V530H223Q225 306 327 188T621 70Q714 70 784 83T963 139V49Q871 9 793 -5T621 -20ZM592 1020Q435 1020 340 917T229
618H901Q901 807 819 913T592 1020Z" />
<glyph unicode="f" glyph-name="f" horiz-adv-x="614" d="M586 1001H330V0H231V1001H29V1059L231 1096V1180Q231 1380 304 1473T545 1567Q635 1567 725 1540L702 1454Q622 1479 543 1479Q427 1479 379 1411T330 1188V1087H586V1001Z" />
<glyph unicode="g" glyph-name="g" horiz-adv-x="1071" d="M1030 1087V1018L805 1004Q895 892 895 758Q895 601 791 504T510 406Q436 406 406 412Q347 381 316 339T285 250Q285 198 324 174T457 150H647Q824 150 918 79T1012 -133Q1012 -305 873 -398T475 -492Q270
-492 158 -413T45 -193Q45 -81 114 -7T303 94Q254 115 225 153T195 242Q195 351 334 434Q239 473 186 556T133 748Q133 911 236 1009T516 1108Q623 1108 682 1087H1030ZM150 -184Q150 -408 483 -408Q911 -408 911 -135Q911 -37 844 7T627 51H449Q150 51 150 -184ZM233
748Q233 622 309 553T514 483Q650 483 722 552T795 752Q795 891 721 960T512 1030Q382 1030 308 956T233 748Z" />
<glyph unicode="h" glyph-name="h" horiz-adv-x="1208" d="M940 0V705Q940 869 871 943T657 1018Q462 1018 372 920T281 600V0H182V1556H281V1061L276 922H283Q344 1020 437 1064T668 1108Q1038 1108 1038 711V0H940Z" />
<glyph unicode="i" glyph-name="i" horiz-adv-x="463" d="M281 0H182V1087H281V0ZM168 1389Q168 1485 231 1485Q262 1485 279 1460T297 1389Q297 1344 280 1318T231 1292Q168 1292 168 1389Z" />
<glyph unicode="j" glyph-name="j" horiz-adv-x="463" d="M37 -492Q-43 -492 -98 -467V-381Q-29 -401 31 -401Q182 -401 182 -225V1087H281V-211Q281 -346 218 -419T37 -492ZM168 1389Q168 1485 231 1485Q262 1485 279 1460T297 1389Q297 1344 280 1318T231 1292Q168
1292 168 1389Z" />
<glyph unicode="k" glyph-name="k" horiz-adv-x="991" d="M279 477L834 1087H954L526 623L991 0H872L459 549L281 387V0H182V1556H281V776L274 477H279Z" />
<glyph unicode="l" glyph-name="l" horiz-adv-x="463" d="M281 0H182V1556H281V0Z" />
<glyph unicode="m" glyph-name="m" horiz-adv-x="1808" d="M1540 0V713Q1540 872 1478 945T1288 1018Q1121 1018 1041 926T961 637V0H860V743Q860 1018 608 1018Q437 1018 359 919T281 600V0H182V1087H264L285 938H291Q336 1019 419 1063T602 1108Q859 1108 932
915H936Q989 1008 1078 1058T1282 1108Q1460 1108 1549 1013T1638 711V0H1540Z" />
<glyph unicode="n" glyph-name="n" horiz-adv-x="1208" d="M940 0V705Q940 869 871 943T657 1018Q462 1018 372 920T281 600V0H182V1087H266L285 938H291Q397 1108 668 1108Q1038 1108 1038 711V0H940Z" />
<glyph unicode="o" glyph-name="o" horiz-adv-x="1200" d="M1081 545Q1081 279 952 130T596 -20Q453 -20 344 49T177 247T119 545Q119 811 248 959T602 1108Q826 1108 953 958T1081 545ZM223 545Q223 321 321 196T600 70Q780 70 878 195T977 545Q977 770 878 894T598
1018Q418 1018 321 895T223 545Z" />
<glyph unicode="p" glyph-name="p" horiz-adv-x="1219" d="M647 -20Q396 -20 281 168H274L277 84Q281 10 281 -78V-492H182V1087H266L285 932H291Q403 1108 649 1108Q869 1108 984 964T1100 543Q1100 275 979 128T647 -20ZM645 68Q812 68 903 192T995 539Q995
1018 649 1018Q459 1018 370 914T281 573V541Q281 286 366 177T645 68Z" />
<glyph unicode="q" glyph-name="q" horiz-adv-x="1219" d="M569 -20Q355 -20 237 122T119 532Q119 807 237 957T575 1108Q811 1108 928 934H934L952 1087H1036V-492H938V-78Q938 44 944 170H938Q820 -20 569 -20ZM571 68Q769 68 853 177T938 543V555Q938 800 853
909T582 1018Q406 1018 315 894T223 530Q223 301 312 185T571 68Z" />
<glyph unicode="r" glyph-name="r" horiz-adv-x="797" d="M610 1108Q679 1108 758 1094L739 999Q671 1016 598 1016Q459 1016 370 898T281 600V0H182V1087H266L276 891H283Q350 1011 426 1059T610 1108Z" />
<glyph unicode="s" glyph-name="s" horiz-adv-x="954" d="M856 283Q856 137 745 59T430 -20Q212 -20 84 47V154Q248 72 430 72Q591 72 674 125T758 268Q758 350 692 406T473 516Q310 575 244 617T145 713T111 844Q111 966 213 1037T500 1108Q676 1108 834 1042L797
952Q637 1018 500 1018Q367 1018 289 974T211 852Q211 767 271 716T508 602Q655 549 722 507T822 410T856 283Z" />
<glyph unicode="t" glyph-name="t" horiz-adv-x="686" d="M469 68Q563 68 633 84V4Q561 -20 467 -20Q323 -20 255 57T186 299V1001H25V1059L186 1104L236 1350H287V1087H606V1001H287V313Q287 188 331 128T469 68Z" />
<glyph unicode="u" glyph-name="u" horiz-adv-x="1208" d="M268 1087V383Q268 219 337 145T551 70Q745 70 836 168T928 487V1087H1026V0H942L924 150H918Q812 -20 541 -20Q170 -20 170 377V1087H268Z" />
<glyph unicode="v" glyph-name="v" horiz-adv-x="940" d="M420 0L0 1087H102L383 348Q439 206 467 100H473Q514 236 557 350L838 1087H940L520 0H420Z" />
<glyph unicode="w" glyph-name="w" horiz-adv-x="1481" d="M1051 0L813 727Q790 801 754 944H748L727 870L682 725L440 0H342L31 1087H137L311 457Q372 223 391 113H397Q456 347 483 424L707 1087H797L1010 426Q1082 191 1098 115H1104Q1112 180 1184 463L1350
1087H1450L1155 0H1051Z" />
<glyph unicode="x" glyph-name="x" horiz-adv-x="1020" d="M449 559L70 1087H184L508 629L829 1087H938L565 559L965 0H850L508 485L164 0H55L449 559Z" />
<glyph unicode="y" glyph-name="y" horiz-adv-x="940" d="M0 1087H102L332 477Q437 196 465 98H471Q513 227 608 483L838 1087H940L453 -176Q394 -330 354 -384T261 -465T131 -492Q74 -492 4 -471V-385Q62 -401 129 -401Q180 -401 219 -377T289 -303T362 -143T416
0L0 1087Z" />
<glyph unicode="z" glyph-name="z" horiz-adv-x="944" d="M858 0H82V63L727 999H129V1087H856V1024L207 88H858V0Z" />
<glyph unicode="{" glyph-name="braceleft" horiz-adv-x="723" d="M389 -27Q389 -129 448 -179T651 -233V-324Q456 -324 374 -249T291 -18V319Q291 524 61 528V608Q183 610 237 659T291 807V1157Q291 1456 651 1462V1372Q513 1367 451 1314T389 1157V852Q389 722
345 658T203 573V565Q300 545 344 482T389 295V-27Z" />
<glyph unicode="|" glyph-name="bar" horiz-adv-x="1108" d="M508 1561H600V-506H508V1561Z" />
<glyph unicode="}" glyph-name="braceright" horiz-adv-x="723" d="M334 295Q334 418 378 481T520 565V573Q423 593 379 657T334 852V1157Q334 1260 273 1313T72 1372V1462Q246 1462 339 1385T432 1157V807Q432 707 486 659T662 608V528Q432 524 432 319V-18Q432
-173 350 -248T72 -324V-233Q213 -231 273 -181T334 -27V295Z" />
<glyph unicode="~" glyph-name="asciitilde" horiz-adv-x="1169" d="M334 745Q285 745 226 715T111 625V719Q219 829 344 829Q405 829 459 816T614 758Q740 700 834 700Q890 700 943 730T1059 825V729Q1011 680 955 648T825 616Q709 616 555 688Q431 745 334 745Z" />
<glyph unicode="&#xa0;" glyph-name="nbspace" horiz-adv-x="532" />
<glyph unicode="&#xa1;" glyph-name="exclamdown" horiz-adv-x="492" d="M215 711H276L305 -375H186L215 711ZM166 1010Q166 1108 246 1108Q328 1108 328 1010Q328 957 305 934T246 911Q212 911 189 934T166 1010Z" />
<glyph unicode="&#xa2;" glyph-name="cent" horiz-adv-x="1169" d="M602 190Q416 220 314 365T211 745Q211 977 313 1126T602 1309V1483H684V1317H698Q829 1317 973 1262L942 1178Q808 1229 705 1229Q518 1229 417 1107T315 748Q315 523 415 399T696 274Q827 274
963 332V240Q853 184 696 184H684V-20H602V190Z" />
<glyph unicode="&#xa3;" glyph-name="sterling" horiz-adv-x="1169" d="M412 676V420Q412 304 377 224T264 96H1073V0H78V84Q188 105 249 194T311 418V676H100V758H311V1055Q311 1259 409 1370T690 1481Q865 1481 1020 1413L985 1327Q828 1393 690 1393Q549 1393
481 1312T412 1059V758H823V676H412Z" />
<glyph unicode="&#xa4;" glyph-name="currency" horiz-adv-x="1169" d="M991 723Q991 572 901 467L1040 326L981 266L844 408Q734 315 584 315Q431 315 324 408L186 266L127 326L266 467Q176 573 176 723Q176 870 266 981L127 1122L186 1182L324 1040Q427 1133
584 1133Q739 1133 844 1040L981 1182L1040 1122L901 981Q991 870 991 723ZM584 395Q718 395 812 490T907 723Q907 859 812 956T584 1053Q450 1053 355 956T260 723Q260 587 354 491T584 395Z" />
<glyph unicode="&#xa5;" glyph-name="yen" horiz-adv-x="1169" d="M586 666L1014 1462H1124L692 674H975V592H637V387H975V305H637V0H532V305H195V387H532V592H195V674H473L43 1462H160L586 666Z" />
<glyph unicode="&#xa6;" glyph-name="brokenbar" horiz-adv-x="1108" d="M508 1561H600V797H508V1561ZM508 258H600V-506H508V258Z" />
<glyph unicode="&#xa7;" glyph-name="section" horiz-adv-x="1057" d="M145 813Q145 896 195 965T334 1073Q248 1120 209 1175T170 1311Q170 1428 271 1494T547 1561Q722 1561 883 1497L848 1417Q757 1451 690 1464T545 1477Q411 1477 340 1433T268 1313Q268 1259
293 1225T379 1159T567 1085Q759 1021 831 953T903 782Q903 609 717 508Q803 466 846 412T889 276Q889 141 776 69T465 -4Q373 -4 294 11T129 63V158Q311 80 461 80Q623 80 708 129T793 270Q793 325 768 357T680 423T489 502Q289 575 217 643T145 813ZM246 825Q246
760 277 721T383 646T633 547Q715 588 759 645T803 766Q803 828 771 868T663 945T426 1032Q345 1009 296 953T246 825Z" />
<glyph unicode="&#xa8;" glyph-name="dieresis" horiz-adv-x="1182" d="M336 1389Q336 1435 351 1455T399 1475Q463 1475 463 1389Q463 1303 399 1303Q336 1303 336 1389ZM717 1389Q717 1435 732 1455T780 1475Q844 1475 844 1389Q844 1303 780 1303Q717 1303 717 1389Z" />
<glyph unicode="&#xa9;" glyph-name="copyright" horiz-adv-x="1704" d="M897 1092Q755 1092 675 998T594 733Q594 547 668 458T889 369Q973 369 1087 412V324Q985 279 879 279Q692 279 591 394T489 725Q489 933 600 1057T897 1182Q1016 1182 1124 1130L1087 1047Q989
1092 897 1092ZM100 731Q100 931 200 1106T475 1382T852 1483Q1052 1483 1227 1383T1503 1108T1604 731Q1604 534 1507 361T1235 84T852 -20Q645 -20 470 83T198 360T100 731ZM193 731Q193 553 281 402T522 161T852 72Q1030 72 1181 160T1422 401T1511 731Q1511
905 1426 1056T1187 1299T852 1391Q676 1391 524 1303T282 1060T193 731Z" />
<glyph unicode="&#xaa;" glyph-name="ordfeminine" horiz-adv-x="686" d="M512 813L487 885Q403 801 285 801Q190 801 134 850T78 989Q78 1089 158 1140T399 1200L494 1204V1247Q494 1324 456 1361T350 1399Q263 1399 154 1350L121 1423Q238 1479 352 1479Q580
1479 580 1264V813H512ZM168 993Q168 939 203 908T299 877Q389 877 441 927T494 1069V1133L406 1128Q290 1122 229 1092T168 993Z" />
<glyph unicode="&#xab;" glyph-name="guillemotleft" horiz-adv-x="885" d="M82 543L391 936L453 893L199 530L453 168L391 125L82 516V543ZM442 543L752 936L813 893L559 530L813 168L752 125L442 516V543Z" />
<glyph unicode="&#xac;" glyph-name="logicalnot" horiz-adv-x="1169" d="M1038 764V270H956V682H111V764H1038Z" />
<glyph unicode="&#xad;" glyph-name="uni00AD" horiz-adv-x="659" d="M92 512V594H567V512H92Z" />
<glyph unicode="&#xae;" glyph-name="registered" horiz-adv-x="1704" d="M709 731H821Q912 731 964 777T1016 913Q1016 1085 819 1085H709V731ZM1120 918Q1120 839 1082 779T971 684L1208 291H1087L877 651H709V291H608V1171H819Q962 1171 1041 1109T1120 918ZM100
731Q100 931 200 1106T475 1382T852 1483Q1052 1483 1227 1383T1503 1108T1604 731Q1604 534 1507 361T1235 84T852 -20Q645 -20 470 83T198 360T100 731ZM193 731Q193 553 281 402T522 161T852 72Q1030 72 1181 160T1422 401T1511 731Q1511 905 1426 1056T1187
1299T852 1391Q676 1391 524 1303T282 1060T193 731Z" />
<glyph unicode="&#xaf;" glyph-name="overscore" horiz-adv-x="1024" d="M1030 1556H-6V1638H1030V1556Z" />
<glyph unicode="&#xb0;" glyph-name="degree" horiz-adv-x="877" d="M139 1184Q139 1316 225 1399T438 1483Q564 1483 650 1400T737 1184Q737 1052 651 969T438 885Q308 885 224 968T139 1184ZM229 1184Q229 1093 290 1030T438 967Q524 967 585 1029T647 1184Q647
1276 587 1338T438 1401Q348 1401 289 1337T229 1184Z" />
<glyph unicode="&#xb1;" glyph-name="plusminus" horiz-adv-x="1169" d="M111 1V83H1059V1H111ZM625 764H1059V682H625V250H543V682H111V764H543V1198H625V764Z" />
<glyph unicode="&#xb2;" glyph-name="twosuperior" horiz-adv-x="688" d="M629 586H53V664L295 901Q420 1022 467 1094T514 1243Q514 1314 468 1355T344 1397Q236 1397 127 1315L78 1380Q197 1483 348 1483Q472 1483 542 1420T612 1245Q612 1198 599 1156T559
1071T491 981T182 674H629V586Z" />
<glyph unicode="&#xb3;" glyph-name="threesuperior" horiz-adv-x="688" d="M616 1260Q616 1182 572 1129T455 1053Q641 1008 641 842Q641 712 553 641T305 569Q161 569 41 629V717Q177 655 307 655Q422 655 481 704T541 840Q541 923 482 962T303 1001H172V1085H307Q412
1085 465 1128T518 1249Q518 1316 471 1356T344 1397Q216 1397 98 1319L51 1389Q181 1483 344 1483Q471 1483 543 1423T616 1260Z" />
<glyph unicode="&#xb4;" glyph-name="acute" horiz-adv-x="1182" d="M393 1257Q466 1336 537 1428T635 1569H776V1552Q740 1500 654 1414T463 1241H393V1257Z" />
<glyph unicode="&#xb5;" glyph-name="mu" horiz-adv-x="1221" d="M281 1087V383Q281 219 350 145T563 70Q757 70 848 168T940 487V1087H1038V0H954L936 150H930Q880 73 780 27T563 -20Q464 -20 396 7T276 92Q281 0 281 -78V-492H182V1087H281Z" />
<glyph unicode="&#xb6;" glyph-name="paragraph" horiz-adv-x="1341" d="M1106 -260H1006V1462H778V-260H678V559Q614 541 532 541Q316 541 215 666T113 1042Q113 1302 222 1429T563 1556H1106V-260Z" />
<glyph unicode="&#xb7;" glyph-name="middot" horiz-adv-x="487" d="M162 721Q162 819 242 819Q324 819 324 721Q324 623 242 623Q162 623 162 721Z" />
<glyph unicode="&#xb8;" glyph-name="cedilla" horiz-adv-x="420" d="M393 -291Q393 -391 326 -441T137 -492Q69 -492 43 -481V-393Q73 -403 135 -403Q213 -403 254 -375T295 -295Q295 -201 102 -174L195 0H291L225 -117Q393 -154 393 -291Z" />
<glyph unicode="&#xb9;" glyph-name="onesuperior" horiz-adv-x="688" d="M350 1462H442V586H344V1133Q344 1232 356 1366Q330 1343 123 1221L76 1298L350 1462Z" />
<glyph unicode="&#xba;" glyph-name="ordmasculine" horiz-adv-x="739" d="M670 1141Q670 980 590 891T367 801Q224 801 147 887T70 1141Q70 1303 148 1391T371 1479Q513 1479 591 1392T670 1141ZM160 1141Q160 877 369 877Q578 877 578 1141Q578 1272 528 1335T369
1399Q260 1399 210 1336T160 1141Z" />
<glyph unicode="&#xbb;" glyph-name="guillemotright" horiz-adv-x="885" d="M803 518L494 125L432 168L686 530L432 893L494 936L803 545V518ZM442 518L133 125L72 168L326 530L72 893L133 936L442 545V518Z" />
<glyph unicode="&#xbc;" glyph-name="onequarter" horiz-adv-x="1516" d="M589 1462H681V586H583V1133Q583 1232 595 1366Q569 1343 362 1221L315 1298L589 1462ZM1148 1462L337 0H243L1054 1462H1148ZM1392 242H1263V1H1173V242H760V302L1167 883H1263V320H1392V242ZM1173
320V541Q1173 673 1181 773Q1175 761 1160 738T864 320H1173Z" />
<glyph unicode="&#xbd;" glyph-name="onehalf" horiz-adv-x="1516" d="M541 1462H633V586H535V1133Q535 1232 547 1366Q521 1343 314 1221L267 1298L541 1462ZM1073 1462L262 0H168L979 1462H1073ZM1403 1H827V79L1069 316Q1194 437 1241 509T1288 658Q1288 729
1242 770T1118 812Q1010 812 901 730L852 795Q971 898 1122 898Q1246 898 1316 835T1386 660Q1386 613 1373 571T1333 486T1265 396T956 89H1403V1Z" />
<glyph unicode="&#xbe;" glyph-name="threequarters" horiz-adv-x="1516" d="M616 1260Q616 1182 572 1129T455 1053Q641 1008 641 842Q641 712 553 641T305 569Q161 569 41 629V717Q177 655 307 655Q422 655 481 704T541 840Q541 923 482 962T303 1001H172V1085H307Q412
1085 465 1128T518 1249Q518 1316 471 1356T344 1397Q216 1397 98 1319L51 1389Q181 1483 344 1483Q471 1483 543 1423T616 1260ZM1300 1462L489 0H395L1206 1462H1300ZM1495 242H1366V1H1276V242H863V302L1270 883H1366V320H1495V242ZM1276 320V541Q1276 673 1284
773Q1278 761 1263 738T967 320H1276Z" />
<glyph unicode="&#xbf;" glyph-name="questiondown" horiz-adv-x="862" d="M569 711V674Q569 549 530 470T393 305L303 226Q230 165 199 106T168 -33Q168 -157 250 -233T471 -309Q596 -309 704 -263L768 -236L805 -315Q694 -363 620 -379T467 -395Q283 -395 179
-296T74 -27Q74 43 94 97T152 199T324 358Q388 411 422 456T472 550T487 696V711H569ZM440 1010Q440 1108 520 1108Q602 1108 602 1010Q602 957 579 934T520 911Q486 911 463 934T440 1010Z" />
<glyph unicode="&#xc0;" glyph-name="Agrave" horiz-adv-x="1229" d="M911 516H317L113 0H0L588 1468H653L1229 0H1114L911 516ZM354 608H877L678 1135Q653 1197 618 1307Q591 1211 559 1133L354 608ZM720 1579H651Q555 1658 463 1750T337 1890V1907H479Q505 1859
577 1765T720 1595V1579Z" />
<glyph unicode="&#xc1;" glyph-name="Aacute" horiz-adv-x="1229" d="M911 516H317L113 0H0L588 1468H653L1229 0H1114L911 516ZM354 608H877L678 1135Q653 1197 618 1307Q591 1211 559 1133L354 608ZM504 1595Q577 1674 648 1766T746 1907H887V1890Q851 1838
765 1752T574 1579H504V1595Z" />
<glyph unicode="&#xc2;" glyph-name="Acircumflex" horiz-adv-x="1229" d="M911 516H317L113 0H0L588 1468H653L1229 0H1114L911 516ZM354 608H877L678 1135Q653 1197 618 1307Q591 1211 559 1133L354 608ZM328 1595Q390 1662 459 1751T570 1907H668Q736 1787
910 1595V1579H840Q718 1680 619 1786Q511 1672 398 1579H328V1595Z" />
<glyph unicode="&#xc3;" glyph-name="Atilde" horiz-adv-x="1229" d="M911 516H317L113 0H0L588 1468H653L1229 0H1114L911 516ZM354 608H877L678 1135Q653 1197 618 1307Q591 1211 559 1133L354 608ZM784 1581Q748 1581 709 1599T608 1671Q576 1697 546 1717T483
1737Q438 1737 408 1703T360 1581H287Q297 1692 350 1755T487 1819Q535 1819 575 1794T657 1735Q691 1707 723 1685T784 1663Q830 1663 861 1699T909 1819H985Q969 1703 916 1642T784 1581Z" />
<glyph unicode="&#xc4;" glyph-name="Adieresis" horiz-adv-x="1229" d="M911 516H317L113 0H0L588 1468H653L1229 0H1114L911 516ZM354 608H877L678 1135Q653 1197 618 1307Q591 1211 559 1133L354 608ZM367 1727Q367 1773 382 1793T430 1813Q494 1813 494 1727Q494
1641 430 1641Q367 1641 367 1727ZM748 1727Q748 1773 763 1793T811 1813Q875 1813 875 1727Q875 1641 811 1641Q748 1641 748 1727Z" />
<glyph unicode="&#xc5;" glyph-name="Aring" horiz-adv-x="1229" d="M911 516H317L113 0H0L588 1468H653L1229 0H1114L911 516ZM354 608H877L678 1135Q653 1197 618 1307Q591 1211 559 1133L354 608ZM836 1610Q836 1513 776 1455T619 1397Q522 1397 462 1455T402
1610Q402 1704 462 1762T619 1821Q716 1821 776 1762T836 1610ZM482 1610Q482 1544 519 1507T619 1469Q681 1469 718 1506T756 1610Q756 1674 717 1711T619 1749Q557 1749 520 1711T482 1610Z" />
<glyph unicode="&#xc6;" glyph-name="AE" horiz-adv-x="1653" d="M1528 0H811V516H336L109 0H-2L651 1462H1528V1368H913V815H1489V721H913V94H1528V0ZM377 608H811V1368H711L377 608Z" />
<glyph unicode="&#xc7;" glyph-name="Ccedilla" horiz-adv-x="1272" d="M831 1391Q556 1391 398 1215T240 733Q240 420 389 247T815 74Q999 74 1153 121V31Q1008 -20 791 -20Q483 -20 306 179T129 735Q129 958 213 1128T456 1390T825 1483Q1039 1483 1208 1403L1167
1311Q1007 1391 831 1391ZM911 -291Q911 -391 844 -441T655 -492Q587 -492 561 -481V-393Q591 -403 653 -403Q731 -403 772 -375T813 -295Q813 -201 620 -174L713 0H809L743 -117Q911 -154 911 -291Z" />
<glyph unicode="&#xc8;" glyph-name="Egrave" horiz-adv-x="1130" d="M1006 0H207V1462H1006V1368H309V815H967V721H309V94H1006V0ZM697 1579H628Q532 1658 440 1750T314 1890V1907H456Q482 1859 554 1765T697 1595V1579Z" />
<glyph unicode="&#xc9;" glyph-name="Eacute" horiz-adv-x="1130" d="M1006 0H207V1462H1006V1368H309V815H967V721H309V94H1006V0ZM463 1595Q536 1674 607 1766T705 1907H846V1890Q810 1838 724 1752T533 1579H463V1595Z" />
<glyph unicode="&#xca;" glyph-name="Ecircumflex" horiz-adv-x="1130" d="M1006 0H207V1462H1006V1368H309V815H967V721H309V94H1006V0ZM315 1595Q377 1662 446 1751T557 1907H655Q723 1787 897 1595V1579H827Q705 1680 606 1786Q498 1672 385 1579H315V1595Z" />
<glyph unicode="&#xcb;" glyph-name="Edieresis" horiz-adv-x="1130" d="M1006 0H207V1462H1006V1368H309V815H967V721H309V94H1006V0ZM354 1727Q354 1773 369 1793T417 1813Q481 1813 481 1727Q481 1641 417 1641Q354 1641 354 1727ZM735 1727Q735 1773 750 1793T798
1813Q862 1813 862 1727Q862 1641 798 1641Q735 1641 735 1727Z" />
<glyph unicode="&#xcc;" glyph-name="Igrave" horiz-adv-x="516" d="M207 0V1462H309V0H207ZM320 1579H251Q155 1658 63 1750T-63 1890V1907H79Q105 1859 177 1765T320 1595V1579Z" />
<glyph unicode="&#xcd;" glyph-name="Iacute" horiz-adv-x="516" d="M207 0V1462H309V0H207ZM191 1595Q264 1674 335 1766T433 1907H574V1890Q538 1838 452 1752T261 1579H191V1595Z" />
<glyph unicode="&#xce;" glyph-name="Icircumflex" horiz-adv-x="516" d="M207 0V1462H309V0H207ZM-32 1595Q30 1662 99 1751T210 1907H308Q376 1787 550 1595V1579H480Q358 1680 259 1786Q151 1672 38 1579H-32V1595Z" />
<glyph unicode="&#xcf;" glyph-name="Idieresis" horiz-adv-x="516" d="M207 0V1462H309V0H207ZM5 1727Q5 1773 20 1793T68 1813Q132 1813 132 1727Q132 1641 68 1641Q5 1641 5 1727ZM386 1727Q386 1773 401 1793T449 1813Q513 1813 513 1727Q513 1641 449 1641Q386
1641 386 1727Z" />
<glyph unicode="&#xd0;" glyph-name="Eth" horiz-adv-x="1466" d="M1317 745Q1317 377 1124 189T557 0H207V678H47V772H207V1462H602Q952 1462 1134 1279T1317 745ZM1206 741Q1206 1055 1047 1213T578 1372H309V772H715V678H309V90H551Q1206 90 1206 741Z" />
<glyph unicode="&#xd1;" glyph-name="Ntilde" horiz-adv-x="1477" d="M1270 0H1167L301 1298H293Q305 1066 305 948V0H207V1462H309L1174 166H1180Q1171 346 1171 508V1462H1270V0ZM897 1581Q861 1581 822 1599T721 1671Q689 1697 659 1717T596 1737Q551 1737
521 1703T473 1581H400Q410 1692 463 1755T600 1819Q648 1819 688 1794T770 1735Q804 1707 836 1685T897 1663Q943 1663 974 1699T1022 1819H1098Q1082 1703 1029 1642T897 1581Z" />
<glyph unicode="&#xd2;" glyph-name="Ograve" horiz-adv-x="1565" d="M1436 733Q1436 385 1262 183T782 -20Q477 -20 303 182T129 735Q129 1084 304 1284T784 1485Q1090 1485 1263 1284T1436 733ZM240 733Q240 419 380 248T782 76Q1046 76 1185 246T1325 733Q1325
1049 1186 1217T784 1386Q523 1386 382 1216T240 733ZM885 1579H816Q720 1658 628 1750T502 1890V1907H644Q670 1859 742 1765T885 1595V1579Z" />
<glyph unicode="&#xd3;" glyph-name="Oacute" horiz-adv-x="1565" d="M1436 733Q1436 385 1262 183T782 -20Q477 -20 303 182T129 735Q129 1084 304 1284T784 1485Q1090 1485 1263 1284T1436 733ZM240 733Q240 419 380 248T782 76Q1046 76 1185 246T1325 733Q1325
1049 1186 1217T784 1386Q523 1386 382 1216T240 733ZM686 1595Q759 1674 830 1766T928 1907H1069V1890Q1033 1838 947 1752T756 1579H686V1595Z" />
<glyph unicode="&#xd4;" glyph-name="Ocircumflex" horiz-adv-x="1565" d="M1436 733Q1436 385 1262 183T782 -20Q477 -20 303 182T129 735Q129 1084 304 1284T784 1485Q1090 1485 1263 1284T1436 733ZM240 733Q240 419 380 248T782 76Q1046 76 1185 246T1325
733Q1325 1049 1186 1217T784 1386Q523 1386 382 1216T240 733ZM492 1595Q554 1662 623 1751T734 1907H832Q900 1787 1074 1595V1579H1004Q882 1680 783 1786Q675 1672 562 1579H492V1595Z" />
<glyph unicode="&#xd5;" glyph-name="Otilde" horiz-adv-x="1565" d="M1436 733Q1436 385 1262 183T782 -20Q477 -20 303 182T129 735Q129 1084 304 1284T784 1485Q1090 1485 1263 1284T1436 733ZM240 733Q240 419 380 248T782 76Q1046 76 1185 246T1325 733Q1325
1049 1186 1217T784 1386Q523 1386 382 1216T240 733ZM940 1581Q904 1581 865 1599T764 1671Q732 1697 702 1717T639 1737Q594 1737 564 1703T516 1581H443Q453 1692 506 1755T643 1819Q691 1819 731 1794T813 1735Q847 1707 879 1685T940 1663Q986 1663 1017 1699T1065
1819H1141Q1125 1703 1072 1642T940 1581Z" />
<glyph unicode="&#xd6;" glyph-name="Odieresis" horiz-adv-x="1565" d="M1436 733Q1436 385 1262 183T782 -20Q477 -20 303 182T129 735Q129 1084 304 1284T784 1485Q1090 1485 1263 1284T1436 733ZM240 733Q240 419 380 248T782 76Q1046 76 1185 246T1325 733Q1325
1049 1186 1217T784 1386Q523 1386 382 1216T240 733ZM529 1727Q529 1773 544 1793T592 1813Q656 1813 656 1727Q656 1641 592 1641Q529 1641 529 1727ZM910 1727Q910 1773 925 1793T973 1813Q1037 1813 1037 1727Q1037 1641 973 1641Q910 1641 910 1727Z" />
<glyph unicode="&#xd7;" glyph-name="multiply" horiz-adv-x="1169" d="M584 780L993 1188L1051 1130L643 723L1049 315L991 258L584 666L178 258L121 315L526 723L119 1130L176 1188L584 780Z" />
<glyph unicode="&#xd8;" glyph-name="Oslash" horiz-adv-x="1565" d="M1436 733Q1436 385 1262 183T782 -20Q546 -20 387 100L301 -20L227 39L317 166Q129 366 129 735Q129 1084 304 1284T784 1485Q1016 1485 1176 1364L1284 1516L1356 1456L1245 1303Q1436 1096
1436 733ZM1325 733Q1325 1048 1186 1219L444 182Q577 76 782 76Q1046 76 1185 246T1325 733ZM240 733Q240 421 379 250L1118 1284Q985 1386 784 1386Q523 1386 382 1216T240 733Z" />
<glyph unicode="&#xd9;" glyph-name="Ugrave" horiz-adv-x="1473" d="M1282 1462V516Q1282 264 1136 122T729 -20Q475 -20 333 122T190 520V1462H293V516Q293 305 410 188T741 70Q950 70 1065 185T1180 506V1462H1282ZM833 1579H764Q668 1658 576 1750T450 1890V1907H592Q618
1859 690 1765T833 1595V1579Z" />
<glyph unicode="&#xda;" glyph-name="Uacute" horiz-adv-x="1473" d="M1282 1462V516Q1282 264 1136 122T729 -20Q475 -20 333 122T190 520V1462H293V516Q293 305 410 188T741 70Q950 70 1065 185T1180 506V1462H1282ZM633 1595Q706 1674 777 1766T875 1907H1016V1890Q980
1838 894 1752T703 1579H633V1595Z" />
<glyph unicode="&#xdb;" glyph-name="Ucircumflex" horiz-adv-x="1473" d="M1282 1462V516Q1282 264 1136 122T729 -20Q475 -20 333 122T190 520V1462H293V516Q293 305 410 188T741 70Q950 70 1065 185T1180 506V1462H1282ZM444 1595Q506 1662 575 1751T686 1907H784Q852
1787 1026 1595V1579H956Q834 1680 735 1786Q627 1672 514 1579H444V1595Z" />
<glyph unicode="&#xdc;" glyph-name="Udieresis" horiz-adv-x="1473" d="M1282 1462V516Q1282 264 1136 122T729 -20Q475 -20 333 122T190 520V1462H293V516Q293 305 410 188T741 70Q950 70 1065 185T1180 506V1462H1282ZM481 1727Q481 1773 496 1793T544 1813Q608
1813 608 1727Q608 1641 544 1641Q481 1641 481 1727ZM862 1727Q862 1773 877 1793T925 1813Q989 1813 989 1727Q989 1641 925 1641Q862 1641 862 1727Z" />
<glyph unicode="&#xdd;" glyph-name="Yacute" horiz-adv-x="1081" d="M543 662L971 1462H1081L594 565V0H489V557L0 1462H117L543 662ZM434 1595Q507 1674 578 1766T676 1907H817V1890Q781 1838 695 1752T504 1579H434V1595Z" />
<glyph unicode="&#xde;" glyph-name="Thorn" horiz-adv-x="1198" d="M1087 778Q1087 566 943 453T535 340H309V0H207V1462H309V1198H565Q1087 1198 1087 778ZM309 428H510Q757 428 867 509T977 774Q977 943 873 1024T551 1106H309V428Z" />
<glyph unicode="&#xdf;" glyph-name="germandbls" horiz-adv-x="1194" d="M961 1284Q961 1145 822 1034Q741 970 712 934T682 858Q682 814 696 790T748 733T850 655Q956 580 1001 531T1069 428T1092 307Q1092 151 1004 66T758 -20Q663 -20 584 -2T457 47V154Q522
116 605 92T758 68Q872 68 932 122T993 283Q993 366 954 427T805 563Q678 650 630 710T582 856Q582 916 614 966T721 1074Q795 1131 827 1179T860 1286Q860 1379 790 1429T588 1479Q443 1479 362 1410T281 1214V0H182V1206Q182 1379 285 1473T578 1567Q766 1567
863 1495T961 1284Z" />
<glyph unicode="&#xe0;" glyph-name="agrave" horiz-adv-x="1085" d="M842 0L817 172H809Q727 67 641 24T436 -20Q276 -20 187 62T98 289Q98 448 230 536T614 629L821 635V707Q821 862 758 941T555 1020Q404 1020 242 936L205 1022Q384 1106 559 1106Q738 1106
826 1013T915 723V0H842ZM442 70Q616 70 716 169T817 446V553L627 545Q398 534 301 474T203 285Q203 183 265 127T442 70ZM638 1241H569Q473 1320 381 1412T255 1552V1569H397Q423 1521 495 1427T638 1257V1241Z" />
<glyph unicode="&#xe1;" glyph-name="aacute" horiz-adv-x="1085" d="M842 0L817 172H809Q727 67 641 24T436 -20Q276 -20 187 62T98 289Q98 448 230 536T614 629L821 635V707Q821 862 758 941T555 1020Q404 1020 242 936L205 1022Q384 1106 559 1106Q738 1106
826 1013T915 723V0H842ZM442 70Q616 70 716 169T817 446V553L627 545Q398 534 301 474T203 285Q203 183 265 127T442 70ZM422 1257Q495 1336 566 1428T664 1569H805V1552Q769 1500 683 1414T492 1241H422V1257Z" />
<glyph unicode="&#xe2;" glyph-name="acircumflex" horiz-adv-x="1085" d="M842 0L817 172H809Q727 67 641 24T436 -20Q276 -20 187 62T98 289Q98 448 230 536T614 629L821 635V707Q821 862 758 941T555 1020Q404 1020 242 936L205 1022Q384 1106 559 1106Q738
1106 826 1013T915 723V0H842ZM442 70Q616 70 716 169T817 446V553L627 545Q398 534 301 474T203 285Q203 183 265 127T442 70ZM507 1257Q569 1324 638 1413T749 1569H847Q915 1449 1089 1257V1241H1019Q897 1342 798 1448Q690 1334 577 1241H507V1257Z" />
<glyph unicode="&#xe3;" glyph-name="atilde" horiz-adv-x="1085" d="M842 0L817 172H809Q727 67 641 24T436 -20Q276 -20 187 62T98 289Q98 448 230 536T614 629L821 635V707Q821 862 758 941T555 1020Q404 1020 242 936L205 1022Q384 1106 559 1106Q738 1106
826 1013T915 723V0H842ZM442 70Q616 70 716 169T817 446V553L627 545Q398 534 301 474T203 285Q203 183 265 127T442 70ZM953 1243Q917 1243 878 1261T777 1333Q745 1359 715 1379T652 1399Q607 1399 577 1365T529 1243H456Q466 1354 519 1417T656 1481Q704 1481
744 1456T826 1397Q860 1369 892 1347T953 1325Q999 1325 1030 1361T1078 1481H1154Q1138 1365 1085 1304T953 1243Z" />
<glyph unicode="&#xe4;" glyph-name="adieresis" horiz-adv-x="1085" d="M842 0L817 172H809Q727 67 641 24T436 -20Q276 -20 187 62T98 289Q98 448 230 536T614 629L821 635V707Q821 862 758 941T555 1020Q404 1020 242 936L205 1022Q384 1106 559 1106Q738 1106
826 1013T915 723V0H842ZM442 70Q616 70 716 169T817 446V553L627 545Q398 534 301 474T203 285Q203 183 265 127T442 70ZM538 1389Q538 1435 553 1455T601 1475Q665 1475 665 1389Q665 1303 601 1303Q538 1303 538 1389ZM919 1389Q919 1435 934 1455T982 1475Q1046
1475 1046 1389Q1046 1303 982 1303Q919 1303 919 1389Z" />
<glyph unicode="&#xe5;" glyph-name="aring" horiz-adv-x="1085" d="M842 0L817 172H809Q727 67 641 24T436 -20Q276 -20 187 62T98 289Q98 448 230 536T614 629L821 635V707Q821 862 758 941T555 1020Q404 1020 242 936L205 1022Q384 1106 559 1106Q738 1106
826 1013T915 723V0H842ZM442 70Q616 70 716 169T817 446V553L627 545Q398 534 301 474T203 285Q203 183 265 127T442 70ZM1015 1456Q1015 1359 955 1301T798 1243Q701 1243 641 1301T581 1456Q581 1550 641 1608T798 1667Q895 1667 955 1608T1015 1456ZM661 1456Q661
1390 698 1353T798 1315Q860 1315 897 1352T935 1456Q935 1520 896 1557T798 1595Q736 1595 699 1557T661 1456Z" />
<glyph unicode="&#xe6;" glyph-name="ae" horiz-adv-x="1731" d="M1243 -20Q948 -20 846 236Q778 103 678 42T426 -20Q270 -20 184 62T98 289Q98 443 223 532T600 629L801 635V707Q801 862 740 941T541 1020Q393 1020 236 936L199 1022Q372 1106 545 1106Q806
1106 870 895Q981 1108 1217 1108Q1401 1108 1506 974T1612 610V530H897Q897 70 1245 70Q1330 70 1395 82T1569 139V49Q1477 8 1404 -6T1243 -20ZM434 70Q603 70 700 169T797 446V553L610 545Q391 534 297 474T203 285Q203 183 264 127T434 70ZM1217 1020Q933 1020
903 618H1507Q1507 806 1430 913T1217 1020Z" />
<glyph unicode="&#xe7;" glyph-name="ccedilla" horiz-adv-x="973" d="M616 -20Q383 -20 251 127T119 537Q119 807 256 957T631 1108Q772 1108 901 1059L874 971Q733 1018 629 1018Q429 1018 326 895T223 539Q223 319 326 195T614 70Q762 70 889 123V31Q785 -20
616 -20ZM723 -291Q723 -391 656 -441T467 -492Q399 -492 373 -481V-393Q403 -403 465 -403Q543 -403 584 -375T625 -295Q625 -201 432 -174L525 0H621L555 -117Q723 -154 723 -291Z" />
<glyph unicode="&#xe8;" glyph-name="egrave" horiz-adv-x="1124" d="M621 -20Q384 -20 252 126T119 535Q119 795 247 951T592 1108Q784 1108 895 974T1006 610V530H223Q225 306 327 188T621 70Q714 70 784 83T963 139V49Q871 9 793 -5T621 -20ZM592 1020Q435
1020 340 917T229 618H901Q901 807 819 913T592 1020ZM941 1241H872Q776 1320 684 1412T558 1552V1569H700Q726 1521 798 1427T941 1257V1241Z" />
<glyph unicode="&#xe9;" glyph-name="eacute" horiz-adv-x="1124" d="M621 -20Q384 -20 252 126T119 535Q119 795 247 951T592 1108Q784 1108 895 974T1006 610V530H223Q225 306 327 188T621 70Q714 70 784 83T963 139V49Q871 9 793 -5T621 -20ZM592 1020Q435
1020 340 917T229 618H901Q901 807 819 913T592 1020ZM452 1257Q525 1336 596 1428T694 1569H835V1552Q799 1500 713 1414T522 1241H452V1257Z" />
<glyph unicode="&#xea;" glyph-name="ecircumflex" horiz-adv-x="1124" d="M621 -20Q384 -20 252 126T119 535Q119 795 247 951T592 1108Q784 1108 895 974T1006 610V530H223Q225 306 327 188T621 70Q714 70 784 83T963 139V49Q871 9 793 -5T621 -20ZM592 1020Q435
1020 340 917T229 618H901Q901 807 819 913T592 1020ZM546 1257Q608 1324 677 1413T788 1569H886Q954 1449 1128 1257V1241H1058Q936 1342 837 1448Q729 1334 616 1241H546V1257Z" />
<glyph unicode="&#xeb;" glyph-name="edieresis" horiz-adv-x="1124" d="M621 -20Q384 -20 252 126T119 535Q119 795 247 951T592 1108Q784 1108 895 974T1006 610V530H223Q225 306 327 188T621 70Q714 70 784 83T963 139V49Q871 9 793 -5T621 -20ZM592 1020Q435
1020 340 917T229 618H901Q901 807 819 913T592 1020ZM587 1389Q587 1435 602 1455T650 1475Q714 1475 714 1389Q714 1303 650 1303Q587 1303 587 1389ZM968 1389Q968 1435 983 1455T1031 1475Q1095 1475 1095 1389Q1095 1303 1031 1303Q968 1303 968 1389Z" />
<glyph unicode="&#xec;" glyph-name="igrave" horiz-adv-x="463" d="M281 0H182V1087H281V0ZM349 1241H280Q184 1320 92 1412T-34 1552V1569H108Q134 1521 206 1427T349 1257V1241Z" />
<glyph unicode="&#xed;" glyph-name="iacute" horiz-adv-x="463" d="M281 0H182V1087H281V0ZM107 1257Q180 1336 251 1428T349 1569H490V1552Q454 1500 368 1414T177 1241H107V1257Z" />
<glyph unicode="&#xee;" glyph-name="icircumflex" horiz-adv-x="463" d="M281 0H182V1087H281V0ZM-58 1257Q4 1324 73 1413T184 1569H282Q350 1449 524 1257V1241H454Q332 1342 233 1448Q125 1334 12 1241H-58V1257Z" />
<glyph unicode="&#xef;" glyph-name="idieresis" horiz-adv-x="463" d="M281 0H182V1087H281V0ZM-21 1389Q-21 1435 -6 1455T42 1475Q106 1475 106 1389Q106 1303 42 1303Q-21 1303 -21 1389ZM360 1389Q360 1435 375 1455T423 1475Q487 1475 487 1389Q487 1303
423 1303Q360 1303 360 1389Z" />
<glyph unicode="&#xf0;" glyph-name="eth" horiz-adv-x="1174" d="M1055 559Q1055 283 931 132T582 -20Q368 -20 243 110T117 471Q117 699 243 828T586 958Q694 958 773 925T922 829L926 831Q862 1101 657 1290L387 1133L338 1210L582 1356Q496 1418 383 1475L428
1556Q575 1487 676 1411L901 1548L950 1464L748 1343Q902 1192 978 990T1055 559ZM950 557Q950 703 853 785T586 868Q401 868 311 768T221 463Q221 277 315 174T584 70Q763 70 856 193T950 557Z" />
<glyph unicode="&#xf1;" glyph-name="ntilde" horiz-adv-x="1208" d="M940 0V705Q940 869 871 943T657 1018Q462 1018 372 920T281 600V0H182V1087H266L285 938H291Q397 1108 668 1108Q1038 1108 1038 711V0H940ZM1035 1243Q999 1243 960 1261T859 1333Q827 1359
797 1379T734 1399Q689 1399 659 1365T611 1243H538Q548 1354 601 1417T738 1481Q786 1481 826 1456T908 1397Q942 1369 974 1347T1035 1325Q1081 1325 1112 1361T1160 1481H1236Q1220 1365 1167 1304T1035 1243Z" />
<glyph unicode="&#xf2;" glyph-name="ograve" horiz-adv-x="1200" d="M1081 545Q1081 279 952 130T596 -20Q453 -20 344 49T177 247T119 545Q119 811 248 959T602 1108Q826 1108 953 958T1081 545ZM223 545Q223 321 321 196T600 70Q780 70 878 195T977 545Q977
770 878 894T598 1018Q418 1018 321 895T223 545ZM974 1241H905Q809 1320 717 1412T591 1552V1569H733Q759 1521 831 1427T974 1257V1241Z" />
<glyph unicode="&#xf3;" glyph-name="oacute" horiz-adv-x="1200" d="M1081 545Q1081 279 952 130T596 -20Q453 -20 344 49T177 247T119 545Q119 811 248 959T602 1108Q826 1108 953 958T1081 545ZM223 545Q223 321 321 196T600 70Q780 70 878 195T977 545Q977
770 878 894T598 1018Q418 1018 321 895T223 545ZM499 1257Q572 1336 643 1428T741 1569H882V1552Q846 1500 760 1414T569 1241H499V1257Z" />
<glyph unicode="&#xf4;" glyph-name="ocircumflex" horiz-adv-x="1200" d="M1081 545Q1081 279 952 130T596 -20Q453 -20 344 49T177 247T119 545Q119 811 248 959T602 1108Q826 1108 953 958T1081 545ZM223 545Q223 321 321 196T600 70Q780 70 878 195T977 545Q977
770 878 894T598 1018Q418 1018 321 895T223 545ZM309 1257Q371 1324 440 1413T551 1569H649Q717 1449 891 1257V1241H821Q699 1342 600 1448Q492 1334 379 1241H309V1257Z" />
<glyph unicode="&#xf5;" glyph-name="otilde" horiz-adv-x="1200" d="M1081 545Q1081 279 952 130T596 -20Q453 -20 344 49T177 247T119 545Q119 811 248 959T602 1108Q826 1108 953 958T1081 545ZM223 545Q223 321 321 196T600 70Q780 70 878 195T977 545Q977
770 878 894T598 1018Q418 1018 321 895T223 545ZM1017 1243Q981 1243 942 1261T841 1333Q809 1359 779 1379T716 1399Q671 1399 641 1365T593 1243H520Q530 1354 583 1417T720 1481Q768 1481 808 1456T890 1397Q924 1369 956 1347T1017 1325Q1063 1325 1094 1361T1142
1481H1218Q1202 1365 1149 1304T1017 1243Z" />
<glyph unicode="&#xf6;" glyph-name="odieresis" horiz-adv-x="1200" d="M1081 545Q1081 279 952 130T596 -20Q453 -20 344 49T177 247T119 545Q119 811 248 959T602 1108Q826 1108 953 958T1081 545ZM223 545Q223 321 321 196T600 70Q780 70 878 195T977 545Q977
770 878 894T598 1018Q418 1018 321 895T223 545ZM346 1389Q346 1435 361 1455T409 1475Q473 1475 473 1389Q473 1303 409 1303Q346 1303 346 1389ZM727 1389Q727 1435 742 1455T790 1475Q854 1475 854 1389Q854 1303 790 1303Q727 1303 727 1389Z" />
<glyph unicode="&#xf7;" glyph-name="divide" horiz-adv-x="1169" d="M111 682V764H1059V682H111ZM504 1075Q504 1174 584 1174Q666 1174 666 1075Q666 1023 643 1000T584 977Q550 977 527 1000T504 1075ZM504 371Q504 469 584 469Q666 469 666 371Q666 318 643
295T584 272Q550 272 527 295T504 371Z" />
<glyph unicode="&#xf8;" glyph-name="oslash" horiz-adv-x="1200" d="M1081 545Q1081 279 952 130T596 -20Q423 -20 305 78L219 -35L147 23L240 143Q119 296 119 545Q119 811 248 959T602 1108Q781 1108 903 1004L999 1128L1073 1073L969 936Q1081 789 1081 545ZM223
545Q223 345 301 223L844 928Q746 1018 598 1018Q418 1018 321 895T223 545ZM977 545Q977 735 905 854L362 152Q456 70 600 70Q780 70 878 195T977 545Z" />
<glyph unicode="&#xf9;" glyph-name="ugrave" horiz-adv-x="1208" d="M268 1087V383Q268 219 337 145T551 70Q745 70 836 168T928 487V1087H1026V0H942L924 150H918Q812 -20 541 -20Q170 -20 170 377V1087H268ZM943 1241H874Q778 1320 686 1412T560 1552V1569H702Q728
1521 800 1427T943 1257V1241Z" />
<glyph unicode="&#xfa;" glyph-name="uacute" horiz-adv-x="1208" d="M268 1087V383Q268 219 337 145T551 70Q745 70 836 168T928 487V1087H1026V0H942L924 150H918Q812 -20 541 -20Q170 -20 170 377V1087H268ZM495 1257Q568 1336 639 1428T737 1569H878V1552Q842
1500 756 1414T565 1241H495V1257Z" />
<glyph unicode="&#xfb;" glyph-name="ucircumflex" horiz-adv-x="1208" d="M268 1087V383Q268 219 337 145T551 70Q745 70 836 168T928 487V1087H1026V0H942L924 150H918Q812 -20 541 -20Q170 -20 170 377V1087H268ZM313 1257Q375 1324 444 1413T555 1569H653Q721
1449 895 1257V1241H825Q703 1342 604 1448Q496 1334 383 1241H313V1257Z" />
<glyph unicode="&#xfc;" glyph-name="udieresis" horiz-adv-x="1208" d="M268 1087V383Q268 219 337 145T551 70Q745 70 836 168T928 487V1087H1026V0H942L924 150H918Q812 -20 541 -20Q170 -20 170 377V1087H268ZM350 1389Q350 1435 365 1455T413 1475Q477 1475
477 1389Q477 1303 413 1303Q350 1303 350 1389ZM731 1389Q731 1435 746 1455T794 1475Q858 1475 858 1389Q858 1303 794 1303Q731 1303 731 1389Z" />
<glyph unicode="&#xfd;" glyph-name="yacute" horiz-adv-x="940" d="M0 1087H102L332 477Q437 196 465 98H471Q513 227 608 483L838 1087H940L453 -176Q394 -330 354 -384T261 -465T131 -492Q74 -492 4 -471V-385Q62 -401 129 -401Q180 -401 219 -377T289 -303T362
-143T416 0L0 1087ZM617 1257Q690 1336 761 1428T859 1569H1000V1552Q964 1500 878 1414T687 1241H617V1257Z" />
<glyph unicode="&#xfe;" glyph-name="thorn" horiz-adv-x="1219" d="M281 918Q395 1108 649 1108Q869 1108 984 964T1100 543Q1100 275 979 128T647 -20Q396 -20 281 168H274L277 84Q281 10 281 -78V-492H182V1556H281V1165L274 918H281ZM645 68Q812 68 903 192T995
539Q995 1018 647 1018Q454 1018 368 913T281 559V541Q281 286 366 177T645 68Z" />
<glyph unicode="&#xff;" glyph-name="ydieresis" horiz-adv-x="940" d="M0 1087H102L332 477Q437 196 465 98H471Q513 227 608 483L838 1087H940L453 -176Q394 -330 354 -384T261 -465T131 -492Q74 -492 4 -471V-385Q62 -401 129 -401Q180 -401 219 -377T289 -303T362
-143T416 0L0 1087ZM470 1389Q470 1435 485 1455T533 1475Q597 1475 597 1389Q597 1303 533 1303Q470 1303 470 1389ZM851 1389Q851 1435 866 1455T914 1475Q978 1475 978 1389Q978 1303 914 1303Q851 1303 851 1389Z" />
<glyph unicode="&#x2013;" glyph-name="endash" horiz-adv-x="1024" d="M82 512V594H942V512H82Z" />
<glyph unicode="&#x2014;" glyph-name="emdash" horiz-adv-x="2048" d="M82 512V594H1966V512H82Z" />
<glyph unicode="&#x2018;" glyph-name="quoteleft" horiz-adv-x="297" d="M41 961L29 981Q61 1093 110 1232T203 1462H268Q238 1361 204 1205T158 961H41Z" />
<glyph unicode="&#x2019;" glyph-name="quoteright" horiz-adv-x="297" d="M256 1462L268 1442Q193 1177 94 961H29Q58 1057 90 1202T139 1462H256Z" />
<glyph unicode="&#x201a;" glyph-name="quotesinglbase" horiz-adv-x="451" d="M295 238L307 218Q232 -47 133 -263H68Q97 -167 129 -22T178 238H295Z" />
<glyph unicode="&#x201c;" glyph-name="quotedblleft" horiz-adv-x="614" d="M358 961L346 981Q380 1101 429 1236T520 1462H586Q556 1364 523 1214T475 961H358ZM41 961L29 981Q61 1093 110 1232T203 1462H268Q238 1361 204 1205T158 961H41Z" />
<glyph unicode="&#x201d;" glyph-name="quotedblright" horiz-adv-x="614" d="M256 1462L268 1442Q193 1177 94 961H29Q58 1057 90 1202T139 1462H256ZM573 1462L586 1442Q550 1314 501 1181T412 961H346Q376 1059 409 1209T457 1462H573Z" />
<glyph unicode="&#x201e;" glyph-name="quotedblbase" horiz-adv-x="768" d="M295 238L307 218Q232 -47 133 -263H68Q97 -167 129 -22T178 238H295ZM612 238L625 218Q589 90 540 -43T451 -263H385Q415 -165 448 -15T496 238H612Z" />
<glyph unicode="&#x2022;" glyph-name="bullet" horiz-adv-x="770" d="M231 748Q231 837 271 882T385 928Q458 928 498 881T539 748Q539 663 498 615T385 567Q313 567 272 614T231 748Z" />
<glyph unicode="&#x2039;" glyph-name="guilsinglleft" horiz-adv-x="524" d="M82 543L391 936L453 893L199 530L453 168L391 125L82 516V543Z" />
<glyph unicode="&#x203a;" glyph-name="guilsinglright" horiz-adv-x="524" d="M442 518L133 125L72 168L326 530L72 893L133 936L442 545V518Z" />
</font>
</defs>
</svg>
