<svg width="70" height="50" viewBox="0 0 70 50" fill="none" xmlns="http://www.w3.org/2000/svg">
<path fill-rule="evenodd" clip-rule="evenodd" d="M24.5141 2.09243C23.705 2.14463 17.9109 4.63712 16.7679 5.56365C15.6815 6.44427 12.3773 11.3212 12.0526 11.8023C12.0339 11.8301 12.0163 11.8524 11.9951 11.8784C11.8218 12.09 10.9925 13.1697 10.8641 14.594C10.7414 15.9549 10.695 26.0502 10.6841 28.953C10.6825 29.3864 11.0333 29.7316 11.4667 29.7316H14.7945C15.1539 29.7316 15.4671 29.487 15.5541 29.1383L15.6628 28.7031C15.7198 28.4746 15.6234 28.2354 15.4239 28.1103C15.1875 27.9621 15.1015 27.6592 15.2247 27.4089L16.7309 24.3503C16.7555 24.3004 16.7747 24.248 16.7881 24.194L17.6381 20.7884C17.721 20.4564 18.0099 20.2166 18.3516 20.1964L31.6289 19.4108C32.0787 19.3842 32.4581 19.7418 32.4581 20.1924V28.9487C32.4581 29.3811 32.8087 29.7316 33.2411 29.7316H37.3433C37.7139 29.7316 38.0337 29.4719 38.1096 29.1092L38.1971 28.6917C38.2442 28.4669 38.1508 28.2358 37.9607 28.1069C37.7393 27.9568 37.6531 27.6723 37.754 27.4247L39.1703 23.9464C39.1988 23.8764 39.2168 23.8041 39.2247 23.729C39.2931 23.0765 39.6615 19.7772 40.1515 19.3617C40.6771 18.9161 46.015 15.541 46.3789 15.311C46.3927 15.3023 46.4031 15.2953 46.4164 15.2857C46.66 15.1104 49.2978 13.2209 49.8827 13.1904C50.4412 13.1613 53.4234 14.1434 53.9523 14.3193C54.0063 14.3373 54.061 14.3491 54.1176 14.3552L59.3045 14.9072C60.0353 15.0638 60.5312 15.0072 60.6878 14.9594C61.5856 14.6462 62.4191 14.0807 62.7236 13.8371C63.1771 13.4834 63.2431 13.1237 63.2127 12.9328C63.2047 12.8821 63.191 12.8315 63.1662 12.7867C63.0901 12.6485 62.8814 12.4863 62.7251 12.3823C62.6643 12.3419 62.6069 12.2963 62.5571 12.2429L60.0614 9.56988C59.9675 9.47592 59.9092 9.18274 59.8918 9.04789V8.48675C59.944 7.94389 59.6264 7.47758 59.4611 7.31228L56.277 4.20646C56.0884 4.06068 56.0335 3.88731 56.0272 3.78182C56.0258 3.75821 56.0268 3.73455 56.0278 3.71089C56.0284 3.69567 56.0291 3.68044 56.0291 3.66522V3.26863C56.0291 3.22729 56.0331 3.18603 56.0371 3.14486L56.0371 3.14479L56.038 3.13517C56.0641 2.86512 55.959 2.66076 55.8986 2.5883C55.5807 2.22151 55.217 2.20982 54.8826 2.19907C54.8601 2.19835 54.8377 2.19763 54.8154 2.19681C54.5874 2.18836 54.1334 2.41277 53.8208 2.59094C53.6933 2.66361 53.5532 2.70574 53.4065 2.70588C52.3088 2.70694 47.4613 2.71622 46.3984 2.79711C45.6942 2.85071 43.6249 2.3026 41.8694 1.83762C40.6323 1.50991 39.551 1.2235 39.2132 1.2181C38.8088 1.21164 37.3709 1.57613 35.9121 1.9459C34.4241 2.32308 32.9144 2.70574 32.4581 2.70574C32.0544 2.70574 30.5873 2.57291 29.0154 2.43058C27.0689 2.25434 24.9617 2.06355 24.5141 2.09243ZM42.5329 22.2184L47.0135 17.0998C47.3116 16.7594 47.8721 16.9335 47.9248 17.3829L49.1573 27.9C49.1729 28.0331 49.2392 28.1551 49.3423 28.2408L49.9341 28.7323C50.1193 28.8861 50.1753 29.1465 50.0697 29.3628L49.6832 30.1547C49.5795 30.3671 49.3462 30.4833 49.1142 30.4381L45.5139 29.7363C45.3404 29.7025 45.1958 29.5832 45.1297 29.4193L42.4416 22.7576C42.3679 22.575 42.4033 22.3666 42.5329 22.2184ZM21.4967 23.3141L25.6295 20.8864C25.935 20.7069 26.3267 20.8775 26.4035 21.2234L27.7542 27.3094C27.7754 27.4049 27.823 27.4926 27.8917 27.5624L28.6532 28.3364C28.7977 28.4832 28.8423 28.7013 28.767 28.8931L28.4802 29.6242C28.3919 29.8491 28.1609 29.9841 27.9216 29.9505L24.344 29.4481C24.176 29.4245 24.0299 29.3207 23.9523 29.1698L21.2968 24.0027C21.1703 23.7565 21.258 23.4543 21.4967 23.3141Z" fill="#1A8596"/>
<path d="M6.58644 42.2988C7.46153 41.0001 8.7264 40.6251 10.1875 40.819C10.9985 40.8849 11.7533 41.2532 12.2973 41.8487C12.8413 42.4441 13.1334 43.2216 13.1139 44.0221C13.1698 45.6761 13.1187 47.3338 13.1433 48.9894C13.1494 49.4139 12.909 49.3877 12.6215 49.3917C12.3066 49.3946 12.0551 49.4103 12.0636 48.956C12.0906 47.5478 12.0771 46.1395 12.0702 44.7334C12.065 44.4445 12.0423 44.1562 12.0024 43.87C11.7434 41.8361 9.92822 41.4961 8.5673 41.9468C7.70856 42.2284 7.16706 43.0818 7.15567 44.1677C7.13933 45.6993 7.14017 47.231 7.15809 48.7629C7.16305 49.1817 7.10253 49.4066 6.58275 49.4066C6.05443 49.4066 6.00657 49.1595 6.01026 48.7532C6.02333 47.3048 6.03883 45.8564 6.01026 44.4079C5.96935 42.4722 4.60274 41.4209 2.78456 41.89C2.34195 42.0008 1.94732 42.2489 1.65917 42.5975C1.37092 42.9461 1.20445 43.3768 1.18441 43.8257C1.06232 45.4766 1.04124 47.1332 1.12105 48.7866C1.12801 49.4448 0.790624 49.4183 0.344013 49.3901C0.150651 49.3784 0.0168596 49.3294 0.0235018 49.1057C0.0733712 47.2871 -0.112719 45.4616 0.120813 43.6499C0.30068 42.2534 1.06422 41.2403 2.49989 40.914C4.03424 40.5631 5.44957 40.7832 6.45971 42.1451C6.49155 42.1866 6.53046 42.23 6.58644 42.2988Z" fill="#080B0C"/>
<path d="M62.3778 42.2567C62.9213 41.616 63.6468 41.1496 64.4615 40.9172C65.2762 40.6847 66.1428 40.6968 66.9505 40.9519C69.0225 41.5023 70.0735 43.2509 69.9103 45.7495C69.8656 46.5713 69.5719 47.3611 69.0671 48.0173C68.5622 48.6735 67.8694 49.1661 67.0776 49.4317C66.2542 49.7093 65.3663 49.7451 64.5226 49.5347C63.6788 49.3243 62.9155 48.8768 62.3258 48.2467C61.6333 47.4539 61.2594 46.4391 61.2748 45.3937C61.2561 42.0849 61.27 38.7756 61.265 35.4668C61.265 35.0966 61.3079 34.8174 61.7938 34.8065C62.2984 34.7952 62.3847 35.0568 62.383 35.4716C62.372 37.6837 62.3778 39.8957 62.3778 42.2567ZM62.3778 45.2079C62.3155 47.9281 64.6109 49.1862 66.9124 48.3807C68.3371 47.8822 69.1137 46.2314 68.8127 44.5183C68.5887 43.242 67.9822 42.2595 66.6323 41.903C64.1984 41.2549 62.3736 42.6832 62.3778 45.2074V45.2079Z" fill="#080B0C"/>
<path d="M57.3907 42.2776C57.3907 39.9014 57.3944 37.672 57.3866 35.443C57.3866 35.0636 57.4397 34.7992 57.9272 34.8053C58.3295 34.8117 58.4875 34.9481 58.4858 35.3561C58.4719 38.7313 58.5083 42.1066 58.4608 45.481C58.4257 47.9932 56.5744 49.6711 54.0063 49.632C51.5818 49.5954 49.8225 47.7941 49.8106 45.3354C49.7997 43.042 50.8841 41.413 52.8437 40.9358C54.5322 40.5234 56.0744 40.8022 57.3907 42.2776ZM54.1299 48.6049C56.1214 48.6077 57.3861 47.2916 57.3907 45.2115C57.3952 43.0754 56.1471 41.759 54.1233 41.7642C52.1358 41.7694 50.8927 43.0831 50.8874 45.1877C50.8809 47.2646 52.1486 48.6016 54.1299 48.6044V48.6049Z" fill="#080B0C"/>
<path d="M37.1982 42.4461C37.1982 40.1045 37.2047 37.8385 37.1924 35.5725C37.1904 35.175 37.2705 34.9396 37.7437 34.9545C38.1186 34.9662 38.2659 35.1026 38.2646 35.4776C38.252 38.9112 38.2969 42.3456 38.2327 45.7776C38.1885 48.1425 36.3287 49.7917 33.898 49.7804C33.3431 49.7953 32.7909 49.7017 32.2731 49.5048C31.7554 49.308 31.2826 49.012 30.882 48.6339C30.4815 48.256 30.1612 47.8035 29.9398 47.3027C29.7184 46.8018 29.6003 46.2628 29.5924 45.7167C29.5036 43.5184 30.4078 41.8591 32.1588 41.2423C34.0367 40.5809 35.7603 40.8324 37.1982 42.4461ZM33.9479 48.7529C35.9153 48.7436 37.2193 47.366 37.1969 45.3253C37.1715 43.2022 35.8969 41.8937 33.8718 41.9118C31.9 41.9295 30.654 43.2738 30.6666 45.3696C30.6793 47.4392 31.9621 48.7621 33.9479 48.7529Z" fill="#080B0C"/>
<path d="M44.2274 49.6355C43.0558 49.627 42.0093 49.3381 41.3081 48.3335C41.1244 48.0707 40.8843 47.7561 41.304 47.4833C41.6585 47.2528 41.8948 47.3964 42.1475 47.7079C42.6157 48.2211 43.2527 48.5558 43.9466 48.6535C44.6405 48.7511 45.3472 48.6053 45.9429 48.2418C46.1416 48.1229 46.3021 47.9512 46.4057 47.7464C46.5094 47.5417 46.552 47.3122 46.5284 47.0845C46.5147 46.8656 46.4328 46.6559 46.2939 46.4842C46.1548 46.3126 45.9654 46.1871 45.7515 46.125C44.9517 45.8644 44.135 45.6571 43.3069 45.5046C42.9588 45.4237 42.6184 45.3141 42.289 45.1771C41.9881 45.0502 41.7208 44.8571 41.5079 44.6126C41.2948 44.368 41.1417 44.0786 41.0603 43.7666C40.9789 43.4547 40.9714 43.1285 41.0384 42.8132C41.1053 42.498 41.245 42.202 41.4466 41.9483C42.5001 40.4858 46.1776 40.223 47.2854 42.1205C47.4289 42.3663 47.7483 42.6407 47.3316 42.9135C46.9762 43.1465 46.7182 43.0853 46.4434 42.7055C45.6828 41.6481 43.6303 41.4349 42.6203 42.2657C42.4357 42.3892 42.2909 42.562 42.2029 42.7638C42.1148 42.9656 42.0873 43.188 42.1235 43.4047C42.1596 43.6214 42.2581 43.8234 42.4071 43.9869C42.5562 44.1503 42.7496 44.2685 42.9646 44.3273C43.6381 44.5563 44.3505 44.6762 45.0461 44.8423C45.54 44.9483 46.0168 45.1209 46.4626 45.3553C46.8181 45.5305 47.1172 45.799 47.3269 46.1313C47.5365 46.4635 47.6484 46.8465 47.6502 47.2376C47.652 47.6287 47.5437 48.0127 47.3372 48.3468C47.1307 48.6809 46.834 48.9522 46.4803 49.1306C45.7912 49.5004 45.0114 49.6752 44.2274 49.6355Z" fill="#080B0C"/>
<path d="M27.6459 46.6351C27.6459 47.3799 27.6255 48.1238 27.6541 48.8693C27.6696 49.2717 27.547 49.4121 27.1226 49.3997C26.7353 49.388 26.5501 49.316 26.5558 48.8822C26.5795 47.4962 26.5758 46.1097 26.5619 44.7236C26.5397 42.6089 24.9744 41.4071 22.8814 41.8843C22.3186 42.0026 21.8136 42.3063 21.45 42.7452C21.0862 43.1842 20.8857 43.732 20.8814 44.2983C20.8192 45.787 20.8376 47.2756 20.8479 48.7643C20.8507 49.1828 20.7926 49.3997 20.2754 49.4057C19.7269 49.4121 19.7143 49.1445 19.7273 48.7526C19.7809 47.1835 19.6157 45.6076 19.817 44.0428C20.0901 41.9157 21.6109 40.7195 23.9177 40.7766C24.3939 40.7677 24.867 40.8511 25.3104 41.0222C25.7537 41.1933 26.1584 41.4487 26.5012 41.7738C26.8442 42.0989 27.1187 42.4873 27.3089 42.9168C27.4991 43.3464 27.6014 43.8085 27.61 44.277C27.6631 45.0596 27.6186 45.8462 27.6186 46.634L27.6459 46.6351Z" fill="#080B0C"/>
<path d="M16.9722 45.2297C16.9722 46.4283 16.9558 47.6269 16.9811 48.825C16.9902 49.2455 16.881 49.3944 16.4234 49.3995C15.9269 49.4052 15.8881 49.1819 15.8918 48.796C15.904 46.4408 15.9004 44.085 15.8955 41.7293C15.8955 41.3543 15.884 41.028 16.4271 41.016C16.9702 41.0039 16.9828 41.3065 16.9791 41.6963C16.9652 42.8744 16.9722 44.0521 16.9722 45.2297Z" fill="#080B0C"/>
<path d="M15.5176 38.4097C15.521 38.1711 15.6191 37.9432 15.7911 37.7749C15.963 37.6065 16.1951 37.511 16.4376 37.5089C16.5632 37.5055 16.6879 37.5283 16.8039 37.5757C16.9198 37.6231 17.0242 37.694 17.1104 37.7839C17.1965 37.8738 17.2624 37.9805 17.3036 38.0972C17.3449 38.2138 17.3608 38.3377 17.35 38.4608C17.3377 38.6961 17.2322 38.9173 17.0563 39.0772C16.8803 39.237 16.6478 39.3228 16.4084 39.3161C16.169 39.3094 15.9417 39.2108 15.7753 39.0415C15.6088 38.8721 15.5163 38.6453 15.5176 38.4097Z" fill="#080B0C"/>
</svg>
