<svg width="160" height="160" viewBox="0 0 160 160" fill="none" xmlns="http://www.w3.org/2000/svg">
<path fill-rule="evenodd" clip-rule="evenodd" d="M80 160C122.841 160 157.818 126.324 159.902 84H89.1679C87.6248 87.5318 84.1006 90 80 90C74.4771 90 70 85.5228 70 80C70 74.4772 74.4771 70 80 70C83.7014 70 86.9331 72.011 88.6622 75H99.3699C97.1497 66.3739 89.3192 60 80 60C68.9543 60 60 68.9543 60 80C60 91.0457 68.9543 100 80 100C86.0826 100 91.531 97.2847 95.1992 93H148.795C142.701 125.448 114.218 150 80 150C41.3401 150 10 118.66 10 80C10 41.3401 41.3401 10 80 10C116.979 10 147.26 38.6736 149.824 75H159.846C157.265 33.1464 122.504 0 80 0C35.8172 0 0 35.8172 0 80C0 124.183 35.8172 160 80 160ZM135.838 102C127.064 124.253 105.371 140 80 140C46.8629 140 20 113.137 20 80C20 46.8629 46.8629 20 80 20C111.453 20 137.254 44.2023 139.795 75H129.753C127.245 49.7334 105.927 30 80 30C52.3858 30 30 52.3858 30 80C30 107.614 52.3858 130 80 130C99.72 130 116.774 118.584 124.912 102H135.838ZM113.412 102H100.396C95.0437 106.965 87.8763 110 80 110C63.4315 110 50 96.5685 50 80C50 63.4315 63.4315 50 80 50C94.865 50 107.205 60.8114 109.585 75H119.691C117.23 55.2684 100.398 40 80 40C57.9086 40 40 57.9086 40 80C40 102.091 57.9086 120 80 120C93.9641 120 106.257 112.844 113.412 102Z" fill="#8322FF"/>
</svg>
