<svg xmlns="http://www.w3.org/2000/svg" width="40" height="40" viewBox="0 0 40 40" fill="none">
  <path d="M16.5538 8.26257C16.2839 8.26256 16.0228 8.35929 15.8176 8.53535C15.6124 8.71142 15.4765 8.95526 15.4343 9.22299L13.5737 21.0702L11.8643 31.9564L11.8632 31.9655L11.8653 31.9564L13.5748 21.0702C13.6617 20.5169 14.1361 20.1098 14.6936 20.1098H20.1443C25.6299 20.1098 30.2858 16.0909 31.1361 10.6449C31.2009 10.2311 31.2356 9.82127 31.2434 9.41682V9.4162H31.2428C29.8488 8.68174 28.2117 8.26257 26.418 8.26257H16.5538Z" fill="#001C64"/>
  <path d="M31.2432 9.41638C31.2355 9.82082 31.2004 10.2311 31.1358 10.6448C30.2855 16.0908 25.6296 20.1098 20.144 20.1098H14.6934C14.1358 20.1098 13.6614 20.5169 13.5745 21.0702L11.865 31.9564L10.7922 38.7863C10.7715 38.9182 10.7796 39.0531 10.8158 39.1816C10.852 39.3101 10.9154 39.4292 11.0019 39.5307C11.0883 39.6322 11.1956 39.7137 11.3163 39.7696C11.4371 39.8255 11.5685 39.8545 11.7015 39.8545H17.6179C17.8878 39.8545 18.1489 39.7578 18.3541 39.5817C18.5594 39.4057 18.6953 39.1618 18.7374 38.8941L20.296 28.9683C20.3833 28.415 20.8579 28.0073 21.4155 28.0073H24.8992C30.3848 28.0073 35.0401 23.9886 35.8904 18.543C36.494 14.677 34.5566 11.1602 31.2432 9.41638Z" fill="#0070E0"/>
  <path d="M9.83222 0.36377C9.56221 0.363778 9.30106 0.460596 9.09582 0.636788C8.89058 0.812979 8.75473 1.05697 8.71273 1.32482L4.07024 30.8875C4.04948 31.0195 4.05745 31.1544 4.0936 31.283C4.12975 31.4116 4.19322 31.5308 4.27965 31.6324C4.36607 31.7339 4.4734 31.8155 4.59424 31.8714C4.71507 31.9274 4.84653 31.9563 4.97958 31.9564H11.8644L13.5738 21.0702L15.4344 9.22296C15.4766 8.95523 15.6125 8.71139 15.8177 8.53532C16.0229 8.35925 16.284 8.26252 16.5539 8.26254H26.4177C28.2118 8.26254 29.8489 8.68232 31.2431 9.41575C31.3381 4.45775 27.2641 0.36377 21.6621 0.36377H9.83222Z" fill="#003087"/>
</svg>