<?xml version="1.0" encoding="UTF-8"?>
<svg version="1.1" xmlns="http://www.w3.org/2000/svg" width="2449" height="2449">
<path d="M0 0 C4.31097928 0.00460601 8.62167462 -0.00221921 12.93261719 -0.02050781 C53.03164518 -0.18870786 93.04644099 1.34613852 132.94140625 5.56567383 C133.93768036 5.66827515 134.93395447 5.77087646 135.9604187 5.87658691 C189.81083311 11.44921504 243.25552253 20.60320436 295.87890625 33.31567383 C296.73103699 33.52107788 297.58316772 33.72648193 298.46112061 33.93811035 C368.54990621 50.88121888 436.95801574 74.10225328 502.87890625 103.31567383 C503.58001526 103.62551208 504.28112427 103.93535034 505.003479 104.25457764 C537.48867792 118.62063898 569.68010327 133.98610818 600.37939453 151.88452148 C603.83363893 153.86232776 607.34070237 155.7350655 610.85058594 157.61181641 C638.09558213 172.19685347 664.32181771 188.96926251 689.87890625 206.31567383 C690.62237305 206.81953613 691.36583984 207.32339844 692.13183594 207.8425293 C722.76755811 228.63060902 752.66190146 250.60533096 781.24609375 274.14770508 C782.99620151 275.58881755 784.75140237 277.02376786 786.51171875 278.45239258 C792.85916257 283.60622087 799.08925533 288.88356324 805.28125 294.22192383 C807.61674005 296.23512508 809.96247027 298.23495544 812.3203125 300.22192383 C819.47948149 306.27129424 826.40512438 312.51860503 833.19873047 318.97705078 C836.41353776 322.02958211 839.65996041 325.01897181 843.01171875 327.92114258 C847.22150315 331.57517817 851.0780568 335.48347861 854.97265625 339.47192383 C857.05615347 341.56054111 859.22670091 343.49641723 861.46875 345.41333008 C866.66792238 349.91764259 871.50038585 354.78729571 876.35180664 359.65820312 C877.93850571 361.25026349 879.53048367 362.83690373 881.12304688 364.4230957 C886.06052798 369.35768799 890.88845353 374.33707289 895.42749023 379.64599609 C897.46396609 381.98871407 899.65574681 384.15101859 901.87890625 386.31567383 C905.38483667 389.78475513 908.70689888 393.3184671 911.91015625 397.06567383 C913.95682318 399.40472175 916.0632777 401.67663906 918.18457031 403.94775391 C923.23274616 409.35326019 928.03483278 414.86547402 932.66796875 420.63598633 C934.98825575 423.44820697 937.40961759 426.13364645 939.87890625 428.81567383 C944.29267737 433.62208103 948.44250935 438.58677466 952.53759766 443.6652832 C954.08077662 445.56406183 955.64081422 447.44823121 957.203125 449.33129883 C963.76525025 457.24281379 970.21795079 465.20160299 976.42236328 473.39819336 C978.13808937 475.65687802 979.86579353 477.9061762 981.59375 480.15551758 C990.22199196 491.40330798 998.68687415 502.74614205 1006.87890625 514.31567383 C1007.47606445 515.15727051 1008.07322266 515.99886719 1008.68847656 516.8659668 C1055.15896276 582.52869159 1095.31616573 652.80736238 1127.98828125 726.31304932 C1128.84951203 728.24957914 1129.713555 730.18483218 1130.578125 732.11987305 C1156.8111932 790.93489676 1177.48424488 852.07635781 1193.87890625 914.31567383 C1194.08022156 915.07732849 1194.28153687 915.83898315 1194.48895264 916.62371826 C1211.07052798 979.44299864 1221.90084321 1043.60251214 1228.12890625 1108.25317383 C1228.2447406 1109.44555161 1228.2447406 1109.44555161 1228.36291504 1110.66201782 C1230.88187785 1136.93713358 1232.195563 1163.09433533 1232.1796875 1189.48754883 C1232.18202021 1191.56733777 1232.18552566 1193.64712272 1232.18909425 1195.72690988 C1232.20003471 1202.23844914 1232.20071839 1208.7499307 1232.19458008 1215.26147461 C1232.18923812 1221.10952428 1232.19625962 1226.95739866 1232.21508789 1232.80541992 C1232.31855313 1265.72679673 1232.11297363 1298.48627261 1229.06493759 1331.29927826 C1228.79013973 1334.27781507 1228.53521882 1337.25805715 1228.27661133 1340.23803711 C1227.789318 1345.66711003 1227.22869271 1351.08548774 1226.62890625 1356.50317383 C1226.52630493 1357.44718048 1226.42370361 1358.39118713 1226.31799316 1359.36380005 C1216.22549882 1451.6934352 1195.89229267 1543.09872305 1075.57080078 1827.37768555 C1073.75569731 1830.52962713 1071.95546578 1833.68979489 1070.15625 1836.85083008 C1063.1516256 1849.12209609 1055.94921475 1861.2134476 1048.29980469 1873.09301758 C1046.89409187 1875.29191955 1045.51178913 1877.50375177 1044.13671875 1879.72192383 C1016.12913292 1924.80742538 984.34875215 1968.05344276 949.96704102 2008.47558594 C947.03606964 2011.92707242 944.16175874 2015.41785645 941.31640625 2018.94067383 C937.44311353 2023.70087436 933.37130633 2028.24372166 929.21875 2032.76098633 C927.22055777 2034.94265197 925.25741736 2037.14578691 923.31640625 2039.37817383 C913.28947477 2050.8974858 903.08727122 2062.39540036 892.109375 2073.02270508 C890.26444258 2074.91933438 888.55115349 2076.84690654 886.83203125 2078.85473633 C882.43666983 2083.91483377 877.71005481 2088.63478471 872.96362305 2093.36132812 C871.44398957 2094.87559963 869.92978108 2096.39514813 868.41601562 2097.9152832 C863.60550821 2102.72873793 858.73885345 2107.41872846 853.56616211 2111.84667969 C851.21877569 2113.89041057 849.04937966 2116.08653897 846.87890625 2118.31567383 C843.40982494 2121.82160425 839.87611298 2125.14366646 836.12890625 2128.34692383 C833.78985833 2130.39359076 831.51794102 2132.50004528 829.24682617 2134.62133789 C823.84131989 2139.66951374 818.32910606 2144.47160036 812.55859375 2149.10473633 C809.7463731 2151.42502333 807.06093362 2153.84638517 804.37890625 2156.31567383 C799.57249905 2160.72944495 794.60780542 2164.87927692 789.52929688 2168.97436523 C787.63051825 2170.5175442 785.74634886 2172.0775818 783.86328125 2173.63989258 C775.95176629 2180.20201782 767.99297709 2186.65471837 759.79638672 2192.85913086 C757.53770205 2194.57485695 755.28840388 2196.30256111 753.0390625 2198.03051758 C742.51786347 2206.10109346 731.92158336 2214.04366079 721.11376953 2221.72680664 C719.63114267 2222.78087433 718.15032579 2223.83749279 716.67138672 2224.89672852 C665.75341196 2261.3350781 611.55796074 2292.78633266 555.87890625 2321.31567383 C554.95174805 2321.79359375 554.02458984 2322.27151367 553.06933594 2322.76391602 C469.41674495 2365.81447136 378.62175866 2397.27532339 110.51147461 2446.09564209 C107.9150021 2446.31265691 105.31983946 2446.54184088 102.72460938 2446.77319336 C39.57938164 2452.29208649 -26.21692749 2452.37867791 -89.34277344 2446.56890869 C-92.28497576 2446.30073652 -95.22820064 2446.04713013 -98.171875 2445.7956543 C-158.164455 2440.62347142 -217.4880133 2430.97769232 -276.12109375 2417.31567383 C-276.87400696 2417.14076416 -277.62692017 2416.96585449 -278.40264893 2416.78564453 C-353.26785709 2399.34315709 -426.08062531 2373.88089899 -496.12109375 2342.31567383 C-497.15331055 2341.85177246 -498.18552734 2341.38787109 -499.24902344 2340.90991211 C-528.98544828 2327.48601421 -558.52371218 2313.1723763 -586.703125 2296.70825195 C-589.94777367 2294.83956496 -593.23623807 2293.05744975 -596.52929688 2291.27587891 C-663.11392316 2255.23556604 -725.9821297 2209.85761647 -783.48388672 2160.71459961 C-785.21642701 2159.23421549 -786.95194036 2157.75736025 -788.6875 2156.28051758 C-794.83582534 2151.03937649 -800.92325376 2145.74594594 -806.90625 2140.31567383 C-808.89521877 2138.51963854 -810.90672569 2136.7561408 -812.93359375 2135.00317383 C-818.77977973 2129.90231834 -824.44154464 2124.60007277 -830.12109375 2119.31567383 C-830.74157593 2118.73875793 -831.36205811 2118.16184204 -832.00134277 2117.56744385 C-842.37457674 2107.90710018 -852.53695008 2098.05925046 -862.54541016 2088.02172852 C-864.77650947 2085.78518388 -867.01302322 2083.55415083 -869.25 2081.32348633 C-870.69954007 2079.8732866 -872.14877054 2078.42277732 -873.59765625 2076.97192383 C-874.25190582 2076.31969849 -874.9061554 2075.66747314 -875.58023071 2074.9954834 C-879.3856892 2071.17084164 -883.00558498 2067.23892527 -886.51254272 2063.13830566 C-888.14783017 2061.28537908 -889.85676985 2059.54546302 -891.62109375 2057.81567383 C-894.6134375 2054.86967168 -897.37433547 2051.78584375 -900.11328125 2048.60473633 C-902.06472162 2046.37994244 -904.06293023 2044.20396882 -906.07568359 2042.03466797 C-910.9041386 2036.82860089 -915.48614505 2031.49751402 -919.94140625 2025.96411133 C-922.09866774 2023.34292264 -924.33420375 2020.82413102 -926.62109375 2018.31567383 C-931.32572947 2013.14057453 -935.72627514 2007.75426185 -940.12109375 2002.31567383 C-941.12027032 2001.09624866 -942.1203194 1999.87753806 -943.12109375 1998.65942383 C-950.38931494 1989.79598263 -957.42916342 1980.78307756 -964.34960938 1971.64624023 C-966.24886453 1969.14757848 -968.16047933 1966.65872594 -970.07421875 1964.17114258 C-977.81707383 1954.09185026 -985.36704032 1943.92095481 -992.61279297 1933.47875977 C-994.18776095 1931.22006499 -995.77954784 1928.97400256 -997.375 1926.72973633 C-1006.99336814 1913.16452057 -1016.11229816 1899.29007222 -1025.12109375 1885.31567383 C-1025.94456299 1884.04191895 -1025.94456299 1884.04191895 -1026.78466797 1882.74243164 C-1055.27499071 1838.57465216 -1081.01628674 1791.98996807 -1103.12109375 1744.31567383 C-1103.9112085 1742.61193604 -1103.9112085 1742.61193604 -1104.71728516 1740.8737793 C-1120.37750298 1706.95320827 -1134.41069406 1672.4466886 -1147.12109375 1637.31567383 C-1147.38901733 1636.57591309 -1147.65694092 1635.83615234 -1147.9329834 1635.07397461 C-1177.68541989 1552.7167869 -1197.37677492 1466.49148489 -1214.37109375 1320.44067383 C-1214.49585587 1318.85364655 -1214.49585587 1318.85364655 -1214.62313843 1317.23455811 C-1214.86190927 1314.16039474 -1215.09457742 1311.08584424 -1215.32421875 1308.01098633 C-1215.39065079 1307.14040588 -1215.45708282 1306.26982544 -1215.52552795 1305.37286377 C-1216.79470307 1287.89779736 -1217.29082803 1270.44622025 -1217.32421875 1252.92895508 C-1217.32704613 1251.8963323 -1217.3298735 1250.86370953 -1217.33278656 1249.79979515 C-1217.34765589 1244.30858497 -1217.35695608 1238.81740012 -1217.36132812 1233.32617188 C-1217.36566027 1228.91267389 -1217.37936311 1224.49937721 -1217.40234375 1220.0859375 C-1217.52568522 1195.87038599 -1217.23475054 1171.75707753 -1215.74609375 1147.58129883 C-1215.68441261 1146.57858255 -1215.62273148 1145.57586628 -1215.55918121 1144.54276466 C-1212.23531477 1091.7589345 -1205.23843389 1039.21987946 -1195.12109375 987.31567383 C-1194.97389893 986.55778564 -1194.8267041 985.79989746 -1194.67504883 985.01904297 C-1184.18822613 931.20885652 -1169.7411107 878.30615919 -1151.87109375 826.49212646 C-1151.11847043 824.30806113 -1150.36947587 822.12277769 -1149.62109375 819.93725586 C-1135.26004007 778.0680136 -1118.11648345 737.28742576 -1099.12109375 697.31567383 C-1098.57179199 696.15535645 -1098.02249023 694.99503906 -1097.45654297 693.79956055 C-1091.06146656 680.30997525 -1084.53677402 666.91598102 -1077.44726562 653.77661133 C-1075.99157529 651.07533029 -1074.54863797 648.36741349 -1073.10546875 645.65942383 C-1065.44594654 631.34260365 -1057.40309078 617.28033981 -1049.12109375 603.31567383 C-1048.22003906 601.79006836 -1048.22003906 601.79006836 -1047.30078125 600.23364258 C-1025.76505576 563.80619201 -1002.19174315 528.73615502 -976.95068359 494.77905273 C-975.71961308 493.12152651 -974.49081049 491.46231371 -973.26416016 489.80151367 C-965.00815584 478.62352503 -956.49528261 467.74067821 -947.58398438 457.07836914 C-945.66625338 454.76761851 -943.79647106 452.42077482 -941.93359375 450.06567383 C-938.46412257 445.69918125 -934.87149557 441.4459301 -931.25488281 437.20141602 C-928.34416024 433.78046326 -925.4972475 430.31744942 -922.68359375 426.81567383 C-918.30658255 421.43281445 -913.62555248 416.3729604 -908.89453125 411.30395508 C-906.75755061 409.01208973 -904.66886027 406.68808626 -902.62109375 404.31567383 C-898.16267513 399.17134466 -893.51676943 394.19978086 -888.88357544 389.21359253 C-887.74773853 387.99047281 -886.61280117 386.76651682 -885.47897339 385.54153442 C-876.02027922 375.32785915 -866.33224087 365.36896681 -856.4753418 355.53955078 C-854.15750537 353.22714659 -851.84516071 350.90934484 -849.53320312 348.59106445 C-848.03287311 347.09139426 -846.53223345 345.59203377 -845.03125 344.09301758 C-844.01539574 343.07412697 -844.01539574 343.07412697 -842.97901917 342.03465271 C-839.09189564 338.16633034 -835.10391482 334.47864259 -830.93479919 330.91529846 C-829.08448456 329.2833858 -827.34796096 327.57699637 -825.62109375 325.81567383 C-822.6750916 322.82333007 -819.59126368 320.0624321 -816.41015625 317.32348633 C-814.18536236 315.37204595 -812.00938874 313.37383735 -809.84008789 311.36108398 C-804.63402081 306.53262897 -799.30293395 301.95062252 -793.76953125 297.49536133 C-791.14834256 295.33809984 -788.62955094 293.10256382 -786.12109375 290.81567383 C-780.94599445 286.1110381 -775.55968178 281.71049244 -770.12109375 277.31567383 C-768.90166858 276.31649726 -767.68295798 275.31644817 -766.46484375 274.31567383 C-757.60140255 267.04745264 -748.58849748 260.00760416 -739.45166016 253.0871582 C-736.9529984 251.18790305 -734.46414586 249.27628825 -731.9765625 247.36254883 C-721.89727018 239.61969375 -711.72637474 232.06972726 -701.28417969 224.82397461 C-699.02548491 223.24900662 -696.77942248 221.65721973 -694.53515625 220.06176758 C-659.1465872 194.96766148 -622.03319826 172.3709392 -584.12109375 151.31567383 C-583.19603027 150.80020996 -582.2709668 150.28474609 -581.31787109 149.75366211 C-547.18966586 130.81858664 -512.05189804 113.54988225 -476.12109375 98.31567383 C-475.35724365 97.99078979 -474.59339355 97.66590576 -473.80639648 97.33117676 C-388.47578287 61.06986749 -299.40803818 34.41218497 -100.87109375 4.06567383 C-99.60829086 3.94983948 -99.60829086 3.94983948 -98.31997681 3.83166504 C-91.92522531 3.25336804 -85.52596988 2.76709365 -79.12109375 2.31567383 C-77.91277893 2.22847076 -76.70446411 2.1412677 -75.45953369 2.05142212 C-50.30865487 0.29029118 -25.20663221 -0.02913363 0 0 Z " fill="#00B2D4" transform="translate(1217.12109375,-0.315673828125)"/>
<path d="M0 0 C0.82213989 -0.00013092 1.64427979 -0.00026184 2.49133301 -0.00039673 C41.30592434 0.11116185 83.56013499 8.67292628 117.74560547 27.32910156 C120.08235202 28.58221157 122.44597429 29.77281603 124.81640625 30.9609375 C158.32463847 47.87941507 189.90902479 72.51781936 212.8125 102.4375 C213.80075473 103.67554088 214.79044972 104.91243287 215.78125 106.1484375 C233.76068436 128.81414545 247.88216488 154.28450245 257.8125 181.4375 C258.21976318 182.53578125 258.21976318 182.53578125 258.63525391 183.65625 C273.95883241 225.45299038 279.17183072 273.51695126 270.8125 317.4375 C270.43209433 319.61432184 270.05328141 321.79142241 269.67578125 323.96875 C267.65366636 335.32994971 265.42160928 346.46111731 261.54882812 357.35400391 C260.71967617 359.70015204 259.93165882 362.05870591 259.140625 364.41796875 C243.42157249 410.3204366 215.18043185 453.17662497 177.8125 484.4375 C177.32491211 484.8495166 176.83732422 485.2615332 176.33496094 485.68603516 C153.6826498 504.72187689 128.35928679 519.40703798 100.99511719 530.53710938 C99.17296316 531.28879887 97.36902634 532.08445446 95.5703125 532.890625 C78.59846333 540.48709007 60.13181353 543.86073419 41.90161133 546.90161133 C39.98827274 547.23353089 38.07978222 547.5971295 36.18237305 548.01049805 C25.19757043 550.26160547 13.90977434 549.78824082 2.75 549.75 C1.63101318 549.74784485 0.51202637 549.7456897 -0.64086914 549.74346924 C-41.73964899 549.61613044 -81.00495298 542.63158936 -118.1875 524.4375 C-119.06728516 524.00985352 -119.94707031 523.58220703 -120.85351562 523.14160156 C-143.87489344 511.83831246 -165.06551014 497.86580715 -183.95703125 480.484375 C-186.02046274 478.59078813 -188.12324581 476.75923836 -190.25 474.9375 C-236.94020094 434.17770764 -264.2814598 373.63482955 -274.1875 313.4375 C-274.36756592 312.36870605 -274.36756592 312.36870605 -274.55126953 311.27832031 C-279.66831648 279.2338624 -277.39412066 243.68771099 -269.1875 212.4375 C-268.94515625 211.49583984 -268.7028125 210.55417969 -268.453125 209.58398438 C-258.10369448 169.73360361 -240.75579721 133.11127223 -214.1875 101.4375 C-213.77628906 100.93750488 -213.36507813 100.43750977 -212.94140625 99.92236328 C-201.60083562 86.14521352 -189.25333567 73.43991747 -175.1875 62.4375 C-174.36765625 61.73882813 -173.5478125 61.04015625 -172.703125 60.3203125 C-145.13132986 36.84251118 -111.48816784 21.19992341 -77.1875 10.4375 C-76.35669922 10.17598145 -75.52589844 9.91446289 -74.66992188 9.64501953 C-50.68022203 2.33961854 -24.96754248 -0.04096228 0 0 Z " fill="#00B2D4" transform="translate(1898.1875,945.5625)"/>
<path d="M0 0 C1.08624161 0.00040787 1.08624161 0.00040787 2.19442749 0.00082397 C14.25157923 0.02155697 26.10328259 0.61670043 38.0625 2.1875 C38.8683252 2.28401855 39.67415039 2.38053711 40.50439453 2.47998047 C88.84782915 8.304145 135.36109717 29.74073239 173.0625 60.1875 C173.65836914 60.66622559 174.25423828 61.14495117 174.86816406 61.63818359 C189.23086927 73.27804356 202.89007836 86.43496535 214.0625 101.1875 C214.98741247 102.36136214 215.91326138 103.53448679 216.83984375 104.70703125 C244.15671344 139.70092932 270.21783696 190.05362572 270.25 235.5 C270.26224609 236.39912109 270.27449219 237.29824219 270.28710938 238.22460938 C270.31941017 253.11527642 265.28042625 268.19326313 255.0625 279.1875 C254.38316406 279.94546875 253.70382812 280.7034375 253.00390625 281.484375 C239.34409208 295.99640574 220.64234345 302.87342074 201.0625 304.1875 C195.6375219 304.32724576 190.21453536 304.31849115 184.78829956 304.30775452 C183.14212309 304.3081911 181.4959467 304.3090676 179.84977067 304.31034368 C175.3459304 304.31257158 170.84211408 304.30859076 166.33827686 304.30356562 C161.47405818 304.29923677 156.60984079 304.30070927 151.74562073 304.3014679 C143.32454993 304.30199159 134.9034869 304.29886094 126.48241806 304.29323006 C114.30704892 304.28509411 102.13168352 304.28249769 89.95631196 304.28124207 C70.20134126 304.27905484 50.4463747 304.27240368 30.69140625 304.26293945 C11.50423198 304.25375682 -7.68294116 304.24668015 -26.87011719 304.24243164 C-28.6449322 304.24203756 -28.6449322 304.24203756 -30.45560206 304.24163551 C-36.391572 304.24033045 -42.32754195 304.23906674 -48.2635119 304.23782361 C-97.48817745 304.22746125 -146.71283853 304.20985189 -195.9375 304.1875 C-195.61966914 306.10856733 -195.30118376 308.02952639 -194.98242188 309.95043945 C-194.8051355 311.02018509 -194.62784912 312.08993073 -194.44519043 313.1920929 C-186.3126839 361.17441916 -154.41266494 407.37112182 -115.046875 435.359375 C-81.14961638 458.94716901 -42.51933241 471.32756632 -1.23339844 471.42773438 C1.16246833 471.43739903 3.55745965 471.46850399 5.953125 471.5 C16.65623922 471.57219755 26.58964703 470.30887847 37.0625 468.1875 C39.39491412 467.80682455 41.72811869 467.43092008 44.0625 467.0625 C61.16874913 463.57552713 77.81233072 456.58816468 93.0625 448.1875 C94.07699219 447.64867187 95.09148437 447.10984375 96.13671875 446.5546875 C110.34902354 438.69902103 123.0439226 428.03446711 135.0625 417.1875 C135.93261719 416.40246094 136.80273438 415.61742187 137.69921875 414.80859375 C143.6004934 409.19240483 148.49283392 402.95307355 153.33422852 396.42700195 C158.1623838 389.92391184 163.09218842 383.33637698 169.5625 378.375 C170.2534375 377.83230469 170.944375 377.28960938 171.65625 376.73046875 C180.7181273 370.91968704 190.58701041 370.7142555 201.0625 372.1875 C211.42317699 374.98209516 219.53407497 381.58755102 224.875 390.75 C228.19109057 396.91815481 229.42782714 402.50894995 229.375 409.5 C229.37081055 410.254021 229.36662109 411.00804199 229.36230469 411.78491211 C229.24838709 417.39898943 228.47604717 422.07459087 226.0625 427.1875 C225.83046875 427.79980469 225.5984375 428.41210938 225.359375 429.04296875 C222.55734161 435.70466578 217.43294234 440.87931404 212.72045898 446.24267578 C210.76358938 448.53812907 208.90178136 450.9015884 207.0234375 453.26171875 C201.91562691 459.5229575 196.33824779 465.2490946 190.61694336 470.94873047 C188.88567185 472.6768476 187.16817958 474.4178804 185.45117188 476.16015625 C177.80067456 483.85374863 169.74616475 490.69124095 161.0625 497.1875 C160.47314163 497.6319899 159.88378326 498.0764798 159.27656555 498.53443909 C141.42558048 511.98225975 121.05707572 522.15854112 100.29101562 530.31201172 C98.52374131 531.00629806 96.76752869 531.7287316 95.015625 532.4609375 C65.10835773 544.6485811 32.5354254 549.40307552 0.4375 549.4375 C-0.31196899 549.43883942 -1.06143799 549.44017883 -1.83361816 549.44155884 C-17.01203431 549.43574842 -31.89491408 548.3015519 -46.9375 546.1875 C-48.07856201 546.02725342 -48.07856201 546.02725342 -49.24267578 545.86376953 C-90.44933021 539.67514991 -130.90053015 520.02040095 -163.9375 495.1875 C-164.50388184 494.76533203 -165.07026367 494.34316406 -165.65380859 493.90820312 C-175.35783556 486.63496793 -184.22504026 478.61241981 -192.9375 470.1875 C-193.49244141 469.65447266 -194.04738281 469.12144531 -194.61914062 468.57226562 C-201.59644467 461.84806814 -207.94791314 454.8162337 -213.9375 447.1875 C-214.80708999 446.11856658 -215.67824968 445.05090867 -216.55078125 443.984375 C-233.23251825 423.43652268 -246.51215756 399.97001065 -256.10400391 375.32226562 C-256.89588318 373.29408977 -257.71601479 371.27969917 -258.54296875 369.265625 C-283.92160269 306.17699551 -279.96835425 231.35067549 -254.09069824 169.15216064 C-241.08935814 139.0465459 -223.83284825 111.99768727 -201.50390625 87.9765625 C-199.36251785 85.64939155 -197.29407371 83.28691385 -195.25 80.875 C-192.43525808 77.63438697 -189.40591671 74.84133384 -186.12890625 72.07421875 C-184.60318432 70.76062928 -183.11291402 69.40520048 -181.65234375 68.01953125 C-157.22739421 44.87811848 -126.3910848 27.69063652 -94.9375 16.1875 C-94.2053125 15.91599121 -93.473125 15.64448242 -92.71875 15.36474609 C-71.75621518 7.67943272 -50.12553491 3.31709849 -27.9375 1.1875 C-27.01203369 1.09251221 -26.08656738 0.99752441 -25.13305664 0.8996582 C-16.75964159 0.10625368 -8.40390163 -0.01192453 0 0 Z " fill="#FEFEFE" transform="translate(1076.9375,946.8125)"/>
<path d="M0 0 C0.82213989 -0.00013092 1.64427979 -0.00026184 2.49133301 -0.00039673 C41.30592434 0.11116185 83.56013499 8.67292628 117.74560547 27.32910156 C120.08235202 28.58221157 122.44597429 29.77281603 124.81640625 30.9609375 C158.32463847 47.87941507 189.90902479 72.51781936 212.8125 102.4375 C213.80075473 103.67554088 214.79044972 104.91243287 215.78125 106.1484375 C233.76068436 128.81414545 247.88216488 154.28450245 257.8125 181.4375 C258.21976318 182.53578125 258.21976318 182.53578125 258.63525391 183.65625 C273.95883241 225.45299038 279.17183072 273.51695126 270.8125 317.4375 C270.43209433 319.61432184 270.05328141 321.79142241 269.67578125 323.96875 C267.65366636 335.32994971 265.42160928 346.46111731 261.54882812 357.35400391 C260.71967617 359.70015204 259.93165882 362.05870591 259.140625 364.41796875 C243.42157249 410.3204366 215.18043185 453.17662497 177.8125 484.4375 C177.32491211 484.8495166 176.83732422 485.2615332 176.33496094 485.68603516 C153.6826498 504.72187689 128.35928679 519.40703798 100.99511719 530.53710938 C99.17296316 531.28879887 97.36902634 532.08445446 95.5703125 532.890625 C78.59846333 540.48709007 60.13181353 543.86073419 41.90161133 546.90161133 C39.98827274 547.23353089 38.07978222 547.5971295 36.18237305 548.01049805 C25.19757043 550.26160547 13.90977434 549.78824082 2.75 549.75 C1.63101318 549.74784485 0.51202637 549.7456897 -0.64086914 549.74346924 C-41.73964899 549.61613044 -81.00495298 542.63158936 -118.1875 524.4375 C-119.06728516 524.00985352 -119.94707031 523.58220703 -120.85351562 523.14160156 C-143.87489344 511.83831246 -165.06551014 497.86580715 -183.95703125 480.484375 C-186.02046274 478.59078813 -188.12324581 476.75923836 -190.25 474.9375 C-236.94020094 434.17770764 -264.2814598 373.63482955 -274.1875 313.4375 C-274.36756592 312.36870605 -274.36756592 312.36870605 -274.55126953 311.27832031 C-279.66831648 279.2338624 -277.39412066 243.68771099 -269.1875 212.4375 C-268.94515625 211.49583984 -268.7028125 210.55417969 -268.453125 209.58398438 C-258.10369448 169.73360361 -240.75579721 133.11127223 -214.1875 101.4375 C-213.77628906 100.93750488 -213.36507813 100.43750977 -212.94140625 99.92236328 C-201.60083562 86.14521352 -189.25333567 73.43991747 -175.1875 62.4375 C-174.36765625 61.73882813 -173.5478125 61.04015625 -172.703125 60.3203125 C-145.13132986 36.84251118 -111.48816784 21.19992341 -77.1875 10.4375 C-76.35669922 10.17598145 -75.52589844 9.91446289 -74.66992188 9.64501953 C-50.68022203 2.33961854 -24.96754248 -0.04096228 0 0 Z M-49 84.0625 C-49.69172302 84.23635223 -50.38344604 84.41020447 -51.09613037 84.58932495 C-62.63318755 87.51083607 -73.47512156 91.23013106 -84.1875 96.4375 C-85.44085182 97.0194248 -86.69474268 97.60019026 -87.94921875 98.1796875 C-128.15169667 117.37426992 -165.99872233 154.29598492 -182.0625 196.375 C-182.42085937 197.40238281 -182.77921875 198.42976563 -183.1484375 199.48828125 C-184.18478559 202.42979558 -185.40896302 205.21912789 -186.6875 208.0625 C-191.37034415 219.17132902 -194.27095434 231.54747401 -196.1875 243.4375 C-196.37183594 244.43652344 -196.55617188 245.43554688 -196.74609375 246.46484375 C-204.54413185 295.99583057 -191.16285182 349.34799298 -161.76171875 389.80859375 C-159.32232893 393.08895039 -156.77396107 396.27246339 -154.1875 399.4375 C-153.73149414 400.00178711 -153.27548828 400.56607422 -152.80566406 401.14746094 C-120.42156176 440.99968841 -75.3578113 463.33488211 -25.1875 471.4375 C-23.38925781 471.73140625 -23.38925781 471.73140625 -21.5546875 472.03125 C-15.64520642 472.72487875 -9.67811258 472.62349167 -3.73608398 472.62280273 C-1.65391985 472.6249699 0.42769613 472.64312094 2.50976562 472.66210938 C11.78117676 472.70143951 20.64350016 471.92750444 29.8125 470.4375 C30.68124756 470.29675049 31.54999512 470.15600098 32.44506836 470.01098633 C68.76750801 463.69016011 103.69488021 446.55760742 130.65234375 421.4453125 C132.67788639 419.56262006 134.75954391 417.78012939 136.875 416 C159.32200458 396.28606384 174.51206169 368.10153431 184.8125 340.4375 C185.24304687 339.32890625 185.67359375 338.2203125 186.1171875 337.078125 C196.97491722 307.26994774 196.98581331 276.54965304 193.8125 245.4375 C193.69962646 244.28701172 193.69962646 244.28701172 193.58447266 243.11328125 C189.76834671 207.73198112 170.98267091 172.77277307 147.8125 146.4375 C146.96300781 145.46683594 146.11351562 144.49617188 145.23828125 143.49609375 C131.20104288 127.69724018 115.14265445 114.96580382 96.8125 104.4375 C96.19213867 104.07946289 95.57177734 103.72142578 94.93261719 103.35253906 C66.62559659 87.18711323 33.93322524 78.24838481 1.34057617 78.25219727 C-0.72173318 78.25002971 -2.7834892 78.23186881 -4.84570312 78.21289062 C-19.99854813 78.14461878 -34.3392459 80.32900362 -49 84.0625 Z " fill="#FEFEFE" transform="translate(1898.1875,945.5625)"/>
<path d="M0 0 C9.16810493 5.71750215 16.69570691 13.7338961 24.28421021 21.35145569 C25.12171558 22.18810664 25.95922096 23.02475759 26.82210529 23.88676161 C29.11584104 26.17914796 31.40734973 28.47373224 33.69788313 30.76931751 C36.17988271 33.25567386 38.6648113 35.73910007 41.14936829 38.22290039 C45.44357204 42.51658219 49.73595486 46.81207727 54.02707291 51.10884285 C60.23115648 57.32108624 66.43803064 63.53053538 72.64556871 69.73932665 C82.71912273 79.81506416 92.79044596 89.89302839 102.86035156 99.97241211 C112.63684254 109.7580954 122.41439317 119.54271794 132.19335938 129.32592773 C132.79709224 129.92992333 133.40082511 130.53391892 134.02285291 131.1562174 C137.05189578 134.1865654 140.08095938 137.21689268 143.11003327 140.24720967 C168.20156886 165.349096 193.28947788 190.45460418 218.375 215.5625 C221.54014726 214.16246354 223.66586376 212.51722971 226.10049534 210.06913376 C226.82970552 209.34082218 227.5589157 208.6125106 228.31022316 207.86212897 C229.10427667 207.05883918 229.89833018 206.25554939 230.71644592 205.42791748 C231.9901243 204.15151063 231.9901243 204.15151063 233.28953356 202.84931779 C235.64582963 200.4860567 237.99754541 198.1183973 240.34749782 195.74883819 C242.88315918 193.19426724 245.42466719 190.64552569 247.96557617 188.09617615 C252.36920739 183.67653009 256.76943388 179.25351791 261.16765022 174.82848358 C268.12438024 167.8298285 275.0909067 160.84097064 282.0589447 153.85357666 C284.44368496 151.46195622 286.82834914 149.07025994 289.21298122 146.67853165 C289.8089582 146.08078302 290.40493517 145.48303439 291.01897206 144.86717217 C297.80345471 138.06219254 304.58560463 131.25488985 311.36694336 124.44677734 C311.98683443 123.82444372 312.60672549 123.2021101 313.24540114 122.56091788 C323.28141075 112.48493749 333.311459 102.40303801 343.34019155 92.31981549 C353.64258209 81.96193161 363.95463877 71.6137356 374.27482027 61.27357793 C380.63612959 54.89921429 386.98934552 48.51699378 393.33227997 42.12434468 C397.6844016 37.7394259 402.04563217 33.36370514 406.414024 28.9949955 C408.93118475 26.47707063 411.44413644 23.95529983 413.94611168 21.42227745 C416.66535896 18.66947938 419.40403569 15.93653303 422.14466858 13.20501709 C423.31232627 12.01346673 423.31232627 12.01346673 424.503573 10.79784465 C433.89744774 1.51358304 443.12443487 -2.7687402 456.25732422 -2.82250977 C466.29644524 -2.63741535 474.35639244 0.69444554 481.62890625 7.6796875 C490.5280052 17.27558391 493.05521141 25.51650394 492.6640625 38.484375 C491.77968399 54.75991225 478.46955792 65.62977753 467.62400818 76.43374634 C466.79144078 77.26716816 465.95887338 78.10058999 465.10107666 78.95926702 C462.82009181 81.24160117 460.53690934 83.52170844 458.25272548 85.80084014 C455.77863903 88.27056951 453.30748303 90.74322821 450.83595276 93.21551514 C446.56355186 97.48843796 442.28933782 101.75953995 438.01385307 106.02937698 C431.83237864 112.20269134 425.65369872 118.37879651 419.47567654 124.55556552 C409.44985334 134.57920526 399.42180347 144.60061424 389.39233398 154.62060547 C379.65515325 164.34859379 369.91903334 174.07764183 360.18432617 183.80810547 C359.58331758 184.40885134 358.98230898 185.00959721 358.363088 185.6285475 C355.34772408 188.6426063 352.33238087 191.65668583 349.31704795 194.67077565 C324.3395758 219.63789718 299.35848181 244.60139212 274.375 269.5625 C275.77277727 272.72003013 277.41118768 274.84499548 279.85274887 277.27517128 C280.57757705 278.00151477 281.30240524 278.72785825 282.04919791 279.47621214 C282.84859676 280.26705683 283.6479956 281.05790151 284.47161865 281.87271118 C285.318473 282.71845211 286.16532734 283.56419305 287.03784394 284.43556249 C289.38969827 286.78239033 291.74595291 289.12463836 294.10411882 291.46511388 C296.64640636 293.99054731 299.18287489 296.52181254 301.7199707 299.05245972 C306.11826655 303.43815389 310.51998546 307.82038789 314.9238205 312.20051956 C321.29958901 318.54233243 327.66792758 324.89156602 334.03408435 331.24302594 C344.37412287 341.55916345 354.71715251 351.87229535 365.06347656 362.18212891 C365.68281957 362.79929167 366.30216258 363.41645443 366.94027355 364.05231909 C375.72175805 372.80261007 384.50622831 381.54989751 393.29191712 390.29596691 C393.91004736 390.91131052 394.5281776 391.52665414 395.16503906 392.16064453 C396.09110488 393.08252976 396.09110488 393.08252976 397.03587911 394.02303894 C407.34218232 404.28321786 417.64071644 414.55115442 427.93295503 424.82544172 C434.27821273 431.15901197 440.62989426 437.48600078 446.99005988 443.804601 C451.35222793 448.13928005 455.70708252 452.4812177 460.0563347 456.82885559 C462.56335227 459.33446989 465.07348973 461.8367294 467.59259796 464.33019257 C470.32949513 467.0393747 473.05056979 469.76411254 475.77044678 472.49038696 C476.56092273 473.26784732 477.35139869 474.04530767 478.16582847 474.84632742 C487.53711529 484.30340198 492.79513852 493.57986171 492.74072266 506.97045898 C492.48295446 518.0296604 488.36572636 526.35576188 480.75 534.24609375 C471.88515671 542.47480245 461.47378252 544.23666182 449.76953125 543.953125 C431.15761285 542.81859295 415.21815804 520.54909173 402.98907161 508.29263723 C400.53301744 505.83221267 398.07402015 503.37473231 395.61540222 500.91687012 C391.36925261 496.67124161 387.1249191 492.42380477 382.88185883 488.17508888 C376.74731123 482.03236986 370.60996205 475.89245614 364.47195354 469.75319561 C354.51042896 459.78948932 344.55113362 449.82355791 334.59326172 439.85620117 C324.92745017 430.18119262 315.26057548 420.50724832 305.59228516 410.8347168 C304.69643501 409.93847257 304.69643501 409.93847257 303.78248689 409.02412239 C300.78595344 406.02628379 297.78939926 403.02846593 294.79283476 400.03065836 C269.98367368 375.21115214 245.17813951 350.38802378 220.375 325.5625 C216.22716807 327.46995467 213.39214015 330.27533602 210.215271 333.4884491 C209.60088142 334.10183539 208.98649184 334.71522169 208.35348439 335.34719545 C206.29304866 337.40667753 204.2398507 339.47322734 202.18652344 341.53979492 C200.71168476 343.01683459 199.23639803 344.49342698 197.76069641 345.96960449 C194.58154287 349.15169374 191.40557503 352.33691741 188.23201752 355.52458763 C183.21060653 360.56825541 178.18212591 365.60483448 173.15264893 370.64045715 C165.19346587 378.61102932 157.23896622 386.58625674 149.28648686 394.56351691 C135.05942327 408.83484577 120.82686701 423.10069141 106.58900285 437.36124498 C101.59426727 442.36437144 96.60235524 447.37029316 91.61271715 452.3785032 C88.50112017 455.50077851 85.3874648 458.62099518 82.27330589 461.74071503 C80.8341358 463.18334227 79.39583752 464.62683986 77.958498 466.07129097 C65.16696155 478.92469364 65.16696155 478.92469364 58.97852516 484.17950726 C56.48226417 486.33245809 54.19827491 488.67490539 51.8996582 491.03540039 C50.89108929 492.06693087 49.88248695 493.09842865 48.87385559 494.12989807 C48.35326883 494.66433596 47.83268208 495.19877384 47.29631996 495.74940681 C44.48235714 498.63319301 41.65072718 501.49958656 38.82226562 504.36914062 C35.24936855 507.99580888 31.68178311 511.6272494 28.13305664 515.27758789 C25.2410653 518.25144601 22.33162731 521.20724809 19.41036034 524.15234184 C18.31213609 525.26582709 17.22016526 526.3855217 16.13515663 527.5118885 C8.11860288 535.82506529 -0.47568058 543.08648978 -12.48046875 544.2890625 C-13.9248703 544.29310708 -15.36989655 544.2596629 -16.8125 544.1875 C-17.96492188 544.15257446 -17.96492188 544.15257446 -19.140625 544.11694336 C-30.70346746 543.55078472 -37.69420609 538.86019896 -45.625 530.5625 C-51.81799438 523.51019061 -54.17271265 515.88535896 -54 506.625 C-53.98912354 505.83230713 -53.97824707 505.03961426 -53.96704102 504.22290039 C-53.55709257 489.19712972 -45.18491325 480.80585929 -34.88673401 470.58372498 C-33.60369421 469.2981219 -33.60369421 469.2981219 -32.29473442 467.98654705 C-29.94260319 465.63170981 -27.58611422 463.28139991 -25.22759879 460.93296754 C-22.67667582 458.39073648 -20.13159191 455.84267097 -17.58576965 453.29533386 C-13.18182134 448.89034031 -8.77424593 444.48900364 -4.36413765 440.09017754 C2.01201648 433.73032457 8.38259615 427.36491145 14.75185848 420.99815739 C25.08741502 410.66697073 35.42742363 400.34025199 45.77026367 390.01635742 C55.813306 379.99169222 65.85423137 369.96491438 75.89233398 359.93530273 C76.51179 359.31637217 77.13124602 358.6974416 77.76947343 358.05975556 C80.87730026 354.95453893 83.9850857 351.84928087 87.09285057 348.74400222 C112.84715334 323.01040992 138.60869497 297.2840745 164.375 271.5625 C162.97704778 268.40488652 161.3378739 266.27838438 158.89725113 263.84703541 C158.17242295 263.12007522 157.44759476 262.39311504 156.70080209 261.64412576 C155.50170382 260.45683556 155.50170382 260.45683556 154.27838135 259.24555969 C153.431527 258.39911319 152.58467266 257.5526667 151.71215606 256.6805703 C149.36030702 254.3318094 147.00405523 251.98762737 144.64588118 249.64522707 C142.10360716 247.11775131 139.56714144 244.58445899 137.0300293 242.05180359 C132.6318027 237.66276576 128.23009608 233.27724334 123.8261795 228.89391518 C117.45079752 222.54806416 111.08237151 216.19526816 104.71591565 209.84046342 C94.37608091 199.51964895 84.0328881 189.20220773 73.68652344 178.88793945 C72.75750893 177.96180184 72.75750893 177.96180184 71.80972645 177.01695438 C64.904434 170.13319466 57.99832759 163.25025243 51.09130859 156.3682251 C48.58918359 153.87513122 46.08706582 151.38203009 43.58496094 148.88891602 C42.96758372 148.27376046 42.35020651 147.6586049 41.71412089 147.02480827 C31.40967665 136.75712186 21.11108654 126.4835854 10.81704497 116.20546979 C4.47018062 109.86892562 -1.88166559 103.53745732 -8.24005988 97.21248253 C-12.60050444 92.87422199 -16.95551247 88.53055353 -21.3063347 84.18264303 C-23.81460216 81.67641866 -26.32524648 79.17270461 -28.84259796 76.67560196 C-31.5767408 73.96334747 -34.29906291 71.23941774 -37.02044678 68.51435852 C-37.81092273 67.73398533 -38.60139869 66.95361213 -39.41582847 66.14959127 C-49.81484947 55.68353439 -54.12617543 46.5782718 -54.12475586 31.84033203 C-53.86478595 21.89240587 -50.14193427 14.99483752 -43.5 7.6875 C-31.61584059 -3.09663805 -15.03505141 -6.93477178 0 0 Z " fill="#FEFEFE" transform="translate(313.625,950.4375)"/>
<path d="M0 0 C1.95147949 -0.01401855 1.95147949 -0.01401855 3.94238281 -0.02832031 C16.86343972 0.01511743 26.45461658 2.53104455 36.25 11.375 C45.00511339 21.02434112 46.60843992 30.73746344 46.015625 43.36328125 C45.53348705 49.20754521 44.09890465 53.58238508 40.5 58.25 C39.99210937 58.96027344 39.48421875 59.67054688 38.9609375 60.40234375 C33.5273719 67.31662035 26.00281624 72.39883815 17.2734375 73.9609375 C12.78766358 74.42846887 8.28542069 74.59027094 3.78149414 74.79296875 C-24.17155095 76.20643703 -55.89692773 82.76139176 -75.5 104.25 C-80.6974404 111.40433506 -84.61613201 118.91157627 -87.5 127.25 C-87.83644531 128.12527344 -88.17289063 129.00054688 -88.51953125 129.90234375 C-90.72070867 135.91230007 -92.12377376 141.89417402 -93.1875 148.1875 C-93.30681885 148.89003906 -93.4261377 149.59257813 -93.54907227 150.31640625 C-95.27710208 161.31182375 -95.68037346 172.47792538 -96.05264282 183.58709717 C-96.0947333 184.83717269 -96.13682378 186.08724821 -96.18018973 187.3752048 C-96.60815626 201.14639864 -96.65386758 214.91580146 -96.65663147 228.69229841 C-96.65851634 232.45750969 -96.66614549 236.22271034 -96.67311096 239.98791504 C-96.68449492 246.47588206 -96.69281076 252.96384666 -96.69923019 259.45182037 C-96.7096777 269.7145401 -96.73026304 279.97722887 -96.75234985 290.2399292 C-96.75982383 293.76794806 -96.76723814 297.29596704 -96.77463722 300.82398605 C-96.77648779 301.70487546 -96.77833835 302.58576487 -96.780245 303.4933479 C-96.80105715 313.45877847 -96.81994791 323.42421231 -96.83789062 333.38964844 C-96.83952881 334.29797868 -96.84116699 335.20630892 -96.84285481 336.14216432 C-96.86924738 350.92318117 -96.88784345 365.70420049 -96.90448253 380.48523107 C-96.92190537 395.71765907 -96.95073439 410.95003821 -96.9893719 426.18242717 C-97.01271636 435.55149809 -97.02676142 444.92048948 -97.02869953 454.28958973 C-97.03080953 460.69543345 -97.04374384 467.10119762 -97.06517886 473.5070056 C-97.07719054 477.19840432 -97.08437027 480.88964512 -97.07846642 484.58106232 C-97.07217616 488.58554795 -97.08901608 492.5896097 -97.10800171 496.59405518 C-97.10247201 497.7542521 -97.09694232 498.91444903 -97.09124506 500.10980344 C-97.19127911 512.33010758 -100.86618245 521.47866216 -109.1875 530.4375 C-117.10959253 538.05951327 -125.85331048 540.56335043 -136.60546875 540.390625 C-146.98252785 539.88647638 -155.19551005 536.64289812 -162.609375 529.10546875 C-169.54069209 520.64866948 -172.65561331 512.17659464 -172.63422108 501.33904934 C-172.63657331 500.53237528 -172.63892554 499.72570121 -172.64134905 498.89458248 C-172.64803942 496.17445414 -172.64758081 493.45437356 -172.64717102 490.73423767 C-172.65046962 488.77109455 -172.65419518 486.80795212 -172.6583125 484.84481055 C-172.66834106 479.43653297 -172.67205067 474.02826649 -172.67470181 468.61998093 C-172.67860233 462.79224241 -172.68818084 456.96451269 -172.69691467 451.13677979 C-172.7166863 437.05595868 -172.72674621 422.97513684 -172.73564246 408.89430532 C-172.74002425 402.26553557 -172.74539134 395.63676663 -172.75063133 389.00799751 C-172.76772987 366.97605918 -172.78216377 344.94412104 -172.78938007 322.91217709 C-172.78985483 321.48728527 -172.79033072 320.06239345 -172.79080774 318.63750163 C-172.79104411 317.9308856 -172.79128049 317.22426957 -172.79152403 316.49624093 C-172.79272522 312.91619512 -172.79394067 309.33614932 -172.79516602 305.75610352 C-172.79552624 304.69039841 -172.79552624 304.69039841 -172.79589374 303.60316391 C-172.80378553 280.57139591 -172.82721465 257.53967944 -172.85972196 234.50793393 C-172.89403035 210.15562467 -172.91373217 185.80334555 -172.91702431 161.45101172 C-172.91909692 148.17705458 -172.92795457 134.90316081 -172.95348549 121.62922478 C-172.97517694 110.32528195 -172.98325052 99.02143323 -172.97351871 87.71747195 C-172.96896954 81.95007395 -172.97089635 76.18287018 -172.99028015 70.41549873 C-173.00788015 65.13324796 -173.00693956 59.85133354 -172.99138286 54.56907935 C-172.989002 52.66053261 -172.99335505 50.75196277 -173.00521151 48.84345137 C-173.08717641 34.77568362 -172.17206343 24.06852862 -161.9375 13.48046875 C-154.17650119 6.37865734 -146.89793704 2.85120307 -136.25 2.875 C-135.50000732 2.87661133 -134.75001465 2.87822266 -133.97729492 2.87988281 C-122.71312965 3.1278476 -113.93543936 8.23962933 -106.1796875 16.25390625 C-102.08260755 21.12276172 -99.12471987 25.76788863 -99.5 32.25 C-98.27990234 31.32380859 -98.27990234 31.32380859 -97.03515625 30.37890625 C-77.35199702 15.71353773 -55.64168226 6.58341219 -31.5 2.25 C-30.30246094 2.02441406 -29.10492187 1.79882812 -27.87109375 1.56640625 C-18.61315857 0.11829341 -9.34958466 0.04325131 0 0 Z " fill="#FEFEFE" transform="translate(1594.5,950.75)"/>
<path d="M0 0 C1.38251953 1.24910156 1.38251953 1.24910156 2.79296875 2.5234375 C3.70433594 3.31492187 4.61570312 4.10640625 5.5546875 4.921875 C10.75453462 9.47659908 15.41019819 14.18522295 19.79296875 19.5234375 C20.20740234 20.0095752 20.62183594 20.49571289 21.04882812 20.99658203 C38.75239863 41.76519242 61.79296875 74.93902255 61.79296875 103.5234375 C-64.92703125 103.5234375 -191.64703125 103.5234375 -322.20703125 103.5234375 C-312.32007366 54.08864954 -280.36865041 11.57791877 -238.79736328 -16.1730957 C-165.52616687 -63.84213054 -65.9705693 -58.78111913 0 0 Z " fill="#00B2D4" transform="translate(1206.20703125,1071.4765625)"/>
<path d="M0 0 C12.49621944 9.576203 21.33889084 21.89741998 25.69140625 37.0625 C26.02785156 38.18785156 26.02785156 38.18785156 26.37109375 39.3359375 C30.93941595 57.67180608 27.25683439 77.06249671 17.69140625 93.0625 C7.62138426 107.95861137 -7.26027965 119.17493085 -24.93359375 123.125 C-32.40485545 124.30927446 -39.7648142 124.40499989 -47.30859375 124.0625 C-48.11683594 124.04316406 -48.92507813 124.02382812 -49.7578125 124.00390625 C-66.48384416 122.98364924 -81.05694985 112.7354223 -92.30859375 101.0625 C-105.45880238 85.28729771 -109.80936865 67.20133866 -108.30859375 47.0625 C-106.22007446 28.92436852 -96.77091984 14.07271096 -83.1484375 2.234375 C-58.77974757 -16.40247727 -25.56743508 -17.2682531 0 0 Z " fill="#FEFEFE" transform="translate(1937.30859375,1164.9375)"/>
</svg>
