<?xml version="1.0" encoding="UTF-8" standalone="no"?>
<!-- Created with Inkscape (http://www.inkscape.org/) -->

<svg
   xmlns:inkscape="http://www.inkscape.org/namespaces/inkscape"
   xmlns:sodipodi="http://sodipodi.sourceforge.net/DTD/sodipodi-0.dtd"
   xmlns:svg="http://www.w3.org/2000/svg"
   width="70.634392mm"
   height="79.259407mm"
   viewBox="0 0 70.634392 79.259407"
   version="1.1"
   id="svg1"
   xml:space="preserve"
   xmlns="http://www.w3.org/2000/svg"><sodipodi:namedview
     id="namedview1"
     pagecolor="#ffffff"
     bordercolor="#000000"
     borderopacity="0.25"
     inkscape:showpageshadow="2"
     inkscape:pageopacity="0.0"
     inkscape:pagecheckerboard="0"
     inkscape:deskcolor="#d1d1d1"
     inkscape:document-units="mm"
     inkscape:zoom="0.97890839"
     inkscape:cx="296.75913"
     inkscape:cy="554.18873"
     inkscape:window-width="1920"
     inkscape:window-height="991"
     inkscape:window-x="-9"
     inkscape:window-y="-9"
     inkscape:window-maximized="1"
     inkscape:current-layer="layer1" /><defs
     id="defs1" /><g
     inkscape:label="Layer 1"
     inkscape:groupmode="layer"
     id="layer1"
     transform="translate(-72.278513,-100.44426)"><path
       style="fill:#000000"
       d="m 100.45664,179.2951 c -1.277463,-0.60411 -1.825353,-1.18832 -2.396603,-2.55552 -0.81379,-1.94767 0.1959,-4.62384 2.082253,-5.51897 3.04154,-1.44331 6.53206,0.62168 6.53206,3.86436 0,3.33303 -3.31945,5.58069 -6.21771,4.21013 z m 19.84375,-2.30905 c -2.32833,-0.18338 -4.8111,-0.34453 -5.51725,-0.35812 l -1.28392,-0.0247 0.0933,-2.22706 c 0.0513,-1.22489 0.15283,-2.28506 0.22559,-2.35594 0.0728,-0.0709 1.72117,-0.0127 3.66313,0.12939 1.94196,0.14204 3.58845,0.20064 3.65886,0.13023 0.0704,-0.0704 -0.95291,-1.6769 -2.27406,-3.56996 -1.32115,-1.89306 -2.4021,-3.48985 -2.4021,-3.54842 0,-0.32423 3.77585,-2.63041 3.92591,-2.39784 1.16606,1.80727 4.67005,6.69585 4.79939,6.69585 0.0935,0 0.60671,-1.50547 1.14043,-3.34549 0.53371,-1.84002 1.02843,-3.40353 1.09937,-3.47447 0.13855,-0.13855 3.67071,0.72382 4.13176,1.00877 0.17925,0.11078 -0.37687,2.36411 -1.5703,6.36253 -1.51242,5.06718 -1.97396,6.29947 -2.54258,6.78857 -0.7942,0.68314 -0.83146,0.68411 -7.14752,0.18667 z m -35.560667,-6.41658 c -5.096396,-1.52313 -6.002698,-1.87293 -6.464953,-2.49525 -0.535164,-0.72047 -0.53558,-0.75367 -0.09098,-7.25495 0.245653,-3.59214 0.498896,-6.58342 0.562762,-6.64729 0.06387,-0.0639 1.088153,-0.0301 2.276194,0.0751 l 2.160073,0.19121 -0.190235,3.67414 c -0.104629,2.02077 -0.104579,3.67413 1.11e-4,3.67413 0.180863,0 4.361527,-2.83861 6.117156,-4.15346 l 0.824044,-0.61716 1.337143,1.93425 1.337142,1.93424 -3.564201,2.46559 c -1.960311,1.35607 -3.517692,2.51209 -3.460848,2.56893 0.05684,0.0568 1.581169,0.53262 3.387389,1.05727 1.80622,0.52465 3.381008,1.04375 3.499529,1.15356 0.118522,0.1098 -0.04866,1.10875 -0.371511,2.21988 -0.420316,1.44656 -0.706904,2.01612 -1.009243,2.00576 -0.232231,-0.008 -3.089537,-0.81164 -6.349569,-1.78594 z m 19.024207,-6.98705 c -0.80036,-0.14187 -1.53958,-0.33711 -1.6427,-0.43388 -0.10312,-0.0968 0.15925,-2.13504 0.58304,-4.5295 0.4238,-2.39445 0.72146,-4.40264 0.66146,-4.46264 -0.06,-0.06 -1.55989,0.74198 -3.3331,1.78218 -1.773213,1.0402 -3.255383,1.85879 -3.293723,1.8191 -0.0383,-0.0397 -0.60453,-0.97808 -1.258224,-2.0853 l -1.188528,-2.01312 5.895925,-3.47698 c 5.79552,-3.41777 6.71456,-3.79822 7.78769,-3.2239 0.26008,0.13919 2.41869,2.59945 4.7969,5.46724 l 4.32404,5.21416 -1.17629,1.02974 c -0.64695,0.56635 -1.49724,1.26475 -1.88952,1.552 l -0.71325,0.52228 -2.42636,-2.93155 c -1.33449,-1.61236 -2.46891,-2.889 -2.52093,-2.83699 -0.052,0.052 -0.40138,1.87372 -0.77637,4.04824 -0.37499,2.17452 -0.74334,4.16203 -0.81855,4.4167 -0.1534,0.51938 -0.73001,0.54661 -3.01151,0.14222 z m 27.15486,-4.22897 c -0.81834,-0.91737 -1.48843,-1.74856 -1.48908,-1.84709 -6.6e-4,-0.0985 1.25194,-1.27626 2.78354,-2.61717 1.53161,-1.34092 2.72667,-2.4961 2.65569,-2.56708 -0.071,-0.071 -1.92386,-0.45542 -4.11751,-0.85431 -2.19364,-0.39889 -4.05881,-0.79562 -4.14482,-0.88163 -0.086,-0.086 -0.007,-1.11344 0.17449,-2.2832 0.39156,-2.51707 -0.0212,-2.3964 5.00338,-1.46286 4.11453,0.76446 4.42493,0.78952 4.06628,0.32821 -0.14142,-0.1819 -0.99136,-1.71833 -1.88875,-3.41429 l -1.63162,-3.08357 2.00896,-1.08362 c 1.10493,-0.59599 2.04751,-1.08362 2.09461,-1.08362 0.23846,0 6.48696,11.8825 6.47893,12.3207 -0.0171,0.93424 -0.61786,1.58098 -5.0177,5.40193 -2.4011,2.08518 -4.61828,4.01721 -4.92707,4.29339 -0.55947,0.5004 -0.56666,0.4963 -2.04933,-1.16579 z M 75.513036,145.63612 c -1.778989,-3.21344 -3.234525,-6.08123 -3.234525,-6.37286 0,-0.97239 0.525289,-1.54139 5.487825,-5.94444 l 4.932342,-4.37626 1.273986,1.40689 c 2.055019,2.2694 2.123581,1.95282 -1.020963,4.71418 -1.966351,1.72673 -2.690756,2.51394 -2.436325,2.64754 0.199151,0.10457 2.028969,0.46324 4.06626,0.79704 2.037292,0.3338 3.809266,0.69935 3.937719,0.81233 0.134151,0.11798 0.09223,1.11385 -0.09849,2.33987 -0.261929,1.68376 -0.425233,2.13447 -0.773368,2.13447 -0.242729,0 -2.145139,-0.30359 -4.227577,-0.67464 -2.082438,-0.37106 -3.878526,-0.63895 -3.991306,-0.59531 -0.112781,0.0436 0.566324,1.44855 1.509122,3.12204 0.942798,1.67349 1.770059,3.18087 1.838359,3.34974 0.105866,0.26175 -2.366016,1.84955 -3.625037,2.32852 -0.305396,0.11618 -1.189893,-1.26699 -3.638021,-5.68911 z m 32.384474,-4.36916 c -1.00075,-0.19884 -1.86855,-0.41052 -1.92843,-0.4704 -0.0599,-0.0599 0.24269,-2.11843 0.67238,-4.57455 0.4297,-2.45612 0.75806,-4.48916 0.72971,-4.51787 -0.0284,-0.0287 -1.45831,0.77496 -3.17767,1.78594 -1.71935,1.01097 -3.22844,1.83814 -3.35352,1.83814 -0.31144,0 -2.440013,-3.62031 -2.326533,-3.95702 0.0501,-0.14868 2.634123,-1.75995 5.742253,-3.58061 6.6712,-3.90782 7.02028,-3.99565 8.66881,-2.18108 1.69457,1.86524 7.90505,9.49401 7.90505,9.71033 0,0.26629 -3.18166,2.91879 -3.50107,2.91879 -0.13672,0 -1.28914,-1.26101 -2.56092,-2.80225 -1.27178,-1.54124 -2.37727,-2.7373 -2.45666,-2.65792 -0.0794,0.0794 -0.4231,1.72735 -0.76382,3.66215 -0.34072,1.9348 -0.6889,3.90477 -0.77373,4.37771 -0.17515,0.97647 -0.19991,0.98033 -2.87585,0.44864 z m 25.65272,-5.77287 c -0.86175,-0.16853 -1.60634,-0.42496 -1.65463,-0.56985 -0.0483,-0.14488 0.19253,-1.83966 0.53517,-3.76618 0.34265,-1.92652 0.52568,-3.50276 0.40674,-3.50276 -0.11894,0 -1.8277,0.89297 -3.79724,1.98437 -1.96954,1.09141 -3.67017,1.98337 -3.77918,1.98214 -0.25054,-0.003 -2.33984,-3.90064 -2.17342,-4.05473 0.0677,-0.0627 1.712,-1.00086 3.65394,-2.08478 1.94195,-1.08392 3.53125,-2.07844 3.53179,-2.21005 5.4e-4,-0.13161 -1.43317,-0.83997 -3.18601,-1.57413 -1.75285,-0.73416 -3.2528,-1.40063 -3.33321,-1.48105 -0.21377,-0.21376 1.45992,-4.20344 1.76336,-4.20344 0.38503,0 11.58078,4.6996 12.2672,5.14936 0.3265,0.21393 0.66131,0.72042 0.74404,1.12553 0.0827,0.40512 -0.35448,3.59407 -0.97157,7.08657 -1.28082,7.24896 -0.93438,6.71991 -4.00698,6.119 z m -47.975151,-8.47614 c -0.908815,-0.18165 -1.718569,-0.39646 -1.799454,-0.47734 -0.08088,-0.0809 0.38034,-3.08985 1.024943,-6.6866 0.943424,-5.2641 1.278838,-6.64636 1.719767,-7.08729 0.587469,-0.58747 1.886567,-0.72255 10.523682,-1.09426 l 3.731143,-0.16057 0.17605,2.29039 c 0.0968,1.25971 0.14418,2.32226 0.10523,2.36121 -0.0389,0.0389 -1.767423,0.15694 -3.841043,0.2622 -2.073621,0.10526 -3.765883,0.26397 -3.760584,0.35268 0.0053,0.0887 1.258308,1.5815 2.784464,3.31729 1.52616,1.73579 2.74221,3.24548 2.70235,3.35486 -0.11032,0.30266 -3.11594,2.88186 -3.358328,2.88186 -0.116785,0 -1.44931,-1.42818 -2.961166,-3.17374 -1.511856,-1.74556 -2.816625,-3.17431 -2.899487,-3.175 -0.08286,-6.9e-4 -0.440048,1.63585 -0.79375,3.63676 -0.731812,4.13991 -0.551856,3.95761 -3.353817,3.39755 z m 26.796691,-9.59111 c -1.15928,-0.20967 -2.15698,-0.43041 -2.21711,-0.49054 -0.0601,-0.0601 0.25226,-2.10802 0.6942,-4.55089 0.44193,-2.44286 0.76417,-4.48204 0.71607,-4.53149 -0.0481,-0.0495 -1.55262,0.76583 -3.3434,1.81177 l -3.25596,1.9017 -0.40238,-0.59872 c -0.22131,-0.3293 -0.78328,-1.27045 -1.24883,-2.09145 l -0.84644,-1.49272 5.55058,-3.25198 c 3.05282,-1.78859 5.88954,-3.37992 6.30383,-3.53629 1.37877,-0.52043 2.06405,0.0599 6.52486,5.52518 2.31864,2.84075 4.23659,5.24637 4.26213,5.3458 0.0514,0.20015 -2.88612,2.63305 -3.43217,2.84258 -0.20548,0.0789 -1.29621,-1.03857 -2.70528,-2.77147 -1.29854,-1.59697 -2.39525,-2.86932 -2.43713,-2.82744 -0.0808,0.0808 -1.65831,8.59136 -1.65831,8.94631 0,0.11469 -0.0893,0.19555 -0.19843,0.17969 -0.10914,-0.0159 -1.14695,-0.20037 -2.30623,-0.41004 z"
       id="path1" /></g></svg>
