<svg xmlns="http://www.w3.org/2000/svg" width="40" height="40" viewBox="0 0 40 40" fill="none">
  <path d="M22.7542 7.66617L23.7107 2.36292" stroke="#201D1E" stroke-width="2.02199" stroke-linecap="square"/>
  <path d="M27.1541 5.7847L23.8201 1.72205L19.2836 4.36686" stroke="#201D1E" stroke-width="2.02199" stroke-linecap="square" stroke-linejoin="round"/>
  <path d="M18.7643 30.2965L19.6934 24.9933" stroke="#201D1E" stroke-width="2.02199" stroke-linecap="square"/>
  <path d="M23.1642 28.402L19.8028 24.353L15.28 27.0115" stroke="#201D1E" stroke-width="2.02199" stroke-linecap="square" stroke-linejoin="round"/>
  <path d="M20.6909 19.3632L21.62 14.0599" stroke="#201D1E" stroke-width="2.02199" stroke-linecap="square"/>
  <path d="M25.0908 17.4678L21.743 13.4324L17.2202 16.0772" stroke="#201D1E" stroke-width="2.02199" stroke-linecap="square" stroke-linejoin="round"/>
  <path d="M17.5482 39.3492C18.7783 39.3492 19.7755 38.3543 19.7755 37.127C19.7755 35.8997 18.7783 34.9048 17.5482 34.9048C16.3182 34.9048 15.321 35.8997 15.321 37.127C15.321 38.3543 16.3182 39.3492 17.5482 39.3492Z" fill="#201D1E"/>
  <path d="M11.2351 29.8333L7.14954 32.6689" stroke="#201D1E" stroke-width="1.91918" stroke-linecap="square"/>
  <path d="M11.4813 34.4276L6.65784 33.0098L7.0131 28.0065" stroke="#201D1E" stroke-width="1.91918" stroke-linecap="square" stroke-linejoin="round"/>
  <path d="M26.0745 32.4917L28.9167 36.5816" stroke="#201D1E" stroke-width="1.91918" stroke-linecap="square"/>
  <path d="M24.2435 36.7179L29.2583 37.0588L30.6793 32.2736" stroke="#201D1E" stroke-width="1.91918" stroke-linecap="square" stroke-linejoin="round"/>
  <path d="M30.7341 24.1888L35.7351 25.0886" stroke="#201D1E" stroke-width="1.96488" stroke-linecap="square"/>
  <path d="M32.4557 28.5653L36.3363 25.1979L33.8904 20.7126" stroke="#201D1E" stroke-width="1.96488" stroke-linecap="square" stroke-linejoin="round"/>
  <path d="M29.2718 14.2915L33.7263 11.8375" stroke="#201D1E" stroke-width="1.96488" stroke-linecap="square"/>
  <path d="M29.5178 9.58789L34.2593 11.5511L33.3711 16.5816" stroke="#201D1E" stroke-width="1.96488" stroke-linecap="square" stroke-linejoin="round"/>
  <path d="M9.62295 20.4808L4.60822 19.6083" stroke="#201D1E" stroke-width="1.96488" stroke-linecap="square"/>
  <path d="M6.49377 23.9984L4.0069 19.5131L7.84652 16.1321" stroke="#201D1E" stroke-width="1.96488" stroke-linecap="square" stroke-linejoin="round"/>
  <path d="M14.3779 11.6604L11.0302 7.84314" stroke="#201D1E" stroke-width="1.96488" stroke-linecap="square"/>
  <path d="M15.7581 7.17493L10.634 7.39306L9.73218 12.4237" stroke="#201D1E" stroke-width="1.96488" stroke-linecap="square" stroke-linejoin="round"/>
</svg>