<?xml version="1.0" encoding="UTF-8"?>
<svg width="966px" height="177px" viewBox="0 0 966 177" version="1.1" xmlns="http://www.w3.org/2000/svg" xmlns:xlink="http://www.w3.org/1999/xlink">
    <!-- Generator: Sketch 49.3 (51167) - http://www.bohemiancoding.com/sketch -->
    <title>Group</title>
    <desc>Created with Sketch.</desc>
    <defs></defs>
    <g id="Page-1" stroke="none" stroke-width="1" fill="none" fill-rule="evenodd">
        <g id="Logo-Copy" transform="translate(-121.000000, -62.000000)">
            <g id="Group" transform="translate(126.000000, 67.000000)">
                <g id="Logo">
                    <g id="Barrell">
                        <path d="M5,25 C5,25 8.65114646,38.0371749 17.9498846,41.8704501 C27.2486227,45.7037254 65,49.7341642 65,49.7341642 L120.506425,38.4420832 L125,25 L125,128 L65,117.330245 L5,128 L5,25 Z" id="Rectangle" fill-opacity="0.95" fill="#E8424D"></path>
                        <ellipse id="Oval" stroke="#E8424D" stroke-width="10" fill-opacity="0.95" fill="#E8424D" cx="65" cy="24.5" rx="65" ry="24.5"></ellipse>
                        <ellipse id="Oval" fill="#FFFFFF" cx="31" cy="24" rx="9" ry="4"></ellipse>
                        <ellipse id="Oval" stroke="#E8424D" stroke-width="10" cx="65" cy="83.5" rx="65" ry="24.5"></ellipse>
                        <ellipse id="Oval" stroke="#E8424D" stroke-width="10" fill-opacity="0.95" fill="#E8424D" cx="65" cy="142.5" rx="65" ry="24.5"></ellipse>
                    </g>
                </g>
                <path d="M273.008,132.152 C263.599953,132.152 255.416035,130.040021 248.456,125.816 C241.495965,121.591979 236.144019,115.592039 232.4,107.816 C228.655981,100.039961 226.784,90.8720528 226.784,80.312 C226.784,69.6559467 228.631982,60.4160391 232.328,52.592 C236.024018,44.7679609 241.351965,38.7680209 248.312,34.592 C255.272035,30.4159791 263.503952,28.328 273.008,28.328 C282.512048,28.328 290.743965,30.4159791 297.704,34.592 C304.664035,38.7680209 309.991982,44.7679609 313.688,52.592 C317.384018,60.4160391 319.232,69.6079472 319.232,80.168 C319.232,90.7280528 317.360019,99.9199609 313.616,107.744 C309.871981,115.568039 304.520035,121.591979 297.56,125.816 C290.599965,130.040021 282.416047,132.152 273.008,132.152 Z M273.008,122.072 C283.760054,122.072 292.13597,118.448036 298.136,111.2 C304.13603,103.951964 307.136,93.6080672 307.136,80.168 C307.136,66.7279328 304.16003,56.408036 298.208,49.208 C292.25597,42.007964 283.856054,38.408 273.008,38.408 C262.255946,38.408 253.88003,42.0319638 247.88,49.28 C241.87997,56.5280362 238.88,66.8239333 238.88,80.168 C238.88,93.5120667 241.87997,103.831964 247.88,111.128 C253.88003,118.424036 262.255946,122.072 273.008,122.072 Z M345.72,131.72 C343.991991,131.72 342.576006,131.216005 341.472,130.208 C340.367994,129.199995 339.816,127.784009 339.816,125.96 L339.816,65.192 C339.816,63.3679909 340.367994,61.952005 341.472,60.944 C342.576006,59.935995 343.991991,59.432 345.72,59.432 C347.448009,59.432 348.839995,59.935995 349.896,60.944 C350.952005,61.952005 351.48,63.3679909 351.48,65.192 L351.48,125.96 C351.48,127.88001 350.952005,129.319995 349.896,130.28 C348.839995,131.240005 347.448009,131.72 345.72,131.72 Z M345.72,44.312 C343.415988,44.312 341.544007,43.6400067 340.104,42.296 C338.663993,40.9519933 337.944,39.176011 337.944,36.968 C337.944,34.8559894 338.663993,33.1280067 340.104,31.784 C341.544007,30.4399933 343.415988,29.768 345.72,29.768 C348.024012,29.768 349.895993,30.4399933 351.336,31.784 C352.776007,33.1280067 353.496,34.8559894 353.496,36.968 C353.496,39.176011 352.776007,40.9519933 351.336,42.296 C349.895993,43.6400067 348.024012,44.312 345.72,44.312 Z M380.128,131.72 C378.399991,131.72 376.984006,131.216005 375.88,130.208 C374.775994,129.199995 374.224,127.784009 374.224,125.96 L374.224,34.52 C374.224,32.6959909 374.775994,31.280005 375.88,30.272 C376.984006,29.263995 378.399991,28.76 380.128,28.76 C381.760008,28.76 383.127994,29.263995 384.232,30.272 C385.336006,31.280005 385.888,32.6959909 385.888,34.52 L385.888,125.96 C385.888,127.784009 385.336006,129.199995 384.232,130.208 C383.127994,131.216005 381.760008,131.72 380.128,131.72 Z M443.912,59.144 C450.056031,59.144 455.479976,60.6799846 460.184,63.752 C464.888024,66.8240154 468.535987,71.1199724 471.128,76.64 C473.720013,82.1600276 475.016,88.5679635 475.016,95.864 C475.016,103.160036 473.720013,109.519973 471.128,114.944 C468.535987,120.368027 464.912023,124.567985 460.256,127.544 C455.599977,130.520015 450.152031,132.008 443.912,132.008 C438.439973,132.008 433.66402,130.808012 429.584,128.408 C425.50398,126.007988 422.408011,122.600022 420.296,118.184 L420.296,152.024 C420.296,153.752009 419.792005,155.119995 418.784,156.128 C417.775995,157.136005 416.360009,157.64 414.536,157.64 C412.711991,157.64 411.272005,157.112005 410.216,156.056 C409.159995,154.999995 408.632,153.656008 408.632,152.024 L408.632,65.192 C408.632,63.4639914 409.159995,62.0720053 410.216,61.016 C411.272005,59.9599947 412.711991,59.432 414.536,59.432 C416.360009,59.432 417.775995,59.9599947 418.784,61.016 C419.792005,62.0720053 420.296,63.4639914 420.296,65.192 L420.296,72.968 C422.408011,68.5519779 425.50398,65.144012 429.584,62.744 C433.66402,60.343988 438.439973,59.144 443.912,59.144 Z M441.608,122.36 C448.424034,122.36 453.703981,120.056023 457.448,115.448 C461.192019,110.839977 463.064,104.312042 463.064,95.864 C463.064,87.4159578 461.192019,80.8160238 457.448,76.064 C453.703981,71.3119762 448.424034,68.936 441.608,68.936 C434.791966,68.936 429.536018,71.239977 425.84,75.848 C422.143982,80.456023 420.296,87.0319573 420.296,95.576 C420.296,104.120043 422.143982,110.719977 425.84,115.376 C429.536018,120.032023 434.791966,122.36 441.608,122.36 Z M528.144,59.432 C532.17602,59.1439986 534.192,60.7759822 534.192,64.328 C534.192,65.8640077 533.760004,67.0879954 532.896,68 C532.031996,68.9120046 530.544011,69.463999 528.432,69.656 L524.112,70.088 C517.679968,70.6640029 512.904016,72.9439801 509.784,76.928 C506.663984,80.9120199 505.104,85.5919731 505.104,90.968 L505.104,125.96 C505.104,127.88001 504.576005,129.319995 503.52,130.28 C502.463995,131.240005 501.072009,131.72 499.344,131.72 C497.615991,131.72 496.200006,131.216005 495.096,130.208 C493.991994,129.199995 493.44,127.784009 493.44,125.96 L493.44,65.192 C493.44,63.3679909 494.015994,61.952005 495.168,60.944 C496.320006,59.935995 497.711992,59.432 499.344,59.432 C500.880008,59.432 502.175995,59.935995 503.232,60.944 C504.288005,61.952005 504.816,63.3199914 504.816,65.048 L504.816,73.112 C506.83201,68.8879789 509.687982,65.672011 513.384,63.464 C517.080018,61.255989 521.327976,59.9600019 526.128,59.576 L528.144,59.432 Z M551.176,131.72 C549.447991,131.72 548.032006,131.216005 546.928,130.208 C545.823994,129.199995 545.272,127.784009 545.272,125.96 L545.272,65.192 C545.272,63.3679909 545.823994,61.952005 546.928,60.944 C548.032006,59.935995 549.447991,59.432 551.176,59.432 C552.904009,59.432 554.295995,59.935995 555.352,60.944 C556.408005,61.952005 556.936,63.3679909 556.936,65.192 L556.936,125.96 C556.936,127.88001 556.408005,129.319995 555.352,130.28 C554.295995,131.240005 552.904009,131.72 551.176,131.72 Z M551.176,44.312 C548.871988,44.312 547.000007,43.6400067 545.56,42.296 C544.119993,40.9519933 543.4,39.176011 543.4,36.968 C543.4,34.8559894 544.119993,33.1280067 545.56,31.784 C547.000007,30.4399933 548.871988,29.768 551.176,29.768 C553.480012,29.768 555.351993,30.4399933 556.792,31.784 C558.232007,33.1280067 558.952,34.8559894 558.952,36.968 C558.952,39.176011 558.232007,40.9519933 556.792,42.296 C555.351993,43.6400067 553.480012,44.312 551.176,44.312 Z M608.624,132.008 C602.095967,132.008 596.312025,130.520015 591.272,127.544 C586.231975,124.567985 582.344014,120.344027 579.608,114.872 C576.871986,109.399973 575.504,103.064036 575.504,95.864 C575.504,88.663964 576.919986,82.2800278 579.752,76.712 C582.584014,71.1439722 586.543975,66.8240154 591.632,63.752 C596.720025,60.6799846 602.575967,59.144 609.2,59.144 C612.848018,59.144 616.471982,59.647995 620.072,60.656 C623.672018,61.664005 626.815987,63.1279904 629.504,65.048 C631.232009,66.2000058 632.455996,67.3279945 633.176,68.432 C633.896004,69.5360055 634.256,70.7599933 634.256,72.104 C634.256,73.4480067 633.896004,74.5519957 633.176,75.416 C632.455996,76.2800043 631.520006,76.712 630.368,76.712 C629.695997,76.712 628.976004,76.5200019 628.208,76.136 C627.439996,75.7519981 626.792003,75.3680019 626.264,74.984 C625.735997,74.5999981 625.376001,74.3600005 625.184,74.264 C622.687988,72.6319918 620.312011,71.3360048 618.056,70.376 C615.799989,69.4159952 613.040016,68.936 609.776,68.936 C602.767965,68.936 597.320019,71.3119762 593.432,76.064 C589.543981,80.8160238 587.6,87.4159578 587.6,95.864 C587.6,104.312042 589.543981,110.839977 593.432,115.448 C597.320019,120.056023 602.767965,122.36 609.776,122.36 C613.040016,122.36 615.847988,121.880005 618.2,120.92 C620.552012,119.959995 622.927988,118.664008 625.328,117.032 C626.384005,116.359997 627.391995,115.784002 628.352,115.304 C629.312005,114.823998 630.127997,114.584 630.8,114.584 C631.856005,114.584 632.743996,115.015996 633.464,115.88 C634.184004,116.744004 634.544,117.847993 634.544,119.192 C634.544,120.440006 634.208003,121.567995 633.536,122.576 C632.863997,123.584005 631.616009,124.711994 629.792,125.96 C627.103987,127.784009 623.864019,129.247994 620.072,130.352 C616.279981,131.456006 612.464019,132.008 608.624,132.008 Z M703.944,114.728 C705.000005,114.728 705.911996,115.159996 706.68,116.024 C707.448004,116.888004 707.832,117.991993 707.832,119.336 C707.832,121.736012 706.152017,123.94399 702.792,125.96 C699.335983,127.97601 695.688019,129.487995 691.848,130.496 C688.007981,131.504005 684.264018,132.008 680.616,132.008 C669.767946,132.008 661.200031,128.792032 654.912,122.36 C648.623969,115.927968 645.48,107.048057 645.48,95.72 C645.48,88.519964 646.871986,82.1600276 649.656,76.64 C652.440014,71.1199724 656.351975,66.8240154 661.392,63.752 C666.432025,60.6799846 672.167968,59.144 678.6,59.144 C687.720046,59.144 694.967973,62.1199702 700.344,68.072 C705.720027,74.0240298 708.408,82.0879491 708.408,92.264 C708.408,94.1840096 708.024004,95.5759957 707.256,96.44 C706.487996,97.3040043 705.240009,97.736 703.512,97.736 L657.144,97.736 C658.008004,114.248083 665.831926,122.504 680.616,122.504 C684.360019,122.504 687.575987,122.000005 690.264,120.992 C692.952013,119.983995 695.831985,118.616009 698.904,116.888 C701.400012,115.447993 703.079996,114.728 703.944,114.728 Z M678.744,68.216 C672.599969,68.216 667.680018,70.1359808 663.984,73.976 C660.287982,77.8160192 658.104003,83.239965 657.432,90.248 L698.184,90.248 C697.991999,83.1439645 696.216017,77.696019 692.856,73.904 C689.495983,70.111981 684.79203,68.216 678.744,68.216 Z M822.16,114.728 C823.024004,116.552009 823.456,118.327991 823.456,120.056 C823.456,123.224016 822.184013,125.911989 819.64,128.12 C817.095987,130.328011 814.192016,131.432 810.928,131.432 C808.719989,131.432 806.704009,130.856006 804.88,129.704 C803.055991,128.551994 801.616005,126.824012 800.56,124.52 L794.08,109.976 L747.424,109.976 L740.8,124.52 C739.743995,126.824012 738.280009,128.551994 736.408,129.704 C734.535991,130.856006 732.496011,131.432 730.288,131.432 C727.023984,131.432 724.072013,130.328011 721.432,128.12 C718.791987,125.911989 717.472,123.224016 717.472,120.056 C717.472,118.327991 717.903996,116.552009 718.768,114.728 L756.784,36.68 C758.032006,34.087987 759.879988,32.096007 762.328,30.704 C764.776012,29.311993 767.487985,28.616 770.464,28.616 C773.344014,28.616 776.031988,29.311993 778.528,30.704 C781.024012,32.096007 782.895994,34.087987 784.144,36.68 L822.16,114.728 Z M785.152,90.104 L770.752,57.992 L756.352,90.104 L785.152,90.104 Z M848.648,131.864 C844.61598,131.864 841.424012,130.688012 839.072,128.336 C836.719988,125.983988 835.544,122.79202 835.544,118.76 L835.544,41.72 C835.544,37.7839803 836.599989,34.7600106 838.712,32.648 C840.824011,30.5359894 843.84798,29.48 847.784,29.48 L884.648,29.48 C895.880056,29.48 904.615969,32.3359714 910.856,38.048 C917.096031,43.7600286 920.216,51.7039491 920.216,61.88 C920.216,71.9600504 917.072031,79.8799712 910.784,85.64 C904.495969,91.4000288 895.784056,94.28 884.648,94.28 L862.04,94.28 L862.04,118.76 C862.04,122.79202 860.840012,125.983988 858.44,128.336 C856.039988,130.688012 852.776021,131.864 848.648,131.864 Z M881.048,74.408 C885.944024,74.408 889.567988,73.4000101 891.92,71.384 C894.272012,69.3679899 895.448,66.2480211 895.448,62.024 C895.448,53.6719582 890.648048,49.496 881.048,49.496 L862.04,49.496 L862.04,74.408 L881.048,74.408 Z M947.136,131.864 C943.10398,131.864 939.912012,130.688012 937.56,128.336 C935.207988,125.983988 934.032,122.79202 934.032,118.76 L934.032,41.72 C934.032,37.7839803 935.207988,34.6400118 937.56,32.288 C939.912012,29.9359882 943.10398,28.76 947.136,28.76 C951.264021,28.76 954.527988,29.9359882 956.928,32.288 C959.328012,34.6400118 960.528,37.7839803 960.528,41.72 L960.528,118.76 C960.528,122.79202 959.328012,125.983988 956.928,128.336 C954.527988,130.688012 951.264021,131.864 947.136,131.864 Z" id="OilpriceAPI" fill="#342526"></path>
            </g>
        </g>
    </g>
</svg>