<svg xmlns="http://www.w3.org/2000/svg" width="40" height="40" viewBox="0 0 40 40" fill="none">
  <path fill-rule="evenodd" clip-rule="evenodd" d="M7.99994 8.00006C7.99994 8.00006 8.73017 10.6075 10.5899 11.3742C12.4497 12.1408 19.9999 12.9469 19.9999 12.9469L31.1012 10.6885L31.9999 8.00006V28.6001L19.9999 26.4661L7.99994 28.6001V8.00006Z" fill="#E8424D" fill-opacity="0.95"/>
  <path d="M20 12.8C27.1797 12.8 33 10.6062 33 7.9C33 5.1938 27.1797 3 20 3C12.8203 3 7 5.1938 7 7.9C7 10.6062 12.8203 12.8 20 12.8Z" fill="#E8424D" fill-opacity="0.95" stroke="#E8424D" stroke-width="2"/>
  <path d="M13.2 8.60012C14.1941 8.60012 15 8.24195 15 7.80012C15 7.35829 14.1941 7.00012 13.2 7.00012C12.2059 7.00012 11.4 7.35829 11.4 7.80012C11.4 8.24195 12.2059 8.60012 13.2 8.60012Z" fill="white"/>
  <path d="M20 24.6C27.1797 24.6 33 22.4062 33 19.7C33 16.9939 27.1797 14.8 20 14.8C12.8203 14.8 7 16.9939 7 19.7C7 22.4062 12.8203 24.6 20 24.6Z" stroke="#E8424D" stroke-width="2"/>
  <path d="M20 36.4001C27.1797 36.4001 33 34.2063 33 31.5001C33 28.7939 27.1797 26.6001 20 26.6001C12.8203 26.6001 7 28.7939 7 31.5001C7 34.2063 12.8203 36.4001 20 36.4001Z" fill="#E8424D" fill-opacity="0.95" stroke="#E8424D" stroke-width="2"/>
</svg>