<svg xmlns="http://www.w3.org/2000/svg" width="40" height="21" viewBox="0 0 40 21" fill="none">
  <path fill-rule="evenodd" clip-rule="evenodd" d="M0 21H19.988L39.5441 0.0257568H0V21Z" fill="url(#paint0_linear_155_1848)"/>
  <path fill-rule="evenodd" clip-rule="evenodd" d="M23.4673 4.19483H19.5561L19.5801 14.0514L16.1728 4.19483H12.7895L9.88605 12.4301C9.57411 10.3456 7.55852 9.62498 5.97483 9.08454C4.91905 8.72424 3.81527 8.1838 3.81527 7.59189C3.81527 7.10292 4.41515 6.66542 5.56692 6.71689C6.35876 6.76836 7.03062 6.81983 8.42234 7.54042L9.76608 5.01836C8.51833 4.32351 6.79067 3.91174 5.35096 3.91174C3.69529 3.91174 2.30357 4.47792 1.46374 5.43013C0.863857 6.09924 0.551919 6.92277 0.527924 7.87498C0.503929 9.16174 0.935842 10.0625 1.87166 10.7831C2.6395 11.4007 3.6473 11.7867 4.51113 12.0698C5.59091 12.4301 6.47873 12.7389 6.45474 13.4081C6.45474 13.6397 6.35876 13.8713 6.19079 14.0514C5.92684 14.3603 5.51893 14.4632 4.94304 14.4632C3.83926 14.4889 3.02342 14.3088 1.72768 13.4853L0.527924 16.0331C1.82366 16.8309 3.21539 17.2169 4.77507 17.2169H5.135C6.50273 17.1912 7.60651 16.8309 8.49433 16.0845C8.54232 16.0331 8.59031 16.0073 8.6383 15.9559L8.49433 16.7794H11.7817L12.3816 15.1581C13.0054 15.3897 13.7013 15.5184 14.4691 15.5184C15.189 15.5184 15.8849 15.3897 16.5087 15.1838L16.9166 16.7794H22.8195L22.8435 13.0735H24.0912C27.1386 13.0735 28.9382 11.4264 28.9382 8.6213C28.9142 5.5588 27.1866 4.19483 23.4673 4.19483ZM14.4691 12.636C14.0132 12.636 13.5813 12.5588 13.2214 12.4044L14.4451 8.23527H14.4691L15.6929 12.4301C15.309 12.5331 14.901 12.636 14.4691 12.636ZM23.6833 10.2169H22.8195V6.84557H23.6833C24.8351 6.84557 25.7469 7.25733 25.7469 8.51836C25.7469 9.83086 24.8351 10.2169 23.6833 10.2169Z" fill="white"/>
  <defs>
    <linearGradient id="paint0_linear_155_1848" x1="19.772" y1="0.0257568" x2="19.772" y2="21" gradientUnits="userSpaceOnUse">
      <stop stop-color="#00AEEF"/>
      <stop offset="0.212" stop-color="#0097DC"/>
      <stop offset="0.519" stop-color="#007CC5"/>
      <stop offset="0.792" stop-color="#006CB8"/>
      <stop offset="1" stop-color="#0066B3"/>
    </linearGradient>
  </defs>
</svg>