<svg xmlns="http://www.w3.org/2000/svg" width="40" height="38" viewBox="0 0 40 38" fill="none">
  <path d="M38.945 14.9826L38.8899 14.8423L33.5552 0.979456C33.4467 0.707751 33.2545 0.477262 33.0062 0.321061C32.7578 0.167514 32.468 0.0935602 32.1761 0.109186C31.8841 0.124812 31.604 0.229265 31.3736 0.408441C31.1457 0.592761 30.9803 0.842522 30.9001 1.12373L27.298 12.097H12.7123L9.11029 1.12373C9.03217 0.84099 8.86649 0.589978 8.63682 0.406408C8.40637 0.227232 8.12625 0.122779 7.83429 0.107153C7.54233 0.0915276 7.25258 0.165481 7.00417 0.319029C6.75647 0.475861 6.56445 0.706148 6.45519 0.977424L1.11029 14.8342L1.05723 14.9744C0.289274 16.9724 0.194482 19.1648 0.787145 21.2211C1.37981 23.2774 2.6278 25.086 4.34294 26.3744L4.36131 26.3887L4.41029 26.4232L12.5368 32.4829L16.5572 35.5127L19.0062 37.3538C19.2927 37.5704 19.6425 37.6876 20.0021 37.6876C20.3618 37.6876 20.7116 37.5704 20.998 37.3538L23.447 35.5127L27.4674 32.4829L35.6429 26.3866L35.6633 26.3704C37.3746 25.0817 38.6197 23.2749 39.2115 21.2214C39.8033 19.1679 39.7097 16.9786 38.945 14.9826Z" fill="#E24329"/>
  <path d="M38.9449 14.9826L38.8898 14.8424C36.2904 15.3737 33.8409 16.47 31.7163 18.0531L20 26.8744C23.9898 29.8798 27.4633 32.4911 27.4633 32.4911L35.6388 26.3948L35.6592 26.3786C37.3729 25.09 38.6199 23.282 39.2125 21.2267C39.8051 19.1715 39.7112 16.9801 38.9449 14.9826Z" fill="#FC6D26"/>
  <path d="M12.5368 32.4911L16.5572 35.5209L19.0062 37.362C19.2926 37.5785 19.6424 37.6958 20.0021 37.6958C20.3618 37.6958 20.7115 37.5785 20.998 37.362L23.447 35.5209L27.4674 32.4911C27.4674 32.4911 23.9898 29.8717 20 26.8744C16.0102 29.8717 12.5368 32.4911 12.5368 32.4911Z" fill="#FCA326"/>
  <path d="M8.28172 18.0531C6.15885 16.4667 3.70988 15.3675 1.11029 14.8342L1.05723 14.9744C0.289274 16.9724 0.194482 19.1648 0.787145 21.2211C1.37981 23.2774 2.6278 25.0861 4.34294 26.3744L4.36131 26.3887L4.41029 26.4232L12.5368 32.4829C12.5368 32.4829 16.0062 29.8717 20.0001 26.8662L8.28172 18.0531Z" fill="#FC6D26"/>
</svg>