<svg version="1.1" id="Layer_1" xmlns="http://www.w3.org/2000/svg" xmlns:xlink="http://www.w3.org/1999/xlink" x="0px" y="0px"
	 width="100%" viewBox="0 0 512 512" enable-background="new 0 0 512 512" xml:space="preserve">
<path fill="#3861FB" opacity="1.000000" stroke="none" 
	d="
M1.000000,21.000000 
	C1.000000,14.336077 1.000000,7.672153 1.000000,1.006173 
	C171.593689,1.004115 342.187378,1.004115 512.890503,1.004115 
	C512.890503,171.666611 512.890503,342.333313 512.890503,513.000000 
	C506.599243,513.000000 500.268646,513.000000 493.395203,512.653320 
	C490.558807,509.808044 488.342010,507.233490 485.958954,504.823334 
	C472.450836,491.161591 458.904968,477.537231 445.366058,463.905945 
	C443.726562,462.255280 442.077240,460.612885 440.389404,459.012024 
	C430.049469,449.205109 419.609406,439.501465 409.392792,429.567932 
	C405.371704,425.658295 401.989838,421.098328 398.056366,417.090179 
	C388.789215,407.647034 379.365356,398.357635 370.189606,388.725281 
	C371.608337,387.358063 372.861145,386.292145 374.073242,385.181763 
	C380.740051,379.074799 380.531006,368.050049 373.784607,363.034668 
	C373.905487,363.001801 373.970245,363.243835 373.834961,363.034821 
	C373.528412,362.540741 373.336578,362.270264 372.883392,361.771942 
	C365.700562,352.901947 356.862396,351.557678 348.957336,357.941437 
	C347.545471,359.081573 346.178192,360.276886 344.449524,361.242615 
	C336.690979,353.122803 329.276367,345.204193 321.853760,337.293030 
	C319.259888,334.528442 316.725952,331.700897 314.017822,329.052246 
	C311.668732,326.754730 309.024536,324.759796 306.664093,322.472870 
	C300.271240,316.279083 294.007080,309.951843 287.575958,303.798706 
	C286.307220,302.584747 284.519775,301.912964 283.058594,300.653137 
	C290.968872,287.733704 298.730469,275.113342 306.641235,262.587189 
	C310.627167,256.275787 314.883759,250.135361 319.124207,244.381195 
	C319.251984,251.142303 319.215424,257.440674 319.305695,263.737213 
	C319.596313,284.008179 325.275665,301.901459 342.238586,315.053284 
	C342.733673,315.481506 343.030975,315.710480 343.172363,315.932861 
	C343.016449,315.926270 343.031006,315.614532 343.259705,315.851440 
	C344.077148,316.349243 344.665924,316.610107 345.155579,316.906738 
	C345.056519,316.942505 344.986572,316.743805 345.206055,316.964661 
	C345.976898,317.452881 346.528198,317.720245 347.046387,317.995789 
	C347.013245,318.003937 347.002319,317.936554 347.106506,318.265503 
	C353.624023,324.181244 361.333099,326.636749 369.591156,326.925446 
	C396.646057,327.871338 419.318237,310.536713 426.220917,284.263031 
	C429.839569,270.489258 429.296387,256.659851 428.123688,242.676605 
	C426.303802,220.975922 419.857605,200.657471 410.453278,181.205902 
	C408.641968,177.459381 405.611115,174.302505 403.040222,170.772247 
	C402.937561,170.670898 402.967987,170.383987 402.950104,170.019043 
	C402.278198,168.764496 401.624176,167.874893 400.998779,166.989182 
	C401.027405,166.993073 401.005157,167.046387 400.921936,166.754059 
	C400.499115,165.965485 400.159515,165.469223 399.913147,164.980408 
	C400.006439,164.987869 399.991821,165.174423 399.852661,164.959106 
	C399.493011,164.483643 399.272461,164.223495 399.024750,163.978210 
	C398.997589,163.993057 399.047394,163.953064 398.958069,163.678101 
	C398.551117,162.927002 398.233459,162.450882 397.961060,161.986954 
	C398.006348,161.999161 397.982147,162.089767 397.893127,161.790131 
	C397.431183,160.995499 397.058228,160.500534 396.821899,160.006836 
	C396.958557,160.008087 396.955292,160.281403 396.800903,160.049606 
	C396.403046,159.538223 396.159546,159.258636 395.960297,158.990326 
	C396.004547,159.001602 395.982208,159.090164 395.889771,158.791443 
	C395.421844,157.998077 395.046356,157.503433 394.813263,156.999939 
	C394.955627,156.991104 394.972839,157.275864 394.797241,157.050323 
	C394.354401,156.554031 394.087158,156.283295 393.535767,155.844879 
	C348.119324,96.684715 288.955444,73.205849 215.955078,87.217499 
	C179.184937,94.275139 148.870560,113.708878 123.461487,141.184158 
	C114.040184,131.785370 105.003349,122.531296 95.849953,113.393967 
	C91.861908,109.412910 87.509720,105.795403 83.542099,101.795372 
	C75.147202,93.331909 67.055588,84.562851 58.538059,76.227234 
	C51.217506,69.063019 43.255898,62.551285 35.977554,55.347126 
	C25.851210,45.323994 16.131496,34.891010 6.148051,24.721495 
	C4.685741,23.231932 2.728328,22.228413 1.000000,21.000000 
z"/>
<path fill="#1943FD" opacity="1.000000" stroke="none" 
	d="
M284.000000,513.000000 
	C271.979095,513.000000 259.958221,513.000000 247.387497,512.667725 
	C245.617126,510.782288 244.536407,509.090271 243.153900,507.697937 
	C232.042114,496.507324 220.873306,485.373322 209.722168,474.221771 
	C199.378189,463.877411 189.093918,453.472443 178.676895,443.202148 
	C162.342682,427.098022 145.852295,411.152039 129.551620,395.014252 
	C112.792252,378.422394 96.197807,361.664062 79.498329,345.011536 
	C70.459526,335.998169 61.364780,327.040710 52.271252,318.082428 
	C46.355080,312.254211 40.361771,306.504089 34.468594,300.652924 
	C31.062233,297.270844 27.824547,293.719452 24.441048,290.313690 
	C20.697742,286.545746 16.983566,282.737213 13.055509,279.167755 
	C9.167594,275.634796 5.028769,272.377960 1.000000,269.000000 
	C1.000000,257.312439 1.000000,245.624878 1.332278,233.549881 
	C5.982202,237.245544 10.344233,241.282928 14.607671,245.421860 
	C22.068819,252.665115 29.504141,259.935730 36.886158,267.259521 
	C45.125885,275.434204 53.279816,283.695343 61.498158,291.891724 
	C67.807686,298.184387 74.017403,304.587555 80.542076,310.650421 
	C84.868408,314.670593 89.672493,318.176636 94.499336,322.165009 
	C100.088486,332.148895 104.929855,342.207520 110.901222,351.543396 
	C122.878738,370.269470 139.048721,385.038300 157.169678,398.157471 
	C157.676743,398.532837 157.992676,398.713379 158.193237,398.907257 
	C158.077896,398.920563 158.053696,398.689575 158.244690,398.932983 
	C158.972778,399.452423 159.509872,399.728485 160.017807,400.015381 
	C159.988632,400.026245 159.977554,399.964966 160.167755,400.160645 
	C160.674622,400.535248 160.991287,400.714142 161.189560,400.908417 
	C161.071167,400.923798 161.042664,400.686737 161.249023,400.927612 
	C162.019989,401.424866 162.584625,401.681274 163.084549,401.959778 
	C163.019836,401.981903 162.976181,401.852295 163.191193,402.044312 
	C163.751053,402.406158 164.095917,402.576019 164.335175,402.730835 
	C164.229584,402.715729 164.267471,402.505798 164.385559,402.846313 
	C165.716217,403.766541 166.928772,404.346222 168.083160,404.954041 
	C168.024963,404.982178 167.969177,404.865540 168.191132,405.046539 
	C168.766632,405.373260 169.120163,405.519012 169.385071,405.648743 
	C169.296463,405.632751 169.338150,405.457581 169.426514,405.802307 
	C170.480713,407.000397 171.320908,408.099854 172.432648,408.667450 
	C179.927017,412.493744 187.478943,416.207275 195.037598,420.320312 
	C195.855804,422.096436 196.383194,423.772308 197.482040,424.882629 
	C210.202057,437.735291 222.943069,450.568695 235.809265,463.274811 
	C250.567551,477.849396 265.498352,492.249481 280.232697,506.847992 
	C281.891693,508.491669 282.763275,510.930115 284.000000,513.000000 
z"/>
<path fill="#153EFE" opacity="1.000000" stroke="none" 
	d="
M1.000000,269.468658 
	C5.028769,272.377960 9.167594,275.634796 13.055509,279.167755 
	C16.983566,282.737213 20.697742,286.545746 24.441048,290.313690 
	C27.824547,293.719452 31.062233,297.270844 34.468594,300.652924 
	C40.361771,306.504089 46.355080,312.254211 52.271252,318.082428 
	C61.364780,327.040710 70.459526,335.998169 79.498329,345.011536 
	C96.197807,361.664062 112.792252,378.422394 129.551620,395.014252 
	C145.852295,411.152039 162.342682,427.098022 178.676895,443.202148 
	C189.093918,453.472443 199.378189,463.877411 209.722168,474.221771 
	C220.873306,485.373322 232.042114,496.507324 243.153900,507.697937 
	C244.536407,509.090271 245.617126,510.782288 246.918839,512.667725 
	C237.979111,513.000000 228.958206,513.000000 219.394897,512.653564 
	C216.486511,509.622101 214.244659,506.814301 211.732544,504.273773 
	C202.149017,494.581909 192.482803,484.971771 182.838501,475.340057 
	C177.825409,470.333496 172.777176,465.362061 167.774124,460.345520 
	C159.927063,452.477325 152.178894,444.508881 144.249435,436.724945 
	C137.482574,430.082184 130.373520,423.784821 123.679276,417.071991 
	C114.903572,408.272034 106.520012,399.080322 97.722939,390.302521 
	C87.850105,380.451202 77.607292,370.971405 67.698586,361.155151 
	C50.815704,344.429932 34.160881,327.473724 17.206791,310.821686 
	C12.153842,305.858795 6.421213,301.587952 1.000002,297.000000 
	C1.000000,287.979095 1.000000,278.958221 1.000000,269.468658 
z"/>
<path fill="#123BFE" opacity="1.000000" stroke="none" 
	d="
M1.000002,297.468262 
	C6.421213,301.587952 12.153842,305.858795 17.206791,310.821686 
	C34.160881,327.473724 50.815704,344.429932 67.698586,361.155151 
	C77.607292,370.971405 87.850105,380.451202 97.722939,390.302521 
	C106.520012,399.080322 114.903572,408.272034 123.679276,417.071991 
	C130.373520,423.784821 137.482574,430.082184 144.249435,436.724945 
	C152.178894,444.508881 159.927063,452.477325 167.774124,460.345520 
	C172.777176,465.362061 177.825409,470.333496 182.838501,475.340057 
	C192.482803,484.971771 202.149017,494.581909 211.732544,504.273773 
	C214.244659,506.814301 216.486511,509.622101 218.926239,512.653564 
	C212.645599,513.000000 206.291214,513.000000 199.440277,512.641357 
	C197.791138,510.517212 196.910095,508.475372 195.441147,507.031860 
	C186.920990,498.659424 178.136322,490.553894 169.689301,482.109863 
	C162.549225,474.972351 155.925262,467.316254 148.740616,460.226379 
	C142.279907,453.850830 135.132095,448.169464 128.701004,441.766449 
	C113.084045,426.217712 97.808868,410.325806 82.203773,394.764923 
	C68.588013,381.187744 54.672482,367.911652 40.960793,354.429932 
	C32.232635,345.848175 23.714153,337.052368 14.945359,328.513031 
	C10.474738,324.159393 5.659477,320.159698 1.000002,316.000000 
	C1.000000,309.978851 1.000000,303.957703 1.000002,297.468262 
z"/>
<path fill="#335CFB" opacity="1.000000" stroke="none" 
	d="
M370.004883,389.006042 
	C379.365356,398.357635 388.789215,407.647034 398.056366,417.090179 
	C401.989838,421.098328 405.371704,425.658295 409.392792,429.567932 
	C419.609406,439.501465 430.049469,449.205109 440.389404,459.012024 
	C442.077240,460.612885 443.726562,462.255280 445.366058,463.905945 
	C458.904968,477.537231 472.450836,491.161591 485.958954,504.823334 
	C488.342010,507.233490 490.558807,509.808044 492.926178,512.653320 
	C481.979095,513.000000 470.958221,513.000000 459.387421,512.667725 
	C457.618622,510.783997 456.557922,509.069275 455.154022,507.708710 
	C448.234619,501.002686 441.150726,494.465820 434.260681,487.730316 
	C417.555695,471.400055 400.868225,455.050964 384.285889,438.596436 
	C372.763397,427.162720 361.427155,415.541321 350.029175,403.774597 
	C350.050690,403.545410 350.104034,403.088226 350.434814,402.991333 
	C357.178711,398.264954 363.591797,393.635498 370.004883,389.006042 
z"/>
<path fill="#012BFF" opacity="1.000000" stroke="none" 
	d="
M85.000000,513.000000 
	C57.073540,513.000000 29.147079,513.000000 1.000000,513.000000 
	C1.000000,485.646179 1.000000,458.291748 1.385695,430.477051 
	C4.752831,431.870270 8.165045,433.278015 10.633005,435.662872 
	C17.381636,442.184448 23.603823,449.247406 30.271576,455.856781 
	C39.801819,465.303528 49.581486,474.498047 59.180172,483.876495 
	C65.582733,490.132141 72.029366,496.359528 78.108055,502.922119 
	C80.843620,505.875458 82.728905,509.616425 85.000000,513.000000 
z"/>
<path fill="#345DFB" opacity="1.000000" stroke="none" 
	d="
M1.000000,21.468658 
	C2.728328,22.228413 4.685741,23.231932 6.148051,24.721495 
	C16.131496,34.891010 25.851210,45.323994 35.977554,55.347126 
	C43.255898,62.551285 51.217506,69.063019 58.538059,76.227234 
	C67.055588,84.562851 75.147202,93.331909 83.542099,101.795372 
	C87.509720,105.795403 91.861908,109.412910 95.849953,113.393967 
	C105.003349,122.531296 114.040184,131.785370 123.280739,141.486603 
	C119.159081,147.391602 114.881027,152.802078 110.270569,158.045380 
	C99.353004,147.927582 88.555237,138.192123 78.225113,127.983437 
	C53.551399,103.599808 29.108400,78.982780 4.512267,54.520294 
	C3.670321,53.682922 2.185287,53.492153 1.000000,53.000000 
	C1.000000,42.645771 1.000000,32.291542 1.000000,21.468658 
z"/>
<path fill="#2750FC" opacity="1.000000" stroke="none" 
	d="
M396.000000,513.000000 
	C382.979095,513.000000 369.958221,513.000000 356.386169,512.668579 
	C355.625946,511.886475 355.521851,511.331696 355.192749,511.000214 
	C340.118530,495.814117 325.087494,480.584229 309.909576,465.502228 
	C300.737091,456.387756 291.213928,447.624176 282.118011,438.435944 
	C279.874451,436.169556 278.682678,432.862000 277.414856,429.984833 
	C288.215942,427.645813 298.609558,425.355042 309.079193,423.406219 
	C312.090393,427.042328 314.848236,430.517548 317.993164,433.597565 
	C328.414307,443.803711 339.052521,453.788544 349.452911,464.015442 
	C355.707428,470.165527 361.591034,476.691437 367.794556,482.895203 
	C373.986511,489.087311 380.535553,494.928558 386.604645,501.234863 
	C390.069885,504.835663 392.889587,509.057709 396.000000,513.000000 
z"/>
<path fill="#2C55FC" opacity="1.000000" stroke="none" 
	d="
M1.000000,120.000000 
	C1.000000,107.979103 1.000000,95.958214 1.332254,83.549896 
	C2.380278,83.569351 3.221902,83.846748 3.793271,84.402161 
	C15.643927,95.921898 27.482996,107.453735 39.282753,119.025597 
	C46.335732,125.942345 53.330574,132.918594 60.328518,139.891190 
	C71.702667,151.224136 83.029343,162.604996 94.458885,173.881683 
	C95.821854,175.226410 97.702003,176.046967 99.247330,177.466431 
	C95.461891,186.889252 91.771545,195.956146 87.787285,204.848816 
	C84.306229,201.598511 81.118690,198.522842 77.932037,195.446274 
	C69.061317,186.881989 60.115726,178.393509 51.343166,169.729828 
	C43.695343,162.176926 36.249371,154.419785 28.701710,146.765228 
	C23.706989,141.699768 18.765009,136.578934 13.659653,131.626999 
	C9.548431,127.639305 5.227752,123.867554 1.000000,120.000000 
z"/>
<path fill="#0E37FE" opacity="1.000000" stroke="none" 
	d="
M183.000000,513.000000 
	C176.978851,513.000000 170.957703,513.000000 164.387054,512.667725 
	C162.617569,510.782837 161.532303,509.097412 160.154358,507.700745 
	C154.083267,501.547241 147.973511,495.430237 141.791748,489.388000 
	C133.367355,481.153809 124.870041,472.994110 116.393990,464.812836 
	C109.098900,457.771454 101.624352,450.906891 94.525681,443.673187 
	C83.859344,432.804047 73.642616,421.490204 62.878342,410.721680 
	C53.059624,400.899078 42.684235,391.635651 32.706837,381.968201 
	C23.292715,372.846527 14.099847,363.496857 4.742823,354.315552 
	C3.721328,353.313263 2.258253,352.761017 1.000001,352.000000 
	C1.000000,345.978851 1.000000,339.957703 1.359373,333.496704 
	C3.135838,333.850311 4.808286,334.382599 5.929435,335.478760 
	C14.569111,343.925903 23.077612,352.506927 31.677769,360.994812 
	C36.263493,365.520599 41.001945,369.891815 45.580513,374.424652 
	C54.298363,383.055389 62.946739,391.756287 71.632057,400.419891 
	C77.850464,406.622772 84.133286,412.762024 90.293709,419.021820 
	C96.785957,425.618774 103.003433,432.493225 109.633583,438.945740 
	C120.438858,449.461487 131.603806,459.608063 142.390396,470.142426 
	C153.307236,480.803955 164.026688,491.671661 174.662369,502.614502 
	C177.742630,505.783752 180.237030,509.522369 183.000000,513.000000 
z"/>
<path fill="#2750FC" opacity="1.000000" stroke="none" 
	d="
M1.000000,120.468658 
	C5.227752,123.867554 9.548431,127.639305 13.659653,131.626999 
	C18.765009,136.578934 23.706989,141.699768 28.701710,146.765228 
	C36.249371,154.419785 43.695343,162.176926 51.343166,169.729828 
	C60.115726,178.393509 69.061317,186.881989 77.932037,195.446274 
	C81.118690,198.522842 84.306229,201.598511 87.774857,205.241150 
	C85.921005,216.606888 83.785667,227.406082 81.315155,238.041168 
	C79.595543,236.693466 78.127396,235.593979 76.839996,234.312851 
	C66.872032,224.393341 56.971283,214.406067 46.973801,204.516541 
	C44.266068,201.838043 41.144608,199.573425 38.477612,196.858902 
	C28.746557,186.954483 19.214560,176.853058 9.403679,167.029495 
	C6.999954,164.622665 3.822001,162.989090 1.000000,161.000000 
	C1.000000,147.645767 1.000000,134.291550 1.000000,120.468658 
z"/>
<path fill="#3059FC" opacity="1.000000" stroke="none" 
	d="
M99.342430,177.110504 
	C97.702003,176.046967 95.821854,175.226410 94.458885,173.881683 
	C83.029343,162.604996 71.702667,151.224136 60.328518,139.891190 
	C53.330574,132.918594 46.335732,125.942345 39.282753,119.025597 
	C27.482996,107.453735 15.643927,95.921898 3.793271,84.402161 
	C3.221902,83.846748 2.380278,83.569351 1.332254,83.081238 
	C1.000000,73.312439 1.000000,63.624878 1.000000,53.468658 
	C2.185287,53.492153 3.670321,53.682922 4.512267,54.520294 
	C29.108400,78.982780 53.551399,103.599808 78.225113,127.983437 
	C88.555237,138.192123 99.353004,147.927582 110.132233,158.376892 
	C106.665016,164.953903 103.003723,171.032196 99.342430,177.110504 
z"/>
<path fill="#224BFD" opacity="1.000000" stroke="none" 
	d="
M277.007385,430.033081 
	C278.682678,432.862000 279.874451,436.169556 282.118011,438.435944 
	C291.213928,447.624176 300.737091,456.387756 309.909576,465.502228 
	C325.087494,480.584229 340.118530,495.814117 355.192749,511.000214 
	C355.521851,511.331696 355.625946,511.886475 355.917511,512.668579 
	C343.645782,513.000000 331.291534,513.000000 318.387207,512.667358 
	C314.702393,509.200500 311.530029,506.102753 308.440186,502.924805 
	C300.354706,494.608826 292.431366,486.131104 284.212921,477.949341 
	C270.699585,464.496368 256.938110,451.292175 243.467865,437.796814 
	C241.746597,436.072296 241.143417,433.231750 240.488739,430.917725 
	C252.972610,430.629181 264.989990,430.331146 277.007385,430.033081 
z"/>
<path fill="#103AFE" opacity="1.000000" stroke="none" 
	d="
M183.466858,513.000000 
	C180.237030,509.522369 177.742630,505.783752 174.662369,502.614502 
	C164.026688,491.671661 153.307236,480.803955 142.390396,470.142426 
	C131.603806,459.608063 120.438858,449.461487 109.633583,438.945740 
	C103.003433,432.493225 96.785957,425.618774 90.293709,419.021820 
	C84.133286,412.762024 77.850464,406.622772 71.632057,400.419891 
	C62.946739,391.756287 54.298363,383.055389 45.580513,374.424652 
	C41.001945,369.891815 36.263493,365.520599 31.677769,360.994812 
	C23.077612,352.506927 14.569111,343.925903 5.929435,335.478760 
	C4.808286,334.382599 3.135838,333.850311 1.359373,333.028412 
	C1.000000,327.645081 1.000000,322.290131 1.000002,316.467590 
	C5.659477,320.159698 10.474738,324.159393 14.945359,328.513031 
	C23.714153,337.052368 32.232635,345.848175 40.960793,354.429932 
	C54.672482,367.911652 68.588013,381.187744 82.203773,394.764923 
	C97.808868,410.325806 113.084045,426.217712 128.701004,441.766449 
	C135.132095,448.169464 142.279907,453.850830 148.740616,460.226379 
	C155.925262,467.316254 162.549225,474.972351 169.689301,482.109863 
	C178.136322,490.553894 186.920990,498.659424 195.441147,507.031860 
	C196.910095,508.475372 197.791138,510.517212 198.971863,512.641357 
	C193.977905,513.000000 188.955811,513.000000 183.466858,513.000000 
z"/>
<path fill="#2C55FC" opacity="1.000000" stroke="none" 
	d="
M396.468658,513.000000 
	C392.889587,509.057709 390.069885,504.835663 386.604645,501.234863 
	C380.535553,494.928558 373.986511,489.087311 367.794556,482.895203 
	C361.591034,476.691437 355.707428,470.165527 349.452911,464.015442 
	C339.052521,453.788544 328.414307,443.803711 317.993164,433.597565 
	C314.848236,430.517548 312.090393,427.042328 309.440216,423.311646 
	C317.816376,419.589935 325.907593,416.304718 334.007751,413.399353 
	C334.891815,415.687958 335.321045,418.039795 336.710266,419.437592 
	C352.031158,434.852936 367.457550,450.164368 382.945435,465.412476 
	C394.379944,476.669952 406.074463,487.666046 417.390228,499.040131 
	C421.641846,503.313690 425.151855,508.325012 429.000000,513.000000 
	C418.312439,513.000000 407.624878,513.000000 396.468658,513.000000 
z"/>
<path fill="#2F59FC" opacity="1.000000" stroke="none" 
	d="
M429.468658,513.000000 
	C425.151855,508.325012 421.641846,503.313690 417.390228,499.040131 
	C406.074463,487.666046 394.379944,476.669952 382.945435,465.412476 
	C367.457550,450.164368 352.031158,434.852936 336.710266,419.437592 
	C335.321045,418.039795 334.891815,415.687958 334.313110,413.233398 
	C339.742218,409.793030 344.874969,406.898407 350.007690,404.003784 
	C361.427155,415.541321 372.763397,427.162720 384.285889,438.596436 
	C400.868225,455.050964 417.555695,471.400055 434.260681,487.730316 
	C441.150726,494.465820 448.234619,501.002686 455.154022,507.708710 
	C456.557922,509.069275 457.618622,510.783997 458.918762,512.667725 
	C449.312439,513.000000 439.624878,513.000000 429.468658,513.000000 
z"/>
<path fill="#0B35FE" opacity="1.000000" stroke="none" 
	d="
M1.000001,352.467957 
	C2.258253,352.761017 3.721328,353.313263 4.742823,354.315552 
	C14.099847,363.496857 23.292715,372.846527 32.706837,381.968201 
	C42.684235,391.635651 53.059624,400.899078 62.878342,410.721680 
	C73.642616,421.490204 83.859344,432.804047 94.525681,443.673187 
	C101.624352,450.906891 109.098900,457.771454 116.393990,464.812836 
	C124.870041,472.994110 133.367355,481.153809 141.791748,489.388000 
	C147.973511,495.430237 154.083267,501.547241 160.154358,507.700745 
	C161.532303,509.097412 162.617569,510.782837 163.918762,512.667725 
	C157.312363,513.000000 150.624710,513.000000 143.441391,512.633423 
	C142.214584,510.623260 141.874557,508.591675 140.690048,507.398102 
	C131.825531,498.465576 122.738365,489.754547 113.829712,480.865143 
	C103.647308,470.704773 93.589745,460.419403 83.453804,450.212311 
	C76.916328,443.628906 70.438591,436.981262 63.749165,430.554871 
	C54.432789,421.604706 44.758617,413.021484 35.576481,403.938629 
	C24.874521,393.352386 14.553827,382.381165 4.010293,371.633331 
	C3.246000,370.854279 2.014350,370.533722 1.000004,370.000000 
	C1.000000,364.311951 1.000000,358.623932 1.000001,352.467957 
z"/>
<path fill="#1D47FD" opacity="1.000000" stroke="none" 
	d="
M240.022247,430.908203 
	C241.143417,433.231750 241.746597,436.072296 243.467865,437.796814 
	C256.938110,451.292175 270.699585,464.496368 284.212921,477.949341 
	C292.431366,486.131104 300.354706,494.608826 308.440186,502.924805 
	C311.530029,506.102753 314.702393,509.200500 317.918579,512.667358 
	C306.979095,513.000000 295.958221,513.000000 284.468658,513.000000 
	C282.763275,510.930115 281.891693,508.491669 280.232697,506.847992 
	C265.498352,492.249481 250.567551,477.849396 235.809265,463.274811 
	C222.943069,450.568695 210.202057,437.735291 197.482040,424.882629 
	C196.383194,423.772308 195.855804,422.096436 195.397629,420.401245 
	C200.940506,421.764557 206.070435,423.745850 211.374084,424.981659 
	C220.868301,427.193939 230.467148,428.957245 240.022247,430.908203 
z"/>
<path fill="#1D47FD" opacity="1.000000" stroke="none" 
	d="
M94.262711,321.912811 
	C89.672493,318.176636 84.868408,314.670593 80.542076,310.650421 
	C74.017403,304.587555 67.807686,298.184387 61.498158,291.891724 
	C53.279816,283.695343 45.125885,275.434204 36.886158,267.259521 
	C29.504141,259.935730 22.068819,252.665115 14.607671,245.421860 
	C10.344233,241.282928 5.982202,237.245544 1.332278,233.081223 
	C1.000000,223.979111 1.000000,214.958206 1.334797,205.551025 
	C2.633654,205.795975 3.723068,206.296082 4.542192,207.078979 
	C11.955398,214.164124 19.393660,221.225555 26.686378,228.433746 
	C42.984001,244.542435 59.163208,260.771210 75.509392,276.830170 
	C77.257828,278.547913 79.057274,281.758972 82.636322,279.537201 
	C86.616798,293.928741 90.439758,307.920776 94.262711,321.912811 
z"/>
<path fill="#042EFF" opacity="1.000000" stroke="none" 
	d="
M85.468643,513.000000 
	C82.728905,509.616425 80.843620,505.875458 78.108055,502.922119 
	C72.029366,496.359528 65.582733,490.132141 59.180172,483.876495 
	C49.581486,474.498047 39.801819,465.303528 30.271576,455.856781 
	C23.603823,449.247406 17.381636,442.184448 10.633005,435.662872 
	C8.165045,433.278015 4.752831,431.870270 1.385695,430.008362 
	C1.000000,421.312439 1.000000,412.624878 1.332268,403.549866 
	C3.215030,404.380341 4.905229,405.457703 6.294166,406.838165 
	C18.630857,419.099335 30.924957,431.403442 43.208450,443.718048 
	C48.810749,449.334564 54.274727,455.091461 59.954296,460.627869 
	C69.454063,469.888184 79.188362,478.909790 88.608421,488.249237 
	C95.026497,494.612457 101.139336,501.289368 107.241142,507.960968 
	C108.496506,509.333588 109.097427,511.304718 110.000000,513.000000 
	C101.979103,513.000000 93.958199,513.000000 85.468643,513.000000 
z"/>
<path fill="#0731FF" opacity="1.000000" stroke="none" 
	d="
M110.468269,513.000000 
	C109.097427,511.304718 108.496506,509.333588 107.241142,507.960968 
	C101.139336,501.289368 95.026497,494.612457 88.608421,488.249237 
	C79.188362,478.909790 69.454063,469.888184 59.954296,460.627869 
	C54.274727,455.091461 48.810749,449.334564 43.208450,443.718048 
	C30.924957,431.403442 18.630857,419.099335 6.294166,406.838165 
	C4.905229,405.457703 3.215030,404.380341 1.332268,403.081238 
	C1.000000,397.645081 1.000000,392.290131 1.345417,386.540924 
	C3.251238,387.063080 5.084065,387.705231 6.327833,388.940460 
	C14.457079,397.013977 22.437212,405.237305 30.510195,413.367859 
	C35.422066,418.314758 40.469471,423.127747 45.354519,428.100555 
	C52.104065,434.971375 58.604370,442.093262 65.488968,448.823700 
	C75.699448,458.805481 86.229401,468.459839 96.481499,478.399872 
	C106.249931,487.871063 115.891357,497.475708 125.448021,507.160461 
	C127.005325,508.738617 127.834358,511.035370 129.000000,513.000000 
	C122.978844,513.000000 116.957695,513.000000 110.468269,513.000000 
z"/>
<path fill="#0933FE" opacity="1.000000" stroke="none" 
	d="
M129.464661,513.000000 
	C127.834358,511.035370 127.005325,508.738617 125.448021,507.160461 
	C115.891357,497.475708 106.249931,487.871063 96.481499,478.399872 
	C86.229401,468.459839 75.699448,458.805481 65.488968,448.823700 
	C58.604370,442.093262 52.104065,434.971375 45.354519,428.100555 
	C40.469471,423.127747 35.422066,418.314758 30.510195,413.367859 
	C22.437212,405.237305 14.457079,397.013977 6.327833,388.940460 
	C5.084065,387.705231 3.251238,387.063080 1.345417,386.073303 
	C1.000000,380.977905 1.000000,375.955811 1.000004,370.466858 
	C2.014350,370.533722 3.246000,370.854279 4.010293,371.633331 
	C14.553827,382.381165 24.874521,393.352386 35.576481,403.938629 
	C44.758617,413.021484 54.432789,421.604706 63.749165,430.554871 
	C70.438591,436.981262 76.916328,443.628906 83.453804,450.212311 
	C93.589745,460.419403 103.647308,470.704773 113.829712,480.865143 
	C122.738365,489.754547 131.825531,498.465576 140.690048,507.398102 
	C141.874557,508.591675 142.214584,510.623260 142.972855,512.633423 
	C138.643097,513.000000 134.286194,513.000000 129.464661,513.000000 
z"/>
<path fill="#224CFD" opacity="1.000000" stroke="none" 
	d="
M1.000000,161.468628 
	C3.822001,162.989090 6.999954,164.622665 9.403679,167.029495 
	C19.214560,176.853058 28.746557,186.954483 38.477612,196.858902 
	C41.144608,199.573425 44.266068,201.838043 46.973801,204.516541 
	C56.971283,214.406067 66.872032,224.393341 76.839996,234.312851 
	C78.127396,235.593979 79.595543,236.693466 81.362885,238.496979 
	C81.444160,245.745270 81.142540,252.373672 80.479813,258.970886 
	C77.167152,257.214264 73.737457,255.984573 71.346191,253.678207 
	C60.556938,243.272049 50.001408,232.620422 39.480618,221.940048 
	C31.708189,214.049683 24.294830,205.799164 16.382950,198.054993 
	C11.588866,193.362534 6.149479,189.329361 1.000001,185.000000 
	C1.000000,177.312424 1.000000,169.624832 1.000000,161.468628 
z"/>
<path fill="#204AFD" opacity="1.000000" stroke="none" 
	d="
M1.000001,185.468414 
	C6.149479,189.329361 11.588866,193.362534 16.382950,198.054993 
	C24.294830,205.799164 31.708189,214.049683 39.480618,221.940048 
	C50.001408,232.620422 60.556938,243.272049 71.346191,253.678207 
	C73.737457,255.984573 77.167152,257.214264 80.565765,259.430115 
	C81.501488,266.326202 81.990143,272.731964 82.478798,279.137695 
	C79.057274,281.758972 77.257828,278.547913 75.509392,276.830170 
	C59.163208,260.771210 42.984001,244.542435 26.686378,228.433746 
	C19.393660,221.225555 11.955398,214.164124 4.542192,207.078979 
	C3.723068,206.296082 2.633654,205.795975 1.334797,205.082367 
	C1.000000,198.645599 1.000000,192.291214 1.000001,185.468414 
z"/>
<path fill="#FDFEFF" opacity="1.000000" stroke="none" 
	d="
M82.636322,279.537201 
	C81.990143,272.731964 81.501488,266.326202 80.926880,259.461273 
	C81.142540,252.373672 81.444160,245.745270 81.698059,238.661072 
	C83.785667,227.406082 85.921005,216.606888 88.068771,205.415375 
	C91.771545,195.956146 95.461891,186.889252 99.247330,177.466431 
	C103.003723,171.032196 106.665016,164.953903 110.464645,158.544067 
	C114.881027,152.802078 119.159081,147.391602 123.617874,141.678711 
	C148.870560,113.708878 179.184937,94.275139 215.955078,87.217499 
	C288.955444,73.205849 348.119324,96.684715 393.632599,156.136841 
	C394.333282,156.822922 394.653076,157.049393 394.972839,157.275864 
	C394.972839,157.275864 394.955627,156.991104 394.868927,157.322067 
	C395.182220,158.132080 395.582214,158.611115 395.982208,159.090149 
	C395.982208,159.090164 396.004547,159.001602 396.023438,159.287872 
	C396.346680,159.809891 396.650970,160.045654 396.955292,160.281403 
	C396.955292,160.281403 396.958557,160.008087 396.869873,160.330261 
	C397.181488,161.131531 397.581818,161.610657 397.982147,162.089783 
	C397.982147,162.089767 398.006348,161.999161 398.008759,162.278961 
	C398.356567,163.023529 398.701996,163.488297 399.047394,163.953064 
	C399.047394,163.953064 398.997589,163.993057 399.066071,164.256073 
	C399.420319,164.737518 399.706085,164.955963 399.991821,165.174423 
	C399.991821,165.174423 400.006439,164.987869 399.956635,165.291107 
	C400.272919,166.078354 400.639038,166.562378 401.005157,167.046387 
	C401.005157,167.046387 401.027405,166.993073 401.051208,167.320526 
	C401.706024,168.559982 402.337006,169.471985 402.967987,170.383987 
	C402.967987,170.383987 402.937561,170.670898 403.103027,171.128387 
	C420.270782,202.686752 428.025024,235.888672 423.844238,271.170532 
	C421.172913,293.714081 409.271362,310.615204 387.733215,319.492249 
	C374.048920,325.132294 360.374573,323.847534 347.002319,317.936554 
	C347.002319,317.936554 347.013245,318.003937 346.850891,317.749207 
	C346.121185,317.244232 345.553894,316.994019 344.986572,316.743805 
	C344.986572,316.743805 345.056519,316.942505 344.970001,316.631012 
	C344.265991,316.084534 343.648499,315.849518 343.031006,315.614532 
	C343.031006,315.614532 343.016449,315.926270 343.075317,315.640259 
	C342.769714,315.187531 342.405243,315.020782 342.040771,314.854034 
	C325.275665,301.901459 319.596313,284.008179 319.305695,263.737213 
	C319.215424,257.440674 319.251984,251.142303 319.223999,243.947540 
	C319.217499,239.884201 319.217499,236.718094 319.217499,233.551971 
	C310.693085,245.397079 303.329895,257.397186 295.740570,269.252502 
	C286.709412,283.360107 278.045654,297.754944 268.159424,311.246155 
	C260.689117,321.440491 250.203796,326.398468 237.093414,321.892792 
	C237.092545,321.929443 237.165817,321.931549 236.987213,321.665161 
	C236.216843,321.162506 235.625076,320.926208 235.043808,320.810974 
	C235.054321,320.932007 235.296219,320.909119 235.170685,320.662079 
	C234.706390,320.299164 234.367615,320.183319 233.821869,319.800812 
	C227.386795,314.634308 223.923035,307.974182 223.085281,300.356476 
	C222.089569,291.302307 222.062729,282.141571 221.710556,272.565033 
	C221.739639,262.732788 221.674225,253.362534 221.694016,243.556656 
	C221.779236,240.206299 221.779236,237.291550 221.779236,234.376785 
	C221.446533,234.260468 221.113831,234.144135 220.781113,234.027817 
	C213.357040,245.958237 205.932953,257.888672 198.280579,270.048767 
	C182.466492,294.845398 166.996674,319.487427 151.187881,343.910034 
	C148.345383,348.301361 148.839462,350.993073 153.087219,353.918457 
	C159.064316,359.182709 164.548721,364.581512 170.726425,369.013977 
	C194.079605,385.769745 220.052338,395.101044 249.427002,395.605347 
	C260.919922,394.543365 271.984344,393.345734 283.454498,392.156433 
	C292.588745,389.145508 301.317291,386.126221 310.413147,383.057800 
	C316.871979,379.680969 322.963440,376.353271 329.394348,372.957428 
	C334.752686,369.075104 339.771484,365.260925 344.790314,361.446716 
	C346.178192,360.276886 347.545471,359.081573 348.957336,357.941437 
	C356.862396,351.557678 365.700562,352.901947 372.903168,362.051025 
	C373.432587,362.796265 373.701416,363.020050 373.970245,363.243835 
	C373.970245,363.243835 373.905487,363.001801 373.863800,363.444641 
	C376.413361,371.430786 374.325226,377.700073 368.274445,382.560303 
	C360.519470,388.789459 352.561279,394.765625 344.359131,400.927948 
	C319.538513,416.095337 292.964478,424.993378 264.244232,426.506592 
	C251.968750,427.153351 239.387238,427.341339 227.320511,425.401123 
	C206.997238,422.133362 187.515213,415.451630 169.338150,405.457581 
	C169.338150,405.457581 169.296463,405.632751 169.206116,405.403076 
	C168.733582,405.070770 168.351379,404.968170 167.969177,404.865540 
	C167.969177,404.865540 168.024963,404.982178 167.923523,404.662170 
	C166.637207,403.730042 165.452347,403.117920 164.267471,402.505798 
	C164.267471,402.505798 164.229584,402.715729 164.175323,402.468201 
	C163.739426,402.097900 163.357803,401.975098 162.976181,401.852295 
	C162.976181,401.852295 163.019836,401.981903 162.932190,401.673706 
	C162.243912,401.139282 161.643280,400.912994 161.042664,400.686737 
	C161.042664,400.686737 161.071167,400.923798 161.057373,400.645630 
	C160.688232,400.233276 160.332886,400.099121 159.977554,399.964966 
	C159.977554,399.964966 159.988632,400.026245 159.850433,399.754822 
	C159.159393,399.218811 158.606537,398.954193 158.053696,398.689575 
	C158.053696,398.689575 158.077896,398.920563 158.060623,398.644653 
	C157.688416,398.233368 157.333466,398.097992 156.978531,397.962646 
	C139.048721,385.038300 122.878738,370.269470 110.901222,351.543396 
	C104.929855,342.207520 100.088486,332.148895 94.499336,322.165009 
	C90.439758,307.920776 86.616798,293.928741 82.636322,279.537201 
M334.981171,141.031494 
	C334.981171,141.031494 335.018097,141.018356 334.640411,140.477081 
	C333.498322,139.806656 332.356232,139.136230 331.248169,138.662201 
	C331.248169,138.662201 331.442780,138.619110 331.052460,138.091568 
	C330.110291,137.548843 329.168091,137.006119 328.255646,136.649582 
	C328.255646,136.649582 328.440094,136.610458 328.032166,136.074341 
	C326.456085,135.188873 324.880005,134.303406 323.324402,133.554367 
	C323.324402,133.554367 323.458496,133.521957 323.012451,133.024902 
	C320.995148,131.986496 318.977844,130.948105 316.559113,129.394089 
	C314.748749,128.645065 312.938385,127.896034 310.512512,126.719734 
	C309.626770,126.265656 308.771210,125.735992 307.850952,125.368378 
	C265.789490,108.565880 224.548660,110.272530 184.770538,132.069412 
	C156.287384,147.677094 135.635864,170.792908 122.867729,201.643356 
	C105.320496,242.262451 111.022858,290.836945 129.065475,320.397186 
	C129.558868,319.608124 129.965302,318.958130 130.883118,317.866821 
	C141.916473,300.242096 152.949829,282.617371 164.544067,264.604614 
	C172.747955,251.489746 180.951828,238.374878 189.705078,224.840347 
	C197.844543,212.310593 205.501938,199.431458 214.258667,187.349060 
	C223.063385,175.200394 239.217041,173.719009 248.913605,188.640152 
	C249.262924,189.136520 249.612259,189.632889 249.954269,190.029099 
	C249.954269,190.029099 249.854202,190.037552 249.969452,190.814926 
	C250.977997,197.160156 252.744049,203.492035 252.856140,209.853058 
	C253.224304,230.745438 252.992218,251.648392 252.990799,272.547272 
	C252.990707,274.017059 252.990799,275.486877 252.990799,276.956665 
	C253.356903,276.975128 253.723007,276.993561 254.089111,277.012024 
	C255.133728,275.154083 256.178345,273.296143 257.756989,270.987213 
	C268.147186,254.402679 278.318359,237.674896 289.027374,221.298828 
	C293.810028,213.985306 299.042908,206.751053 305.180176,200.584198 
	C317.230560,188.475754 334.690979,187.041794 345.891968,204.642334 
	C346.244781,205.142593 346.597565,205.642868 346.946808,206.040939 
	C346.946808,206.040939 346.844666,206.045959 346.957916,206.818604 
	C348.197357,213.944626 350.182404,221.035934 350.515961,228.204117 
	C351.147003,241.765137 350.639191,255.375183 350.987305,268.955048 
	C351.158539,275.633942 352.694183,282.087616 358.364807,287.499023 
	C364.737213,293.061127 371.729645,293.018585 378.771484,289.256531 
	C387.576294,284.552551 391.988159,276.512299 392.950439,266.997070 
	C395.832550,238.497803 389.749451,211.714569 375.918427,186.750351 
	C366.042023,168.924088 353.092590,153.676147 335.947021,141.485672 
	C335.622711,141.321442 335.298431,141.157211 334.981171,141.031494 
z"/>
<path fill="#345DFB" opacity="1.000000" stroke="none" 
	d="
M344.449524,361.242615 
	C339.771484,365.260925 334.752686,369.075104 329.107269,372.779175 
	C322.615234,366.200531 316.841705,359.645172 310.845184,353.300598 
	C307.895966,350.180176 304.442169,347.543121 301.376221,344.525299 
	C292.911072,336.192963 284.503693,327.801331 276.144226,319.363007 
	C274.903717,318.110748 274.046173,316.479034 273.187164,314.736633 
	C276.565765,309.963959 279.768646,305.477539 282.971527,300.991119 
	C284.519775,301.912964 286.307220,302.584747 287.575958,303.798706 
	C294.007080,309.951843 300.271240,316.279083 306.664093,322.472870 
	C309.024536,324.759796 311.668732,326.754730 314.017822,329.052246 
	C316.725952,331.700897 319.259888,334.528442 321.853760,337.293030 
	C329.276367,345.204193 336.690979,353.122803 344.449524,361.242615 
z"/>
<path fill="#3758D7" opacity="1.000000" stroke="none" 
	d="
M347.106506,318.265503 
	C360.374573,323.847534 374.048920,325.132294 387.733215,319.492249 
	C409.271362,310.615204 421.172913,293.714081 423.844238,271.170532 
	C428.025024,235.888672 420.270782,202.686752 403.205688,171.229736 
	C405.611115,174.302505 408.641968,177.459381 410.453278,181.205902 
	C419.857605,200.657471 426.303802,220.975922 428.123688,242.676605 
	C429.296387,256.659851 429.839569,270.489258 426.220917,284.263031 
	C419.318237,310.536713 396.646057,327.871338 369.591156,326.925446 
	C361.333099,326.636749 353.624023,324.181244 347.106506,318.265503 
z"/>
<path fill="#3354D6" opacity="1.000000" stroke="none" 
	d="
M283.058594,300.653137 
	C279.768646,305.477539 276.565765,309.963959 272.905518,314.911682 
	C267.640015,318.948608 262.831879,322.524170 257.660950,326.227295 
	C249.811646,328.232025 242.616074,328.802643 237.094284,321.856140 
	C250.203796,326.398468 260.689117,321.440491 268.159424,311.246155 
	C278.045654,297.754944 286.709412,283.360107 295.740570,269.252502 
	C303.329895,257.397186 310.693085,245.397079 319.217499,233.551971 
	C319.217499,236.718094 319.217499,239.884201 319.117737,243.483978 
	C314.883759,250.135361 310.627167,256.275787 306.641235,262.587189 
	C298.730469,275.113342 290.968872,287.733704 283.058594,300.653137 
z"/>
<path fill="#3354D6" opacity="1.000000" stroke="none" 
	d="
M344.690613,400.850769 
	C352.561279,394.765625 360.519470,388.789459 368.274445,382.560303 
	C374.325226,377.700073 376.413361,371.430786 373.742920,363.477509 
	C380.531006,368.050049 380.740051,379.074799 374.073242,385.181763 
	C372.861145,386.292145 371.608337,387.358063 370.189606,388.725281 
	C363.591797,393.635498 357.178711,398.264954 350.156921,402.738953 
	C347.929016,402.005920 346.309814,401.428345 344.690613,400.850769 
z"/>
<path fill="#3758D7" opacity="1.000000" stroke="none" 
	d="
M402.950104,170.019043 
	C402.337006,169.471985 401.706024,168.559982 401.022583,167.316635 
	C401.624176,167.874893 402.278198,168.764496 402.950104,170.019043 
z"/>
<path fill="#3758D7" opacity="1.000000" stroke="none" 
	d="
M345.206055,316.964661 
	C345.553894,316.994019 346.121185,317.244232 346.884033,317.741028 
	C346.528198,317.720245 345.976898,317.452881 345.206055,316.964661 
z"/>
<path fill="#3758D7" opacity="1.000000" stroke="none" 
	d="
M400.921936,166.754074 
	C400.639038,166.562378 400.272919,166.078354 399.863342,165.283661 
	C400.159515,165.469223 400.499115,165.965485 400.921936,166.754074 
z"/>
<path fill="#3758D7" opacity="1.000000" stroke="none" 
	d="
M397.893127,161.790131 
	C397.581818,161.610657 397.181488,161.131531 396.733215,160.328995 
	C397.058228,160.500534 397.431183,160.995499 397.893127,161.790131 
z"/>
<path fill="#3758D7" opacity="1.000000" stroke="none" 
	d="
M398.958069,163.678101 
	C398.701996,163.488297 398.356567,163.023529 397.963501,162.266754 
	C398.233459,162.450882 398.551117,162.927002 398.958069,163.678101 
z"/>
<path fill="#3758D7" opacity="1.000000" stroke="none" 
	d="
M343.259705,315.851440 
	C343.648499,315.849518 344.265991,316.084534 345.069092,316.595245 
	C344.665924,316.610107 344.077148,316.349243 343.259705,315.851440 
z"/>
<path fill="#3758D7" opacity="1.000000" stroke="none" 
	d="
M395.889771,158.791443 
	C395.582214,158.611115 395.182220,158.132080 394.726562,157.330902 
	C395.046356,157.503433 395.421844,157.998077 395.889771,158.791443 
z"/>
<path fill="#3758D7" opacity="1.000000" stroke="none" 
	d="
M399.852661,164.959106 
	C399.706085,164.955963 399.420319,164.737518 399.093231,164.241211 
	C399.272461,164.223495 399.493011,164.483643 399.852661,164.959106 
z"/>
<path fill="#3758D7" opacity="1.000000" stroke="none" 
	d="
M396.800903,160.049606 
	C396.650970,160.045654 396.346680,159.809891 395.979187,159.276581 
	C396.159546,159.258636 396.403046,159.538223 396.800903,160.049606 
z"/>
<path fill="#3758D7" opacity="1.000000" stroke="none" 
	d="
M342.238586,315.053284 
	C342.405243,315.020782 342.769714,315.187531 343.231201,315.646851 
	C343.030975,315.710480 342.733673,315.481506 342.238586,315.053284 
z"/>
<path fill="#3354D6" opacity="1.000000" stroke="none" 
	d="
M373.834961,363.034821 
	C373.701416,363.020050 373.432587,362.796265 373.143982,362.293396 
	C373.336578,362.270264 373.528412,362.540741 373.834961,363.034821 
z"/>
<path fill="#3758D7" opacity="1.000000" stroke="none" 
	d="
M394.797241,157.050323 
	C394.653076,157.049393 394.333282,156.822922 393.916687,156.304504 
	C394.087158,156.283295 394.354401,156.554031 394.797241,157.050323 
z"/>
<path fill="#2547D6" opacity="1.000000" stroke="none" 
	d="
M344.359100,400.927917 
	C346.309814,401.428345 347.929016,402.005920 349.826111,402.835876 
	C350.104034,403.088226 350.050690,403.545410 350.029175,403.774597 
	C344.874969,406.898407 339.742218,409.793030 334.304138,412.853577 
	C325.907593,416.304718 317.816376,419.589935 309.364166,422.969727 
	C298.609558,425.355042 288.215942,427.645813 277.414856,429.984833 
	C264.989990,430.331146 252.972610,430.629181 240.488739,430.917725 
	C230.467148,428.957245 220.868301,427.193939 211.374084,424.981659 
	C206.070435,423.745850 200.940506,421.764557 195.372269,420.038239 
	C187.478943,416.207275 179.927017,412.493744 172.432648,408.667450 
	C171.320908,408.099854 170.480713,407.000397 169.426514,405.802307 
	C187.515213,415.451630 206.997238,422.133362 227.320511,425.401123 
	C239.387238,427.341339 251.968750,427.153351 264.244232,426.506592 
	C292.964478,424.993378 319.538513,416.095337 344.359100,400.927917 
z"/>
<path fill="#2547D6" opacity="1.000000" stroke="none" 
	d="
M164.385559,402.846313 
	C165.452347,403.117920 166.637207,403.730042 167.981705,404.634033 
	C166.928772,404.346222 165.716217,403.766541 164.385559,402.846313 
z"/>
<path fill="#2547D6" opacity="1.000000" stroke="none" 
	d="
M161.249023,400.927612 
	C161.643280,400.912994 162.243912,401.139282 162.996887,401.651611 
	C162.584625,401.681274 162.019989,401.424866 161.249023,400.927612 
z"/>
<path fill="#2547D6" opacity="1.000000" stroke="none" 
	d="
M158.244690,398.932983 
	C158.606537,398.954193 159.159393,399.218811 159.879608,399.743958 
	C159.509872,399.728485 158.972778,399.452423 158.244690,398.932983 
z"/>
<path fill="#2547D6" opacity="1.000000" stroke="none" 
	d="
M163.191193,402.044312 
	C163.357803,401.975098 163.739426,402.097900 164.280914,402.483276 
	C164.095917,402.576019 163.751053,402.406158 163.191193,402.044312 
z"/>
<path fill="#2547D6" opacity="1.000000" stroke="none" 
	d="
M168.191132,405.046570 
	C168.351379,404.968170 168.733582,405.070770 169.294739,405.419067 
	C169.120163,405.519012 168.766632,405.373260 168.191132,405.046570 
z"/>
<path fill="#2547D6" opacity="1.000000" stroke="none" 
	d="
M160.167755,400.160645 
	C160.332886,400.099121 160.688232,400.233276 161.175751,400.630249 
	C160.991287,400.714142 160.674622,400.535248 160.167755,400.160645 
z"/>
<path fill="#2547D6" opacity="1.000000" stroke="none" 
	d="
M157.169678,398.157471 
	C157.333466,398.097992 157.688416,398.233368 158.175964,398.631348 
	C157.992676,398.713379 157.676743,398.532837 157.169678,398.157471 
z"/>
<path fill="#3861FB" opacity="1.000000" stroke="none" 
	d="
M336.225739,141.974533 
	C353.092590,153.676147 366.042023,168.924088 375.918427,186.750351 
	C389.749451,211.714569 395.832550,238.497803 392.950439,266.997070 
	C391.988159,276.512299 387.576294,284.552551 378.771484,289.256531 
	C371.729645,293.018585 364.737213,293.061127 358.158234,286.802979 
	C356.959595,278.086151 355.554230,270.089264 355.087891,262.038025 
	C354.588867,253.422501 355.100800,244.753220 354.927826,236.112274 
	C354.821808,230.814575 354.758820,225.429184 353.759399,220.260529 
	C352.753082,215.056168 352.112610,209.324921 346.844666,206.045959 
	C346.844666,206.045959 346.946808,206.040939 346.877380,205.787537 
	C346.456970,205.029877 346.105988,204.525604 345.755005,204.021332 
	C334.690979,187.041794 317.230560,188.475754 305.180176,200.584198 
	C299.042908,206.751053 293.810028,213.985306 289.027374,221.298828 
	C278.318359,237.674896 268.147186,254.402679 257.445190,270.716980 
	C257.091980,268.291534 257.016418,266.136414 257.014496,263.981201 
	C256.998352,245.737579 257.272491,227.487488 256.847534,209.253616 
	C256.686157,202.329025 256.310089,194.927551 249.854202,190.037552 
	C249.854202,190.037552 249.954269,190.029099 249.884033,189.781052 
	C249.482071,189.027145 249.150360,188.521271 248.818634,188.015411 
	C239.217041,173.719009 223.063385,175.200394 214.258667,187.349060 
	C205.501938,199.431458 197.844543,212.310593 189.191589,224.791565 
	C186.330170,222.415634 183.990540,220.080032 181.632751,217.762894 
	C174.217010,210.475082 166.807587,203.180740 159.370361,195.914917 
	C153.572281,190.250488 147.736343,184.624847 142.014282,178.648560 
	C146.611053,172.805435 150.779572,166.981018 155.665558,161.838272 
	C182.528717,133.563477 215.768631,119.152695 254.565109,118.194740 
	C272.216553,117.758896 289.679871,120.292870 306.318085,126.910133 
	C307.729553,127.471489 309.515869,127.090317 311.128021,127.147011 
	C312.938385,127.896034 314.748749,128.645065 316.867493,129.988953 
	C319.270111,131.563202 321.364288,132.542587 323.458496,133.521957 
	C323.458496,133.521957 323.324402,133.554367 323.410095,133.846481 
	C325.143890,134.962540 326.791992,135.786499 328.440094,136.610458 
	C328.440094,136.610458 328.255646,136.649582 328.361877,136.900116 
	C329.459656,137.640137 330.451202,138.129623 331.442780,138.619110 
	C331.442780,138.619110 331.248169,138.662201 331.355621,138.904877 
	C332.648071,139.771164 333.833099,140.394760 335.018097,141.018356 
	C335.018097,141.018356 334.981171,141.031494 335.168152,141.197830 
	C335.645325,141.567612 335.935516,141.771072 336.225739,141.974533 
z"/>
<path fill="#2D56FC" opacity="1.000000" stroke="none" 
	d="
M237.093414,321.892792 
	C242.616074,328.802643 249.811646,328.232025 257.731537,326.561096 
	C259.437469,328.672028 260.435028,330.855286 262.031952,332.431183 
	C267.784393,338.107849 274.046051,343.293030 279.550964,349.190674 
	C289.923004,360.302795 299.902893,371.780975 310.045807,383.106964 
	C301.317291,386.126221 292.588745,389.145508 283.370667,391.814209 
	C275.042175,382.316864 267.585236,372.804565 259.269196,364.114471 
	C248.506943,352.868164 237.029587,342.307892 225.928680,331.382568 
	C223.349487,328.844147 221.182632,325.885284 218.590988,323.361267 
	C212.233459,317.169525 205.783157,311.070892 199.281113,305.030640 
	C195.919006,301.907318 192.367294,298.988098 189.005585,295.640808 
	C189.670380,294.285919 190.200729,293.248932 190.796127,292.250732 
	C195.219254,284.835358 199.655289,277.427704 204.348267,269.820526 
	C206.702362,267.033752 208.795502,264.444092 211.056229,262.170166 
	C214.687912,265.999603 218.151993,269.513306 221.616058,273.027008 
	C222.062729,282.141571 222.089569,291.302307 223.085281,300.356476 
	C223.923035,307.974182 227.386795,314.634308 234.014465,319.965393 
	C234.708099,320.567444 235.002167,320.738281 235.296219,320.909119 
	C235.296219,320.909119 235.054321,320.932007 235.258804,321.047485 
	C236.030807,321.419128 236.598312,321.675323 237.165817,321.931549 
	C237.165817,321.931549 237.092545,321.929443 237.093414,321.892792 
z"/>
<path fill="#2851FC" opacity="1.000000" stroke="none" 
	d="
M188.901245,295.976685 
	C192.367294,298.988098 195.919006,301.907318 199.281113,305.030640 
	C205.783157,311.070892 212.233459,317.169525 218.590988,323.361267 
	C221.182632,325.885284 223.349487,328.844147 225.928680,331.382568 
	C237.029587,342.307892 248.506943,352.868164 259.269196,364.114471 
	C267.585236,372.804565 275.042175,382.316864 282.964905,391.805847 
	C271.984344,393.345734 260.919922,394.543365 249.383850,395.281769 
	C247.667618,393.107971 246.517578,391.313629 245.155212,389.698425 
	C243.339020,387.545227 241.328537,385.557281 239.453033,383.452454 
	C234.518021,377.913910 229.836716,372.128113 224.638306,366.850555 
	C217.326416,359.427307 209.551575,352.462433 202.137146,345.137146 
	C194.827942,337.915802 187.735413,330.475494 180.515335,323.163361 
	C178.734909,321.360229 176.828308,319.681671 175.054169,317.604309 
	C179.719498,310.167419 184.310379,303.072052 188.901245,295.976685 
z"/>
<path fill="#234DFD" opacity="1.000000" stroke="none" 
	d="
M174.979706,317.945862 
	C176.828308,319.681671 178.734909,321.360229 180.515335,323.163361 
	C187.735413,330.475494 194.827942,337.915802 202.137146,345.137146 
	C209.551575,352.462433 217.326416,359.427307 224.638306,366.850555 
	C229.836716,372.128113 234.518021,377.913910 239.453033,383.452454 
	C241.328537,385.557281 243.339020,387.545227 245.155212,389.698425 
	C246.517578,391.313629 247.667618,393.107971 248.955353,395.146118 
	C220.052338,395.101044 194.079605,385.769745 170.726425,369.013977 
	C164.548721,364.581512 159.064316,359.182709 153.135895,353.578796 
	C160.333389,341.268585 167.656555,329.607208 174.979706,317.945862 
z"/>
<path fill="#2F58FC" opacity="1.000000" stroke="none" 
	d="
M141.917221,178.981964 
	C147.736343,184.624847 153.572281,190.250488 159.370361,195.914917 
	C166.807587,203.180740 174.217010,210.475082 181.632751,217.762894 
	C183.990540,220.080032 186.330170,222.415634 188.916901,225.001404 
	C180.951828,238.374878 172.747955,251.489746 164.019577,264.573914 
	C158.063538,259.234772 152.631744,253.926544 147.200470,248.617752 
	C138.462204,240.076508 129.724258,231.534927 121.007294,222.606354 
	C123.685204,214.810760 126.342018,207.402328 129.160736,199.686417 
	C133.520844,192.579941 137.719025,185.780945 141.917221,178.981964 
z"/>
<path fill="#2750FC" opacity="1.000000" stroke="none" 
	d="
M120.986176,222.993500 
	C129.724258,231.534927 138.462204,240.076508 147.200470,248.617752 
	C152.631744,253.926544 158.063538,259.234772 163.739136,264.767944 
	C152.949829,282.617371 141.916473,300.242096 130.355957,317.829865 
	C128.483688,315.145721 126.877983,312.596741 125.837555,309.834747 
	C120.722466,296.255920 117.887680,282.244476 116.648872,267.724854 
	C115.344337,252.434769 117.819923,237.733551 120.986176,222.993500 
z"/>
<path fill="#315AFC" opacity="1.000000" stroke="none" 
	d="
M310.413147,383.057800 
	C299.902893,371.780975 289.923004,360.302795 279.550964,349.190674 
	C274.046051,343.293030 267.784393,338.107849 262.031952,332.431183 
	C260.435028,330.855286 259.437469,328.672028 258.094330,326.433594 
	C262.831879,322.524170 267.640015,318.948608 272.729797,315.197937 
	C274.046173,316.479034 274.903717,318.110748 276.144226,319.363007 
	C284.503693,327.801331 292.911072,336.192963 301.376221,344.525299 
	C304.442169,347.543121 307.895966,350.180176 310.845184,353.300598 
	C316.841705,359.645172 322.615234,366.200531 328.767761,372.847290 
	C322.963440,376.353271 316.871979,379.680969 310.413147,383.057800 
z"/>
<path fill="#2E51D5" opacity="1.000000" stroke="none" 
	d="
M142.014282,178.648560 
	C137.719025,185.780945 133.520844,192.579941 128.793060,199.713715 
	C126.583755,200.368118 124.904068,200.687744 123.224373,201.007385 
	C135.635864,170.792908 156.287384,147.677094 184.770538,132.069412 
	C224.548660,110.272530 265.789490,108.565880 307.850952,125.368378 
	C308.771210,125.735992 309.626770,126.265656 310.820251,126.933372 
	C309.515869,127.090317 307.729553,127.471489 306.318085,126.910133 
	C289.679871,120.292870 272.216553,117.758896 254.565109,118.194740 
	C215.768631,119.152695 182.528717,133.563477 155.665558,161.838272 
	C150.779572,166.981018 146.611053,172.805435 142.014282,178.648560 
z"/>
<path fill="#2547D6" opacity="1.000000" stroke="none" 
	d="
M175.054169,317.604309 
	C167.656555,329.607208 160.333389,341.268585 152.961548,353.269592 
	C148.839462,350.993073 148.345383,348.301361 151.187881,343.910034 
	C166.996674,319.487427 182.466492,294.845398 198.743546,270.083069 
	C200.985626,269.931030 202.536453,269.974304 204.087280,270.017578 
	C199.655289,277.427704 195.219254,284.835358 190.796127,292.250732 
	C190.200729,293.248932 189.670380,294.285919 189.005585,295.640808 
	C184.310379,303.072052 179.719498,310.167419 175.054169,317.604309 
z"/>
<path fill="#2B4CD8" opacity="1.000000" stroke="none" 
	d="
M123.046051,201.325378 
	C124.904068,200.687744 126.583755,200.368118 128.631134,200.021194 
	C126.342018,207.402328 123.685204,214.810760 121.007286,222.606354 
	C117.819923,237.733551 115.344337,252.434769 116.648872,267.724854 
	C117.887680,282.244476 120.722466,296.255920 125.837555,309.834747 
	C126.877983,312.596741 128.483688,315.145721 130.100281,318.050537 
	C129.965302,318.958130 129.558868,319.608124 129.065475,320.397186 
	C111.022858,290.836945 105.320496,242.262451 123.046051,201.325378 
z"/>
<path fill="#3354D6" opacity="1.000000" stroke="none" 
	d="
M249.911835,190.426239 
	C256.310089,194.927551 256.686157,202.329025 256.847534,209.253616 
	C257.272491,227.487488 256.998352,245.737579 257.014496,263.981201 
	C257.016418,266.136414 257.091980,268.291534 257.178162,270.942444 
	C256.178345,273.296143 255.133728,275.154083 254.089111,277.012024 
	C253.723007,276.993561 253.356903,276.975128 252.990799,276.956665 
	C252.990799,275.486877 252.990707,274.017059 252.990799,272.547272 
	C252.992218,251.648392 253.224304,230.745438 252.856140,209.853058 
	C252.744049,203.492035 250.977997,197.160156 249.911835,190.426239 
z"/>
<path fill="#3758D7" opacity="1.000000" stroke="none" 
	d="
M346.901306,206.432281 
	C352.112610,209.324921 352.753082,215.056168 353.759399,220.260529 
	C354.758820,225.429184 354.821808,230.814575 354.927826,236.112274 
	C355.100800,244.753220 354.588867,253.422501 355.087891,262.038025 
	C355.554230,270.089264 356.959595,278.086151 358.003601,286.488403 
	C352.694183,282.087616 351.158539,275.633942 350.987305,268.955048 
	C350.639191,255.375183 351.147003,241.765137 350.515961,228.204117 
	C350.182404,221.035934 348.197357,213.944626 346.901306,206.432281 
z"/>
<path fill="#2E51D5" opacity="1.000000" stroke="none" 
	d="
M204.348267,269.820496 
	C202.536453,269.974304 200.985626,269.931030 198.971832,269.853394 
	C205.932953,257.888672 213.357040,245.958237 220.781113,234.027817 
	C221.113831,234.144135 221.446533,234.260468 221.779236,234.376785 
	C221.779236,237.291550 221.779236,240.206299 221.458099,243.773270 
	C217.720856,250.235123 214.304749,256.044769 210.888626,261.854401 
	C208.795502,264.444092 206.702362,267.033752 204.348267,269.820496 
z"/>
<path fill="#3861FB" opacity="1.000000" stroke="none" 
	d="
M211.056229,262.170166 
	C214.304749,256.044769 217.720856,250.235123 221.372894,244.208878 
	C221.674225,253.362534 221.739639,262.732788 221.710556,272.565033 
	C218.151993,269.513306 214.687912,265.999603 211.056229,262.170166 
z"/>
<path fill="#3758D7" opacity="1.000000" stroke="none" 
	d="
M323.235474,133.273438 
	C321.364288,132.542587 319.270111,131.563202 317.068237,130.246765 
	C318.977844,130.948105 320.995148,131.986496 323.235474,133.273438 
z"/>
<path fill="#3758D7" opacity="1.000000" stroke="none" 
	d="
M328.236145,136.342407 
	C326.791992,135.786499 325.143890,134.962540 323.399841,133.778259 
	C324.880005,134.303406 326.456085,135.188873 328.236145,136.342407 
z"/>
<path fill="#3758D7" opacity="1.000000" stroke="none" 
	d="
M334.829254,140.747711 
	C333.833099,140.394760 332.648071,139.771164 331.338623,138.806686 
	C332.356232,139.136230 333.498322,139.806656 334.829254,140.747711 
z"/>
<path fill="#3758D7" opacity="1.000000" stroke="none" 
	d="
M331.247620,138.355347 
	C330.451202,138.129623 329.459656,137.640137 328.346985,136.807007 
	C329.168091,137.006119 330.110291,137.548843 331.247620,138.355347 
z"/>
<path fill="#3354D6" opacity="1.000000" stroke="none" 
	d="
M236.987213,321.665161 
	C236.598312,321.675323 236.030807,321.419128 235.248291,320.926453 
	C235.625076,320.926208 236.216843,321.162506 236.987213,321.665161 
z"/>
<path fill="#3354D6" opacity="1.000000" stroke="none" 
	d="
M248.866119,188.327789 
	C249.150360,188.521271 249.482071,189.027145 249.887695,189.831131 
	C249.612259,189.632889 249.262924,189.136520 248.866119,188.327789 
z"/>
<path fill="#3758D7" opacity="1.000000" stroke="none" 
	d="
M345.823486,204.331833 
	C346.105988,204.525604 346.456970,205.029877 346.879150,205.838654 
	C346.597565,205.642868 346.244781,205.142593 345.823486,204.331833 
z"/>
<path fill="#3354D6" opacity="1.000000" stroke="none" 
	d="
M235.170685,320.662079 
	C235.002167,320.738281 234.708099,320.567444 234.221436,320.232056 
	C234.367615,320.183319 234.706390,320.299164 235.170685,320.662079 
z"/>
<path fill="#3758D7" opacity="1.000000" stroke="none" 
	d="
M336.086365,141.730103 
	C335.935516,141.771072 335.645325,141.567612 335.164612,141.178558 
	C335.298431,141.157211 335.622711,141.321442 336.086365,141.730103 
z"/>
</svg>