<svg width="128" height="128" viewBox="0 0 128 128" fill="none" xmlns="http://www.w3.org/2000/svg">
  <rect width="128" height="128" rx="24" fill="#0A66C2"/>
  <path d="M37 49H54V92H37V49ZM45.5 36C50.7467 36 55 40.2533 55 45.5C55 50.7467 50.7467 55 45.5 55C40.2533 55 36 50.7467 36 45.5C36 40.2533 40.2533 36 45.5 36ZM61 49H77.3V54.8H77.5C79.7667 50.5 85.3 46 93.5667 46C110.767 46 114 57.3667 114 72.1333V92H97V74.4667C97 70.2667 96.9333 64.8667 91.1667 64.8667C85.3 64.8667 84.4 69.4333 84.4 74.1667V92H67.4V49H61Z" fill="white"/>
</svg>
