<svg height="257" preserveAspectRatio="xMidYMid" viewBox="0 0 256 257" width="256" xmlns="http://www.w3.org/2000/svg"><path d="m98.875 232.033-26.433-7.408-25.001-28.508 31.272-.863z" fill="#995b80"/><path d="m37.75 213.233-14.875-4.166-14.058-16.034 17.082-2.809z" fill="#995b80"/><path d="m0 191.017 15.204 3.091 2.207-3.882v-131.723l-2.207-2.561-15.204 8.658z" fill="#7b3f65"/><path d="m73.933 69.708-58.725-13.766v138.166l8.798-.818 13.744 19.943 10.6-22.205 25.583-2.378z" fill="#c17b9d"/><path d="m33.958 198.133 26.063 5.25 1.716-4.045v-161.898l-1.716-3.665-26.063 13.208z" fill="#7b3f65"/><path d="m208.734 81.516-148.713-47.741v169.612l17.221-2.216 21.633 30.862 17.126-35.85 92.733-11.933z" fill="#c17b9d"/><path d="m181.833 256.492-37.566-10.525-35.509-40.5 46.033-.468z" fill="#995b80"/><path d="m89.591 208.95 38.33 7.417 2.977-2.566v-209.684l-2.977-4.117-38.33 19.158z" fill="#7b3f65"/><path d="m256 64.033-128.075-64.033v216.367l22.597-4.528 31.311 44.653 26.901-56.309-.017-.002 47.283-9.473z" fill="#c17b9d"/></svg>