<svg xmlns="http://www.w3.org/2000/svg" width="40" height="40" viewBox="0 0 40 40" fill="none">
  <g clip-path="url(#clip0_195_363)">
    <path d="M37.3725 16.3389C38.2897 13.6191 37.9722 10.6421 36.5012 8.16921C34.2893 4.37828 29.8437 2.42825 25.502 3.34454C23.0553 0.66484 19.343 -0.526767 15.7623 0.218268C12.1817 0.963302 9.27641 3.53188 8.13999 6.95714C5.28807 7.533 2.82659 9.29119 1.38543 11.7818C-0.850545 15.5666 -0.343038 20.3408 2.64042 23.5877C1.7197 26.3063 2.03433 29.2837 3.50372 31.7574C5.71837 35.5496 10.1669 37.4995 14.5109 36.5821C16.4431 38.7243 19.2189 39.9432 22.1287 39.9272C26.579 39.9311 30.5215 37.1024 31.8809 32.9301C34.7324 32.3533 37.1935 30.5954 38.6355 28.1054C40.8444 24.3273 40.3348 19.5789 37.3725 16.3389ZM22.1287 37.314C20.3524 37.3168 18.6319 36.7038 17.2687 35.5825L17.5085 35.4487L25.582 30.8601C25.9907 30.6241 26.2429 30.1934 26.2454 29.7268V18.519L29.6587 20.4631C29.6928 20.4802 29.7166 20.5124 29.7226 20.5497V29.837C29.7138 33.9628 26.3191 37.3054 22.1287 37.314ZM5.80587 30.4509C4.91508 28.9364 4.59523 27.1611 4.9026 25.4373L5.1424 25.579L13.2239 30.1675C13.6311 30.4028 14.1357 30.4028 14.5428 30.1675L24.4149 24.5637V28.4439C24.4131 28.4846 24.3925 28.5222 24.359 28.5462L16.1815 33.1898C12.5477 35.251 7.90508 34.0254 5.80587 30.4509ZM3.67958 13.1356C4.57656 11.6113 5.99237 10.4487 7.67637 9.85352V19.2982C7.67018 19.763 7.92133 20.1942 8.33184 20.4237L18.1559 26.004L14.7427 27.948C14.7052 27.9676 14.6603 27.9676 14.6228 27.948L6.46134 23.3122C2.83468 21.2425 1.5909 16.6747 3.67958 13.0962V13.1356ZM31.721 19.5501L21.865 13.9147L25.2702 11.9786C25.3077 11.959 25.3526 11.959 25.3901 11.9786L33.5516 16.6222C36.0988 18.0695 37.5683 20.8348 37.3237 23.7204C37.079 26.6061 35.1642 29.0932 32.4085 30.1046V20.6598C32.3941 20.1964 32.1329 19.7747 31.721 19.5501ZM35.1183 14.5208L34.8785 14.3791L26.813 9.7512C26.4033 9.51452 25.8957 9.51452 25.486 9.7512L15.622 15.3551V11.4749C15.6177 11.4347 15.6361 11.3954 15.6699 11.3725L23.8314 6.73676C26.3849 5.28836 29.5585 5.42352 31.9754 7.08361C34.3923 8.7437 35.6171 11.6296 35.1183 14.4893V14.5208ZM13.7595 21.3997L10.3462 19.4635C10.3117 19.4429 10.2883 19.4083 10.2823 19.3691V10.1054C10.2862 7.20439 11.9922 4.56686 14.6605 3.33666C17.3288 2.10646 20.4787 2.50516 22.7443 4.35985L22.5044 4.49365L14.4309 9.0822C14.0222 9.31827 13.77 9.74898 13.7675 10.2156L13.7595 21.3997ZM15.614 17.4644L20.0104 14.9694L24.4149 17.4644V22.4543L20.0264 24.9493L15.622 22.4543L15.614 17.4644Z" fill="black"/>
  </g>
  <defs>
    <clipPath id="clip0_195_363">
      <rect width="40" height="40" fill="white"/>
    </clipPath>
  </defs>
</svg>