<svg xmlns="http://www.w3.org/2000/svg" width="39" height="34" viewBox="0 0 39 34" fill="none">
  <path d="M8.64007 32.4287L0.333074 18.0773C-0.111045 17.3104 -0.111045 16.3641 0.333074 15.5972L8.64007 1.2396C9.08329 0.473595 9.9023 0.00179392 10.7977 0H27.4234C28.3071 0.0044848 29.1226 0.475389 29.5631 1.2396L37.8791 15.5981C38.3232 16.365 38.3232 17.3113 37.8791 18.0782L29.5541 32.4287C29.1109 33.1947 28.2919 33.6665 27.3964 33.6683H10.7735C9.88881 33.6656 9.0725 33.1929 8.62928 32.4287H8.64007Z" fill="#4386FA"/>
  <path opacity="0.1" d="M24.2876 12.1968C24.2876 12.1968 26.5981 17.7238 23.4488 20.8578C20.2995 23.9918 14.5664 21.9853 14.5664 21.9853L26.2295 33.6664H27.4135C28.2999 33.6646 29.119 33.1928 29.5712 32.4268L35.0714 22.9244L24.2876 12.1968Z" fill="black"/>
  <path d="M27.0162 23.5175L24.4629 20.9817C24.4355 20.9533 24.404 20.9291 24.3694 20.91C25.4483 19.5154 25.9538 17.7631 25.7831 16.0097C25.6125 14.2563 24.7784 12.6337 23.4507 11.4724C22.123 10.311 20.4016 9.69814 18.637 9.7586C16.8723 9.81906 15.1971 10.5483 13.9524 11.7978C11.3695 14.3945 11.2553 18.5546 13.6935 21.2786C14.869 22.5933 16.5021 23.4122 18.2609 23.569C20.0198 23.7258 21.7724 23.2086 23.1629 22.1227C23.1815 22.1553 23.2041 22.1855 23.2304 22.2124L25.7836 24.7597C25.8206 24.7967 25.8646 24.826 25.9131 24.8459C25.9616 24.8657 26.0135 24.8758 26.0659 24.8755C26.1715 24.8751 26.2728 24.8336 26.3482 24.7597L27.0251 24.0843C27.0622 24.0474 27.0915 24.0035 27.1115 23.9551C27.1314 23.9068 27.1414 23.855 27.1411 23.8027C27.1408 23.6973 27.0992 23.5962 27.0251 23.521L27.0162 23.5175ZM18.8827 21.8706C17.8499 21.8704 16.8404 21.5647 15.9818 20.9922C15.1231 20.4197 14.4538 19.606 14.0585 18.6541C13.2494 16.7077 13.6971 14.4653 15.1913 12.9764C15.9218 12.2483 16.8522 11.7527 17.865 11.5519C18.8778 11.3512 19.9274 11.4545 20.8814 11.8487C21.8354 12.2429 22.6508 12.9104 23.2248 13.7667C23.7987 14.6231 24.1054 15.63 24.106 16.6602C24.1042 19.5367 21.7685 21.8679 18.8845 21.8697L18.8827 21.8706ZM15.5455 16.3821V18.5348C15.8781 19.1206 16.3591 19.6076 16.9408 19.9494V16.3777L15.5455 16.3821ZM18.1527 14.5972V20.4158C18.6139 20.5001 19.0877 20.5001 19.548 20.4158V14.5882L18.1527 14.5972ZM22.1911 18.5322V17.2585H20.7958V19.944C21.3766 19.6031 21.8566 19.1188 22.1911 18.5339V18.5322Z" fill="white"/>
</svg>