<svg xmlns="http://www.w3.org/2000/svg" width="40" height="40" viewBox="0 0 40 40" fill="none">
  <g clip-path="url(#clip0_146_383)">
    <path fill-rule="evenodd" clip-rule="evenodd" d="M31.8558 10.9757C33.4196 10.9757 34.6875 9.70794 34.6875 8.14413C34.6875 6.58033 33.4196 5.31252 31.8558 5.31252C30.292 5.31252 29.0242 6.58033 29.0242 8.14413C29.0242 9.70794 30.292 10.9757 31.8558 10.9757ZM11.7959 10.1114L20.4825 1.42471C21.1452 0.762059 22.0654 0.3572 23.0777 0.3572H35.9616C36.4455 0.355511 36.925 0.449571 37.3723 0.633963C37.8197 0.818356 38.2262 1.08944 38.5684 1.43159C38.9105 1.77375 39.1816 2.18022 39.366 2.62759C39.5504 3.07496 39.6445 3.5544 39.6428 4.03828V16.9222C39.6428 17.9345 39.2379 18.8548 38.5569 19.5174L29.8834 28.1991L11.7959 10.1114Z" fill="#4285F4"/>
    <path fill-rule="evenodd" clip-rule="evenodd" d="M29.8834 28.1992L19.1786 38.914C18.4975 39.5766 17.5773 40 16.5651 40C15.5528 40 14.6324 39.5766 13.9698 38.914L1.08588 26.0302C0.404859 25.3676 0 24.4473 0 23.435C0 22.4043 0.423301 21.484 1.08588 20.8214L11.7959 10.1115L29.8834 28.1992Z" fill="#34A853"/>
    <path fill-rule="evenodd" clip-rule="evenodd" d="M7.33814 32.2823L1.08588 26.03C0.404859 25.3676 0 24.4473 0 23.435C0 22.4043 0.423301 21.484 1.08588 20.8214L11.7959 10.1115L20.6524 18.9681L7.33814 32.2823Z" fill="#FBBC05"/>
    <path fill-rule="evenodd" clip-rule="evenodd" d="M38.3717 1.24882C37.7021 0.670772 36.8462 0.354124 35.9616 0.3572H23.0777C22.0654 0.3572 21.1452 0.762059 20.4825 1.42471L11.7959 10.1114L20.6524 18.9681L29.6728 9.94767C29.2527 9.44065 29.0232 8.80259 29.0243 8.14413C29.0243 6.58033 30.292 5.31252 31.8558 5.31252C32.5143 5.31149 33.1524 5.54094 33.6594 5.96107L38.3717 1.24882Z" fill="#EA4335"/>
    <path d="M20.6473 25.7238C23.8239 25.7238 26.399 23.1486 26.399 19.9721C26.399 16.7955 23.8239 14.2203 20.6473 14.2203C17.4707 14.2203 14.8956 16.7955 14.8956 19.9721C14.8956 23.1486 17.4707 25.7238 20.6473 25.7238Z" fill="#4285F4"/>
    <path fill-rule="evenodd" clip-rule="evenodd" d="M28.4837 18.2801H20.8339V21.5622H25.2372C24.8267 23.6473 23.1102 24.8443 20.8339 24.8443C18.1471 24.8443 15.9828 22.6048 15.9828 19.8246C15.9828 17.0445 18.1471 14.8049 20.8339 14.8049C21.9907 14.8049 23.0355 15.2297 23.8565 15.9247L26.2447 13.4534C24.7894 12.1406 22.9236 11.3297 20.8339 11.3297C16.2813 11.3297 12.6243 15.1138 12.6243 19.8246C12.6243 24.5354 16.2813 28.3195 20.8339 28.3195C24.9386 28.3195 28.6702 25.2304 28.6702 19.8246C28.6702 19.3227 28.5956 18.7821 28.4837 18.2801Z" fill="white"/>
  </g>
  <defs>
    <clipPath id="clip0_146_383">
      <rect width="40" height="40" fill="white"/>
    </clipPath>
  </defs>
</svg>