<svg xmlns="http://www.w3.org/2000/svg" width="38" height="37" viewBox="0 0 38 37" fill="none">
  <path d="M32.7435 5.90051L14.2897 25.4937L37.4628 15.044C36.7972 11.541 35.1031 8.39419 32.7435 5.90051Z" fill="#D93321"/>
  <path d="M18.767 0.0820312C16.2258 0.0820312 13.8056 0.557018 11.567 1.50699L9.0863 21.9314L21.4292 0.260153C20.5821 0.141406 19.6745 0.0820312 18.767 0.0820312Z" fill="#D93321"/>
  <path d="M37.7653 16.1127L15.8022 28.1654L36.4342 25.7905C37.4023 23.5343 37.9468 21.1 37.9468 18.547C37.9468 17.7157 37.8863 16.8845 37.7653 16.1127Z" fill="#D93321"/>
  <path d="M29.3552 33.7466C31.8359 32.1435 33.8325 29.9467 35.2846 27.3937L15.9838 31.1342L29.3552 33.7466Z" fill="#D93321"/>
  <path d="M22.6997 0.438354L11.93 23.2971L31.8964 5.18822C29.4157 2.87266 26.2695 1.21021 22.6997 0.438354Z" fill="#D93321"/>
  <path d="M20.4611 36.7747C22.5183 36.5966 24.5149 36.1216 26.33 35.3497L15.4998 34.1029L20.4611 36.7747Z" fill="#D93321"/>
  <path d="M2.00732 10.9473C1.16026 12.7878 0.615717 14.7472 0.434204 16.8846L3.33841 21.9907L2.00732 10.9473Z" fill="#D93321"/>
  <path d="M10.4174 2.21948C7.75522 3.58507 5.51657 5.60376 3.82245 8.03807L6.54514 21.4564L10.4174 2.21948Z" fill="#D93321"/>
</svg>