<svg xmlns="http://www.w3.org/2000/svg" width="34" height="37" viewBox="0 0 34 37" fill="none">
  <path d="M18.6198 28.7114C18.6198 28.5021 18.6198 28.3452 18.6198 28.3452C18.6198 28.3452 17.9779 24.1087 17.2291 22.8534C17.1221 22.6442 17.2291 21.8596 17.6035 20.6043C17.8175 20.9181 18.6198 22.3303 18.7803 22.8011C18.9943 23.3241 18.9943 23.481 18.9943 23.481C18.9943 23.481 18.5663 21.1797 17.8175 19.8721C17.9779 19.349 18.1919 18.7214 18.4059 18.0938C18.6733 18.5645 19.3687 19.7675 19.5292 20.1336C19.5827 20.2382 19.5827 20.2905 19.5827 20.3428C19.5827 20.2905 19.5827 20.2905 19.5827 20.2382C19.4222 19.506 19.1013 18.303 18.6198 17.3615C19.6362 12.1835 23.1131 5.22711 26.697 2.14121H3.42836C1.87711 2.14121 0.593323 3.39649 0.593323 4.91329V30.1235C0.593323 31.6403 1.87711 32.8956 3.42836 32.8956H18.7268C18.6198 31.5357 18.5663 30.1235 18.6198 28.7114Z" fill="#0F80CC"/>
  <path d="M17.55 20.6564C17.764 20.9702 18.5664 22.3824 18.7268 22.8532C18.9408 23.3762 18.9408 23.5331 18.9408 23.5331C18.9408 23.5331 18.5129 21.2318 17.764 19.9242C17.9245 19.4011 18.1384 18.7735 18.3524 18.1459C18.6198 18.5643 19.2082 19.6104 19.4222 20.0811C19.4222 19.9765 19.4222 19.9242 19.4222 19.8196C19.2082 19.0873 18.9408 18.1982 18.5663 17.4659C19.5292 12.7063 22.5247 6.42989 25.7877 3.08247H3.42836C2.30504 3.08247 1.39569 3.97163 1.39569 5.07V28.2927C6.47735 26.4098 12.5753 24.6315 17.871 24.7361C17.657 24.0038 17.443 23.3239 17.2291 22.9578C17.0686 22.6963 17.2291 21.9117 17.55 20.6564Z" fill="url(#paint0_linear_195_235)"/>
  <path d="M32.0461 1.46117C30.4414 0.0489817 28.5157 0.624323 26.6435 2.29803C26.376 2.55955 26.0551 2.82107 25.7876 3.08258C22.5247 6.48231 19.5292 12.7064 18.5663 17.466C18.9408 18.1983 19.2082 19.1397 19.4222 19.8197C19.4757 19.9766 19.5292 20.1858 19.5292 20.2904C19.6361 20.6565 19.6361 20.8658 19.6361 20.8658C19.6361 20.8658 19.5827 20.7611 19.4757 20.395C19.4757 20.3427 19.4222 20.2381 19.4222 20.1858C19.4222 20.1335 19.3687 20.1335 19.3687 20.0812C19.1547 19.6105 18.5663 18.5644 18.2989 18.146C18.0849 18.7736 17.8709 19.4013 17.7105 19.9243C18.4593 21.2842 18.8873 23.5332 18.8873 23.5332C18.8873 23.5332 18.8338 23.3763 18.6733 22.8533C18.5128 22.3826 17.657 20.9704 17.4965 20.6565C17.1755 21.8595 17.0151 22.6964 17.1221 22.9056C17.336 23.2717 17.6035 23.9517 17.7639 24.6839C18.1919 26.3576 18.5128 28.3451 18.5128 28.3451C18.5128 28.3451 18.5128 28.5021 18.5128 28.7113C18.4593 30.1235 18.5128 31.5357 18.6198 32.8432C18.7803 34.5693 19.0477 36.0338 19.3687 36.8706L19.5826 36.766C19.0477 35.1969 18.8338 33.1571 18.9408 30.8034C19.1012 27.1945 19.9571 22.801 21.5083 18.2506C24.1829 11.3988 27.8738 5.85467 31.2437 3.2395C28.1412 5.95928 24.0224 14.7463 22.7386 17.9891C21.3479 21.6503 20.3315 25.05 19.7431 28.3451C20.7595 25.2592 24.0759 23.9517 24.0759 23.9517C24.0759 23.9517 25.6806 21.9641 27.6063 19.192C26.483 19.4536 24.6108 19.872 23.9689 20.1335C23.0596 20.4996 22.7921 20.6565 22.7921 20.6565C22.7921 20.6565 25.7876 18.8782 28.3552 18.0414C32.0996 12.6018 35.9509 4.8609 32.0461 1.46117Z" fill="#003B57"/>
  <defs>
    <linearGradient id="paint0_linear_195_235" x1="13.6028" y1="3.59384" x2="13.6028" y2="48.7281" gradientUnits="userSpaceOnUse">
      <stop stop-color="#97D9F6"/>
      <stop offset="0.9202" stop-color="#0F80CC"/>
      <stop offset="1" stop-color="#0F80CC"/>
    </linearGradient>
  </defs>
</svg>