<svg xmlns="http://www.w3.org/2000/svg" width="40" height="40" viewBox="0 0 40 40" fill="none">
  <path d="M4.96328 17.633C4.71474 17.3847 4.40596 17.2042 4.02938 17.0838C3.6528 16.9634 3.20844 16.9032 2.68876 16.9032H0V22.8996H2.68876C3.2009 22.8996 3.6528 22.8394 4.02938 22.719C4.40596 22.5987 4.71474 22.4181 4.96328 22.1698C5.21182 21.9215 5.39258 21.6131 5.51308 21.2369C5.6336 20.8607 5.69384 20.4168 5.69384 19.8977C5.69384 19.3785 5.6336 18.9346 5.51308 18.5584C5.39258 18.1823 5.21182 17.8738 4.96328 17.633ZM4.05196 20.7328C3.99172 20.9585 3.8938 21.1391 3.75824 21.2745C3.62268 21.4099 3.44192 21.5077 3.21596 21.5679C2.99002 21.6281 2.71888 21.6582 2.3875 21.6582H1.48371V18.1522H2.3875C2.71888 18.1522 2.99002 18.1823 3.21596 18.2424C3.44192 18.3026 3.62268 18.4004 3.75824 18.5359C3.8938 18.6713 3.99172 18.8519 4.05196 19.0776C4.11222 19.3033 4.14234 19.5741 4.14234 19.9052C4.14234 20.2362 4.11222 20.5071 4.05196 20.7328Z" fill="black"/>
  <path d="M10.386 18.9346C10.2354 18.7841 10.0471 18.6713 9.81361 18.6036C9.58013 18.5283 9.30147 18.4982 8.98513 18.4982H6.59763V19.5816H8.90983C9.07551 19.5816 9.18849 19.6193 9.26381 19.687C9.33159 19.7547 9.36925 19.8751 9.36925 20.0331V20.0857H7.70477C7.24535 20.0857 6.89889 20.2061 6.65789 20.4469C6.41689 20.6876 6.29637 21.0412 6.29637 21.4927C6.29637 21.9441 6.41689 22.2902 6.65789 22.5385C6.89889 22.7867 7.25289 22.8996 7.70477 22.8996H10.8304V20.334C10.8304 20.0105 10.7927 19.7396 10.7249 19.5064C10.6496 19.2732 10.5366 19.0851 10.386 18.9346ZM9.38431 21.8312H8.11901C8.01357 21.8312 7.92319 21.8011 7.86293 21.741C7.80269 21.6808 7.77255 21.598 7.77255 21.4927C7.77255 21.3798 7.80269 21.2971 7.86293 21.2369C7.92319 21.1767 8.00603 21.1466 8.11901 21.1466H9.38431V21.8312Z" fill="black"/>
  <path d="M13.5568 21.7259C13.4965 21.6657 13.4664 21.5679 13.4664 21.4175V19.5817H14.8221V18.4983H13.4664V17.317H11.9978V18.4907H11.3877V19.5742H11.9978V21.4927C11.9978 21.7485 12.0203 21.9667 12.0731 22.1473C12.1258 22.3278 12.2011 22.4708 12.3141 22.5836C12.427 22.6965 12.5701 22.7793 12.7509 22.8244C12.9317 22.8771 13.1501 22.8996 13.4061 22.8996H14.8371V21.8162H13.8656C13.7149 21.8162 13.617 21.7861 13.5568 21.7259Z" fill="black"/>
  <path d="M19.4314 18.9346C19.2807 18.7841 19.0925 18.6713 18.859 18.6036C18.6255 18.5283 18.3468 18.4982 18.0305 18.4982H15.643V19.5816H17.9552C18.1209 19.5816 18.2339 19.6193 18.3092 19.687C18.377 19.7547 18.4146 19.8751 18.4146 20.0331V20.0857H16.7501C16.2907 20.0857 15.9443 20.2061 15.7033 20.4469C15.4623 20.6876 15.3417 21.0412 15.3417 21.4927C15.3417 21.9441 15.4623 22.2902 15.7033 22.5385C15.9443 22.7867 16.2983 22.8996 16.7501 22.8996H19.8757V20.334C19.8757 20.0105 19.8381 19.7396 19.7703 19.5064C19.695 19.2732 19.582 19.0851 19.4314 18.9346ZM18.4221 21.8312H17.1568C17.0514 21.8312 16.961 21.8011 16.9008 21.741C16.8405 21.6808 16.8104 21.598 16.8104 21.4927C16.8104 21.3798 16.8405 21.2971 16.9008 21.2369C16.961 21.1767 17.0439 21.1466 17.1568 21.1466H18.4221V21.8312Z" fill="black"/>
  <path d="M23.762 19.2657H22.6398C22.459 19.2657 22.316 19.2205 22.2256 19.1227C22.1276 19.0249 22.0824 18.8895 22.0824 18.7089C22.0824 18.5283 22.1276 18.3929 22.2256 18.2951C22.3234 18.1973 22.459 18.1522 22.6398 18.1522H25.3286V16.9032H22.316C21.7134 16.9032 21.2616 17.0537 20.9602 17.3471C20.659 17.6405 20.516 18.092 20.516 18.7014C20.516 19.3108 20.6666 19.7622 20.9602 20.0632C21.254 20.3641 21.706 20.5146 22.316 20.5146H23.4608C23.8374 20.5146 24.0332 20.7027 24.0332 21.0864C24.0332 21.4701 23.8448 21.6582 23.4608 21.6582H20.6816V22.9071H23.7544C24.357 22.9071 24.8088 22.7567 25.1176 22.4482C25.4264 22.1397 25.5846 21.6883 25.5846 21.0864C25.5846 20.4845 25.4264 20.0331 25.1176 19.7321C24.8088 19.4312 24.357 19.2657 23.762 19.2657Z" fill="black"/>
  <path d="M28.2432 21.7259C28.183 21.6657 28.1528 21.5679 28.1528 21.4175V19.5817H29.5086V18.4983H28.1528V17.317H26.6842V18.4907H26.0742V19.5742H26.6842V21.4927C26.6842 21.7485 26.7068 21.9667 26.7596 22.1473C26.8122 22.3278 26.8876 22.4708 27.0006 22.5836C27.1136 22.6965 27.2566 22.7793 27.4374 22.8244C27.6182 22.8771 27.8366 22.8996 28.0926 22.8996H29.5236V21.8162H28.552C28.409 21.8162 28.3036 21.7861 28.2432 21.7259Z" fill="black"/>
  <path d="M34.1178 18.9346C33.9672 18.7841 33.779 18.6713 33.5454 18.6036C33.312 18.5283 33.0334 18.4982 32.717 18.4982H30.3294V19.5816H32.6416C32.8074 19.5816 32.9204 19.6193 32.9956 19.687C33.0634 19.7547 33.101 19.8751 33.101 20.0331V20.0857H31.4366C30.9772 20.0857 30.6308 20.2061 30.3898 20.4469C30.1488 20.6876 30.0282 21.0412 30.0282 21.4927C30.0282 21.9441 30.1488 22.2902 30.3898 22.5385C30.6308 22.7867 30.9848 22.8996 31.4366 22.8996H34.5622V20.334C34.5622 20.0105 34.5246 19.7396 34.4568 19.5064C34.3814 19.2732 34.2684 19.0851 34.1178 18.9346ZM33.1086 21.8312H31.8434C31.7378 21.8312 31.6476 21.8011 31.5872 21.741C31.527 21.6808 31.4968 21.598 31.4968 21.4927C31.4968 21.3798 31.527 21.2971 31.5872 21.2369C31.6476 21.1767 31.7304 21.1466 31.8434 21.1466H33.1086V21.8312Z" fill="black"/>
  <path d="M38.2752 20.6801L39.902 18.4982H38.3356L37.4392 19.7697L36.543 18.4982H34.9162L36.543 20.6801L34.8258 22.8996H36.4678L37.394 21.583L38.313 22.8996H39.9924L38.2752 20.6801Z" fill="black"/>
</svg>