<svg xmlns="http://www.w3.org/2000/svg" width="40" height="40" viewBox="0 0 40 40" fill="none">
  <path d="M29.4444 9.50426C27.1135 10.3128 25.9882 11.6872 25.1844 13.8702C25.0236 14.4362 24.461 15.083 23.8983 15.5681L25.8274 17.6702L19.7187 13.3851L3 1.5C3 1.5 4.20567 9.4234 4.60757 12.334C4.92908 14.3553 5.41135 15.3255 7.01891 16.2149L7.66194 16.5383L10.3948 17.9936L8.78723 17.1043L16.3428 21.3085L16.2624 21.3894L8.14421 17.6702C8.5461 19.1255 9.43026 22.0362 9.75177 23.3298C10.1537 24.7043 10.5556 25.1894 11.922 25.6745L14.3333 26.5638L15.8605 25.9979L13.9314 27.2915L4.36643 39.5C10.7163 33.517 16.1017 31.4149 20.0402 29.717C25.104 27.534 28.078 26.0787 30.0875 21.066C31.5343 17.5085 32.5792 12.9809 34.026 11.2021L37 7.40213C37 7.32128 30.8913 9.01915 29.4444 9.50426Z" fill="#525EBC"/>
</svg>