<svg xmlns="http://www.w3.org/2000/svg" width="40" height="40" viewBox="0 0 40 40" fill="none">
  <path d="M32.6789 8.36685C32.6523 8.17365 32.4829 8.06646 32.3423 8.05479C32.2028 8.04313 29.4692 8.00174 29.4692 8.00174C29.4692 8.00174 27.1831 5.78975 26.9572 5.56473C26.7315 5.33972 26.2904 5.40765 26.1189 5.45859C26.1168 5.45966 25.6896 5.59127 24.9705 5.8131C24.8502 5.42463 24.6733 4.94699 24.4208 4.46724C23.607 2.9197 22.4149 2.10136 20.9746 2.09924C20.9725 2.09924 20.9714 2.09924 20.9693 2.09924C20.8691 2.09924 20.7701 2.10879 20.67 2.11728C20.6273 2.06633 20.5847 2.01645 20.54 1.96762C19.9125 1.29893 19.1083 0.97308 18.1442 1.00174C16.2842 1.05481 14.4316 2.39325 12.9296 4.7708C11.8728 6.44358 11.0685 8.5452 10.8405 10.1723C8.70462 10.8314 7.21108 11.2921 7.17806 11.3027C6.09999 11.6402 6.0659 11.6731 5.92528 12.6857C5.82089 13.451 3 35.1844 3 35.1844L26.6398 39.2581L36.8857 36.7202C36.8857 36.7202 32.7056 8.56006 32.6789 8.36685ZM23.787 6.17823C23.2426 6.34593 22.6237 6.53699 21.9525 6.74396C21.9387 5.80568 21.8268 4.50014 21.3879 3.37186C22.7995 3.63828 23.494 5.22933 23.787 6.17823ZM20.7157 7.12607C19.4768 7.50815 18.125 7.92529 16.7689 8.34351C17.1502 6.88831 17.8736 5.43949 18.762 4.48953C19.0923 4.13608 19.5546 3.7423 20.1021 3.51727C20.6167 4.58718 20.7285 6.10181 20.7157 7.12607ZM18.1814 2.23509C18.6182 2.22554 18.9857 2.32107 19.3 2.52698C18.7972 2.78703 18.3114 3.16065 17.8555 3.64783C16.674 4.91091 15.7685 6.87133 15.4074 8.76276C14.2814 9.10982 13.1799 9.45058 12.1657 9.76264C12.806 6.78536 15.3104 2.31788 18.1814 2.23509Z" fill="#95BF47"/>
  <path d="M32.5134 8.10504C32.3645 8.09335 29.52 7.95848 29.52 7.95848C29.52 7.95848 27.0811 5.74328 26.8401 5.51794C26.7503 5.43396 26.6287 5.39038 26.5014 5.37231L25.956 39.2581L36.8857 36.7176C36.8857 36.7176 32.901 8.61103 32.8726 8.41755C32.8441 8.22407 32.6623 8.11672 32.5134 8.10504Z" fill="#5E8E3E"/>
  <path d="M21.5825 13.4247L20.3559 17.8483C20.3559 17.8483 18.9875 17.2481 17.3655 17.3466C14.9868 17.4916 14.9616 18.9376 14.9858 19.3007C15.1153 21.2791 20.5151 21.711 20.8182 26.3453C21.0565 29.991 18.8118 32.485 15.5777 32.6818C11.6956 32.9179 9.55853 30.7108 9.55853 30.7108L10.3811 27.3383C10.3811 27.3383 12.5324 28.9028 14.2543 28.798C15.3789 28.7292 15.7808 27.8475 15.7402 27.2239C15.5711 24.6432 11.1739 24.7956 10.8961 20.555C10.6622 16.9867 13.0936 13.3707 18.4582 13.0446C20.525 12.9166 21.5825 13.4247 21.5825 13.4247Z" fill="white"/>
</svg>