<svg xmlns="http://www.w3.org/2000/svg" width="40" height="34" viewBox="0 0 40 34" fill="none">
  <g clip-path="url(#clip0_146_392)">
    <path d="M3.82727 17.986L5.84251 20.009L10.1948 15.657L8.19644 13.634L7.28196 12.716C6.55377 11.985 6.16427 11.033 6.16427 9.996C6.16427 9.095 6.46909 8.279 6.99407 7.633C7.70533 6.732 8.78916 6.154 10.0085 6.154C11.0415 6.154 11.9898 6.562 12.735 7.293L13.6325 8.16L15.6478 10.2L20.0169 5.848L17.9848 3.825L17.0703 2.941C15.2583 1.122 12.7688 0 10.0085 0C4.47079 0 0 4.488 0 10.013C0 11.39 0.270957 12.699 0.779001 13.906C1.28704 15.113 2.01524 16.184 2.92972 17.085L3.82727 17.986Z" fill="#EA4335"/>
    <path d="M13.8019 20.774L20.0169 14.569L15.6477 10.2L10.1947 15.657L5.8425 20.009L8.1795 22.372L10.1947 24.378L12.2947 22.27" fill="#FBBC04"/>
    <path d="M24.3522 29.852L34.1744 20.009L29.8052 15.657L20 25.483L14.547 20.026L10.1947 24.378L15.6478 29.852L15.6308 29.869L20 34L24.3692 29.852H24.3522Z" fill="#34A853"/>
    <path d="M37.0703 17.085C39.1024 15.045 40.271 11.917 39.9492 8.75497C39.475 3.96097 35.5123 0.356967 30.7028 0.033967C27.6715 -0.170033 24.8942 0.968967 22.9297 2.94097L15.6478 10.2L20 14.569L27.282 7.29297C28.1626 6.42597 29.3819 6.01797 30.635 6.22197C32.2608 6.47697 33.5817 7.81997 33.8019 9.45197C33.9712 10.676 33.5648 11.866 32.7011 12.733L29.8052 15.657L34.1744 20.009L37.0703 17.085Z" fill="#4285F4"/>
  </g>
  <defs>
    <clipPath id="clip0_146_392">
      <rect width="40" height="34" fill="white"/>
    </clipPath>
  </defs>
</svg>