<svg xmlns="http://www.w3.org/2000/svg" viewBox="0 0 333334 282232" shape-rendering="geometricPrecision" text-rendering="geometricPrecision" image-rendering="optimizeQuality" fill-rule="evenodd" clip-rule="evenodd"><path d="M31893 149301l16793 16793 36267-36126-16652-16793-7620-7620c-6068-6068-9313-13971-9313-22579 0-7479 2540-14253 6915-19615 5927-7479 14958-12277 25119-12277 8608 0 16511 3387 22720 9455l7479 7197 16793 16934 36408-36126-16934-16793-7620-7338C127149 9313 106405 0 83403 0 37258 0 3 37255 3 83118c0 11430 2258 22296 6491 32315s10302 18909 17922 26389l7479 7479z" fill="#ea4335"/><path d="M115009 172444l51790-51507-36408-36267-45439 45298-36267 36126 19474 19615 16793 16652 17498-17498m12559-12419z" fill="#fbbc04"/><path fill="#34a853" d="M202925 247800l81847-81706-36408-36126-81706 81565-45439-45298-36267 36126 45439 45439-141 141 36408 34291 36408-34432z"/><path d="M308903 141822c16934-16934 26671-42899 23990-69147-3951-39794-36972-69711-77049-72393-25260-1693-48403 7761-64772 24131l-60680 60256 36267 36267 60680-60398c7338-7197 17498-10584 27941-8891 13547 2117 24554 13265 26389 26812 1411 10160-1976 20039-9173 27235l-24131 24272 36408 36126 24131-24272z" fill="#4285f4"/></svg>