<svg xmlns="http://www.w3.org/2000/svg" width="40" height="40" viewBox="0 0 40 40" fill="none">
  <path fill-rule="evenodd" clip-rule="evenodd" d="M15.8599 0L3.48055 3.21025L0.0689303 15.5364L4.3358 19.874L0 24.14L3.21079 36.5201L15.5365 39.9301L19.8732 35.6632L24.1401 40L36.5194 36.7898L39.9302 24.4627L35.6642 20.1268L40 15.8608L36.7892 3.47987L24.4617 0.0699345L20.1268 4.33594L15.8599 0ZM8.26313 5.58128L14.7843 3.88937L17.6359 6.78786L13.4771 10.8794L8.26313 5.58128ZM22.5785 6.82662L25.4761 3.97615L31.9692 5.77254L26.6701 10.9856L22.5785 6.82662ZM3.97583 14.5245L5.77227 8.03236L10.9846 13.3305L6.82665 17.4221L3.97583 14.5236V14.5245ZM29.1201 13.4771L34.4192 8.26238L36.1093 14.784L33.2125 17.6353L29.1201 13.4771ZM15.928 13.3701L20.0868 9.27854L24.1775 13.4375L20.0196 17.5291L15.928 13.3701ZM9.27836 19.9128L13.4363 15.8212L17.5296 19.9802L13.3699 24.0718L9.27836 19.9128ZM22.4713 20.0198L26.6292 15.9282L30.7208 20.0872L26.562 24.1788L22.4713 20.0198ZM3.88903 25.216L6.78751 22.3639L10.8782 26.5237L5.5808 31.7359L3.88903 25.216ZM15.8208 26.5625L19.9796 22.4709L24.0711 26.6299L19.9132 30.7215L15.8208 26.5625ZM29.0128 26.6703L33.1716 22.5787L36.0233 25.4764L34.2277 31.9685L29.0128 26.6703ZM8.03081 34.2283L13.3291 29.0135L17.4223 33.1725L14.5239 36.0247L8.03081 34.2283ZM22.3641 33.2121L26.522 29.1206L31.7352 34.4196L25.2149 36.1106L22.3641 33.2121Z" fill="#111111"/>
</svg>