<svg xmlns="http://www.w3.org/2000/svg" width="40" height="40" viewBox="0 0 40 40" fill="none">
  <path d="M21.78 19.0132C21.78 19.0132 9.32917 22.989 6.86047 23.0339C6.86047 23.0339 6.79786 24.1647 7.50448 26.5699C8.30949 26.857 17.4329 24.5236 18.4437 23.9852C22.5134 21.8402 21.1807 20.7543 31.0465 17.308C31.0465 17.308 30.8587 16.4465 30.1073 15.2349C30.1252 15.2349 26.4848 17.7209 21.78 19.0132Z" fill="white"/>
  <path d="M7.63863 26.534C7.31663 26.1032 6.86046 23.4287 6.86046 23.4287C6.86046 23.4287 0.330942 26.2737 1.07334 31.0213C1.42218 33.256 3.31842 33.5521 4.12343 33.6508C5.87656 33.8483 8.42575 32.5021 9.87477 31.488C12.7907 29.4507 14.3649 27.4763 18.9893 23.689C18.9893 23.698 12.4508 26.2019 7.63863 26.534Z" fill="url(#paint0_linear_141_665)"/>
  <path d="M6.86941 23.0339C6.86941 23.0339 4.3381 13.6464 10.5546 10.0745C12.6297 8.88086 16.6637 7.57954 18.6673 7.3103C20.6708 7.04106 25.4025 6.19745 27.8354 10.2181C28.7209 11.6899 29.8837 14.2926 30.1252 15.2259C27.585 18.017 9.68694 22.8544 6.86941 23.0339Z" fill="url(#paint1_linear_141_665)"/>
  <path d="M22.8801 21.4812C22.8801 21.4812 27.1109 20.6376 32.6476 20.4222C37.0751 20.2427 39.6154 18.4029 38.9893 17.4516C38.3631 16.5003 33.5599 13.6105 22.8801 21.4812Z" fill="url(#paint2_linear_141_665)"/>
  <path d="M39.1324 17.3439C39.1324 17.3439 32.4956 9.76035 11.4938 29.8994C6.79791 33.6508 2.36142 34.306 1.23441 31.5687C2.12886 34.1803 4.69594 34.1355 7.87126 33.0675C12.0215 31.6764 17.7729 26.166 18.4974 25.6275C24.1772 21.3735 33.8909 14.5079 39.0609 17.9721C39.0519 17.9811 39.2398 17.6401 39.1324 17.3439Z" fill="black"/>
  <defs>
    <linearGradient id="paint0_linear_141_665" x1="1.01244" y1="28.5528" x2="18.9899" y2="28.5528" gradientUnits="userSpaceOnUse">
      <stop stop-color="#575757"/>
      <stop offset="1"/>
    </linearGradient>
    <linearGradient id="paint1_linear_141_665" x1="6.35843" y1="15.0443" x2="30.1235" y2="15.0443" gradientUnits="userSpaceOnUse">
      <stop stop-color="#666666"/>
      <stop offset="1"/>
    </linearGradient>
    <linearGradient id="paint2_linear_141_665" x1="22.8777" y1="18.8121" x2="39.0809" y2="18.8121" gradientUnits="userSpaceOnUse">
      <stop stop-color="#616161"/>
      <stop offset="1"/>
    </linearGradient>
  </defs>
</svg>