<svg xmlns="http://www.w3.org/2000/svg" width="40" height="40" viewBox="0 0 40 40" fill="none">
  <path d="M30.1191 9.93528C27.4048 7.2288 23.7143 5.68564 19.881 5.70938C16.0477 5.70938 12.3572 7.2288 9.6429 9.93528C6.9048 12.6418 5.38099 16.3216 5.38099 20.1439C5.38099 21.9245 5.71433 23.6813 6.33338 25.3195C5.38099 26.2453 4.50004 27.2187 3.66671 28.2396C3.1429 28.8569 2.69052 29.5216 2.26195 30.2101C2.02385 30.5662 1.83338 30.9461 1.69052 31.3497C1.59528 31.5633 1.52385 31.8007 1.47623 32.0382C1.40481 32.323 1.42861 32.6079 1.50004 32.8928C1.52385 32.9641 1.54766 33.0353 1.57147 33.1065L1.59528 33.154C1.59528 33.1777 1.61909 33.1777 1.61909 33.2015C1.66671 33.2727 1.71433 33.3439 1.76195 33.4151C1.881 33.5576 2.04766 33.6763 2.21433 33.7475C2.47623 33.8662 2.78576 33.9137 3.07147 33.9137C3.52385 33.89 3.97623 33.8187 4.4048 33.7C5.19052 33.4626 5.95242 33.154 6.71433 32.7979C7.9048 32.2281 9.04766 31.5871 10.1905 30.8986C12.8572 33.2964 16.3096 34.6022 19.881 34.6022C23.7143 34.6022 27.4048 33.0828 30.1191 30.3763C32.8334 27.6698 34.381 23.99 34.3572 20.1677C34.381 16.3216 32.8572 12.6418 30.1191 9.93528ZM6.66671 26.0792C7.28576 27.4561 8.11909 28.7144 9.11909 29.8302C8.02385 30.495 7.02385 31.0648 6.09528 31.5159C5.42861 31.8482 4.73814 32.1569 4.02385 32.3943C3.71433 32.513 3.381 32.5605 3.04766 32.5842C2.95242 32.5842 2.85719 32.5842 2.76195 32.5605C2.73814 32.5605 2.73814 32.5367 2.73814 32.5367C2.73814 32.5367 2.73814 32.5367 2.73814 32.513C2.71433 32.418 2.71433 32.323 2.73814 32.2281C2.76195 32.0619 2.80957 31.9195 2.85719 31.777C2.97623 31.4446 3.11909 31.1123 3.30957 30.8036C3.66671 30.1389 4.09528 29.4979 4.52385 28.8806C5.16671 27.9547 5.85719 27.0763 6.66671 26.0792ZM14.8334 27.741C16.3334 26.6489 17.5239 25.723 18.5953 24.8446C19.7858 23.895 21 22.8504 22.2143 21.7583L22.3572 21.6159C23.4286 20.595 24.5715 19.5504 25.6429 18.5058C25.7619 18.3871 25.7619 18.1971 25.6667 18.0784C25.5477 17.9597 25.381 17.936 25.2381 18.031C24.0477 18.9569 22.881 19.9065 21.7381 20.8087L21.5477 20.9511C20.4762 21.782 19.3334 22.6842 17.8334 23.8L17.6905 23.895C16.5 24.7734 15.2619 25.6993 14.0239 26.554C12.6191 27.5274 11.4762 28.3108 10.4048 28.9756C8.11909 26.5777 6.85719 23.3964 6.881 20.0727C6.881 16.6302 8.23814 13.3302 10.6905 10.8849C13.1191 8.43959 16.4524 7.06261 19.9048 7.08636C23.3572 7.08636 26.6667 8.43959 29.1191 10.8849C31.5715 13.3065 32.9524 16.6302 32.9286 20.0727C32.9286 23.5151 31.5715 26.8151 29.1191 29.2605C26.6905 31.7058 23.3572 33.0828 19.9048 33.059C16.8334 33.059 13.8572 31.9669 11.5 29.9964C12.6191 29.3317 13.7381 28.5482 14.8334 27.741Z" fill="#322965"/>
  <path d="M38.0715 6.65897C38.0715 6.65897 34.5953 6.11293 33.4525 7.11005L31.3334 8.96185L31.143 9.12803L31.0477 9.223C31.0477 9.223 27.4287 8.98559 26.643 9.67408L25.8334 10.3626L25.5239 10.6237L25.1906 10.9086L25.0953 10.9798L26.7858 12.9029C26.262 13.3539 26.643 14.6122 27.6191 15.7518C28.5953 16.8676 29.8096 17.4136 30.3334 16.9626L32.0239 18.8856L32.0715 18.8381L32.7144 18.2683L33.5239 17.5798C34.3096 16.8913 34.5715 13.2827 34.5715 13.2827L34.762 13.1165L34.9287 12.9741L36.9763 11.1935C38.143 10.1726 38.0715 6.65897 38.0715 6.65897ZM27.643 12.1669L27.762 12.0719L27.643 12.1669ZM34.1191 13.6626L34.0001 13.7575L34.1191 13.6626Z" fill="#ED5735"/>
</svg>