<svg width="197" height="35" viewBox="0 0 197 35" version="1.1" xmlns:xlink="http://www.w3.org/1999/xlink" xmlns="http://www.w3.org/2000/svg">
  <g id="Group_4">
    <g id="Group_2" transform="translate(56.535103 6.040457)">
      <path d="M2.817 16.5942C2.72025 16.5118 2.66435 16.3913 2.664 16.2642C2.66885 16.1334 2.70086 16.005 2.758 15.8872L4.62 11.5272L0.094 0.8492C0.0415581 0.746338 0.00963152 0.634256 0 0.5192C0.0133262 0.382394 0.0713094 0.253776 0.165 0.1532C0.254825 0.0533017 0.383685 -0.00254972 0.518 0.000199827L2.474 0.000199827C2.75473 -0.00186227 3.00371 0.180102 3.087 0.4482L6.222 8.1322L9.404 0.4482C9.51469 0.180382 9.77424 0.00420722 10.064 0.000199827L11.973 0.000199827C12.1051 -0.00361842 12.2329 0.0474232 12.326 0.1412C12.4165 0.22703 12.4676 0.346456 12.467 0.4712C12.4619 0.601996 12.4299 0.730341 12.373 0.8482L5.702 16.2872C5.6051 16.5659 5.3368 16.748 5.042 16.7352L3.156 16.7352C3.02902 16.7338 2.90751 16.6833 2.817 16.5942L2.817 16.5942Z" transform="translate(0 4.476476)" id="Path_1" fill="#322965" stroke="none"/>
      <path d="M1.25845 11.0787C0.373423 9.98256 -0.0718271 8.59619 0.00945 7.1897L0.00945 0.566703C0.00204609 0.411638 0.0622365 0.260979 0.17445 0.153703C0.282713 0.0524657 0.426261 -0.00244141 0.57445 0.00070314L2.69645 0.00070314C2.84679 -0.00161152 2.99146 0.0580639 3.09645 0.165703C3.20409 0.270691 3.26376 0.415359 3.26145 0.565703L3.26145 7.0477C3.26145 8.98104 4.10212 9.9477 5.78345 9.9477C6.51394 9.98276 7.22365 9.69888 7.72845 9.1697C8.23237 8.58171 8.48993 7.82192 8.44745 7.0487L8.44745 0.566703C8.44018 0.41166 8.50035 0.261055 8.61245 0.153703C8.72071 0.0524657 8.86426 -0.00244141 9.01245 0.00070314L11.1124 0.00070314C11.2653 -0.00696395 11.4145 0.048334 11.5255 0.153703C11.6308 0.264631 11.6861 0.4139 11.6785 0.566703L11.6785 11.6917C11.6817 11.8399 11.6268 11.9835 11.5255 12.0917C11.4183 12.204 11.2675 12.2642 11.1124 12.2567L9.15645 12.2567C9.00604 12.2594 8.86123 12.1996 8.75645 12.0917C8.64851 11.9869 8.58878 11.8421 8.59145 11.6917L8.59145 10.7257C7.66631 11.9342 6.19679 12.5981 4.67845 12.4937C3.38405 12.5581 2.12894 12.0388 1.25845 11.0787Z" transform="translate(14.36955 4.4769726)" id="Path_2" fill="#322965" stroke="none"/>
      <path d="M2.643 16.9901C1.89898 16.6334 1.264 16.0841 0.804 15.3991C0.490751 14.9455 0.303698 14.4168 0.262 13.8671C0.257771 13.7196 0.318012 13.5776 0.427 13.4781C0.535205 13.3768 0.678792 13.3219 0.827 13.3251L2.927 13.3251C3.05658 13.3217 3.18406 13.3583 3.292 13.4301C3.41337 13.5304 3.49984 13.6666 3.539 13.8191C3.7104 14.2261 3.97725 14.5859 4.317 14.8681C4.78369 15.1945 5.34926 15.3486 5.917 15.3041C6.66269 15.3674 7.40446 15.1439 7.991 14.6791C8.49611 14.0713 8.73413 13.2851 8.651 12.4991L8.651 10.8991C7.74546 11.9305 6.41523 12.4872 5.045 12.4081C3.65208 12.5088 2.2907 11.9608 1.356 10.9231C0.470466 9.75912 0.00140127 8.3315 0.024 6.86912L0 6.23212L0.024 5.59612C0.0118238 4.13358 0.484044 2.70813 1.367 1.54212C2.28462 0.483116 3.64591 -0.0840577 5.044 0.0101204C5.80154 -0.00626032 6.55234 0.155409 7.236 0.48212C7.84546 0.781013 8.37789 1.21626 8.792 1.75412L8.792 0.83512C8.78682 0.674534 8.85136 0.519558 8.969 0.41012C9.07945 0.303323 9.22737 0.244084 9.381 0.24512L11.314 0.24512C11.4643 0.243042 11.6089 0.302681 11.714 0.41012C11.8249 0.523196 11.8846 0.67683 11.879 0.83512L11.903 12.1961C11.9959 13.6911 11.4672 15.1581 10.442 16.2501C9.22188 17.2957 7.63598 17.8131 6.034 17.6881C4.86364 17.7357 3.69941 17.4961 2.643 16.9901L2.643 16.9901ZM7.923 9.05812C8.37513 8.45894 8.63051 7.73438 8.654 6.98412C8.66933 6.85879 8.67733 6.60745 8.678 6.23012C8.67867 5.85279 8.67067 5.60145 8.654 5.47612C8.63057 4.72585 8.37519 4.00127 7.923 3.40212C7.43892 2.81586 6.7014 2.49962 5.943 2.55312C4.24567 2.55312 3.35 3.59045 3.256 5.66512L3.232 6.23012C3.232 8.68145 4.13567 9.90712 5.943 9.90712C6.69969 9.95897 7.43498 9.64289 7.918 9.05812L7.923 9.05812Z" transform="translate(28.665 4.2345552)" id="Path_3" fill="#322965" stroke="none"/>
      <path d="M2.15664 12.2758C1.5256 11.9844 0.981389 11.5335 0.57764 10.9678C0.199624 10.4383 -0.00223862 9.80332 0.000639804 9.15276C-0.0201375 8.12694 0.466223 7.15683 1.30064 6.55976C2.35751 5.82422 3.58038 5.36242 4.85964 5.21576L8.08864 4.74476L8.08864 4.24476C8.12942 3.68499 7.94225 3.13249 7.56964 2.71276C7.11022 2.32781 6.5167 2.14112 5.91964 2.19376C5.48539 2.17357 5.05378 2.27137 4.67064 2.47676C4.3926 2.63734 4.13534 2.83146 3.90464 3.05476L3.51564 3.44376C3.48068 3.61072 3.3322 3.72942 3.16164 3.72676L1.32364 3.72676C1.18808 3.72902 1.05703 3.67804 0.95864 3.58476C0.855187 3.48736 0.799323 3.34971 0.80564 3.20776C0.861875 2.71624 1.06308 2.25257 1.38364 1.87576C1.84023 1.31104 2.42654 0.865047 3.09264 0.57576C3.99006 0.180609 4.96455 -0.0086835 5.94464 0.0217599C7.40739 -0.107305 8.86255 0.341376 9.99864 1.27176C10.8611 2.13857 11.3225 3.32605 11.2716 4.54776L11.2716 11.9478C11.2749 12.096 11.22 12.2396 11.1186 12.3478C11.0114 12.4601 10.8607 12.5203 10.7056 12.5128L8.74964 12.5128C8.59923 12.5154 8.45442 12.4557 8.34964 12.3478C8.2419 12.2428 8.18221 12.0981 8.18464 11.9478L8.18464 11.0288C7.80911 11.5571 7.30669 11.9825 6.72364 12.2658C5.98721 12.6109 5.17944 12.7764 4.36664 12.7488C3.60356 12.7615 2.84765 12.5997 2.15664 12.2758L2.15664 12.2758ZM7.28264 9.64776C7.87222 8.97234 8.16903 8.0902 8.10764 7.19576L8.10764 6.72476L5.75064 7.10176C3.94331 7.38443 3.03964 7.98909 3.03964 8.91576C3.02333 9.38876 3.26189 9.83419 3.66464 10.0828C4.11227 10.3668 4.63471 10.5103 5.16464 10.4948C5.9582 10.5221 6.72673 10.2147 7.28264 9.64776L7.28264 9.64776Z" transform="translate(42.87636 4.210916)" id="Path_4" fill="#322965" stroke="none"/>
      <path d="M3.04063 15.2957L3.04063 16.1677C3.04295 16.318 2.98327 16.4627 2.87563 16.5677C2.76299 16.6786 2.60964 16.7383 2.45163 16.7327L0.565632 16.7327C0.41522 16.7353 0.270415 16.6756 0.165632 16.5677C0.0576902 16.4629 -0.00204153 16.3181 0.000631658 16.1677L0.000631658 0.566676C-0.00690583 0.411588 0.053306 0.260876 0.165632 0.153676C0.273837 0.0523465 0.417424 -0.00257548 0.565632 0.000675918L2.61663 0.000675918C2.76911 -0.00683185 2.91801 0.0484629 3.02863 0.153676C3.1341 0.264541 3.18942 0.413854 3.18163 0.566676L3.18163 5.79868C4.08012 4.75271 5.41022 4.17876 6.78763 4.24268C8.18312 4.15998 9.53779 4.73052 10.4536 5.78668C11.3532 6.94 11.8313 8.36622 11.8086 9.82868C11.824 10.0173 11.832 10.2767 11.8326 10.6067C11.8326 10.9213 11.8246 11.1807 11.8086 11.3847C11.8242 12.8553 11.3424 14.2881 10.4416 15.4507C9.52375 16.4945 8.17502 17.0555 6.78763 16.9707C5.34051 17.0552 3.94274 16.4304 3.04063 15.2957L3.04063 15.2957ZM8.57963 11.3127C8.59463 11.1557 8.60363 10.9197 8.60363 10.6057C8.60363 10.2917 8.59563 10.0557 8.57963 9.89868C8.46963 7.82401 7.57397 6.78701 5.89263 6.78768C5.14028 6.73996 4.40852 7.04486 3.91263 7.61268C3.45121 8.1783 3.19371 8.88282 3.18163 9.61268C3.16563 9.80068 3.15763 10.107 3.15763 10.5317C3.15763 10.9403 3.16563 11.2403 3.18163 11.4317C3.18944 12.1953 3.43673 12.9371 3.88863 13.5527C4.37189 14.1538 5.11929 14.4797 5.88863 14.4247C7.5713 14.424 8.46797 13.3867 8.57863 11.3127L8.57963 11.3127Z" transform="translate(57.18437 0)" id="Path_5" fill="#322965" stroke="none"/>
      <path d="M2.817 16.5942C2.72036 16.5118 2.66449 16.3913 2.664 16.2642C2.66882 16.1334 2.70084 16.005 2.758 15.8872L4.62 11.5272L0.094 0.849216C0.0416293 0.746327 0.00970682 0.634258 0 0.519216C0.0133262 0.38241 0.0713094 0.253793 0.165 0.153216C0.254825 0.053318 0.383685 -0.0025334 0.518 0.000216144L2.475 0.000216144C2.75573 -0.00184595 3.00471 0.180118 3.088 0.448216L6.223 8.13222L9.405 0.448216C9.51569 0.180398 9.77524 0.00422353 10.065 0.000216144L11.974 0.000216144C12.1064 -0.0037606 12.2346 0.0472841 12.328 0.141216C12.4184 0.227116 12.4694 0.346496 12.469 0.471216C12.464 0.602017 12.432 0.730367 12.375 0.848216L5.704 16.2872C5.60737 16.5661 5.3389 16.7484 5.044 16.7352L3.158 16.7352C3.03032 16.7343 2.90801 16.6838 2.817 16.5942L2.817 16.5942Z" transform="translate(70.218 4.47646)" id="Path_6" fill="#322965" stroke="none"/>
      <path d="M3.51109 15.6147C2.73013 14.7046 2.34049 13.5228 2.42709 12.3267L2.42709 6.99968L0.565086 6.99968C0.414697 7.00223 0.269938 6.94252 0.165086 6.83468C0.0571446 6.72989 -0.00258717 6.58509 8.6022e-05 6.43468L8.6022e-05 5.04368C-0.00234763 4.89331 0.0573464 4.7486 0.165086 4.64368C0.270006 4.53594 0.414719 4.47624 0.565086 4.47868L2.42309 4.47868L2.42309 0.566676C2.41555 0.411588 2.47576 0.260876 2.58809 0.153676C2.69629 0.0523465 2.83988 -0.00257548 2.98809 0.000675918L4.94409 0.000675918C5.09657 -0.00683185 5.24547 0.0484629 5.35609 0.153676C5.46156 0.264541 5.51687 0.413854 5.50909 0.566676L5.50909 4.47968L8.45509 4.47968C8.60541 4.47748 8.75003 4.53714 8.85509 4.64468C8.96273 4.74966 9.0224 4.89433 9.02009 5.04468L9.02009 6.43568C9.02264 6.58607 8.96293 6.73082 8.85509 6.83568C8.75017 6.94342 8.60545 7.00311 8.45509 7.00068L5.50909 7.00068L5.50909 12.0687C5.47405 12.603 5.59717 13.1359 5.86309 13.6007C6.13212 13.9622 6.56916 14.1585 7.01809 14.1197L8.66809 14.1197C8.82091 14.1119 8.97022 14.1672 9.08109 14.2727C9.1863 14.3833 9.24159 14.5322 9.23409 14.6847L9.23409 16.1697C9.23723 16.3179 9.18232 16.4614 9.08109 16.5697C8.97381 16.6819 8.82315 16.7421 8.66809 16.7347L6.73509 16.7347C5.55193 16.8221 4.38523 16.4168 3.51109 15.6147Z" transform="translate(83.53591 0)" id="Path_7" fill="#322965" stroke="none"/>
      <path d="M1.67253 11.2323C0.581524 10.0746 -0.00730778 8.53246 0.0345286 6.94228L0.0105286 6.35328C-0.0845936 4.66549 0.467601 3.00498 1.55453 1.71028C2.6627 0.544364 4.22636 -0.0770096 5.83253 0.0102765C7.4544 -0.0888744 9.03726 0.533293 10.1575 1.71028C11.2171 2.97273 11.7601 4.58917 11.6775 6.23528L11.6775 6.73528C11.68 6.88564 11.6203 7.03036 11.5125 7.13528C11.4 7.24633 11.2466 7.30603 11.0885 7.30028L3.26353 7.30028L3.26353 7.48928C3.26301 8.27428 3.5151 9.03861 3.98253 9.66928C4.42283 10.2395 5.11276 10.5602 5.83253 10.5293C6.6959 10.5455 7.51332 10.1412 8.02453 9.44528C8.1143 9.32011 8.22613 9.21235 8.35453 9.12728C8.48221 9.07964 8.61853 9.05954 8.75453 9.06828L10.8285 9.06828C10.96 9.06547 11.0886 9.10704 11.1935 9.18628C11.2954 9.26464 11.3526 9.38787 11.3465 9.51628C11.2851 10.0252 11.0473 10.4965 10.6745 10.8483C10.1358 11.4233 9.48097 11.8773 8.75353 12.1803C7.8384 12.574 6.84953 12.767 5.85353 12.7463C4.31283 12.8253 2.80539 12.2795 1.67253 11.2323ZM8.42553 5.29328L8.42553 5.24628C8.46468 4.44398 8.21648 3.65402 7.72553 3.01828C7.2577 2.45782 6.55483 2.14819 5.82553 2.18128C5.09996 2.14681 4.40075 2.45711 3.93953 3.01828C3.45744 3.65777 3.21567 4.44647 3.25653 5.24628L3.25653 5.29328L8.42553 5.29328Z" transform="translate(94.31947 4.2283993)" id="Path_8" fill="#322965" stroke="none"/>
      <g id="Group_1" transform="translate(109.065765 0.21151035)">
        <path d="M0.177234 16.3405C0.0639297 16.2334 -0.000121868 16.0843 0.000234199 15.9285L0.000234199 0.628466C-0.00422168 0.467093 0.0550556 0.310457 0.165234 0.192466C0.274209 0.0747664 0.428919 0.0101821 0.589234 0.0154665L6.78923 0.0154665C8.73789 -0.105391 10.6642 0.485179 12.2102 1.67747C13.5488 2.89729 14.289 4.64017 14.2372 6.45047C14.2526 6.90647 14.2606 7.51147 14.2612 8.26547C14.2619 9.01947 14.2539 9.61647 14.2372 10.0565C14.0799 14.3618 11.6362 16.5145 6.90623 16.5145L0.589234 16.5145C0.433814 16.5156 0.284789 16.4527 0.177234 16.3405L0.177234 16.3405ZM6.78923 12.9815C7.58503 13.0483 8.37446 12.7937 8.98123 12.2745C9.51042 11.6434 9.77995 10.8348 9.73523 10.0125C9.76657 9.55713 9.78223 8.9678 9.78223 8.24447C9.78223 7.52113 9.76657 6.9398 9.73523 6.50047C9.77431 5.67877 9.48133 4.87588 8.92223 4.27247C8.29236 3.7521 7.48613 3.49458 6.67123 3.55347L4.43223 3.55347L4.43223 12.9815L6.78923 12.9815Z" transform="translate(0 0.004699102)" id="Path_9" fill="#FF6E42" stroke="none"/>
        <path d="M0.177234 16.3452C0.0639297 16.2381 -0.000121868 16.089 0.000234199 15.9332L0.000234199 0.633166C-0.00422168 0.471792 0.0550556 0.315156 0.165234 0.197166C0.274209 0.0794655 0.428919 0.0148812 0.589234 0.0201656L7.87223 0.0201656C9.45463 -0.101739 11.03 0.331803 12.3272 1.24617C13.3271 2.12102 13.8664 3.40891 13.7882 4.73517C13.8054 5.43495 13.5948 6.12137 13.1882 6.69117C12.8442 7.18986 12.388 7.60088 11.8562 7.89117C12.5215 8.19195 13.086 8.67799 13.4822 9.29117C13.9207 9.9404 14.1509 10.7078 14.1422 11.4912C14.2186 12.9004 13.64 14.2659 12.5742 15.1912C11.2814 16.1495 9.69005 16.6173 8.08423 16.5112L0.584234 16.5112C0.431723 16.513 0.284934 16.4532 0.177234 16.3452L0.177234 16.3452ZM7.37723 6.55117C7.87066 6.58359 8.35599 6.41351 8.72123 6.08017C9.0402 5.75369 9.21057 5.31022 9.19223 4.85417C9.20931 4.41108 9.0429 3.98056 8.73223 3.66417C8.36131 3.33399 7.87251 3.16805 7.37723 3.20417L4.43123 3.20417L4.43123 6.55117L7.37723 6.55117ZM7.58923 13.3392C8.11803 13.3714 8.63587 13.179 9.01523 12.8092C9.35213 12.4584 9.53469 11.9874 9.52223 11.5012C9.53713 11.0053 9.35021 10.5247 9.00423 10.1692C8.62702 9.8037 8.11473 9.61169 7.59023 9.63916L4.43223 9.63916L4.43223 13.3392L7.58923 13.3392Z" transform="translate(16.947 0)" id="Path_10" fill="#FF6E42" stroke="none"/>
      </g>
    </g>
    <g id="Group_3">
      <path d="M33.6571 4.97913C30.4764 1.7804 26.148 -0.0125438 21.6371 0.000132832L21.6371 0.000132832C17.1262 -0.0125438 12.7978 1.7804 9.6171 4.97913C6.41812 8.16004 4.62516 12.4889 4.6381 17.0001C4.63514 19.0857 5.01792 21.1538 5.7671 23.1001C4.66321 24.1934 3.61649 25.3429 2.6311 26.5441C2.02842 27.2811 1.47329 28.0556 0.969105 28.8631C0.702691 29.2871 0.474461 29.7338 0.287105 30.1981C0.181281 30.4563 0.101226 30.7242 0.0481046 30.9981C-0.0230482 31.3343 -0.0151748 31.6825 0.0711046 32.0151C0.0924592 32.0978 0.122632 32.1779 0.161105 32.2541L0.185105 32.3051C0.19414 32.324 0.204154 32.3423 0.215105 32.3601C0.265871 32.4484 0.325154 32.5314 0.392105 32.6081C0.541284 32.7791 0.725888 32.9156 0.933105 33.0081C1.2494 33.1411 1.59008 33.2061 1.9331 33.1991C2.46621 33.1824 2.99463 33.094 3.5041 32.9361C4.43035 32.6545 5.33311 32.3007 6.2041 31.8781C7.59634 31.1997 8.9531 30.4507 10.2691 29.6341C13.3869 32.4498 17.4401 34.0059 21.6411 34.0001L21.6411 34.0001C26.1519 34.0124 30.4802 32.2195 33.6611 29.0211C36.8598 25.84 38.6527 21.5113 38.6401 17.0001C38.652 12.4883 36.8576 8.15938 33.6571 4.97913L33.6571 4.97913ZM6.1291 23.9731C6.85525 25.5883 7.83046 27.0794 9.0191 28.3921C7.7331 29.1801 6.5681 29.8321 5.4691 30.3801L5.4691 30.3801C4.68762 30.7836 3.87622 31.1263 3.0421 31.4051C2.66985 31.5312 2.28309 31.6095 1.8911 31.6381C1.77433 31.6478 1.65678 31.6363 1.5441 31.6041C1.5211 31.5941 1.5091 31.5871 1.5071 31.5871C1.50315 31.5824 1.49947 31.5773 1.4961 31.5721C1.47275 31.4624 1.47275 31.3489 1.4961 31.2391C1.52491 31.0559 1.57181 30.8761 1.6361 30.7021C1.78145 30.3045 1.95731 29.9187 2.1621 29.5481C2.59411 28.7619 3.07436 28.0031 3.6001 27.2761C4.3651 26.1861 5.1761 25.1481 6.12811 23.9731L6.1291 23.9731ZM15.7211 25.9541C17.4731 24.6601 18.8751 23.5771 20.1311 22.5451C21.5141 21.4231 22.9391 20.2061 24.3711 18.9211L24.5521 18.7521C25.8231 17.5641 27.1371 16.3341 28.4021 15.0961C28.5385 14.9603 28.5472 14.7424 28.4221 14.5961C28.294 14.4513 28.0759 14.43 27.9221 14.5471C26.5291 15.6241 25.1431 16.7471 23.8031 17.8271L23.5851 18.0031C22.3361 18.9931 20.9851 20.0321 19.2131 21.3691L19.0531 21.4881C17.6531 22.5261 16.2071 23.6001 14.7531 24.6101C13.1171 25.7601 11.7581 26.6751 10.5021 27.4711C7.83082 24.642 6.34623 20.8961 6.3541 17.0051C6.34359 12.9495 7.95565 9.05818 10.8311 6.19813C13.6911 3.32259 17.5825 1.71051 21.6381 1.72113C25.6936 1.71024 29.585 3.32195 32.4451 6.19713C35.32 9.05747 36.9317 12.9487 36.9211 17.0041C36.9318 21.0599 35.3202 24.9515 32.4451 27.8121C29.5849 30.6873 25.6936 32.2993 21.6381 32.2891C18.0282 32.2915 14.5344 31.0134 11.7781 28.6821C13.1191 27.7991 14.4441 26.8851 15.7201 25.9541L15.7211 25.9541Z" id="Path_11" fill="#322965" stroke="none"/>
      <path d="M15.219 0.178462C15.219 0.178462 11.148 -0.471538 9.789 0.709462L7.297 2.87546L7.066 3.07546L6.949 3.17546C6.949 3.17546 2.697 2.89346 1.777 3.69246L0.83 4.51646L0.83 4.51646L0.479 4.81646L0.1 5.14646L0 5.23046L1.97 7.49646C1.362 8.02446 1.798 9.52146 2.944 10.8395C4.09 12.1575 5.511 12.7975 6.119 12.2685L8.089 14.5345L8.15 14.4815L8.916 13.8155L8.916 13.8155L9.863 12.9915C10.783 12.1915 11.095 7.94246 11.095 7.94246L11.331 7.73746L11.523 7.57146L13.936 5.47146C15.292 4.30246 15.219 0.178462 15.219 0.178462ZM2.964 6.64146L3.102 6.52146L2.964 6.64146ZM10.564 8.41346L10.43 8.52946L10.564 8.41346Z" transform="translate(27.778105 0.9576705)" id="Path_12" fill="#ED5735" stroke="none"/>
    </g>
  </g>
</svg>