<svg xmlns="http://www.w3.org/2000/svg" width="40" height="40" viewBox="0 0 40 40" fill="none">
  <path d="M26.0385 6.84573C22.0563 6.84573 18.4907 8.60048 16.106 11.3628L16.0134 11.4647L11.2903 16.7176L8.76661 14.261C7.13435 12.4836 4.76119 11.3515 2.12178 11.3515C1.97129 11.3515 1.80922 11.3515 1.65873 11.3628V15.8006C1.80922 15.7893 1.97129 15.778 2.12178 15.778C3.39518 15.778 4.54124 16.2874 5.36316 17.1138L5.37474 17.1252L8.31513 20.0233L5.59469 23.0234L5.4905 23.1479C4.66858 24.0649 3.45307 24.6309 2.11021 24.6309C1.94814 24.6309 1.79765 24.6196 1.64716 24.6083V28.7857C1.79765 28.7971 1.95972 28.7971 2.11021 28.7971C4.8075 28.7971 7.22696 27.631 8.85922 25.7857L8.8708 25.7744L11.3597 23.0573L16.0944 27.7216L16.106 27.7329C18.4907 30.4952 22.0563 32.2499 26.0385 32.2499C33.2159 32.2499 39.0272 26.5668 39.0272 19.5478C39.0272 12.5289 33.2159 6.84573 26.0385 6.84573ZM26.0385 27.914C23.7464 27.914 21.6627 27.031 20.1346 25.6045L20.0883 25.5593C19.9609 25.4347 19.822 25.3102 19.7063 25.1744L15.8282 21.2686L14.3464 19.7856L17.7151 16.095L19.4863 14.1591C19.6021 14.0345 19.7063 13.91 19.8336 13.7855L19.8452 13.7742C21.408 12.1779 23.6075 11.1817 26.0385 11.1817C30.7617 11.1817 34.5935 14.9289 34.5935 19.5592C34.605 24.1668 30.7733 27.914 26.0385 27.914Z" fill="url(#paint0_linear_155_1077)"/>
  <defs>
    <linearGradient id="paint0_linear_155_1077" x1="0.679268" y1="19.5439" x2="34.0608" y2="19.5439" gradientUnits="userSpaceOnUse">
      <stop stop-color="#1245EB"/>
      <stop offset="1" stop-color="#33FFF0"/>
    </linearGradient>
  </defs>
</svg>