<?xml version="1.0" encoding="utf-8"?>
<!-- Generator: Adobe Illustrator 25.4.1, SVG Export Plug-In . SVG Version: 6.00 Build 0)  -->
<svg version="1.0" id="Layer_1" xmlns="http://www.w3.org/2000/svg" xmlns:xlink="http://www.w3.org/1999/xlink" x="0px" y="0px"
	 viewBox="0 0 228 165" style="enable-background:new 0 0 228 165;" xml:space="preserve">
<style type="text/css">
	.st0{fill:#238FFB;}
	.st1{fill:#2549C9;}
	.st2{fill:#86C1FD;}
</style>
<g id="Layer_2">
	<g id="Design">
		<path d="M84.1,72.1c0-0.1,0.1-0.1,0.2-0.1c0,0,0,0,0,0c0.1,0,0.1,0.1,0.1,0.1L94,91.8c0.1,0.1,0.1,0.2,0,0.2c0,0-0.1,0-0.1,0H90
			c-0.2,0-0.4-0.1-0.4-0.3l-1.2-2.5c-0.1-0.2-0.3-0.3-0.5-0.3h-7.4c-0.2,0-0.4,0.1-0.4,0.3l-1.2,2.5c-0.1,0.2-0.3,0.3-0.4,0.3h-3.9
			c-0.1,0-0.2,0-0.2-0.1c0,0,0,0,0,0c0,0,0-0.1,0-0.1L84.1,72.1z M86.3,85.4c0.1,0,0.2-0.1,0.2-0.2c0,0,0-0.1,0-0.1l-2.2-4.5
			c-0.1-0.2-0.2-0.2-0.3,0l-2.1,4.5c-0.1,0.1-0.1,0.2,0,0.3c0,0,0.1,0,0.1,0L86.3,85.4z"/>
		<path d="M162.3,72.1c0-0.1,0.1-0.1,0.2-0.1c0,0,0.1,0.1,0.1,0.1l9.7,19.6c0.1,0.1,0.1,0.2,0,0.2c0,0-0.1,0-0.1,0h-3.9
			c-0.2,0-0.4-0.1-0.4-0.3l-1.2-2.5c-0.1-0.2-0.3-0.3-0.4-0.3h-7.4c-0.2,0-0.4,0.1-0.4,0.3l-1.2,2.5c-0.1,0.2-0.3,0.3-0.4,0.3h-3.9
			c-0.1,0-0.2,0-0.2-0.1c0,0,0,0,0,0c0,0,0-0.1,0-0.1L162.3,72.1z M164.5,85.4c0.1,0,0.2-0.1,0.2-0.2c0,0,0-0.1,0-0.1l-2.2-4.5
			c-0.1-0.2-0.2-0.2-0.3,0l-2.1,4.5c-0.1,0.1,0,0.2,0.1,0.3c0,0,0.1,0,0.1,0L164.5,85.4z"/>
		<path d="M115.8,88.6c0.1,0.1,0.1,0.3,0,0.4c0,0,0,0,0,0l0,0c-1.9,2.1-4.7,3.3-7.6,3.3c-5.7,0-10.3-4.2-10.3-9.9s4.6-9.9,10.3-9.9
			c2.9,0,5.6,1.2,7.5,3.3l0,0c0.1,0.1,0.1,0.3,0,0.4c0,0,0,0,0,0l0,0l-2.4,2l0,0c-0.1,0.1-0.3,0.1-0.4,0l0,0c-1.2-1.3-2.9-2-4.7-2
			c-3.3,0-6,2.6-6.1,5.8v0.3c0,3.3,2.6,6,5.8,6h0.2c1.8,0,3.5-0.7,4.7-2l0,0c0.1-0.1,0.3-0.1,0.4,0l0,0L115.8,88.6L115.8,88.6z"/>
		<path d="M125.8,77.1c0-0.2-0.1-0.3-0.3-0.3c0,0,0,0,0,0H121c-0.2,0-0.3-0.1-0.3-0.3l0,0v-3.2c0-0.2,0.1-0.3,0.3-0.3h13.9
			c0.2,0,0.3,0.1,0.3,0.3l0,0v3.3c0,0.2-0.1,0.3-0.3,0.3h-4.5c-0.2,0-0.3,0.1-0.3,0.3c0,0,0,0,0,0v14.7c0,0.2-0.1,0.3-0.3,0.3h-3.6
			c-0.2,0-0.3-0.1-0.3-0.3c0,0,0,0,0,0l0,0L125.8,77.1z"/>
		<path d="M142.7,73.2c0-0.2,0.1-0.3,0.3-0.3h3.6c0.2,0,0.3,0.1,0.3,0.3l0,0v18.5c0,0.2-0.1,0.3-0.3,0.3H143c-0.2,0-0.3-0.1-0.3-0.3
			l0,0L142.7,73.2z"/>
		<path d="M191,73.2c0-0.2,0.1-0.3,0.3-0.3h3.6c0.2,0,0.3,0.1,0.3,0.3l0,0v18.9c0,0.3-0.2,0.4-0.4,0.2l-11.9-10.7
			c-0.2-0.2-0.4-0.1-0.4,0.2v9.9c0,0.2-0.1,0.3-0.3,0.3h-3.6c-0.2,0-0.3-0.1-0.3-0.3l0,0V72.8c0-0.3,0.2-0.4,0.4-0.2l11.9,10.8
			c0.2,0.2,0.4,0.1,0.4-0.2L191,73.2z"/>
		<path d="M200.1,73.2h-0.8v-0.3h1.8v0.3h-0.7v2.4h-0.3V73.2z"/>
		<path d="M202,72.8l1.3,1.9l1.3-1.9v2.8h-0.3v-1.9l-1,1.5l-1-1.5v1.9H202V72.8z"/>
		<path class="st0" d="M61.8,92.8c-0.1-0.1-0.2-0.2-0.4-0.2h-5.9c-0.2,0-0.3-0.1-0.4-0.2L45,75.1c0-0.1-0.1-0.1-0.2-0.1
			c0,0-0.1,0-0.1,0.1L34.6,92.3c-0.1,0.1-0.2,0.2-0.4,0.2h-5.9c-0.2,0-0.3,0.1-0.4,0.2l-1.4,2.3c-0.1,0.1,0,0.1,0,0.2
			c0,0,0.1,0,0.1,0h9.1c0.2,0,0.3-0.1,0.4-0.2l8.6-14.5c0-0.1,0.1-0.1,0.2-0.1c0,0,0,0,0,0c0,0,0.1,0,0.1,0.1l8.5,14.5
			c0.1,0.1,0.2,0.2,0.4,0.2h9c0.2,0,0.2-0.1,0.1-0.2L61.8,92.8z"/>
		<path class="st1" d="M66.4,100.6c0.1,0.1,0,0.2-0.1,0.2H50.8c-0.2,0-0.3-0.1-0.4-0.2L45,91.5c0-0.1-0.1-0.1-0.2-0.1
			c0,0-0.1,0-0.1,0.1l-5.4,9.2c-0.1,0.1-0.2,0.2-0.4,0.2H23.5c-0.1,0-0.2-0.1-0.1-0.2l1.4-2.3c0.1-0.1,0.2-0.2,0.4-0.2h12.3
			c0.2,0,0.3-0.1,0.4-0.2l7-11.8c0-0.1,0.1-0.1,0.2-0.1c0,0,0,0,0,0c0,0,0.1,0,0.1,0.1l7,11.8c0.1,0.1,0.2,0.2,0.4,0.2h12.2
			c0.2,0,0.3,0.1,0.4,0.2L66.4,100.6z"/>
		<path class="st1" d="M45,96.9c0-0.1-0.1-0.1-0.2-0.1c0,0,0,0,0,0c0,0-0.1,0-0.1,0.1l-2.2,3.7c-0.1,0.1,0,0.2,0.1,0.2H47
			c0.2,0,0.2-0.1,0.1-0.2L45,96.9z"/>
		<path class="st2" d="M44.8,64.2c0-0.1,0.1-0.1,0.2-0.1c0,0,0.1,0,0.1,0.1l14.9,25.3c0.1,0.1,0,0.2-0.1,0.2h-2.7
			c-0.2,0-0.3-0.1-0.4-0.2L45,69.7c0-0.1-0.1-0.1-0.2-0.1c0,0,0,0,0,0c0,0-0.1,0.1-0.1,0.1L33.1,89.6c-0.1,0.1-0.2,0.2-0.4,0.2H30
			c-0.1,0-0.2-0.1-0.1-0.2L44.8,64.2z"/>
	</g>
</g>
</svg>
