<svg width="40" height="13.8" viewBox="0 0 177 61" fill="none" xmlns="http://www.w3.org/2000/svg">
<path d="M145.05 29.9552C146.493 28.7113 147.313 26.9822 147.313 25.1437C147.313 21.1831 144.64 18.521 140.666 18.521H134.754C133.613 18.521 132.687 19.4471 132.687 20.5885V41.7652C132.687 42.1923 133.032 42.5409 133.459 42.5409H140.861C145.177 42.5409 147.965 39.7729 147.965 35.4911C147.965 33.287 146.909 31.2913 145.047 29.9552H145.05ZM140.936 39.4141L135.844 39.4039V31.6706L140.379 31.6809C142.932 31.6809 144.927 33.3724 144.927 35.5321C144.927 38.0711 143.547 39.4141 140.933 39.4141H140.936ZM135.848 28.5917V21.4599H140.731C143.034 21.4599 144.254 22.7003 144.254 25.0446C144.254 27.0334 142.447 28.5917 140.14 28.5917H135.848Z" fill="black"/>
<path d="M71.7737 18.5211H70.8203C69.9045 18.5211 69.2825 19.0474 68.7324 20.2844L62.079 35.8329L55.4222 20.2741C54.8754 19.0439 54.2501 18.5211 53.3342 18.5211H52.374C52.1621 18.5211 51.9913 18.6817 51.9742 18.9038L50.8977 42.1172C50.8909 42.2266 50.9319 42.3359 51.0071 42.4179C51.0823 42.5 51.1916 42.5444 51.3044 42.5444H53.7716C53.9903 42.5444 54.168 42.3735 54.1783 42.1582L54.8549 27.1736L61.3648 42.0352C61.5596 42.476 61.8979 42.541 62.079 42.541C62.4002 42.541 62.6531 42.3598 62.7932 42.0352L69.303 27.1702L69.9797 42.1651C69.9933 42.3804 70.171 42.5478 70.3863 42.5478H72.8467C72.9561 42.5478 73.062 42.5034 73.1372 42.4248C73.2124 42.3462 73.2534 42.2368 73.25 42.1241L72.177 18.9004C72.1633 18.6885 71.989 18.5245 71.7771 18.5245L71.7737 18.5211Z" fill="black"/>
<path d="M124.923 18.521H123.969C123.057 18.521 122.432 19.0473 121.881 20.2843L115.228 35.8363L108.571 20.2775C108.025 19.0473 107.399 18.521 106.487 18.521H105.526C105.308 18.521 105.134 18.6919 105.13 18.9038L104.054 42.1137C104.047 42.2231 104.084 42.3324 104.16 42.4145C104.238 42.4965 104.344 42.5443 104.457 42.5443H106.924C107.143 42.5443 107.321 42.3735 107.327 42.1582L108.004 27.1701L114.514 42.0317C114.702 42.4726 115.044 42.5409 115.228 42.5409C115.549 42.5409 115.802 42.3598 115.942 42.0351L122.452 27.1701L123.129 42.165C123.142 42.3803 123.32 42.5477 123.535 42.5477H125.996C126.105 42.5477 126.215 42.4999 126.29 42.4213C126.365 42.3393 126.406 42.2299 126.399 42.124L125.326 18.9106C125.316 18.6953 125.142 18.5279 124.926 18.5279L124.923 18.521Z" fill="black"/>
<path d="M88.8257 18.5245H88.7095C86.3653 18.5245 84.6156 20.0588 84.0381 22.6286L79.4693 42.0283C79.4385 42.1548 79.4693 42.2846 79.5478 42.3871C79.6299 42.4896 79.7495 42.5477 79.8793 42.5477H82.3261C82.5174 42.5477 82.6849 42.4179 82.7327 42.2265L84.6122 34.2609H92.7931L94.7063 42.2299C94.7513 42.4179 94.9183 42.5477 95.1103 42.5477H97.5263C97.6523 42.5477 97.7723 42.4931 97.8543 42.394C97.9363 42.2949 97.9673 42.165 97.9393 42.0283L93.3706 22.632C92.8068 20.1169 91.1084 18.5825 88.8257 18.5245ZM92.0208 30.953H85.3879L87.2127 23.1241C87.4451 22.2117 87.944 21.7503 88.6993 21.7503H88.771C89.4886 21.7777 89.9671 22.239 90.1892 23.1172L92.0174 30.953H92.0208Z" fill="black"/>
<path d="M170.925 19.3617V18.9106C170.925 18.6885 170.74 18.5074 170.515 18.5074H169.818V18.5244C169.411 18.5655 168.864 18.7021 168.417 19.1088C167.921 19.5633 167.668 20.2228 167.668 21.0771V34.2985C167.668 36.6769 166.339 39.4551 162.597 39.4551C158.855 39.4551 157.526 36.6769 157.526 34.2985V21.0806C157.526 20.2262 157.273 19.5633 156.777 19.1122C156.337 18.709 155.804 18.562 155.356 18.5244L154.676 18.5108C154.45 18.5108 154.269 18.6919 154.269 18.9174V19.1601L154.252 34.2609C154.252 39.4073 157.447 42.6058 162.594 42.6058C167.658 42.6058 170.932 39.3287 170.932 34.2575L170.915 19.3617H170.925Z" fill="black"/>
<mask id="mask0_61_758" style="mask-type:luminance" maskUnits="userSpaceOnUse" x="9" y="14" width="25" height="11">
<path d="M20.2209 14.3452C15.5563 15.3327 11.7598 18.1827 9.44971 21.9485C9.95891 22.1946 10.5774 21.7845 11.4488 21.3744C12.9695 20.6568 15.2556 19.9426 19.0659 22.7072C23.3408 25.81 26.3583 25.0924 27.5646 21.5487C29.1399 16.9081 31.2689 16.9491 32.4888 16.9901C32.81 17.0038 33.0698 17.0106 33.2406 16.9388C30.4966 15.1004 27.0691 14 23.5664 14C22.4524 14 21.3281 14.1094 20.2209 14.3452Z" fill="white"/>
</mask>
<g mask="url(#mask0_61_758)">
<path d="M27.2946 3.69781L4.33545 16.9533L15.397 36.1127L38.3562 22.8571L27.2946 3.69781Z" fill="url(#paint0_linear_61_758)"/>
</g>
<mask id="mask1_61_758" style="mask-type:luminance" maskUnits="userSpaceOnUse" x="7" y="19" width="34" height="29">
<path d="M32.4 21.6342C31.3816 24.5593 31.778 29.7365 29.8234 32.9213C26.4437 38.4299 19.1581 35.9354 15.9254 30.3652C14.8968 28.5883 14.4252 27.2077 13.1096 25.9775C11.8589 24.8088 9.9486 24.8532 8.8483 25.793C6.7569 27.5699 6.6749 31.5373 7.45059 34.6573C9.6752 43.5934 18.7617 49.0918 27.7081 46.8706C36.651 44.6493 42.081 35.6107 39.8735 26.6678C39.2516 24.1527 38.1375 21.8221 36.7911 20.65C36.0154 19.97 35.3012 19.6932 34.6827 19.6932C33.5755 19.6932 32.7622 20.5782 32.4 21.6342Z" fill="white"/>
</mask>
<g mask="url(#mask1_61_758)">
<path d="M33.2303 4.3623L-6.05615 27.0443L15.5272 64.4278L54.8136 41.7458L33.2303 4.3623Z" fill="url(#paint1_linear_61_758)"/>
</g>
<defs>
<linearGradient id="paint0_linear_61_758" x1="11.5372" y1="25.1421" x2="31.5688" y2="13.5768" gradientUnits="userSpaceOnUse">
<stop stop-color="#047573"/>
<stop offset="0.04" stop-color="#0A796F"/>
<stop offset="0.31" stop-color="#2B915E"/>
<stop offset="0.57" stop-color="#43A252"/>
<stop offset="0.8" stop-color="#52AD4A"/>
<stop offset="1" stop-color="#57B148"/>
</linearGradient>
<linearGradient id="paint1_linear_61_758" x1="11.0091" y1="40.8738" x2="39.9614" y2="24.1582" gradientUnits="userSpaceOnUse">
<stop stop-color="#047573"/>
<stop offset="0.04" stop-color="#0A796F"/>
<stop offset="0.31" stop-color="#2B915E"/>
<stop offset="0.57" stop-color="#43A252"/>
<stop offset="0.8" stop-color="#52AD4A"/>
<stop offset="1" stop-color="#57B148"/>
</linearGradient>
</defs>
</svg>