<?xml version="1.0" encoding="UTF-8"?>
<svg width="68px" height="68px" viewBox="0 0 68 68" version="1.1" xmlns="http://www.w3.org/2000/svg" xmlns:xlink="http://www.w3.org/1999/xlink">
    <title>Explainable</title>
    <g id="Dumpster" stroke="none" stroke-width="1" fill="none" fill-rule="evenodd">
        <g id="Explainable">
            <circle id="Oval-Copy-3" fill="#00B06D" cx="34" cy="34" r="34"></circle>
            <path d="M53.6249008,45.7500054 C55.486049,45.7500054 56.9998927,44.185556 56.9998927,42.2632278 L56.9998927,19.9868527 C56.9998927,18.0645245 55.486049,16.5000751 53.6249008,16.5000751 L26.6249651,16.5000751 C24.7638169,16.5000751 23.2499732,18.0645245 23.2499732,19.9868527 L23.2499732,23.250059 C24.8966825,23.250059 26.4210319,23.7267958 27.7499624,24.5016048 L27.7499624,21.0000644 L52.4999034,21.0000644 L52.4999034,41.2500161 L47.9999142,41.2500161 L47.9999142,36.7500268 L38.9999356,36.7500268 L38.9999356,41.2500161 L33.6393069,41.2500161 C34.9823137,42.4235591 35.9680596,43.9732457 36.4300336,45.7500054 L53.6249008,45.7500054 Z M23.2499732,39.0000215 C26.9779001,39.0000215 29.9999571,35.9779645 29.9999571,32.2500376 C29.9999571,28.5221106 26.9779001,25.5000536 23.2499732,25.5000536 C19.5220463,25.5000536 16.4999893,28.5221106 16.4999893,32.2500376 C16.4999893,35.9779645 19.5220463,39.0000215 23.2499732,39.0000215 Z M31.1249544,52.4999893 C32.9720264,52.4999893 34.4901273,51.0149846 34.50006,49.1685992 C34.5231549,44.7994156 30.9885183,41.2500161 26.6249651,41.2500161 C26.4569434,41.2500161 26.288853,41.2745979 26.1285903,41.3266455 C25.2173452,41.6226577 24.2589277,41.8125148 23.2499732,41.8125148 C22.2410187,41.8125148 21.2826012,41.6226577 20.3706694,41.3266455 C20.2103381,41.2745979 20.043003,41.2500161 19.8749812,41.2500161 C15.5114281,41.2500161 11.9767914,44.7994156 11.9998864,49.1685992 C12.009819,51.0149846 13.5279199,52.4999893 15.374992,52.4999893 L31.1249544,52.4999893 Z" id="c" fill="#FFFFFF" fill-rule="nonzero"></path>
        </g>
    </g>
</svg>