<?xml version="1.0" encoding="UTF-8"?>
<svg width="68px" height="68px" viewBox="0 0 68 68" version="1.1" xmlns="http://www.w3.org/2000/svg" xmlns:xlink="http://www.w3.org/1999/xlink">
    <title>Python</title>
    <g id="Dumpster" stroke="none" stroke-width="1" fill="none" fill-rule="evenodd">
        <g id="Python">
            <circle id="Oval" fill="#00B06D" cx="34" cy="34" r="34"></circle>
            <path d="M21.8632577,44.7285163 L21.8632577,39.9629217 C21.8632577,36.5156834 24.8417663,33.478524 28.3866606,33.478524 L38.8163042,33.478524 C41.716707,33.478524 44.0311736,31.0859516 44.0311736,28.1758214 L44.0311736,18.2247304 C44.0311736,15.3927059 41.6483287,13.2735513 38.8163042,12.7949987 C35.3202378,12.2188854 31.521476,12.2481631 28.3866606,12.8048215 C23.9725896,13.5860696 23.1718865,15.2168488 23.1718865,18.2344579 L23.1718865,22.2090769 L33.6112575,22.2090769 L33.6112575,23.5371605 L19.255823,23.5371605 C16.218759,23.5371605 13.5624963,25.3633471 12.7324201,28.8301358 C11.7754102,32.8047547 11.7363097,35.2851603 12.7324201,39.4355411 C13.4745677,42.5215284 15.2421988,44.7285163 18.2792628,44.7285163 L21.8632577,44.7285163 Z M27.7323462,19.5528141 C26.6484026,19.5528141 25.7694984,18.6641825 25.7694984,17.570416 C25.7792259,16.4669221 26.6484026,15.5781951 27.7323462,15.5781951 C28.8065624,15.5781951 29.6952894,16.4766496 29.6952894,17.570416 C29.6952894,18.6641825 28.8163852,19.5528141 27.7323462,19.5528141 Z M39.2948568,55.334017 C41.9218418,54.5722237 44.5097263,53.0391006 44.5097263,50.0312189 L44.5097263,46.0566953 L34.0898102,46.0566953 L34.0898102,44.7285163 L49.7343232,44.7285163 C52.7713872,44.7285163 53.8944314,42.6093616 54.9490973,39.4355411 C56.0428637,36.1640645 55.9940357,33.019617 54.9490973,28.8301358 C54.1971269,25.8125267 52.7713872,23.5371605 49.7343232,23.5371605 L45.8182597,23.5371605 L45.8182597,28.1660939 C45.8182597,31.7598163 42.7713729,34.7871528 39.2948568,34.7871528 L28.8652132,34.7871528 C26.0136385,34.7871528 23.6503438,37.2285532 23.6503438,40.0898555 L23.6503438,50.0312189 C23.6503438,52.8632434 26.1112945,54.5233957 28.8652132,55.334017 C32.1659675,56.3007543 35.3397881,56.4765161 39.2948568,55.334017 Z M39.9491712,52.6777542 C38.874955,52.6777542 37.986228,51.7792998 37.986228,50.6855333 C37.9960508,49.5820394 38.874955,48.7031352 39.9491712,48.7031352 C41.0331148,48.7031352 41.912019,49.5917669 41.912019,50.6855333 C41.912019,51.7890272 41.0331148,52.6777542 39.9491712,52.6777542 Z" id="p" fill="#FFFFFF" fill-rule="nonzero"></path>
        </g>
    </g>
</svg>