<svg width="536" height="195" viewBox="0 0 536 195" fill="none" xmlns="http://www.w3.org/2000/svg">
<path fill-rule="evenodd" clip-rule="evenodd" d="M73.916 9.40902C67.7606 5.85519 60.1768 5.8552 54.0214 9.40902L10.8399 34.3399C4.68447 37.8937 0.892578 44.4615 0.892578 51.5691V101.431C0.892578 108.538 4.68447 115.106 10.8399 118.66L54.0214 143.591C60.1768 147.145 67.7606 147.145 73.916 143.591L117.098 118.66C123.253 115.106 127.045 108.538 127.045 101.431V51.5691C127.045 44.4615 123.253 37.8937 117.098 34.3399L73.916 9.40902ZM97.5614 40.6725C98.4454 40.1619 98.4453 38.8859 97.5612 38.3755L67.2845 20.8952C65.2327 19.7106 62.7047 19.7106 60.6529 20.8952L17.4714 45.826C15.4196 47.0106 14.1556 49.1999 14.1556 51.5691V101.431C14.1556 103.8 15.4196 105.989 17.4714 107.174L60.6529 132.105C62.7047 133.289 65.2327 133.289 67.2845 132.105L110.466 107.174C112.518 105.989 113.782 103.8 113.782 101.431V86.5319C113.782 85.5126 112.68 84.8743 111.796 85.3813L66.8326 111.165C66.3905 111.418 65.8396 111.099 65.8396 110.59L65.8397 101.217C65.8397 98.3742 67.3558 95.7476 69.8171 94.3259L113.119 69.3131C113.529 69.0762 113.782 68.6384 113.782 68.1647V51.5691C113.782 50.4386 113.494 49.3491 112.97 48.3901C112.656 47.8149 111.921 47.6825 111.352 48.0086L66.8326 73.5377C66.3905 73.7912 65.8396 73.472 65.8396 72.9624L65.8397 63.5895C65.8397 60.7471 67.3558 58.1205 69.8171 56.6987L97.5614 40.6725Z" fill="#88FFE4"/>
<path d="M169.673 30.097V122H156.255V30.097H169.673ZM185.196 122V53.0727H198.614V122H185.196ZM191.972 42.4375C189.639 42.4375 187.634 41.6597 185.959 40.104C184.314 38.5184 183.491 36.6337 183.491 34.4498C183.491 32.236 184.314 30.3513 185.959 28.7956C187.634 27.2101 189.639 26.4173 191.972 26.4173C194.306 26.4173 196.295 27.2101 197.94 28.7956C199.616 30.3513 200.453 32.236 200.453 34.4498C200.453 36.6337 199.616 38.5184 197.94 40.104C196.295 41.6597 194.306 42.4375 191.972 42.4375ZM215.214 122V30.097H228.631V64.2465H229.439C230.217 62.8105 231.339 61.1502 232.805 59.2654C234.271 57.3807 236.305 55.7353 238.908 54.3292C241.51 52.8933 244.951 52.1753 249.229 52.1753C254.793 52.1753 259.759 53.5813 264.127 56.3935C268.495 59.2056 271.92 63.2593 274.403 68.5545C276.916 73.8496 278.173 80.2218 278.173 87.671C278.173 95.1202 276.931 101.507 274.448 106.832C271.965 112.128 268.555 116.211 264.217 119.083C259.879 121.925 254.928 123.346 249.363 123.346C245.175 123.346 241.75 122.643 239.087 121.237C236.455 119.831 234.39 118.186 232.895 116.301C231.399 114.416 230.247 112.741 229.439 111.275H228.317V122H215.214ZM228.362 87.5364C228.362 92.3828 229.065 96.6309 230.471 100.281C231.877 103.931 233.912 106.788 236.574 108.852C239.237 110.886 242.498 111.903 246.357 111.903C250.366 111.903 253.716 110.841 256.409 108.717C259.101 106.563 261.136 103.646 262.512 99.9666C263.918 96.2869 264.621 92.1435 264.621 87.5364C264.621 82.9891 263.933 78.9055 262.557 75.2856C261.21 71.6658 259.176 68.8087 256.454 66.7146C253.761 64.6205 250.396 63.5734 246.357 63.5734C242.468 63.5734 239.177 64.5756 236.484 66.58C233.822 68.5844 231.803 71.3815 230.426 74.9715C229.05 78.5615 228.362 82.7498 228.362 87.5364ZM341.914 54.2395C341.435 49.9914 339.461 46.7006 335.991 44.3671C332.52 42.0037 328.152 40.822 322.887 40.822C319.118 40.822 315.857 41.4203 313.105 42.617C310.352 43.7837 308.213 45.3992 306.688 47.4634C305.192 49.4977 304.444 51.8163 304.444 54.419C304.444 56.6029 304.952 58.4876 305.97 60.0732C307.017 61.6587 308.378 62.99 310.053 64.067C311.758 65.1141 313.583 65.9966 315.528 66.7146C317.472 67.4027 319.342 67.9711 321.137 68.4198L330.112 70.7533C333.044 71.4713 336.05 72.4436 339.132 73.6701C342.213 74.8967 345.07 76.5122 347.703 78.5166C350.335 80.521 352.46 83.004 354.075 85.9658C355.72 88.9275 356.543 92.4726 356.543 96.601C356.543 101.806 355.197 106.429 352.504 110.467C349.842 114.506 345.968 117.692 340.882 120.026C335.826 122.359 329.708 123.526 322.528 123.526C315.647 123.526 309.694 122.434 304.668 120.25C299.642 118.066 295.708 114.97 292.866 110.961C290.024 106.922 288.453 102.136 288.154 96.601H302.065C302.335 99.9217 303.412 102.689 305.296 104.903C307.211 107.087 309.649 108.717 312.611 109.794C315.603 110.841 318.878 111.365 322.438 111.365C326.357 111.365 329.843 110.751 332.894 109.525C335.976 108.268 338.399 106.533 340.164 104.319C341.929 102.076 342.811 99.458 342.811 96.4664C342.811 93.744 342.034 91.5152 340.478 89.7801C338.952 88.045 336.873 86.609 334.24 85.4721C331.638 84.3353 328.691 83.3331 325.4 82.4656L314.541 79.5038C307.181 77.4994 301.347 74.5527 297.039 70.6636C292.761 66.7744 290.622 61.6288 290.622 55.2267C290.622 49.9315 292.058 45.3095 294.93 41.3605C297.802 37.4115 301.691 34.3451 306.598 32.1612C311.504 29.9474 317.039 28.8405 323.201 28.8405C329.424 28.8405 334.914 29.9325 339.67 32.1164C344.457 34.3002 348.226 37.3068 350.979 41.1361C353.731 44.9355 355.167 49.3033 355.287 54.2395H341.914ZM404.376 92.2033H418.018L427.621 104.723L432.153 110.288L447.456 130.257H433.275L423.044 116.929L419.544 112.083L404.376 92.2033ZM450.417 76.0485C450.417 85.8611 448.622 94.2975 445.032 101.358C441.443 108.388 436.521 113.803 430.269 117.602C424.046 121.372 416.971 123.256 409.043 123.256C401.085 123.256 393.98 121.372 387.728 117.602C381.505 113.803 376.599 108.373 373.009 101.313C369.419 94.2526 367.624 85.8311 367.624 76.0485C367.624 66.2359 369.419 57.8145 373.009 50.7841C376.599 43.7239 381.505 38.309 387.728 34.5396C393.98 30.7402 401.085 28.8405 409.043 28.8405C416.971 28.8405 424.046 30.7402 430.269 34.5396C436.521 38.309 441.443 43.7239 445.032 50.7841C448.622 57.8145 450.417 66.2359 450.417 76.0485ZM436.686 76.0485C436.686 68.5694 435.474 62.272 433.051 57.1563C430.658 52.0107 427.367 48.1216 423.179 45.489C419.02 42.8264 414.308 41.4951 409.043 41.4951C403.748 41.4951 399.021 42.8264 394.863 45.489C390.704 48.1216 387.414 52.0107 384.99 57.1563C382.597 62.272 381.4 68.5694 381.4 76.0485C381.4 83.5276 382.597 89.8399 384.99 94.9855C387.414 100.101 390.704 103.99 394.863 106.653C399.021 109.286 403.748 110.602 409.043 110.602C414.308 110.602 419.02 109.286 423.179 106.653C427.367 103.99 430.658 100.101 433.051 94.9855C435.474 89.8399 436.686 83.5276 436.686 76.0485ZM465.178 122V30.097H479.044V110.063H520.688V122H465.178Z" fill="#88FFE4"/>
<path d="M342.437 184.226V152.218H348.094V164.189H348.329C348.62 163.606 349.032 162.986 349.563 162.33C350.095 161.663 350.814 161.095 351.72 160.626C352.627 160.147 353.783 159.907 355.19 159.907C357.044 159.907 358.717 160.381 360.207 161.329C361.707 162.267 362.895 163.658 363.77 165.502C364.656 167.336 365.099 169.587 365.099 172.254C365.099 174.89 364.666 177.13 363.801 178.974C362.937 180.819 361.759 182.225 360.269 183.194C358.779 184.163 357.091 184.648 355.205 184.648C353.83 184.648 352.689 184.419 351.783 183.96C350.876 183.502 350.147 182.949 349.595 182.303C349.053 181.647 348.631 181.027 348.329 180.444H348V184.226H342.437ZM347.985 172.223C347.985 173.775 348.204 175.135 348.641 176.302C349.089 177.469 349.73 178.381 350.564 179.037C351.408 179.683 352.429 180.006 353.627 180.006C354.877 180.006 355.924 179.673 356.768 179.006C357.612 178.328 358.248 177.406 358.675 176.239C359.113 175.062 359.331 173.723 359.331 172.223C359.331 170.733 359.118 169.41 358.691 168.253C358.263 167.096 357.628 166.19 356.784 165.534C355.94 164.877 354.888 164.549 353.627 164.549C352.418 164.549 351.392 164.867 350.548 165.502C349.704 166.138 349.063 167.029 348.626 168.175C348.198 169.321 347.985 170.67 347.985 172.223ZM371.288 193.228C370.517 193.228 369.803 193.166 369.147 193.041C368.501 192.926 367.985 192.791 367.6 192.634L368.912 188.227C369.735 188.466 370.47 188.581 371.116 188.571C371.762 188.56 372.33 188.357 372.82 187.961C373.32 187.576 373.742 186.93 374.086 186.023L374.57 184.726L365.865 160.22H371.866L377.399 178.349H377.649L383.197 160.22H389.214L379.603 187.133C379.155 188.404 378.561 189.493 377.821 190.399C377.081 191.316 376.175 192.014 375.101 192.494C374.039 192.983 372.767 193.228 371.288 193.228Z" fill="#88FFE4"/>
<path d="M411.645 161.558V185.306H404.339V161.558H399.265V154.646H416.676V161.558H411.645Z" fill="#88FFE4"/>
<path d="M418.996 173.078V154.646H426.302V173.078C426.302 176.534 427.92 178.926 431.508 178.926C434.964 178.926 436.626 176.489 436.626 173.033V154.646H443.931V173.033C443.931 180.432 439.732 185.882 431.42 185.882C422.889 185.882 418.996 180.742 418.996 173.078Z" fill="#88FFE4"/>
<path d="M463.615 171.305L470.526 185.306H462.696L456.747 172.723H454.778V185.306H447.516V154.646H457.928C464.271 154.646 467.465 157.97 467.465 163.773C467.465 167.185 466.064 169.799 463.615 171.305ZM454.778 161.026V166.698H457.316C458.978 166.698 459.94 165.546 459.94 163.818C459.94 162.134 458.934 161.026 457.316 161.026H454.778Z" fill="#88FFE4"/>
<path d="M480.413 165.679L484.219 167.185C488.156 168.825 490.475 171.483 490.475 176.046C490.475 182.249 486.144 185.882 480.063 185.882C471.401 185.882 469.827 180.167 470.089 175.692H477.001C476.913 177.641 477.657 179.547 480.063 179.547C481.726 179.547 482.951 178.616 482.951 176.844C482.951 175.116 481.726 174.274 479.757 173.521C478.226 172.901 476.695 172.325 475.032 171.483C471.97 169.888 470.352 166.875 470.352 163.153C470.352 157.792 474.201 154.071 480.107 154.071C487.238 154.071 489.819 158.191 489.512 163.641H482.776C482.819 161.736 481.857 160.407 480.151 160.407C478.488 160.407 477.657 161.426 477.657 162.71C477.657 163.995 478.357 164.881 480.413 165.679Z" fill="#88FFE4"/>
<path d="M507.755 154.071C517.642 154.071 523.81 160.938 523.81 169.888C523.81 178.838 517.685 185.882 507.973 185.882C498.087 185.882 492.05 179.015 492.05 170.021C492.05 161.115 498.437 154.071 507.755 154.071ZM507.93 178.971C513.267 178.971 516.154 174.983 516.154 169.977C516.154 164.97 513.092 160.983 507.886 160.983C502.549 160.983 499.705 164.97 499.705 169.977C499.705 175.027 502.899 178.971 507.93 178.971Z" fill="#88FFE4"/>
</svg>
