<svg xmlns="http://www.w3.org/2000/svg" width="40" height="40" viewBox="0 0 40 40" fill="none">
  <path fill-rule="evenodd" clip-rule="evenodd" d="M22.8386 1.74509C21.0821 0.751636 18.9179 0.751639 17.1613 1.74509L4.83866 8.71437C3.08209 9.70781 2 11.5438 2 13.5307V27.4693C2 29.456 3.08209 31.2921 4.83866 32.2856L17.1613 39.2549C18.9179 40.2484 21.0821 40.2484 22.8386 39.2549L35.1614 32.2856C36.9179 31.2921 38 29.456 38 27.4693V13.5307C38 11.5438 36.9179 9.70781 35.1614 8.71437L22.8386 1.74509ZM29.5863 10.4846C29.8386 10.3419 29.8385 9.98518 29.5862 9.8425L20.9462 4.95598C20.3607 4.62483 19.6393 4.62483 19.0537 4.95598L6.73108 11.9252C6.14556 12.2564 5.78486 12.8684 5.78486 13.5307V27.4693C5.78486 28.1315 6.14556 28.7435 6.73108 29.0747L19.0537 36.044C19.6393 36.375 20.3607 36.375 20.9462 36.044L33.2689 29.0747C33.8544 28.7435 34.2151 28.1315 34.2151 27.4693V23.3043C34.2151 23.0194 33.9007 22.841 33.6484 22.9827L20.8172 30.1904C20.6911 30.2611 20.5339 30.1719 20.5339 30.0296L20.5339 27.4095C20.5339 26.6148 20.9665 25.8805 21.6689 25.4831L34.026 18.4909C34.143 18.4247 34.2151 18.3023 34.2151 18.1699V13.5307C34.2151 13.2147 34.133 12.9101 33.9834 12.642C33.8938 12.4812 33.6841 12.4442 33.5217 12.5354L20.8172 19.6719C20.6911 19.7427 20.5339 19.6535 20.5339 19.5111L20.5339 16.8909C20.5339 16.0963 20.9665 15.3621 21.6689 14.9646L29.5863 10.4846Z" fill="#88FFE4"/>
</svg>