<svg xmlns="http://www.w3.org/2000/svg" width="40" height="41" viewBox="0 0 40 41" fill="none">
  <path d="M20 40.5C31.0457 40.5 40 31.5457 40 20.5C40 9.4543 31.0457 0.5 20 0.5C8.9543 0.5 0 9.4543 0 20.5C0 31.5457 8.9543 40.5 20 40.5Z" fill="#34E0A1"/>
  <path d="M32.6748 16.7047L35.1515 14.1865H29.6592C26.9096 12.4313 23.589 11.4091 19.9977 11.4091C16.411 11.4091 13.0996 12.4336 10.3546 14.1865H4.84851L7.32523 16.7047C5.80712 17.9991 4.85541 19.8636 4.85541 21.9338C4.85541 25.8406 8.24488 29.008 12.4255 29.008C14.4114 29.008 16.2208 28.2923 17.5715 27.1221L19.9978 29.5909L22.424 27.1243C23.7748 28.2944 25.5818 29.008 27.5678 29.008C31.7484 29.008 35.1424 25.8406 35.1424 21.9338C35.1446 19.8614 34.193 17.997 32.6748 16.7047ZM12.4277 26.7214C9.59781 26.7214 7.30463 24.5783 7.30463 21.9338C7.30463 19.2892 9.59787 17.1461 12.4277 17.1461C15.2576 17.1461 17.5508 19.2892 17.5508 21.9338C17.5508 24.5783 15.2576 26.7214 12.4277 26.7214ZM20 21.7945C20 18.6441 17.5486 15.9396 14.3128 14.7845C16.0625 14.1008 17.982 13.7215 19.9977 13.7215C22.0135 13.7215 23.9352 14.1008 25.685 14.7845C22.4515 15.9418 20 18.6442 20 21.7945ZM27.5701 26.7214C24.7402 26.7214 22.4469 24.5783 22.4469 21.9338C22.4469 19.2892 24.7402 17.1461 27.5701 17.1461C30.4 17.1461 32.6932 19.2892 32.6932 21.9338C32.6932 24.5783 30.3999 26.7214 27.5701 26.7214ZM27.5701 19.422C26.0863 19.422 24.8846 20.545 24.8846 21.9316C24.8846 23.3182 26.0863 24.4411 27.5701 24.4411C29.0538 24.4411 30.2555 23.3182 30.2555 21.9316C30.2554 20.5472 29.0538 19.422 27.5701 19.422ZM15.1131 21.9338C15.1131 23.3203 13.9114 24.4433 12.4277 24.4433C10.944 24.4433 9.74234 23.3203 9.74234 21.9338C9.74234 20.5472 10.944 19.4242 12.4277 19.4242C13.9114 19.422 15.1131 20.5472 15.1131 21.9338Z" fill="black"/>
</svg>