<?xml version="1.0" standalone="no"?>
<!DOCTYPE svg PUBLIC "-//W3C//DTD SVG 20010904//EN"
 "http://www.w3.org/TR/2001/REC-SVG-20010904/DTD/svg10.dtd">
<svg version="1.0" xmlns="http://www.w3.org/2000/svg"
 width="400.000000pt" height="400.000000pt" viewBox="0 0 400.000000 400.000000"
 preserveAspectRatio="xMidYMid meet">

<g transform="translate(0.000000,400.000000) scale(0.100000,-0.100000)"
fill="#000000" stroke="none">
<path d="M1860 3990 c-402 -29 -782 -175 -1090 -421 -96 -75 -281 -262 -351
-354 -212 -276 -347 -602 -394 -955 -28 -207 -15 -515 31 -710 154 -654 652
-1210 1279 -1427 216 -74 414 -105 679 -106 188 -1 211 1 357 31 200 41 344
88 494 162 230 112 376 221 576 427 255 264 414 552 499 908 99 414 49 909
-131 1293 -133 285 -327 526 -594 738 -376 299 -867 449 -1355 414z m-350
-1550 c32 -129 92 -379 135 -555 42 -176 99 -410 126 -520 27 -110 49 -206 49
-212 0 -10 -60 -13 -265 -13 -204 0 -267 3 -270 13 -2 6 -26 107 -54 222 -53
221 -179 742 -262 1083 -27 112 -49 208 -49 213 0 6 108 8 266 7 l267 -3 57
-235z m787 140 c12 -52 45 -187 73 -300 27 -113 70 -290 95 -395 26 -104 75
-309 111 -455 35 -146 64 -271 64 -277 0 -10 -60 -13 -265 -13 l-264 0 -10 38
c-6 20 -37 150 -71 287 -117 484 -160 663 -225 928 -36 148 -65 272 -65 278 0
6 101 8 267 7 l267 -3 23 -95z m793 96 c0 -10 -261 -1081 -265 -1084 -2 -2 -7
6 -10 19 -3 13 -23 96 -44 184 -22 88 -49 201 -61 250 -12 50 -51 209 -86 354
-35 145 -64 267 -64 272 0 5 117 9 265 9 146 0 265 -2 265 -4z"/>
</g>
</svg>
