<svg width="40" height="40" viewBox="0 0 40 40" fill="none" xmlns="http://www.w3.org/2000/svg">
<g clip-path="url(#clip0_215_471)">
<path d="M18.6 0.100025C14.58 0.390025 10.78 1.85003 7.70004 4.31003C6.74004 5.06003 4.89004 6.93003 4.19004 7.85003C2.07004 10.61 0.720042 13.87 0.250042 17.4C-0.0299581 19.47 0.100042 22.55 0.560042 24.5C2.10004 31.04 7.08004 36.6 13.35 38.77C15.51 39.51 17.49 39.82 20.14 39.83C22.02 39.84 22.25 39.82 23.71 39.52C25.71 39.11 27.15 38.64 28.65 37.9C30.95 36.78 32.41 35.69 34.41 33.63C36.96 30.99 38.55 28.11 39.4 24.55C40.39 20.41 39.89 15.46 38.09 11.62C36.76 8.77003 34.82 6.36003 32.15 4.24003C28.39 1.25003 23.48 -0.249975 18.6 0.100025ZM15.1 15.6C15.42 16.89 16.02 19.39 16.45 21.15C16.87 22.91 17.44 25.25 17.71 26.35C17.98 27.45 18.2 28.41 18.2 28.47C18.2 28.57 17.6 28.6 15.55 28.6C13.51 28.6 12.88 28.57 12.85 28.47C12.83 28.41 12.59 27.4 12.31 26.25C11.78 24.04 10.52 18.83 9.69004 15.42C9.42004 14.3 9.20004 13.34 9.20004 13.29C9.20004 13.23 10.28 13.21 11.86 13.22L14.53 13.25L15.1 15.6ZM22.97 14.2C23.09 14.72 23.42 16.07 23.7 17.2C23.97 18.33 24.4 20.1 24.65 21.15C24.91 22.19 25.4 24.24 25.76 25.7C26.11 27.16 26.4 28.41 26.4 28.47C26.4 28.57 25.8 28.6 23.75 28.6H21.11L21.01 28.22C20.95 28.02 20.64 26.72 20.3 25.35C19.13 20.51 18.7 18.72 18.05 16.07C17.69 14.59 17.4 13.35 17.4 13.29C17.4 13.23 18.41 13.21 20.07 13.22L22.74 13.25L22.97 14.2ZM30.9 13.24C30.9 13.34 28.29 24.05 28.25 24.08C28.23 24.1 28.18 24.02 28.15 23.89C28.12 23.76 27.92 22.93 27.71 22.05C27.49 21.17 27.22 20.04 27.1 19.55C26.98 19.05 26.59 17.46 26.24 16.01C25.89 14.56 25.6 13.34 25.6 13.29C25.6 13.24 26.77 13.2 28.25 13.2C29.71 13.2 30.9 13.22 30.9 13.24Z" fill="black"/>
</g>
<defs>
<clipPath id="clip0_215_471">
<rect width="40" height="40" fill="white"/>
</clipPath>
</defs>
</svg>
