<svg version="1.1" id="Layer_1" xmlns="http://www.w3.org/2000/svg" xmlns:xlink="http://www.w3.org/1999/xlink" x="0px" y="0px"
	 width="100%" viewBox="0 0 512 512" enable-background="new 0 0 512 512" xml:space="preserve">
<path fill="#FFFFFF" opacity="1.000000" stroke="none" 
	d="
M289.000000,513.000000 
	C192.690048,513.000000 96.880096,513.000000 1.070136,513.000000 
	C1.046753,512.856750 1.002881,512.713501 1.002879,512.570251 
	C0.999980,342.111847 1.000000,171.653442 1.000000,1.097524 
	C171.559967,1.097524 342.120026,1.097524 512.840027,1.097524 
	C512.840027,171.666550 512.840027,342.333252 512.840027,513.000000 
	C438.463348,513.000000 363.981659,513.000000 289.000000,513.000000 
M270.500000,37.000000 
	C239.508652,37.000114 208.511246,36.656769 177.529602,37.205151 
	C167.968369,37.374382 158.148438,38.951260 148.970306,41.658127 
	C124.058830,49.005180 103.375351,63.076176 87.029808,83.427055 
	C63.492023,112.732574 55.595650,146.242691 61.228870,182.887405 
	C64.972038,207.237106 75.484444,229.012283 92.546982,246.799728 
	C116.647171,271.923828 141.631424,296.199921 166.563110,321.164307 
	C187.979279,299.730255 209.231339,278.460449 230.638580,257.035339 
	C254.713470,281.142303 278.729187,304.960419 302.428802,329.088989 
	C308.074982,334.837372 310.791840,342.503998 310.921722,350.584625 
	C311.215027,368.832611 297.275482,385.934418 275.225586,385.965942 
	C208.239273,386.061676 141.252731,386.000824 74.266273,386.000946 
	C72.324440,386.000946 70.382607,386.000916 68.387802,386.000916 
	C68.387802,416.647339 68.387802,446.684814 68.387802,476.998840 
	C70.592072,476.998840 72.409584,476.998810 74.227104,476.998810 
	C103.387878,476.998810 132.549301,477.121948 161.709274,476.969360 
	C203.141876,476.752563 244.575806,476.502472 286.004242,475.917542 
	C302.810028,475.680267 318.611084,470.758240 333.503784,463.108734 
	C350.572845,454.341278 364.954773,442.306213 376.552948,426.962006 
	C392.787140,405.484406 401.107880,381.136658 401.801636,354.405060 
	C402.046692,344.962219 400.525024,335.370880 398.909698,326.002594 
	C394.928467,302.912964 384.207275,283.005341 368.340820,265.968567 
	C358.807465,255.731995 348.611908,246.112137 338.714172,236.214905 
	C325.045959,222.547409 311.367218,208.890381 297.722870,195.199127 
	C295.945862,193.416016 294.476227,191.921967 291.993256,194.436111 
	C280.050720,206.528503 267.977966,218.492157 256.013092,230.562637 
	C247.591751,239.058258 239.269257,247.651855 230.768570,256.338715 
	C208.335358,233.881882 186.532715,212.094955 164.791107,190.247330 
	C161.765976,187.207474 158.556122,184.180099 156.264999,180.611923 
	C147.979691,167.708344 148.100418,152.605042 158.369553,140.121399 
	C166.473022,130.270477 177.436386,127.048409 189.567017,127.034843 
	C255.220322,126.961433 320.873779,127.000000 386.527161,126.999977 
	C388.607880,126.999977 390.688568,126.999985 392.683472,126.999985 
	C392.683472,96.596748 392.683472,67.010307 392.683472,37.000000 
	C352.079559,37.000000 311.789764,37.000000 270.500000,37.000000 
z"/>
<path fill="#0052CC" opacity="1.000000" stroke="none" 
	d="
M271.000000,37.000000 
	C311.789764,37.000000 352.079559,37.000000 392.683472,37.000000 
	C392.683472,67.010307 392.683472,96.596748 392.683472,126.999985 
	C390.688568,126.999985 388.607880,126.999977 386.527161,126.999977 
	C320.873779,127.000000 255.220322,126.961433 189.567017,127.034843 
	C177.436386,127.048409 166.473022,130.270477 158.369553,140.121399 
	C148.100418,152.605042 147.979691,167.708344 156.264999,180.611923 
	C158.556122,184.180099 161.765976,187.207474 164.791107,190.247330 
	C186.532715,212.094955 208.335358,233.881882 230.768570,256.338715 
	C239.269257,247.651855 247.591751,239.058258 256.013092,230.562637 
	C267.977966,218.492157 280.050720,206.528503 291.993256,194.436111 
	C294.476227,191.921967 295.945862,193.416016 297.722870,195.199127 
	C311.367218,208.890381 325.045959,222.547409 338.714172,236.214905 
	C348.611908,246.112137 358.807465,255.731995 368.340820,265.968567 
	C384.207275,283.005341 394.928467,302.912964 398.909698,326.002594 
	C400.525024,335.370880 402.046692,344.962219 401.801636,354.405060 
	C401.107880,381.136658 392.787140,405.484406 376.552948,426.962006 
	C364.954773,442.306213 350.572845,454.341278 333.503784,463.108734 
	C318.611084,470.758240 302.810028,475.680267 286.004242,475.917542 
	C244.575806,476.502472 203.141876,476.752563 161.709274,476.969360 
	C132.549301,477.121948 103.387878,476.998810 74.227104,476.998810 
	C72.409584,476.998810 70.592072,476.998840 68.387802,476.998840 
	C68.387802,446.684814 68.387802,416.647339 68.387802,386.000916 
	C70.382607,386.000916 72.324440,386.000946 74.266273,386.000946 
	C141.252731,386.000824 208.239273,386.061676 275.225586,385.965942 
	C297.275482,385.934418 311.215027,368.832611 310.921722,350.584625 
	C310.791840,342.503998 308.074982,334.837372 302.428802,329.088989 
	C278.729187,304.960419 254.713470,281.142303 230.638580,257.035339 
	C209.231339,278.460449 187.979279,299.730255 166.563110,321.164307 
	C141.631424,296.199921 116.647171,271.923828 92.546982,246.799728 
	C75.484444,229.012283 64.972038,207.237106 61.228870,182.887405 
	C55.595650,146.242691 63.492023,112.732574 87.029808,83.427055 
	C103.375351,63.076176 124.058830,49.005180 148.970306,41.658127 
	C158.148438,38.951260 167.968369,37.374382 177.529602,37.205151 
	C208.511246,36.656769 239.508652,37.000114 271.000000,37.000000 
z"/>
</svg>