<svg width="123" height="33" viewBox="0 0 123 33" fill="none" xmlns="http://www.w3.org/2000/svg">
  <path d="M14.7886 13.0354C13.0716 5.50827 9.53645 3.49783 8.61299 2.08378C8.22825 1.4697 7.89215 0.826442 7.60777 0.159912C7.62488 0.462139 7.56916 0.764049 7.44528 1.04025C7.32141 1.31646 7.13301 1.55887 6.89593 1.7471C5.75604 2.75232 0.927122 6.7107 0.537539 15.2383C0.147955 23.1839 6.37649 28.1138 7.21819 28.6332C7.51495 28.7467 7.83653 28.7794 8.15005 28.7278C8.46356 28.6763 8.75777 28.5424 9.00257 28.3398C11.9846 26.3005 16.1065 20.7838 14.7742 13.0354" fill="#10AA50"/>
  <path d="M7.8822 24.3864C7.71867 26.3631 7.62247 27.4982 7.19922 28.6333C7.32908 29.9223 7.483 31.2113 7.65614 32.4811H8.30064C8.44958 31.0835 8.68896 29.697 9.01727 28.3303C8.17077 27.9215 7.91587 26.1034 7.8822 24.3864Z" fill="#B8C4C2"/>
  <path d="M9.01735 28.34C8.17085 27.9505 7.91594 26.1035 7.88228 24.3865C8.10049 21.5592 8.16471 18.7221 8.07466 15.8878C8.0458 14.3968 8.10833 2.10324 7.71875 0.318848C7.88228 0.674764 8.27186 1.48761 8.62777 2.10325C9.5368 3.54615 13.0719 5.50849 14.789 13.0356C16.0876 20.784 12.033 26.2671 9.01735 28.34Z" fill="#12924F"/>
  <path d="M121.068 21.9191H121.025C120.785 21.9222 120.548 21.9726 120.327 22.0674C120.107 22.1621 119.907 22.2994 119.74 22.4713C119.572 22.6433 119.44 22.8466 119.351 23.0695C119.262 23.2925 119.218 23.5308 119.221 23.7708V23.8141C119.253 24.2892 119.467 24.7337 119.818 25.0553C120.17 25.3769 120.631 25.5507 121.107 25.5408C121.584 25.5309 122.037 25.338 122.375 25.0021C122.713 24.6662 122.908 24.2132 122.92 23.7372C122.912 23.2515 122.714 22.7884 122.367 22.4481C122.021 22.1078 121.554 21.9178 121.068 21.9191ZM121.068 25.4542C120.734 25.4542 120.408 25.3551 120.13 25.1693C119.852 24.9836 119.636 24.7197 119.508 24.4109C119.38 24.1022 119.347 23.7625 119.413 23.4349C119.478 23.1073 119.64 22.8065 119.876 22.5706C120.113 22.3347 120.414 22.1742 120.742 22.1097C121.07 22.0451 121.409 22.0792 121.718 22.2077C122.026 22.3362 122.289 22.5533 122.474 22.8316C122.659 23.1098 122.757 23.4367 122.756 23.7708C122.758 23.9927 122.715 24.2125 122.63 24.4177C122.546 24.6228 122.422 24.8091 122.265 24.9657C122.108 25.1223 121.921 25.2462 121.715 25.3301C121.51 25.4139 121.29 25.4561 121.068 25.4542Z" fill="#21313C"/>
  <path d="M121.3 23.867C121.439 23.8411 121.564 23.763 121.648 23.6487C121.732 23.5343 121.769 23.3922 121.752 23.2514C121.752 22.8281 121.559 22.6021 121.04 22.6021H120.357V24.9347H120.65V23.9007H121.04L121.521 24.9347H121.781L121.3 23.867ZM120.684 23.6698V22.8618H121.04C121.396 22.8618 121.521 22.958 121.521 23.2514C121.521 23.5448 121.391 23.6698 121.04 23.6698H120.684Z" fill="#21313C"/>
  <path d="M101.441 12.5161C100.176 11.4099 98.4252 10.8616 96.3185 10.8616C93.8175 10.8616 92.8796 10.9241 91.5473 10.9241C90.8355 10.9241 89.2772 10.8616 88.8876 10.8616C88.7577 11.0203 88.4066 11.6407 88.5028 11.7706C89.0848 11.8668 89.508 11.9293 89.8303 11.9966C90.4459 12.1554 90.7922 12.3526 90.8355 13.0644L90.8692 18.0905C90.8692 20.0384 90.9028 21.7892 90.8355 23.2513C90.773 24.0257 90.672 24.2565 90.2535 24.4152C89.9438 24.526 89.6199 24.5924 89.2916 24.6124C89.0992 24.6461 88.8395 25.3579 88.9357 25.5503C91.0135 25.584 93.4424 25.6177 94.8708 25.6177C97.5306 25.6177 99.4112 25.002 100.868 23.9295C102.326 22.8569 103.754 21.0773 103.754 17.8981C103.791 16.8857 103.603 15.8778 103.202 14.9471C102.802 14.0164 102.201 13.1861 101.441 12.5161ZM99.3342 23.2802C98.8805 23.6934 98.3493 24.0125 97.7714 24.2189C97.1934 24.4253 96.5803 24.5149 95.9674 24.4826C95.0921 24.4826 94.0869 24.319 93.6011 23.9295C93.3124 23.6679 93.128 23.311 93.0816 22.9242L93.0479 17.9558C93.0479 16.032 93.048 12.8287 93.0816 12.4103C93.1177 12.2788 93.1974 12.1635 93.3077 12.0832C93.6885 11.9814 94.0825 11.9376 94.4764 11.9534C95.8546 11.8839 97.225 12.1987 98.4348 12.8624C100.282 13.9638 101.191 15.9117 101.191 18.2781C101.191 20.7214 100.412 22.2846 99.3102 23.2802H99.3342Z" fill="#21313C"/>
  <path d="M114.16 17.345C114.098 17.3161 114.098 17.2824 114.16 17.2488C114.775 17.0272 115.31 16.6293 115.699 16.1048C116.089 15.5804 116.315 14.9527 116.349 14.3004C116.349 11.5733 113.819 10.9336 112.02 10.9336L107.807 10.9673C106.186 10.9673 105.565 10.9048 105.339 10.9048C105.21 11.001 104.858 11.7128 104.984 11.8427C105.464 11.9389 106.056 12.0062 106.426 12.0687C106.879 12.1649 107.105 12.3958 107.138 13.0307V18.1193C107.138 19.971 107.138 22.5971 107.105 23.309C107.042 24.1507 106.975 24.3478 106.393 24.4777C106.042 24.5623 105.685 24.617 105.325 24.6413C105.195 24.7711 104.844 25.5166 105.032 25.6032C106.619 25.5695 109.476 25.6994 110.544 25.6994C111.871 25.7472 113.194 25.528 114.435 25.0549C116.253 24.242 117.518 22.9771 117.518 20.9666C117.518 18.9562 115.911 17.8019 114.16 17.345ZM109.351 12.4487C109.358 12.3713 109.382 12.2964 109.421 12.2291C109.46 12.1619 109.513 12.1039 109.577 12.0591C109.904 12.0302 110.293 12.0302 110.452 11.9966C112.564 11.9966 113.987 12.7758 113.987 14.8151C114.018 15.2346 113.931 15.6543 113.736 16.0272C113.542 16.4001 113.247 16.7115 112.886 16.9265C112.337 17.1282 111.753 17.2165 111.169 17.1862C110.519 17.1862 109.774 17.1862 109.447 17.1526C109.384 17.1526 109.317 17.0564 109.317 17.0227C109.327 15.498 109.327 13.2952 109.36 12.4487H109.351ZM111.881 24.5787C111.263 24.6179 110.644 24.5294 110.063 24.319C109.873 24.1911 109.714 24.0231 109.597 23.8269C109.48 23.6308 109.407 23.4113 109.384 23.1839L109.351 18.3742C109.351 18.3117 109.418 18.278 109.481 18.2444C109.88 18.2028 110.282 18.1916 110.683 18.2107C113.473 18.2107 115.012 19.3795 115.012 21.4572C115.002 23.6408 113.545 24.5451 111.89 24.5787H111.881Z" fill="#21313C"/>
  <path d="M20.0406 25.6177C19.979 25.4654 19.9575 25.2998 19.9781 25.1368C19.9706 25.0242 19.9921 24.9116 20.0406 24.8097C20.3476 24.7661 20.6513 24.7018 20.9496 24.6173C21.3729 24.5211 21.5364 24.2903 21.5653 23.742C21.6326 22.477 21.6326 20.1107 21.5989 18.4225V18.3551C21.6156 18.2468 21.6034 18.1361 21.5637 18.0339C21.5241 17.9318 21.4583 17.8419 21.3729 17.7732C20.9811 17.527 20.5547 17.3405 20.1079 17.2201C19.9156 17.1575 19.7857 17.0613 19.8146 16.9315C19.8434 16.8016 19.9444 16.6717 20.2041 16.6044C21.3059 16.4582 22.3851 16.1754 23.417 15.7627C23.4781 15.8592 23.5114 15.9707 23.5132 16.085C23.5185 16.1634 23.507 16.2421 23.4795 16.3158C23.455 16.5732 23.4453 16.8317 23.4507 17.0902C23.4582 17.13 23.4773 17.1667 23.5055 17.1958C23.5337 17.2249 23.5698 17.245 23.6094 17.2537C23.6578 17.2458 23.7029 17.2241 23.7393 17.1912C25.1004 16.1186 26.3028 15.7483 26.9184 15.7483C27.4217 15.7505 27.9147 15.8906 28.3438 16.1535C28.7729 16.4164 29.1216 16.792 29.3521 17.2393C29.3645 17.2623 29.3835 17.281 29.4067 17.293C29.4299 17.305 29.4561 17.3097 29.482 17.3066C29.5073 17.3056 29.532 17.299 29.5544 17.2873C29.5768 17.2757 29.5964 17.2593 29.6119 17.2393C30.8431 16.3014 32.0744 15.7483 32.9209 15.7483C34.8448 15.7483 36.0328 17.1912 36.0328 19.6393V23.968C36.0504 24.0751 36.0956 24.1758 36.1639 24.2601C36.2322 24.3444 36.3213 24.4095 36.4224 24.449C36.8098 24.5898 37.2113 24.6882 37.62 24.7424H37.6537C37.6743 25.0182 37.6298 25.295 37.5238 25.5504C37.3502 25.5528 37.1766 25.5431 37.0043 25.5215C36.6148 25.4879 36.0424 25.4542 35.4172 25.4542C34.1185 25.4542 33.4356 25.4879 32.7911 25.5215C32.7234 25.2662 32.7234 24.9977 32.7911 24.7424C33.0538 24.6961 33.3126 24.6302 33.5654 24.5452C33.9887 24.4153 34.0849 24.2229 34.1185 23.6698C34.1185 23.2802 34.2147 19.875 34.0849 19.0333C34.0245 18.5156 33.7701 18.0401 33.3729 17.7026C32.9756 17.3652 32.4652 17.191 31.9446 17.2152C31.1652 17.2627 30.4187 17.5462 29.8043 18.0281C29.7417 18.0617 29.7417 18.1579 29.7417 18.2205C29.8317 18.7897 29.864 19.3666 29.8379 19.9423V23.7901C29.8273 23.9379 29.87 24.0847 29.9582 24.2038C30.0464 24.3229 30.1744 24.4064 30.3189 24.4394C30.4247 24.4751 30.5346 24.4977 30.6459 24.5067C30.8383 24.5356 31.0307 24.6029 31.3241 24.6366C31.3587 24.829 31.3587 25.0261 31.3241 25.2185C31.2904 25.3484 31.2616 25.4109 31.2279 25.4109C30.5161 25.3821 29.785 25.3821 28.698 25.3821C28.371 25.3821 27.8563 25.3821 27.3657 25.4109C26.981 25.4109 26.6203 25.4446 26.4279 25.4446C26.3705 25.313 26.3473 25.1691 26.3605 25.0262C26.3533 24.8929 26.3763 24.7597 26.4279 24.6366C26.5241 24.6029 26.6202 24.6029 26.7212 24.5692C26.981 24.5356 27.1734 24.473 27.3994 24.4394C27.7553 24.3432 27.8804 24.146 27.9189 23.6939C27.9862 22.655 28.0487 19.6393 27.8852 18.8842C27.6255 17.6866 26.9473 17.0661 25.8459 17.0661C25.0672 17.1236 24.322 17.406 23.7008 17.879C23.5816 18.0114 23.5134 18.1819 23.5084 18.3599V19.5912L23.5421 23.8093C23.539 23.9711 23.5973 24.128 23.7053 24.2485C23.8133 24.3689 23.9629 24.4441 24.124 24.4586C24.2824 24.4998 24.443 24.5319 24.605 24.5548C24.7349 24.5885 24.8647 24.5885 24.9946 24.6221C25.0374 24.8927 25.016 25.1695 24.932 25.4302C24.6831 25.4338 24.4342 25.4225 24.1866 25.3965C23.7296 25.3676 23.1813 25.3676 22.5609 25.3676C21.8154 25.3676 21.2959 25.3965 20.8775 25.3965C20.6201 25.5422 20.3262 25.6107 20.031 25.5937" fill="#21313C"/>
  <path d="M44.7243 15.854C43.5848 15.8706 42.4725 16.2037 41.5114 16.8159C40.8529 17.247 40.3164 17.8401 39.9534 18.5384C39.5903 19.2367 39.413 20.0166 39.4384 20.8031C39.4384 23.2368 40.7034 25.8629 44.2722 25.8629C45.2918 25.8147 46.2834 25.5139 47.158 24.9876C48.6009 24.0256 49.3608 22.5539 49.3608 20.6589C49.3608 17.8019 47.4465 15.854 44.7243 15.854ZM46.3788 24.2854C45.9829 24.6383 45.4659 24.8245 44.9359 24.8048C42.9591 24.8048 41.5691 22.881 41.5691 20.1346C41.5691 18.6436 41.9924 17.6384 42.8004 17.1526C43.1347 16.9268 43.5324 16.8139 43.9355 16.8304C45.9507 16.8304 47.2782 18.6436 47.3407 21.3707C47.3167 22.7944 46.9944 23.7996 46.3788 24.2854Z" fill="#21313C"/>
  <path d="M81.1139 15.854C79.9744 15.8699 78.8618 16.203 77.901 16.8159C77.2426 17.247 76.7061 17.8401 76.343 18.5384C75.98 19.2367 75.8027 20.0166 75.8281 20.8031C75.8281 23.2368 77.093 25.8629 80.6378 25.8629C81.6556 25.8046 82.6448 25.5045 83.5236 24.9876C84.9665 24.0256 85.7264 22.5539 85.7264 20.6589C85.7505 17.8019 83.8362 15.854 81.1139 15.854ZM82.7348 24.2854C82.3392 24.6388 81.8219 24.825 81.2919 24.8048C79.3103 24.8048 77.9251 22.881 77.9251 20.1346C77.9251 18.6436 78.3483 17.6384 79.1612 17.1526C79.4949 16.9256 79.8931 16.8125 80.2963 16.8304C82.3067 16.8304 83.6342 18.6436 83.7015 21.3707C83.6775 22.7944 83.3504 23.7996 82.7348 24.2854Z" fill="#21313C"/>
  <path d="M72.3894 17.7682C72.5684 17.8259 72.7545 17.8583 72.9425 17.8644H73.0387C73.2093 17.8689 73.3789 17.8364 73.5359 17.7691C73.6928 17.7019 73.8333 17.6015 73.9477 17.4748C74.1302 17.1881 74.2208 16.8525 74.2074 16.5129C74.225 16.3683 74.2017 16.2216 74.1401 16.0896C73.9556 16.2829 73.7304 16.4329 73.4809 16.5285C73.2313 16.6242 72.9637 16.6632 72.6972 16.6427C72.2314 16.6584 71.7671 16.5816 71.3312 16.4167C70.6045 16.1 69.8245 15.9237 69.0322 15.8972H68.9649C67.8893 15.9639 66.8497 16.3104 65.9492 16.9024C65.5217 17.1922 65.1732 17.5842 64.9355 18.0428C64.6978 18.5014 64.5784 19.0121 64.5881 19.5285C64.5881 21.1494 65.3336 22.2556 66.7909 22.7414C66.8246 22.7414 66.8583 22.7751 66.8583 22.8376C66.8634 22.8836 66.8514 22.9298 66.8246 22.9674C66.5379 23.2097 66.223 23.4164 65.8867 23.5831C65.685 23.6914 65.4892 23.8102 65.2999 23.939C65.2325 23.9749 65.1814 24.0354 65.1572 24.1079C65.1331 24.1804 65.1377 24.2594 65.1701 24.3286V24.3959C65.2721 24.7111 65.4493 24.9967 65.6865 25.228C65.9236 25.4593 66.2136 25.6293 66.5312 25.7234C66.5649 25.7234 66.5985 25.757 66.5985 25.8196C66.5985 25.8821 66.5649 25.9206 66.5312 25.9206C65.8382 26.3709 65.1935 26.8915 64.6073 27.4741C64.3433 27.77 64.1933 28.1502 64.1841 28.5467C64.2021 28.9523 64.3103 29.3489 64.5008 29.7075C64.6913 30.0661 64.9594 30.3777 65.2855 30.6196C66.1452 31.2576 67.2042 31.568 68.2723 31.495C69.2059 31.4789 70.1287 31.2914 70.9946 30.9419C72.8415 30.0665 73.9477 28.6044 73.9477 27.0508C73.9639 26.5557 73.8215 26.0684 73.5411 25.66C73.2608 25.2516 72.8572 24.9435 72.3894 24.7807C71.2817 24.5409 70.1551 24.3993 69.0226 24.3574C68.8254 24.3574 68.633 24.3238 68.4358 24.3238C67.5268 24.2612 67.3344 23.8717 67.3344 23.5783C67.3344 23.2849 67.7577 22.9963 67.9164 22.9626H67.95C68.0471 22.9456 68.1451 22.9344 68.2434 22.929C68.34 22.9086 68.4382 22.8973 68.5368 22.8953C69.4297 22.8039 70.2809 22.4714 70.9994 21.9334C71.7449 21.3803 72.4423 20.6011 72.4423 18.884C72.4423 18.7205 72.3413 18.1722 72.3124 17.975V17.9558C72.3124 17.8884 72.2788 17.8259 72.3124 17.7922L72.3894 17.7682ZM68.1088 26.0072C69.1179 25.9626 70.127 26.0945 71.0908 26.3967C71.4458 26.4896 71.7585 26.7009 71.9772 26.9956C72.1958 27.2903 72.3073 27.6509 72.2932 28.0176C72.2932 29.1527 71.3312 30.2878 69.2102 30.2878C68.3002 30.3445 67.4007 30.0675 66.6803 29.5086C66.4429 29.3329 66.2512 29.1026 66.1215 28.8372C65.9918 28.5719 65.9277 28.2792 65.9348 27.9839C65.9348 27.3346 66.3244 26.7863 67.1997 26.2332C67.48 26.0854 67.7919 26.0078 68.1088 26.0072ZM69.8595 21.4668C69.5538 21.7329 69.1633 21.8813 68.7581 21.8853C67.0362 21.8853 66.4206 20.2981 66.4206 18.9369C66.4206 17.5758 67.1372 16.7293 68.2386 16.7293C69.6815 16.7293 70.5425 17.7682 70.5088 19.5189C70.5469 20.227 70.3148 20.9232 69.8595 21.4668Z" fill="#21313C"/>
  <path d="M62.789 24.8047C62.3171 24.7718 61.8554 24.6511 61.4278 24.4488C61.3421 24.3603 61.2851 24.248 61.2643 24.1265C61.2306 23.4099 61.2306 21.2696 61.2306 19.9084C61.2881 18.9211 61.0522 17.9387 60.5525 17.0852C60.2861 16.6865 59.9234 16.3615 59.498 16.1404C59.0725 15.9192 58.5981 15.8091 58.1188 15.8202C57.1568 15.8202 55.9448 16.4695 54.9396 17.316C54.9059 17.3449 54.7472 17.4748 54.776 17.2487C54.8049 17.0226 54.8097 16.5369 54.8434 16.2435C54.8569 16.1647 54.8488 16.0838 54.82 16.0093C54.7912 15.9348 54.7428 15.8694 54.6799 15.8202C53.6358 16.2273 52.5479 16.5114 51.4381 16.6667C50.9187 16.7629 50.7888 17.2487 51.3419 17.4122C51.7775 17.53 52.1927 17.7132 52.5732 17.9557C52.7993 18.1144 52.7656 18.3405 52.7656 18.5377C52.7993 20.1249 52.7993 22.5249 52.7367 23.8572C52.7031 24.3766 52.5732 24.569 52.1836 24.6652H52.2173C51.93 24.7416 51.6374 24.7963 51.3419 24.8287C51.2749 24.9802 51.2402 25.144 51.2402 25.3097C51.2402 25.4754 51.2749 25.6392 51.3419 25.7907C51.568 25.7907 52.7848 25.7234 53.7708 25.7234C55.1656 25.7234 55.8823 25.7907 56.2045 25.7907C56.3532 25.4926 56.3874 25.1503 56.3007 24.8287C55.9774 24.808 55.656 24.7646 55.3388 24.6989C54.9492 24.6027 54.8578 24.4055 54.8578 23.987C54.8241 22.8808 54.8241 20.5145 54.8241 18.9273C54.8072 18.7863 54.8218 18.6433 54.8667 18.5086C54.9116 18.3739 54.9857 18.2508 55.0839 18.1481C55.635 17.6991 56.321 17.4484 57.0318 17.4363C57.5534 17.4283 58.0622 17.5979 58.4747 17.9172C58.8557 18.2624 59.0984 18.7341 59.1577 19.2447C59.2539 20.1537 59.2202 21.9381 59.2202 23.4628C59.2202 24.3045 59.1577 24.5305 58.8306 24.6315C58.5171 24.7274 58.1949 24.7919 57.8687 24.8239C57.7507 25.1337 57.7507 25.4761 57.8687 25.7859C58.4843 25.7859 59.1961 25.7185 60.235 25.7185C61.5336 25.7185 62.3753 25.7859 62.7024 25.7859C62.8393 25.4845 62.8731 25.1464 62.7986 24.8239" fill="#21313C"/>
</svg>
