<svg xmlns="http://www.w3.org/2000/svg" width="40" height="40" viewBox="0 0 40 40" fill="none">
  <path d="M15.5353 34C12.3203 32.7382 9.52203 30.37 7.77012 27.087C3.86354 19.7663 6.63925 10.669 13.9698 6.76776C21.109 2.96827 29.9355 5.49818 34 12.3951C32.075 16.8514 29.0033 21.5601 24.9459 25.9429C21.9526 29.1764 18.7401 31.8895 15.5353 34Z" fill="black"/>
  <path d="M4.70296 37.6479C3.01012 36.403 4.64359 32.2712 6.75724 29.4669L7.41138 30.3702C6.62573 32.1842 5.25615 35.8724 10.8801 31.6194C16.504 27.3664 25.9285 15.5143 29.9746 8.36567C33.2114 2.64676 29.7107 4.00506 27.611 5.31972L26.6902 4.83547C28.8236 2.81373 32.5402 0.378786 34.3188 1.1442C38.1772 2.80459 35.304 13.6028 26.6276 24.0734C17.9511 34.544 7.09135 39.4044 4.70296 37.6479Z" fill="black"/>
  <path d="M35.9113 19C36.5622 24.7042 33.6018 30.4745 27.9782 33.338C26.065 34.3122 24.0315 34.8544 22 35C23.9576 31.513 26.5969 27.9351 29.8377 24.533C31.7948 22.4786 33.8391 20.6268 35.9113 19Z" fill="black"/>
</svg>