<?xml version="1.0" standalone="no"?>
<!DOCTYPE svg PUBLIC "-//W3C//DTD SVG 20010904//EN"
 "http://www.w3.org/TR/2001/REC-SVG-20010904/DTD/svg10.dtd">
<svg version="1.0" xmlns="http://www.w3.org/2000/svg"
 width="3900.000000pt" height="2517.000000pt" viewBox="0 0 3900.000000 2517.000000"
 preserveAspectRatio="xMidYMid meet">

<g transform="translate(0.000000,2517.000000) scale(0.100000,-0.100000)"
fill="#000000" stroke="none">
<path d="M33235 16790 c-516 -68 -879 -421 -1089 -1059 -93 -284 -153 -600
-192 -1016 -22 -235 -32 -1587 -14 -1845 32 -456 122 -870 287 -1323 30 -82
289 -719 575 -1415 286 -697 560 -1368 609 -1492 148 -370 218 -596 268 -865
48 -256 53 -330 58 -966 9 -1079 -23 -1499 -132 -1724 -43 -90 -90 -143 -156
-180 -70 -38 -197 -47 -278 -20 -144 48 -233 215 -276 518 -28 197 -35 449
-35 1220 l0 777 -507 -2 -508 -3 -3 -520 c-3 -551 11 -1314 28 -1530 83 -1037
344 -1553 878 -1728 322 -106 707 -97 996 23 188 79 399 260 528 455 268 403
421 1011 468 1855 13 241 13 1599 0 1805 -36 557 -133 1002 -335 1535 -52 139
-829 2014 -1108 2675 -225 534 -307 810 -352 1185 -36 292 -29 1449 10 1778
37 313 113 482 247 554 61 33 214 33 274 1 85 -45 152 -151 188 -293 53 -217
66 -470 66 -1342 l0 -688 496 0 496 0 -5 838 c-5 860 -10 977 -52 1304 -113
865 -397 1319 -910 1456 -148 39 -362 52 -520 32z"/>
<path d="M37256 16784 c-183 -28 -380 -110 -517 -214 -176 -132 -350 -367
-454 -610 -180 -421 -268 -899 -296 -1617 -13 -339 -6 -1426 10 -1583 44 -422
142 -839 289 -1235 32 -88 282 -702 554 -1365 607 -1476 635 -1545 693 -1700
131 -349 198 -616 237 -945 18 -154 19 -1667 0 -1875 -40 -451 -116 -653 -276
-738 -46 -24 -61 -27 -156 -27 -98 0 -109 2 -159 30 -164 91 -236 322 -261
838 -5 111 -10 529 -10 930 l0 727 -506 0 -506 0 5 -932 c4 -920 8 -1024 43
-1343 54 -494 161 -856 331 -1112 91 -139 271 -293 416 -357 203 -89 485 -131
726 -107 319 32 537 136 749 355 360 374 553 985 622 1976 17 241 24 1380 11
1695 -31 723 -131 1190 -401 1864 -47 117 -514 1241 -1111 2673 -147 352 -234
645 -281 943 -20 131 -22 182 -26 805 -5 844 9 1094 74 1324 62 223 172 326
344 326 204 0 306 -154 356 -540 14 -104 17 -264 21 -967 l5 -843 495 0 495 0
-5 868 c-4 880 -6 926 -48 1262 -119 955 -456 1423 -1079 1500 -113 13 -275
11 -384 -6z"/>
<path d="M7495 16708 c-2 -7 -3 -2945 -2 -6528 l2 -6515 1383 -3 1382 -2 0
515 0 515 -800 0 -800 0 0 2755 0 2755 800 0 800 0 0 510 0 510 -800 0 -800 0
0 2235 0 2235 800 0 800 0 0 515 0 515 -1380 0 c-1096 0 -1382 -3 -1385 -12z"/>
<path d="M11893 16713 l-183 -3 0 -995 c0 -547 2 -995 5 -995 3 0 169 118 368
263 199 145 431 312 515 372 83 60 152 112 152 117 0 7 -287 1058 -326 1196
l-15 52 -167 -2 c-92 -2 -249 -4 -349 -5z"/>
<path d="M18520 10191 l0 -6531 550 0 550 0 0 2784 0 2783 303 6 c308 6 386
13 562 48 726 145 1114 622 1249 1532 47 316 48 347 53 1987 4 1627 0 1920
-37 2238 -46 406 -143 737 -284 976 -245 413 -611 614 -1251 687 -63 7 -399
13 -897 16 l-798 5 0 -6531z m1572 5181 c120 -32 185 -69 264 -147 158 -155
227 -407 254 -920 13 -250 13 -2404 0 -2650 -38 -708 -169 -983 -515 -1080
-44 -13 -116 -19 -267 -22 l-208 -5 0 2427 0 2428 198 -6 c155 -4 213 -9 274
-25z"/>
<path d="M23060 12415 l0 -4305 68 34 c80 40 438 230 760 403 l232 125 0 509
0 509 148 0 c286 0 472 -28 599 -90 112 -55 205 -159 258 -288 13 -31 29 -56
36 -54 15 4 357 206 524 310 230 143 395 254 395 267 0 7 -21 41 -47 76 -167
229 -426 375 -767 434 -49 8 -91 17 -93 18 -1 2 27 9 65 16 100 18 292 85 390
136 385 200 598 585 677 1224 33 270 36 470 33 1851 -4 1338 -5 1369 -26 1545
-56 449 -152 762 -309 998 -67 102 -221 254 -325 321 -182 118 -391 190 -668
230 -186 27 -479 36 -1222 36 l-728 0 0 -4305z m1476 2975 c320 -40 490 -185
582 -495 33 -112 58 -250 68 -370 3 -44 8 -96 11 -115 11 -78 15 -1984 4
-2232 -24 -566 -89 -815 -256 -984 -142 -144 -314 -193 -677 -194 l-148 0 0
2200 0 2200 168 0 c92 0 204 -5 248 -10z"/>
<path d="M28393 16713 l-503 -3 0 -2600 c0 -1430 3 -2600 7 -2600 22 0 833
428 1076 567 l77 45 0 1784 0 1784 803 2 802 3 0 510 0 510 -880 0 c-484 0
-1106 -1 -1382 -2z"/>
<path d="M16257 16663 c-8 -27 -443 -1599 -968 -3495 -524 -1897 -956 -3442
-960 -3435 -4 6 -312 1126 -684 2487 -373 1361 -682 2479 -686 2484 -9 10
-470 -354 -1157 -914 l-92 -75 0 -5023 0 -5022 533 2 532 3 2 4075 c2 2241 4
4081 5 4089 3 12 395 -1400 904 -3249 67 -245 178 -647 247 -895 l124 -450
271 -3 c251 -2 272 -1 280 15 5 10 121 423 257 918 253 919 377 1369 787 2851
l233 841 3 -4098 2 -4099 533 2 532 3 3 6518 2 6517 -344 0 -345 0 -14 -47z"/>
<path d="M28890 11493 c-202 -205 -478 -513 -883 -984 l-117 -137 0 -3351 0
-3351 1385 0 1385 0 -2 513 -3 512 -802 3 -803 2 0 2750 0 2750 805 0 805 0 0
510 0 510 -805 0 -805 0 -2 216 -3 215 -155 -158z"/>
<path d="M26005 9724 c-124 -81 -640 -403 -753 -470 -79 -47 -83 -50 -78 -79
2 -16 12 -70 20 -120 40 -225 39 -204 45 -2830 l6 -2560 565 0 565 0 0 2435
c0 2571 0 2585 -46 2935 -35 269 -104 527 -183 684 -20 39 -37 71 -39 71 -1 0
-47 -30 -102 -66z"/>
<path d="M24015 8533 c-55 -32 -291 -164 -525 -294 l-425 -237 -3 -2171 -2
-2171 530 0 530 0 0 2465 c0 1356 -1 2465 -2 2465 -2 0 -48 -26 -103 -57z"/>
<path d="M20010 2446 c0 -9 -9 -25 -20 -36 -20 -20 -33 -20 -695 -20 -593 0
-675 -2 -675 -15 0 -9 9 -15 23 -15 49 0 47 18 45 -546 l-3 -529 -32 -10 c-18
-5 -33 -15 -33 -22 0 -10 57 -13 275 -13 218 0 275 3 275 13 0 7 -15 17 -32
22 l-33 10 -3 193 -2 192 302 -2 303 -3 13 -27 c7 -16 20 -28 28 -28 12 0 14
30 14 185 0 170 -1 185 -18 185 -9 0 -22 -10 -27 -22 l-10 -23 -302 -3 -303
-2 0 95 0 95 445 0 445 0 12 -25 c7 -15 18 -24 27 -23 14 3 16 28 16 193 0
173 -2 190 -17 193 -11 2 -18 -3 -18 -12z"/>
<path d="M20660 2260 c0 -165 2 -200 14 -200 8 0 19 14 25 30 l10 30 241 0
240 0 -2 -417 -3 -418 -35 -11 c-19 -6 -36 -16 -38 -23 -3 -8 71 -11 272 -11
239 0 276 2 276 15 0 8 -9 15 -19 15 -54 0 -51 -21 -51 431 l0 419 236 0 236
0 11 -30 c7 -18 19 -30 29 -30 17 0 18 13 16 197 -2 148 -6 197 -16 201 -7 2
-17 -9 -23 -26 -6 -17 -20 -33 -32 -36 -39 -10 -1307 -7 -1327 4 -10 5 -21 21
-24 35 -4 14 -13 25 -21 25 -13 0 -15 -30 -15 -200z"/>
<path d="M30984 2435 c-3 -14 -14 -30 -24 -35 -12 -6 -268 -10 -674 -10 -576
0 -656 -2 -656 -15 0 -8 9 -15 19 -15 54 0 51 31 51 -539 0 -397 -3 -530 -12
-539 -7 -7 -22 -12 -35 -12 -14 0 -23 -6 -23 -15 0 -13 80 -15 663 -15 364 0
667 -4 673 -8 6 -4 13 -15 17 -25 3 -9 13 -17 22 -17 13 0 15 27 15 195 0 162
-2 195 -14 195 -8 0 -20 -16 -26 -35 l-12 -35 -434 0 -434 0 0 100 0 100 260
0 261 0 25 -25 c50 -51 54 -41 54 145 0 156 -1 170 -18 170 -9 0 -23 -9 -30
-20 -12 -19 -23 -20 -282 -20 l-270 0 0 85 0 85 436 0 435 0 10 -30 c6 -16 17
-30 25 -30 12 0 14 34 14 195 0 166 -2 195 -15 195 -8 0 -17 -11 -21 -25z"/>
<path d="M14690 2404 c-221 -26 -392 -100 -463 -200 -42 -60 -55 -98 -56 -164
-1 -97 43 -161 148 -215 105 -53 236 -78 545 -105 261 -23 329 -33 363 -55 43
-28 20 -96 -44 -132 -153 -85 -593 -58 -795 49 -57 30 -63 36 -66 68 -7 74
-25 53 -124 -143 -53 -106 -97 -195 -97 -199 -1 -13 29 -9 54 8 22 14 32 13
137 -15 402 -108 863 -100 1111 18 130 62 205 159 215 277 7 88 -11 144 -66
205 -100 111 -249 153 -648 184 -114 9 -230 20 -256 25 -134 26 -154 92 -43
142 47 22 62 23 260 22 172 0 228 -4 311 -22 126 -26 204 -57 204 -83 0 -10 9
-23 20 -29 17 -9 28 4 109 142 62 105 86 155 78 160 -6 4 -22 1 -34 -7 -31
-21 -76 -19 -206 9 -215 47 -528 75 -657 60z"/>
<path d="M16960 2399 c-97 -11 -237 -51 -325 -93 -259 -123 -381 -357 -320
-615 48 -202 229 -360 490 -426 307 -78 666 -36 883 105 107 69 185 162 225
268 18 48 22 78 21 182 0 146 -16 200 -89 299 -155 211 -509 323 -885 280z
m305 -281 c113 -24 204 -86 250 -169 26 -47 30 -64 30 -134 0 -63 -5 -89 -23
-122 -65 -123 -210 -193 -400 -193 -196 0 -343 72 -404 198 -30 64 -31 168 -2
232 75 161 307 241 549 188z"/>
<path d="M37398 2399 c-282 -35 -531 -163 -637 -327 -93 -146 -99 -344 -13
-492 138 -239 520 -382 932 -350 159 12 262 31 424 76 88 24 140 34 162 30 18
-4 35 -2 38 3 5 8 -241 332 -262 345 -4 3 -14 1 -22 -4 -11 -7 -11 -11 -1 -24
7 -8 10 -20 6 -26 -25 -41 -242 -98 -410 -107 -296 -16 -515 108 -515 291 0
64 35 142 81 181 48 40 144 83 225 100 152 32 438 11 552 -40 46 -21 52 -27
52 -54 0 -20 5 -31 14 -31 8 0 66 80 130 177 112 173 125 206 71 181 -17 -8
-54 -3 -151 20 -71 17 -164 35 -207 41 -113 16 -379 21 -469 10z"/>
<path d="M22690 2379 c0 -7 6 -17 13 -23 19 -16 429 -1054 422 -1067 -4 -6
-18 -14 -31 -19 -64 -25 -16 -30 266 -30 288 0 334 6 259 32 -28 10 -30 14
-25 43 4 18 62 180 130 361 68 181 128 343 134 359 7 21 11 26 15 15 22 -55
218 -626 231 -672 22 -78 21 -96 -9 -104 -14 -3 -25 -12 -25 -20 0 -12 47 -14
275 -14 232 0 275 2 275 14 0 8 -10 16 -22 18 -18 2 -23 9 -22 33 1 17 92 251
203 522 110 271 201 497 201 502 0 6 9 16 20 23 11 7 20 18 20 25 0 10 -50 13
-220 13 -181 0 -220 -2 -220 -14 0 -8 11 -17 25 -20 16 -4 25 -13 25 -27 0
-11 -53 -156 -119 -322 -65 -166 -122 -313 -126 -326 -5 -17 -33 55 -116 305
-60 181 -109 337 -109 347 0 11 9 21 20 24 11 3 20 12 20 19 0 12 -53 14 -315
14 -267 0 -315 -2 -315 -14 0 -8 10 -16 23 -18 14 -2 23 -11 25 -25 3 -18 -53
-178 -211 -605 -11 -32 -24 -58 -27 -58 -10 0 -251 629 -253 658 -2 19 4 27
22 32 14 3 26 11 29 18 3 9 -53 12 -242 12 -177 0 -246 -3 -246 -11z"/>
<path d="M25840 2380 c0 -6 11 -15 25 -20 14 -5 25 -14 25 -19 0 -9 -175 -396
-369 -815 -101 -219 -122 -256 -148 -256 -7 0 -13 -7 -13 -15 0 -13 33 -15
235 -15 230 0 273 6 210 30 -14 5 -25 13 -25 17 0 5 19 52 42 106 l41 97 309
0 309 0 45 -97 c46 -100 49 -123 14 -123 -11 0 -20 -7 -20 -15 0 -13 36 -15
260 -15 203 0 260 3 260 13 0 7 -10 17 -22 22 -25 11 -35 31 -342 662 -102
210 -186 391 -186 402 0 14 6 21 20 21 11 0 20 7 20 15 0 13 -45 15 -345 15
-229 0 -345 -3 -345 -10z m448 -457 l121 -248 -120 -3 c-65 -1 -172 -1 -237 0
l-118 3 110 247 c61 136 114 248 117 248 3 0 60 -111 127 -247z"/>
<path d="M27540 2375 c0 -9 9 -15 23 -15 49 0 47 18 45 -546 l-3 -529 -32 -10
c-18 -5 -33 -15 -33 -22 0 -10 56 -13 270 -13 214 0 270 3 270 13 0 7 -15 17
-32 22 l-33 10 -3 193 -2 192 127 0 128 0 125 -142 c180 -204 195 -225 180
-243 -7 -8 -21 -15 -31 -15 -11 0 -19 -7 -19 -15 0 -13 37 -15 275 -15 238 0
275 2 275 15 0 8 -8 15 -17 15 -10 0 -25 6 -34 13 -22 16 -330 379 -326 383 1
2 36 14 76 28 232 79 330 233 276 439 -35 133 -131 208 -311 242 -115 22
-1194 22 -1194 0z m1034 -249 c67 -28 96 -103 60 -155 -9 -13 -35 -32 -58 -42
-37 -17 -69 -19 -303 -19 l-263 0 0 115 0 115 265 0 c203 0 273 -3 299 -14z"/>
<path d="M33062 2378 c3 -7 16 -14 31 -16 14 -2 30 -9 36 -16 8 -9 10 -172 9
-537 l-3 -524 -35 -11 c-19 -6 -36 -16 -38 -23 -3 -8 71 -11 272 -11 239 0
276 2 276 15 0 8 -9 15 -19 15 -54 0 -51 -31 -51 545 0 576 -3 545 51 545 10
0 19 7 19 15 0 13 -37 15 -276 15 -216 0 -275 -3 -272 -12z"/>
<path d="M34392 2378 c3 -7 16 -14 31 -16 14 -2 30 -9 36 -16 8 -9 10 -172 9
-537 l-3 -524 -35 -11 c-19 -6 -36 -16 -38 -23 -3 -8 66 -11 253 -11 187 0
256 3 253 11 -2 7 -19 17 -38 23 l-35 11 -3 348 c-1 202 2 347 7 345 5 -1 105
-91 222 -199 118 -108 284 -259 369 -335 85 -77 155 -147 155 -155 0 -8 -12
-15 -27 -17 -16 -2 -28 -9 -28 -18 0 -12 40 -14 250 -14 216 0 250 2 250 15 0
9 -9 15 -23 15 -13 0 -28 5 -35 12 -9 9 -12 142 -12 539 0 570 -3 539 51 539
10 0 19 7 19 15 0 13 -33 15 -240 15 -201 0 -240 -2 -240 -14 0 -8 10 -16 23
-18 l22 -3 3 -305 2 -304 -37 35 c-21 20 -137 126 -258 236 -315 288 -338 309
-333 324 3 8 19 15 36 17 20 2 32 9 32 18 0 12 -49 14 -321 14 -252 0 -320 -3
-317 -12z"/>
<path d="M38785 1466 c-109 -49 -108 -175 2 -222 96 -41 213 19 213 109 0 90
-122 154 -215 113z"/>
</g>
</svg>
