<svg xmlns="http://www.w3.org/2000/svg" width="40" height="21" viewBox="0 0 40 21" fill="none">
  <path fill-rule="evenodd" clip-rule="evenodd" d="M0 21H19.988L39.5441 0.0257339H0V21Z" fill="url(#paint0_linear_146_444)"/>
  <path fill-rule="evenodd" clip-rule="evenodd" d="M23.4673 4.19485H19.5561L19.5801 14.0515L16.1728 4.19485H12.7894L9.88602 12.4301C9.57408 10.3456 7.55849 9.625 5.9748 9.08456C4.91901 8.72427 3.81524 8.18383 3.81524 7.59191C3.81524 7.10294 4.41512 6.66544 5.56689 6.71691C6.35873 6.76838 7.03059 6.81985 8.42231 7.54044L9.76605 5.01838C8.5183 4.32353 6.79064 3.91177 5.35093 3.91177C3.69526 3.91177 2.30354 4.47794 1.46371 5.43015C0.863826 6.09927 0.551889 6.9228 0.527893 7.875C0.503898 9.16177 0.935812 10.0625 1.87162 10.7831C2.63947 11.4007 3.64727 11.7868 4.5111 12.0699C5.59088 12.4301 6.4787 12.739 6.45471 13.4081C6.45471 13.6397 6.35873 13.8713 6.19076 14.0515C5.92681 14.3603 5.5189 14.4632 4.94301 14.4632C3.83923 14.489 3.02339 14.3088 1.72765 13.4853L0.527893 16.0331C1.82363 16.8309 3.21536 17.2169 4.77504 17.2169H5.13497C6.5027 17.1912 7.60648 16.8309 8.4943 16.0846C8.54229 16.0331 8.59028 16.0074 8.63827 15.9559L8.4943 16.7794H11.7816L12.3815 15.1581C13.0054 15.3897 13.7013 15.5184 14.4691 15.5184C15.189 15.5184 15.8848 15.3897 16.5087 15.1838L16.9166 16.7794H22.8194L22.8434 13.0735H24.0912C27.1386 13.0735 28.9382 11.4265 28.9382 8.62133C28.9142 5.55882 27.1866 4.19485 23.4673 4.19485ZM14.4691 12.636C14.0132 12.636 13.5813 12.5588 13.2214 12.4044L14.4451 8.2353H14.4691L15.6929 12.4301C15.3089 12.5331 14.901 12.636 14.4691 12.636ZM23.6833 10.2169H22.8194V6.84559H23.6833C24.835 6.84559 25.7469 7.25735 25.7469 8.51838C25.7469 9.83088 24.835 10.2169 23.6833 10.2169Z" fill="white"/>
  <defs>
    <linearGradient id="paint0_linear_146_444" x1="19.772" y1="0.0257339" x2="19.772" y2="21" gradientUnits="userSpaceOnUse">
      <stop stop-color="#00AEEF"/>
      <stop offset="0.212" stop-color="#0097DC"/>
      <stop offset="0.519" stop-color="#007CC5"/>
      <stop offset="0.792" stop-color="#006CB8"/>
      <stop offset="1" stop-color="#0066B3"/>
    </linearGradient>
  </defs>
</svg>