<?xml version="1.0" encoding="utf-8"?><!-- Uploaded to: SVG Repo, www.svgrepo.com, Generator: SVG Repo Mixer Tools -->
<svg fill="#000000" width="800px" height="800px" viewBox="0 0 32 32" xmlns="http://www.w3.org/2000/svg">
  <path d="M3.563 31.959c-0.469-0.12-0.713-0.313-1.964-1.557-1.484-1.484-1.577-1.631-1.572-2.401 0-0.86-0.267-0.552 4.489-5.317 4.796-4.808 4.552-4.6 5.416-4.6 0.407 0 0.505 0.021 0.828 0.188l0.371 0.188 2.323-2.323-0.292-0.459c-0.563-0.885-1.099-2.172-1.339-3.24-0.677-3.016 0.052-6.172 1.975-8.588 3.317-4.156 9.276-5.084 13.676-2.115 2.417 1.625 3.991 4.129 4.439 7.083 0.093 0.625 0.093 2.104 0 2.767-0.297 2.228-1.333 4.296-2.939 5.869-0.744 0.771-1.624 1.407-2.593 1.869-1.276 0.641-2.364 0.943-3.839 1.068-2.099 0.177-4.427-0.407-6.208-1.547l-0.459-0.292-2.328 2.323 0.188 0.376c0.167 0.323 0.187 0.421 0.187 0.823 0.005 0.864 0.209 0.62-4.567 5.396-3.683 3.676-4.251 4.219-4.532 4.348-0.359 0.167-0.916 0.229-1.26 0.141zM23.312 18.599c2.672-0.495 4.953-2.235 6.141-4.677 1.853-3.869 0.604-8.411-2.975-10.812-0.848-0.573-2.036-1.057-3.156-1.281-0.771-0.156-2.411-0.14-3.219 0.032-1.172 0.244-2.287 0.728-3.265 1.421-0.593 0.416-1.573 1.396-1.984 1.979-2.292 3.209-2.084 7.573 0.505 10.543 1.337 1.541 3.187 2.552 5.203 2.848 0.677 0.104 2.057 0.079 2.755-0.047zM18.328 28.432c-0.979-0.271-1.953-0.563-2.927-0.864-0.032-0.037 1.609-5.865 1.677-5.932 0.031-0.037 5.656 1.536 5.885 1.645 0.083 0.036-0.005 0.385-0.704 2.801-0.281 0.996-0.563 1.991-0.844 2.985-0.036 0.115-0.093 0.208-0.129 0.208-0.036-0.005-1.369-0.385-2.959-0.844zM22.213 29.136c0-0.073 1.636-5.781 1.661-5.797 0.063-0.047 5.765-1.641 5.787-1.615 0.027 0.025-1.599 5.781-1.64 5.812-0.027 0.027-5.5 1.589-5.677 1.625-0.073 0.016-0.131 0-0.131-0.025zM12.74 26.584c1.124-1.136 2.129-2.168 2.229-2.303 0.228-0.292 0.541-0.975 0.629-1.355 0.037-0.156 0.073-0.468 0.079-0.692l0.016-0.412 0.239-0.068c0.141-0.036 0.261-0.057 0.271-0.047 0.032 0.037-1.609 5.761-1.661 5.813-0.025 0.020-0.901 0.285-1.953 0.583l-1.895 0.541 2.047-2.057zM23.792 22.505c-0.032-0.084-0.057-0.167-0.079-0.251l-0.063-0.208 0.209-0.036c1.785-0.303 3.703-1.141 5.213-2.281 0.213-0.167 0.333-0.229 0.353-0.183 0.068 0.219 0.36 1.265 0.355 1.281-0.047 0.041-5.975 1.708-5.989 1.683zM3.683 20.771c-0.068-0.052-1.573-5.151-1.688-5.719-0.021-0.115 0.193-0.057 2.901 0.713 2.823 0.808 2.921 0.839 2.959 0.989 0.041 0.131 0.015 0.172-0.167 0.297-0.109 0.079-1.027 0.964-2.032 1.969-0.604 0.619-1.224 1.224-1.849 1.823-0.020 0-0.077-0.032-0.124-0.073zM4.776 14.932c-1.583-0.453-2.885-0.828-2.891-0.833-0.021-0.016 1.683-5.911 1.713-5.948 0.032-0.025 5.896 1.615 5.959 1.672 0.011 0.011-0.36 1.355-0.823 2.984-0.771 2.693-0.86 2.964-0.964 2.959-0.068 0-1.411-0.38-3-0.833zM8.719 15.651c0.016-0.041 0.287-0.963 0.593-2.047l0.557-1.964 0.079 0.428c0.125 0.739 0.355 1.583 0.62 2.317 0.14 0.396 0.244 0.719 0.239 0.729-0.009 0.011-0.443 0.136-0.957 0.281-0.521 0.145-0.989 0.281-1.047 0.301-0.079 0.021-0.105 0.005-0.084-0.047zM6.541 8.151c-1.583-0.453-2.891-0.848-2.905-0.875-0.057-0.083-1.663-5.76-1.641-5.781 0.032-0.036 5.745 1.604 5.803 1.661 0.063 0.068 1.703 5.839 1.661 5.833l-2.912-0.839zM9.407 5.864l-0.693-2.405-0.104-0.376 2.255-0.645c1.245-0.349 2.297-0.656 2.349-0.677 0.041-0.020-0.115 0.188-0.349 0.448-1.233 1.36-2.129 2.995-2.609 4.765-0.077 0.245-0.135 0.496-0.176 0.745 0 0.396-0.157-0.031-0.672-1.849z"/>
</svg>