<svg id="Layer_1" data-name="Layer 1" xmlns="http://www.w3.org/2000/svg" viewBox="0 0 96 96"><defs><style>.cls-1{fill:#fff;}</style></defs><title>MindsDBPolarBear</title><path class="cls-1" d="M80,46.63a2,2,0,0,1-.25.32c-3.81,3.21-3.81,3.21-8.55,1.67-2.71-.88-5.45-1.7-8.13-2.64a2.57,2.57,0,0,0-2.4.24c-2.78,1.74-5.57,3.47-8.37,5.16a2.38,2.38,0,0,0-1.18,1.9c-.57,3.84-1.24,7.66-1.82,11.5-.13.91-.54,1.16-1.44,1.2-5.47.21-5.47.24-5.41-5.25,0-2.19,0-4.38.1-6.56,0-1-.29-1.4-1.34-1.42-5.05-.13-10.09-.28-15.13-.52-1.13,0-1.3.55-1.49,1.35C23.72,57.3,22.79,61,22,64.74c-.21,1-.61,1.21-1.55,1.2-4.79,0-4.79,0-4.75-4.88s.11-9.61.12-14.41a4.59,4.59,0,0,1,.82-2.72c3-4.33,6.05-8.67,9-13.06A2.23,2.23,0,0,1,28,29.75c7.19.8,14.38,1.55,21.56,2.33,2.6.28,5.19.73,7.79.85a8,8,0,0,1,4.18,1.52c5.61,3.73,11.26,7.41,16.88,11.11C79,45.89,79.44,46.25,80,46.63Z"/><path class="cls-1" d="M61.25,48.42c.71,5.92,1.34,11.41,2,16.88.12,1,0,1.27-1,1.31-4,.18-4,.21-5.42-3.45a14.3,14.3,0,0,0-1-2.53c-1.87-2.94-1.17-5.29,1.31-7.52A51.23,51.23,0,0,0,61.25,48.42Z"/><path class="cls-1" d="M35.24,53.47c.78,4,1.48,7.73,2.23,11.43.2,1-.22,1-.95.88-.42-.09-.83-.19-1.25-.24-4-.47-4-.48-5-4.34A2.38,2.38,0,0,1,31,58.67C32.41,57.09,33.7,55.36,35.24,53.47Z"/></svg>