<svg xmlns="http://www.w3.org/2000/svg" width="40" height="40" viewBox="0 0 40 40" fill="none">
  <path d="M34.3313 28.4355C33.3389 30.1496 31.7151 31.4125 29.8207 31.9538C30.0913 31.0066 30.2266 30.0594 30.2266 29.067C30.2266 24.2407 26.8888 20.1811 22.4233 19.0535C23.3705 18.1514 24.4982 17.4748 25.7611 17.1591C27.7007 16.6178 29.8207 16.8884 31.5347 17.9258C35.1883 20.0909 36.4512 24.782 34.3313 28.4355ZM19.9876 36.7802C18.0029 36.7802 16.1085 35.9682 14.7102 34.6151C15.6574 34.3895 16.5595 34.0287 17.3714 33.5325C21.5212 31.0968 23.3705 26.1802 22.0624 21.7147C25.265 22.6169 27.6105 25.5939 27.6105 29.067C27.6105 33.3521 24.1824 36.7802 19.9876 36.7802ZM5.64387 28.4355C4.65154 26.7215 4.38091 24.6466 4.87707 22.7522C5.55366 23.4288 6.32046 24.0603 7.13237 24.5564C8.66597 25.4585 10.4251 25.9547 12.2293 25.9547C15.0259 25.9547 17.6872 24.8271 19.6267 22.7973C20.4386 26.0449 19.0403 29.5632 16.0634 31.2772C14.8906 31.9538 13.5825 32.3146 12.2744 32.3146C9.52298 32.2695 6.99705 30.8262 5.64387 28.4355ZM5.64387 11.7914C6.6362 10.0774 8.26002 8.81444 10.1545 8.27317C9.88383 9.2204 9.74852 10.1676 9.74852 11.16C9.74852 15.9863 13.0864 20.0458 17.5518 21.1735C15.1612 23.4739 11.4625 24.0603 8.44044 22.3011C6.68131 21.2637 5.41834 19.6399 4.87707 17.6552C4.3358 15.6705 4.60643 13.5506 5.64387 11.7914ZM19.9876 3.44683C21.9722 3.44683 23.8667 4.25874 25.265 5.61192C24.3177 5.83745 23.4156 6.1983 22.6037 6.69446C20.2131 8.09275 18.5442 10.3029 17.8225 12.9642C17.3263 14.7684 17.3714 16.708 17.8676 18.5122C14.6651 17.6101 12.3196 14.6331 12.3196 11.16C12.3647 6.91999 15.7927 3.44683 19.9876 3.44683ZM34.3313 11.7914C35.3236 13.5506 35.5942 15.5803 35.0981 17.4748C34.4215 16.7531 33.6547 16.1667 32.8428 15.6705C30.4522 14.2723 27.7007 13.9114 25.0394 14.6331C23.2352 15.1293 21.5663 16.1216 20.3033 17.4748C19.9876 16.2118 19.9876 14.9037 20.3484 13.6408C20.8897 11.6561 22.1527 9.9872 23.9118 8.99487C25.6709 7.95743 27.7458 7.68679 29.6854 8.22806C31.67 8.76934 33.2938 10.0323 34.3313 11.7914ZM36.6317 10.4834C35.2785 8.09275 33.0683 6.37873 30.407 5.65703C29.7756 5.47661 29.1441 5.38639 28.5126 5.34129C26.6181 2.54472 23.4156 0.830688 20.0327 0.830688C16.5144 0.830688 13.4021 2.63493 11.5528 5.34129C8.16981 5.61192 5.1026 7.50637 3.38857 10.4834C2.03539 12.874 1.67455 15.6255 2.35114 18.2867C2.53156 18.9182 2.75709 19.5046 3.02773 20.0909C1.53923 23.1581 1.67455 26.7666 3.38857 29.7436C5.14771 32.8108 8.26002 34.6151 11.5076 34.8857C13.4021 37.6823 16.6046 39.3963 19.9876 39.3963C23.5058 39.3963 26.6181 37.5921 28.4675 34.8857C31.8504 34.6151 34.9176 32.7206 36.6317 29.7436C38.3908 26.6764 38.3908 23.0679 36.9925 20.0909C38.4359 17.0688 38.3006 13.4153 36.6317 10.4834Z" fill="#0092FF"/>
</svg>