<?xml version="1.0" encoding="utf-8"?><!-- Uploaded to: SVG Repo, www.svgrepo.com, Generator: SVG Repo Mixer Tools -->
<svg width="800px" height="800px" viewBox="0 0 32 32" xmlns="http://www.w3.org/2000/svg">
  <path d="M31.5183304,11.687513 C31.5439304,11.687513 31.5823304,11.687513 31.5951304,11.649113 C31.6079304,11.636313 31.6079304,11.623513 31.6079304,11.610713 C31.6079304,11.5852522 31.5951304,11.559513 31.5695304,11.546713 C31.5439304,11.533913 31.5183304,11.533913 31.4799304,11.533913 L31.4543304,11.533913 L31.4543304,11.6745739 L31.5183304,11.6745739 M31.4799304,11.4700522 C31.5439304,11.4700522 31.5823304,11.4700522 31.6079304,11.4828522 C31.6973913,11.5084522 31.6973913,11.597913 31.6973913,11.623513 C31.6973913,11.636313 31.6973913,11.649113 31.6973913,11.6617739 C31.6973913,11.687513 31.6845913,11.7257739 31.6333913,11.7513739 C31.6333913,11.7513739 31.6205913,11.7641739 31.6079304,11.7641739 L31.7229913,11.9686957 L31.6079304,11.9686957 L31.5183304,11.7768348 L31.4543304,11.7768348 L31.4543304,11.9686957 L31.3522087,11.9686957 L31.3522087,11.4700522 L31.4799304,11.4700522 M31.5183304,12.1733565 C31.7612522,12.1733565 31.965913,11.9814957 31.965913,11.7257739 C31.965913,11.4700522 31.7740522,11.2781913 31.5183304,11.2781913 C31.2754087,11.2781913 31.0707478,11.4828522 31.0707478,11.7257739 C31.0707478,11.9686957 31.2754087,12.1733565 31.5183304,12.1733565 M31.1731478,11.7257739 C31.1731478,11.533913 31.3264696,11.3805913 31.5311304,11.3805913 C31.7229913,11.3805913 31.876313,11.533913 31.876313,11.7257739 C31.876313,11.9176348 31.7229913,12.0710957 31.5311304,12.0710957 C31.3264696,12.0838957 31.1731478,11.9176348 31.1731478,11.7257739 M28.066087,14.577113 C27.4778435,14.577113 26.9792,14.1807304 26.8258783,13.643687 L30.0862609,13.643687 L30.5338435,12.9405217 L26.8258783,12.9405217 C26.9792,12.4034783 27.4778435,12.0070957 28.066087,12.0070957 L30.3037217,12.0070957 L30.7511652,11.3037913 L28.014887,11.3037913 C26.9152,11.3037913 26.0329739,12.1989565 26.0329739,13.2857043 C26.0329739,14.3853913 26.928,15.2676174 28.014887,15.2676174 L30.3677217,15.2676174 L30.8150261,14.5644522 L28.066087,14.5644522 M18.7319652,15.2676174 L21.0974609,15.2676174 L21.5449043,14.5644522 L18.7959652,14.5644522 C18.0798609,14.5644522 17.5044174,13.9890087 17.5044174,13.2857043 C17.5044174,12.5697391 18.0798609,12.0070957 18.7959652,12.0070957 L21.0336,12.0070957 L21.4811826,11.3037913 L18.7449043,11.3037913 C17.6450783,11.3037913 16.7501913,12.1989565 16.7501913,13.2857043 C16.7501913,14.3853913 17.6450783,15.2676174 18.7319652,15.2676174 M4.2450087,14.577113 L2.03297391,14.577113 C1.3298087,14.577113 0.754365217,14.0018087 0.754365217,13.2985043 C0.754365217,12.5825391 1.3298087,12.0198957 2.03297391,12.0198957 L4.2322087,12.0198957 C4.94817391,12.0198957 5.52361739,12.5952 5.52361739,13.2985043 C5.52361739,14.0018087 4.94817391,14.577113 4.2450087,14.577113 M1.98177391,15.2676174 L4.2834087,15.2676174 C5.38295652,15.2676174 6.26518261,14.3853913 6.26518261,13.2857043 C6.26518261,12.1861565 5.38295652,11.3037913 4.2834087,11.3037913 L1.98177391,11.3037913 C0.895026087,11.3037913 0,12.1989565 0,13.2857043 C0,14.3853913 0.895026087,15.2676174 1.98177391,15.2676174 M10.024487,13.9890087 C10.7660522,13.9890087 11.3669565,13.3881043 11.3669565,12.6464 C11.3669565,11.9046957 10.7660522,11.3037913 10.024487,11.3037913 L6.68716522,11.3037913 L6.68716522,15.2676174 L7.45446957,15.2676174 L7.45446957,12.0070957 L9.97342609,12.0070957 C10.3314087,12.0070957 10.6125913,12.2884174 10.6125913,12.6464 C10.6125913,13.0045217 10.3314087,13.2857043 9.97342609,13.2857043 L7.82511304,13.2857043 L10.101287,15.2676174 L11.2136348,15.2676174 L9.67916522,13.9762087 L10.024487,13.9762087 M22.6445913,14.577113 L22.6445913,11.3037913 L21.8774261,11.3037913 L21.8774261,14.8968348 C21.8774261,14.9990957 21.9159652,15.0885565 21.992487,15.1653565 C22.0691478,15.2421565 22.1714087,15.2804174 22.2738087,15.2804174 L25.7517913,15.2804174 L26.1992348,14.577113 L22.6445913,14.577113 M13.3106087,13.8739478 L15.3435826,13.8739478 L14.2696348,12.1349565 L12.2875826,15.2676174 L11.3797565,15.2676174 L13.7836522,11.5084522 C13.885913,11.3549913 14.0649739,11.2655304 14.2568348,11.2655304 C14.4485565,11.2655304 14.6148174,11.3549913 14.7170783,11.5084522 L17.1336348,15.2804174 L16.2387478,15.2804174 L15.8167652,14.577113 L13.7581913,14.577113 L13.3106087,13.8739478"/>
  <polyline points=".371 17.659 1.381 17.659 2.608 20.229 2.608 17.659 3.261 17.659 3.261 20.932 2.301 20.932 1.036 18.208 1.036 20.919 .371 20.919 .371 17.659"/>
  <polyline points="4.002 17.659 6.189 17.659 6.189 18.196 4.705 18.196 4.705 18.976 6.099 18.976 6.099 19.513 4.705 19.513 4.705 20.395 6.24 20.395 6.24 20.932 4.002 20.932 4.002 17.659"/>
  <polyline points="7.595 18.196 6.623 18.196 6.623 17.659 9.283 17.659 9.283 18.196 8.311 18.196 8.311 20.932 7.608 20.932 7.608 18.196 7.595 18.196"/>
  <path fill="#1A1919" d="M10.1267478,19.9730087 C10.1395478,20.2031304 10.1651478,20.625113 10.9193739,20.625113 C11.5970783,20.625113 11.6866783,20.2031304 11.6866783,20.0370087 C11.6866783,19.6662261 11.3926957,19.6022261 10.932313,19.4871652 C10.4335304,19.3593043 10.2163478,19.3081043 10.0499478,19.1930435 C9.78156522,19.0139826 9.70476522,18.7710609 9.70476522,18.5537391 C9.70476522,17.8888348 10.3314087,17.5948522 10.945113,17.5948522 C11.1624348,17.5948522 11.5970783,17.633113 11.8657391,17.9144348 C12.0446609,18.1190957 12.0574609,18.3364174 12.0702609,18.4770783 L11.5970783,18.4770783 C11.5716174,18.0677565 11.2262957,17.9782957 10.906713,17.9782957 C10.4592696,17.9782957 10.1778087,18.1829565 10.1778087,18.5025391 C10.1778087,18.7966609 10.3696696,18.8861217 10.7660522,18.9885217 C11.5460174,19.1930435 11.6356174,19.2058435 11.8273391,19.3337043 C12.1342609,19.5383652 12.1470609,19.8451478 12.1470609,19.9858087 C12.1470609,20.561113 11.6994783,21.0086957 10.855513,21.0086957 C10.6125913,21.0086957 10.101287,20.9704348 9.84556522,20.637913 C9.65370435,20.3949913 9.65370435,20.1392696 9.65370435,19.9730087 L10.1267478,19.9730087"/>
  <path d="M13.3234087,17.658713 L13.3234087,19.678887 C13.3234087,20.0242087 13.4000696,20.1775304 13.4639304,20.2671304 C13.6685913,20.5356522 13.9881739,20.586713 14.2056348,20.586713 C15.0878609,20.586713 15.0878609,19.8963478 15.0878609,19.6534261 L15.0878609,17.658713 L15.5225043,17.658713 L15.5225043,19.678887 C15.5225043,19.8579478 15.5225043,20.2159304 15.2541217,20.548313 C14.9344,20.9576348 14.4357565,20.9958957 14.1928348,20.9958957 C13.885913,20.9958957 13.3362087,20.9064348 13.042087,20.4717913 C12.9398261,20.3309913 12.8502261,20.1392696 12.8502261,19.6534261 L12.8502261,17.658713 L13.3234087,17.658713"/>
  <polygon points="16.469 20.932 16.916 20.932 16.916 17.659 16.469 17.659"/>
  <polyline points="18.681 20.932 18.681 18.042 17.581 18.042 17.581 17.659 20.215 17.659 20.215 18.042 19.116 18.042 19.116 20.932 18.681 20.932"/>
  <polyline points="20.765 17.659 22.811 17.659 22.811 18.042 21.213 18.042 21.213 19.065 22.734 19.065 22.734 19.449 21.213 19.449 21.213 20.536 22.849 20.536 22.849 20.932 20.765 20.932 20.765 17.659"/>
</svg>