<svg xmlns="http://www.w3.org/2000/svg" width="40" height="40" viewBox="0 0 40 40" fill="none">
  <path d="M30.6852 7.07838L19.9782 0.483461C19.9178 0.440357 19.8316 0.457599 19.7885 0.526565C19.754 0.57829 19.7626 0.638636 19.7971 0.69036L23.2368 4.86283C22.2713 4.91456 21.3144 5.02663 20.3575 5.19904C19.3316 5.3887 18.323 5.64733 17.3402 5.97492C16.366 6.30251 15.4091 6.70769 14.4953 7.17321C13.5815 7.64735 12.7022 8.18184 11.866 8.79392C10.9694 9.4491 10.1332 10.1819 9.36595 10.9922C8.62456 11.7767 7.96076 12.6388 7.38316 13.5526C6.81419 14.4664 6.34005 15.4319 5.97797 16.4406C5.59866 17.4665 5.34003 18.5354 5.2021 19.613L4.9952 21.2424C4.98658 21.32 5.0383 21.3889 5.11589 21.3975C5.15037 21.3975 5.17624 21.3975 5.2021 21.3803L12.0039 17.2509C12.0298 17.2337 12.0556 17.2078 12.0643 17.1734L12.1505 16.8975C12.6419 15.3888 13.4177 13.9923 14.4264 12.7681C15.4436 11.544 16.6505 10.5008 18.004 9.66462C19.4006 8.80254 20.9178 8.13874 22.5041 7.7077C24.1679 7.2508 25.892 7.03528 27.6162 7.05252C27.8662 7.05252 28.1162 7.06114 28.3576 7.07838C28.599 7.09562 28.8576 7.10424 29.099 7.13011C29.3404 7.15597 29.599 7.18183 29.8404 7.20769C30.0818 7.23356 30.3318 7.27666 30.5731 7.31114C30.6421 7.32838 30.7197 7.28528 30.7369 7.20769C30.7628 7.17321 30.7369 7.11286 30.6852 7.07838Z" fill="#FE9807"/>
  <path d="M34.9776 15.7933L34.8914 14.2329C34.8914 14.1554 34.8225 14.1036 34.7449 14.1036C34.719 14.1036 34.6932 14.1123 34.6759 14.1295L28.5379 18.1899C28.512 18.2071 28.4862 18.2416 28.4776 18.2761L28.4172 18.5606C28.0724 20.1813 27.4172 21.7072 26.4689 23.0693C25.4689 24.509 24.2275 25.7676 22.7964 26.7762C21.2619 27.8711 19.5636 28.7073 17.7705 29.2676C15.8653 29.8625 13.8825 30.1556 11.8825 30.1211C11.598 30.1211 11.3135 30.1039 11.029 30.0866C10.7446 30.0694 10.4601 30.0435 10.1842 30.0177C9.90833 29.9918 9.62385 29.9487 9.34798 29.9142C9.07211 29.8797 8.79625 29.828 8.52038 29.7677C8.45142 29.7504 8.37383 29.8021 8.35659 29.8711C8.34797 29.9228 8.36521 29.9746 8.40831 30.0004L19.7361 39.2764C19.7619 39.2936 19.7878 39.3109 19.8223 39.3109C19.8999 39.3109 19.9602 39.2505 19.9602 39.173C19.9602 39.1471 19.9516 39.1299 19.943 39.1126L16.7619 33.0349C17.9343 32.966 19.1067 32.8108 20.2619 32.5608C21.4516 32.3022 22.624 31.9487 23.7534 31.4918C24.8568 31.0522 25.9258 30.5177 26.9344 29.8883C27.9258 29.2763 28.8569 28.578 29.719 27.8021C30.6241 26.9918 31.4345 26.0779 32.15 25.0952C32.8224 24.1727 33.3828 23.1727 33.8397 22.1296C34.2707 21.121 34.5897 20.0692 34.7794 19.0003C34.9776 17.9399 35.038 16.8709 34.9776 15.7933Z" fill="#FE9807"/>
  <path d="M27.288 18.5517L21.9689 16.0948L27.2621 7.86189C27.3052 7.79292 27.288 7.70671 27.219 7.67223C27.1759 7.64637 27.1156 7.64637 27.0725 7.67223L13.7274 15.9741C13.6585 16.0172 13.6412 16.1034 13.6843 16.1637C13.7016 16.1896 13.7188 16.2068 13.7447 16.2155L18.943 18.7241L11.1584 29.2415C11.1153 29.2932 11.124 29.3708 11.1671 29.4225C11.2102 29.4743 11.2877 29.4829 11.3481 29.4398L27.3138 18.7931C27.3828 18.75 27.4 18.6638 27.3569 18.5948C27.3311 18.5776 27.3052 18.5603 27.288 18.5517Z" fill="#505D66"/>
</svg>