<svg xmlns="http://www.w3.org/2000/svg" width="40" height="40" viewBox="0 0 40 40" fill="none">
  <g clip-path="url(#clip0_155_1207)">
    <path d="M2.4068 1.72507L24.54 0.0902667C27.2588 -0.142933 27.9572 0.0142667 29.6668 1.25707L36.732 6.23427C37.8972 7.09027 38.2852 7.32347 38.2852 8.25547V35.5527C38.2852 37.2635 37.664 38.2755 35.4892 38.4299L9.7868 39.9867C8.1548 40.0639 7.3776 39.8307 6.5228 38.7415L1.32 31.9759C0.3868 30.7307 0 29.7987 0 28.7091V4.44507C0 3.04627 0.6212 1.87987 2.4068 1.72507Z" fill="white"/>
    <path fill-rule="evenodd" clip-rule="evenodd" d="M24.54 0.0906667L2.4068 1.72547C0.6212 1.87987 0 3.04667 0 4.44507V28.7091C0 29.7983 0.3868 30.7303 1.32 31.9759L6.5228 38.7411C7.3776 39.8303 8.1548 40.0639 9.7868 39.9863L35.4896 38.4303C37.6628 38.2755 38.2856 37.2635 38.2856 35.5531V8.25587C38.2856 7.37187 37.9364 7.11707 36.9084 6.36267L29.6668 1.25707C27.9576 0.0142667 27.2588 -0.142933 24.54 0.0902667V0.0906667ZM10.368 7.80907C8.2692 7.95027 7.7932 7.98227 6.6012 7.01307L3.5708 4.60267C3.2628 4.29067 3.4176 3.90147 4.1936 3.82387L25.4708 2.26907C27.2576 2.11307 28.188 2.73587 28.8868 3.27987L32.536 5.92387C32.692 6.00267 33.08 6.46787 32.6132 6.46787L10.64 7.79067L10.368 7.80907ZM7.9212 35.3199V12.1467C7.9212 11.1347 8.232 10.6679 9.1624 10.5895L34.4 9.11187C35.256 9.03467 35.6428 9.57867 35.6428 10.5891V33.6079C35.6428 34.6199 35.4868 35.4759 34.0896 35.5531L9.9388 36.9531C8.5416 37.0303 7.9216 36.5651 7.9216 35.3199H7.9212ZM31.7612 13.3891C31.916 14.0891 31.7612 14.7891 31.0612 14.8691L29.8972 15.0999V32.2091C28.8864 32.7531 27.956 33.0639 27.1784 33.0639C25.9356 33.0639 25.6252 32.6747 24.6944 31.5091L17.0824 19.5331V31.1199L19.4904 31.6651C19.4904 31.6651 19.4904 33.0651 17.5476 33.0651L12.1916 33.3759C12.0356 33.0639 12.1916 32.2867 12.7344 32.1319L14.1332 31.7439V16.4239L12.192 16.2667C12.036 15.5667 12.424 14.5559 13.512 14.4775L19.2588 14.0907L27.1788 26.2215V15.4895L25.16 15.2575C25.004 14.4003 25.6252 13.7775 26.4012 13.7015L31.7612 13.3891Z" fill="black"/>
  </g>
  <defs>
    <clipPath id="clip0_155_1207">
      <rect width="40" height="40" fill="white"/>
    </clipPath>
  </defs>
</svg>