<svg width="1200" height="413" viewBox="0 0 1200 413" fill="none" xmlns="http://www.w3.org/2000/svg">
<g clip-path="url(#clip0_407_5836)">
<rect width="1200" height="412.9" fill="white"/>
<path fill-rule="evenodd" clip-rule="evenodd" d="M197.121 142.117C193.312 142.363 166.029 154.1 160.647 158.462C155.531 162.609 139.973 185.573 138.444 187.839C138.356 187.969 138.273 188.074 138.173 188.196C137.357 189.193 133.452 194.277 132.848 200.984C132.27 207.392 132.051 254.928 132 268.596C131.992 270.637 133.645 272.262 135.685 272.262H151.355C153.047 272.262 154.522 271.11 154.932 269.468L155.443 267.419C155.712 266.343 155.258 265.217 154.318 264.628C153.205 263.93 152.8 262.504 153.381 261.326L160.473 246.923C160.589 246.688 160.679 246.442 160.742 246.187L164.745 230.151C165.135 228.588 166.495 227.459 168.104 227.364L230.623 223.664C232.741 223.539 234.528 225.223 234.528 227.345V268.576C234.528 270.612 236.178 272.262 238.215 272.262H257.531C259.275 272.262 260.781 271.039 261.139 269.332L261.551 267.366C261.773 266.307 261.333 265.219 260.438 264.612C259.395 263.905 258.99 262.566 259.464 261.4L266.133 245.021C266.267 244.692 266.352 244.351 266.39 243.998C266.712 240.925 268.446 225.39 270.754 223.433C273.229 221.335 298.363 205.443 300.077 204.36C300.142 204.319 300.191 204.286 300.253 204.241C301.4 203.415 313.821 194.518 316.575 194.375C319.205 194.238 333.247 198.862 335.737 199.69C335.992 199.775 336.25 199.831 336.516 199.859L360.94 202.458C364.381 203.196 366.716 202.93 367.453 202.704C371.681 201.229 375.605 198.567 377.039 197.42C379.174 195.754 379.486 194.061 379.342 193.161C379.304 192.923 379.24 192.685 379.123 192.473C378.765 191.823 377.782 191.059 377.046 190.569C376.76 190.379 376.49 190.164 376.255 189.913L364.504 177.327C364.061 176.884 363.787 175.504 363.705 174.869V172.226C363.951 169.67 362.456 167.474 361.677 166.696L346.684 152.072C345.796 151.385 345.538 150.569 345.508 150.072C345.501 149.961 345.506 149.85 345.51 149.738C345.514 149.667 345.517 149.595 345.517 149.523V147.656C345.517 147.461 345.535 147.267 345.554 147.073L345.554 147.073L345.559 147.027C345.681 145.756 345.186 144.793 344.902 144.452C343.405 142.725 341.693 142.67 340.118 142.62C340.012 142.616 339.907 142.613 339.802 142.609C338.728 142.569 336.59 143.626 335.119 144.465C334.518 144.807 333.859 145.005 333.168 145.006C327.999 145.011 305.173 145.055 300.169 145.436C296.852 145.688 287.109 143.107 278.843 140.918C273.017 139.374 267.926 138.026 266.336 138C264.431 137.97 257.66 139.686 250.792 141.427C243.785 143.203 236.676 145.005 234.528 145.005C232.627 145.005 225.719 144.38 218.317 143.71C209.151 142.88 199.229 141.981 197.121 142.117ZM281.967 236.885L303.065 212.783C304.469 211.18 307.108 211.999 307.356 214.116L313.16 263.637C313.233 264.264 313.545 264.839 314.031 265.242L316.817 267.557C317.689 268.281 317.953 269.507 317.456 270.526L315.636 274.254C315.148 275.254 314.049 275.802 312.957 275.589L296.004 272.284C295.187 272.125 294.506 271.563 294.195 270.792L281.537 239.423C281.191 238.564 281.357 237.582 281.967 236.885ZM182.915 242.044L202.375 230.613C203.814 229.768 205.658 230.571 206.02 232.2L212.38 260.857C212.479 261.307 212.704 261.72 213.027 262.048L216.613 265.693C217.293 266.385 217.503 267.412 217.149 268.315L215.798 271.757C215.382 272.816 214.295 273.452 213.168 273.293L196.322 270.928C195.531 270.817 194.843 270.328 194.478 269.617L181.974 245.287C181.378 244.128 181.791 242.705 182.915 242.044Z" fill="#1A8596"/>
<path d="M485.778 206.866C493.82 194.93 505.444 191.484 518.871 193.266C526.323 193.872 533.26 197.257 538.259 202.729C543.259 208.201 545.943 215.346 545.763 222.702C546.278 237.902 545.808 253.136 546.034 268.35C546.09 272.251 543.881 272.011 541.239 272.047C538.345 272.074 536.034 272.218 536.112 268.043C536.36 255.102 536.236 242.161 536.172 229.239C536.125 226.584 535.916 223.934 535.549 221.304C533.17 202.613 516.488 199.489 503.982 203.63C496.09 206.218 491.114 214.061 491.009 224.04C490.859 238.115 490.867 252.191 491.031 266.269C491.077 270.117 490.521 272.184 485.744 272.184C480.889 272.184 480.449 269.914 480.483 266.18C480.603 252.869 480.746 239.558 480.483 226.247C480.107 208.459 467.548 198.798 450.84 203.109C446.772 204.127 443.146 206.407 440.498 209.61C437.849 212.814 436.319 216.772 436.135 220.897C435.013 236.068 434.819 251.293 435.552 266.487C435.616 272.536 432.516 272.292 428.412 272.033C426.635 271.925 425.405 271.475 425.466 269.419C425.925 252.706 424.214 235.931 426.36 219.281C428.013 206.448 435.03 197.138 448.224 194.139C462.324 190.915 475.33 192.937 484.613 205.453C484.906 205.834 485.264 206.233 485.778 206.866Z" fill="#080B0C"/>
<path d="M998.487 206.478C1003.48 200.591 1010.15 196.304 1017.64 194.168C1025.12 192.032 1033.09 192.143 1040.51 194.487C1059.55 199.545 1069.21 215.614 1067.71 238.576C1067.3 246.128 1064.6 253.386 1059.96 259.417C1055.32 265.447 1048.95 269.974 1041.68 272.414C1034.11 274.965 1025.95 275.295 1018.2 273.361C1010.44 271.428 1003.43 267.315 998.01 261.525C991.646 254.239 988.21 244.913 988.352 235.307C988.179 204.899 988.307 174.488 988.262 144.08C988.262 140.678 988.656 138.112 993.121 138.013C997.758 137.909 998.551 140.312 998.536 144.124C998.434 164.453 998.487 184.781 998.487 206.478ZM998.487 233.598C997.916 258.597 1019.01 270.159 1040.16 262.756C1053.25 258.175 1060.39 243.005 1057.62 227.261C1055.56 215.533 1049.99 206.504 1037.59 203.228C1015.22 197.271 998.45 210.397 998.487 233.595V233.598Z" fill="#080B0C"/>
<path d="M952.655 206.67C952.655 184.833 952.689 164.345 952.617 143.862C952.617 140.375 953.106 137.946 957.586 138.001C961.283 138.06 962.735 139.314 962.719 143.063C962.591 174.081 962.925 205.098 962.489 236.108C962.167 259.195 945.154 274.614 921.554 274.255C899.273 273.919 883.106 257.365 882.996 234.77C882.896 213.695 892.862 198.724 910.87 194.339C926.386 190.549 940.558 193.111 952.655 206.67ZM922.689 264.816C940.991 264.842 952.613 252.747 952.655 233.632C952.697 214.002 941.227 201.904 922.629 201.952C904.364 202 892.94 214.072 892.892 233.413C892.832 252.499 904.482 264.786 922.689 264.812V264.816Z" fill="#080B0C"/>
<path d="M767.096 208.22C767.096 186.701 767.156 165.877 767.043 145.053C767.024 141.4 767.761 139.237 772.109 139.374C775.554 139.481 776.908 140.734 776.896 144.18C776.78 175.734 777.193 207.295 776.603 238.835C776.197 260.568 759.105 275.724 736.768 275.62C731.669 275.756 726.594 274.896 721.836 273.087C717.079 271.278 712.733 268.559 709.052 265.084C705.371 261.611 702.428 257.452 700.393 252.85C698.359 248.248 697.273 243.294 697.201 238.276C696.385 218.073 704.694 202.825 720.786 197.157C738.043 191.078 753.882 193.389 767.096 208.22ZM737.227 266.177C755.306 266.092 767.291 253.432 767.084 234.678C766.851 215.167 755.138 203.143 736.527 203.31C718.407 203.472 706.957 215.825 707.073 235.085C707.189 254.105 718.978 266.262 737.227 266.177Z" fill="#080B0C"/>
<path d="M831.69 274.289C820.924 274.211 811.306 271.557 804.862 262.324C803.174 259.91 800.968 257.018 804.824 254.511C808.083 252.393 810.254 253.712 812.576 256.575C816.879 261.291 822.732 264.367 829.11 265.265C835.486 266.162 841.981 264.822 847.455 261.481C849.281 260.389 850.756 258.811 851.708 256.929C852.661 255.048 853.052 252.938 852.836 250.846C852.71 248.834 851.957 246.907 850.68 245.33C849.402 243.752 847.662 242.599 845.696 242.029C838.346 239.633 830.841 237.729 823.23 236.328C820.032 235.583 816.904 234.577 813.877 233.317C811.111 232.152 808.655 230.377 806.698 228.13C804.74 225.882 803.333 223.223 802.585 220.356C801.837 217.489 801.768 214.491 802.384 211.594C802.999 208.697 804.283 205.977 806.135 203.646C815.816 190.205 849.612 187.791 859.793 205.228C861.111 207.487 864.046 210.009 860.217 212.516C856.951 214.656 854.58 214.094 852.054 210.604C845.065 200.887 826.203 198.928 816.921 206.563C815.224 207.698 813.894 209.286 813.085 211.14C812.276 212.995 812.023 215.038 812.356 217.03C812.688 219.021 813.593 220.877 814.962 222.38C816.332 223.882 818.11 224.967 820.085 225.508C826.275 227.612 832.822 228.714 839.213 230.241C843.753 231.215 848.134 232.801 852.231 234.956C855.498 236.565 858.246 239.033 860.173 242.087C862.1 245.14 863.129 248.659 863.145 252.253C863.162 255.847 862.166 259.376 860.268 262.446C858.37 265.516 855.644 268.009 852.393 269.649C846.061 273.048 838.895 274.654 831.69 274.289Z" fill="#080B0C"/>
<path d="M679.308 246.713C679.308 253.557 679.121 260.394 679.384 267.245C679.527 270.942 678.4 272.233 674.499 272.118C670.94 272.011 669.238 271.349 669.29 267.363C669.508 254.626 669.474 241.884 669.346 229.146C669.143 209.713 654.758 198.668 635.524 203.053C630.352 204.141 625.711 206.932 622.369 210.966C619.027 214.999 617.184 220.034 617.144 225.238C616.573 238.919 616.742 252.599 616.836 266.28C616.862 270.125 616.328 272.118 611.575 272.173C606.535 272.233 606.418 269.773 606.539 266.172C607.031 251.752 605.513 237.27 607.362 222.89C609.873 203.342 623.848 192.349 645.047 192.874C649.423 192.792 653.771 193.559 657.846 195.132C661.92 196.704 665.638 199.051 668.789 202.039C671.941 205.026 674.463 208.596 676.211 212.543C677.959 216.49 678.9 220.737 678.978 225.042C679.466 232.234 679.058 239.463 679.058 246.702L679.308 246.713Z" fill="#080B0C"/>
<path d="M581.222 233.801C581.222 244.816 581.072 255.831 581.304 266.842C581.387 270.706 580.384 272.074 576.179 272.121C571.616 272.173 571.26 270.121 571.293 266.575C571.406 244.931 571.372 223.282 571.327 201.634C571.327 198.188 571.222 195.189 576.213 195.078C581.203 194.967 581.32 197.748 581.286 201.33C581.158 212.157 581.222 222.979 581.222 233.801Z" fill="#080B0C"/>
<path d="M567.851 171.126C567.882 168.933 568.784 166.839 570.364 165.292C571.944 163.745 574.077 162.868 576.306 162.848C577.459 162.817 578.606 163.026 579.671 163.462C580.737 163.898 581.696 164.55 582.488 165.375C583.28 166.201 583.885 167.182 584.264 168.254C584.644 169.326 584.789 170.465 584.69 171.596C584.577 173.758 583.608 175.791 581.991 177.26C580.374 178.729 578.237 179.517 576.037 179.456C573.837 179.394 571.749 178.488 570.219 176.932C568.689 175.375 567.839 173.292 567.851 171.126Z" fill="#080B0C"/>
</g>
<defs>
<clipPath id="clip0_407_5836">
<rect width="1200" height="412.9" fill="white"/>
</clipPath>
</defs>
</svg>
