<?xml version="1.0" encoding="UTF-8"?>
<svg xmlns="http://www.w3.org/2000/svg" id="Art" viewBox="0 0 500 125">
  <defs>
    <style>.cls-1{fill:#121118;}</style>
  </defs>
  <title>BC_Wordmark_Black</title>
  <path class="cls-1" d="M142.05,60.77a18.3,18.3,0,0,1,15.24,7.36V9.89a1.4,1.4,0,0,0-2.22-1.12L83,61.42h1.92c7.48,0,11.32,4.76,11.32,10a9,9,0,0,1-5,8.41.6.6,0,0,0,0,1.1A9.72,9.72,0,0,1,97,90c0,5.94-3.89,10.65-11.43,10.65H65a.78.78,0,0,1-.78-.77V75.12L10.49,114.29a1.22,1.22,0,0,0,.73,2.21H156.06a1.23,1.23,0,0,0,1.23-1.22V95.46a21.74,21.74,0,0,1-15.24,5.9c-11.55,0-21-7.94-21-20.3S130.5,60.77,142.05,60.77ZM113.33,99.94a.71.71,0,0,1-.71.71h-7a.71.71,0,0,1-.71-.71V62.13a.71.71,0,0,1,.71-.71h7a.71.71,0,0,1,.71.71ZM72.55,76.23V69.17a.39.39,0,0,1,.39-.4H83c2.83,0,4.6,1.7,4.6,4.12S85.87,77,83,77H73.32A.76.76,0,0,1,72.55,76.23Zm0,16.29V85.13a.76.76,0,0,1,.77-.77H83.39c3.25,0,5,2,5,4.47,0,2.82-1.88,4.47-5,4.47H73.32A.77.77,0,0,1,72.55,92.52ZM152,72.94l5.28-2.87v8.87H140.82a.83.83,0,0,0-.83.83v5.64a.83.83,0,0,0,.83.83h8.92a.62.62,0,0,1,.62.62v3.78a.63.63,0,0,1-.22.5,13.26,13.26,0,0,1-8.09,2.8c-7.19,0-12.38-5.47-12.38-12.88s5.19-12.88,12.38-12.88a11.25,11.25,0,0,1,8.89,4.52A.86.86,0,0,0,152,72.94ZM163.41,81c0-12.12,8.7-20.29,19.91-20.29a16.81,16.81,0,0,1,14.81,8.16.66.66,0,0,1-.25.94l-4.48,2.43a.64.64,0,0,1-.84-.23,11.14,11.14,0,0,0-9.24-5.19c-7.51,0-13.08,5.89-13.08,14.18s5.57,14.18,13.08,14.18a11.28,11.28,0,0,0,9.25-5.2.64.64,0,0,1,.83-.24l4.51,2.34a.65.65,0,0,1,.26,1c-2.93,4.45-7.57,8.27-14.85,8.27C172.11,101.33,163.41,93.09,163.41,81ZM202,81c0-9.76,5.58-17.35,14-19.61,14.29-3.81,27.4,9.55,24.29,24.46a18.8,18.8,0,0,1-18.92,15.45C210,101.33,202,92.74,202,81Zm32,0c0-8.12-5-14.18-12.58-14.18S208.83,72.91,208.83,81s4.9,14.18,12.58,14.18S234,89.09,234,81Zm47.62,19.13V70.33l-11.94,30.08a.33.33,0,0,1-.31.21h-2.5a.32.32,0,0,1-.3-.21l-12-30.08v29.83a.47.47,0,0,1-.46.46h-6a.47.47,0,0,1-.47-.46V61.85a.47.47,0,0,1,.47-.47h8.63a1,1,0,0,1,.87.59L268.11,88.9,278.55,62a.94.94,0,0,1,.87-.59h8.63a.47.47,0,0,1,.46.47v38.31a.47.47,0,0,1-.46.46h-6A.47.47,0,0,1,281.61,100.16Zm67.93-.25V62.09a.71.71,0,0,1,.71-.71h25.52a.71.71,0,0,1,.71.71v4.64a.71.71,0,0,1-.71.71H357.15a.71.71,0,0,0-.71.71v8.7a.71.71,0,0,0,.71.71h18.21a.71.71,0,0,1,.71.71v4.64a.71.71,0,0,1-.71.71H357.15a.71.71,0,0,0-.71.71v9.52a.71.71,0,0,0,.71.71h18.62a.71.71,0,0,1,.71.71v4.64a.71.71,0,0,1-.71.71H350.25A.71.71,0,0,1,349.54,99.91Zm59,.36-8.25-14a.71.71,0,0,0-.61-.35h-5.79a.71.71,0,0,0-.71.7V99.92a.7.7,0,0,1-.7.7H387a.71.71,0,0,1-.71-.7V62.09a.71.71,0,0,1,.71-.71h16.57c7.78,0,12.91,5,12.91,12.3,0,6.46-4,10.22-8.38,11.32a.71.71,0,0,0-.46,1.06l8.46,13.49a.7.7,0,0,1-.6,1.07h-6.34A.71.71,0,0,1,408.54,100.27Zm.86-26.65c0-3.77-2.83-6.18-6.72-6.18h-8.79a.71.71,0,0,0-.71.71V79.21a.7.7,0,0,0,.71.7h8.79C406.57,79.91,409.4,77.44,409.4,73.62Zm53.66,26.31V62.08a.69.69,0,0,1,.69-.7h25.56a.69.69,0,0,1,.69.7v4.67a.69.69,0,0,1-.69.69H470.65a.7.7,0,0,0-.7.69v8.74a.7.7,0,0,0,.7.69h18.24a.69.69,0,0,1,.7.69v4.68a.69.69,0,0,1-.7.69H470.65a.7.7,0,0,0-.7.69v9.56a.7.7,0,0,0,.7.69h18.66a.69.69,0,0,1,.69.69v4.68a.69.69,0,0,1-.69.69H463.75A.69.69,0,0,1,463.06,99.93ZM421.52,80.87c0-12.12,8.7-20.3,19.91-20.3a16.81,16.81,0,0,1,14.81,8.17.65.65,0,0,1-.25.93l-4.48,2.44a.64.64,0,0,1-.84-.24,11.15,11.15,0,0,0-9.24-5.18c-7.51,0-13.08,5.88-13.08,14.18S433.92,95,441.43,95a11.24,11.24,0,0,0,9.24-5.19.66.66,0,0,1,.84-.24L456,91.94a.67.67,0,0,1,.26,1c-2.93,4.44-7.57,8.26-14.85,8.26C430.22,101.16,421.52,92.93,421.52,80.87Zm-89,19.29V70.33L320.6,100.41a.33.33,0,0,1-.31.21h-2.5a.32.32,0,0,1-.3-.21l-12-30.08v29.83a.46.46,0,0,1-.46.46h-6a.47.47,0,0,1-.47-.46V61.85a.47.47,0,0,1,.47-.47h8.63a1,1,0,0,1,.87.59L319,88.9,329.48,62a1,1,0,0,1,.87-.59H339a.46.46,0,0,1,.46.47v38.31a.46.46,0,0,1-.46.46h-6A.47.47,0,0,1,332.54,100.16Z"></path>
</svg>
