<svg xmlns="http://www.w3.org/2000/svg" width="40" height="40" viewBox="0 0 40 40" fill="none">
  <path d="M33.8838 7.04634C31.2945 5.83489 28.526 4.95445 25.6315 4.45312C25.276 5.09581 24.8607 5.96023 24.5744 6.64788C21.4975 6.18515 18.4489 6.18515 15.4286 6.64788C15.1423 5.96023 14.7176 5.09581 14.3589 4.45312C11.4613 4.95445 8.68959 5.83812 6.10032 7.05276C0.877738 14.9448 -0.538019 22.6408 0.169861 30.2275C3.63375 32.8142 6.99068 34.3856 10.291 35.4138C11.1058 34.2924 11.8326 33.1002 12.4586 31.8438C11.2663 31.3907 10.1242 30.8316 9.04512 30.1825C9.3314 29.9704 9.61143 29.7487 9.88197 29.5205C16.4637 32.5989 23.6148 32.5989 30.1179 29.5205C30.3916 29.7487 30.6716 29.9704 30.9547 30.1825C29.8725 30.8348 28.7273 31.3939 27.5349 31.847C28.161 33.1002 28.8846 34.2956 29.7026 35.417C33.0061 34.3888 36.3661 32.8174 39.83 30.2275C40.6606 21.4325 38.4111 13.8072 33.8838 7.04634ZM13.3553 25.5617C11.3795 25.5617 9.75925 23.7172 9.75925 21.4711C9.75925 19.2249 11.3449 17.3773 13.3553 17.3773C15.3657 17.3773 16.9859 19.2217 16.9513 21.4711C16.9545 23.7172 15.3657 25.5617 13.3553 25.5617ZM26.6446 25.5617C24.6688 25.5617 23.0485 23.7172 23.0485 21.4711C23.0485 19.2249 24.6342 17.3773 26.6446 17.3773C28.6549 17.3773 30.2752 19.2217 30.2406 21.4711C30.2406 23.7172 28.6549 25.5617 26.6446 25.5617Z" fill="#5865F2"/>
</svg>