<svg xmlns="http://www.w3.org/2000/svg" width="40" height="40" viewBox="0 0 40 40" fill="none">
  <g clip-path="url(#clip0_146_640)">
    <path d="M39.2595 24.3457L35.5064 7.95068C35.3088 7.06179 34.4693 6.1729 33.5804 5.92599L16.3459 0.642042C16.099 0.592659 15.852 0.543274 15.6051 0.543274C14.8644 0.543274 14.0743 0.83957 13.6298 1.28401L1.28415 12.7408C0.642173 13.3334 0.247105 14.5186 0.444636 15.4075L4.44464 32.9383C4.64217 33.8272 5.48167 34.7161 6.37056 34.963L22.4693 39.9013C22.7162 39.9507 22.9632 40.0001 23.2101 40.0001C23.9508 40.0001 24.7409 39.7038 25.1854 39.2593L38.3706 27.0124C39.1113 26.4198 39.457 25.2346 39.2595 24.3457ZM18.1236 4.49389L29.9261 8.09883C30.3706 8.24698 30.3706 8.44451 29.9261 8.54328L23.7039 9.97537C23.2101 10.0741 22.5681 9.87661 22.2718 9.53093L17.9261 4.83957C17.5804 4.54328 17.6792 4.39513 18.1236 4.49389ZM25.4817 25.6791C25.5804 26.1729 25.2841 26.4198 24.8397 26.2717L12.099 22.3704C11.6545 22.2223 11.5558 21.8272 11.9014 21.5309L21.6792 12.4445C22.0249 12.0988 22.4199 12.247 22.5187 12.6914L25.4817 25.6791ZM4.49402 14.1235L14.8644 4.49389C15.2101 4.14821 15.7533 4.19759 16.099 4.54327L21.2841 10.1235C21.6298 10.4692 21.5804 11.0124 21.2348 11.3581L10.8644 20.9877C10.5187 21.3334 9.9755 21.284 9.62982 20.9383L4.44464 15.3581C4.14834 15.0124 4.14835 14.4692 4.49402 14.1235ZM7.01254 29.4322L4.24711 17.4322C4.14835 16.9383 4.29649 16.889 4.64217 17.2346L8.98785 21.926C9.33353 22.2717 9.48167 22.963 9.33352 23.4075L7.45699 29.4815C7.35822 29.8766 7.1113 29.8766 7.01254 29.4322ZM22.173 36.3951L8.69156 32.247C8.24711 32.0988 7.95081 31.605 8.09896 31.1606L10.3212 23.8519C10.4693 23.4075 10.9632 23.1112 11.4076 23.2593L24.8891 27.4075C25.3335 27.5556 25.6298 28.0494 25.4817 28.4939L23.2595 35.8025C23.1113 36.2964 22.6175 36.5433 22.173 36.3951ZM34.173 26.568L25.136 34.963C24.7903 35.3087 24.5928 35.1606 24.7409 34.7161L26.6175 28.642C26.7656 28.1976 27.2595 27.7038 27.7533 27.605L33.9755 26.1729C34.4199 26.0741 34.5187 26.2717 34.173 26.568ZM35.1607 24.7902L27.7039 26.4692C27.2101 26.568 26.7656 26.2717 26.6669 25.8272L23.5064 12.0494C23.4076 11.5556 23.7039 11.1112 24.1483 11.0124L31.6051 9.3334C32.099 9.23463 32.5434 9.53093 32.6422 9.97537L35.8027 23.7532C35.9014 24.1976 35.6051 24.6914 35.1607 24.7902Z" fill="url(#paint0_linear_146_640)"/>
  </g>
  <defs>
    <linearGradient id="paint0_linear_146_640" x1="20.9008" y1="20.247" x2="158.069" y2="20.247" gradientUnits="userSpaceOnUse">
      <stop stop-color="#4591ED"/>
      <stop offset="1" stop-color="#00C9FF"/>
    </linearGradient>
    <clipPath id="clip0_146_640">
      <rect width="40" height="40" fill="white"/>
    </clipPath>
  </defs>
</svg>