<svg xmlns="http://www.w3.org/2000/svg" width="40" height="30" viewBox="0 0 40 30" fill="none">
  <g clip-path="url(#clip0_177_147)">
    <path d="M2.72727 30H9.09091V14.5455L0 7.72729V27.2728C0 28.7818 1.22273 30 2.72727 30Z" fill="#4285F4"/>
    <path d="M30.9093 30H37.2729C38.782 30 40.0002 28.7773 40.0002 27.2728V7.72729L30.9093 14.5455" fill="#34A853"/>
    <path d="M30.9093 2.7272V14.5454L40.0002 7.7272V4.09083C40.0002 0.718106 36.1502 -1.20462 33.4547 0.818106" fill="#FBBC04"/>
    <path d="M9.09074 14.5455V2.72729L19.9998 10.9091L30.9089 2.72729V14.5455L19.9998 22.7273" fill="#EA4335"/>
    <path d="M0 4.09083V7.7272L9.09091 14.5454V2.7272L6.54546 0.818106C3.84546 -1.20462 0 0.718106 0 4.09083Z" fill="#C5221F"/>
  </g>
  <defs>
    <clipPath id="clip0_177_147">
      <rect width="40" height="30" fill="white"/>
    </clipPath>
  </defs>
</svg>