<svg width="282" height="64" viewBox="0 0 282 64" fill="none" xmlns="http://www.w3.org/2000/svg">
<g clip-path="url(#clip0_3_544)">
<path d="M68.8152 23.0204L65.311 51.5401H74.4855L77.9897 23.0204H68.8152ZM69.2612 10.8707C69.2612 13.8761 71.6185 16.2421 74.6129 16.2421C77.6074 16.2421 79.9647 13.8761 79.9647 10.8707C79.9647 7.86525 77.6074 5.49927 74.6129 5.49927C71.6185 5.49927 69.2612 7.86525 69.2612 10.8707Z" fill="black"/>
<path d="M85.8496 23.0204L82.3454 51.5401H91.5199L93.1764 37.4721C93.3676 35.9374 93.7498 33.1877 95.4063 31.4612C96.5532 30.3102 97.9548 29.9265 99.5476 29.9265C100.503 29.9265 101.905 30.1183 102.924 31.1414C103.88 32.1646 104.071 33.5074 104.071 34.5945C104.071 35.0421 104.071 36.2571 103.689 39.1986L102.16 51.5401H111.334L113.054 36.8965C113.437 33.8272 113.5 32.4204 113.5 31.4612C113.5 29.7346 113.309 26.8571 111.079 24.6829C108.913 22.5727 106.046 22.253 103.689 22.253C101.714 22.253 100.121 22.3809 98.0822 23.468C96.8717 24.1074 95.6612 25.0027 94.5781 26.1537L95.0241 23.0204H85.8496Z" fill="black"/>
<path d="M142.195 24.9387C138.309 22.253 134.932 22.0612 132.829 22.0612C130.791 22.0612 126.395 22.253 123.464 25.1306C121.935 26.6653 120.788 29.0312 120.788 31.7809C120.788 34.5306 121.999 36.1292 122.699 36.8965C124.037 38.2394 125.949 39.0068 127.478 39.4544L129.516 40.0938C130.281 40.3496 131.173 40.5414 131.746 40.9251C132.192 41.2448 132.638 41.7564 132.638 42.7156C132.638 43.6108 132.256 44.1224 131.492 44.57C130.727 45.0176 129.835 45.2095 128.688 45.2095C126.713 45.2095 125.057 44.4421 124.738 44.3142C123.591 43.8027 122.253 42.9074 121.234 41.9482L117.348 48.151C118.685 49.3659 120.151 50.3891 121.744 51.0925C124.292 52.2435 126.713 52.4993 129.134 52.4993C131.619 52.4993 136.079 52.1156 139.137 48.9183C140.347 47.7034 141.813 45.4013 141.813 41.8843C141.813 39.6462 141.176 37.9197 139.71 36.4489C138.118 34.7863 136.206 34.1469 134.805 33.7632L132.702 33.1877C131.109 32.7401 130.663 32.5482 130.472 32.4204C129.771 31.9727 129.58 31.3972 129.58 30.8857C129.58 30.3741 129.835 29.7986 130.217 29.4789C130.854 28.9033 132.065 28.7115 132.957 28.7115C135.187 28.7115 137.034 29.6707 138.309 30.6299L142.195 24.9387Z" fill="black"/>
<path d="M163.831 30.438L164.723 23.0204H159.117L160.263 13.8122H151.089L149.942 23.0204H146.629L145.737 30.438H149.05L146.438 51.5401H155.612L158.225 30.438H163.831Z" fill="black"/>
<path d="M189.878 26.4734C188.604 24.6829 187.075 23.6598 185.992 23.1482C184.144 22.253 182.105 22.0612 180.449 22.0612C176.499 22.0612 172.931 23.2122 170 26.2176C167.261 29.0312 165.413 33.2516 165.413 38.4952C165.413 43.419 167.133 46.7442 169.236 48.9823C171.72 51.604 174.524 52.4993 178.028 52.4993C179.111 52.4993 181.341 52.3714 183.316 51.4761C184.845 50.7727 186.31 49.4938 187.33 48.2789L186.629 51.5401H195.804L199.308 23.0204H190.133L189.878 26.4734ZM182.424 29.9904C184.909 29.9904 186.374 30.8217 187.202 31.5891C188.413 32.6761 189.177 34.4666 189.177 36.5129C189.177 38.6231 188.413 41.053 186.756 42.6516C185.801 43.5469 184.144 44.57 181.532 44.57C179.684 44.57 178.028 44.0584 176.69 42.6516C175.798 41.6925 174.842 40.1578 174.842 37.7918C174.842 35.4258 175.734 33.3795 177.009 32.1006C178.41 30.6938 180.13 29.9904 182.424 29.9904Z" fill="black"/>
<path d="M220.948 30.438L221.84 23.0204H216.233L217.38 13.8122H208.205L207.059 23.0204H203.746L202.854 30.438H206.167L203.554 51.5401H212.729L215.341 30.438H220.948Z" fill="black"/>
<path d="M245.657 23.0204L243.873 37.9836C243.491 41.3727 242.408 42.7156 242.025 43.0993C241.006 44.1863 239.286 44.6979 237.82 44.6979C236.482 44.6979 234.89 44.2503 234.061 43.4829C233.424 42.9074 232.851 41.8843 232.851 40.3496C232.851 39.6462 232.978 39.0068 233.169 37.2163L234.826 23.0204H225.651L223.931 37.536C223.804 38.4312 223.613 40.4136 223.613 41.5646C223.613 44.57 224.759 47.4476 226.671 49.238C229.856 52.3074 234.89 52.4993 237.757 52.4993C241.006 52.4993 245.529 52.1156 248.906 48.8544C252.092 45.785 252.665 41.8204 253.047 38.4312L254.831 23.0204H245.657Z" fill="black"/>
<path d="M282.311 24.9387C278.425 22.253 275.048 22.0612 272.945 22.0612C270.907 22.0612 266.511 22.253 263.58 25.1306C262.051 26.6653 260.904 29.0312 260.904 31.7809C260.904 34.5306 262.114 36.1292 262.815 36.8965C264.153 38.2394 266.065 39.0068 267.594 39.4544L269.632 40.0938C270.397 40.3496 271.289 40.5414 271.862 40.9251C272.308 41.2448 272.754 41.7564 272.754 42.7156C272.754 43.6108 272.372 44.1224 271.607 44.57C270.843 45.0176 269.951 45.2095 268.804 45.2095C266.829 45.2095 265.173 44.4421 264.854 44.3142C263.707 43.8027 262.369 42.9074 261.35 41.9482L257.463 48.151C258.801 49.3659 260.267 50.3891 261.86 51.0925C264.408 52.2435 266.829 52.4993 269.25 52.4993C271.735 52.4993 276.195 52.1156 279.253 48.9183C280.463 47.7034 281.929 45.4013 281.929 41.8843C281.929 39.6462 281.292 37.9197 279.826 36.4489C278.233 34.7863 276.322 34.1469 274.92 33.7632L272.818 33.1877C271.225 32.7401 270.779 32.5482 270.588 32.4204C269.887 31.9727 269.696 31.3972 269.696 30.8857C269.696 30.3741 269.951 29.7986 270.333 29.4789C270.97 28.9033 272.181 28.7115 273.073 28.7115C275.303 28.7115 277.15 29.6707 278.425 30.6299L282.311 24.9387Z" fill="black"/>
<path d="M18.3245 57.4997C12.981 55.3996 8.32995 51.4582 5.41811 45.9942C-1.07496 33.8101 3.5385 18.6693 15.7226 12.1763C27.5885 5.8527 42.2589 10.0633 49.0145 21.542C45.815 28.9588 40.7095 36.7957 33.9658 44.0901C28.9906 49.4716 23.6512 53.9872 18.3245 57.4997Z" fill="black"/>
<path d="M1.1553 63.4083C-1.627 61.316 1.05773 54.3722 4.53167 49.6593L5.6068 51.1773C4.31552 54.226 2.06451 60.4244 11.3079 53.2767C20.5512 46.1291 36.0411 26.2105 42.6911 14.1964C48.0111 4.58517 42.2574 6.86794 38.8063 9.07736L37.2929 8.26354C40.7993 4.86578 46.9079 0.773608 49.8312 2.05997C56.1727 4.85043 51.4503 22.9979 37.19 40.5949C22.9296 58.1918 5.0808 66.3602 1.1553 63.4083Z" fill="black"/>
<path d="M52.3358 31.5196C53.4106 41.3776 48.5221 51.3499 39.2357 56.2987C36.0764 57.9824 32.7184 58.9193 29.3638 59.171C32.5965 53.1448 36.9548 46.9614 42.3064 41.0818C45.5381 37.5314 48.914 34.3311 52.3358 31.5196Z" fill="black"/>
</g>
<defs>
<clipPath id="clip0_3_544">
<rect width="282" height="64" fill="white"/>
</clipPath>
</defs>
</svg>
