<svg xmlns="http://www.w3.org/2000/svg" width="40" height="40" viewBox="0 0 40 40" fill="none">
  <path d="M39.7284 29.5062C39.4321 29.8025 38.2469 28.7654 37.8519 28.1728C37.9259 28.9136 37.6543 30.3704 37.284 30.3457C36.5926 30.321 36.1482 28.3457 36.4198 27.0123C32.1235 24.5432 27.7778 26.6913 27.7778 26.6913H27.8025C28.3457 26.7654 29.6049 26.8889 29.5803 27.4568C29.5556 27.8271 27.9259 28.9383 22.8148 28.5185C21.2099 29.8765 14.7161 32.7901 8.96297 31.8271C4.79013 30.8395 2.56791 28.9136 1.38272 26.9136C2.44445 27.6543 6.91359 30.1728 15.679 27.4074C25.8025 24.1975 29.037 22.4444 37.4074 24.6173V24.642C37.6049 25.1111 37.7778 25.6049 37.8765 26.0987C39.284 27.037 40.1482 29.0864 39.7284 29.5062Z" fill="#B7E3FF"/>
  <path d="M35.5802 21.5555C36.321 22.5185 36.9383 23.5555 37.4074 24.6667C29.0123 22.4691 25.8025 24.2469 15.679 27.4568C6.91358 30.2469 2.44444 27.7284 1.38271 26.963V26.9383C0.271603 24.9383 -0.0740764 22.5926 0.395059 20.3457C0.567899 20.1481 0.790122 19.9506 1.03704 19.7284C2 20.5926 6.69136 24.2222 15.8518 21.9506C15.8272 21.9259 30.1481 18.2963 35.5802 21.5555Z" fill="#52AAFF"/>
  <path d="M30.7901 17.358C32.642 18.4444 34.2469 19.8518 35.5802 21.5555C30.1481 18.321 15.8272 21.9506 15.8272 21.9506C6.69136 24.2469 1.97531 20.6173 1.01234 19.7531C3.4321 17.7284 6.22222 16.1975 9.23457 15.2592C11.4568 16.2469 13.9012 16.5926 16.2963 16.2222C20.5679 15.5802 25.6049 15.4815 30.7901 17.358Z" fill="#0175F2"/>
  <path d="M28.7901 16.2963C29.4815 16.6173 30.1482 16.963 30.8148 17.358C25.6296 15.4815 20.5926 15.5802 16.321 16.1728C13.9259 16.5432 11.4568 16.1975 9.25926 15.2099C14.5185 13.5555 20.1482 13.4815 25.4321 15.0123C26.5432 15.358 27.679 15.7778 28.7901 16.2963Z" fill="#015BCB"/>
  <path d="M15.8519 8.96295C15.8519 9.38271 15.6049 9.75308 15.2099 9.92592C14.3457 10.3457 13.6296 11.0617 13.2099 11.9259C12.9383 10.716 13.2099 9.43209 13.9259 8.44443C13.9506 8.39505 14 8.34567 14.0494 8.29629C14.2469 8.07406 14.5185 7.95061 14.8148 7.9753C15.4074 7.92592 15.8519 8.39505 15.8519 8.96295Z" fill="#015BCB"/>
  <path d="M12.2963 12.9629C12.2963 13.1358 12.2963 13.2839 12.2716 13.4321C11.7778 12.9136 11.1358 12.5432 10.4444 12.321C10.4197 12.321 10.4197 12.321 10.3951 12.2963C9.82715 12.1234 9.50617 11.5062 9.67901 10.9136C9.85185 10.3457 10.4691 10.0247 11.0617 10.1975C11.3333 10.2716 11.5556 10.4691 11.7037 10.716C12.0988 11.4321 12.2963 12.1975 12.2963 12.9629Z" fill="#015BCB"/>
  <path d="M16.6173 28.1975C17.1355 28.1975 17.5556 27.7774 17.5556 27.2592C17.5556 26.7411 17.1355 26.321 16.6173 26.321C16.0991 26.321 15.679 26.7411 15.679 27.2592C15.679 27.7774 16.0991 28.1975 16.6173 28.1975Z" fill="#0175F2"/>
</svg>