<?xml version="1.0" encoding="UTF-8"?>
<!-- Uploaded to: SVG Repo, www.svgrepo.com, Generator: SVG Repo Mixer Tools -->
<svg width="800px" height="800px" viewBox="0 0 256 256" version="1.1" xmlns="http://www.w3.org/2000/svg" xmlns:xlink="http://www.w3.org/1999/xlink" preserveAspectRatio="xMidYMid">
    <g>
        <path d="M128,0 C198.656,0 256,57.344 256,128 C256,198.656 198.656,256 128,256 C57.344,256 0,198.656 0,128 C0,57.344 57.344,0 128,0 Z M128,33.792 C75.776,33.792 33.792,75.776 33.792,128 C33.792,180.224 75.776,222.208 128,222.208 C180.224,222.208 222.208,180.224 222.208,128 C222.208,75.776 180.224,33.792 128,33.792 Z M159.744,133.12 C174.448029,133.12 186.368,145.039971 186.368,159.744 C186.368,174.448029 174.448029,186.368 159.744,186.368 C145.039971,186.368 133.12,174.448029 133.12,159.744 C133.12,145.039971 145.039971,133.12 159.744,133.12 Z M96.256,133.12 C110.960029,133.12 122.88,145.039971 122.88,159.744 C122.88,174.448029 110.960029,186.368 96.256,186.368 C81.5519708,186.368 69.632,174.448029 69.632,159.744 C69.632,145.039971 81.5519708,133.12 96.256,133.12 Z M159.744,69.632 C174.448029,69.632 186.368,81.5519708 186.368,96.256 C186.368,110.960029 174.448029,122.88 159.744,122.88 C145.039971,122.88 133.12,110.960029 133.12,96.256 C133.12,81.5519708 145.039971,69.632 159.744,69.632 Z M96.256,69.632 C110.960029,69.632 122.88,81.5519708 122.88,96.256 C122.88,110.960029 110.960029,122.88 96.256,122.88 C81.5519708,122.88 69.632,110.960029 69.632,96.256 C69.632,81.5519708 81.5519708,69.632 96.256,69.632 Z" fill="#F12E45">
</path>
    </g>
</svg>