<svg xmlns="http://www.w3.org/2000/svg" width="40" height="40" viewBox="0 0 40 40" fill="none">
  <g clip-path="url(#clip0_155_2353)">
    <path d="M19.9781 34.735C11.8523 34.735 5.265 28.1476 5.265 20.022C5.265 11.8962 11.8523 5.30904 19.9781 5.30904C28.1038 5.30904 34.6909 11.8962 34.6909 20.022C34.6909 28.1476 28.1038 34.735 19.9781 34.735ZM19.9781 0.0438843C8.94453 0.0438843 0 8.98857 0 20.022C0 31.0556 8.94453 40 19.9781 40C31.0116 40 39.9561 31.0556 39.9561 20.022C39.9561 8.98857 31.0117 0.0438843 19.9781 0.0438843Z" fill="#CF272D"/>
    <path d="M20.7994 15.0464C20.7994 12.7523 22.6593 10.8925 24.9535 10.8925C27.2477 10.8925 29.1074 12.7523 29.1074 15.0464C29.1074 17.3407 27.2477 19.2004 24.9535 19.2004C22.6593 19.2004 20.7994 17.3407 20.7994 15.0464ZM20.7994 24.9973C20.7994 22.7032 22.6593 20.8432 24.9535 20.8432C27.2477 20.8432 29.1074 22.7032 29.1074 24.9973C29.1074 27.2915 27.2477 29.1514 24.9535 29.1514C22.6593 29.1514 20.7994 27.2915 20.7994 24.9973ZM10.8486 24.9973C10.8486 22.7032 12.7086 20.8432 15.0027 20.8432C17.2969 20.8432 19.1568 22.7032 19.1568 24.9973C19.1568 27.2915 17.2969 29.1514 15.0027 29.1514C12.7086 29.1514 10.8486 27.2915 10.8486 24.9973ZM10.8486 15.0465C10.8486 12.7523 12.7086 10.8926 15.0027 10.8926C17.2969 10.8926 19.1568 12.7523 19.1568 15.0465C19.1568 17.3409 17.2969 19.2006 15.0027 19.2006C12.7086 19.2006 10.8486 17.3409 10.8486 15.0465Z" fill="#CF272D"/>
  </g>
  <defs>
    <clipPath id="clip0_155_2353">
      <rect width="40" height="40" fill="white"/>
    </clipPath>
  </defs>
</svg>