<svg xmlns="http://www.w3.org/2000/svg" width="40" height="40" viewBox="0 0 40 40" fill="none">
  <path fill-rule="evenodd" clip-rule="evenodd" d="M37.9999 35.0015C38.0149 37.7484 35.7798 39.9851 33.0099 39.9998C32.804 40.0015 32.5963 39.99 32.3921 39.9653C29.8215 39.5884 27.9386 37.3714 28.0015 34.7974V5.20211C27.9401 2.6247 29.8282 0.407837 32.4004 0.0341995C35.1519 -0.285067 37.6445 1.66678 37.9666 4.39398C37.9899 4.59478 38.0015 4.79559 37.9998 4.99795V35.0014L37.9999 35.0015Z" fill="#F9AB00"/>
  <path fill-rule="evenodd" clip-rule="evenodd" d="M6.94628 30.0614C9.67819 30.0614 11.8926 32.2861 11.8926 35.0307C11.8926 37.7753 9.67819 40 6.94628 40C4.21437 40 2 37.7753 2 35.0307C2 32.2861 4.21437 30.0614 6.94628 30.0614ZM19.9601 15.0016C17.2151 15.1533 15.0861 17.4655 15.1501 20.2266V33.5733C15.1501 37.1959 16.737 39.3942 19.0615 39.8629C21.7441 40.4092 24.3577 38.668 24.9015 35.973C24.9688 35.6428 25.0016 35.3079 24.9999 34.9712V19.9957C25.0049 17.2412 22.7872 15.0048 20.0455 15C20.0176 15 19.988 15 19.9601 15.0017V15.0016Z" fill="#E37400"/>
</svg>