<svg xmlns="http://www.w3.org/2000/svg" width="40" height="38" viewBox="0 0 40 38" fill="none">
  <g clip-path="url(#clip0_155_1909)">
    <path d="M20.4651 21.7143C26.6301 21.7143 31.6279 16.8534 31.6279 10.8571C31.6279 4.86091 26.6301 0 20.4651 0C14.3001 0 9.30231 4.86091 9.30231 10.8571C9.30231 16.8534 14.3001 21.7143 20.4651 21.7143Z" fill="#036C70"/>
    <path d="M29.7675 30.762C35.4188 30.762 40 26.3061 40 20.8096C40 15.313 35.4188 10.8572 29.7675 10.8572C24.1162 10.8572 19.5349 15.313 19.5349 20.8096C19.5349 26.3061 24.1162 30.762 29.7675 30.762Z" fill="#1A9BA1"/>
    <path d="M21.8605 38C26.2274 38 29.7674 34.5568 29.7674 30.3095C29.7674 26.0622 26.2274 22.619 21.8605 22.619C17.4936 22.619 13.9535 26.0622 13.9535 30.3095C13.9535 34.5568 17.4936 38 21.8605 38Z" fill="#37C6D0"/>
    <path opacity="0.1" d="M22.3256 9.79854V29.1061C22.3209 29.777 21.9029 30.3798 21.2651 30.6352C21.062 30.7187 20.8437 30.7618 20.6232 30.7619H13.9628C13.9535 30.608 13.9535 30.4633 13.9535 30.3095C13.9504 30.1585 13.9566 30.0074 13.9721 29.8571C14.1423 26.965 15.9742 24.4132 18.707 23.2614V21.5785C12.625 20.6411 8.47591 15.0858 9.4397 9.17038C9.44639 9.12942 9.4533 9.08847 9.46046 9.04758C9.50676 8.74245 9.57201 8.4403 9.65581 8.14282H20.6233C21.5619 8.1463 22.322 8.88556 22.3256 9.79854Z" fill="black"/>
    <path opacity="0.2" d="M19.693 9.04761H9.46046C8.42678 14.9524 12.5103 20.5541 18.5813 21.5595C18.7651 21.59 18.9497 21.6159 19.1349 21.6374C16.2512 22.9674 14.1498 26.7448 13.9712 29.8571C13.9557 30.0074 13.9495 30.1585 13.9525 30.3095C13.9525 30.4633 13.9525 30.6081 13.9618 30.7619C13.9786 31.066 14.0191 31.3685 14.0828 31.6666H19.6921C20.3819 31.6622 21.0015 31.2556 21.2642 30.6352C21.3501 30.4377 21.3944 30.2254 21.3944 30.0109V10.7033C21.3909 9.7907 20.6313 9.05159 19.693 9.04761Z" fill="black"/>
    <path opacity="0.2" d="M19.693 9.04761H9.46044C8.42698 14.9529 12.5111 20.5549 18.5827 21.5601C18.7069 21.5807 18.8314 21.5992 18.9563 21.6157C16.1656 23.0416 14.147 26.8099 13.9721 29.8571H19.693C20.6302 29.8502 21.3882 29.113 21.3953 28.2014V10.7033C21.3918 9.79034 20.6317 9.05108 19.693 9.04761Z" fill="black"/>
    <path opacity="0.2" d="M18.7628 9.04761H9.46044C8.48458 14.6223 12.076 19.9907 17.7116 21.3813C15.5777 23.7526 14.2689 26.7191 13.9721 29.8571H18.7628C19.7015 29.8537 20.4615 29.1144 20.4651 28.2014V10.7033C20.4646 9.78911 19.7027 9.04812 18.7628 9.04761Z" fill="black"/>
    <path d="M1.70512 9.04761H18.76C19.7017 9.04761 20.4651 9.79011 20.4651 10.706V27.2939C20.4651 28.2099 19.7017 28.9524 18.76 28.9524H1.70512C0.763407 28.9524 0 28.2099 0 27.2939V10.706C0 9.79011 0.763407 9.04761 1.70512 9.04761Z" fill="url(#paint0_linear_155_1909)"/>
    <path d="M7.61583 18.7973C7.21624 18.5395 6.88246 18.1963 6.64001 17.7939C6.40509 17.3733 6.288 16.8999 6.30047 16.4214C6.27955 15.7735 6.50435 15.1407 6.93209 14.6435C7.38158 14.1458 7.96256 13.7772 8.61209 13.5777C9.35235 13.3407 10.1277 13.224 10.907 13.2321C11.9318 13.1957 12.9551 13.3351 13.9302 13.6438V15.7247C13.5065 15.4751 13.0451 15.2919 12.5628 15.1819C12.0395 15.0571 11.5025 14.9945 10.9637 14.9955C10.3955 14.9752 9.83099 15.0914 9.31999 15.3339C8.92548 15.4994 8.66965 15.8769 8.66883 16.2947C8.66723 16.5482 8.76735 16.7923 8.9479 16.9751C9.16116 17.1906 9.41343 17.3661 9.69209 17.4927C10.0022 17.6428 10.4673 17.8425 11.0874 18.0916C11.1557 18.1126 11.2223 18.1386 11.2865 18.1694C11.8969 18.4014 12.4857 18.6839 13.0465 19.0136C13.4712 19.2683 13.8277 19.6174 14.0865 20.0323C14.3519 20.5026 14.4805 21.0344 14.4586 21.5704C14.4889 22.2356 14.2797 22.8903 13.867 23.4216C13.4556 23.91 12.9057 24.27 12.2856 24.4566C11.5562 24.679 10.795 24.7865 10.0307 24.7751C9.34498 24.7781 8.66028 24.7236 7.98419 24.6122C7.41332 24.5214 6.85622 24.3621 6.32559 24.1381V21.9441C6.83281 22.2964 7.39949 22.5598 8.00001 22.7222C8.5985 22.9036 9.22065 23.0005 9.84745 23.0099C10.4276 23.0456 11.0067 22.9261 11.5219 22.6643C11.8828 22.4662 12.1023 22.091 12.093 21.688C12.0954 21.4077 11.9814 21.1382 11.7768 20.9407C11.5223 20.6977 11.2276 20.498 10.9051 20.3499C10.5331 20.1689 9.98514 19.9304 9.26142 19.6342C8.68568 19.4091 8.13442 19.1287 7.61583 18.7973Z" fill="white"/>
  </g>
  <defs>
    <linearGradient id="paint0_linear_155_1909" x1="3.5552" y1="7.75175" x2="16.3615" y2="30.5562" gradientUnits="userSpaceOnUse">
      <stop stop-color="#058F92"/>
      <stop offset="0.5" stop-color="#038489"/>
      <stop offset="1" stop-color="#026D71"/>
    </linearGradient>
    <clipPath id="clip0_155_1909">
      <rect width="40" height="38" fill="white"/>
    </clipPath>
  </defs>
</svg>