<svg xmlns="http://www.w3.org/2000/svg" width="40" height="40" viewBox="0 0 40 40" fill="none">
  <path fill-rule="evenodd" clip-rule="evenodd" d="M19.9661 9.12159C18.5424 8.52765 17 8.26367 15.2373 8.26367C13.4407 8.26367 11.7627 8.56064 10.1695 9.12159C8.55933 9.69904 7.15255 10.4745 5.88137 11.4974C4.61018 12.5203 3.54238 13.7082 2.71187 15.061C1.88137 16.4139 1.3051 17.8823 0.983062 19.4661C0.694926 21.05 0.728824 22.5183 1.10171 23.8712C1.45764 25.2406 2.08476 26.3955 2.98306 27.4349C3.86442 28.4578 5.00001 29.2332 6.37289 29.8271C7.74577 30.4211 9.33899 30.6686 11.1526 30.6686C12.8983 30.6686 14.6271 30.3881 16.2203 29.8271C17.3559 29.4147 18.3898 28.9197 19.3559 28.2928L22.5932 10.7219C21.8644 10.0455 20.9831 9.53405 19.9661 9.12159ZM19.4407 19.4661C19.2542 20.2745 18.9322 21.083 18.4746 21.7759C18.017 22.4853 17.4407 23.0958 16.7966 23.6237C16.1187 24.1352 15.3729 24.5311 14.5763 24.8281C13.7627 25.1251 12.9322 25.2736 12.1356 25.2736C11.339 25.2736 10.5254 25.1416 9.84747 24.8281C9.15255 24.5476 8.59323 24.1352 8.08476 23.6237C7.62713 23.1123 7.28815 22.4853 7.10171 21.7759C6.91526 21.083 6.86442 20.2745 7.01696 19.4661C7.1695 18.6082 7.47459 17.8493 7.93221 17.1563C8.38984 16.4469 8.98306 15.8365 9.61018 15.325C10.2542 14.8136 10.9831 14.4011 11.8305 14.1041C12.6271 13.8072 13.4746 13.6587 14.2712 13.6587C15.1017 13.6587 15.8814 13.7907 16.5593 14.1041C17.2542 14.3846 17.8644 14.8136 18.322 15.325C18.8136 15.8365 19.1187 16.4469 19.3559 17.1563C19.5593 17.8493 19.5932 18.6577 19.4407 19.4661Z" fill="#086FFF"/>
  <path fill-rule="evenodd" clip-rule="evenodd" d="M38.3898 21.1818C38.1356 20.7363 37.7118 20.3404 37.2034 20.0599C36.6779 19.7629 36.0169 19.5154 35.2542 19.3504C36.1695 18.872 36.8983 18.278 37.3898 17.5521C37.9322 16.8592 38.2712 15.9683 38.4576 14.9124C38.7627 13.1635 38.4915 11.7942 37.6271 10.8702C36.7457 9.96283 35.3051 9.48438 33.2712 9.48438H23.983L20.0847 30.6519H30C31.1864 30.6519 32.2712 30.5034 33.2542 30.2559C34.2373 29.9919 35.0847 29.596 35.8474 29.0845C36.6101 28.5731 37.2034 27.9131 37.7118 27.1377C38.2034 26.3623 38.5423 25.4879 38.7457 24.498C38.8644 23.871 38.8983 23.2441 38.8644 22.6996C38.8644 22.1387 38.661 21.6107 38.3898 21.1818ZM28.9152 13.708H30.7118C32.5084 13.708 33.2712 14.4009 33.0339 15.7703C32.7627 17.1232 31.7796 17.8326 29.983 17.8326H28.1864L28.9152 13.708ZM33.0847 24.201C32.8983 24.9269 32.4745 25.4714 31.7796 25.8343C31.1017 26.2138 30.0169 26.3788 28.5762 26.3788H26.5762L27.4237 21.9077H29.4406C30.8983 21.9077 31.8813 22.0892 32.4576 22.4522C33.0508 22.8316 33.2542 23.3926 33.0847 24.201Z" fill="#050D29"/>
</svg>