<svg xmlns="http://www.w3.org/2000/svg" width="40" height="14" viewBox="0 0 40 14" fill="none">
  <path d="M7.24325 0.223999C6.4 0.223999 5.72973 0.901595 5.72973 1.75405V3.65569C5.70811 3.65569 5.68649 3.65569 5.64324 3.65569H2.83243C2.20541 3.65569 1.6 3.91799 1.16757 4.35515C0.735137 4.79231 0.475677 5.40433 0.475677 6.03821V11.153C0.475677 11.7868 0.713516 12.377 1.16757 12.836C1.62162 13.295 2.20541 13.5355 2.83243 13.5355H6.42162C7.04865 13.5355 7.63243 13.2732 8.08649 12.8142C8.51892 12.377 8.75676 11.765 8.75676 11.1311V1.7322C8.75676 0.923453 8.08649 0.223999 7.24325 0.223999ZM5.72973 10.4972H3.52433V6.73766H5.64324C5.66487 6.73766 5.68649 6.73766 5.72973 6.73766V10.4972V10.4972Z" fill="#29E3C1"/>
  <path d="M37.7946 10.4972H36.6919V6.80323H37.7297C38.573 6.80323 39.2432 6.12563 39.2432 5.27317C39.2432 4.42071 38.573 3.74312 37.7297 3.74312H36.6919V1.7759C36.6919 0.923445 36.0216 0.24585 35.1784 0.24585C34.3351 0.24585 33.6649 0.923445 33.6649 1.7759V3.74312H32.4973C31.6541 3.74312 30.9838 4.42071 30.9838 5.27317C30.9838 6.12563 31.6541 6.80323 32.4973 6.80323H33.6649V11.8961C33.6649 11.9398 33.6432 11.9836 33.6432 12.0273C33.6432 12.8797 34.3135 13.5573 35.1568 13.5573H37.7946C38.6378 13.5573 39.3081 12.8797 39.3081 12.0273C39.3081 11.1748 38.6162 10.4972 37.7946 10.4972Z" fill="#29E3C1"/>
  <path d="M17.6432 0.376953H14.4649C13.0595 0.376953 11.9135 1.53542 11.9135 2.97805V10.9125C11.9135 12.3551 13.0595 13.5136 14.4649 13.5136H17.6432C19.0486 13.5136 20.1946 12.3551 20.1946 10.9125V2.97805C20.1946 1.55728 19.0486 0.376953 17.6432 0.376953ZM17.1676 10.4535H14.9622V3.45892H17.1676V10.4535Z" fill="#29E3C1"/>
  <path d="M28.9946 10.4972H28.3027V1.77591C28.3027 0.989026 27.7189 0.355146 26.9838 0.267714C26.8757 0.245856 26.7892 0.223999 26.6811 0.223999H24C23.1568 0.223999 22.4865 0.901595 22.4865 1.75405C22.4865 2.60651 23.1568 3.28411 24 3.28411H25.2541V10.4972H24.1514C23.3081 10.4972 22.6378 11.1748 22.6378 12.0273C22.6378 12.8797 23.3081 13.5573 24.1514 13.5573H28.9946C29.8378 13.5573 30.5081 12.8797 30.5081 12.0273C30.5081 11.1748 29.8162 10.4972 28.9946 10.4972Z" fill="#29E3C1"/>
</svg>