<svg xmlns="http://www.w3.org/2000/svg" width="40" height="40" viewBox="0 0 40 40" fill="none">
  <path fill-rule="evenodd" clip-rule="evenodd" d="M9.10768 30.7385C9.47691 33.6615 11.0769 35.8462 13.5077 38.0308L12.6461 37.6C5.75383 34.6154 0.923065 27.7539 0.923065 19.7846C0.923065 9.63078 8.73845 1.20001 18.8923 0.461548C8.76922 1.20001 0.923065 9.66155 0.923065 19.7846C0.923065 9.63078 8.73845 1.20001 18.8923 0.461548C7.26153 2.7077 -3.87694 16.1231 9.10768 30.7385Z" fill="#111111"/>
  <path fill-rule="evenodd" clip-rule="evenodd" d="M35.6 13.5693C34.7385 7.29234 29.9077 2.89234 21.1385 0.369263C31.5077 0.830801 39.6615 9.35388 39.6615 19.7231C39.6615 30.4308 31.6 38.7077 21.1077 39.2C20.1231 39.2616 19.1385 39.077 18.1538 38.7693V16.9231C18.4615 16.4308 18.4615 15.9693 18.1538 15.477V10.8616H19.2308C18.8 10.5846 18.4615 10.3693 18.1538 10.2462V8.89234C23.7846 11.0462 26.3692 11.2923 26 9.60003C26.4923 10.9846 26.0615 11.6 24.7385 11.477C23.2 11.2308 22.2462 11.3539 21.8462 11.8154C24.6154 13.2 26.0923 14.5231 26.2769 15.8154C26.5538 18 25.5077 20.4 23.2 23.0154C21.7231 24.8308 22.4923 26.7693 24.8615 27.077C32.1846 26.7077 35.7846 22.2154 35.6 13.5693ZM18.1538 38.8C15.9077 38.0923 13.9077 36.7077 12.9231 35.7231C11.2 33.9385 10 31.0462 9.56923 26.8923C9.56923 26.8616 9.56923 26.8308 9.56923 26.8308V25.4154C9.84615 22.0923 12.0615 19.7231 16.2462 18.3693C17.2 17.9077 17.8462 17.4154 18.1538 16.9539V38.8ZM18.1538 15.5077C18.0308 15.2923 17.8154 15.077 17.5692 14.8616C17.3538 14.6462 16.8615 14.4 16.0923 14.1846C14.4 14.1231 13.4769 14.5539 13.3231 15.477C10.4308 14.1846 10.3385 12.7385 13.0769 11.077C13.6 10.8616 14.4 10.8 15.4154 10.8308C14.9846 8.95388 15.7231 8.21542 17.5692 8.67695C17.7538 8.73849 17.9385 8.8308 18.1538 8.89234V10.2462C17.2923 9.84619 16.9538 10.0616 17.1385 10.8616H18.1538V15.5077Z" fill="#111111"/>
  <path fill-rule="evenodd" clip-rule="evenodd" d="M9.01538 30.9538C9.38461 33.8769 10.9846 36.0615 13.4154 38.2461L12.5538 37.8153C5.66154 34.8307 0.830765 27.9692 0.830765 20C0.830765 9.84612 8.64615 1.41535 18.8 0.676888C8.61538 1.41535 0.769226 9.84612 0.769226 19.9692C0.769226 9.81535 8.58461 1.38458 18.7385 0.646118C7.13846 2.95381 -3.96923 16.3384 9.01538 30.9538Z" fill="url(#paint0_linear_177_124)"/>
  <path fill-rule="evenodd" clip-rule="evenodd" d="M35.4769 13.8154C34.6154 7.53843 29.7846 3.13843 21.0154 0.615356C31.3846 1.07689 39.5385 9.59997 39.5385 19.9692C39.5385 30.6769 31.4769 38.9538 20.9846 39.4461C20 39.5077 19.0461 39.3231 18.0615 39.0154V17.1692C18.3692 16.6769 18.3692 16.2154 18.0615 15.723V11.0769H19.1077C18.6769 10.8 18.3692 10.5846 18.0615 10.4615L18.0308 9.10766C23.6615 11.2615 26.2461 11.5077 25.8769 9.81536C26.3692 11.2 25.9385 11.8154 24.6154 11.6923C23.0769 11.4461 22.1231 11.5692 21.7231 12.0307C24.4923 13.4154 25.9692 14.7384 26.1538 16.0307C26.4308 18.2154 25.3846 20.6154 23.0769 23.2307C21.6 25.0461 22.3692 26.9846 24.7384 27.2923C32.0923 26.9538 35.6615 22.4307 35.4769 13.8154ZM18.0615 39.0154C15.8154 38.3077 13.8154 36.9231 12.8308 35.9384C11.1077 34.1538 9.90768 31.2615 9.47691 27.1077C9.47691 27.0769 9.47691 27.0461 9.47691 27.0461V25.6307C9.75384 22.3077 11.9692 19.9384 16.1538 18.5846C17.1077 18.123 17.7538 17.6307 18.0615 17.1692V39.0154ZM18.0615 15.723C17.9385 15.5077 17.7231 15.2923 17.4769 15.0769C17.2615 14.8615 16.7692 14.6154 16 14.4C14.3077 14.3384 13.3846 14.7692 13.2308 15.6923C10.3385 14.4 10.2461 12.9538 12.9846 11.2923C13.5077 11.0769 14.3077 11.0154 15.3231 11.0461C14.8923 9.1692 15.6308 8.43074 17.4769 8.89228C17.6615 8.95382 17.8154 9.04613 18.0308 9.10766L18.0615 10.4615C17.2 10.0615 16.8615 10.2769 17.0461 11.0769H18.0615V15.723Z" fill="url(#paint1_linear_177_124)"/>
  <defs>
    <linearGradient id="paint0_linear_177_124" x1="9.75883" y1="38.2379" x2="9.75883" y2="0.648211" gradientUnits="userSpaceOnUse">
      <stop stop-color="#F40A0B"/>
      <stop offset="1" stop-color="#F5E710"/>
    </linearGradient>
    <linearGradient id="paint1_linear_177_124" x1="24.5003" y1="39.4911" x2="24.5003" y2="0.657816" gradientUnits="userSpaceOnUse">
      <stop stop-color="#F40A0B"/>
      <stop offset="1" stop-color="#F5E710"/>
    </linearGradient>
  </defs>
</svg>