<svg xmlns="http://www.w3.org/2000/svg" width="40" height="40" viewBox="0 0 40 40" fill="none">
  <path d="M20.0016 10.7301L29.1398 15.7959V13.7649L20.0016 8.71077C18.6424 9.46359 12.0738 13.0983 10.8634 13.7649C11.9876 14.3883 23.7932 20.9166 30.969 24.8846V26.9078C29.9937 27.4489 20.0016 32.9735 20.0016 32.9735C17.2676 31.4639 11.7643 28.4213 9.03423 26.9078V20.8421L20.0016 26.9078L21.8308 25.8962L7.20503 17.8113V27.9233L20.0016 34.9967C21.2629 34.2988 31.8621 28.437 32.7943 27.9194V23.8769L14.5179 13.7649L20.0016 10.7301ZM7.20503 11.7417V15.7881L25.4814 25.9001L19.9977 28.9349L10.8595 23.8691V25.9001L19.9977 30.9542C21.3569 30.2014 27.9256 26.5667 29.1359 25.9001C28.0117 25.2767 16.21 18.7484 9.03423 14.7765V12.7533C10.0095 12.2122 20.0016 6.68757 20.0016 6.68757C22.7317 8.20105 28.235 11.2437 30.969 12.7533V18.8189L20.0016 12.7533L18.1724 13.7649L32.7943 21.8537V11.7417L20.0016 4.66437C18.7364 5.36622 8.14117 11.228 7.20503 11.7417ZM20.0016 0.621887L3.55054 9.72237V29.9426L20.0016 39.0431L36.4527 29.9465V9.72237L20.0016 0.621887ZM34.6196 28.931L20.0016 37.0199L5.37974 28.931V10.734L20.0016 2.64509L34.6235 10.734L34.6196 28.931Z" fill="url(#paint0_linear_155_2173)"/>
  <defs>
    <linearGradient id="paint0_linear_155_2173" x1="11.5155" y1="5.11908" x2="28.5155" y2="34.5338" gradientUnits="userSpaceOnUse">
      <stop stop-color="#FF00A0"/>
      <stop offset="1" stop-color="#9600FF"/>
    </linearGradient>
  </defs>
</svg>