<svg xmlns="http://www.w3.org/2000/svg" width="40" height="40" viewBox="0 0 40 40" fill="none">
  <path d="M2.1775 35.2068C2.1775 33.7622 3.35329 32.5878 4.79952 32.5878C6.24482 32.5878 7.42148 33.7622 7.42148 35.2068C7.42148 36.6505 6.24482 37.8249 4.79952 37.8249C3.35329 37.8249 2.1775 36.6505 2.1775 35.2068ZM25.3847 34.1198H9.46333C9.34219 33.6021 9.13549 33.1209 8.86225 32.6834L17.4796 24.0622C18.2136 24.5189 19.0724 24.7945 19.9996 24.7945C22.2709 24.7945 24.1679 23.2071 24.6643 21.0875H25.3847C28.982 21.0875 31.9073 24.0103 31.9073 27.6037C31.9073 31.196 28.982 34.1198 25.3847 34.1198ZM35.2005 7.4131C33.7542 7.4131 32.5785 6.23778 32.5785 4.79406C32.5785 3.34947 33.7542 2.17509 35.2005 2.17509C36.6458 2.17509 37.8225 3.34947 37.8225 4.79406C37.8225 6.23778 36.6458 7.4131 35.2005 7.4131ZM14.7373 5.88118H30.5367C30.6578 6.39789 30.8645 6.88002 31.1378 7.31843L22.5204 15.9396C21.7864 15.4829 20.9267 15.2073 19.9996 15.2073C17.73 15.2073 15.833 16.7938 15.3366 18.9125H14.7373C11.14 18.9125 8.21382 15.9897 8.21382 12.3973C8.21382 8.804 11.14 5.88118 14.7373 5.88118ZM22.6215 20.0014C22.6215 21.4451 21.4458 22.6194 19.9996 22.6194C18.5542 22.6194 17.3785 21.4451 17.3785 20.0014C17.3785 18.5568 18.5542 17.3824 19.9996 17.3824C21.4458 17.3824 22.6215 18.5568 22.6215 20.0014ZM0 35.2068C0 37.8495 2.15293 40 4.79952 40C7.06992 40 8.967 38.4126 9.46333 36.2939H25.3847C30.1824 36.2939 34.0857 32.3959 34.0857 27.6037C34.0857 22.8114 30.1824 18.9125 25.3847 18.9125H24.6634C24.5422 18.3958 24.3364 17.9137 24.0623 17.4761L32.6787 8.85495C33.4128 9.3116 34.2733 9.58726 35.2005 9.58726C37.8471 9.58726 40 7.43764 40 4.79406C40 2.15055 37.8471 0 35.2005 0C32.9301 0 31.033 1.5874 30.5367 3.70608H14.7373C9.93968 3.70608 6.03624 7.605 6.03624 12.3973C6.03624 17.1886 9.93968 21.0875 14.7373 21.0875H15.3366C15.4578 21.6052 15.6635 22.0873 15.9377 22.5248L7.32132 31.146C6.58631 30.6884 5.72665 30.4119 4.79952 30.4119C2.15293 30.4119 0 32.5633 0 35.2068Z" fill="#04A1E9"/>
</svg>