<svg xmlns="http://www.w3.org/2000/svg" width="40" height="40" viewBox="0 0 40 40" fill="none">
  <path d="M20.5281 5C23.0811 5 25.6341 5 28.187 5C33.0475 5.05021 37.5642 8.21373 39.2335 12.8837C39.9699 14.8923 40.1172 16.9511 39.9208 19.1103C39.6263 22.2236 38.6934 25.136 36.9751 27.7472C34.3239 31.7644 30.5436 34.024 25.8795 34.727C24.3085 34.9781 22.6883 34.9279 21.1173 34.9279C20.479 34.9279 20.0863 34.6266 20.0863 34.0742C20.0372 33.4717 20.4299 33.0197 21.0682 32.9695C21.8046 32.9193 22.4919 32.9695 23.2284 32.9193C27.5979 32.8189 31.4273 31.2622 34.4221 27.948C36.5332 25.6382 37.6133 22.776 37.957 19.6627C38.2025 17.5034 38.2025 15.3442 37.3679 13.2854C36.0914 10.1219 33.7839 8.21373 30.5927 7.30987C29.3653 6.95837 28.0888 6.90815 26.8123 6.90815C22.0992 6.85794 17.386 6.90815 12.6729 6.90815C12.4765 6.90815 12.2801 6.90815 12.0837 6.90815C11.5928 6.85794 11.2491 6.45622 11.2 6.00429C11.2 5.55236 11.4946 5.15065 11.9364 5.05022C12.1328 5 12.3783 5 12.5747 5C15.2749 5 17.9261 5 20.5281 5Z" fill="#29F1FB"/>
  <path d="M15.6894 27.9991H7.1555C6.95703 27.9991 6.80819 27.9991 6.60972 27.9991C6.11357 27.9488 5.81587 27.647 5.76626 27.1441C5.71664 26.6411 5.96472 26.2891 6.41126 26.1382C6.70895 26.0376 7.00665 26.0376 7.35396 26.0376C12.9605 26.0376 18.6167 26.0376 24.2233 26.0376C26.208 26.0376 27.8949 25.2832 29.2345 23.8247C30.3757 22.5673 31.0207 21.0585 31.1695 19.3485C31.3184 17.9906 31.1199 16.7835 30.3261 15.677C29.433 14.47 28.1926 13.8664 26.7041 13.8161C21.3952 13.8161 16.0863 13.8161 10.7774 13.8161C10.2317 13.8161 9.63629 13.7658 9.09051 13.7155C8.59435 13.6652 8.34628 13.3635 8.29666 12.8605C8.24704 12.3073 8.54474 11.9552 9.0409 11.8547C9.18974 11.8547 9.38821 11.8044 9.53705 11.8547C15.2429 11.8547 20.9487 11.8547 26.6545 11.8547C29.5322 11.8547 32.013 13.615 32.9061 16.3811C33.5511 18.3426 33.303 20.3041 32.6084 22.2153C31.2192 25.8364 27.9941 28.0997 24.1241 28.0997C21.2464 27.9991 18.4679 27.9991 15.6894 27.9991Z" fill="#29F1FB"/>
  <path d="M3.06462 13.7624C2.41266 13.7624 1.71054 13.7624 1.05857 13.7624C0.506905 13.7624 0.0555431 13.416 0.00539178 12.9211C-0.0447595 12.4262 0.256148 12.0303 0.857964 11.8818C1.20902 11.8323 1.50993 11.8323 1.86099 11.8323C2.76371 11.8323 3.66644 11.8323 4.56916 11.8323C4.87007 11.8323 5.12083 11.8818 5.37158 11.9313C5.8731 12.0303 6.12385 12.4757 6.0737 12.9706C6.02355 13.4655 5.72264 13.7624 5.22113 13.7624C4.51901 13.8119 3.76674 13.7624 3.06462 13.7624Z" fill="#29F1FB"/>
  <path d="M15.0917 34.932C14.4963 34.932 13.8512 34.932 13.2062 34.932C12.6108 34.932 12.2138 34.5383 12.1642 33.976C12.1146 33.3575 12.5115 32.8514 13.0573 32.7389C14.3971 32.6264 15.7368 32.6264 17.0269 32.7389C17.5231 32.7389 17.92 33.245 17.92 33.8073V33.8635C17.8704 34.4821 17.4734 34.8757 16.878 34.8757L15.0917 34.932Z" fill="#29F1FB"/>
</svg>