<svg xmlns="http://www.w3.org/2000/svg" width="39" height="39" viewBox="0 0 39 39" fill="none">
  <path d="M0.567276 19.2546V31.6909C0.567276 35.3455 3.51273 38.2909 7.16727 38.2909H31.9582C35.6127 38.2909 38.5582 35.3455 38.5582 31.6909V19.2546H0.567276ZM16.14 29.1818C16.0036 29.8364 15.7855 30.3273 15.4309 30.6546C15.3764 30.7091 15.3218 30.7364 15.2673 30.7909C15.1855 30.8455 15.1036 30.9 15.0218 30.9546C14.8855 31.0364 14.7491 31.0909 14.5855 31.1455C14.5036 31.1728 14.4491 31.2 14.3673 31.2C14.1491 31.2546 13.9036 31.2818 13.6309 31.2818C12.84 31.2818 12.0491 31.2818 11.2582 31.2818H11.2036C11.1764 31.2818 11.1491 31.2818 11.1218 31.2818C11.0945 31.2818 11.0945 31.2818 11.0673 31.2818C11.04 31.2818 11.04 31.2546 11.0127 31.2546C10.9855 31.2546 10.9855 31.2273 10.9582 31.2273C10.9036 31.1728 10.8764 31.0637 10.8764 30.9273C10.9036 29.7 10.8764 28.4455 10.8764 27.1909C10.8764 26.0182 10.9036 24.8182 10.8764 23.6455C10.8491 23.3728 10.9036 23.2091 11.0673 23.1546C11.0945 23.1546 11.1218 23.1273 11.1218 23.1273C11.1491 23.1273 11.1491 23.1273 11.1764 23.1273C11.2582 23.1273 11.3127 23.1 11.4218 23.1273C12.1309 23.1546 12.84 23.1273 13.5491 23.1273C13.8491 23.1273 14.1218 23.1546 14.3673 23.2091C14.4491 23.2364 14.5309 23.2364 14.6127 23.2637C14.8855 23.3455 15.1582 23.4818 15.3491 23.6455C15.4582 23.7273 15.5673 23.8364 15.6491 23.9728C15.9218 24.3273 16.1127 24.7909 16.1945 25.3909C16.3855 26.6455 16.3855 27.9273 16.14 29.1818ZM22.5764 29.7C22.4945 30.0818 22.3309 30.3818 22.0855 30.6273C22.0309 30.6818 21.9764 30.7364 21.9218 30.7637C21.5945 31.0364 21.1309 31.2 20.6127 31.2546C20.5309 31.2546 20.4218 31.2818 20.34 31.2818C19.44 31.2818 18.54 31.2818 17.64 31.2818C17.5036 31.2818 17.3945 31.2546 17.3673 31.1728C17.34 31.1182 17.34 31.0637 17.34 30.9546C17.34 28.4455 17.34 25.9637 17.34 23.4546C17.34 23.3455 17.3127 23.1818 17.4218 23.1273C17.4491 23.1273 17.5036 23.1 17.5309 23.1C18.6764 23.1273 19.7945 22.9909 20.9127 23.1818C21.84 23.3455 22.2764 23.8909 22.4127 24.8728C22.4673 25.2546 22.44 25.5818 22.3309 25.8818C22.2764 26.0182 22.2218 26.1273 22.1673 26.2364C22.1127 26.3182 22.0582 26.3728 22.0036 26.4273C21.9764 26.4546 21.9491 26.4818 21.9218 26.5091C21.84 26.5909 21.7309 26.7 21.5945 26.7546C21.5673 26.7818 21.5127 26.8091 21.4855 26.8364C21.4582 26.8637 21.4036 26.8909 21.3491 26.8909C21.3491 26.8909 21.3491 26.8909 21.3764 26.9182C21.3764 26.9455 21.4036 26.9455 21.4036 26.9455C21.4036 26.9455 21.4036 26.9455 21.4309 26.9455C22.5491 27.6546 22.8764 28.3909 22.5764 29.7ZM27.9218 31.2546C27.8945 31.2546 27.8673 31.2546 27.84 31.2546C27.8127 31.2546 27.7855 31.2546 27.7582 31.2546H27.7309C27.7036 31.2546 27.6491 31.2546 27.6218 31.2546C27.54 31.2546 27.4582 31.2546 27.3491 31.2546C26.1218 31.2546 24.8945 31.2546 23.6673 31.2546C23.5855 31.2546 23.5309 31.2546 23.4764 31.2546C23.4491 31.2546 23.4491 31.2546 23.4218 31.2546C23.3945 31.2546 23.3945 31.2546 23.3673 31.2273C23.2582 31.1728 23.2309 31.0637 23.2582 30.8182C23.34 29.7546 23.8309 28.9091 24.5673 28.1728C25.0036 27.7364 25.44 27.3273 25.9036 26.9182C26.5309 26.3728 26.6127 25.6637 26.5036 24.9C26.4764 24.7091 26.3945 24.5728 26.2855 24.4637C26.2309 24.4091 26.1764 24.3818 26.0945 24.3546C26.0945 24.3546 26.0673 24.3546 26.0673 24.3273C26.0127 24.3 25.9582 24.3 25.8764 24.2728H25.8491C25.8218 24.2728 25.7945 24.2728 25.7673 24.2728C25.7127 24.2728 25.6855 24.2728 25.6309 24.2728C25.5764 24.2728 25.4945 24.3 25.44 24.3273H25.4127C25.4127 24.3273 25.3855 24.3273 25.3855 24.3546C25.3582 24.3818 25.3309 24.3818 25.3036 24.4091C25.2764 24.4091 25.2764 24.4364 25.2491 24.4637C25.2218 24.4909 25.2218 24.4909 25.1945 24.5182C25.14 24.5728 25.1127 24.6273 25.0582 24.7091C24.9491 24.9546 24.8673 25.2273 24.8945 25.4728C24.8945 25.7182 24.84 25.8 24.7036 25.8273C24.6491 25.8546 24.5673 25.8546 24.4582 25.8273C24.3218 25.8 24.1582 25.8273 24.0218 25.8273C23.94 25.8273 23.8582 25.8273 23.8036 25.8273C23.64 25.8273 23.5309 25.8273 23.4491 25.8C23.4218 25.8 23.4218 25.8 23.4218 25.8C23.3945 25.8 23.3945 25.8 23.3673 25.7728C23.34 25.7728 23.34 25.7455 23.34 25.7455C23.2582 25.6637 23.2855 25.5273 23.3127 25.2273C23.3945 24.4637 23.6673 23.9182 24.1309 23.5909C24.1855 23.5637 24.24 23.5091 24.2945 23.4818C24.3491 23.4546 24.4036 23.4273 24.4582 23.4C24.5127 23.3728 24.5673 23.3455 24.6218 23.3182C24.6491 23.2909 24.6764 23.2909 24.7309 23.2909C24.7582 23.2909 24.7855 23.2637 24.8127 23.2637C24.8673 23.2364 24.9491 23.2364 25.0036 23.2091C25.0309 23.2091 25.0855 23.1818 25.1127 23.1818C25.14 23.1818 25.1945 23.1818 25.2218 23.1546C25.3036 23.1546 25.3582 23.1273 25.44 23.1273C25.5491 23.1273 25.6855 23.1273 25.8218 23.1273C25.9036 23.1273 25.9855 23.1273 26.0673 23.1273C26.0945 23.1273 26.0945 23.1273 26.1218 23.1273C26.1491 23.1273 26.1491 23.1273 26.1764 23.1273C26.2582 23.1273 26.3127 23.1546 26.3945 23.1546C26.4764 23.1546 26.5582 23.1818 26.64 23.2091C26.7218 23.2364 26.8036 23.2364 26.8582 23.2637C26.8855 23.2637 26.8855 23.2637 26.9127 23.2909C26.9673 23.3182 27.0218 23.3455 27.1036 23.3728C27.1855 23.4 27.24 23.4273 27.2945 23.4818C27.3491 23.5091 27.4309 23.5637 27.4855 23.5909C27.54 23.6182 27.5945 23.6728 27.6491 23.7273C28.2764 24.2728 28.4673 25.1455 28.1673 26.2637C28.0036 26.8091 27.7036 27.2728 27.2945 27.6546C26.8309 28.0909 26.3673 28.5 25.9309 28.9364C25.6582 29.2091 25.4127 29.5364 25.2764 29.9455C26.2309 29.9455 27.1036 29.9455 27.9764 29.9455C28.0036 29.9455 28.0309 29.9455 28.0309 29.9455C28.0582 29.9455 28.0582 29.9455 28.0855 29.9455C28.1127 29.9455 28.1127 29.9455 28.14 29.9455C28.1673 29.9455 28.1673 29.9455 28.1945 29.9728H28.2218C28.2491 29.9728 28.2491 30 28.2764 30C28.3309 30.0546 28.3582 30.1364 28.3582 30.2728C28.2491 31.0364 28.2491 31.2 27.9218 31.2546Z" fill="#00992C"/>
  <path d="M31.9582 0.300026H7.16727C3.54 0.300026 0.567276 3.27275 0.567276 6.90003V19.1455C0.594549 19.1455 0.594548 19.1455 0.621821 19.1182C0.785457 19.0637 0.976366 19.0637 1.14 19.0637H37.74C37.9309 19.0637 38.0945 19.0364 38.2855 19.0637C38.34 19.0637 38.3945 19.0637 38.4218 19.0909C38.4764 19.0909 38.5036 19.1182 38.5582 19.1455V6.90003C38.5582 3.27275 35.6127 0.300026 31.9582 0.300026ZM15.7582 8.83639C15.7855 8.83639 15.8127 8.83639 15.84 8.83639H15.8673C15.8945 8.83639 15.8945 8.83639 15.9218 8.83639C15.9491 8.83639 15.9491 8.83639 15.9764 8.83639H16.0036C16.0309 8.83639 16.0582 8.86366 16.0582 8.86366L16.0855 8.89093L16.1127 8.91821C16.1127 8.94548 16.1127 8.94548 16.1127 8.94548C16.1127 9.0273 16.0855 9.13639 16.1127 9.21821C16.14 9.35457 16.14 9.51821 16.0036 9.57275C15.9764 9.57275 15.9764 9.57275 15.9491 9.57275C15.9218 9.57275 15.8945 9.57275 15.84 9.57275C15.5945 9.54548 15.3491 9.57275 15.0764 9.57275H14.5036C14.04 9.57275 13.9309 9.38184 14.04 8.94548C14.0673 8.83639 14.1218 8.80912 14.1764 8.80912C14.2036 8.80912 14.2582 8.80912 14.2855 8.80912C14.7764 8.86366 15.2673 8.86366 15.7582 8.83639ZM18.4855 8.83639C18.7309 8.86366 18.9764 8.83639 19.2218 8.83639C19.44 8.83639 19.6582 8.80912 19.8764 8.83639C19.9036 8.83639 19.9309 8.83639 19.9582 8.83639C19.9855 8.83639 19.9855 8.83639 20.0127 8.83639C20.1491 8.80912 20.3127 8.80912 20.2855 9.08184C20.2582 9.21821 20.2855 9.35457 20.2309 9.46366C20.2309 9.49093 20.2036 9.51821 20.2036 9.51821C20.1491 9.60002 20.04 9.65457 19.8491 9.6273C19.3855 9.60003 18.9218 9.60003 18.4309 9.6273C18.1036 9.65457 18.1036 9.46366 18.1036 9.21821C18.1036 9.10912 18.1036 9.0273 18.1309 8.94548C18.1309 8.91821 18.1582 8.91821 18.1582 8.91821C18.24 8.86366 18.3218 8.83639 18.4855 8.83639ZM19.8764 10.2818C19.6309 10.8 19.3582 11.0728 18.7582 11.0455C17.34 10.9909 15.8945 11.0182 14.4764 11.0455C14.3945 11.0455 14.3127 11.0455 14.2582 11.0182H14.2309C14.2036 11.0182 14.2036 11.0182 14.1764 10.9909H14.1491C14.1218 10.9909 14.1218 10.9637 14.0945 10.9637C14.0673 10.9364 14.0673 10.9364 14.0673 10.9091C14.0673 10.8818 14.04 10.8546 14.04 10.8273C14.04 10.8273 14.04 10.8 14.04 10.7728C14.04 10.7455 14.04 10.6909 14.04 10.6364C14.04 10.6091 14.04 10.5818 14.04 10.5546C14.04 10.5273 14.04 10.5273 14.04 10.5273C14.04 10.5 14.04 10.5 14.04 10.4728C14.04 10.4455 14.0673 10.4182 14.0673 10.4182C14.0673 10.3909 14.0945 10.3909 14.0945 10.3637C14.1218 10.3364 14.1218 10.3364 14.1491 10.3364C14.1764 10.3364 14.1764 10.3091 14.2036 10.3091C14.2582 10.2818 14.34 10.2818 14.4218 10.2818C16.2218 10.2818 18.0218 10.2818 19.8764 10.2818ZM14.34 12.4909C14.0127 12.4909 14.0673 12.3 14.0673 12.0818V11.9728C14.0673 11.9455 14.0673 11.8909 14.0673 11.8637C14.0673 11.8364 14.0673 11.8364 14.0673 11.8091C14.0673 11.8091 14.0673 11.7818 14.0945 11.7818C14.0945 11.7818 14.0945 11.7546 14.1218 11.7546L14.1491 11.7273C14.1491 11.7 14.1764 11.7 14.2036 11.7H14.2309C14.2582 11.7 14.2855 11.6728 14.3127 11.6728C14.34 11.6728 14.3673 11.6728 14.3945 11.6728C15.9764 11.7 17.5582 11.6728 19.14 11.6728C19.1673 11.6728 19.1945 11.6728 19.2218 11.6728C19.2491 11.6728 19.2491 11.6728 19.2764 11.6728C19.3036 11.6728 19.3036 11.6728 19.3309 11.6728C19.3582 11.6728 19.3855 11.7 19.4127 11.7273C19.4127 11.7273 19.44 11.7273 19.44 11.7546C19.4673 11.7546 19.4673 11.7818 19.4945 11.7818C19.5218 11.8091 19.5218 11.8091 19.5491 11.8364C19.5764 11.8637 19.6036 11.8909 19.6309 11.9182C19.7127 12.0546 19.7673 12.1909 19.8491 12.3273C19.8764 12.3546 19.8764 12.3818 19.9036 12.4091C18.0218 12.4909 16.1673 12.4637 14.34 12.4909ZM14.5309 13.9364C14.0673 14.0182 14.0127 13.7728 14.04 13.4182C14.04 13.3909 14.04 13.3909 14.04 13.3637C14.04 13.2818 14.0673 13.2273 14.1218 13.2L14.1491 13.1728C14.1764 13.1728 14.2036 13.1455 14.2036 13.1455C14.2309 13.1455 14.2582 13.1455 14.2855 13.1455C14.8036 13.1455 15.3218 13.1728 15.84 13.1455C16.1945 13.1455 16.0855 13.3637 16.1127 13.5546C16.1127 13.7728 16.14 13.9637 15.8127 13.9364C15.5673 13.9091 15.3218 13.9364 15.0764 13.9364C14.9127 13.9364 14.7218 13.9091 14.5309 13.9364ZM16.4945 14.5637C17.6127 14.5637 18.7309 14.5637 19.8491 14.5637C19.8764 14.5637 19.9309 14.5637 19.9855 14.5637C20.0127 14.5637 20.0673 14.5637 20.0945 14.5637C20.1218 14.5637 20.1218 14.5637 20.1491 14.5637H20.1764C20.2036 14.5637 20.2036 14.5637 20.2036 14.5909L20.2309 14.6182V14.6455C20.2309 14.6728 20.2309 14.6728 20.2309 14.6728V14.7C20.2036 14.9455 20.2309 15.3 19.8218 15.3273C19.74 15.3273 19.6582 15.3273 19.5764 15.3273H13.1127C12.8945 15.3273 12.7309 15.3273 12.6764 15.1637C12.6764 15.1364 12.6491 15.1091 12.6491 15.0818C12.6491 15.0546 12.6491 15 12.6491 14.9728C12.6491 14.9455 12.6491 14.8909 12.6491 14.8637C12.6491 14.8364 12.6491 14.8364 12.6491 14.8091C12.6491 14.7818 12.6491 14.7818 12.6491 14.7546V14.7273V14.7C12.6491 14.6728 12.6764 14.6728 12.6764 14.6455C12.6764 14.6455 12.6764 14.6182 12.7036 14.6182C12.7036 14.5909 12.7309 14.5909 12.7582 14.5637C12.7582 14.5637 12.7855 14.5637 12.7855 14.5364C12.7855 14.5364 12.8127 14.5364 12.8127 14.5091C12.84 14.5091 12.84 14.5091 12.84 14.5091C12.8945 14.4818 12.9764 14.4818 13.0855 14.4818C14.2582 14.5637 15.3764 14.5637 16.4945 14.5637ZM12.6764 16.2546C12.6764 16.2273 12.6764 16.2 12.6764 16.2C12.6764 16.1728 12.6764 16.1455 12.7036 16.1455C12.7036 16.1182 12.7309 16.1182 12.7309 16.1182L12.7582 16.0909C12.7855 16.0909 12.7855 16.0637 12.8127 16.0637C12.84 16.0637 12.8673 16.0637 12.8673 16.0364C12.8945 16.0364 12.9218 16.0364 12.9491 16.0364C15.1036 16.0637 17.2582 16.0364 19.5218 16.0364C19.4127 16.1455 19.3309 16.2273 19.2218 16.3091C19.1673 16.3637 19.1127 16.3909 19.0582 16.4182C19.0036 16.4455 18.9491 16.4728 18.9218 16.5C18.8945 16.5273 18.84 16.5273 18.8127 16.5546C18.7582 16.5818 18.7036 16.6091 18.6491 16.6364C18.5945 16.6637 18.54 16.6909 18.4855 16.6909C18.4309 16.7182 18.4036 16.7182 18.3491 16.7182C18.3218 16.7182 18.2945 16.7182 18.2673 16.7455C18.1855 16.7728 18.1036 16.7728 17.9945 16.8C17.94 16.8 17.8582 16.8 17.8036 16.8C17.0127 16.8 16.1945 16.8 15.4036 16.8C14.6127 16.8 13.7945 16.8 13.0036 16.8C12.9764 16.8 12.9491 16.8 12.9491 16.8C12.9218 16.8 12.9218 16.8 12.8945 16.8C12.8673 16.8 12.84 16.8 12.8127 16.7728C12.8127 16.7728 12.7855 16.7728 12.7855 16.7455C12.7582 16.7455 12.7582 16.7182 12.7582 16.7182C12.7309 16.7182 12.7309 16.6909 12.7309 16.6637V16.6364C12.7036 16.5818 12.7036 16.5546 12.7036 16.4728C12.7036 16.4455 12.7036 16.4455 12.7036 16.4182C12.7036 16.3909 12.6764 16.3091 12.6764 16.2546ZM21.2127 8.18184C21.1855 8.18184 21.1582 8.18184 21.1309 8.18184C21.1036 8.18184 21.1036 8.18184 21.1036 8.18184C21.0764 8.18184 21.0218 8.15457 20.9945 8.15457C20.9673 8.15457 20.9673 8.1273 20.9673 8.1273C20.94 8.1273 20.94 8.10003 20.94 8.10003C20.8855 8.04548 20.8855 7.93639 20.8855 7.8273C20.9127 7.63639 20.8309 7.41821 21.1036 7.39093C21.1309 7.39093 21.1582 7.39093 21.2127 7.39093H21.2673C22.4673 7.41821 23.6673 7.39093 24.8673 7.39093C25.0855 7.39093 25.44 7.93639 25.3309 8.1273C25.3036 8.18184 25.2764 8.18184 25.2218 8.20912C25.1673 8.20912 25.0855 8.20912 25.0309 8.20912H25.0036C24.3764 8.20912 23.7218 8.20912 23.0945 8.20912C22.9036 8.20912 22.7127 8.20912 22.5218 8.20912C22.0855 8.18184 21.6491 8.18184 21.2127 8.18184ZM22.2218 12.0273C22.2218 12 22.2218 11.9728 22.2218 11.9455C22.2218 11.9182 22.2218 11.8909 22.2218 11.8909C22.2491 11.7273 22.3309 11.7 22.4945 11.7C22.9855 11.7 23.4764 11.7273 23.9673 11.7C24.0491 11.7 24.1309 11.7 24.1582 11.7273L24.1855 11.7546L24.2127 11.7818V11.8091C24.2127 11.8091 24.2127 11.8091 24.2127 11.8364C24.2127 11.8637 24.2127 11.8909 24.2127 11.9182C24.2127 11.9728 24.2127 12 24.2127 12.0546C24.2127 12.2182 24.3218 12.4909 23.9673 12.4637C23.7218 12.4364 23.4764 12.4637 23.2036 12.4637C23.04 12.4637 22.8491 12.4364 22.6855 12.4637C22.4127 12.5182 22.2764 12.4364 22.2218 12.3C22.2218 12.2728 22.1945 12.2728 22.1945 12.2455C22.2218 12.2182 22.1945 12.1364 22.2218 12.0273ZM22.6309 13.1455C22.8218 13.1728 23.04 13.1455 23.2309 13.1455C23.3945 13.1455 23.5855 13.1728 23.7491 13.1455C23.8582 13.1182 23.94 13.1182 24.0218 13.1455C24.0491 13.1455 24.0491 13.1455 24.0764 13.1728C24.1036 13.1728 24.1036 13.1728 24.1036 13.2C24.1309 13.2 24.1309 13.2273 24.1309 13.2273L24.1582 13.2546C24.1855 13.2818 24.1855 13.2818 24.1855 13.3091V13.3364C24.1855 13.3637 24.1855 13.3637 24.2127 13.3909C24.24 13.4728 24.24 13.5818 24.2127 13.6909C24.2127 13.8818 24.1309 13.9637 23.94 13.9637C23.5036 13.9637 23.0673 13.9364 22.6309 13.9637C22.4673 13.9637 22.3309 13.9637 22.2764 13.8818L22.2491 13.8546C22.1945 13.8 22.1945 13.7182 22.1945 13.5818C22.2218 13.2273 22.3036 13.1182 22.6309 13.1455ZM24.24 16.4182C24.24 16.6091 24.2673 16.7728 24.0218 16.8C23.9945 16.8 23.9673 16.8 23.9127 16.8C22.9855 16.7728 22.0582 16.7728 21.1309 16.8H21.1036C21.0764 16.8 21.0491 16.8 21.0218 16.8C20.9945 16.8 20.9945 16.8 20.9673 16.8C20.8036 16.7455 20.8309 16.5818 20.8309 16.4182C20.8309 16.2273 20.8036 16.0637 20.9945 16.0364C21.0218 16.0364 21.0491 16.0364 21.1036 16.0364C21.5673 16.0637 22.0309 16.0364 22.4673 16.0364C22.9309 16.0364 23.4218 16.0637 23.8855 16.0364C23.9673 16.0364 23.9945 16.0364 24.0491 16.0637C24.2945 16.0909 24.24 16.2546 24.24 16.4182ZM31.44 16.8C31.1945 16.8 30.9764 16.8 30.7582 16.8H30.5673C29.94 16.8 29.3127 16.8 28.6855 16.8C28.3309 16.8 28.3855 16.6091 28.3855 16.4182C28.3855 16.3364 28.3855 16.2546 28.3855 16.2V16.1728C28.3855 16.1455 28.3855 16.1455 28.3855 16.1182C28.3855 16.0909 28.4127 16.0909 28.4127 16.0909L28.44 16.0637L28.4673 16.0364H28.4945C28.5218 16.0364 28.5218 16.0364 28.5491 16.0364C28.5764 16.0364 28.6309 16.0364 28.6582 16.0364C29.1218 16.0637 29.6127 16.0364 30.0764 16.0364C30.54 16.0364 31.0036 16.0637 31.44 16.0364C31.5218 16.0364 31.5764 16.0364 31.6036 16.0637C31.6309 16.0637 31.6309 16.0909 31.6582 16.0909C31.6855 16.0909 31.6855 16.1182 31.6855 16.1182C31.7127 16.1455 31.7127 16.1728 31.7127 16.2C31.74 16.2546 31.74 16.3091 31.7127 16.3637C31.7127 16.3909 31.7127 16.4182 31.7127 16.4455C31.6855 16.5818 31.7945 16.8 31.44 16.8ZM31.4127 15.3546C30.9491 15.3273 30.5127 15.3546 30.0491 15.3546C29.5855 15.3546 29.1491 15.3273 28.6855 15.3546C28.3309 15.3818 28.3855 15.1637 28.3582 14.9182C28.3582 14.7 28.3582 14.5364 28.6582 14.5364C29.5582 14.5637 30.4855 14.5637 31.3855 14.5364C31.5218 14.5364 31.6036 14.5637 31.6582 14.6182C31.6582 14.6182 31.6855 14.6455 31.6855 14.6728C31.7127 14.7273 31.7127 14.8364 31.7127 14.9182V14.9728C31.7127 15.1909 31.7127 15.3818 31.4127 15.3546ZM30.3764 12.2182C30.3764 12.3 30.3491 12.3546 30.3218 12.3818C30.3218 12.4091 30.2945 12.4091 30.2945 12.4091L30.2673 12.4364C30.2673 12.4364 30.24 12.4364 30.24 12.4637C30.2127 12.4637 30.2127 12.4637 30.1855 12.4637C30.1582 12.4637 30.1309 12.4637 30.1036 12.4637C29.6127 12.4637 29.1218 12.4364 28.6582 12.4637C28.3855 12.4637 28.3855 12.2728 28.4127 12.1091C28.4127 11.9728 28.3309 11.8091 28.4673 11.7273C28.4673 11.7273 28.4673 11.7273 28.4945 11.7273H28.5218C28.5491 11.7 28.6036 11.7 28.6582 11.7C28.9036 11.7 29.1491 11.7 29.4218 11.7C29.5309 11.7 29.6127 11.7 29.7218 11.7C29.8036 11.7 29.8855 11.7 29.9673 11.6728C29.9945 11.6728 29.9945 11.6728 30.0218 11.6728C30.0491 11.6728 30.0491 11.6728 30.0764 11.6728C30.1309 11.6728 30.1855 11.6728 30.24 11.6728C30.3764 11.7273 30.4036 11.9182 30.3764 12.2182ZM28.3582 13.3091C28.3582 13.2818 28.3582 13.2818 28.3855 13.2546C28.4127 13.2 28.4673 13.1728 28.5218 13.1455C28.5491 13.1455 28.5491 13.1455 28.5764 13.1455C28.6036 13.1455 28.6309 13.1455 28.6582 13.1455C28.7945 13.1455 28.9309 13.1455 29.0945 13.1455C29.4491 13.1455 29.7764 13.1455 30.1309 13.1455C30.1582 13.1455 30.2127 13.1455 30.24 13.1455C30.2673 13.1455 30.2673 13.1455 30.2945 13.1455C30.3218 13.1455 30.3218 13.1455 30.3218 13.1728C30.3218 13.1728 30.3491 13.1728 30.3491 13.2C30.3764 13.2273 30.3764 13.2546 30.3764 13.2818C30.4036 13.3637 30.3764 13.4455 30.3764 13.5273C30.3764 13.7182 30.4309 13.9637 30.1036 13.9364C29.8582 13.9091 29.6127 13.9364 29.3673 13.9364H28.8491C28.3855 13.9364 28.2491 13.7728 28.3582 13.3091ZM27.5945 12.4637C27.4855 12.4909 27.3491 12.4909 27.1309 12.4909H25.5218C24.84 12.4909 24.84 12.4909 24.6764 11.7273H27.9218C27.9218 11.7546 27.9218 11.7818 27.9218 11.8091C27.84 12.2728 27.8127 12.4091 27.5945 12.4637ZM26.2309 16.6364C26.2036 16.5818 26.1764 16.5273 26.1491 16.5C26.0945 16.3637 26.04 16.2 26.0945 16.0637C26.1218 16.0091 26.4491 16.0091 26.4764 16.0637C26.5036 16.0909 26.5036 16.1182 26.5036 16.1182C26.5036 16.1455 26.5036 16.1455 26.5309 16.1728C26.5309 16.2 26.5309 16.2 26.5309 16.2273C26.5582 16.4182 26.3945 16.5818 26.3127 16.8C26.3127 16.8 26.3127 16.8 26.3127 16.7728C26.2582 16.7182 26.2582 16.6909 26.2309 16.6364ZM26.5036 15.3818C26.4764 15.3818 26.4491 15.3818 26.4218 15.3818C26.2582 15.3546 26.0945 15.4091 25.9309 15.3818H25.9036H25.8764C25.8764 15.3818 25.8491 15.3818 25.8491 15.3546C25.7673 15.3 25.7127 15.2182 25.6582 15.0818C25.5764 14.8091 25.5764 14.6455 25.74 14.5909C25.7673 14.5909 25.7673 14.5909 25.7945 14.5909C25.8491 14.5909 25.9309 14.5909 26.0127 14.6182C26.04 14.6182 26.04 14.6182 26.0673 14.6182C26.1491 14.6182 26.2309 14.6182 26.3127 14.6182C26.3673 14.6182 26.4491 14.5909 26.5036 14.6182C26.5309 14.6455 26.5855 14.6455 26.64 14.6182C26.6673 14.6182 26.6945 14.6182 26.6945 14.6182C26.8582 14.5909 26.9945 14.5637 26.9945 14.8091C26.9673 15 26.9673 15.2182 26.8309 15.3546C26.8036 15.3818 26.7764 15.3818 26.7764 15.4091C26.7764 15.4091 26.7491 15.4091 26.7491 15.4364C26.7491 15.4364 26.7218 15.4364 26.7218 15.4637C26.6945 15.4637 26.64 15.4909 26.5855 15.4909C26.5309 15.3818 26.5036 15.3818 26.5036 15.3818ZM26.94 13.9364C26.5036 13.9091 26.0673 13.9364 25.6309 13.9364C25.4945 13.9364 25.3855 13.9364 25.3036 13.7728C25.2218 13.6091 25.1673 13.5 25.1673 13.4182C25.1673 13.3909 25.1673 13.3637 25.1673 13.3364C25.1673 13.2 25.3309 13.1728 25.7127 13.1728H26.3673C26.5855 13.1728 26.8036 13.1455 27.0218 13.1728C27.0764 13.1728 27.1855 13.1455 27.2673 13.1455C27.3218 13.1455 27.3491 13.1455 27.3764 13.1455C27.4036 13.1455 27.4036 13.1455 27.4036 13.1455C27.4036 13.1455 27.4036 13.1455 27.4309 13.1455C27.4309 13.1455 27.4309 13.1455 27.4582 13.1728C27.4855 13.2 27.4855 13.2273 27.4855 13.2546C27.4855 13.2818 27.4855 13.3091 27.4855 13.3091C27.4855 13.3637 27.4855 13.4455 27.4582 13.5273C27.4582 13.5546 27.4582 13.5818 27.4309 13.6091C27.4309 13.6637 27.4036 13.7182 27.3764 13.7728C27.2945 13.8818 27.1582 13.9637 26.94 13.9364ZM27.7036 6.57275C27.7309 6.35457 27.7036 6.00003 28.0036 5.94548C28.0309 5.94548 28.0582 5.94548 28.0582 5.94548C28.9036 5.91821 29.7764 5.91821 30.6491 5.94548C30.9491 5.94548 31.2218 5.94548 31.4945 5.94548C31.5218 5.94548 31.5491 5.94548 31.5764 5.94548C31.8218 6.00003 31.6582 6.24548 31.6855 6.40912C31.74 6.60002 31.6855 6.70912 31.4945 6.70912C31.4673 6.70912 31.4673 6.70912 31.44 6.70912C30.84 6.68184 30.24 6.70912 29.64 6.70912C29.1218 6.70912 28.6036 6.70912 28.0855 6.70912C27.9764 6.70912 27.8127 6.79093 27.7309 6.70912L27.7036 6.68184C27.7036 6.65457 27.7036 6.6273 27.7036 6.57275ZM27.24 8.07275C27.24 8.04548 27.24 7.99094 27.24 7.96366C27.2673 7.71821 27.24 7.41821 27.6764 7.41821H29.3673C30.0491 7.41821 30.7309 7.44548 31.3855 7.41821C31.5218 7.41821 31.6036 7.44548 31.6582 7.50002L31.6855 7.5273C31.6855 7.55457 31.7127 7.55457 31.7127 7.58184C31.74 7.63639 31.74 7.71821 31.7127 7.80002C31.7127 7.88184 31.7127 7.99093 31.7127 8.04548V8.07275V8.10003C31.6855 8.15457 31.6036 8.20912 31.44 8.20912C30.7855 8.18184 30.1309 8.20912 29.4764 8.20912C28.8764 8.20912 28.2764 8.20912 27.6764 8.20912C27.5945 8.20912 27.4582 8.26366 27.3491 8.23639C27.3218 8.23639 27.3218 8.23639 27.3218 8.20912L27.2945 8.18184C27.24 8.15457 27.24 8.10002 27.24 8.07275ZM26.7764 9.6273C26.7764 9.57275 26.8036 9.54548 26.8036 9.49093C26.8309 9.3273 26.8582 9.21821 26.8855 9.10912C26.8855 9.08184 26.8855 9.08184 26.9127 9.05457C26.94 9.00003 26.94 8.97275 26.9673 8.94548L26.9945 8.91821L27.0218 8.89093C27.0491 8.89093 27.0491 8.86366 27.0764 8.86366C27.1036 8.86366 27.1036 8.83639 27.1309 8.83639C27.1582 8.83639 27.1582 8.83639 27.1855 8.83639C27.2127 8.83639 27.2127 8.83639 27.24 8.83639C27.3491 8.83639 27.4582 8.83639 27.6218 8.83639C27.8945 8.83639 28.1673 8.83639 28.4673 8.83639C29.0127 8.83639 29.5855 8.83639 30.1309 8.83639C30.1582 8.83639 30.1855 8.83639 30.2127 8.83639C30.24 8.83639 30.2673 8.83639 30.2673 8.83639C30.2945 8.83639 30.3218 8.86366 30.3491 8.89093L30.3764 8.91821C30.3764 8.91821 30.3764 8.94548 30.4036 8.94548C30.4309 9.00003 30.4036 9.08184 30.4036 9.16366C30.3764 9.35457 30.5127 9.60003 30.1582 9.60003C29.0127 9.6273 27.8945 9.6273 26.7764 9.6273ZM26.3127 10.9091C26.3127 10.8273 26.3127 10.7455 26.34 10.6909V10.6637C26.3673 10.6091 26.3673 10.5546 26.3945 10.5273C26.4218 10.5 26.4218 10.4728 26.4491 10.4455C26.4764 10.4182 26.4764 10.4182 26.5036 10.4182C26.7218 10.2273 27.0491 10.3091 27.3491 10.3091C28.2218 10.3091 29.1218 10.3364 29.9945 10.3091C30.1036 10.3091 30.1855 10.3364 30.24 10.3637C30.2673 10.3909 30.2945 10.3909 30.2945 10.4182C30.2945 10.4455 30.3218 10.4455 30.3218 10.4728C30.3218 10.5 30.3218 10.5273 30.3491 10.5546C30.3491 10.5818 30.3491 10.5818 30.3491 10.6091C30.3491 10.6637 30.3491 10.6909 30.3491 10.7455C30.3491 10.8 30.3491 10.8273 30.3491 10.8818C30.3491 10.9091 30.3491 10.9364 30.3491 10.9364C30.2945 11.0728 30.2127 11.1 29.9945 11.1C29.5309 11.0728 29.0673 11.0728 28.6309 11.1C28.4945 11.1 28.4127 11.0728 28.3582 11.0182C28.3309 10.9909 28.3309 10.9637 28.3309 10.9091V10.8818C28.3309 10.8546 28.3309 10.8273 28.3309 10.8C28.2491 11.1546 28.0309 11.1273 27.7855 11.1273C26.7764 11.1273 25.7673 11.1273 24.7582 11.1273C24.54 11.1273 24.3218 11.1273 24.2945 10.8273C24.2945 10.8 24.2945 10.8 24.2945 10.7728C24.2945 10.8 24.2945 10.8273 24.2945 10.8546C24.2673 11.0728 24.1309 11.1273 23.9127 11.1273C23.4491 11.1 22.9855 11.1 22.5491 11.1273C22.3582 11.1273 22.2764 11.1 22.2218 10.9909C22.2218 10.9637 22.2218 10.9637 22.2218 10.9364C22.2218 10.8818 22.2218 10.8546 22.2218 10.8C22.2218 10.7728 22.2218 10.7455 22.2218 10.7182C22.2218 10.5273 22.1673 10.3364 22.5218 10.3637C23.6127 10.3909 24.7036 10.3909 25.7945 10.3637C26.2309 10.2546 26.0945 10.6637 26.3127 10.9091ZM25.4673 8.86366C25.4945 8.86366 25.4945 8.86366 25.4945 8.86366H25.5218C25.6582 8.91821 25.6855 9.08184 25.7945 9.60003C24.6764 9.60003 23.5855 9.60003 22.4673 9.60003C22.3582 9.60003 22.3036 9.57275 22.2491 9.54548C22.2218 9.51821 22.2218 9.51821 22.2218 9.49093C22.2218 9.46366 22.2218 9.43639 22.2218 9.40912C22.2218 9.38184 22.2218 9.38184 22.2218 9.35457C22.2218 9.30003 22.2218 9.24548 22.2218 9.19093C22.2218 9.05457 22.14 8.86366 22.3309 8.80912C22.3582 8.80912 22.4127 8.78184 22.4673 8.78184C23.4491 8.78184 24.4036 8.78184 25.3855 8.78184C25.4127 8.86366 25.44 8.86366 25.4673 8.86366ZM20.8855 6.30002C20.8855 6.21821 20.8582 6.13639 20.8855 6.08184C20.8855 6.05457 20.9127 6.0273 20.94 6.00002C20.9673 5.94548 21.0491 5.91821 21.1582 5.91821C22.2491 5.94548 23.34 5.91821 24.4036 5.91821C24.6218 5.91821 24.7036 6.0273 24.7582 6.16366C24.7855 6.24548 24.7855 6.3273 24.8127 6.40912C24.84 6.51821 24.8673 6.6273 24.9218 6.70912H21.1582C21.0764 6.70912 21.0218 6.70912 20.9673 6.68184L20.94 6.65457C20.8309 6.57275 20.8855 6.40912 20.8855 6.30002ZM20.8582 14.8637C20.8582 14.8364 20.8582 14.8364 20.8582 14.8091C20.8582 14.8091 20.8582 14.8091 20.8582 14.7818C20.8582 14.7818 20.8582 14.7818 20.8582 14.7546C20.8855 14.6182 20.94 14.5364 21.1309 14.5364C21.1582 14.5364 21.1582 14.5364 21.1855 14.5364C22.1127 14.5637 23.04 14.5637 23.9673 14.5364C24.3218 14.5364 24.24 14.7546 24.24 14.9455C24.24 15.1364 24.2945 15.3546 23.9673 15.3546C23.64 15.3273 23.2855 15.3273 22.9582 15.3273C22.8218 15.3273 22.6855 15.3273 22.5491 15.3273C22.4127 15.3273 22.3036 15.3273 22.1673 15.3273C21.84 15.3273 21.5127 15.3273 21.1855 15.3546C21.0764 15.3546 21.0218 15.3546 20.9673 15.3273C20.9673 15.3273 20.94 15.3273 20.94 15.3C20.9127 15.3 20.9127 15.2728 20.9127 15.2455V15.2182C20.9127 15.1909 20.9127 15.1909 20.8855 15.1637C20.8855 15.1364 20.8855 15.1364 20.8855 15.1091C20.8855 15.0818 20.8855 15.0546 20.8855 15.0273C20.8855 15 20.8855 14.9728 20.8855 14.9182C20.8582 14.9182 20.8582 14.8909 20.8582 14.8637ZM20.1491 13.9637C20.0945 13.9637 20.0673 13.9637 20.0127 13.9637H19.2764C19.1127 13.9637 18.9764 13.9364 18.8127 13.9637C18.7855 13.9637 18.7309 13.9637 18.7036 13.9909C18.5945 14.0182 18.5127 14.0182 18.4582 13.9909C18.4582 13.9909 18.4582 13.9909 18.4309 13.9909C18.4036 13.9909 18.4036 13.9909 18.3764 13.9637C18.2127 13.8818 18.1855 13.6637 18.2127 13.4182C18.2127 13.2546 18.2673 13.2 18.4036 13.1728C18.4309 13.1728 18.4309 13.1728 18.4582 13.1728C19.0036 13.1728 19.5218 13.1728 20.0673 13.1728H20.0945C20.5036 13.1728 20.3673 13.5 20.4218 13.7182C20.3945 13.9364 20.2855 13.9637 20.1491 13.9637ZM19.74 7.39093C19.7673 7.39093 19.8218 7.39094 19.8491 7.41821C19.8764 7.41821 19.9036 7.44548 19.9309 7.44548C19.9582 7.44548 19.9582 7.47275 19.9855 7.47275C20.0127 7.47275 20.0127 7.50002 20.04 7.50002C20.0673 7.50002 20.0673 7.5273 20.0945 7.5273C20.1218 7.55457 20.1218 7.55457 20.1218 7.58184C20.2036 7.69093 20.2582 7.85457 20.2582 8.01821C20.2309 8.1273 20.2036 8.15457 20.1491 8.18184C20.0945 8.20912 20.0127 8.18184 19.9309 8.18184C18.7855 8.18184 17.64 8.18184 16.4945 8.18184C15.3491 8.18184 14.2309 8.18184 13.0855 8.18184C12.7582 8.18184 12.7036 8.07275 12.7036 7.77275C12.7036 7.50002 12.7582 7.39093 13.0036 7.39093C13.0309 7.39093 13.0855 7.39093 13.1127 7.39093C15.3218 7.39093 17.5036 7.39093 19.7127 7.39093C19.7127 7.39093 19.7127 7.39093 19.74 7.39093ZM12.84 5.97275C12.8673 5.97275 12.8673 5.94548 12.8945 5.94548C12.9218 5.94548 12.9491 5.94548 12.9764 5.94548C13.0036 5.94548 13.0309 5.94548 13.0582 5.94548C14.5855 5.97275 16.14 5.94548 17.6673 5.94548C18.3218 5.94548 18.8945 6.19093 19.3855 6.65457C19.2764 6.76366 19.1673 6.73639 19.0582 6.73639H19.0309C17.04 6.73639 15.0491 6.73639 13.0582 6.73639C13.0309 6.73639 12.9764 6.73639 12.9491 6.73639C12.7036 6.70912 12.6218 6.6273 12.6218 6.3273C12.6218 6.13639 12.6491 6.05457 12.7309 6.00002C12.8127 5.97275 12.84 5.97275 12.84 5.97275ZM7.33091 6.10912C7.33091 6.08184 7.33091 6.05457 7.35818 6.0273C7.35818 6.0273 7.35818 6.00002 7.38546 6.00002L7.41273 5.97275C7.44 5.97275 7.44 5.94548 7.46728 5.94548C7.49455 5.94548 7.49455 5.94548 7.52182 5.94548C7.54909 5.94548 7.57637 5.94548 7.60364 5.94548C8.99455 5.97275 10.3855 5.97275 11.7764 5.94548C12.1582 5.94548 12.0491 6.19093 12.0764 6.38184C12.1036 6.6273 12.0491 6.76366 11.7491 6.73639C11.0673 6.70912 10.3582 6.73639 9.67637 6.73639C8.99455 6.73639 8.28546 6.70912 7.60364 6.73639C7.27637 6.73639 7.30364 6.54548 7.33091 6.35457C7.33091 6.27275 7.33091 6.16366 7.33091 6.10912ZM7.33091 7.66366C7.33091 7.63639 7.33091 7.60912 7.33091 7.58184C7.33091 7.55457 7.33091 7.55457 7.33091 7.5273V7.50002C7.33091 7.47275 7.35818 7.47275 7.35818 7.44548L7.38546 7.41821C7.38546 7.41821 7.41273 7.41821 7.41273 7.39093C7.41273 7.39093 7.44 7.39093 7.44 7.36366C7.46727 7.36366 7.46728 7.33639 7.49455 7.33639H7.52182C7.54909 7.33639 7.60364 7.33639 7.63091 7.33639C8.99455 7.36366 10.3582 7.36366 11.7491 7.33639C11.8309 7.33639 11.8855 7.33639 11.9127 7.36366C11.9127 7.36366 11.94 7.36366 11.94 7.39093C11.9673 7.41821 11.9945 7.44548 12.0218 7.47275C12.0218 7.47275 12.0218 7.50002 12.0491 7.50002C12.0764 7.58184 12.0764 7.69093 12.0764 7.80002C12.0764 7.85457 12.0764 7.90912 12.0764 7.93639C12.0764 7.96366 12.0764 7.96366 12.0764 7.99093C12.0764 8.01821 12.0764 8.04548 12.0491 8.04548C12.0491 8.07275 12.0218 8.07275 12.0218 8.10003L11.9945 8.1273C11.9945 8.1273 11.9673 8.1273 11.9673 8.15457C11.9673 8.15457 11.94 8.15457 11.9127 8.18184C11.8582 8.20912 11.8309 8.20912 11.7491 8.20912C11.2582 8.18184 10.74 8.20912 10.2491 8.20912C10.0309 8.20912 9.84 8.20912 9.62182 8.20912C8.96727 8.20912 8.31273 8.18184 7.63091 8.20912C7.57637 8.20912 7.54909 8.20912 7.52182 8.20912C7.44 8.20912 7.38546 8.18184 7.35818 8.1273C7.33091 8.10003 7.33091 8.07275 7.30364 8.01821C7.30364 7.99093 7.30364 7.99094 7.30364 7.96366C7.30364 7.93639 7.30364 7.93639 7.30364 7.90912C7.30364 7.88184 7.30364 7.8273 7.30364 7.80002C7.33091 7.74548 7.33091 7.69093 7.33091 7.66366ZM8.91273 12.4909C8.85818 12.4909 8.83091 12.4909 8.80364 12.4909C8.58546 12.4364 8.66727 12.2455 8.66727 12.0818C8.66727 11.9182 8.64 11.7546 8.80364 11.7273C8.83091 11.7273 8.85818 11.7273 8.91273 11.7273C9.15818 11.7546 9.40364 11.7273 9.67637 11.7273C9.84 11.7273 9.97637 11.7546 10.14 11.7273C10.1945 11.7273 10.2218 11.7273 10.2764 11.7C10.3036 11.7 10.3309 11.7 10.3582 11.6728C10.4127 11.6728 10.44 11.6728 10.4945 11.6728H10.5218C10.5491 11.6728 10.5491 11.6728 10.5764 11.7C10.6036 11.7 10.6036 11.7273 10.6309 11.7273C10.6582 11.7273 10.6582 11.7546 10.6855 11.7818L10.7127 11.8091C10.7127 11.8091 10.7127 11.8364 10.74 11.8364C10.7673 11.8637 10.7673 11.9182 10.7673 11.9455C10.7945 12.0273 10.7945 12.1091 10.7673 12.2182C10.7673 12.3818 10.7127 12.4637 10.5491 12.4637C10.5218 12.4637 10.5218 12.4637 10.4945 12.4637H10.3855C9.89455 12.4637 9.40364 12.4637 8.91273 12.4909ZM10.6582 10.9909L10.6309 11.0182C10.6036 11.0455 10.5218 11.0455 10.4673 11.0455C10.2218 11.0182 9.97637 11.0455 9.70364 11.0455C9.51273 11.0455 9.32182 11.0182 9.13091 11.0455C8.64 11.1273 8.64 10.8546 8.66727 10.5C8.66727 10.3909 8.69455 10.3364 8.74909 10.3091L8.77637 10.2818C8.80364 10.2546 8.85818 10.2546 8.94 10.2546C9.45818 10.2546 9.97637 10.2546 10.4945 10.2546C10.6309 10.2546 10.7127 10.2818 10.74 10.3364C10.74 10.3637 10.7673 10.3637 10.7673 10.3909C10.7945 10.4728 10.7673 10.5818 10.7673 10.6909C10.7127 10.8 10.74 10.9091 10.6582 10.9909C10.6582 10.9909 10.6855 10.9909 10.6582 10.9909ZM10.7127 9.10912C10.7127 9.16366 10.7127 9.21821 10.7127 9.24548C10.7127 9.35457 10.7127 9.46366 10.6855 9.54548C10.6855 9.57275 10.6582 9.57275 10.6582 9.60003C10.6309 9.6273 10.6036 9.6273 10.5764 9.6273C10.5491 9.6273 10.4945 9.6273 10.44 9.6273C10.1945 9.60003 9.94909 9.6273 9.67637 9.6273C9.62182 9.6273 9.56728 9.6273 9.51273 9.6273C9.40364 9.6273 9.26728 9.60003 9.15818 9.6273C9.13091 9.6273 9.10364 9.6273 9.07637 9.65457C8.96727 9.65457 8.88546 9.65457 8.83091 9.6273C8.80364 9.6273 8.80364 9.60003 8.77637 9.60003C8.66727 9.51821 8.64 9.35457 8.66727 9.13639C8.69455 8.97275 8.72182 8.91821 8.83091 8.89093C8.85819 8.89093 8.91273 8.89093 8.96728 8.89093C9.45819 8.89093 9.97637 8.91821 10.4673 8.89093C10.4945 8.89093 10.5491 8.89093 10.5764 8.89093C10.6036 8.89093 10.6309 8.89093 10.6309 8.91821C10.6582 8.91821 10.6582 8.94548 10.6855 8.94548C10.6855 8.94548 10.7127 8.94548 10.7127 8.97275L10.74 9.00002C10.7673 9.0273 10.7673 9.05457 10.7673 9.10912C10.7127 9.05457 10.7127 9.08184 10.7127 9.10912ZM8.66727 13.2818C8.69455 13.2 8.74909 13.1728 8.80364 13.1728C8.83091 13.1728 8.88546 13.1728 8.94 13.1728H8.96728C9.45819 13.1728 9.94909 13.1728 10.44 13.1728C10.4945 13.1728 10.5218 13.1728 10.5491 13.1728C10.5764 13.1728 10.5764 13.1728 10.6036 13.1728C10.7945 13.2273 10.74 13.3909 10.74 13.5546C10.7127 13.6909 10.7673 13.8818 10.6036 13.9364C10.6036 13.9364 10.5764 13.9364 10.5491 13.9637H10.5218C10.4945 13.9637 10.4673 13.9637 10.4127 13.9637C10.1673 13.9364 9.92182 13.9637 9.67637 13.9637H9.07637C9.02182 13.9637 8.96727 13.9637 8.91273 13.9364C8.64 13.8273 8.55818 13.5818 8.66727 13.2818ZM7.44 14.5909C7.46727 14.5909 7.49455 14.5637 7.52182 14.5637C7.54909 14.5637 7.54909 14.5637 7.57637 14.5637C7.60364 14.5637 7.65818 14.5637 7.68546 14.5637C9.04909 14.5909 10.4127 14.5909 11.8036 14.5637C11.8582 14.5637 11.8855 14.5637 11.94 14.5637H11.9673C11.9945 14.5637 11.9945 14.5637 11.9945 14.5909C11.9945 14.5909 12.0218 14.5909 12.0218 14.6182L12.0491 14.6455C12.1036 14.7273 12.1036 14.8637 12.1036 14.9728C12.1036 15.1364 12.1036 15.2455 12.0218 15.3C11.9945 15.3273 11.9673 15.3273 11.94 15.3273H11.9127C11.8855 15.3273 11.8582 15.3273 11.8036 15.3273C11.3127 15.3 10.8218 15.3 10.3036 15.3C10.1127 15.3 9.92182 15.3 9.73091 15.3C9.04909 15.3 8.36727 15.2728 7.68546 15.3C7.63091 15.3 7.60364 15.3 7.54909 15.3C7.46728 15.3 7.41273 15.2728 7.38546 15.2182L7.35818 15.1909C7.33091 15.1091 7.33091 15.0273 7.33091 14.9182C7.33091 14.7818 7.30364 14.6455 7.44 14.5909ZM7.65818 16.0091C9.02182 16.0364 10.4127 16.0364 11.7491 16.0091C11.8036 16.0091 11.8309 16.0091 11.8582 16.0364C11.8855 16.0364 11.9127 16.0364 11.9127 16.0637C11.94 16.0637 11.94 16.0637 11.94 16.0909C11.94 16.0909 11.9673 16.0909 11.9673 16.1182C11.9673 16.1182 11.9945 16.1182 11.9945 16.1455C11.9945 16.1455 11.9945 16.1455 12.0218 16.1728V16.2C12.0491 16.2546 12.0491 16.3364 12.0491 16.4455C12.0491 16.6637 12.1036 16.8818 11.7491 16.8546C11.0673 16.8273 10.3855 16.8546 9.70364 16.8546C9.02182 16.8546 8.31273 16.8273 7.63091 16.8546C7.54909 16.8546 7.46728 16.8546 7.41273 16.8273C7.41273 16.8273 7.41273 16.8273 7.38546 16.8273C7.27637 16.7728 7.27637 16.6364 7.27637 16.4728C7.30364 16.1455 7.30364 16.0091 7.65818 16.0091Z" fill="black"/>
  <path d="M0.567276 19.1728V18.7091C0.594549 18.6818 0.594548 18.6546 0.621821 18.6C0.785457 18.2455 0.976366 18.3546 1.14 18.3546H37.74C37.9309 18.3546 38.0945 18.2182 38.2855 18.3C38.34 18.3 38.3945 13.6637 38.4218 13.6637C38.4764 13.7182 38.5036 18.6 38.5582 18.7364V19.2546H0.567276V19.1728Z" fill="black"/>
  <path d="M33.24 38.3455C33.24 38.3455 33.2127 38.3727 33.24 38.3455C33.2127 38.3455 33.24 38.3455 33.24 38.3455Z" fill="#1BA442"/>
  <path d="M21.4036 27.0273C21.4036 27.0273 21.3764 27.0273 21.4036 27.0273C21.3764 27 21.3764 27 21.3491 26.9728C21.3491 26.9728 21.3491 26.9727 21.3218 26.9455C21.3764 26.9182 21.4036 26.8909 21.4582 26.8909C21.5127 26.8909 21.54 26.8364 21.5673 26.8091C21.6764 26.7273 21.7855 26.6455 21.8945 26.5637C21.9218 26.5364 21.9491 26.5091 21.9764 26.4818C22.0309 26.4273 22.0855 26.3455 22.14 26.2909C22.2218 26.1818 22.2764 26.0727 22.3036 25.9364C22.4127 25.6364 22.44 25.3091 22.3855 24.9273C22.2764 23.9455 21.8127 23.4 20.8855 23.2364C19.7673 23.0455 18.6218 23.1818 17.5036 23.1546C17.4491 23.1546 17.4218 23.1546 17.3945 23.1818C17.2582 23.2364 17.3127 23.3728 17.3127 23.5091C17.3127 26.0182 17.3127 28.5 17.3127 31.0091C17.3127 31.0909 17.34 31.1728 17.3673 31.2273C17.4218 31.3091 17.5036 31.3364 17.64 31.3364C18.54 31.3364 19.44 31.3364 20.34 31.3364C20.4218 31.3364 20.5309 31.3364 20.6127 31.3091C21.1309 31.2546 21.5945 31.0909 21.9218 30.8182C21.9764 30.7637 22.0309 30.7364 22.0855 30.6818C22.3309 30.4364 22.4945 30.1364 22.5764 29.7546C22.8764 28.3909 22.5491 27.6546 21.4036 27.0273ZM19.3309 24.3273C19.3582 24.3273 19.4127 24.3546 19.44 24.3546C19.5491 24.3546 19.6309 24.3546 19.74 24.3818C19.7673 24.3818 19.8218 24.3818 19.8491 24.4091C20.3127 24.4637 20.5855 24.6546 20.6945 24.9818C20.6945 25.0091 20.7218 25.0364 20.7218 25.0637C20.7218 25.0637 20.7218 25.0637 20.7218 25.0909C20.7218 25.1182 20.7218 25.1455 20.7491 25.1727C20.7491 25.1727 20.7491 25.1728 20.7491 25.2C20.7491 25.2818 20.7764 25.3637 20.7764 25.4455C20.7764 25.5 20.7764 25.5546 20.7764 25.6091C20.7764 25.6364 20.7764 25.6637 20.7764 25.6909C20.7764 25.7182 20.7764 25.7455 20.7491 25.7728C20.7491 25.8 20.7218 25.8273 20.7218 25.8546C20.6945 25.9364 20.64 26.0455 20.5855 26.1C20.5582 26.1273 20.5309 26.1818 20.4764 26.2091C20.4491 26.2364 20.3946 26.2637 20.3673 26.3182C20.3127 26.3728 20.2309 26.4273 20.1491 26.4546C20.1218 26.4546 20.1218 26.4818 20.0946 26.4818C20.0127 26.5091 19.9309 26.5637 19.8491 26.5637C19.8218 26.5637 19.8218 26.5909 19.7945 26.5909C19.7673 26.5909 19.74 26.6182 19.7127 26.6182C19.6855 26.6182 19.6855 26.6182 19.6582 26.6182C19.6582 26.6182 19.6582 26.6182 19.6309 26.6182C19.6036 26.6182 19.6036 26.6182 19.5764 26.6182C19.4945 26.6182 19.3855 26.6182 19.3036 26.5909C19.2764 26.5909 19.2491 26.5637 19.2218 26.5637C19.1945 26.5637 19.1673 26.5364 19.14 26.5364C19.1127 26.5091 19.0855 26.5091 19.0582 26.4818L19.0309 26.4546V26.4273C19.0309 26.3728 19.0309 26.3182 19.0309 26.2637C19.0309 25.8273 19.0582 25.3909 19.0309 24.9546C18.9491 24.5182 19.0036 24.2455 19.3309 24.3273ZM20.5309 29.8091C20.1764 30.1364 19.6582 30.3 19.1127 30.1091C18.9764 30.0546 18.9764 29.9728 18.9764 29.8637C18.9764 29.2091 18.9764 28.5818 18.9764 27.9273C18.9764 27.6546 19.1127 27.6273 19.2218 27.6546C19.3309 27.6818 19.44 27.7091 19.4945 27.6546C20.4764 27.6546 20.8855 28.0091 20.9127 28.8C20.94 29.1818 20.7764 29.5364 20.5309 29.8091Z" fill="#FEFEFE"/>
  <path d="M16.1946 25.3909C16.1127 24.7909 15.9218 24.3273 15.6491 23.9728C15.5673 23.8637 15.4582 23.7546 15.3491 23.6455C15.1309 23.4818 14.8855 23.3455 14.6127 23.2637C14.5309 23.2364 14.4491 23.2091 14.3673 23.2091C14.1218 23.1546 13.8491 23.1273 13.5491 23.1273C12.84 23.1273 12.1309 23.1546 11.4218 23.1273C11.34 23.1273 11.2582 23.1273 11.1764 23.1273C11.1491 23.1273 11.1491 23.1273 11.1218 23.1273C11.0946 23.1273 11.0673 23.1273 11.0673 23.1546C10.9036 23.2091 10.8491 23.3728 10.8764 23.6455C10.9036 24.8182 10.9036 25.9909 10.9036 27.1909C10.9036 28.4182 10.9036 29.6728 10.9036 30.9273C10.9036 31.0637 10.9309 31.1728 10.9855 31.2273C11.0127 31.2273 11.0127 31.2546 11.04 31.2546C11.0673 31.2546 11.0673 31.2818 11.0946 31.2818C11.1218 31.2818 11.1218 31.2818 11.1491 31.2818C11.1764 31.2818 11.2036 31.2818 11.2309 31.2818H11.2855C12.0764 31.2546 12.8673 31.2818 13.6582 31.2818C13.9309 31.2818 14.1764 31.2546 14.3946 31.2C14.4764 31.1728 14.5309 31.1728 14.6127 31.1455C14.7764 31.0909 14.9127 31.0364 15.0491 30.9546C15.1309 30.9 15.2127 30.8455 15.2946 30.7909C15.3491 30.7364 15.4036 30.7091 15.4582 30.6546C15.8127 30.3 16.0309 29.8364 16.14 29.1818C16.3582 27.9273 16.3855 26.6455 16.1946 25.3909ZM14.5309 28.9637C14.4764 29.2909 14.34 29.5637 14.1491 29.7546C14.0946 29.8091 14.04 29.8637 13.9582 29.9182C13.9036 29.9728 13.8218 30 13.7673 30.0273C13.74 30.0546 13.6855 30.0546 13.6582 30.0818C13.5218 30.1364 13.3582 30.1637 13.1673 30.1637C13.1127 30.1637 13.0582 30.1637 13.0036 30.1637C12.9491 30.1637 12.8946 30.1364 12.84 30.1364C12.8127 30.1364 12.7582 30.1091 12.7309 30.1091C12.7036 30.1091 12.7036 30.1091 12.7036 30.1091C12.6764 30.1091 12.6764 30.1091 12.6491 30.0818C12.6491 30.0818 12.6491 30.0818 12.6218 30.0818C12.6218 30.0818 12.5946 30.0818 12.5946 30.0546L12.5673 30.0273C12.5673 30.0273 12.5673 30 12.54 30C12.5127 29.9182 12.54 29.8364 12.54 29.7546C12.54 28.9091 12.54 28.0637 12.54 27.1909C12.54 26.3728 12.5673 25.5546 12.54 24.7364C12.54 24.5728 12.5673 24.4637 12.6218 24.4091C12.6491 24.4091 12.6491 24.3818 12.6764 24.3818C12.7036 24.3818 12.7309 24.3546 12.7309 24.3546C12.7582 24.3546 12.7855 24.3546 12.8127 24.3546C12.84 24.3546 12.8673 24.3546 12.8946 24.3546C12.9491 24.3546 12.9764 24.3546 13.0309 24.3546C13.0582 24.3546 13.1127 24.3546 13.14 24.3546C13.1946 24.3546 13.2218 24.3546 13.2764 24.3546C13.3309 24.3546 13.3582 24.3546 13.4127 24.3818H13.44C13.4946 24.3818 13.5218 24.3818 13.5764 24.4091C13.6309 24.4091 13.6855 24.4364 13.74 24.4637C13.7946 24.4637 13.8218 24.4909 13.8491 24.5182C13.9582 24.5728 14.0673 24.6273 14.1491 24.7091C14.34 24.9 14.4491 25.2 14.5036 25.6637C14.6946 26.7546 14.7218 27.8728 14.5309 28.9637Z" fill="#FEFEFE"/>
  <path d="M23.7491 25.8546C23.9673 25.8546 24.1855 25.8546 24.4036 25.8546C24.6764 25.8818 24.84 25.8273 24.84 25.4728C24.8127 25.2 24.8946 24.9546 25.0036 24.7091C25.1673 24.3818 25.4673 24.2455 25.8218 24.2728C26.2036 24.3 26.4491 24.5182 26.5036 24.9C26.6127 25.6637 26.5309 26.3728 25.9036 26.9182C25.44 27.3273 25.0036 27.7364 24.5673 28.1727C23.8582 28.9091 23.3673 29.7546 23.2582 30.8182C23.2309 31.2273 23.34 31.2546 23.6673 31.2546C24.8945 31.2273 26.1218 31.2546 27.3491 31.2546C28.2764 31.2546 28.2491 31.2546 28.2491 30.3273C28.2491 30.0546 28.1673 29.9728 27.9218 30C27.0491 30.0273 26.1764 30 25.1946 30C25.3582 29.5637 25.5764 29.2637 25.8491 28.9909C26.3127 28.5546 26.7764 28.1182 27.2127 27.7091C27.6218 27.3273 27.9218 26.8637 28.0855 26.3182C28.6036 24.4637 27.6764 23.2091 25.7673 23.2091C25.6309 23.2091 25.5218 23.2091 25.3855 23.2091C24.0764 23.2637 23.3673 23.9455 23.2309 25.2546C23.1764 25.8546 23.1764 25.8546 23.7491 25.8546Z" fill="#FEFEFE"/>
  <path d="M19.8491 14.5637C18.7309 14.5637 17.6127 14.5637 16.4945 14.5637C15.3764 14.5637 14.2582 14.5637 13.14 14.5637C12.8127 14.5637 12.6764 14.5909 12.6764 15C12.6764 15.4091 12.8673 15.3818 13.14 15.3818C15.2945 15.3818 17.4491 15.3818 19.6036 15.3818C19.6855 15.3818 19.7673 15.3818 19.8491 15.3818C20.2582 15.3546 20.2309 14.9728 20.2582 14.7273C20.2582 14.4546 19.9855 14.5637 19.8491 14.5637Z" fill="#F9F9F9"/>
  <path d="M13.0855 7.39093C12.7855 7.39093 12.6764 7.47275 12.6764 7.80002C12.6764 8.10002 12.7309 8.20912 13.0582 8.20912C14.2036 8.18184 15.3218 8.20912 16.4673 8.20912C17.6127 8.20912 18.7582 8.20912 19.9036 8.20912C20.04 8.20912 20.2036 8.29093 20.2309 8.04548C20.2582 7.71821 20.0127 7.41821 19.6855 7.41821C17.4764 7.39094 15.2945 7.39093 13.0855 7.39093Z" fill="#F9F9F9"/>
  <path d="M22.5218 10.2546C22.14 10.2546 22.2491 10.4728 22.2218 10.6909C22.1946 10.9364 22.2491 11.0728 22.5491 11.0455C23.0127 11.0182 23.4764 11.0182 23.9127 11.0455C24.1582 11.0455 24.2946 10.9909 24.2946 10.6637C24.2946 11.0455 24.5127 11.0455 24.7582 11.0455C25.7673 11.0455 26.7764 11.0455 27.7855 11.0455C28.0309 11.0455 28.2491 11.0728 28.3309 10.7182C28.3309 10.9909 28.4127 11.0455 28.6309 11.0455C29.0946 11.0182 29.5582 11.0182 29.9946 11.0455C30.2673 11.0728 30.3764 10.9909 30.3764 10.6909C30.3764 10.4182 30.3764 10.2546 29.9946 10.2818C29.1218 10.3091 28.2218 10.2818 27.3491 10.2818C26.8855 10.2818 26.3127 10.1182 26.3127 10.9091C26.0673 10.6909 26.2309 10.2546 25.7673 10.2818C24.7036 10.2818 23.6127 10.2818 22.5218 10.2546Z" fill="#FCFCFC"/>
  <path d="M12.9764 16.0091C12.5945 16.0091 12.7036 16.2546 12.6764 16.4455C12.6491 16.6909 12.7309 16.8 13.0036 16.8C14.6127 16.8 16.1945 16.8 17.8036 16.8C18.4309 16.8 18.9764 16.5546 19.5218 16.0364C17.2855 16.0364 15.1309 16.0364 12.9764 16.0091Z" fill="#FDFDFD"/>
  <path d="M13.1127 6.73639C15.1036 6.70912 17.0945 6.73639 19.0854 6.73639C19.1945 6.73639 19.3036 6.76366 19.4127 6.65457C18.8945 6.19093 18.3218 5.97275 17.6945 5.94548C16.1673 5.94548 14.6127 5.94548 13.0855 5.94548C12.7855 5.94548 12.6764 6.00003 12.6764 6.3273C12.6764 6.65457 12.7855 6.73639 13.1127 6.73639Z" fill="#FDFDFD"/>
  <path d="M14.4491 10.2546C14.1491 10.2546 14.04 10.3091 14.04 10.6364C14.04 10.9909 14.1764 11.0455 14.4764 11.0455C15.8946 11.0182 17.34 11.0182 18.7582 11.0455C19.3582 11.0728 19.6309 10.8 19.8764 10.2546C18.0218 10.2818 16.2491 10.2818 14.4491 10.2546Z" fill="#FCFCFC"/>
  <path d="M19.8491 12.4909C19.6309 12.1637 19.5764 11.7273 19.1127 11.7273C17.5309 11.7273 15.9491 11.7273 14.3673 11.7273C14.04 11.7273 14.0673 11.9182 14.0673 12.1091C14.0673 12.3 14.0127 12.5182 14.34 12.5182C16.1673 12.4637 18.0218 12.4909 19.8491 12.4909Z" fill="#FCFCFC"/>
  <path d="M7.65818 15.3546C8.34 15.3273 9.02181 15.3546 9.67636 15.3546C10.3582 15.3546 11.0673 15.3273 11.7491 15.3546C12.0491 15.3546 12.0764 15.1909 12.0491 14.9728C12.0491 14.7546 12.1036 14.5364 11.7491 14.5364C10.3854 14.5637 9.02181 14.5637 7.63091 14.5364C7.27636 14.5364 7.30363 14.7 7.30363 14.9455C7.3309 15.2182 7.3309 15.3818 7.65818 15.3546Z" fill="#F8F8F8"/>
  <path d="M7.65819 8.18184C8.31273 8.15457 8.99455 8.18184 9.6491 8.18184C10.3582 8.18184 11.0673 8.15457 11.7764 8.18184C12.0764 8.18184 12.1036 8.04548 12.0764 7.80003C12.0764 7.58184 12.1309 7.36366 11.7764 7.36366C10.4127 7.39094 9.04909 7.39094 7.65819 7.36366C7.33091 7.36366 7.33091 7.5273 7.33091 7.77275C7.33091 8.04548 7.30364 8.20912 7.65819 8.18184Z" fill="#F8F8F8"/>
  <path d="M27.6491 8.18184C28.2491 8.20912 28.8491 8.18184 29.4218 8.18184C30.0764 8.18184 30.7582 8.15457 31.3855 8.18184C31.7673 8.20912 31.6582 7.96366 31.6855 7.74548C31.7127 7.5273 31.6855 7.36366 31.3855 7.36366C30.7036 7.39094 30.0218 7.36366 29.3673 7.36366C28.7946 7.36366 28.2218 7.36366 27.6764 7.36366C27.2127 7.36366 27.2673 7.77275 27.24 8.01821C27.2127 8.29094 27.5127 8.18184 27.6491 8.18184Z" fill="#F7F7F7"/>
  <path d="M21.2127 8.18184C21.84 8.15457 22.4673 8.18184 23.0946 8.18184C23.7491 8.18184 24.3764 8.18184 25.0309 8.18184C25.14 8.18184 25.2491 8.23639 25.3309 8.1273C25.44 7.96366 25.0855 7.39093 24.8673 7.39093C23.64 7.39093 22.4127 7.39093 21.1855 7.39093C20.8036 7.39093 20.8855 7.60912 20.8855 7.8273C20.8582 8.07275 20.9127 8.20912 21.2127 8.18184Z" fill="#F6F6F6"/>
  <path d="M11.7764 16.0091C10.4127 16.0364 9.04909 16.0364 7.68546 16.0091C7.35818 16.0091 7.35818 16.1728 7.35818 16.4182C7.35818 16.6637 7.35818 16.8273 7.68546 16.8273C8.36727 16.8 9.07637 16.8273 9.75818 16.8273C10.44 16.8273 11.1218 16.8 11.7764 16.8273C12.1582 16.8546 12.0764 16.6091 12.0764 16.4182C12.0764 16.1728 12.0764 16.0091 11.7764 16.0091Z" fill="#FDFDFD"/>
  <path d="M7.63092 6.73639C8.31273 6.70912 9.02182 6.73639 9.70364 6.73639C10.3855 6.73639 11.0946 6.73639 11.7764 6.73639C12.0764 6.73639 12.1309 6.6273 12.1036 6.38184C12.0764 6.19093 12.1855 5.94548 11.8036 5.94548C10.4127 5.97275 9.02182 5.97275 7.60364 5.94548C7.2491 5.94548 7.35819 6.16366 7.33092 6.35457C7.33092 6.54548 7.27637 6.73639 7.63092 6.73639Z" fill="#FCFCFC"/>
  <path d="M28.0855 6.70912C28.6036 6.73639 29.1218 6.70912 29.64 6.70912C30.24 6.70912 30.84 6.70912 31.44 6.70912C31.6855 6.70912 31.74 6.60003 31.7127 6.40912C31.6855 6.24548 31.8764 5.94548 31.5218 5.94548C30.3764 5.91821 29.2309 5.91821 28.0855 5.94548C27.7309 5.94548 27.7582 6.35457 27.7309 6.57275C27.6764 6.84548 27.9491 6.70912 28.0855 6.70912Z" fill="#FCFCFC"/>
  <path d="M21.1309 6.73639C22.3582 6.73639 23.6127 6.73639 24.9218 6.73639C24.7309 6.43639 24.9218 5.97275 24.4309 5.97275C23.34 5.94548 22.2491 5.97275 21.1855 5.97275C20.8855 5.97275 20.8855 6.13639 20.9127 6.3273C20.8855 6.46366 20.7764 6.73639 21.1309 6.73639Z" fill="#FCFCFC"/>
  <path d="M21.1855 15.3546C21.6491 15.3273 22.0855 15.3546 22.5491 15.3546C23.0127 15.3546 23.5036 15.3273 23.9673 15.3546C24.2946 15.3818 24.24 15.1637 24.24 14.9455C24.24 14.7546 24.3218 14.5364 23.9673 14.5364C23.04 14.5637 22.1127 14.5637 21.1855 14.5364C20.8855 14.5364 20.8582 14.6728 20.8582 14.9182C20.8855 15.1364 20.8309 15.3818 21.1855 15.3546Z" fill="#F1F1F1"/>
  <path d="M31.4127 14.5637C30.5127 14.5909 29.5855 14.5909 28.6855 14.5637C28.3855 14.5637 28.3582 14.7273 28.3855 14.9455C28.3855 15.1637 28.3582 15.3818 28.7127 15.3818C29.1764 15.3546 29.6127 15.3818 30.0764 15.3818C30.54 15.3818 30.9764 15.3546 31.44 15.3818C31.7673 15.4091 31.74 15.2182 31.74 15C31.6855 14.7818 31.7673 14.5364 31.4127 14.5637Z" fill="#F7F7F7"/>
  <path d="M30.1309 9.6273C30.5127 9.6273 30.3764 9.38184 30.3764 9.19093C30.4036 9.00002 30.4036 8.83639 30.1036 8.83639C29.2855 8.86366 28.44 8.83639 27.5945 8.83639C26.8855 8.83639 26.8855 8.83639 26.7764 9.60002C27.8945 9.6273 29.0127 9.60002 30.1309 9.6273Z" fill="#FCFCFC"/>
  <path d="M22.4673 8.83639C22.14 8.83639 22.2218 9.05457 22.2491 9.21821C22.2491 9.38184 22.14 9.6273 22.4673 9.60002C23.5855 9.60002 24.6764 9.60002 25.7946 9.60002C25.6582 8.89093 25.6309 8.83639 25.3855 8.83639C24.4036 8.83639 23.4491 8.86366 22.4673 8.83639Z" fill="#FDFDFD"/>
  <path d="M23.9673 16.0091C23.5036 16.0364 23.0127 16.0091 22.5491 16.0091C22.0855 16.0091 21.6218 16.0364 21.1855 16.0091C20.8582 15.9818 20.8855 16.2 20.8855 16.3909C20.8855 16.5818 20.8309 16.8 21.1582 16.8C22.0855 16.7728 23.0127 16.7728 23.94 16.8C24.2673 16.8 24.24 16.6091 24.2127 16.4182C24.24 16.2273 24.2946 16.0091 23.9673 16.0091Z" fill="#FCFCFC"/>
  <path d="M31.4127 16.0091C30.9491 16.0364 30.5127 16.0091 30.0491 16.0091C29.5855 16.0091 29.0945 16.0364 28.6309 16.0091C28.2764 15.9818 28.3582 16.2273 28.3582 16.4182C28.3582 16.6091 28.3036 16.8273 28.6582 16.8C29.5855 16.7727 30.5127 16.7727 31.44 16.8C31.7945 16.8 31.7127 16.5818 31.7127 16.3909C31.7127 16.2 31.7673 16.0091 31.4127 16.0091Z" fill="#FCFCFC"/>
  <path d="M25.5218 12.4909C26.0673 12.4909 26.5855 12.4909 27.1309 12.4909C27.84 12.4909 27.84 12.4909 27.9218 11.7273C26.8309 11.7273 25.7673 11.7273 24.6764 11.7273C24.8127 12.4909 24.8127 12.4909 25.5218 12.4909Z" fill="#FCFCFC"/>
  <path d="M26.9673 13.1455C26.7491 13.1182 26.5309 13.1455 26.3127 13.1455C26.0946 13.1455 25.8764 13.1455 25.6582 13.1455C25.0582 13.1455 25.0036 13.2 25.2764 13.7728C25.3582 13.9364 25.4673 13.9364 25.6036 13.9364C26.04 13.9364 26.4764 13.9091 26.94 13.9364C27.4309 13.9637 27.4036 13.5546 27.4309 13.3091C27.4582 12.9818 27.1309 13.1728 26.9673 13.1455Z" fill="#F4F4F4"/>
  <path d="M20.0127 13.1455C19.4945 13.1455 18.9491 13.1455 18.4036 13.1455C18.2127 13.1455 18.1582 13.2 18.1582 13.3909C18.1309 13.7728 18.1582 14.0455 18.6491 13.9637C18.84 13.9364 19.0582 13.9637 19.2491 13.9637C19.4945 13.9637 19.74 13.9637 19.9855 13.9637C20.1491 13.9637 20.3673 13.9909 20.3127 13.7182C20.3127 13.4728 20.4218 13.1455 20.0127 13.1455Z" fill="#F5F5F5"/>
  <path d="M15.8673 13.1455C15.3491 13.1728 14.8309 13.1455 14.3127 13.1455C14.1218 13.1455 14.04 13.2 14.04 13.4182C14.0127 13.8 14.0673 14.0455 14.5309 13.9364C14.7218 13.9091 14.9127 13.9364 15.0764 13.9364C15.3218 13.9364 15.5673 13.9091 15.8127 13.9364C16.14 13.9637 16.1127 13.7455 16.1127 13.5546C16.1127 13.3637 16.2218 13.1455 15.8673 13.1455Z" fill="#F4F4F4"/>
  <path d="M10.4127 13.1455C9.92183 13.1728 9.40365 13.1455 8.91274 13.1455C8.80365 13.1455 8.69456 13.1182 8.64001 13.2546C8.47637 13.6091 8.66728 13.9364 9.0491 13.9364C9.24001 13.9364 9.45819 13.9364 9.6491 13.9364C9.89456 13.9364 10.14 13.9091 10.3855 13.9364C10.7127 13.9637 10.6582 13.7182 10.6582 13.5273C10.6582 13.3364 10.7673 13.1182 10.4127 13.1455Z" fill="#EEEEEE"/>
  <path d="M23.7491 13.1455C23.5855 13.1728 23.4218 13.1455 23.2309 13.1455C23.0127 13.1455 22.8218 13.1728 22.6309 13.1455C22.3036 13.1182 22.1945 13.2273 22.1945 13.5546C22.1945 13.9364 22.3582 13.9637 22.6309 13.9364C23.0673 13.9091 23.5036 13.9364 23.94 13.9364C24.1309 13.9364 24.2127 13.8818 24.2127 13.6637C24.2673 13.3091 24.24 13.0637 23.7491 13.1455Z" fill="#F5F5F5"/>
  <path d="M28.8218 13.9364C28.9855 13.9364 29.1491 13.9364 29.34 13.9364C29.5855 13.9364 29.8309 13.9364 30.0764 13.9364C30.4036 13.9637 30.3491 13.7182 30.3491 13.5273C30.3491 13.3364 30.4036 13.1182 30.0764 13.1182C29.5855 13.1455 29.1218 13.1182 28.6309 13.1182C28.4945 13.1182 28.3855 13.1182 28.3582 13.2818C28.2491 13.7728 28.3582 13.9364 28.8218 13.9364Z" fill="#EFEFEF"/>
  <path d="M19.8764 8.86366C19.6582 8.83639 19.44 8.86366 19.2218 8.86366C18.9764 8.86366 18.7309 8.89094 18.4855 8.86366C18.1582 8.83639 18.1309 9.00003 18.1309 9.24548C18.1309 9.49094 18.1309 9.68185 18.4582 9.65457C18.9218 9.6273 19.4127 9.6273 19.8764 9.65457C20.34 9.68185 20.2855 9.38185 20.3127 9.10912C20.34 8.70003 20.04 8.86366 19.8764 8.86366Z" fill="#FBFBFB"/>
  <path d="M10.2491 11.7C10.0582 11.7273 9.86728 11.7 9.67637 11.7C9.43092 11.7 9.18546 11.7273 8.91273 11.7C8.61273 11.6728 8.64001 11.8637 8.64001 12.0546C8.64001 12.2455 8.53092 12.4909 8.88546 12.4637C9.40364 12.4364 9.92183 12.4637 10.44 12.4637C10.6309 12.4637 10.6855 12.4091 10.6855 12.2182C10.74 11.8909 10.7127 11.6182 10.2491 11.7Z" fill="#FAFAFA"/>
  <path d="M10.4673 10.2546C9.9491 10.2818 9.43092 10.2546 8.91274 10.2546C8.72183 10.2546 8.66728 10.3091 8.66728 10.5C8.64001 10.8546 8.66728 11.1273 9.13092 11.0455C9.32183 11.0182 9.51274 11.0455 9.70364 11.0455C9.9491 11.0455 10.1946 11.0182 10.4673 11.0455C10.7673 11.0728 10.74 10.8818 10.74 10.6909C10.6855 10.5 10.8218 10.2546 10.4673 10.2546Z" fill="#FBFBFB"/>
  <path d="M15.84 8.83639C15.3218 8.86366 14.8036 8.83639 14.2855 8.83639C14.1764 8.83639 14.0673 8.80912 14.04 8.97275C13.9309 9.40912 14.0673 9.60003 14.5036 9.60003C14.6945 9.60003 14.8855 9.60003 15.0764 9.60003C15.3218 9.60003 15.5673 9.57276 15.84 9.60003C16.14 9.6273 16.1127 9.43639 16.1127 9.24548C16.0855 9.08185 16.2218 8.83639 15.84 8.83639Z" fill="#FBFBFB"/>
  <path d="M10.4127 8.83639C9.92182 8.86366 9.40363 8.83639 8.91273 8.83639C8.72182 8.83639 8.66727 8.89093 8.64 9.10911C8.61273 9.51821 8.69454 9.70912 9.13091 9.6273C9.29454 9.60002 9.45818 9.6273 9.64909 9.6273C9.89454 9.6273 10.14 9.60002 10.4127 9.6273C10.74 9.65457 10.7127 9.46366 10.7127 9.24548C10.7127 9.05457 10.7673 8.83639 10.4127 8.83639Z" fill="#FBFBFB"/>
  <path d="M28.6309 12.4909C29.1218 12.4637 29.6127 12.4909 30.0764 12.4909C30.2673 12.4909 30.3491 12.4637 30.3491 12.2455C30.3764 11.8637 30.3218 11.6182 29.8582 11.7273C29.6945 11.7546 29.5309 11.7273 29.34 11.7273C29.0945 11.7273 28.8491 11.7273 28.5764 11.7273C28.2218 11.7 28.3309 11.9728 28.3309 12.1637C28.3309 12.3273 28.3309 12.4909 28.6309 12.4909Z" fill="#FAFAFA"/>
  <path d="M23.9673 11.7C23.4764 11.7273 22.9855 11.7 22.4945 11.7C22.3036 11.7 22.2218 11.7273 22.1946 11.9455C22.1673 12.3273 22.2218 12.5728 22.6855 12.4637C22.8491 12.4364 23.04 12.4637 23.2036 12.4637C23.4491 12.4637 23.6946 12.4637 23.9673 12.4637C24.3491 12.4909 24.2127 12.2182 24.2127 12.0546C24.24 11.8909 24.2673 11.7 23.9673 11.7Z" fill="#FBFBFB"/>
  <path d="M26.4764 14.5637C26.4218 14.5364 26.34 14.5637 26.2855 14.5637C26.2036 14.5637 26.0945 14.5637 26.0127 14.5637C25.5491 14.4818 25.5491 14.6728 25.6582 15.0546C25.7945 15.5182 26.1491 15.3273 26.4218 15.3546C26.94 15.4364 26.94 15.0273 26.9673 14.7273C26.9945 14.4 26.64 14.6182 26.4764 14.5637Z" fill="#F0F0F0"/>
  <path d="M26.0945 16.0364C26.0127 16.3091 26.1764 16.5273 26.2855 16.7728C26.3673 16.5273 26.6127 16.3091 26.4764 16.0364C26.4491 15.9818 26.1218 16.0091 26.0945 16.0364Z" fill="#E3E3E3"/>
  <path d="M19.5218 27.6546C19.3855 27.7909 18.9764 27.4091 18.9764 27.9273C18.9764 28.5818 18.9764 29.2091 18.9764 29.8637C18.9764 29.9728 18.9764 30.0818 19.1127 30.1091C20.0127 30.4364 20.9673 29.7273 20.94 28.7728C20.8855 27.9818 20.5036 27.6546 19.5218 27.6546Z" fill="#019A2D"/>
  <path d="M18.9764 26.2364C18.9764 26.3455 18.9491 26.4546 19.0855 26.5091C19.7127 26.8091 20.6946 26.2364 20.7491 25.5546C20.8036 24.6818 20.4764 24.3546 19.44 24.3546C19.0036 24.2182 18.9491 24.4909 18.9764 24.9C19.0036 25.3364 18.9764 25.8 18.9764 26.2364Z" fill="#029A2D"/>
  <path d="M12.54 27.1909C12.54 28.0364 12.54 28.8818 12.54 29.7546C12.54 29.8909 12.4855 30.0546 12.7036 30.1364C13.6036 30.3546 14.34 29.9182 14.4764 28.9909C14.6673 27.8728 14.6673 26.7546 14.5036 25.6637C14.3673 24.6273 13.9855 24.3818 12.8945 24.3818C12.5945 24.3818 12.4855 24.4364 12.4855 24.7637C12.5673 25.5546 12.54 26.3728 12.54 27.1909Z" fill="#019A2C"/>
</svg>