<svg xmlns="http://www.w3.org/2000/svg" height="100" viewBox="0 0 100 100" width="100">
    <path d="m84 64.68-34-4.19-34 4.19 34 26.62z" fill="#fcbf92" />
    <path d="m16 64.68 34 10.17v16.45l-34-17.05z" fill="#9d5025" />
    <path d="m84 64.68-34 10.17v16.45l34-17.05z" fill="#f58534" />
    <path d="m20.39 50.22h-4.39v9.67l4.39.8 4.88-5.18z" fill="#9d5025" />
    <path d="m25.27 60.29-4.88.4v-10.47h4.88z" fill="#f58534" />
    <path d="m28.56 38.16-5.78 1.09v21.94l5.78 1.2 5.29-12.17z" fill="#9d5025" />
    <path d="m33.85 61.79-5.29.6v-24.23l5.29.6z" fill="#f58534" />
    <path d="m39.83 43.04-7.98.8v19.24l7.98 1.6 8.47-10.87z" fill="#9d5025" />
    <path d="m45.21 63.78-5.38.9v-21.64l5.38.4z" fill="#f58534" />
    <g fill="#9d5025">
        <path d="m50 25.59-5.38 1.7v38.29l5.38 1.09 5.38-20.54z" />
        <path d="m54.98 63.78 5.19.9 7.98-14.46-7.98-14.36-5.19.8z" />
        <path d="m68.15 50.22-7.98-14.36-5.19.8" />
        <path d="m66.05 61.79 5.39.6 5.78-18.25-5.78-18.15-5.39 1.3z" />
        <path d="m74.73 60.29 4.88.4 4.39-18.05-4.39-18.64-4.88 1.2z" />
    </g>
    <path d="m50 25.59 5.38 1.7v38.29l-5.38 1.09z" fill="#f58534" />
    <path d="m68.15 37.46-7.98-1.6v28.82l7.98-1.6z" fill="#f58534" />
    <path d="m77.22 28.29-5.78-2.3v36.4l5.78-1.2z" fill="#f58534" />
    <path d="m84 26.19-4.39-2.19v36.69l4.39-.8z" fill="#f58534" />
</svg>