<?xml version="1.0" encoding="utf-8"?>
<!-- Generator: Adobe Illustrator 24.1.2, SVG Export Plug-In . SVG Version: 6.00 Build 0)  -->
<svg version="1.1" id="Ebene_1" xmlns="http://www.w3.org/2000/svg" xmlns:xlink="http://www.w3.org/1999/xlink" x="0px" y="0px"
	 viewBox="0 0 688.3 129" style="enable-background:new 0 0 688.3 129;" xml:space="preserve">
<style type="text/css">
	.st0{fill:none;}
	.st1{fill:#47495A;stroke:#47495A;stroke-width:2;stroke-miterlimit:10;}
	.st2{fill:#47495A;}
</style>
<rect x="-575" y="-263" class="st0" width="4" height="11"/>
<g id="layer1" transform="translate(0,-288.53332)">
	<path id="path929" class="st1" d="M62.8,295c-23.4,0-42.5,19.1-42.5,42.5c0,41.3,40.1,72.6,40.1,72.6c1.4,1.1,3.4,1.1,4.8,0
		c0,0,40.1-31.4,40.1-72.6C105.4,314.1,86.3,295,62.8,295z M62.8,302.8c19.3,0,34.8,15.5,34.8,34.8c0,33.8-30.6,60.4-34.8,64
		c-4.2-3.6-34.8-30.3-34.8-64C28,318.3,43.6,302.8,62.8,302.8z"/>
	<path id="circle931" class="st1" d="M62.8,318.2c-10.6,0-19.3,8.7-19.3,19.3c0,10.6,8.7,19.4,19.3,19.4s19.4-8.7,19.4-19.4
		C82.2,326.9,73.5,318.2,62.8,318.2z M62.8,326c6.5,0,11.6,5.1,11.6,11.6s-5.2,11.6-11.6,11.6s-11.6-5.2-11.6-11.6
		C51.2,331.1,56.4,326,62.8,326z"/>
</g>
<g>
	<path class="st2" d="M170.9,39.7h-30.5V28.3H189V39l-33.1,39.6h34V90h-52.1V79.4L170.9,39.7z"/>
	<path class="st2" d="M196.8,38.4V28.3h12.3v10.1H196.8z M209.1,45.4v44.7h-12.3V45.4H209.1z"/>
	<path class="st2" d="M230.5,45.4v5.7h0.2c1.5-2.4,3.4-4.2,5.7-5.3s4.8-1.6,7.6-1.6c3.5,0,6.5,0.7,9.1,2c2.5,1.3,4.6,3.1,6.3,5.3
		c1.7,2.2,2.9,4.7,3.7,7.7c0.8,2.9,1.2,6,1.2,9.1c0,3-0.4,5.9-1.2,8.7c-0.8,2.8-2,5.2-3.7,7.4c-1.6,2.1-3.7,3.8-6.1,5.1
		c-2.5,1.3-5.3,1.9-8.6,1.9c-2.8,0-5.3-0.6-7.7-1.7c-2.3-1.1-4.3-2.8-5.8-5H231v21.2h-12.3V45.4H230.5z M246.5,80.8
		c1.4-0.8,2.5-1.9,3.3-3.2c0.8-1.3,1.4-2.8,1.8-4.5c0.3-1.7,0.5-3.5,0.5-5.3s-0.2-3.5-0.6-5.3c-0.4-1.7-1-3.3-1.9-4.6
		c-0.9-1.4-2-2.5-3.3-3.3c-1.4-0.8-3-1.3-5-1.3s-3.7,0.4-5.1,1.3c-1.4,0.8-2.5,1.9-3.3,3.2s-1.4,2.9-1.8,4.6
		c-0.3,1.7-0.5,3.5-0.5,5.4c0,1.8,0.2,3.5,0.6,5.3c0.4,1.7,1,3.2,1.8,4.5s1.9,2.4,3.3,3.2c1.4,0.8,3.1,1.2,5,1.2
		C243.4,82,245.1,81.6,246.5,80.8z"/>
	<path class="st2" d="M293.1,53.4c-2,0-3.6,0.4-4.9,1.3c-1.3,0.9-2.4,2-3.2,3.5c-0.8,1.4-1.4,3-1.8,4.7c-0.3,1.7-0.5,3.4-0.5,5.1
		c0,1.6,0.2,3.3,0.5,4.9c0.3,1.7,0.9,3.2,1.7,4.5c0.8,1.4,1.8,2.5,3.2,3.3c1.3,0.9,2.9,1.3,4.8,1.3c2.9,0,5.2-0.8,6.8-2.5
		c1.6-1.6,2.6-3.9,3-6.6h11.9c-0.8,5.9-3.1,10.5-6.9,13.6s-8.7,4.7-14.6,4.7c-3.3,0-6.4-0.6-9.2-1.7c-2.8-1.1-5.2-2.7-7.1-4.7
		c-2-2-3.5-4.4-4.6-7.2c-1.1-2.8-1.6-5.9-1.6-9.2c0-3.5,0.5-6.7,1.5-9.6c1-3,2.5-5.5,4.5-7.7s4.4-3.9,7.2-5.1
		c2.8-1.2,6.1-1.8,9.7-1.8c2.7,0,5.2,0.3,7.7,1s4.6,1.7,6.6,3.2c1.9,1.4,3.5,3.2,4.7,5.3s1.9,4.6,2.1,7.5h-12
		C301.3,56,298.3,53.4,293.1,53.4z"/>
	<path class="st2" d="M321.6,58c1.1-2.9,2.7-5.4,4.7-7.4s4.4-3.6,7.3-4.8c2.8-1.1,6-1.7,9.5-1.7s6.7,0.6,9.6,1.7
		c2.9,1.1,5.3,2.7,7.3,4.8c2,2,3.6,4.5,4.7,7.4s1.6,6.2,1.6,9.7c0,3.6-0.5,6.8-1.6,9.7c-1.1,2.9-2.7,5.4-4.7,7.4s-4.5,3.6-7.3,4.7
		c-2.9,1.1-6,1.6-9.6,1.6c-3.5,0-6.7-0.5-9.5-1.6s-5.2-2.7-7.3-4.7c-2-2-3.6-4.5-4.7-7.4s-1.6-6.1-1.6-9.7
		C320,64.2,320.5,60.9,321.6,58z M332.8,73c0.3,1.7,0.9,3.2,1.8,4.6c0.8,1.4,1.9,2.4,3.3,3.2c1.4,0.8,3.1,1.2,5.2,1.2
		s3.8-0.4,5.2-1.2c1.4-0.8,2.5-1.9,3.4-3.2c0.8-1.4,1.4-2.9,1.8-4.6c0.3-1.7,0.5-3.4,0.5-5.2c0-1.8-0.2-3.5-0.5-5.3
		c-0.3-1.7-0.9-3.3-1.8-4.6c-0.8-1.3-2-2.4-3.4-3.2s-3.2-1.3-5.2-1.3s-3.8,0.4-5.2,1.3c-1.4,0.8-2.5,1.9-3.3,3.2s-1.4,2.9-1.8,4.6
		c-0.3,1.7-0.5,3.5-0.5,5.3C332.3,69.6,332.4,71.3,332.8,73z"/>
	<path class="st2" d="M406,84.4c-1.4,2.4-3.3,4.2-5.7,5.2c-2.3,1.1-5,1.6-7.9,1.6c-3.3,0-6.3-0.6-8.8-1.9s-4.6-3.1-6.3-5.3
		c-1.6-2.2-2.9-4.8-3.7-7.7c-0.8-2.9-1.3-5.9-1.3-9c0-3,0.4-5.9,1.3-8.7c0.8-2.8,2.1-5.3,3.7-7.4c1.6-2.1,3.7-3.9,6.2-5.1
		c2.5-1.3,5.4-1.9,8.7-1.9c2.7,0,5.2,0.6,7.6,1.7c2.4,1.1,4.3,2.8,5.7,5h0.2V28.3H418v61.8h-11.7v-5.7H406z M405.5,62.3
		c-0.3-1.7-0.9-3.2-1.8-4.5c-0.8-1.3-1.9-2.3-3.2-3.2c-1.3-0.8-3-1.2-5-1.2s-3.7,0.4-5.1,1.2s-2.5,1.9-3.3,3.2s-1.4,2.8-1.8,4.5
		s-0.6,3.5-0.6,5.3c0,1.7,0.2,3.5,0.6,5.2s1.1,3.3,1.9,4.6c0.9,1.4,2,2.5,3.4,3.3s3,1.3,4.9,1.3c2,0,3.7-0.4,5.1-1.2
		c1.4-0.8,2.4-1.9,3.2-3.2c0.8-1.4,1.4-2.9,1.7-4.6c0.3-1.7,0.5-3.5,0.5-5.4C406,65.7,405.8,64,405.5,62.3z"/>
	<path class="st2" d="M440.3,79.4c1.8,1.8,4.5,2.7,8,2.7c2.5,0,4.6-0.6,6.4-1.9c1.8-1.2,2.9-2.6,3.3-3.9h10.8
		c-1.7,5.4-4.4,9.2-8,11.5s-7.9,3.5-13,3.5c-3.5,0-6.7-0.6-9.5-1.7s-5.2-2.7-7.2-4.8c-2-2.1-3.5-4.6-4.5-7.4
		c-1.1-2.9-1.6-6.1-1.6-9.5c0-3.3,0.5-6.5,1.6-9.3c1.1-2.9,2.7-5.4,4.7-7.5s4.4-3.8,7.2-5c2.8-1.2,5.9-1.8,9.3-1.8
		c3.8,0,7.1,0.7,10,2.2c2.8,1.5,5.1,3.4,7,5.9c1.8,2.5,3.1,5.3,3.9,8.5s1.1,6.5,0.9,10h-32.3C437.4,74.7,438.4,77.6,440.3,79.4z
		 M454.1,55.8c-1.5-1.6-3.7-2.4-6.7-2.4c-2,0-3.6,0.3-4.9,1s-2.3,1.5-3.1,2.5c-0.8,1-1.3,2-1.6,3.1c-0.3,1.1-0.5,2.1-0.6,2.9h20
		C456.6,59.8,455.6,57.4,454.1,55.8z"/>
	<path class="st2" d="M489.1,28.3v22.5h0.2c1.5-2.3,3.5-4,6.1-5.1s5.2-1.6,8-1.6c2.2,0,4.5,0.5,6.7,1.4s4.2,2.3,5.9,4.2
		c1.8,1.9,3.2,4.3,4.3,7.3s1.6,6.5,1.6,10.6s-0.5,7.6-1.6,10.6s-2.5,5.4-4.3,7.3s-3.7,3.3-5.9,4.2c-2.2,0.9-4.4,1.4-6.7,1.4
		c-3.3,0-6.2-0.5-8.8-1.6c-2.6-1-4.6-2.8-5.9-5.3h-0.2v5.7h-11.7V28.3H489.1z M509,62.3c-0.4-1.7-1-3.3-1.9-4.6s-1.9-2.4-3.2-3.2
		c-1.3-0.8-2.9-1.2-4.7-1.2c-1.8,0-3.3,0.4-4.7,1.2c-1.3,0.8-2.4,1.8-3.3,3.2c-0.9,1.3-1.5,2.9-1.9,4.6c-0.4,1.7-0.6,3.5-0.6,5.5
		c0,1.8,0.2,3.6,0.6,5.4c0.4,1.7,1,3.3,1.9,4.6c0.9,1.3,2,2.4,3.3,3.2c1.3,0.8,2.9,1.2,4.7,1.2c1.8,0,3.4-0.4,4.7-1.2
		c1.3-0.8,2.4-1.8,3.2-3.2c0.9-1.3,1.5-2.9,1.9-4.6s0.6-3.5,0.6-5.4S509.4,64,509,62.3z"/>
	<path class="st2" d="M529.1,59.1c0.2-2.9,0.9-5.3,2.2-7.2s2.9-3.4,4.8-4.6c2-1.2,4.2-2,6.6-2.5c2.5-0.5,4.9-0.7,7.4-0.7
		c2.2,0,4.5,0.2,6.8,0.5s4.4,0.9,6.3,1.9c1.9,0.9,3.5,2.2,4.7,3.9c1.2,1.6,1.8,3.8,1.8,6.5v23.3c0,2,0.1,4,0.3,5.8s0.6,3.2,1.2,4.2
		h-12.5c-0.2-0.7-0.4-1.4-0.6-2.1c-0.1-0.7-0.2-1.5-0.3-2.2c-2,2-4.3,3.4-6.9,4.2c-2.7,0.8-5.4,1.2-8.1,1.2c-2.1,0-4.1-0.3-6-0.8
		c-1.8-0.5-3.5-1.3-4.8-2.4c-1.4-1.1-2.5-2.5-3.2-4.2c-0.8-1.7-1.2-3.7-1.2-6c0-2.5,0.4-4.6,1.3-6.3c0.9-1.6,2-3,3.5-3.9
		c1.4-1,3-1.7,4.8-2.2s3.6-0.9,5.5-1.2c1.8-0.3,3.7-0.5,5.5-0.7s3.4-0.4,4.8-0.8c1.4-0.3,2.5-0.9,3.3-1.5c0.8-0.7,1.2-1.6,1.1-2.9
		c0-1.3-0.2-2.4-0.6-3.2c-0.4-0.8-1-1.4-1.7-1.8c-0.7-0.4-1.6-0.7-2.5-0.9c-1-0.1-2-0.2-3.1-0.2c-2.4,0-4.3,0.5-5.7,1.6
		c-1.4,1-2.2,2.8-2.4,5.2C541.4,59.1,529.1,59.1,529.1,59.1z M557.5,68.2c-0.5,0.5-1.2,0.8-1.9,1.1c-0.8,0.3-1.6,0.5-2.5,0.6
		c-0.9,0.2-1.8,0.3-2.8,0.4s-2,0.3-2.9,0.4c-0.9,0.2-1.8,0.4-2.7,0.7c-0.9,0.3-1.7,0.7-2.3,1.2c-0.7,0.5-1.2,1.1-1.6,1.9
		c-0.4,0.8-0.6,1.7-0.6,2.9c0,1.1,0.2,2,0.6,2.8c0.4,0.7,1,1.3,1.6,1.8s1.5,0.7,2.4,0.9c0.9,0.2,1.9,0.3,2.9,0.3
		c2.4,0,4.3-0.4,5.6-1.2c1.3-0.8,2.3-1.8,2.9-2.9c0.6-1.1,1-2.3,1.2-3.4c0.1-1.2,0.2-2.1,0.2-2.8v-4.7H557.5z"/>
	<path class="st2" d="M589.6,79c0.5,1,1.3,1.7,2.1,2.3c0.9,0.6,1.9,1.1,3,1.3c1.1,0.3,2.3,0.4,3.5,0.4c0.9,0,1.8-0.1,2.7-0.3
		c1-0.2,1.8-0.5,2.6-1c0.8-0.4,1.4-1,1.9-1.7s0.8-1.6,0.8-2.7c0-1.8-1.2-3.2-3.7-4.2c-2.5-0.9-5.9-1.8-10.3-2.8
		c-1.8-0.4-3.5-0.9-5.2-1.4s-3.2-1.3-4.5-2.2c-1.3-0.9-2.4-2-3.2-3.4s-1.2-3-1.2-5c0-2.9,0.6-5.2,1.7-7.1c1.1-1.8,2.6-3.3,4.5-4.4
		c1.8-1.1,3.9-1.8,6.2-2.2s4.7-0.6,7.1-0.6c2.4,0,4.8,0.2,7.1,0.7s4.3,1.2,6.1,2.3s3.3,2.6,4.5,4.4c1.2,1.8,1.9,4.1,2.1,6.9h-11.7
		c-0.2-2.4-1.1-4-2.7-4.8c-1.6-0.8-3.5-1.3-5.7-1.3c-0.7,0-1.4,0-2.2,0.1s-1.5,0.3-2.2,0.6s-1.2,0.7-1.7,1.3
		c-0.5,0.5-0.7,1.3-0.7,2.2c0,1.1,0.4,2,1.2,2.7s1.9,1.3,3.2,1.7s2.8,0.8,4.5,1.2c1.7,0.3,3.4,0.7,5.1,1.1c1.8,0.4,3.5,0.9,5.2,1.5
		s3.2,1.3,4.5,2.3s2.4,2.1,3.2,3.5s1.2,3.2,1.2,5.2c0,2.9-0.6,5.4-1.8,7.4s-2.7,3.6-4.6,4.8c-1.9,1.2-4.1,2.1-6.5,2.6
		c-2.5,0.5-4.9,0.7-7.5,0.7s-5.1-0.3-7.6-0.8s-4.7-1.4-6.6-2.6c-1.9-1.2-3.5-2.8-4.8-4.8c-1.2-2-1.9-4.5-2-7.5h11.7
		C588.8,76.9,589.1,78,589.6,79z"/>
	<path class="st2" d="M638.9,79.4c1.8,1.8,4.5,2.7,8,2.7c2.5,0,4.6-0.6,6.4-1.9c1.8-1.2,2.9-2.6,3.3-3.9h10.8
		c-1.7,5.4-4.4,9.2-8,11.5s-7.9,3.5-13,3.5c-3.5,0-6.7-0.6-9.5-1.7s-5.2-2.7-7.2-4.8c-2-2.1-3.5-4.6-4.5-7.4
		c-1.1-2.9-1.6-6.1-1.6-9.5c0-3.3,0.5-6.5,1.6-9.3c1.1-2.9,2.7-5.4,4.7-7.5s4.4-3.8,7.2-5s5.9-1.8,9.3-1.8c3.8,0,7.1,0.7,10,2.2
		c2.8,1.5,5.1,3.4,7,5.9c1.8,2.5,3.1,5.3,3.9,8.5c0.8,3.2,1.1,6.5,0.9,10h-32.3C636.1,74.7,637.1,77.6,638.9,79.4z M652.8,55.8
		c-1.5-1.6-3.7-2.4-6.7-2.4c-2,0-3.6,0.3-4.9,1c-1.3,0.7-2.3,1.5-3.1,2.5s-1.3,2-1.6,3.1s-0.5,2.1-0.6,2.9h20
		C655.3,59.8,654.3,57.4,652.8,55.8z"/>
</g>
</svg>
