<svg xmlns="http://www.w3.org/2000/svg" width="40" height="40" viewBox="0 0 40 40" fill="none">
  <path d="M34.6346 22.0111C34.6346 22.3678 34.4944 22.7097 34.2449 22.9618C33.9954 23.2139 33.657 23.3557 33.3041 23.3557C32.9512 23.3557 32.6128 23.2139 32.3633 22.9618C32.1138 22.7097 31.9736 22.3678 31.9736 22.0111V10.0001C31.9736 9.64351 32.1138 9.30154 32.3633 9.04942C32.6128 8.79728 32.9512 8.65563 33.3041 8.65563C33.657 8.65563 33.9954 8.79728 34.2449 9.04942C34.4944 9.30154 34.6346 9.64351 34.6346 10.0001V22.0111ZM34.1726 30.3334C33.9968 30.5111 29.049 34.6778 19.978 34.6778C10.9071 34.6778 5.99231 30.5334 5.78341 30.3555C5.65177 30.2434 5.54332 30.106 5.4643 29.9515C5.38529 29.7967 5.33724 29.6279 5.32295 29.4544C5.30865 29.2811 5.32835 29.1065 5.38097 28.9408C5.43356 28.7751 5.51802 28.6215 5.62948 28.4888C5.85911 28.2204 6.18446 28.0546 6.53461 28.0274C6.88476 28.0004 7.23129 28.1144 7.49864 28.3444C7.57561 28.4 11.9956 32.0222 19.967 32.0222C27.9385 32.0222 32.3914 28.3778 32.4355 28.3444C32.7059 28.1164 33.0535 28.0039 33.4045 28.0309C33.7557 28.0579 34.0825 28.2222 34.3156 28.4888C34.5399 28.7534 34.6519 29.0967 34.6272 29.4441C34.6025 29.7915 34.4431 30.1151 34.1837 30.3444L34.1726 30.3334ZM5.31063 10.0001C5.3305 9.64238 5.48971 9.30717 5.75342 9.06775C6.01714 8.82831 6.36393 8.70412 6.718 8.72229C7.04622 8.74114 7.35594 8.88212 7.58739 9.11807C7.81885 9.35402 7.95566 9.66823 7.97143 10.0001V21.989C7.97143 22.3455 7.83126 22.6874 7.58177 22.9395C7.33226 23.1918 6.99387 23.3334 6.64103 23.3334C6.28818 23.3334 5.94979 23.1918 5.70029 22.9395C5.4508 22.6874 5.31063 22.3455 5.31063 21.989V10.0001ZM11.9846 7.33342C12.0045 6.97571 12.1637 6.64052 12.4274 6.4011C12.6911 6.16166 13.0379 6.03747 13.392 6.05564C13.7202 6.07448 14.0299 6.21547 14.2614 6.45141C14.4929 6.68736 14.6297 7.00155 14.6454 7.33342V25.1111C14.6454 25.4678 14.5053 25.8097 14.2558 26.0618C14.0063 26.3139 13.6679 26.4555 13.315 26.4555C12.9622 26.4555 12.6238 26.3139 12.3743 26.0618C12.1248 25.8097 11.9846 25.4678 11.9846 25.1111V7.33342ZM18.6917 6.66675C18.6917 6.31019 18.8318 5.96822 19.0813 5.7161C19.3308 5.46396 19.6692 5.32231 20.022 5.32231C20.3749 5.32231 20.7133 5.46396 20.9628 5.7161C21.2123 5.96822 21.3524 6.31019 21.3524 6.66675V26C21.3524 26.3565 21.2123 26.6985 20.9628 26.9507C20.7133 27.2029 20.3749 27.3444 20.022 27.3444C19.6692 27.3444 19.3308 27.2029 19.0813 26.9507C18.8318 26.6985 18.6917 26.3565 18.6917 26V6.66675ZM25.2887 7.33342C25.2887 6.97685 25.4289 6.63489 25.6784 6.38275C25.9279 6.13062 26.2663 5.98897 26.619 5.98897C26.9719 5.98897 27.3103 6.13062 27.5598 6.38275C27.8093 6.63489 27.9495 6.97685 27.9495 7.33342V25.1111C27.9495 25.4678 27.8093 25.8097 27.5598 26.0618C27.3103 26.3139 26.9719 26.4555 26.619 26.4555C26.2663 26.4555 25.9279 26.3139 25.6784 26.0618C25.4289 25.8097 25.2887 25.4678 25.2887 25.1111V7.33342ZM34.9973 0.000110953H5.00275C4.34919 -0.00427913 3.70119 0.121648 3.09586 0.370681C2.49052 0.619715 1.93973 0.986967 1.47503 1.4514C1.01034 1.91585 0.640858 2.46834 0.38775 3.07729C0.134642 3.68622 0.0028775 4.33962 0 5.0001V35.0001C0.0028775 35.6604 0.134642 36.3139 0.38775 36.9229C0.640858 37.5316 1.01034 38.0843 1.47503 38.5487C1.93973 39.013 2.49052 39.3804 3.09586 39.6294C3.70119 39.8785 4.34919 40.0043 5.00275 39.9999H34.9973C35.6499 40.0043 36.2971 39.8788 36.9016 39.6304C37.5063 39.3822 38.0566 39.0159 38.5212 38.5525C38.9857 38.0894 39.3554 37.5381 39.6091 36.9304C39.863 36.3229 39.9958 35.6706 40 35.0111V5.0001C39.9972 4.34057 39.8658 3.68808 39.6133 3.07986C39.361 2.47165 38.9925 1.91965 38.5289 1.45535C38.0654 0.99106 37.516 0.623576 36.9118 0.373887C36.3078 0.124195 35.6609 -0.00281376 35.0083 0.000110953" fill="#081D34"/>
</svg>