<svg xmlns="http://www.w3.org/2000/svg" width="40" height="40" viewBox="0 0 40 40" fill="none">
  <path d="M26.859 19.0325H13.1753V22.1168H26.859V19.0325Z" fill="black"/>
  <path d="M33.1649 7.83557H24.1111L26.2956 10.9268L32.897 12.9876C33.4797 13.1716 33.9878 13.5379 34.3465 14.0327C34.7052 14.5274 34.8954 15.1243 34.8891 15.7353V25.5859C34.8932 26.1964 34.7021 26.7922 34.3438 27.2865C33.9854 27.7808 33.4785 28.1477 32.897 28.3336L26.2956 30.3532L24.1111 33.4443H33.1649C34.0656 33.4453 34.9576 33.268 35.7896 32.9227C36.6215 32.5773 37.3768 32.0708 38.0122 31.4323C38.6475 30.7938 39.1502 30.0359 39.4913 29.2023C39.8325 28.3687 40.0053 27.4758 39.9999 26.575V14.7049C39.9999 12.889 39.2809 11.1469 38 9.85965C36.7192 8.57239 34.9808 7.84465 33.1649 7.83557Z" fill="black"/>
  <path d="M6.86931 7.83557H15.8956L13.7386 10.9268L7.13721 12.9876C6.55382 13.1713 6.04479 13.5374 5.68497 14.032C5.32514 14.5266 5.13351 15.1236 5.13824 15.7353V25.5859C5.13567 26.197 5.32814 26.793 5.68766 27.2871C6.04717 27.7813 6.55498 28.1479 7.13721 28.3336L13.7386 30.3532L15.9231 33.4443H6.86931C5.04745 33.4443 3.30022 32.7206 2.01197 31.4324C0.723728 30.1441 0 28.3969 0 26.575L0 14.7049C0 12.883 0.723728 11.1358 2.01197 9.84754C3.30022 8.5593 5.04745 7.83557 6.86931 7.83557Z" fill="black"/>
</svg>