<svg xmlns:xlink="http://www.w3.org/1999/xlink" xmlns="http://www.w3.org/2000/svg" width="1066.667" height="842.507" viewBox="0 0 800 631.88" xmlns:v="https://vecta.io/nano"><style><![CDATA[.B{fill:#1c3a85}]]></style><defs><clipPath id="A"><path d="M6.805 25H21v15H6.805zm0 0"/></clipPath><clipPath id="B"><path d="M50 29h9.805v11H50zm0 0"/></clipPath><clipPath id="C"><path d="M15 41h5v6.52h-5zm0 0"/></clipPath><clipPath id="D"><path d="M20 43h5v4.52h-5zm0 0"/></clipPath><clipPath id="E"><path d="M24 41h3v6.52h-3zm0 0"/></clipPath><clipPath id="F"><path d="M27 43h5v4.52h-5zm0 0"/></clipPath><clipPath id="G"><path d="M34 41h5v6.52h-5zm0 0"/></clipPath><clipPath id="H"><path d="M38 43h5v4.52h-5zm0 0"/></clipPath><clipPath id="I"><path d="M42 43h5v4.52h-5zm0 0"/></clipPath><clipPath id="J"><path d="M47 43h4v4.52h-4zm0 0"/></clipPath><clipPath id="K"><path d="M23 5.746h15V16H23zm0 0"/></clipPath></defs><g clip-path="url(#A)" transform="matrix(15.1524 0 0 15.1524 -104.3504 -87.682125)" class="B"><path d="M9.34 32.422a5.63 5.63 0 0 0 .328 1.953c.215.594.523 1.105.918 1.543s.871.773 1.422 1.02 1.168.371 1.852.371 1.301-.121 1.855-.371 1.035-.586 1.434-1.02.703-.949.918-1.543a5.63 5.63 0 0 0 .324-1.953c0-.656-.105-1.27-.324-1.84a4.57 4.57 0 0 0-.918-1.496 4.26 4.26 0 0 0-1.434-1.004c-.555-.238-1.176-.359-1.855-.359s-1.301.121-1.852.359a4.29 4.29 0 0 0-1.422 1.004 4.57 4.57 0 0 0-.918 1.496c-.219.57-.328 1.184-.328 1.84zm-2.453.148c0-1.055.176-2.008.523-2.871s.824-1.594 1.438-2.199 1.348-1.078 2.195-1.406 1.781-.492 2.797-.492c1.027-.012 1.969.141 2.824.457s1.594.777 2.211 1.383 1.102 1.34 1.449 2.191c.348.859.52 1.813.52 2.863 0 1.031-.172 1.965-.52 2.805a6.4 6.4 0 0 1-1.449 2.176c-.617.609-1.355 1.082-2.211 1.422s-1.797.516-2.824.531c-1.016 0-1.949-.164-2.797-.492a6.39 6.39 0 0 1-2.195-1.395c-.613-.602-1.094-1.324-1.438-2.164s-.523-1.781-.523-2.809"/></g><path d="M242.202 369.495h33.797v21.426h.533c3.788-7.872 9.115-13.969 16.099-18.289 6.925-4.321 14.916-6.511 23.912-6.511 2.072 0 4.084.237 6.037.592s4.025.829 6.037 1.421v32.672c-2.782-.769-5.564-1.361-8.286-1.835s-5.386-.71-7.991-.71c-7.931 0-14.265 1.48-19.059 4.38s-8.405 6.215-10.95 9.944c-2.545 3.788-4.202 7.517-5.09 11.305-.829 3.729-1.243 6.57-1.243 8.405v72.388h-33.797V369.494m110.093.001h33.797v135.188h-33.797zm-4.794-45.872c0-5.445 2.012-10.181 6.096-14.205 4.025-4.025 9.115-6.037 15.33-6.037s11.364 1.894 15.626 5.741c4.202 3.847 6.333 8.701 6.333 14.501s-2.131 10.654-6.333 14.501c-4.262 3.847-9.411 5.801-15.626 5.801s-11.305-2.072-15.33-6.096c-4.084-4.025-6.096-8.76-6.096-14.205m104.468 113.524c0 5.209.888 10.299 2.663 15.152 1.776 4.913 4.439 9.174 7.931 12.962 3.433 3.788 7.635 6.748 12.489 8.997 4.913 2.249 10.417 3.374 16.632 3.374 6.156 0 11.719-1.125 16.632-3.374 4.854-2.249 9.056-5.209 12.489-8.997 3.492-3.788 6.096-8.05 7.872-12.962 1.835-4.854 2.723-9.944 2.723-15.152 0-5.268-.888-10.358-2.723-15.271-1.776-4.853-4.38-9.174-7.872-12.903-3.433-3.788-7.635-6.807-12.489-8.997-4.913-2.308-10.476-3.433-16.632-3.433-6.215 0-11.719 1.125-16.632 3.433-4.853 2.19-9.056 5.209-12.489 8.997-3.492 3.729-6.156 8.05-7.931 12.903-1.776 4.913-2.663 10.003-2.663 15.271zm-33.797 0c0-10.713 1.953-20.479 5.801-29.18 3.847-8.76 9.056-16.218 15.626-22.373 6.57-6.215 14.383-11.009 23.38-14.383s18.585-5.09 28.707-5.09 19.71 1.716 28.707 5.09 16.81 8.168 23.38 14.383c6.57 6.156 11.779 13.613 15.626 22.373 3.847 8.701 5.801 18.467 5.801 29.18 0 10.654-1.953 20.361-5.801 29.121-3.847 8.701-9.056 16.159-15.626 22.373s-14.383 11.009-23.38 14.383-18.585 5.031-28.707 5.031-19.71-1.657-28.707-5.031-16.81-8.168-23.38-14.383-11.779-13.673-15.626-22.373c-3.847-8.76-5.801-18.467-5.801-29.121m179.106 67.534h33.797V291.838h-33.797zm0 0" class="B"/><g transform="matrix(15.1524 0 0 15.1524 -104.3504 -87.682125)" class="B"><g clip-path="url(#B)"><path d="M57.453 33.742c-.012-.656-.215-1.172-.613-1.551s-.945-.566-1.652-.566c-.672 0-1.199.191-1.586.574s-.633.898-.719 1.543zm-4.57 1.672c.074.668.336 1.188.781 1.563s.984.555 1.617.555c.559 0 1.023-.113 1.402-.344a3.74 3.74 0 0 0 .992-.863l1.602 1.207c-.523.645-1.105 1.105-1.746 1.375-.648.273-1.324.41-2.027.41-.668 0-1.301-.109-1.895-.332s-1.109-.539-1.543-.949-.777-.902-1.031-1.477-.383-1.219-.383-1.922.129-1.352.383-1.926.598-1.07 1.031-1.477.949-.727 1.543-.949 1.227-.336 1.895-.336c.617 0 1.184.109 1.699.328a3.61 3.61 0 0 1 1.32.938c.367.41.648.914.855 1.516s.305 1.289.305 2.07v.613h-6.801"/></g><g clip-path="url(#C)"><path d="M16.465 45.25c0 1.004.5 1.648 1.289 1.648.797 0 1.273-.609 1.273-1.625 0-.828-.355-1.609-1.289-1.609-.781 0-1.273.609-1.273 1.586zm3.23 2.102h-.645v-.613c-.258.477-.73.727-1.367.727-1.176 0-1.926-.848-1.926-2.199 0-1.176.613-2.191 1.891-2.191.605 0 1.055.234 1.363.68v-2.137h.684v5.734"/></g><g clip-path="url(#D)"><path d="M22.375 45.441c-.5.066-1.176.121-1.176.789 0 .43.316.695.832.695.641 0 1.262-.445 1.262-.977v-.754c-.258.191-.609.207-.918.246zm2.02 1.895a1.35 1.35 0 0 1-.465.078c-.387 0-.594-.215-.605-.613-.41.461-.859.664-1.504.664-.82 0-1.328-.453-1.328-1.176 0-.742.488-1.176 1.473-1.297s1.328-.098 1.328-.66c0-.441-.332-.684-.941-.684-.637 0-.969.23-1.031.844h-.668c.023-.887.668-1.41 1.738-1.41.559 0 1.031.145 1.305.402.289.281.281.711.281 1.082l-.031 1.848c0 .309.07.414.281.414a.52.52 0 0 0 .168-.027v.535"/></g><g clip-path="url(#E)"><path d="M26.813 43.758h-.828v2.426c0 .379-.023.609.457.609.137 0 .227-.004.371-.023v.59l-.523.031c-1.039 0-.988-.516-.988-1.426v-2.207h-.703v-.562h.703v-1.23h.684v1.23h.828v.563"/></g><g clip-path="url(#F)"><path d="M29.227 45.441c-.5.066-1.18.121-1.18.789 0 .43.316.695.832.695.645 0 1.262-.445 1.262-.977v-.754c-.254.191-.609.207-.914.246zm2.02 1.895c-.145.055-.316.078-.469.078-.387 0-.594-.215-.602-.613-.41.461-.863.664-1.508.664-.82 0-1.328-.453-1.328-1.176 0-.742.492-1.176 1.473-1.297.992-.121 1.328-.098 1.328-.66 0-.441-.328-.684-.941-.684-.637 0-.965.23-1.027.844H27.5c.023-.887.672-1.41 1.738-1.41.559 0 1.031.145 1.305.402.289.281.285.711.285 1.082l-.035 1.848c0 .309.074.414.285.414.063 0 .094-.008.168-.027v.535"/></g><g clip-path="url(#G)"><path d="M34.766 45.305c0 .984.5 1.594 1.297 1.594.766 0 1.273-.645 1.273-1.633s-.5-1.602-1.273-1.602c-.949 0-1.297.813-1.297 1.641zm.027-1.539c.313-.473.805-.684 1.375-.684 1.137 0 1.875.855 1.875 2.176 0 1.344-.754 2.215-1.914 2.215-.57 0-1.105-.211-1.375-.727v.605h-.648v-5.734h.688v2.148"/></g><g clip-path="url(#H)"><path d="M40.543 45.441c-.5.066-1.176.121-1.176.789 0 .43.313.695.828.695.645 0 1.266-.445 1.266-.977v-.754c-.262.191-.613.207-.918.246zm2.02 1.895a1.35 1.35 0 0 1-.465.078c-.387 0-.598-.215-.605-.613-.41.461-.863.664-1.508.664-.82 0-1.328-.453-1.328-1.176 0-.742.492-1.176 1.473-1.297.992-.121 1.332-.098 1.332-.66 0-.441-.332-.684-.941-.684-.637 0-.969.23-1.031.844h-.672c.023-.887.672-1.41 1.742-1.41.555 0 1.027.145 1.305.402.289.281.281.711.281 1.082l-.035 1.848c0 .309.074.414.285.414.063 0 .094-.008.168-.027v.535"/></g><g clip-path="url(#I)"><path d="M45.598 44.406c-.051-.551-.426-.758-1.016-.758-.523 0-.844.215-.844.563 0 .469.539.539 1.102.668.703.16 1.609.363 1.609 1.266 0 .805-.684 1.336-1.719 1.336-1.129 0-1.75-.508-1.789-1.441h.676c.039.625.465.875 1.129.875.609 0 1.012-.273 1.012-.691 0-.461-.465-.555-1.047-.699-.715-.176-1.672-.266-1.672-1.223 0-.75.617-1.227 1.582-1.227.938 0 1.66.453 1.66 1.332h-.684"/></g><g clip-path="url(#J)"><path d="M48.914 43.641c-.664 0-1.133.48-1.223 1.262h2.414c-.062-.789-.504-1.262-1.191-1.262zm.043 3.848c-1.223 0-1.957-.805-1.957-2.156s.781-2.258 1.934-2.258c1.367 0 1.883 1.09 1.883 2.285v.098h-3.125l-.008.051c0 .883.492 1.418 1.297 1.418.598 0 .926-.262 1.121-.887h.668c-.211.957-.828 1.449-1.812 1.449"/></g></g><path d="M335.543 200.332c166.381 8.76 200.296-141.817 300.089-59.84-63.214-.237-72.27 44.747-125.658 77.183-49.778 30.246-121.16 41.788-174.43-17.342" class="B"/><path d="M113.998 63.25c113.939 5.209 146.197 167.209 312.459 97.899-69.074 1.421-105.712-109.204-201.421-124.475-30.66-4.913-65.7 3.019-111.039 26.576" fill="#234aa3"/><g clip-path="url(#K)" transform="matrix(15.1524 0 0 15.1524 -104.3504 -87.682125)"><path d="M23.863 6.477c7.293 1.633 7.371 9.895 13.664 8.766-3.402-2.125-2.941-12.145-13.664-8.766" fill="#1768ba"/></g><path d="M413.081 15.721c39.006 30.542 31.015 89.494 69.606 119.503-6.807-22.018 12.666-52.264 3.374-80.201-6.096-18.171-38.591-38.532-72.98-39.302" fill="#fac705"/></svg>