<?xml version="1.0" encoding="UTF-8"?>
<svg width="68px" height="68px" viewBox="0 0 68 68" version="1.1" xmlns="http://www.w3.org/2000/svg" xmlns:xlink="http://www.w3.org/1999/xlink">
    <title>Cloud</title>
    <g id="Dumpster" stroke="none" stroke-width="1" fill="none" fill-rule="evenodd">
        <g id="Cloud">
            <circle id="Oval-Copy-2" fill="#00B06D" cx="34" cy="34" r="34"></circle>
            <path d="M47.9999142,50.2499946 C52.9710098,50.2499946 56.9998927,46.2211117 56.9998927,41.2500161 C56.9998927,36.8976553 53.9061501,33.2625626 49.7998824,32.4328221 C50.0882042,31.6805351 50.2499088,30.8578671 50.2499088,30.0000429 C50.2499088,26.2734893 47.2264785,23.250059 43.4999249,23.250059 C42.1147582,23.250059 40.8210525,23.671933 39.7522913,24.3891325 C37.804626,21.0141406 34.1694647,18.7500697 29.9999571,18.7500697 C23.7843194,18.7500697 18.7499839,23.7844053 18.7499839,30.0000429 C18.7499839,30.1898999 18.7569877,30.379757 18.7640601,30.5695453 C14.8265695,31.954712 12,35.709418 12,40.1250188 C12,45.7148492 16.5351454,50.2499946 22.1249759,50.2499946 L47.9999142,50.2499946 Z" id="c" fill="#FFFFFF" fill-rule="nonzero"></path>
        </g>
    </g>
</svg>