<?xml version="1.0" encoding="UTF-8"?>
<svg width="68px" height="68px" viewBox="0 0 68 68" version="1.1" xmlns="http://www.w3.org/2000/svg" xmlns:xlink="http://www.w3.org/1999/xlink">
    <title>Database</title>
    <g id="Dumpster" stroke="none" stroke-width="1" fill="none" fill-rule="evenodd">
        <g id="Database">
            <circle id="Oval-Copy" fill="#00B06D" cx="34" cy="34" r="34"></circle>
            <path d="M33.7499624,30.0000429 C42.4452771,30.0000429 49.4999249,27.6897609 49.4999249,24.8572177 L49.4999249,21.6429004 C49.4999249,18.8103571 42.4452771,16.5000751 33.7499624,16.5000751 C25.0546478,16.5000751 18,18.8103571 18,21.6429004 L18,24.8572177 C18,27.6897609 25.0546478,30.0000429 33.7499624,30.0000429 Z M33.7499624,41.2500161 C42.4452771,41.2500161 49.4999249,38.9397341 49.4999249,36.1071908 L49.4999249,28.8750456 C46.1160752,31.2053776 39.9228222,32.2902749 33.7499624,32.2902749 C27.5771027,32.2902749 21.383781,31.2053776 18,28.8750456 L18,36.1071908 C18,38.9397341 25.0546478,41.2500161 33.7499624,41.2500161 Z M33.7499624,52.4999893 C42.4452771,52.4999893 49.4999249,50.1897073 49.4999249,47.357164 L49.4999249,40.1250188 C46.1160752,42.4553507 39.9228222,43.5402481 33.7499624,43.5402481 C27.5771027,43.5402481 21.383781,42.4553507 18,40.1250188 L18,47.357164 C18,50.1897073 25.0546478,52.4999893 33.7499624,52.4999893 Z" id="d" fill="#FFFFFF" fill-rule="nonzero"></path>
        </g>
    </g>
</svg>