<?xml version="1.0" encoding="UTF-8"?>
<svg width="68px" height="68px" viewBox="0 0 68 68" version="1.1" xmlns="http://www.w3.org/2000/svg" xmlns:xlink="http://www.w3.org/1999/xlink">
    <title>Server</title>
    <g id="Dumpster" stroke="none" stroke-width="1" fill="none" fill-rule="evenodd">
        <g id="Server">
            <circle id="Oval-Copy-5" fill="#00B06D" cx="34" cy="34" r="34"></circle>
            <path d="M49.7499195,27.7500483 C50.9925389,27.7500483 51.9999142,26.7426731 51.9999142,25.5000536 L51.9999142,21.0000644 C51.9999142,19.757445 50.9925389,18.7500697 49.7499195,18.7500697 L18.2499946,18.7500697 C17.0073752,18.7500697 16,19.757445 16,21.0000644 L16,25.5000536 C16,26.7426731 17.0073752,27.7500483 18.2499946,27.7500483 L49.7499195,27.7500483 Z M46.3749276,24.937555 C45.4429459,24.937555 44.6874316,24.1820407 44.6874316,23.250059 C44.6874316,22.3180773 45.4429459,21.562563 46.3749276,21.562563 C47.3069093,21.562563 48.0624236,22.3180773 48.0624236,23.250059 C48.0624236,24.1820407 47.3069093,24.937555 46.3749276,24.937555 Z M41.8749383,24.937555 C40.9429566,24.937555 40.1874423,24.1820407 40.1874423,23.250059 C40.1874423,22.3180773 40.9429566,21.562563 41.8749383,21.562563 C42.80692,21.562563 43.5624343,22.3180773 43.5624343,23.250059 C43.5624343,24.1820407 42.80692,24.937555 41.8749383,24.937555 Z M49.7499195,39.0000215 C50.9925389,39.0000215 51.9999142,37.9926462 51.9999142,36.7500268 L51.9999142,32.2500376 C51.9999142,31.0074181 50.9925389,30.0000429 49.7499195,30.0000429 L18.2499946,30.0000429 C17.0073752,30.0000429 16,31.0074181 16,32.2500376 L16,36.7500268 C16,37.9926462 17.0073752,39.0000215 18.2499946,39.0000215 L49.7499195,39.0000215 Z M46.3749276,36.1875282 C45.4429459,36.1875282 44.6874316,35.4320139 44.6874316,34.5000322 C44.6874316,33.5680505 45.4429459,32.8125362 46.3749276,32.8125362 C47.3069093,32.8125362 48.0624236,33.5680505 48.0624236,34.5000322 C48.0624236,35.4320139 47.3069093,36.1875282 46.3749276,36.1875282 Z M41.8749383,36.1875282 C40.9429566,36.1875282 40.1874423,35.4320139 40.1874423,34.5000322 C40.1874423,33.5680505 40.9429566,32.8125362 41.8749383,32.8125362 C42.80692,32.8125362 43.5624343,33.5680505 43.5624343,34.5000322 C43.5624343,35.4320139 42.80692,36.1875282 41.8749383,36.1875282 Z M49.7499195,50.2499946 C50.9925389,50.2499946 51.9999142,49.2426194 51.9999142,48 L51.9999142,43.5000107 C51.9999142,42.2573913 50.9925389,41.2500161 49.7499195,41.2500161 L18.2499946,41.2500161 C17.0073752,41.2500161 16,42.2573913 16,43.5000107 L16,48 C16,49.2426194 17.0073752,50.2499946 18.2499946,50.2499946 L49.7499195,50.2499946 Z M46.3749276,47.4375013 C45.4429459,47.4375013 44.6874316,46.6819871 44.6874316,45.7500054 C44.6874316,44.8180236 45.4429459,44.0625094 46.3749276,44.0625094 C47.3069093,44.0625094 48.0624236,44.8180236 48.0624236,45.7500054 C48.0624236,46.6819871 47.3069093,47.4375013 46.3749276,47.4375013 Z M41.8749383,47.4375013 C40.9429566,47.4375013 40.1874423,46.6819871 40.1874423,45.7500054 C40.1874423,44.8180236 40.9429566,44.0625094 41.8749383,44.0625094 C42.80692,44.0625094 43.5624343,44.8180236 43.5624343,45.7500054 C43.5624343,46.6819871 42.80692,47.4375013 41.8749383,47.4375013 Z" id="s" fill="#FFFFFF" fill-rule="nonzero"></path>
        </g>
    </g>
</svg>