<?xml version="1.0" encoding="UTF-8"?>
<!DOCTYPE svg PUBLIC "-//W3C//DTD SVG 1.1//EN" "http://www.w3.org/Graphics/SVG/1.1/DTD/svg11.dtd">
<svg xmlns="http://www.w3.org/2000/svg" version="1.1" width="219px" height="206px" style="shape-rendering:geometricPrecision; text-rendering:geometricPrecision; image-rendering:optimizeQuality; fill-rule:evenodd; clip-rule:evenodd" xmlns:xlink="http://www.w3.org/1999/xlink">
<g><path style="opacity:0.985" fill="#fefefe" d="M 93.5,8.5 C 141.991,4.65418 176.491,24.6542 197,68.5C 211.348,114.974 199.515,153.141 161.5,183C 133.818,199.848 104.484,203.181 73.5,193C 34.5782,175.902 14.5782,146.069 13.5,103.5C 14.5782,60.9313 34.5782,31.098 73.5,14C 80.1304,11.5825 86.797,9.74919 93.5,8.5 Z"/></g>
<g><path style="opacity:1" fill="#cdcdcd" d="M 111.5,59.5 C 119.507,59.3336 127.507,59.5003 135.5,60C 149.406,65.3229 153.239,74.8229 147,88.5C 142.734,93.7166 137.234,96.3833 130.5,96.5C 130.5,91.5 130.5,86.5 130.5,81.5C 134.225,81.2204 135.392,79.2204 134,75.5C 131.619,74.565 129.119,74.2317 126.5,74.5C 126.5,89.8333 126.5,105.167 126.5,120.5C 121.5,120.5 116.5,120.5 111.5,120.5C 111.5,100.167 111.5,79.8333 111.5,59.5 Z"/></g>
<g><path style="opacity:1" fill="#f57413" d="M 159.5,59.5 C 164.5,59.5 169.5,59.5 174.5,59.5C 174.5,62.1667 174.5,64.8333 174.5,67.5C 168.51,68.5812 163.676,71.5812 160,76.5C 159.501,70.8431 159.334,65.1764 159.5,59.5 Z"/></g>
<g><path style="opacity:1" fill="#cccccc" d="M 65.5,60.5 C 70.2137,60.1734 74.8804,60.5067 79.5,61.5C 87.3627,81.0879 95.0294,100.755 102.5,120.5C 97.2079,121.495 91.8746,121.828 86.5,121.5C 82.2337,109.037 77.567,96.7037 72.5,84.5C 70.3203,87.8593 68.987,91.526 68.5,95.5C 70.4672,95.2606 72.3005,95.5939 74,96.5C 75.8333,101.333 77.6667,106.167 79.5,111C 79.1667,111.5 78.8333,112 78.5,112.5C 72.0376,109.373 66.2042,110.373 61,115.5C 59.4412,117.217 58.6079,119.217 58.5,121.5C 53.1667,121.5 47.8333,121.5 42.5,121.5C 49.5753,100.94 57.2419,80.6072 65.5,60.5 Z"/></g>
<g><path style="opacity:1" fill="#8a8d8f" d="M 172.5,71.5 C 173.496,87.6581 173.83,103.991 173.5,120.5C 168.833,120.5 164.167,120.5 159.5,120.5C 159.333,107.496 159.5,94.4957 160,81.5C 162.858,76.4696 167.025,73.1363 172.5,71.5 Z"/></g>
<g><path style="opacity:1" fill="#b8babb" d="M 172.5,71.5 C 172.56,70.9569 172.893,70.6236 173.5,70.5C 174.827,87.3286 174.827,103.995 173.5,120.5C 173.83,103.991 173.496,87.6581 172.5,71.5 Z"/></g>
<g><path style="opacity:1" fill="#6e7073" d="M 134.5,147.5 C 137.572,147.183 140.572,147.516 143.5,148.5C 142.311,149.429 140.978,149.762 139.5,149.5C 139.167,162.833 138.833,162.833 138.5,149.5C 136.517,149.843 135.183,149.176 134.5,147.5 Z"/></g>
<g><path style="opacity:1" fill="#686b6e" d="M 95.5,147.5 C 103.571,148.093 105.571,151.926 101.5,159C 95.984,160.925 92.6507,159.091 91.5,153.5C 91.8662,150.744 93.1995,148.744 95.5,147.5 Z"/></g>
<g><path style="opacity:1" fill="#676a6e" d="M 156.5,147.5 C 162.966,148.623 162.966,149.29 156.5,149.5C 156.809,152.346 158.475,153.846 161.5,154C 162.833,155.667 162.833,157.333 161.5,159C 158.947,159.851 156.614,159.518 154.5,158C 156.425,158.135 158.425,158.302 160.5,158.5C 160.649,157.448 160.483,156.448 160,155.5C 154.645,154.377 153.478,151.71 156.5,147.5 Z"/></g>
<g><path style="opacity:1" fill="#f6f6f7" d="M 95.5,149.5 C 102.225,149.204 103.891,151.871 100.5,157.5C 93.4089,158.531 91.7422,155.864 95.5,149.5 Z"/></g>
<g><path style="opacity:1" fill="#76787b" d="M 72.5,147.5 C 75.6852,147.02 78.5185,147.686 81,149.5C 81.9874,153.506 80.4874,155.339 76.5,155C 79.0352,154.072 80.0352,152.238 79.5,149.5C 77.8333,149.5 76.1667,149.5 74.5,149.5C 74.8204,152.898 74.487,156.232 73.5,159.5C 72.5091,155.555 72.1758,151.555 72.5,147.5 Z"/></g>
<g><path style="opacity:1" fill="#696b6f" d="M 114.5,147.5 C 122.447,146.383 124.781,149.217 121.5,156C 121.759,157.261 122.426,158.261 123.5,159C 121.08,158.628 119.08,157.295 117.5,155C 120.629,154.883 121.795,153.383 121,150.5C 119.301,149.594 117.467,149.261 115.5,149.5C 115.665,152.85 115.498,156.183 115,159.5C 114.501,155.514 114.334,151.514 114.5,147.5 Z"/></g>
<g><path style="opacity:1" fill="#66696d" d="M 55.5,147.5 C 57.4672,147.261 59.3005,147.594 61,148.5C 61.6667,149.167 61.6667,149.833 61,150.5C 59.1862,149.24 57.3529,149.24 55.5,150.5C 57.7966,151.898 59.9632,153.564 62,155.5C 62.6838,156.784 62.5171,157.951 61.5,159C 58.6213,159.874 55.9546,159.54 53.5,158C 54.8029,157.79 56.1362,157.957 57.5,158.5C 59.0004,158.547 60.0004,157.881 60.5,156.5C 58.7798,155.08 56.9465,153.747 55,152.5C 54.3603,150.735 54.5269,149.068 55.5,147.5 Z"/></g>
</svg>
