<svg xmlns="http://www.w3.org/2000/svg" width="40" height="40" viewBox="0 0 40 40" fill="none">
  <path d="M13.0526 15.8916C14.1654 17.7276 15.5489 19.4131 17.1429 20.8578C18.2556 21.8811 18.9173 23.3258 18.9173 24.8307V36.4485C13.0226 31.392 10.7368 23.3258 13.0526 15.8916ZM21.0827 24.8307C21.0827 23.3258 21.7143 21.8811 22.8571 20.8578C24.4511 19.4131 25.8346 17.7577 26.9474 15.8916C27.5489 17.7577 27.8496 19.7141 27.8496 21.7005C27.8496 27.3589 25.3835 32.7163 21.1128 36.4184V24.8307H21.0827ZM16.0902 16.4635C14.6466 14.5372 14.6466 11.8886 16.0902 9.96238C17.203 8.48758 18.4962 7.19338 19.9699 6.07976C21.4737 7.19338 22.797 8.51768 23.9399 10.0226C25.3534 11.9187 25.3534 14.5071 23.9399 16.4033C22.8271 17.9082 21.4737 19.2325 19.9699 20.3461C18.5263 19.2927 17.203 17.9383 16.0902 16.4635ZM31.5789 0.0601959C27.4586 0.0601959 23.4586 1.23401 20 3.46125C16.5414 1.26411 12.5414 0.0902937 8.45113 0.0601959H8.39098H8.3609C6.91729 0.0601959 5.44361 0.210685 4 0.511663L4.54135 2.64861C5.80451 2.40783 7.09774 2.25734 8.3609 2.25734C11.7594 2.25734 15.0977 3.13017 18.0451 4.81565C8.7218 12.31 7.24812 25.9443 14.7368 35.2746C16.0602 36.93 17.6241 38.3747 19.3684 39.5786L20 40L20.6316 39.5786C24.9925 36.5688 28.1203 32.0843 29.4135 26.9375C31.4586 18.7509 28.5414 10.1129 21.9549 4.81565C26.0451 2.46802 30.8571 1.71558 35.4586 2.61851L36 0.481566C34.5564 0.180588 33.1128 0.0300978 31.6391 0C31.609 0.0601956 31.5789 0.0601959 31.5789 0.0601959Z" fill="url(#paint0_linear_141_509)"/>
  <defs>
    <linearGradient id="paint0_linear_141_509" x1="19.634" y1="-4.20229" x2="22.9341" y2="37.9604" gradientUnits="userSpaceOnUse">
      <stop stop-color="#1D1B2C"/>
      <stop offset="0.3547" stop-color="#23428B"/>
      <stop offset="0.7011" stop-color="#45B7E9"/>
      <stop offset="1" stop-color="#62268A"/>
    </linearGradient>
  </defs>
</svg>