<svg xmlns="http://www.w3.org/2000/svg" width="40" height="40" viewBox="0 0 40 40" fill="none">
  <path d="M33.7023 6.55823V21.6942C33.7023 26.0416 31.4812 27.8112 28.4109 27.8112C25.399 27.8112 23.1198 25.9885 23.1198 21.6942V6.55823H16.8223V21.6942C16.8223 25.9885 14.6008 27.8112 11.5891 27.8112C8.61176 27.8112 6.43121 26.1479 6.30358 22.0778C5.41946 22.7385 4.33235 23.1278 3.15767 23.1278C1.97711 23.1278 0.890005 22.7385 0.00610988 22.072C0.145506 30.1238 4.85554 33.7692 10.9552 33.7692C14.9208 33.7692 18.0956 32.1058 19.9449 29.1032H20.0553C21.9569 32.1056 25.1315 33.7692 29.045 33.7692C35.2377 33.7692 40 30.0118 40 21.6946V6.55823H33.7023ZM6.29747 13.436V6.55823H0V13.448C0.883895 12.7813 1.97688 12.3863 3.15745 12.3863C4.33213 12.386 5.41923 12.7754 6.29747 13.436Z" fill="#242424"/>
  <path d="M6.1288 17.7537C6.1288 19.4171 4.7973 20.7681 3.15759 20.7681C1.51766 20.7681 0.186157 19.4173 0.186157 17.7537C0.186157 16.0901 1.51766 14.7454 3.15759 14.7454C4.79708 14.7456 6.1288 16.0903 6.1288 17.7537Z" fill="#FC9F00"/>
</svg>