<svg id="svg" version="1.1" xmlns="http://www.w3.org/2000/svg" xmlns:xlink="http://www.w3.org/1999/xlink" width="400" height="400" viewBox="0, 0, 400,400"><g id="svgg"><path id="path0" d="M229.600 70.400 C 229.050 70.576,215.781 70.738,200.114 70.760 C 172.749 70.798,171.612 70.829,171.229 71.546 C 170.969 72.031,170.767 98.361,170.651 146.846 C 170.454 228.758,170.355 233.241,168.680 236.100 C 168.086 237.114,167.347 239.148,167.038 240.621 C 166.729 242.094,166.133 243.772,165.713 244.350 C 165.292 244.927,164.629 246.210,164.238 247.200 C 163.847 248.190,163.028 249.450,162.416 250.000 C 161.805 250.550,161.007 251.828,160.643 252.839 C 159.753 255.310,153.255 262.074,151.097 262.775 C 150.270 263.044,149.403 263.621,149.169 264.058 C 148.935 264.495,147.923 265.204,146.920 265.634 C 145.917 266.064,144.586 266.845,143.962 267.370 C 143.338 267.895,142.057 268.451,141.114 268.604 C 140.171 268.757,138.447 269.422,137.282 270.081 C 132.135 272.993,101.103 273.002,95.923 270.093 C 94.755 269.437,93.270 268.776,92.622 268.623 C 91.974 268.470,90.828 267.805,90.075 267.144 C 89.323 266.483,88.115 265.660,87.391 265.315 C 86.667 264.970,85.848 264.263,85.570 263.744 C 85.292 263.225,84.906 262.800,84.712 262.800 C 84.230 262.800,79.200 257.686,79.200 257.196 C 79.200 256.979,78.577 256.112,77.815 255.269 C 77.053 254.426,76.070 252.896,75.629 251.868 C 75.189 250.841,74.662 250.000,74.458 250.000 C 74.254 250.000,73.805 249.295,73.460 248.434 C 72.408 245.805,71.217 245.788,68.242 248.364 C 67.066 249.381,65.867 250.020,64.788 250.202 C 63.833 250.363,62.570 250.978,61.794 251.659 C 60.810 252.523,59.784 252.944,57.931 253.242 C 56.543 253.466,55.024 253.863,54.554 254.124 C 54.085 254.386,53.142 254.918,52.458 255.306 C 48.063 257.804,24.869 257.446,20.903 254.819 C 19.199 253.690,15.898 252.930,14.157 253.265 C 12.697 253.546,13.004 257.415,14.682 259.875 C 15.255 260.714,16.035 262.606,16.416 264.080 C 16.798 265.554,17.470 267.354,17.910 268.080 C 18.350 268.806,19.002 270.423,19.358 271.673 C 19.715 272.924,20.448 274.471,20.988 275.112 C 21.527 275.754,22.143 277.056,22.357 278.007 C 22.571 278.958,23.124 280.201,23.586 280.768 C 24.048 281.336,24.801 282.610,25.260 283.600 C 25.718 284.590,26.540 285.850,27.086 286.400 C 27.998 287.319,29.350 289.271,31.400 292.628 C 32.578 294.557,34.323 296.604,36.777 298.934 C 37.974 300.070,40.345 302.395,42.045 304.100 C 43.746 305.805,45.321 307.200,45.546 307.200 C 45.771 307.200,46.276 307.744,46.669 308.409 C 47.159 309.239,47.887 309.754,48.989 310.051 C 49.873 310.289,51.272 311.095,52.099 311.842 C 52.926 312.589,53.776 313.200,53.987 313.200 C 54.199 313.200,54.963 313.712,55.686 314.337 C 56.409 314.962,57.627 315.687,58.393 315.948 C 59.159 316.209,60.348 316.968,61.035 317.634 C 62.024 318.592,62.817 318.919,64.842 319.204 C 66.829 319.484,67.579 319.786,68.200 320.559 C 69.035 321.598,71.479 322.371,74.000 322.393 C 74.770 322.399,75.940 322.698,76.600 323.057 C 77.260 323.416,78.260 323.951,78.823 324.246 C 79.386 324.541,81.276 324.979,83.023 325.221 C 84.770 325.462,87.190 326.078,88.400 326.589 C 94.221 329.046,133.033 329.106,137.886 326.665 C 139.139 326.034,141.098 325.550,143.561 325.263 C 146.515 324.918,147.649 324.597,148.844 323.770 C 149.954 323.000,151.152 322.627,153.282 322.386 C 156.813 321.987,157.502 321.758,158.830 320.534 C 159.498 319.918,160.735 319.431,162.352 319.146 C 164.357 318.793,165.011 318.483,165.691 317.563 C 166.193 316.884,167.298 316.166,168.411 315.796 C 169.442 315.454,170.702 314.730,171.212 314.187 C 171.722 313.644,172.378 313.200,172.669 313.200 C 172.960 313.200,173.873 312.591,174.699 311.847 C 175.524 311.103,177.041 310.100,178.068 309.618 C 179.096 309.136,180.035 308.486,180.155 308.173 C 180.275 307.860,181.083 307.320,181.950 306.973 C 182.969 306.566,183.691 305.947,183.990 305.225 C 184.244 304.610,184.888 303.874,185.420 303.589 C 185.952 303.305,186.479 302.782,186.591 302.428 C 186.703 302.074,188.142 300.638,189.788 299.236 C 191.435 297.835,192.896 296.308,193.036 295.844 C 193.176 295.380,193.700 294.550,194.202 294.000 C 194.704 293.450,195.581 292.065,196.152 290.922 C 196.723 289.780,197.437 288.700,197.737 288.522 C 198.037 288.345,198.496 287.795,198.756 287.300 C 200.553 283.876,205.484 285.133,206.933 289.386 C 207.266 290.362,208.086 291.754,208.756 292.480 C 209.425 293.206,211.539 295.600,213.452 297.800 C 215.365 300.000,217.621 302.454,218.465 303.254 C 219.309 304.053,220.000 304.904,220.000 305.144 C 220.000 305.383,220.585 305.878,221.300 306.243 C 222.015 306.608,223.410 307.599,224.400 308.445 C 225.390 309.291,226.920 310.593,227.800 311.339 C 228.680 312.086,229.850 312.830,230.400 312.994 C 230.950 313.158,231.760 313.611,232.200 314.001 C 232.640 314.391,233.810 315.113,234.800 315.606 C 235.790 316.099,237.050 317.004,237.600 317.618 C 238.376 318.484,239.176 318.830,241.170 319.160 C 242.988 319.460,244.051 319.882,244.800 320.600 C 245.986 321.736,247.896 322.399,249.997 322.402 C 250.769 322.404,251.940 322.698,252.600 323.057 C 253.260 323.416,254.277 323.959,254.861 324.264 C 255.444 324.570,257.514 325.009,259.461 325.241 C 261.584 325.494,263.827 326.049,265.069 326.628 C 270.424 329.128,308.495 329.063,314.516 326.545 C 315.790 326.012,318.171 325.406,319.808 325.199 C 321.520 324.982,323.618 324.399,324.747 323.827 C 325.827 323.280,327.801 322.656,329.133 322.442 C 331.773 322.017,332.804 321.577,334.531 320.141 C 335.348 319.461,336.159 319.200,337.457 319.200 C 339.532 319.200,340.574 318.730,341.845 317.220 C 342.344 316.626,343.480 315.923,344.370 315.656 C 345.259 315.390,346.163 314.843,346.378 314.441 C 346.593 314.039,347.361 313.467,348.085 313.170 C 348.808 312.873,350.157 312.054,351.082 311.352 C 352.008 310.649,353.394 309.866,354.163 309.612 C 354.941 309.355,355.674 308.796,355.815 308.353 C 355.954 307.914,356.656 307.274,357.375 306.931 C 358.094 306.589,358.989 305.789,359.363 305.154 C 359.738 304.519,360.220 304.000,360.434 304.000 C 360.894 304.000,364.192 301.031,366.265 298.752 C 366.741 298.228,367.331 297.620,367.575 297.400 C 368.110 296.918,369.735 294.643,370.700 293.026 C 371.085 292.380,371.865 291.390,372.434 290.826 C 373.003 290.262,373.871 289.128,374.363 288.307 C 374.855 287.485,375.710 286.457,376.263 286.022 C 376.818 285.585,377.525 284.382,377.839 283.336 C 378.153 282.294,378.745 281.072,379.155 280.621 C 380.159 279.515,380.800 278.215,380.800 277.286 C 380.800 276.865,381.356 275.753,382.035 274.815 C 382.714 273.878,383.522 272.260,383.831 271.221 C 384.139 270.182,384.753 269.005,385.194 268.606 C 386.140 267.749,386.795 265.629,386.798 263.408 C 386.799 262.291,387.216 261.141,388.195 259.555 C 389.441 257.537,389.631 256.849,389.963 253.147 C 390.221 250.269,390.670 248.143,391.432 246.200 C 392.384 243.771,392.599 242.392,393.052 235.800 C 393.339 231.620,393.751 226.220,393.967 223.800 C 394.805 214.405,394.509 72.223,393.650 71.445 C 393.009 70.865,358.172 70.439,340.129 70.791 C 338.314 70.826,338.400 67.160,338.398 144.729 L 338.397 217.400 337.432 224.200 C 336.902 227.940,336.347 232.080,336.198 233.400 C 336.012 235.052,335.565 236.351,334.764 237.569 C 334.124 238.541,333.596 239.531,333.592 239.769 C 333.541 242.505,332.732 245.372,331.669 246.583 C 330.986 247.361,330.364 248.628,330.206 249.567 C 330.026 250.628,329.514 251.583,328.739 252.299 C 328.083 252.905,327.282 253.899,326.959 254.508 C 326.267 255.812,323.099 259.200,322.572 259.200 C 322.371 259.200,321.575 259.829,320.803 260.597 C 316.827 264.556,315.600 265.505,313.911 265.930 C 312.941 266.175,311.815 266.741,311.410 267.189 C 311.004 267.637,309.396 268.383,307.836 268.847 C 306.276 269.311,304.280 270.058,303.400 270.508 C 301.194 271.635,288.182 272.213,277.157 271.674 L 269.315 271.290 266.381 269.845 C 264.768 269.050,263.157 268.400,262.802 268.400 C 262.446 268.400,261.553 267.955,260.816 267.412 C 260.079 266.868,258.618 266.138,257.570 265.790 C 256.449 265.418,255.391 264.741,255.002 264.146 C 254.638 263.591,253.826 262.920,253.197 262.656 C 251.495 261.940,246.039 256.819,245.162 255.113 C 244.741 254.296,244.052 253.442,243.631 253.216 C 243.209 252.991,242.651 252.159,242.390 251.369 C 242.129 250.578,241.394 249.338,240.758 248.613 C 239.917 247.656,239.454 246.523,239.067 244.477 C 238.676 242.407,238.220 241.300,237.349 240.308 C 236.393 239.220,236.066 238.329,235.668 235.727 C 235.396 233.951,234.817 231.483,234.382 230.244 C 232.938 226.136,232.807 218.983,232.809 144.600 C 232.810 105.000,232.808 72.298,232.805 71.929 C 232.793 70.413,231.494 69.793,229.600 70.400 M10.371 71.254 C 9.962 72.019,9.824 108.992,10.228 109.646 C 10.673 110.366,13.057 109.751,14.899 108.441 C 16.286 107.455,17.252 107.152,20.131 106.801 C 22.816 106.473,24.053 106.111,25.290 105.293 C 28.510 103.162,46.466 103.204,50.706 105.353 C 51.872 105.943,54.040 106.572,55.685 106.796 C 57.774 107.081,59.541 107.672,61.921 108.882 C 67.001 111.463,66.581 112.993,66.704 91.428 C 66.761 81.371,66.669 72.605,66.498 71.947 L 66.188 70.750 38.455 70.675 C 13.155 70.607,10.690 70.657,10.371 71.254 " stroke="none" fill="#2b3b53" fill-rule="evenodd"></path><path id="path1" d="M0.000 200.000 L 0.000 400.000 200.000 400.000 L 400.000 400.000 400.000 200.000 L 400.000 0.000 200.000 0.000 L 0.000 0.000 0.000 200.000 M67.878 68.165 L 69.000 69.130 69.114 90.049 C 69.235 112.229,69.199 112.708,67.354 113.548 C 65.953 114.186,65.572 114.127,63.932 113.012 C 63.133 112.469,61.246 111.679,59.739 111.256 C 58.233 110.833,56.100 110.131,55.000 109.696 C 47.473 106.717,28.470 106.777,20.600 109.805 C 19.280 110.313,17.129 111.030,15.819 111.399 C 14.509 111.768,13.000 112.414,12.465 112.835 C 11.300 113.751,8.507 113.859,7.376 113.032 C 6.374 112.298,6.142 71.003,7.131 69.267 C 8.299 67.219,8.094 67.232,38.478 67.216 L 66.755 67.200 67.878 68.165 M233.350 67.581 C 235.508 68.402,235.384 64.241,235.609 143.400 C 235.795 208.765,235.892 217.515,236.475 221.600 C 236.836 224.130,237.330 227.973,237.573 230.140 C 237.867 232.760,238.393 234.972,239.141 236.740 C 239.760 238.203,240.490 240.300,240.763 241.400 C 241.037 242.500,241.651 244.030,242.128 244.800 C 242.606 245.570,243.398 247.010,243.890 248.000 C 246.040 252.330,252.081 259.009,255.931 261.312 C 261.686 264.756,266.105 266.713,269.634 267.383 C 271.430 267.723,273.732 268.313,274.750 268.692 C 277.727 269.802,293.533 269.681,297.400 268.520 C 298.940 268.057,301.426 267.474,302.924 267.223 C 304.539 266.953,306.711 266.205,308.258 265.384 C 309.692 264.623,311.080 264.000,311.342 264.000 C 311.604 264.000,313.263 263.055,315.029 261.900 C 321.901 257.406,328.806 247.983,331.223 239.800 C 331.592 238.552,333.366 231.531,334.104 228.400 C 334.391 227.182,334.604 201.156,334.764 147.911 L 335.000 69.222 335.911 68.311 L 336.822 67.400 366.200 67.400 L 395.578 67.400 396.489 68.311 L 397.400 69.222 397.513 142.911 C 397.632 219.828,397.457 231.140,396.048 238.000 C 395.618 240.090,394.956 243.870,394.576 246.400 C 394.196 248.930,393.560 251.900,393.162 253.000 C 392.764 254.100,391.988 256.839,391.437 259.086 C 390.887 261.334,390.172 263.584,389.849 264.086 C 389.527 264.589,388.966 266.080,388.604 267.400 C 387.962 269.736,381.986 282.114,380.261 284.680 C 379.787 285.384,378.902 286.734,378.294 287.680 C 376.332 290.732,375.441 291.974,373.246 294.712 C 369.796 299.017,364.674 304.423,361.793 306.800 C 360.326 308.010,358.596 309.495,357.949 310.100 C 357.302 310.705,356.605 311.200,356.400 311.200 C 356.195 311.200,355.379 311.770,354.586 312.466 C 352.945 313.907,350.023 315.807,346.776 317.545 C 345.553 318.199,344.324 319.010,344.045 319.345 C 343.767 319.681,342.607 320.261,341.469 320.633 C 340.331 321.005,338.680 321.720,337.800 322.222 C 336.920 322.724,335.395 323.347,334.410 323.607 C 333.426 323.867,331.626 324.570,330.410 325.170 C 329.195 325.771,326.673 326.581,324.806 326.970 C 322.940 327.360,320.744 328.020,319.927 328.437 C 318.992 328.914,316.173 329.487,312.321 329.984 C 308.954 330.418,304.040 331.073,301.400 331.442 C 294.535 332.399,283.394 332.301,276.600 331.224 C 273.740 330.771,269.420 330.203,267.000 329.962 C 264.580 329.720,261.340 329.107,259.800 328.599 C 258.260 328.091,255.395 327.295,253.434 326.829 C 251.473 326.364,249.313 325.648,248.634 325.237 C 247.955 324.826,246.320 324.186,245.000 323.814 C 243.680 323.441,241.833 322.693,240.896 322.149 C 239.959 321.606,238.489 320.914,237.629 320.610 C 236.770 320.307,235.174 319.461,234.084 318.729 C 232.994 317.998,231.509 317.040,230.784 316.600 C 227.870 314.832,226.822 314.124,224.561 312.400 C 223.262 311.410,221.728 310.150,221.150 309.600 C 220.573 309.050,219.043 307.701,217.750 306.603 C 215.593 304.769,213.374 302.428,210.355 298.800 C 209.715 298.030,208.496 296.590,207.647 295.600 C 206.798 294.610,205.728 293.058,205.269 292.150 C 204.456 290.542,202.161 288.653,201.509 289.056 C 201.330 289.167,200.298 290.460,199.216 291.929 C 195.281 297.271,194.529 298.172,190.400 302.494 C 185.466 307.658,182.514 310.076,175.200 314.940 C 169.339 318.839,167.501 319.929,165.751 320.547 C 164.862 320.860,163.160 321.654,161.968 322.310 C 160.775 322.966,158.923 323.713,157.851 323.970 C 156.779 324.226,155.069 324.857,154.051 325.371 C 153.033 325.886,151.150 326.523,149.866 326.789 C 148.582 327.054,146.242 327.714,144.666 328.256 C 142.838 328.884,138.975 329.599,134.000 330.229 C 129.710 330.773,125.974 331.299,125.698 331.397 C 122.217 332.639,108.140 332.348,97.200 330.810 C 94.230 330.392,90.540 329.927,89.000 329.777 C 87.460 329.627,84.850 329.089,83.200 328.582 C 81.550 328.076,78.670 327.261,76.800 326.773 C 74.930 326.284,72.697 325.532,71.837 325.102 C 70.977 324.671,69.357 324.048,68.237 323.716 C 67.117 323.384,65.480 322.703,64.600 322.201 C 63.720 321.700,62.069 320.990,60.931 320.623 C 59.793 320.256,58.633 319.681,58.355 319.345 C 58.076 319.010,56.757 318.185,55.424 317.513 C 54.091 316.841,52.550 315.945,52.000 315.523 C 50.999 314.754,49.521 313.718,46.689 311.800 C 39.821 307.147,27.658 293.884,23.947 287.000 C 23.473 286.120,22.683 284.860,22.192 284.200 C 21.701 283.540,21.086 282.336,20.827 281.525 C 20.567 280.714,20.001 279.600,19.569 279.051 C 19.136 278.502,18.512 277.284,18.181 276.346 C 17.850 275.408,17.117 273.821,16.552 272.820 C 14.548 269.267,10.640 257.098,10.103 252.735 C 9.950 251.495,10.082 251.165,10.961 250.589 C 12.060 249.869,12.469 249.893,16.800 250.926 C 31.304 254.389,30.107 254.200,37.600 254.195 C 44.031 254.190,44.893 254.102,48.200 253.114 C 50.180 252.522,52.520 251.921,53.400 251.779 C 54.795 251.554,61.513 248.785,63.800 247.493 C 64.240 247.244,65.590 246.505,66.800 245.851 C 68.010 245.197,69.509 244.243,70.131 243.731 C 72.655 241.652,74.628 243.175,77.738 249.600 C 81.290 256.940,90.335 265.239,96.742 267.035 C 97.984 267.384,100.350 268.147,102.000 268.733 C 105.683 270.039,123.246 270.228,127.600 269.008 C 128.810 268.670,131.838 267.954,134.328 267.417 C 136.819 266.881,139.609 266.007,140.528 265.475 C 141.448 264.943,142.920 264.282,143.800 264.006 C 144.680 263.729,145.850 263.096,146.400 262.597 C 146.950 262.099,147.967 261.406,148.659 261.056 C 151.050 259.851,158.169 252.277,159.263 249.774 C 159.546 249.128,160.367 247.725,161.088 246.655 C 161.810 245.585,162.400 244.389,162.400 243.996 C 162.400 243.603,162.965 242.228,163.655 240.941 C 164.444 239.470,165.253 236.964,165.830 234.200 C 166.336 231.780,167.069 228.540,167.459 227.000 C 168.122 224.382,168.182 219.158,168.384 146.800 C 168.603 68.503,168.609 68.217,170.156 67.592 C 171.341 67.113,232.091 67.102,233.350 67.581 M50.360 148.914 C 51.812 149.670,53.659 150.502,54.466 150.764 C 57.543 151.762,66.143 159.921,68.004 163.608 C 68.652 164.891,69.364 166.054,69.586 166.191 C 69.808 166.328,70.276 167.467,70.626 168.720 C 70.976 169.974,71.643 172.080,72.108 173.400 C 74.084 179.005,72.560 193.682,69.584 197.707 C 69.134 198.316,68.405 199.655,67.965 200.682 C 66.674 203.693,59.997 210.298,56.400 212.122 C 55.410 212.624,53.790 213.506,52.800 214.082 C 45.901 218.094,29.409 217.786,22.202 213.512 C 13.884 208.577,8.514 202.904,6.005 196.400 C 5.708 195.630,5.060 194.280,4.565 193.400 C 2.316 189.402,2.351 175.983,4.625 170.725 C 8.652 161.410,11.469 157.623,17.545 153.353 C 24.730 148.303,29.018 147.173,40.160 147.392 L 47.720 147.540 50.360 148.914 " stroke="none" fill="#fbfbfb" fill-rule="evenodd"></path><path id="path2" d="M30.200 147.593 C 23.354 148.593,11.816 156.554,8.499 162.567 C 3.379 171.848,2.240 176.968,3.161 186.555 C 3.550 190.601,3.871 192.166,4.565 193.400 C 5.060 194.280,5.708 195.630,6.005 196.400 C 8.514 202.904,13.884 208.577,22.202 213.512 C 29.409 217.786,45.901 218.094,52.800 214.082 C 53.790 213.506,55.410 212.624,56.400 212.122 C 59.997 210.298,66.674 203.693,67.965 200.682 C 68.405 199.655,69.134 198.316,69.584 197.707 C 72.560 193.682,74.084 179.005,72.108 173.400 C 71.643 172.080,70.976 169.974,70.626 168.720 C 70.276 167.467,69.808 166.328,69.586 166.191 C 69.364 166.054,68.652 164.891,68.004 163.608 C 66.143 159.921,57.543 151.762,54.466 150.764 C 53.659 150.502,51.812 149.670,50.360 148.914 L 47.720 147.540 40.160 147.392 C 36.002 147.310,31.520 147.401,30.200 147.593 " stroke="none" fill="#fc9c05" fill-rule="evenodd"></path><path id="path3" d="M9.762 69.642 C 8.857 70.641,8.331 108.776,9.200 110.399 C 9.850 111.615,13.630 110.855,17.911 108.648 C 18.510 108.339,20.440 107.793,22.200 107.435 C 23.960 107.077,27.020 106.430,29.000 105.999 C 34.411 104.818,42.518 104.891,47.800 106.167 C 50.000 106.699,52.943 107.340,54.341 107.592 C 55.738 107.844,57.628 108.393,58.541 108.813 C 61.353 110.106,65.428 111.600,66.141 111.600 C 67.468 111.600,67.600 109.723,67.600 90.871 C 67.600 72.629,67.435 69.850,66.307 69.134 C 64.948 68.271,10.561 68.759,9.762 69.642 M170.800 69.600 C 170.006 70.394,170.000 70.933,170.000 141.100 C 170.000 211.387,169.768 226.546,168.625 231.000 C 167.216 236.486,165.895 240.746,165.193 242.069 C 164.763 242.876,164.046 244.517,163.598 245.714 C 163.150 246.912,162.404 248.231,161.940 248.646 C 161.476 249.061,160.782 250.120,160.398 251.000 C 159.048 254.091,151.729 262.000,150.217 262.000 C 149.893 262.000,149.032 262.523,148.303 263.163 C 141.524 269.115,123.135 272.662,106.800 271.168 C 97.338 270.303,90.795 267.308,83.965 260.715 C 80.547 257.416,79.111 255.462,75.065 248.600 C 72.773 244.713,72.232 244.346,70.519 245.506 C 66.851 247.988,64.861 249.136,63.800 249.380 C 63.140 249.532,61.784 250.177,60.788 250.814 C 59.791 251.450,57.721 252.253,56.188 252.598 C 54.654 252.943,52.401 253.663,51.180 254.199 C 45.630 256.634,27.404 256.560,22.558 254.082 C 18.765 252.143,12.749 251.824,12.300 253.538 C 11.975 254.783,13.190 260.025,14.216 261.800 C 14.725 262.680,15.437 264.570,15.800 266.000 C 16.162 267.430,16.828 269.230,17.280 270.000 C 17.733 270.770,18.441 272.377,18.854 273.572 C 19.268 274.767,19.877 276.043,20.208 276.409 C 20.539 276.775,21.240 278.171,21.765 279.512 C 22.291 280.853,23.189 282.563,23.760 283.312 C 24.332 284.062,24.802 284.839,24.804 285.038 C 24.807 285.237,25.572 286.429,26.504 287.687 C 27.437 288.945,28.830 290.893,29.600 292.017 C 32.949 296.902,46.594 310.800,48.042 310.800 C 48.209 310.800,50.339 312.105,52.774 313.700 C 60.521 318.774,61.256 319.194,63.542 319.859 C 64.775 320.217,66.417 320.923,67.192 321.428 C 67.966 321.933,69.770 322.645,71.199 323.010 C 72.629 323.375,74.789 324.085,75.999 324.588 C 77.210 325.091,79.383 325.704,80.828 325.951 C 82.273 326.197,84.767 326.857,86.371 327.417 C 94.862 330.383,133.404 330.381,140.506 327.413 C 141.279 327.090,143.553 326.468,145.560 326.030 C 147.567 325.592,150.046 324.863,151.070 324.410 C 152.093 323.958,154.112 323.313,155.556 322.978 C 157.001 322.643,158.958 321.914,159.907 321.358 C 160.856 320.802,162.570 320.072,163.716 319.736 C 164.862 319.400,166.160 318.795,166.600 318.392 C 167.040 317.989,168.332 317.151,169.470 316.530 C 170.609 315.908,173.123 314.320,175.057 313.000 C 176.992 311.680,178.805 310.508,179.088 310.395 C 180.514 309.824,192.283 298.670,193.854 296.400 C 194.387 295.630,195.259 294.370,195.791 293.600 C 199.399 288.381,200.663 286.771,201.314 286.564 C 202.485 286.192,205.133 288.295,206.238 290.474 C 207.723 293.405,218.739 306.097,220.717 307.156 C 221.179 307.403,222.375 308.279,223.374 309.103 C 227.970 312.893,230.471 314.673,233.400 316.238 C 234.500 316.826,235.903 317.728,236.518 318.243 C 237.133 318.758,238.393 319.378,239.318 319.621 C 240.243 319.864,241.924 320.578,243.053 321.208 C 244.182 321.838,246.241 322.648,247.629 323.007 C 249.017 323.367,250.808 323.996,251.611 324.406 C 252.413 324.815,254.669 325.449,256.624 325.816 C 258.578 326.182,261.051 326.826,262.118 327.246 C 269.392 330.114,308.440 330.497,315.640 327.771 C 316.608 327.405,318.840 326.751,320.600 326.319 C 322.360 325.887,324.880 325.169,326.200 324.723 C 327.520 324.277,329.950 323.458,331.600 322.901 C 333.250 322.345,335.074 321.557,335.654 321.151 C 336.233 320.744,337.600 320.220,338.691 319.986 C 339.896 319.728,341.498 318.941,342.777 317.980 C 343.934 317.111,345.118 316.400,345.409 316.400 C 345.701 316.400,346.447 315.975,347.069 315.455 C 347.691 314.935,348.920 314.123,349.800 313.650 C 351.835 312.557,354.996 310.397,356.800 308.867 C 362.743 303.827,367.230 299.471,369.800 296.246 C 372.398 292.985,373.639 291.334,374.646 289.800 C 375.224 288.920,376.159 287.704,376.725 287.098 C 377.291 286.492,378.214 285.093,378.777 283.989 C 379.340 282.885,380.925 279.779,382.300 277.086 C 383.675 274.393,384.800 272.053,384.800 271.886 C 384.800 271.719,385.243 270.912,385.784 270.091 C 386.326 269.271,387.051 267.340,387.395 265.800 C 387.739 264.260,388.477 262.076,389.035 260.946 C 389.593 259.816,390.296 257.473,390.599 255.739 C 390.902 254.004,391.609 251.000,392.171 249.063 C 392.766 247.009,393.437 243.094,393.782 239.670 C 394.107 236.442,394.694 232.360,395.086 230.600 C 396.195 225.628,396.195 70.824,395.086 69.714 C 393.939 68.567,338.912 68.613,337.642 69.762 L 336.800 70.524 336.800 142.400 C 336.800 223.284,336.572 231.156,334.087 235.922 C 333.648 236.765,332.994 238.880,332.634 240.621 C 332.262 242.419,331.558 244.395,331.006 245.194 C 330.471 245.967,329.752 247.396,329.410 248.370 C 328.394 251.253,324.679 255.936,320.483 259.623 C 315.802 263.736,314.966 264.340,312.841 265.148 C 311.669 265.593,310.374 266.261,309.964 266.633 C 309.553 267.005,307.368 267.837,305.109 268.482 C 302.849 269.127,300.190 269.890,299.200 270.177 C 290.429 272.719,268.203 270.489,261.600 266.405 C 260.610 265.792,259.147 265.084,258.348 264.831 C 257.550 264.577,256.560 263.998,256.148 263.542 C 255.737 263.087,254.770 262.391,254.000 261.994 C 252.634 261.291,246.000 254.954,246.000 254.352 C 246.000 254.185,245.280 253.217,244.400 252.200 C 243.520 251.183,242.800 250.131,242.800 249.862 C 242.800 249.593,242.195 248.434,241.455 247.285 C 240.715 246.137,239.913 244.216,239.672 243.016 C 239.431 241.815,238.765 240.126,238.193 239.261 C 237.391 238.049,236.925 236.369,236.165 231.944 C 235.622 228.785,234.963 225.570,234.700 224.800 C 234.338 223.742,234.170 204.801,234.011 147.182 C 233.811 75.094,233.762 70.906,233.091 69.882 L 232.382 68.800 201.991 68.800 C 172.133 68.800,171.586 68.814,170.800 69.600 M232.171 70.629 C 232.517 70.974,232.802 71.559,232.805 71.929 C 232.808 72.298,232.810 105.000,232.809 144.600 C 232.807 218.983,232.938 226.136,234.382 230.244 C 234.817 231.483,235.396 233.951,235.668 235.727 C 236.066 238.329,236.393 239.220,237.349 240.308 C 238.220 241.300,238.676 242.407,239.067 244.477 C 239.454 246.523,239.917 247.656,240.758 248.613 C 241.394 249.338,242.129 250.578,242.390 251.369 C 242.651 252.159,243.209 252.991,243.631 253.216 C 244.052 253.442,244.741 254.296,245.162 255.113 C 246.039 256.819,251.495 261.940,253.197 262.656 C 253.826 262.920,254.638 263.591,255.002 264.146 C 255.391 264.741,256.449 265.418,257.570 265.790 C 258.618 266.138,260.079 266.868,260.816 267.412 C 261.553 267.955,262.446 268.400,262.802 268.400 C 263.157 268.400,264.768 269.050,266.381 269.845 L 269.315 271.290 277.157 271.674 C 288.182 272.213,301.194 271.635,303.400 270.508 C 304.280 270.058,306.276 269.311,307.836 268.847 C 309.396 268.383,311.004 267.637,311.410 267.189 C 311.815 266.741,312.941 266.175,313.911 265.930 C 315.600 265.505,316.827 264.556,320.803 260.597 C 321.575 259.829,322.371 259.200,322.572 259.200 C 323.099 259.200,326.267 255.812,326.959 254.508 C 327.282 253.899,328.083 252.905,328.739 252.299 C 329.514 251.583,330.026 250.628,330.206 249.567 C 330.364 248.628,330.986 247.361,331.669 246.583 C 332.732 245.372,333.541 242.505,333.592 239.769 C 333.596 239.531,334.124 238.541,334.764 237.569 C 335.565 236.351,336.012 235.052,336.198 233.400 C 336.347 232.080,336.902 227.940,337.432 224.200 L 338.397 217.400 338.398 144.729 C 338.400 67.160,338.314 70.826,340.129 70.791 C 358.172 70.439,393.009 70.865,393.650 71.445 C 394.509 72.223,394.805 214.405,393.967 223.800 C 393.751 226.220,393.339 231.620,393.052 235.800 C 392.599 242.392,392.384 243.771,391.432 246.200 C 390.670 248.143,390.221 250.269,389.963 253.147 C 389.631 256.849,389.441 257.537,388.195 259.555 C 387.216 261.141,386.799 262.291,386.798 263.408 C 386.795 265.629,386.140 267.749,385.194 268.606 C 384.753 269.005,384.139 270.182,383.831 271.221 C 383.522 272.260,382.714 273.878,382.035 274.815 C 381.356 275.753,380.800 276.865,380.800 277.286 C 380.800 278.215,380.159 279.515,379.155 280.621 C 378.745 281.072,378.153 282.294,377.839 283.336 C 377.525 284.382,376.818 285.585,376.263 286.022 C 375.710 286.457,374.855 287.485,374.363 288.307 C 373.871 289.128,373.003 290.262,372.434 290.826 C 371.865 291.390,371.085 292.380,370.700 293.026 C 369.735 294.643,368.110 296.918,367.575 297.400 C 367.331 297.620,366.741 298.228,366.265 298.752 C 364.192 301.031,360.894 304.000,360.434 304.000 C 360.220 304.000,359.738 304.519,359.363 305.154 C 358.989 305.789,358.094 306.589,357.375 306.931 C 356.656 307.274,355.954 307.914,355.815 308.353 C 355.674 308.796,354.941 309.355,354.163 309.612 C 353.394 309.866,352.008 310.649,351.082 311.352 C 350.157 312.054,348.808 312.873,348.085 313.170 C 347.361 313.467,346.593 314.039,346.378 314.441 C 346.163 314.843,345.259 315.390,344.370 315.656 C 343.480 315.923,342.344 316.626,341.845 317.220 C 340.574 318.730,339.532 319.200,337.457 319.200 C 336.159 319.200,335.348 319.461,334.531 320.141 C 332.804 321.577,331.773 322.017,329.133 322.442 C 327.801 322.656,325.827 323.280,324.747 323.827 C 323.618 324.399,321.520 324.982,319.808 325.199 C 318.171 325.406,315.790 326.012,314.516 326.545 C 308.495 329.063,270.424 329.128,265.069 326.628 C 263.827 326.049,261.584 325.494,259.461 325.241 C 257.514 325.009,255.444 324.570,254.861 324.264 C 254.277 323.959,253.260 323.416,252.600 323.057 C 251.940 322.698,250.769 322.404,249.997 322.402 C 247.896 322.399,245.986 321.736,244.800 320.600 C 244.051 319.882,242.988 319.460,241.170 319.160 C 239.176 318.830,238.376 318.484,237.600 317.618 C 237.050 317.004,235.790 316.099,234.800 315.606 C 233.810 315.113,232.640 314.391,232.200 314.001 C 231.760 313.611,230.950 313.158,230.400 312.994 C 229.850 312.830,228.680 312.086,227.800 311.339 C 226.920 310.593,225.390 309.291,224.400 308.445 C 223.410 307.599,222.015 306.608,221.300 306.243 C 220.585 305.878,220.000 305.383,220.000 305.144 C 220.000 304.904,219.309 304.053,218.465 303.254 C 217.621 302.454,215.365 300.000,213.452 297.800 C 211.539 295.600,209.425 293.206,208.756 292.480 C 208.086 291.754,207.266 290.362,206.933 289.386 C 205.484 285.133,200.553 283.876,198.756 287.300 C 198.496 287.795,198.037 288.345,197.737 288.522 C 197.437 288.700,196.723 289.780,196.152 290.922 C 195.581 292.065,194.704 293.450,194.202 294.000 C 193.700 294.550,193.176 295.380,193.036 295.844 C 192.896 296.308,191.435 297.835,189.788 299.236 C 188.142 300.638,186.703 302.074,186.591 302.428 C 186.479 302.782,185.952 303.305,185.420 303.589 C 184.888 303.874,184.244 304.610,183.990 305.225 C 183.691 305.947,182.969 306.566,181.950 306.973 C 181.083 307.320,180.275 307.860,180.155 308.173 C 180.035 308.486,179.096 309.136,178.068 309.618 C 177.041 310.100,175.524 311.103,174.699 311.847 C 173.873 312.591,172.960 313.200,172.669 313.200 C 172.378 313.200,171.722 313.644,171.212 314.187 C 170.702 314.730,169.442 315.454,168.411 315.796 C 167.298 316.166,166.193 316.884,165.691 317.563 C 165.011 318.483,164.357 318.793,162.352 319.146 C 160.735 319.431,159.498 319.918,158.830 320.534 C 157.502 321.758,156.813 321.987,153.282 322.386 C 151.152 322.627,149.954 323.000,148.844 323.770 C 147.649 324.597,146.515 324.918,143.561 325.263 C 141.098 325.550,139.139 326.034,137.886 326.665 C 133.033 329.106,94.221 329.046,88.400 326.589 C 87.190 326.078,84.770 325.462,83.023 325.221 C 81.276 324.979,79.386 324.541,78.823 324.246 C 78.260 323.951,77.260 323.416,76.600 323.057 C 75.940 322.698,74.770 322.399,74.000 322.393 C 71.479 322.371,69.035 321.598,68.200 320.559 C 67.579 319.786,66.829 319.484,64.842 319.204 C 62.817 318.919,62.024 318.592,61.035 317.634 C 60.348 316.968,59.159 316.209,58.393 315.948 C 57.627 315.687,56.409 314.962,55.686 314.337 C 54.963 313.712,54.199 313.200,53.987 313.200 C 53.776 313.200,52.926 312.589,52.099 311.842 C 51.272 311.095,49.873 310.289,48.989 310.051 C 47.887 309.754,47.159 309.239,46.669 308.409 C 46.276 307.744,45.771 307.200,45.546 307.200 C 45.321 307.200,43.746 305.805,42.045 304.100 C 40.345 302.395,37.974 300.070,36.777 298.934 C 34.323 296.604,32.578 294.557,31.400 292.628 C 29.350 289.271,27.998 287.319,27.086 286.400 C 26.540 285.850,25.718 284.590,25.260 283.600 C 24.801 282.610,24.048 281.336,23.586 280.768 C 23.124 280.201,22.571 278.958,22.357 278.007 C 22.143 277.056,21.527 275.754,20.988 275.112 C 20.448 274.471,19.715 272.924,19.358 271.673 C 19.002 270.423,18.350 268.806,17.910 268.080 C 17.470 267.354,16.798 265.554,16.416 264.080 C 16.035 262.606,15.255 260.714,14.682 259.875 C 13.004 257.415,12.697 253.546,14.157 253.265 C 15.898 252.930,19.199 253.690,20.903 254.819 C 24.869 257.446,48.063 257.804,52.458 255.306 C 53.142 254.918,54.085 254.386,54.554 254.124 C 55.024 253.863,56.543 253.466,57.931 253.242 C 59.784 252.944,60.810 252.523,61.794 251.659 C 62.570 250.978,63.833 250.363,64.788 250.202 C 65.867 250.020,67.066 249.381,68.242 248.364 C 71.217 245.788,72.408 245.805,73.460 248.434 C 73.805 249.295,74.254 250.000,74.458 250.000 C 74.662 250.000,75.189 250.841,75.629 251.868 C 76.070 252.896,77.053 254.426,77.815 255.269 C 78.577 256.112,79.200 256.979,79.200 257.196 C 79.200 257.686,84.230 262.800,84.712 262.800 C 84.906 262.800,85.292 263.225,85.570 263.744 C 85.848 264.263,86.667 264.970,87.391 265.315 C 88.115 265.660,89.323 266.483,90.075 267.144 C 90.828 267.805,91.974 268.470,92.622 268.623 C 93.270 268.776,94.755 269.437,95.923 270.093 C 101.103 273.002,132.135 272.993,137.282 270.081 C 138.447 269.422,140.171 268.757,141.114 268.604 C 142.057 268.451,143.338 267.895,143.962 267.370 C 144.586 266.845,145.917 266.064,146.920 265.634 C 147.923 265.204,148.935 264.495,149.169 264.058 C 149.403 263.621,150.270 263.044,151.097 262.775 C 153.255 262.074,159.753 255.310,160.643 252.839 C 161.007 251.828,161.805 250.550,162.416 250.000 C 163.028 249.450,163.847 248.190,164.238 247.200 C 164.629 246.210,165.292 244.927,165.713 244.350 C 166.133 243.772,166.729 242.094,167.038 240.621 C 167.347 239.148,168.086 237.114,168.680 236.100 C 170.355 233.241,170.454 228.758,170.651 146.846 C 170.767 98.361,170.969 72.031,171.229 71.546 C 171.612 70.829,172.749 70.798,200.114 70.760 C 215.781 70.738,229.050 70.576,229.600 70.400 C 231.121 69.913,231.489 69.946,232.171 70.629 M66.498 71.947 C 66.669 72.605,66.761 81.371,66.704 91.428 C 66.581 112.993,67.001 111.463,61.921 108.882 C 59.541 107.672,57.774 107.081,55.685 106.796 C 54.040 106.572,51.872 105.943,50.706 105.353 C 46.466 103.204,28.510 103.162,25.290 105.293 C 24.053 106.111,22.816 106.473,20.131 106.801 C 17.252 107.152,16.286 107.455,14.899 108.441 C 13.057 109.751,10.673 110.366,10.228 109.646 C 9.824 108.992,9.962 72.019,10.371 71.254 C 10.690 70.657,13.155 70.607,38.455 70.675 L 66.188 70.750 66.498 71.947 " stroke="none" fill="#545c74" fill-rule="evenodd"></path><path id="path4" d="M8.931 67.783 C 6.544 68.822,6.600 68.256,6.600 91.332 C 6.600 111.788,6.625 112.482,7.376 113.032 C 8.507 113.859,11.300 113.751,12.465 112.835 C 13.000 112.414,14.509 111.768,15.819 111.399 C 17.129 111.030,19.280 110.313,20.600 109.805 C 28.470 106.777,47.473 106.717,55.000 109.696 C 56.100 110.131,58.233 110.833,59.739 111.256 C 61.246 111.679,63.133 112.469,63.932 113.012 C 65.572 114.127,65.953 114.186,67.354 113.548 C 69.199 112.708,69.235 112.229,69.114 90.049 L 69.000 69.130 67.878 68.165 L 66.755 67.200 38.478 67.216 C 15.346 67.228,9.969 67.332,8.931 67.783 M170.156 67.592 C 168.609 68.217,168.603 68.503,168.384 146.800 C 168.182 219.158,168.122 224.382,167.459 227.000 C 167.069 228.540,166.336 231.780,165.830 234.200 C 165.253 236.964,164.444 239.470,163.655 240.941 C 162.965 242.228,162.400 243.603,162.400 243.996 C 162.400 244.389,161.810 245.585,161.088 246.655 C 160.367 247.725,159.546 249.128,159.263 249.774 C 158.169 252.277,151.050 259.851,148.659 261.056 C 147.967 261.406,146.950 262.099,146.400 262.597 C 145.850 263.096,144.680 263.729,143.800 264.006 C 142.920 264.282,141.448 264.943,140.528 265.475 C 139.609 266.007,136.819 266.881,134.328 267.417 C 131.838 267.954,128.810 268.670,127.600 269.008 C 123.246 270.228,105.683 270.039,102.000 268.733 C 100.350 268.147,97.984 267.384,96.742 267.035 C 90.335 265.239,81.290 256.940,77.738 249.600 C 74.628 243.175,72.655 241.652,70.131 243.731 C 69.509 244.243,68.010 245.197,66.800 245.851 C 65.590 246.505,64.240 247.244,63.800 247.493 C 61.513 248.785,54.795 251.554,53.400 251.779 C 52.520 251.921,50.180 252.522,48.200 253.114 C 44.893 254.102,44.031 254.190,37.600 254.195 C 30.107 254.200,31.304 254.389,16.800 250.926 C 12.469 249.893,12.060 249.869,10.961 250.589 C 10.082 251.165,9.950 251.495,10.103 252.735 C 10.640 257.098,14.548 269.267,16.552 272.820 C 17.117 273.821,17.850 275.408,18.181 276.346 C 18.512 277.284,19.136 278.502,19.569 279.051 C 20.001 279.600,20.567 280.714,20.827 281.525 C 21.086 282.336,21.701 283.540,22.192 284.200 C 22.683 284.860,23.473 286.120,23.947 287.000 C 27.658 293.884,39.821 307.147,46.689 311.800 C 49.521 313.718,50.999 314.754,52.000 315.523 C 52.550 315.945,54.091 316.841,55.424 317.513 C 56.757 318.185,58.076 319.010,58.355 319.345 C 58.633 319.681,59.793 320.256,60.931 320.623 C 62.069 320.990,63.720 321.700,64.600 322.201 C 65.480 322.703,67.117 323.384,68.237 323.716 C 69.357 324.048,70.977 324.671,71.837 325.102 C 72.697 325.532,74.930 326.284,76.800 326.773 C 78.670 327.261,81.550 328.076,83.200 328.582 C 84.850 329.089,87.460 329.627,89.000 329.777 C 90.540 329.927,94.230 330.392,97.200 330.810 C 108.140 332.348,122.217 332.639,125.698 331.397 C 125.974 331.299,129.710 330.773,134.000 330.229 C 138.975 329.599,142.838 328.884,144.666 328.256 C 146.242 327.714,148.582 327.054,149.866 326.789 C 151.150 326.523,153.033 325.886,154.051 325.371 C 155.069 324.857,156.779 324.226,157.851 323.970 C 158.923 323.713,160.775 322.966,161.968 322.310 C 163.160 321.654,164.862 320.860,165.751 320.547 C 167.501 319.929,169.339 318.839,175.200 314.940 C 182.514 310.076,185.466 307.658,190.400 302.494 C 194.529 298.172,195.281 297.271,199.216 291.929 C 200.298 290.460,201.330 289.167,201.509 289.056 C 202.161 288.653,204.456 290.542,205.269 292.150 C 205.728 293.058,206.798 294.610,207.647 295.600 C 208.496 296.590,209.715 298.030,210.355 298.800 C 213.374 302.428,215.593 304.769,217.750 306.603 C 219.043 307.701,220.573 309.050,221.150 309.600 C 221.728 310.150,223.262 311.410,224.561 312.400 C 226.822 314.124,227.870 314.832,230.784 316.600 C 231.509 317.040,232.994 317.998,234.084 318.729 C 235.174 319.461,236.770 320.307,237.629 320.610 C 238.489 320.914,239.959 321.606,240.896 322.149 C 241.833 322.693,243.680 323.441,245.000 323.814 C 246.320 324.186,247.955 324.826,248.634 325.237 C 249.313 325.648,251.473 326.364,253.434 326.829 C 255.395 327.295,258.260 328.091,259.800 328.599 C 261.340 329.107,264.580 329.720,267.000 329.962 C 269.420 330.203,273.740 330.771,276.600 331.224 C 283.394 332.301,294.535 332.399,301.400 331.442 C 304.040 331.073,308.954 330.418,312.321 329.984 C 316.173 329.487,318.992 328.914,319.927 328.437 C 320.744 328.020,322.940 327.360,324.806 326.970 C 326.673 326.581,329.195 325.771,330.410 325.170 C 331.626 324.570,333.426 323.867,334.410 323.607 C 335.395 323.347,336.920 322.724,337.800 322.222 C 338.680 321.720,340.331 321.005,341.469 320.633 C 342.607 320.261,343.767 319.681,344.045 319.345 C 344.324 319.010,345.553 318.199,346.776 317.545 C 350.023 315.807,352.945 313.907,354.586 312.466 C 355.379 311.770,356.195 311.200,356.400 311.200 C 356.605 311.200,357.302 310.705,357.949 310.100 C 358.596 309.495,360.326 308.010,361.793 306.800 C 364.674 304.423,369.796 299.017,373.246 294.712 C 375.441 291.974,376.332 290.732,378.294 287.680 C 378.902 286.734,379.787 285.384,380.261 284.680 C 381.986 282.114,387.962 269.736,388.604 267.400 C 388.966 266.080,389.527 264.589,389.849 264.086 C 390.172 263.584,390.887 261.334,391.437 259.086 C 391.988 256.839,392.764 254.100,393.162 253.000 C 393.560 251.900,394.196 248.930,394.576 246.400 C 394.956 243.870,395.618 240.090,396.048 238.000 C 397.457 231.140,397.632 219.828,397.513 142.911 L 397.400 69.222 396.489 68.311 L 395.578 67.400 366.200 67.400 L 336.822 67.400 335.911 68.311 L 335.000 69.222 334.764 147.911 C 334.604 201.156,334.391 227.182,334.104 228.400 C 333.366 231.531,331.592 238.552,331.223 239.800 C 328.806 247.983,321.901 257.406,315.029 261.900 C 313.263 263.055,311.604 264.000,311.342 264.000 C 311.080 264.000,309.692 264.623,308.258 265.384 C 306.711 266.205,304.539 266.953,302.924 267.223 C 301.426 267.474,298.940 268.057,297.400 268.520 C 293.533 269.681,277.727 269.802,274.750 268.692 C 273.732 268.313,271.430 267.723,269.634 267.383 C 266.105 266.713,261.686 264.756,255.931 261.312 C 252.081 259.009,246.040 252.330,243.890 248.000 C 243.398 247.010,242.606 245.570,242.128 244.800 C 241.651 244.030,241.037 242.500,240.763 241.400 C 240.490 240.300,239.760 238.203,239.141 236.740 C 238.393 234.972,237.867 232.760,237.573 230.140 C 237.330 227.973,236.836 224.130,236.475 221.600 C 235.892 217.515,235.795 208.765,235.609 143.400 C 235.384 64.241,235.508 68.402,233.350 67.581 C 232.091 67.102,171.341 67.113,170.156 67.592 M66.307 69.134 C 67.435 69.850,67.600 72.629,67.600 90.871 C 67.600 109.723,67.468 111.600,66.141 111.600 C 65.428 111.600,61.353 110.106,58.541 108.813 C 57.628 108.393,55.738 107.844,54.341 107.592 C 52.943 107.340,50.000 106.699,47.800 106.167 C 42.518 104.891,34.411 104.818,29.000 105.999 C 27.020 106.430,23.960 107.077,22.200 107.435 C 20.440 107.793,18.510 108.339,17.911 108.648 C 13.630 110.855,9.850 111.615,9.200 110.399 C 8.331 108.776,8.857 70.641,9.762 69.642 C 10.561 68.759,64.948 68.271,66.307 69.134 M233.091 69.882 C 233.762 70.906,233.811 75.094,234.011 147.182 C 234.170 204.801,234.338 223.742,234.700 224.800 C 234.963 225.570,235.622 228.785,236.165 231.944 C 236.925 236.369,237.391 238.049,238.193 239.261 C 238.765 240.126,239.431 241.815,239.672 243.016 C 239.913 244.216,240.715 246.137,241.455 247.285 C 242.195 248.434,242.800 249.593,242.800 249.862 C 242.800 250.131,243.520 251.183,244.400 252.200 C 245.280 253.217,246.000 254.185,246.000 254.352 C 246.000 254.954,252.634 261.291,254.000 261.994 C 254.770 262.391,255.737 263.087,256.148 263.542 C 256.560 263.998,257.550 264.577,258.348 264.831 C 259.147 265.084,260.610 265.792,261.600 266.405 C 268.203 270.489,290.429 272.719,299.200 270.177 C 300.190 269.890,302.849 269.127,305.109 268.482 C 307.368 267.837,309.553 267.005,309.964 266.633 C 310.374 266.261,311.669 265.593,312.841 265.148 C 314.966 264.340,315.802 263.736,320.483 259.623 C 324.679 255.936,328.394 251.253,329.410 248.370 C 329.752 247.396,330.471 245.967,331.006 245.194 C 331.558 244.395,332.262 242.419,332.634 240.621 C 332.994 238.880,333.648 236.765,334.087 235.922 C 336.572 231.156,336.800 223.284,336.800 142.400 L 336.800 70.524 337.642 69.762 C 338.912 68.613,393.939 68.567,395.086 69.714 C 396.195 70.824,396.195 225.628,395.086 230.600 C 394.694 232.360,394.107 236.442,393.782 239.670 C 393.437 243.094,392.766 247.009,392.171 249.063 C 391.609 251.000,390.902 254.004,390.599 255.739 C 390.296 257.473,389.593 259.816,389.035 260.946 C 388.477 262.076,387.739 264.260,387.395 265.800 C 387.051 267.340,386.326 269.271,385.784 270.091 C 385.243 270.912,384.800 271.719,384.800 271.886 C 384.800 272.053,383.675 274.393,382.300 277.086 C 380.925 279.779,379.340 282.885,378.777 283.989 C 378.214 285.093,377.291 286.492,376.725 287.098 C 376.159 287.704,375.224 288.920,374.646 289.800 C 373.639 291.334,372.398 292.985,369.800 296.246 C 367.230 299.471,362.743 303.827,356.800 308.867 C 354.996 310.397,351.835 312.557,349.800 313.650 C 348.920 314.123,347.691 314.935,347.069 315.455 C 346.447 315.975,345.701 316.400,345.409 316.400 C 345.118 316.400,343.934 317.111,342.777 317.980 C 341.498 318.941,339.896 319.728,338.691 319.986 C 337.600 320.220,336.233 320.744,335.654 321.151 C 335.074 321.557,333.250 322.345,331.600 322.901 C 329.950 323.458,327.520 324.277,326.200 324.723 C 324.880 325.169,322.360 325.887,320.600 326.319 C 318.840 326.751,316.608 327.405,315.640 327.771 C 308.440 330.497,269.392 330.114,262.118 327.246 C 261.051 326.826,258.578 326.182,256.624 325.816 C 254.669 325.449,252.413 324.815,251.611 324.406 C 250.808 323.996,249.017 323.367,247.629 323.007 C 246.241 322.648,244.182 321.838,243.053 321.208 C 241.924 320.578,240.243 319.864,239.318 319.621 C 238.393 319.378,237.133 318.758,236.518 318.243 C 235.903 317.728,234.500 316.826,233.400 316.238 C 230.471 314.673,227.970 312.893,223.374 309.103 C 222.375 308.279,221.179 307.403,220.717 307.156 C 218.739 306.097,207.723 293.405,206.238 290.474 C 205.133 288.295,202.485 286.192,201.314 286.564 C 200.663 286.771,199.399 288.381,195.791 293.600 C 195.259 294.370,194.387 295.630,193.854 296.400 C 192.283 298.670,180.514 309.824,179.088 310.395 C 178.805 310.508,176.992 311.680,175.057 313.000 C 173.123 314.320,170.609 315.908,169.470 316.530 C 168.332 317.151,167.040 317.989,166.600 318.392 C 166.160 318.795,164.862 319.400,163.716 319.736 C 162.570 320.072,160.856 320.802,159.907 321.358 C 158.958 321.914,157.001 322.643,155.556 322.978 C 154.112 323.313,152.093 323.958,151.070 324.410 C 150.046 324.863,147.567 325.592,145.560 326.030 C 143.553 326.468,141.279 327.090,140.506 327.413 C 133.404 330.381,94.862 330.383,86.371 327.417 C 84.767 326.857,82.273 326.197,80.828 325.951 C 79.383 325.704,77.210 325.091,75.999 324.588 C 74.789 324.085,72.629 323.375,71.199 323.010 C 69.770 322.645,67.966 321.933,67.192 321.428 C 66.417 320.923,64.775 320.217,63.542 319.859 C 61.256 319.194,60.521 318.774,52.774 313.700 C 50.339 312.105,48.209 310.800,48.042 310.800 C 46.594 310.800,32.949 296.902,29.600 292.017 C 28.830 290.893,27.437 288.945,26.504 287.687 C 25.572 286.429,24.807 285.237,24.804 285.038 C 24.802 284.839,24.332 284.062,23.760 283.312 C 23.189 282.563,22.291 280.853,21.765 279.512 C 21.240 278.171,20.539 276.775,20.208 276.409 C 19.877 276.043,19.268 274.767,18.854 273.572 C 18.441 272.377,17.733 270.770,17.280 270.000 C 16.828 269.230,16.162 267.430,15.800 266.000 C 15.437 264.570,14.725 262.680,14.216 261.800 C 13.190 260.025,11.975 254.783,12.300 253.538 C 12.749 251.824,18.765 252.143,22.558 254.082 C 27.404 256.560,45.630 256.634,51.180 254.199 C 52.401 253.663,54.654 252.943,56.188 252.598 C 57.721 252.253,59.791 251.450,60.788 250.814 C 61.784 250.177,63.140 249.532,63.800 249.380 C 64.861 249.136,66.851 247.988,70.519 245.506 C 72.232 244.346,72.773 244.713,75.065 248.600 C 81.115 258.859,84.985 262.906,92.942 267.294 C 99.424 270.869,106.048 271.835,119.743 271.205 C 133.138 270.587,143.015 267.807,148.303 263.163 C 149.032 262.523,149.893 262.000,150.217 262.000 C 151.729 262.000,159.048 254.091,160.398 251.000 C 160.782 250.120,161.476 249.061,161.940 248.646 C 162.404 248.231,163.150 246.912,163.598 245.714 C 164.046 244.517,164.763 242.876,165.193 242.069 C 165.895 240.746,167.216 236.486,168.625 231.000 C 169.768 226.546,170.000 211.387,170.000 141.100 C 170.000 70.933,170.006 70.394,170.800 69.600 C 171.586 68.814,172.133 68.800,201.991 68.800 L 232.382 68.800 233.091 69.882 " stroke="none" fill="#848c9c" fill-rule="evenodd"></path></g></svg>
