<svg xmlns="http://www.w3.org/2000/svg" width="40" height="40" viewBox="0 0 40 40" fill="none">
  <path d="M39.9922 20.4699C39.9922 18.4662 39.3916 16.5455 38.2063 14.7595C37.1422 13.1564 35.6514 11.7374 33.7758 10.5414C30.1539 8.2332 25.3935 6.96156 20.3724 6.96156C18.6952 6.96156 17.0419 7.10296 15.4385 7.38326C14.4438 6.45413 13.2791 5.61821 12.0468 4.95753C5.46317 1.77383 0.003479 4.8827 0.003479 4.8827C0.003479 4.8827 5.07957 9.04324 4.2541 12.6899C1.98332 14.9378 0.752229 17.6482 0.752229 20.4699C0.752229 20.4786 0.752698 20.4878 0.752698 20.4969C0.752698 20.5058 0.752229 20.5145 0.752229 20.524C0.752229 23.3457 1.98285 26.0561 4.2541 28.3035C5.07957 31.9505 0.003479 36.1112 0.003479 36.1112C0.003479 36.1112 5.46317 39.2196 12.0468 36.0364C13.2789 35.3757 14.4433 34.5393 15.4385 33.6106C17.0422 33.8906 18.6952 34.0319 20.3724 34.0319C25.3938 34.0319 30.1538 32.7612 33.7758 30.4528C35.6514 29.257 37.1422 27.8385 38.2064 26.2346C39.3916 24.4488 39.9924 22.5273 39.9924 20.5245C39.9924 20.5151 39.9919 20.5065 39.9919 20.4973L39.9922 20.4699Z" fill="#C1272D"/>
  <path d="M20.3723 9.79437C29.67 9.79437 37.2076 14.5981 37.2076 20.5237C37.2076 26.4488 29.67 31.2529 20.3723 31.2529C18.302 31.2529 16.3192 31.0141 14.4876 30.5787C12.6259 32.813 8.53061 35.9196 4.55217 34.9157C5.84623 33.529 7.76342 31.1857 7.35311 27.3257C4.96842 25.4748 3.53717 23.1057 3.53717 20.5237C3.5367 14.5977 11.0744 9.79437 20.3723 9.79437Z" fill="white"/>
  <path d="M20.3723 23.1003C21.6076 23.1003 22.6089 22.1014 22.6089 20.8688C22.6089 19.6365 21.6076 18.6375 20.3723 18.6375C19.1372 18.6375 18.1359 19.6365 18.1359 20.8688C18.1359 22.1014 19.1372 23.1003 20.3723 23.1003ZM28.1479 23.1003C29.3831 23.1003 30.3845 22.1014 30.3845 20.8688C30.3845 19.6365 29.3831 18.6375 28.1479 18.6375C26.9128 18.6375 25.9115 19.6365 25.9115 20.8688C25.9115 22.1014 26.9128 23.1003 28.1479 23.1003ZM12.5964 23.0999C13.8314 23.0999 14.8325 22.101 14.8325 20.869C14.8325 19.6368 13.8314 18.6378 12.5965 18.6378C11.3614 18.6378 10.3603 19.6368 10.3603 20.8688C10.3603 22.101 11.3614 23.0999 12.5964 23.0999Z" fill="#C1272D"/>
  <path d="M20.3723 29.8412C18.302 29.8412 16.3192 29.6339 14.4877 29.2566C12.8439 30.9666 9.45828 33.2653 5.94968 33.1808C5.48734 33.8799 4.98484 34.4514 4.55219 34.9153C8.53062 35.9193 12.6259 32.8129 14.4877 30.5783C16.3194 31.014 18.3023 31.2526 20.3723 31.2526C29.5953 31.2526 37.0852 26.5249 37.2045 20.6649C37.0852 25.7443 29.5953 29.8412 20.3723 29.8412Z" fill="#CCCCCC"/>
</svg>