<?xml version="1.0" encoding="utf-8"?>
<svg version="1.1" xmlns="http://www.w3.org/2000/svg" xmlns:xlink="http://www.w3.org/1999/xlink" x="0px" y="0px"
	 viewBox="0 0 500 105" style="enable-background:new 0 0 1000 210;" xml:space="preserve">
<style type="text/css">
	.st0{fill:#18499D;}
	.st1{fill-rule:evenodd;clip-rule:evenodd;fill:#18499D;}
</style>
<g>
	<path class="st0" d="M153.2,27.1h-16v49h-11.1v-49h-15.9v-9.7h43L153.2,27.1z"/>
	<path class="st0" d="M180.6,17.4c17.1,0,28.5,4.9,28.5,29.4c0,22.7-11.4,29.4-28.5,29.4h-19V17.4H180.6z M180.1,66.5
		c11.3,0,17.6-4.3,17.6-19.8c0-16.3-6.5-20-17.6-20h-7.4v39.8L180.1,66.5z"/>
	<path class="st0" d="M259.4,55.3l-30,2c0.2,7.7,4,11.2,13.1,11.2c5.1-0.1,10.2-1.1,14.9-3.1V74c-2.7,1.6-9.3,3-16.8,3
		c-13.9,0-21.9-5.2-21.9-23.7s8-23.7,21.9-23.7c15.8,0,19.1,9,19.1,19.7C259.8,51.3,259.7,53.3,259.4,55.3z M250,48.2
		c0-5.7-1.2-10.5-9.3-10.5c-8.5,0-11,4.1-11.3,12L250,48.2z"/>
	<path class="st0" d="M310.8,44.8v31.3h-10.6V47.8c0-6.4-1.4-9.4-7.9-9.4c-5.4,0-9.2,1.5-11.2,7.3v30.5h-10.6V30.4h10.6v5.8
		c2.6-4.7,8-6.6,14.4-6.6C307.1,29.6,310.8,35.1,310.8,44.8z"/>
	<path class="st0" d="M364.8,30.4v42.2c0,12.6-6.5,20.4-24.3,20.4c-4.1,0-8.3-0.4-12.4-1.1v-8.5c3.9,0.9,7.8,1.3,11.8,1.3
		c10.1,0,14.4-3.3,14.4-12.5v-3.2c-2,4.5-5.7,7.2-14.1,7.2c-15,0-18.7-9.4-18.7-23.3c0-12.6,3.7-23.3,18.7-23.3
		c8.6,0,12.4,3.1,14.1,7.5v-6.7H364.8z M354.7,52.8c0-9.2-2-15.1-11.9-15.1c-9.4,0-10.4,7.3-10.4,15.1c0,8.5,1.3,15.3,10.4,15.3
		C352.7,68.2,354.7,62.6,354.7,52.8z"/>
	<path class="st0" d="M377.3,17.6c0-5.2,1.3-5.7,6-5.7s6,0.5,6,5.7s-1.3,5.8-6,5.8S377.3,22.7,377.3,17.6z M378,30.4h10.6v45.7H378
		L378,30.4z"/>
	<path class="st0" d="M442,44.8v31.3h-10.5V47.8c0-6.4-1.4-9.4-7.9-9.4c-5.4,0-9.2,1.5-11.2,7.3v30.5h-10.6V30.4h10.6v5.8
		c2.6-4.7,8-6.6,14.4-6.6C438.3,29.6,442,35.1,442,44.8z"/>
	<path class="st0" d="M493.3,55.3l-30,2c0.3,7.7,4,11.2,13.1,11.2c5.1-0.1,10.2-1.1,14.9-3.1V74c-2.7,1.6-9.3,3-16.8,3
		c-13.9,0-21.9-5.2-21.9-23.7s8-23.7,21.9-23.7c15.8,0,19.1,9,19.1,19.7C493.8,51.3,493.6,53.3,493.3,55.3z M483.9,48.2
		c0-5.7-1.2-10.5-9.3-10.5c-8.5,0-11,4.1-11.3,12L483.9,48.2z"/>
	<path class="st1" d="M48.8,11.8c3.1,0,5.6,2.5,5.6,5.6c0,3.1-2.5,5.6-5.6,5.6s-5.6-2.5-5.6-5.6c0,0,0,0,0,0
		C43.3,14.3,45.7,11.8,48.8,11.8z M11.8,38.5c3.1,0,5.6,2.5,5.6,5.6c0,3.1-2.5,5.6-5.6,5.6s-5.6-2.5-5.6-5.6
		C6.3,41,8.8,38.5,11.8,38.5z M26.3,82.1c3.1,0,5.6,2.5,5.6,5.6s-2.5,5.6-5.6,5.6c-3.1,0-5.6-2.5-5.6-5.6
		C20.7,84.6,23.2,82.1,26.3,82.1z M71.3,82.1c3.1,0,5.6,2.5,5.6,5.6s-2.5,5.6-5.6,5.6s-5.6-2.5-5.6-5.6
		C65.7,84.6,68.2,82.1,71.3,82.1z M57,44.9H40.6l-5,15.5l13.2,9.6L62,60.5L57,44.9L57,44.9z M41.1,43.6L46.8,26
		c-0.4-0.1-0.9-0.2-1.3-0.4l-5.8,18h-19c0,0.2,0,0.3,0,0.5c0,0.3,0,0.6,0,0.8h18.5l-4.8,14.7l-15-10.9c-0.2,0.4-0.5,0.7-0.8,1.1
		l12.8,9.3l0,0l2.6,1.9l-0.9,2.5l0,0l-5,15.5c0.4,0.1,0.9,0.2,1.3,0.4l5.7-17.5l12.5,9.1L32.9,81.7c0.3,0.3,0.6,0.7,0.8,1l15.1-11
		l15.1,11c0.2-0.4,0.5-0.7,0.8-1L49.9,70.9l12.5-9.1l0.6,1.7l0,0l5.2,15.9c0.4-0.2,0.8-0.3,1.3-0.4l-5.8-18l2.6-1.9L79,49.8
		c-0.3-0.3-0.5-0.7-0.8-1.1l-12.4,9L65.4,58l-2.3,1.6l-4.8-14.7h18.5c0-0.3,0-0.6,0-0.9c0-0.2,0-0.3,0-0.5h-19l-5.8-18
		c-0.4,0.2-0.8,0.3-1.3,0.4l5.7,17.6L41.1,43.6z M18.9,38.6l22.5-16.4c0.2,0.4,0.5,0.7,0.8,1L19.6,39.7C19.4,39.3,19.1,39,18.9,38.6
		L18.9,38.6z M22.9,79.4l-8.7-26.8c0.4-0.1,0.8-0.3,1.2-0.4L24.2,79C23.7,79.1,23.3,79.3,22.9,79.4L22.9,79.4z M62.5,88H35.2
		c0-0.1,0-0.2,0-0.4c0-0.3,0-0.6,0-1h27.3c0,0.3,0,0.6,0,1C62.4,87.8,62.4,87.9,62.5,88L62.5,88z M83.5,52.7l-8.7,26.8
		c-0.4-0.2-0.8-0.3-1.2-0.4l8.7-26.8C82.6,52.4,83,52.6,83.5,52.7z M56.3,22.2l22.5,16.4c-0.3,0.3-0.5,0.7-0.7,1.1L55.4,23.3
		C55.7,22.9,56,22.6,56.3,22.2z M85.8,38.5c3.1,0,5.6,2.5,5.6,5.6c0,3.1-2.5,5.6-5.6,5.6s-5.6-2.5-5.6-5.6
		C80.2,41,82.7,38.5,85.8,38.5z"/>
</g>
</svg>