<?xml version="1.0" encoding="utf-8"?>
<!-- Generator: Adobe Illustrator 28.1.0, SVG Export Plug-In . SVG Version: 6.00 Build 0)  -->
<svg version="1.1" id="Layer_1" xmlns="http://www.w3.org/2000/svg" xmlns:xlink="http://www.w3.org/1999/xlink" x="0px" y="0px"
	 viewBox="0 0 1000 341.5" style="enable-background:new 0 0 1000 341.5;" xml:space="preserve">
<style type="text/css">
	.st0{fill:#FFFFFF;}
</style>
<path class="st0" d="M556,7.1c-62.1,0-112.4,50.3-112.4,112.4S493.9,232,556,232s112.4-50.3,112.4-112.4c0,0,0,0,0,0
	C668.3,57.5,618,7.2,556,7.1z M556,189.8c-38.8,0-70.3-31.5-70.3-70.3c0-38.8,31.5-70.3,70.3-70.3c38.8,0,70.3,31.5,70.3,70.3
	C626.2,158.3,594.7,189.8,556,189.8L556,189.8z"/>
<path class="st0" d="M131.6,6.5C69.5,6,18.7,55.8,18.1,117.9C17.5,180,67.4,230.8,129.5,231.4c0.7,0,1.4,0,2.1,0h37v-42.1h-37
	c-38.8,0.5-70.6-30.6-71.1-69.4s30.6-70.6,69.4-71.1c0.5,0,1.1,0,1.6,0c38.7,0,70.4,31.5,70.4,70.3l0,0v103.5l0,0
	c0,38.5-31.3,69.8-69.7,70.3c-18.4-0.2-35.9-7.5-48.9-20.6L53.5,302c20.7,20.8,48.7,32.6,78,32.9l0,0h1.5l0,0
	c61.3-0.9,110.6-50.6,110.9-111.9V116.2C242.4,55.2,192.5,6.6,131.6,6.5z"/>
<path class="st0" d="M918.6,330.1V116.8c-1.5-61-51.4-109.6-112.4-109.7c-62.1-0.6-112.9,49.3-113.5,111.4S742.1,231.4,804.2,232
	c0.7,0,1.4,0,2.1,0h37v-42.1h-37c-38.8,0.5-70.6-30.6-71.1-69.4s30.6-70.6,69.4-71.1c0.5,0,1.1,0,1.6,0c38.7,0,70.4,31.5,70.4,70.3
	l0,0v210.1l0,0L918.6,330.1z"/>
<path class="st0" d="M276.1,232h42V119.6c0-38.8,31.5-70.3,70.3-70.3c12.8,0,24.7,3.4,35.1,9.4l21.1-36.5c-16.5-9.5-35.7-15-56.1-15
	c-62.1,0-112.4,50.3-112.4,112.4L276.1,232z"/>
<g>
	<path class="st0" d="M950.3,10c3.2,1.8,5.7,4.3,7.5,7.5c1.8,3.2,2.7,6.7,2.7,10.6c0,3.9-0.9,7.4-2.8,10.7c-1.9,3.2-4.4,5.8-7.6,7.6
		c-3.2,1.9-6.8,2.8-10.6,2.8s-7.4-0.9-10.6-2.8c-3.2-1.9-5.7-4.4-7.5-7.6c-1.8-3.2-2.8-6.7-2.8-10.6c0-3.8,0.9-7.4,2.8-10.6
		c1.8-3.2,4.4-5.7,7.6-7.6s6.8-2.8,10.7-2.8C943.6,7.2,947.1,8.1,950.3,10z M948.2,43c2.6-1.5,4.6-3.6,6.1-6.2
		c1.5-2.6,2.2-5.5,2.2-8.7c0-3.2-0.7-6.1-2.2-8.7s-3.5-4.6-6-6.1c-2.6-1.5-5.5-2.2-8.7-2.2c-3.2,0-6.1,0.8-8.7,2.3
		c-2.6,1.5-4.6,3.6-6.1,6.2c-1.5,2.6-2.2,5.5-2.2,8.7c0,3.2,0.7,6.1,2.2,8.7c1.5,2.6,3.5,4.7,6,6.2c2.6,1.5,5.4,2.3,8.6,2.3
		C942.7,45.3,945.6,44.5,948.2,43z M949.5,29.2c-0.7,1.2-1.8,2.1-3.2,2.8l5,7.7h-6.2l-4.3-6.7h-0.2h-3.9v6.7h-6.2v-23h10
		c3.1,0,5.6,0.7,7.4,2.2c1.8,1.5,2.7,3.5,2.7,6C950.6,26.5,950.2,28,949.5,29.2z M940.1,28.4c1.4,0,2.5-0.3,3.2-0.9
		c0.8-0.6,1.2-1.5,1.2-2.6c0-1.1-0.4-2-1.2-2.7s-1.9-0.9-3.2-0.9h-3.5v7.2H940.1z"/>
</g>
</svg>
