<svg xmlns="http://www.w3.org/2000/svg" width="40" height="40" viewBox="0 0 40 40" fill="none">
  <path fill-rule="evenodd" clip-rule="evenodd" d="M20 40C31.0457 40 40 31.0457 40 20C40 8.9543 31.0457 0 20 0C8.9543 0 0 8.9543 0 20C0 31.0457 8.9543 40 20 40ZM37.5178 21.0884C36.9558 30.2746 29.3276 37.551 20 37.551C10.3068 37.551 2.44898 29.6932 2.44898 20C2.44898 10.3068 10.3068 2.44898 20 2.44898C29.2353 2.44898 36.8047 9.5821 37.4991 18.6395H35.861C35.1708 10.4849 28.3332 4.08163 20 4.08163C11.2085 4.08163 4.08163 11.2085 4.08163 20C4.08163 28.7915 11.2085 35.9184 20 35.9184C27.7444 35.9184 34.1971 30.3881 35.6243 23.0613H33.6327H28.3277L31.2976 28.2177C30.7062 29.0292 30.0296 29.7746 29.2808 30.4407L25.0306 23.0613H15.2415L10.9002 30.599C10.1441 29.9492 9.45824 29.2199 8.85571 28.424L20.1361 8.83836L25.781 18.6395H22.4839L20.1361 14.5631L17.1265 19.7885L16.3265 21.0884H17.9592H19.1837L33.9274 21.0884H35.8817H37.5178Z" fill="#2B8CEE"/>
</svg>