<svg xmlns="http://www.w3.org/2000/svg" width="40" height="40" viewBox="0 0 40 40" fill="none">
  <g clip-path="url(#clip0_146_330)">
    <path d="M40 35C40 37.75 37.75 40 35 40H5C2.25 40 0 37.75 0 35V5C0 2.25 2.25 0 5 0H35C37.75 0 40 2.25 40 5V35Z" fill="#7574FF"/>
    <path d="M11.7565 29.0378V11.0274C11.7565 9.84244 12.5013 9.06384 13.6184 9.06384H26.3138C27.397 9.06384 27.9387 9.60548 27.9387 10.5195V10.7227C27.9387 11.6706 27.397 12.1784 26.3138 12.1784H15.2434V18.306H23.8086C24.9258 18.306 25.4336 18.7799 25.4336 19.6941V19.7956C25.4336 20.7435 24.8919 21.2513 23.8086 21.2513H15.2435V27.8868H26.517C27.6003 27.8868 28.1081 28.3607 28.1081 29.2749V29.4442C28.1081 30.4259 27.6003 30.9676 26.517 30.9676H13.6185C12.5013 30.9675 11.7565 30.2227 11.7565 29.0378Z" fill="white"/>
  </g>
  <defs>
    <clipPath id="clip0_146_330">
      <rect width="40" height="40" fill="white"/>
    </clipPath>
  </defs>
</svg>