<svg xmlns="http://www.w3.org/2000/svg" width="40" height="40" viewBox="0 0 40 40" fill="none">
  <path d="M11.3154 36.1953C19.0462 36.1953 24.0744 32.1007 24.0744 25.9412C24.0744 21.1644 21.0162 18.1291 15.548 16.872L12.0372 15.819C8.95744 15.1276 7.15981 14.2974 7.58335 12.1765C7.9357 10.4121 8.98982 9.41601 11.4411 9.41601C19.2336 9.41601 22.1208 12.1765 22.1208 12.1765V5.53709C22.1208 5.53709 19.3099 3 11.4411 3C4.02447 3 0 6.81622 0 12.7244C0 17.5011 2.78896 20.2791 8.44569 21.599C8.84158 21.698 9.04393 21.7488 9.05272 21.7516C9.91315 22.0179 11.0742 22.3697 12.5359 22.8071C15.4271 23.4984 16.1706 24.2322 16.1706 26.4321C16.1706 28.4434 14.0809 29.5866 11.3154 29.5866C3.34874 29.5866 0 25.5564 0 25.5564V32.9123C0 32.9123 2.09414 36.1953 11.3154 36.1953Z" fill="url(#paint0_linear_155_2082)"/>
  <path d="M35.2254 35.6979C37.9621 35.6979 40 33.7182 40 31.0397C40 28.303 38.0203 26.3815 35.2254 26.3815C32.4887 26.3815 30.5089 28.303 30.5089 31.0397C30.5089 33.7764 32.4887 35.6979 35.2254 35.6979Z" fill="#E80000"/>
  <defs>
    <linearGradient id="paint0_linear_155_2082" x1="1203.72" y1="3" x2="1203.72" y2="3322.53" gradientUnits="userSpaceOnUse">
      <stop stop-color="#9D39FF"/>
      <stop offset="1" stop-color="#A380FF"/>
    </linearGradient>
  </defs>
</svg>