<svg xmlns="http://www.w3.org/2000/svg" viewBox="0 0 103.1 85.63"><defs><linearGradient id="a" x1="31.25" x2="31.25" y1="-5" y2="80.6" gradientTransform="matrix(1 0 0 -1 0 80.6)" gradientUnits="userSpaceOnUse"><stop offset="0" stop-color="#a381ff"/><stop offset="1" stop-color="#9d38ff"/></linearGradient></defs><path d="M57.4 6.6v17.9c-5.8-4.3-15.3-7.6-24.6-7.6-8.3 0-12.9 3.1-12.9 8 0 5.2 5.3 7.3 15.3 9.9 13.1 3.4 27.3 7.9 27.3 24.8 0 15.7-12.3 26-33.4 26-11.4 0-21.5-3.1-28.8-8.3V57.9c6.7 5.9 16 10.7 27.9 10.7 9.2 0 14.4-3.4 14.4-8.8 0-5.8-6.4-7.7-17.4-11C12 45.1 0 40 0 25.4S12 0 32 0c9.6 0 19.4 2.6 25.4 6.6Z" style="fill:url(#a)"/><path d="M79.1 72.4c0-6.8 5.2-12 12-12s12 5.2 12 12-5.3 12-12 12c-6.8.1-12-5.3-12-12Z" style="fill:#e80000"/></svg>