<svg width="40" height="40" viewBox="0 0 40 40" fill="none" xmlns="http://www.w3.org/2000/svg">
<path d="M7.54482 27.2109V32.3273L16.0863 37.5229L20.453 35.0211V4.91116L16.4576 2.62195L7.54482 7.72844V13.5958M7.54482 27.2109L3.13256 24.5269V16.1235L7.54482 13.5958M7.54482 27.2109L11.3 24.61M7.54482 13.5958L11.7694 15.7386M11.7271 5.36272V10.1059M11.7694 15.7386V19.1182M11.7694 15.7386L16.0877 13.4855V9.54261M11.7694 19.1182L9.51629 21.0896M11.7694 19.1182L14.6795 21.2304M3.0387 20.3855L6.84075 18.1794M20.3122 24.7978L11.5816 29.6325M12.0773 35.0676L15.0081 33.106M20.4197 13.3184H28.6673V9.44875M20.4197 18.1803H33.1265M20.4197 22.5447H29.7469L31.8122 24.61M20.3592 27.0978H26.5551V30.7121M30.8735 7.43037C30.8735 8.67471 29.8648 9.68344 28.6204 9.68344C27.3761 9.68344 26.3674 8.67471 26.3674 7.43037C26.3674 6.18604 27.3761 5.1773 28.6204 5.1773C29.8648 5.1773 30.8735 6.18604 30.8735 7.43037ZM37.8674 18.2733C37.8674 19.5176 36.8586 20.5263 35.6143 20.5263C34.37 20.5263 33.3612 19.5176 33.3612 18.2733C33.3612 17.0289 34.37 16.0202 35.6143 16.0202C36.8586 16.0202 37.8674 17.0289 37.8674 18.2733ZM35.5674 26.3937C35.5674 27.638 34.5586 28.6468 33.3143 28.6468C32.07 28.6468 31.0612 27.638 31.0612 26.3937C31.0612 25.1494 32.07 24.1406 33.3143 24.1406C34.5586 24.1406 35.5674 25.1494 35.5674 26.3937ZM28.949 33.0121C28.949 34.2564 27.9403 35.2651 26.6959 35.2651C25.4516 35.2651 24.4428 34.2564 24.4428 33.0121C24.4428 31.7677 25.4516 30.759 26.6959 30.759C27.9403 30.759 28.949 31.7677 28.949 33.0121Z" stroke="url(#paint0_linear_1571_188)" stroke-width="1.4" stroke-miterlimit="10"/>
<defs>
<linearGradient id="paint0_linear_1571_188" x1="3" y1="40.5" x2="34" y2="5" gradientUnits="userSpaceOnUse">
<stop stop-color="#A1DEFC"/>
<stop offset="1" stop-color="#725AF7"/>
</linearGradient>
</defs>
</svg>
