<svg xmlns="http://www.w3.org/2000/svg" width="40" height="40" viewBox="0 0 40 40" fill="none">
  <path fill-rule="evenodd" clip-rule="evenodd" d="M17.4424 0.112214C17.4424 0.173932 17.2908 0.224428 17.1057 0.224428C16.6639 0.224428 14.7114 0.689893 13.5807 1.0648C11.5554 1.73629 8.85508 3.2495 7.20061 4.63995C2.44249 8.63881 -0.264033 14.7365 0.020387 20.8167C0.461176 30.2408 6.99063 37.8714 16.2163 39.7441C17.3469 39.9736 17.8091 40.0038 20.1288 39.9997C22.5818 39.9953 22.849 39.9744 24.0904 39.6896C27.8919 38.8174 30.9615 37.2151 33.7209 34.6625C36.5464 32.0488 38.7475 28.1167 39.5563 24.2383C40.6667 18.9134 39.6805 13.6038 36.7388 9.06792C34.3704 5.41579 30.5196 2.419 26.4529 1.06312C25.4028 0.713009 23.3406 0.226897 22.8991 0.225438C22.7299 0.224877 22.5913 0.173932 22.5913 0.112214C22.5913 0.0406215 21.6586 0 20.0168 0C18.3751 0 17.4424 0.0406215 17.4424 0.112214ZM18.4498 6.01311C13.0737 6.64218 8.43164 10.3681 6.71807 15.4295C6.13513 17.1514 5.99152 18.0535 5.98548 20.0302C5.98145 21.3424 6.03338 22.0755 6.17834 22.7535C6.90724 26.163 8.6357 28.9865 11.304 31.1269C15.0079 34.0977 20.1808 34.9373 24.795 33.3164C27.8411 32.2463 30.6607 29.8451 32.3114 26.915C33.0918 25.5299 33.7892 23.4067 33.9595 21.898L34.0372 21.2085H30.5153H26.9934L26.7993 21.9084C26.4668 23.107 25.8749 24.1006 24.9312 25.0442C23.729 26.2462 22.5476 26.8167 20.7828 27.0474C18.0295 27.4074 15.1373 25.8748 13.8239 23.3596C13.2014 22.1678 13.0286 21.4382 13.0351 20.0302C13.04 18.9807 13.0882 18.6555 13.3573 17.8587C14.7015 13.8789 19.1331 11.9177 22.8938 13.6384C23.8578 14.0795 24.3693 14.4416 25.0861 15.1909C25.931 16.074 26.5347 17.1677 26.8434 18.3751L26.9653 18.852H30.4869H34.0084V18.6083C34.0084 18.4742 33.9279 17.9341 33.8296 17.408C32.968 12.7979 29.6562 8.75136 25.3058 6.99263C23.6834 6.33685 22.2989 6.05542 20.4646 6.00873C19.5719 5.98595 18.6653 5.98797 18.4498 6.01311Z" fill="#0854F5"/>
</svg>