<svg xmlns="http://www.w3.org/2000/svg" width="474" height="463" viewBox="0 0 474 463" version="1.1"><path d="M 0 211.500 C 0 327.825, 0.360 423, 0.799 423 C 1.239 423, 2.196 421.346, 2.927 419.324 C 3.659 417.302, 6.363 413.542, 8.937 410.967 C 20.352 399.553, 39.599 398.933, 51.016 409.612 C 55.339 413.656, 60.920 423.414, 59.640 424.693 C 59.366 424.967, 56.147 425.205, 52.486 425.222 C 46.087 425.250, 45.758 425.131, 43.925 422.117 C 40.711 416.833, 36.458 414.838, 29.267 415.242 C 24.001 415.538, 22.548 416.050, 19.894 418.546 C 10.499 427.382, 12.463 443.096, 23.684 448.875 C 24.886 449.494, 28.036 449.998, 30.684 449.996 C 36.546 449.992, 41.266 447.358, 44.138 442.491 C 46.147 439.086, 46.355 439, 52.540 439 C 56.028 439, 59.158 439.447, 59.496 439.994 C 60.259 441.228, 55.616 450.668, 52.675 453.863 C 51.479 455.162, 48.137 457.568, 45.250 459.208 C 42.362 460.849, 40 462.373, 40 462.595 C 40 462.818, 50.350 463, 63 463 C 75.650 463, 86 462.640, 86 462.201 C 86 461.761, 84.476 460.851, 82.614 460.177 C 77.281 458.249, 70.539 451.654, 67.903 445.788 C 64.395 437.982, 64.546 425.526, 68.234 418.410 C 71.311 412.471, 76.546 407.565, 82.949 404.615 C 89.984 401.376, 102.809 401.638, 109.500 405.159 C 120.700 411.053, 126.222 420.061, 126.222 432.437 C 126.222 444.557, 120.405 454.151, 109.750 459.603 C 107.137 460.940, 105 462.251, 105 462.517 C 105 462.783, 112.658 463, 122.018 463 L 139.036 463 138.768 439.250 L 138.500 415.500 134.500 415.435 L 130.500 415.371 130.500 409.435 L 130.500 403.500 141.223 403.216 C 151.738 402.938, 151.956 402.978, 152.533 405.274 C 152.856 406.561, 152.981 420.077, 152.810 435.308 L 152.500 463.002 158.250 463.001 L 164 463 164 433 L 164 403 170.500 403 L 177 403 177 406 C 177 407.650, 177.212 409, 177.471 409 C 177.730 409, 179.908 407.614, 182.312 405.920 C 185.610 403.595, 188.157 402.705, 192.695 402.294 C 203.114 401.349, 211.057 405.421, 215.200 413.830 C 217.354 418.203, 217.521 419.917, 217.833 440.750 L 218.166 463 223.072 463 L 227.978 463 228.239 420.750 L 228.500 378.500 235 378.500 L 241.500 378.500 241.775 394.265 L 242.051 410.030 244.161 408.065 C 248.466 404.054, 253.193 402.499, 261 402.526 C 269.685 402.556, 274.428 404.428, 280.044 410.044 C 286.416 416.416, 288.502 422.088, 288.487 433 C 288.477 440.949, 288.103 443.200, 286.196 446.791 C 283.388 452.080, 277.353 458.233, 273.150 460.094 C 271.418 460.861, 270 461.828, 270 462.244 C 270 462.660, 278.325 463, 288.500 463 C 300.167 463, 307 462.631, 307 462 C 307 461.450, 306.341 461, 305.535 461 C 302.669 461, 297.294 455.123, 296.030 450.608 C 294.243 444.224, 295.467 438.599, 299.529 434.538 C 303.326 430.740, 309.211 428.550, 320 426.918 C 328.514 425.630, 330.499 424.805, 332.048 421.910 C 332.892 420.334, 332.783 419.318, 331.574 417.472 C 327.620 411.438, 313.680 412.529, 310.964 419.086 C 309.806 421.882, 309.495 422, 303.254 422 L 296.750 422 297.384 418.750 C 298.370 413.698, 303.035 407.858, 308.213 405.193 C 317.640 400.342, 332.268 401.299, 339.474 407.239 C 345.417 412.138, 346.292 415.306, 346.793 433.750 L 347.235 450 350.117 450 C 352.999 450, 353 450.003, 353 456.500 L 353 463 363 463 C 372.564 463, 375.860 461.935, 370.475 460.583 C 366.403 459.561, 360.303 453.336, 358.666 448.534 C 357.846 446.127, 357.436 443.898, 357.754 443.579 C 358.073 443.261, 360.968 443, 364.188 443 C 369.352 443, 370.168 443.275, 371.107 445.335 C 372.918 449.310, 377.769 451.475, 384.725 451.412 C 389.299 451.370, 391.487 450.869, 392.975 449.523 C 395.318 447.402, 395.647 442.782, 393.578 441.065 C 392.797 440.416, 387.433 439.050, 381.660 438.028 C 369.491 435.876, 364.791 433.920, 361.847 429.785 C 359.562 426.577, 358.367 419.660, 359.391 415.578 C 360.487 411.213, 365.759 406.234, 371.598 404.049 C 384.775 399.119, 400.127 403.434, 404.965 413.427 C 408.316 420.350, 407.953 421.001, 400.750 420.994 C 394.886 420.988, 394.397 420.806, 392.831 418.054 C 388.871 411.093, 372 412.265, 372 419.500 C 372 422.960, 375.326 424.770, 383.924 425.989 C 393.551 427.355, 395.772 427.919, 400.166 430.119 C 410.907 435.497, 411.768 450.809, 401.739 458.074 C 399.517 459.683, 397.092 461, 396.350 461 C 395.607 461, 395 461.450, 395 462 C 395 462.634, 402.500 463, 415.500 463 C 426.775 463, 436 462.783, 436 462.517 C 436 462.251, 433.744 460.890, 430.986 459.493 C 420.859 454.361, 415.916 446.646, 415.213 434.873 C 414.284 419.328, 421.615 408.207, 436.071 403.230 C 443.021 400.836, 452.863 402.045, 460.650 406.248 C 464.407 408.276, 470.850 415.555, 471.627 418.651 C 471.932 419.863, 472.815 421.099, 473.590 421.396 C 474.801 421.861, 475 392.083, 475 210.969 L 475 0 367.500 0 C 296.500 0, 260 0.340, 260 1 C 260 1.550, 261.238 2.004, 262.750 2.009 C 264.262 2.014, 270.225 3.097, 276 4.416 C 321.751 14.863, 361.322 42.246, 386.394 80.809 C 407.897 113.882, 418.395 154.460, 415.097 191.750 C 410.355 245.353, 385.245 291.020, 343.500 321.963 C 321.897 337.976, 301.258 347.317, 273.393 353.695 C 262.302 356.233, 259.915 356.419, 238 356.458 C 217.276 356.495, 213.147 356.226, 203.046 354.181 C 172.999 348.097, 145.850 335.241, 123 316.277 C 47.579 253.683, 36.433 143.014, 97.847 66.528 C 122.797 35.455, 157.352 13.971, 197.742 4.422 C 203.375 3.090, 209.337 2, 210.992 2 C 212.646 2, 214 1.550, 214 1 C 214 0.340, 177.667 0, 107 0 L 0 0 0 211.500 M 0.491 212 C 0.491 328.325, 0.607 375.912, 0.750 317.750 C 0.892 259.587, 0.892 164.412, 0.750 106.250 C 0.607 48.087, 0.491 95.675, 0.491 212 M 223 53.586 C 174.970 59.192, 133.498 92.396, 118.189 137.500 C 112.981 152.845, 111.698 160.884, 111.644 178.500 C 111.608 190.193, 112.072 196.726, 113.367 202.768 C 119.879 233.152, 135.321 258.314, 159.160 277.388 C 192.250 303.863, 238.465 311.345, 279.688 296.900 C 306.902 287.364, 332.092 265.965, 346.839 239.854 C 353.811 227.510, 360.042 208.589, 361.563 195.145 L 362.258 189 330.793 189 L 299.328 189 297.594 195.237 C 294.624 205.919, 289.336 214.773, 280.905 223.182 C 270.164 233.894, 259.610 238.978, 243.843 241.034 C 219.245 244.242, 193.406 230.584, 181.672 208.170 C 176.111 197.549, 174.567 191.047, 174.625 178.500 C 174.669 169.147, 175.100 166.249, 177.504 159.148 C 189.513 123.682, 229.105 106.205, 262.703 121.539 C 271.315 125.470, 275.885 128.697, 282.289 135.374 C 289.837 143.244, 295.230 152.990, 297.988 163.750 L 299.077 168 330.539 168 L 362 168 362 165.828 C 362 164.633, 361.281 159.820, 360.403 155.132 C 352.705 114.049, 323.118 77.988, 284.251 62.315 C 269.757 56.471, 257.388 53.963, 241 53.547 C 233.025 53.344, 224.925 53.362, 223 53.586 M 141.365 380.169 C 138.177 381.713, 136.644 385.291, 137.414 389.391 C 139.268 399.276, 154.400 397.591, 154.400 387.500 C 154.400 380.986, 147.589 377.155, 141.365 380.169 M 437.411 415.891 C 435.713 416.927, 433.350 419.011, 432.161 420.522 C 428.038 425.764, 428.592 426, 445 426 C 453.250 426, 460 425.617, 460 425.148 C 460 424.679, 458.979 422.767, 457.730 420.898 C 453.387 414.397, 443.754 412.023, 437.411 415.891 M 87.389 416.847 C 79.555 421.770, 76.792 432.510, 81.177 440.992 C 84.447 447.315, 88.864 450, 95.998 450 C 100.702 450, 102.400 449.493, 105.701 447.102 C 112.816 441.948, 114.942 432.225, 110.750 424.020 C 107.541 417.741, 104.226 415.664, 96.739 415.242 C 91.848 414.967, 89.828 415.314, 87.389 416.847 M 182.432 418.250 C 177.727 422.572, 177.053 426.064, 177.024 446.250 L 177 463 190.750 463.002 L 204.500 463.003 204 442.702 C 203.573 425.377, 203.236 421.999, 201.698 419.656 C 199.508 416.321, 196.309 415, 190.420 415 C 186.793 415, 185.317 415.600, 182.432 418.250 M 252 415.651 C 249.547 416.630, 244.933 421.287, 243.281 424.451 C 239.238 432.196, 243.302 445.428, 250.668 448.506 C 262.614 453.497, 273.888 446.701, 274.810 433.953 C 275.647 422.380, 270.217 415.768, 259.500 415.309 C 256.200 415.168, 252.825 415.322, 252 415.651 M 329.898 434.538 C 328.467 435.292, 324.567 436.348, 321.232 436.885 C 311.087 438.519, 306.861 441.836, 308.469 446.904 C 309.399 449.832, 315.439 452.271, 319.897 451.517 C 328.204 450.114, 333.379 444.304, 332.805 437.028 C 332.503 433.208, 332.473 433.182, 329.898 434.538 M 429 437.550 C 429 440.117, 431.741 444.605, 434.969 447.320 C 440.973 452.373, 451.678 451.697, 457.070 445.925 C 459.979 442.811, 460.320 442.718, 468.250 442.882 C 472.642 442.972, 474 443.354, 474 444.500 C 474 445.325, 473.580 446, 473.067 446 C 472.554 446, 471.879 446.806, 471.566 447.791 C 470.582 450.892, 463.683 457.667, 459 460.132 L 454.500 462.500 463.421 462.791 C 468.327 462.952, 472.940 462.853, 473.671 462.573 C 475.104 462.023, 475.556 446.998, 474.358 439.750 L 473.738 436 451.369 436 C 431.834 436, 429 436.196, 429 437.550 M 1 452.304 L 1 463 11 463 C 16.500 463, 21 462.640, 21 462.201 C 21 461.761, 19.506 460.862, 17.681 460.202 C 12.561 458.350, 6.446 452.535, 3.588 446.801 L 1 441.607 1 452.304 M 332.662 455.438 C 332.358 456.230, 330.289 457.917, 328.063 459.188 C 325.837 460.460, 324.012 461.837, 324.008 462.250 C 324.003 462.663, 328.275 463, 333.500 463 C 338.725 463, 343 462.787, 343 462.526 C 343 462.265, 341.630 461.343, 339.957 460.478 C 338.283 459.612, 336.411 457.800, 335.796 456.452 C 334.531 453.675, 333.470 453.332, 332.662 455.438 M 241.829 459 L 241.447 463 246.724 463 C 252.021 463, 253.739 461.687, 249.995 460.498 C 248.892 460.148, 246.689 458.768, 245.100 457.430 L 242.210 454.999 241.829 459" stroke="none" fill="#f9fafb" fill-rule="evenodd"/><path d="M 214 1 C 214 1.550, 212.646 2, 210.992 2 C 207.045 2, 189.601 6.148, 179.500 9.489 C 161.406 15.473, 137.281 28.958, 122.500 41.349 C 79.991 76.985, 55.811 131.325, 58.352 185.509 C 62.290 269.492, 120.624 337.492, 203.046 354.181 C 213.147 356.226, 217.276 356.495, 238 356.458 C 259.915 356.419, 262.302 356.233, 273.393 353.695 C 307.356 345.922, 334.779 331.643, 359.432 308.896 C 384.675 285.604, 404.339 250.563, 411.565 216 C 421.485 168.547, 412.675 121.231, 386.394 80.809 C 365.234 48.263, 330.831 21.557, 294.500 9.474 C 285.118 6.354, 266.694 2.022, 262.750 2.009 C 261.238 2.004, 260 1.550, 260 1 C 260 0.362, 251.667 0, 237 0 C 222.333 0, 214 0.362, 214 1 M 223 53.586 C 174.970 59.192, 133.498 92.396, 118.189 137.500 C 112.981 152.845, 111.698 160.884, 111.644 178.500 C 111.608 190.193, 112.072 196.726, 113.367 202.768 C 119.879 233.152, 135.321 258.314, 159.160 277.388 C 192.250 303.863, 238.465 311.345, 279.688 296.900 C 306.902 287.364, 332.092 265.965, 346.839 239.854 C 353.811 227.510, 360.042 208.589, 361.563 195.145 L 362.258 189 330.793 189 L 299.328 189 297.594 195.237 C 294.624 205.919, 289.336 214.773, 280.905 223.182 C 270.164 233.894, 259.610 238.978, 243.843 241.034 C 219.245 244.242, 193.406 230.584, 181.672 208.170 C 176.111 197.549, 174.567 191.047, 174.625 178.500 C 174.669 169.147, 175.100 166.249, 177.504 159.148 C 189.513 123.682, 229.105 106.205, 262.703 121.539 C 271.315 125.470, 275.885 128.697, 282.289 135.374 C 289.837 143.244, 295.230 152.990, 297.988 163.750 L 299.077 168 330.539 168 L 362 168 362 165.828 C 362 164.633, 361.281 159.820, 360.403 155.132 C 352.705 114.049, 323.118 77.988, 284.251 62.315 C 269.757 56.471, 257.388 53.963, 241 53.547 C 233.025 53.344, 224.925 53.362, 223 53.586 M 228.709 378.624 C 228.319 379.014, 228 398.179, 228 421.212 L 228 463.091 234.750 462.796 L 241.500 462.500 242 458.633 C 242.494 454.810, 242.520 454.789, 244.322 456.792 C 245.325 457.906, 247.462 459.363, 249.072 460.030 C 250.683 460.697, 252 461.638, 252 462.121 C 252 462.605, 256.050 463, 261 463 C 265.950 463, 270 462.660, 270 462.244 C 270 461.828, 271.418 460.861, 273.150 460.094 C 277.353 458.233, 283.388 452.080, 286.196 446.791 C 288.103 443.200, 288.477 440.949, 288.487 433 C 288.502 422.088, 286.416 416.416, 280.044 410.044 C 274.428 404.428, 269.685 402.556, 261 402.526 C 253.193 402.499, 248.466 404.054, 244.161 408.065 L 242.051 410.030 241.775 394.265 L 241.500 378.500 235.459 378.208 C 232.136 378.047, 229.099 378.234, 228.709 378.624 M 141.365 380.169 C 138.177 381.713, 136.644 385.291, 137.414 389.391 C 139.268 399.276, 154.400 397.591, 154.400 387.500 C 154.400 380.986, 147.589 377.155, 141.365 380.169 M 19.063 404.192 C 12.638 406.659, 4.874 413.940, 2.927 419.324 C 2.196 421.346, 1.239 423, 0.799 423 C 0.360 423, 0 427.275, 0 432.500 C 0 437.725, 0.360 442, 0.799 442 C 1.239 442, 2.196 443.654, 2.927 445.676 C 4.638 450.406, 12.594 458.362, 17.324 460.073 C 19.346 460.804, 21 461.761, 21 462.201 C 21 462.640, 25.026 463, 29.946 463 C 38.323 463, 39.262 462.783, 44.696 459.592 C 47.888 457.717, 51.479 455.130, 52.675 453.842 C 55.604 450.688, 60.262 441.233, 59.496 439.994 C 59.158 439.447, 56.028 439, 52.540 439 C 46.355 439, 46.147 439.086, 44.138 442.491 C 41.266 447.358, 36.546 449.992, 30.684 449.996 C 20.692 450.004, 14 442.925, 14 432.346 C 14 426.754, 15.902 422.301, 19.894 418.546 C 22.548 416.050, 24.001 415.538, 29.267 415.242 C 36.458 414.838, 40.711 416.833, 43.925 422.117 C 45.758 425.131, 46.087 425.250, 52.486 425.222 C 56.147 425.205, 59.366 424.967, 59.640 424.693 C 60.920 423.414, 55.339 413.656, 51.016 409.612 C 42.970 402.085, 30.194 399.918, 19.063 404.192 M 86.224 403.409 C 78.002 406.092, 72.099 411.035, 68.205 418.500 C 64.546 425.512, 64.407 438.010, 67.903 445.788 C 70.539 451.654, 77.281 458.249, 82.614 460.177 C 84.476 460.851, 86 461.761, 86 462.201 C 86 462.640, 89.993 463, 94.874 463 C 102.580 463, 104.390 462.651, 108.624 460.350 C 120.495 453.899, 126.222 444.799, 126.222 432.389 C 126.222 420.035, 120.597 410.901, 109.500 405.239 C 103.401 402.127, 92.726 401.288, 86.224 403.409 M 187.685 403.017 C 186.137 403.482, 183.354 405.018, 181.502 406.431 C 177.252 409.673, 177 409.649, 177 406 L 177 403 170.500 403 L 164 403 164 433 L 164 463 170.500 463 L 177 463 177.024 446.250 C 177.053 426.064, 177.727 422.572, 182.432 418.250 C 185.317 415.600, 186.793 415, 190.420 415 C 196.309 415, 199.508 416.321, 201.698 419.657 C 203.233 421.997, 203.574 425.370, 204 442.452 L 204.500 462.500 211.334 462.798 L 218.167 463.095 217.834 440.798 C 217.521 419.915, 217.354 418.204, 215.200 413.830 C 210.481 404.251, 198.829 399.672, 187.685 403.017 M 312.222 403.470 C 306.247 405.336, 301.569 409.193, 299.102 414.289 C 295.668 421.383, 296.010 422, 303.379 422 C 309.482 422, 309.810 421.874, 310.964 419.086 C 312.776 414.711, 319.787 412.327, 325.954 413.987 C 330.930 415.328, 333.667 418.885, 332.048 421.910 C 330.499 424.805, 328.514 425.630, 320 426.918 C 309.211 428.550, 303.326 430.740, 299.529 434.538 C 295.467 438.599, 294.243 444.224, 296.030 450.608 C 297.294 455.123, 302.669 461, 305.535 461 C 306.341 461, 307 461.450, 307 462 C 307 463.160, 323.654 463.403, 324.167 462.250 C 324.350 461.837, 326.413 460.256, 328.750 458.736 C 331.087 457.216, 333 455.528, 333 454.986 C 333 453.189, 334.854 453.965, 335.512 456.038 C 336.569 459.369, 343.332 463, 348.480 463 L 353 463 353 456.500 C 353 450.003, 352.999 450, 350.117 450 L 347.235 450 346.793 433.750 C 346.292 415.323, 345.415 412.137, 339.504 407.264 C 333.303 402.152, 321.637 400.530, 312.222 403.470 M 371.611 404.003 C 362.517 407.554, 358.520 413.196, 359.209 421.505 C 360.045 431.585, 364.731 435.033, 381.660 438.028 C 387.433 439.050, 392.797 440.416, 393.578 441.065 C 395.647 442.782, 395.318 447.402, 392.975 449.523 C 391.487 450.869, 389.299 451.370, 384.725 451.412 C 377.769 451.475, 372.918 449.310, 371.107 445.335 C 370.168 443.275, 369.352 443, 364.188 443 C 360.968 443, 358.073 443.261, 357.754 443.579 C 357.436 443.898, 357.846 446.127, 358.666 448.534 C 360.303 453.336, 366.403 459.561, 370.475 460.583 C 371.864 460.932, 373 461.618, 373 462.108 C 373 462.599, 377.950 463, 384 463 C 390.667 463, 395 462.606, 395 462 C 395 461.450, 395.607 461, 396.350 461 C 397.092 461, 399.517 459.683, 401.739 458.074 C 411.768 450.809, 410.907 435.497, 400.166 430.119 C 395.772 427.919, 393.551 427.355, 383.924 425.989 C 375.326 424.770, 372 422.960, 372 419.500 C 372 412.265, 388.871 411.093, 392.831 418.054 C 394.397 420.806, 394.886 420.988, 400.750 420.994 C 407.953 421.001, 408.316 420.350, 404.965 413.427 C 400.172 403.527, 384.308 399.044, 371.611 404.003 M 435.500 403.330 C 421.369 408.595, 414.300 419.587, 415.213 434.873 C 415.924 446.781, 420.125 453.353, 430.927 459.459 C 436.704 462.724, 437.837 463, 445.470 463 C 452.552 463, 454.453 462.615, 458.624 460.334 C 463.700 457.558, 470.584 450.887, 471.566 447.791 C 471.879 446.806, 472.554 446, 473.067 446 C 473.580 446, 474 445.325, 474 444.500 C 474 443.354, 472.642 442.972, 468.250 442.882 C 460.320 442.718, 459.979 442.811, 457.070 445.925 C 449.702 453.812, 435.506 451.681, 430.464 441.931 C 427.323 435.857, 426.814 436, 451.500 436 L 474 436 474 428.500 C 474 424.375, 473.599 421, 473.108 421 C 472.618 421, 471.960 419.975, 471.645 418.723 C 470.853 415.566, 464.445 408.296, 460.650 406.248 C 452.986 402.111, 442.147 400.854, 435.500 403.330 M 130.409 404.377 C 130.118 405.134, 130.020 407.920, 130.190 410.567 L 130.500 415.380 134.500 415.440 L 138.500 415.500 138.768 439.250 L 139.036 463 145.401 463 C 151.157 463, 151.824 462.785, 152.370 460.750 C 153.160 457.802, 153.181 406.635, 152.393 404.582 C 151.559 402.408, 131.237 402.219, 130.409 404.377 M 437.411 415.891 C 435.713 416.927, 433.350 419.011, 432.161 420.522 C 428.038 425.764, 428.592 426, 445 426 C 453.250 426, 460 425.617, 460 425.148 C 460 424.679, 458.979 422.767, 457.730 420.898 C 453.387 414.397, 443.754 412.023, 437.411 415.891 M 87.389 416.847 C 79.555 421.770, 76.792 432.510, 81.177 440.992 C 84.447 447.315, 88.864 450, 95.998 450 C 100.702 450, 102.400 449.493, 105.701 447.102 C 112.816 441.948, 114.942 432.225, 110.750 424.020 C 107.541 417.741, 104.226 415.664, 96.739 415.242 C 91.848 414.967, 89.828 415.314, 87.389 416.847 M 252 415.651 C 249.547 416.630, 244.933 421.287, 243.281 424.451 C 239.238 432.196, 243.302 445.428, 250.668 448.506 C 262.614 453.497, 273.888 446.701, 274.810 433.953 C 275.647 422.380, 270.217 415.768, 259.500 415.309 C 256.200 415.168, 252.825 415.322, 252 415.651 M 329.898 434.538 C 328.467 435.292, 324.567 436.348, 321.232 436.885 C 311.087 438.519, 306.861 441.836, 308.469 446.904 C 309.399 449.832, 315.439 452.271, 319.897 451.517 C 328.204 450.114, 333.379 444.304, 332.805 437.028 C 332.503 433.208, 332.473 433.182, 329.898 434.538" stroke="none" fill="#0854f5" fill-rule="evenodd"/></svg>