<svg xmlns="http://www.w3.org/2000/svg" width="40" height="40" viewBox="0 0 40 40" fill="none">
  <g clip-path="url(#clip0_195_373)">
    <path d="M20 40C31.0457 40 40 31.0457 40 20C40 8.9543 31.0457 0 20 0C8.9543 0 0 8.9543 0 20C0 31.0457 8.9543 40 20 40Z" fill="#2CA01C"/>
    <path d="M4.82072 19.9936C4.82232 24.5152 8.46872 28.192 12.9903 28.232H14.1471V25.2096H12.9903C10.1871 25.9744 7.29592 24.3216 6.53272 21.5184C6.52632 21.496 6.52152 21.4736 6.51512 21.4512C5.72952 18.6112 7.37432 15.6688 10.2047 14.8512H10.7823C11.5071 14.6928 12.2575 14.6928 12.9823 14.8512H15.7919V30.8976C15.7775 32.5952 17.1423 33.984 18.8399 34V11.6736H13.0079C8.45432 11.6976 4.78392 15.408 4.80792 19.9616V19.9632L4.82072 19.9936ZM27.0207 11.6768H25.8639V14.8592H27.0207C29.8175 14.096 32.7023 15.744 33.4655 18.5392C33.4719 18.56 33.4767 18.5824 33.4831 18.6032C34.2639 21.4336 32.6239 24.3648 29.8047 25.1808H29.2271C28.5023 25.3392 27.7519 25.3392 27.0271 25.1808H24.2175V9.136C24.2319 7.4384 22.8671 6.0496 21.1695 6.0336V28.392H27.0015C31.5951 28.32 35.2607 24.5392 35.1903 19.9456C35.1199 15.4528 31.4959 11.8272 27.0015 11.7568L27.0207 11.6768Z" fill="white"/>
  </g>
  <defs>
    <clipPath id="clip0_195_373">
      <rect width="40" height="40" fill="white"/>
    </clipPath>
  </defs>
</svg>