<svg xmlns="http://www.w3.org/2000/svg" width="40" height="40" viewBox="0 0 40 40" fill="none">
  <path d="M24.0371 4.4618C22.3274 2.47609 20.8543 0.445268 20.5552 0.0285296C20.549 0.0197259 20.5407 0.0125315 20.5311 0.00756303C20.5214 0.00259456 20.5107 -9.17435e-07 20.4998 2.4326e-10C20.4889 9.17922e-07 20.4782 0.00259769 20.4686 0.00756778C20.4589 0.0125379 20.4507 0.0197332 20.4445 0.0285379C20.1454 0.445286 18.6726 2.4761 16.9629 4.4618C2.30901 22.8353 19.2758 35.2317 19.2758 35.2317L19.4134 35.3257C19.542 37.2436 19.8616 40 19.8616 40H21.1384C21.1384 40 21.4567 37.2555 21.5859 35.3382L21.7243 35.2317C21.7243 35.2317 38.6909 22.8353 24.0371 4.4618ZM20.5001 34.9623H20.4999C20.4999 34.9623 19.7393 34.3237 19.534 34.0038L19.5322 33.9694L20.4522 13.9659C20.4528 13.9538 20.4581 13.9424 20.467 13.934C20.4759 13.9257 20.4877 13.921 20.5 13.921C20.5123 13.921 20.5241 13.9257 20.533 13.934C20.542 13.9424 20.5472 13.9538 20.5478 13.9659L21.4678 33.9693L21.466 34.0037C21.2609 34.3236 20.5001 34.9623 20.5001 34.9623Z" fill="#00684A"/>
</svg>