<?xml version="1.0" encoding="UTF-8"?>
<svg xmlns="http://www.w3.org/2000/svg" xmlns:xlink="http://www.w3.org/1999/xlink" id="Layer_1" data-name="Layer 1" version="1.1" viewBox="0 0 180 180">
  <defs>
    <style>
      .cls-1 {
        fill: #0078d4;
      }

      .cls-1, .cls-2, .cls-3, .cls-4, .cls-5 {
        stroke-width: 0px;
      }

      .cls-2 {
        fill: url(#linear-gradient);
      }

      .cls-3 {
        fill: #000;
      }

      .cls-4 {
        fill: url(#linear-gradient-2);
      }

      .cls-5 {
        fill: url(#linear-gradient-3);
      }
    </style>
    <linearGradient id="linear-gradient" x1="-1083.5" y1="22.4" x2="-1097.1" y2="-17.6" gradientTransform="translate(1745.7 92.2) scale(1.6 -1.6)" gradientUnits="userSpaceOnUse">
      <stop offset="0" stop-color="#114a8b"/>
      <stop offset="1" stop-color="#0765b6"/>
    </linearGradient>
    <linearGradient id="linear-gradient-2" x1="-1079.3" y1="3.8" x2="-1082.4" y2="2.7" gradientTransform="translate(1745.7 92.2) scale(1.6 -1.6)" gradientUnits="userSpaceOnUse">
      <stop offset="0" stop-color="#000" stop-opacity=".3"/>
      <stop offset="0" stop-color="#000" stop-opacity=".2"/>
      <stop offset=".3" stop-color="#000" stop-opacity=".1"/>
      <stop offset=".6" stop-color="#000" stop-opacity="0"/>
      <stop offset="1" stop-color="#000" stop-opacity="0"/>
    </linearGradient>
    <linearGradient id="linear-gradient-3" x1="-1080.9" y1="23.6" x2="-1066.1" y2="-16" gradientTransform="translate(1745.7 92.2) scale(1.6 -1.6)" gradientUnits="userSpaceOnUse">
      <stop offset="0" stop-color="#3bc9f3"/>
      <stop offset="1" stop-color="#2892df"/>
    </linearGradient>
  </defs>
  <g>
    <path class="cls-2" d="M45.2,52.3h20.4l-21.1,62.7c-.4,1.3-1.7,2.2-3.1,2.2h-15.9c-1.8,0-3.2-1.5-3.2-3.2s0-.7.2-1l19.7-58.4c.4-1.3,1.7-2.2,3.1-2.2h0Z"/>
    <path class="cls-1" d="M74.9,94.3h-32.3c-.8,0-1.5.7-1.5,1.5s.2.8.5,1.1l20.8,19.4c.6.6,1.4.9,2.2.9h18.3l-8-22.8Z"/>
    <path class="cls-4" d="M45.2,52.3c-1.4,0-2.7.9-3.1,2.2l-19.7,58.3c-.6,1.7.3,3.5,2,4.1.4.1.7.2,1.1.2h16.2c1.2-.2,2.2-1.1,2.7-2.3l3.9-11.6,14,13.1c.6.5,1.3.7,2.1.7h18.2l-8-22.9h-23.3l14.2-42h-20.5Z"/>
    <path class="cls-5" d="M71.3,54.5c-.4-1.3-1.7-2.2-3.1-2.2h-22.7c1.4,0,2.6.9,3.1,2.2l19.7,58.4c.6,1.7-.4,3.5-2,4.1-.3.1-.7.2-1,.2h22.7c1.8,0,3.2-1.5,3.2-3.2s0-.7-.2-1l-19.7-58.4Z"/>
  </g>
  <path class="cls-3" d="M153.3,79.9c1.5-4.6,1-9.7-1.4-13.8-3.7-6.4-11.1-9.7-18.3-8.2-3.2-3.6-7.8-5.6-12.7-5.6-7.4,0-13.9,4.7-16.2,11.7-4.7,1-8.8,3.9-11.2,8.2-3.7,6.4-2.8,14.4,2.1,19.9-1.5,4.7-.9,9.7,1.5,13.8,3.7,6.4,11.1,9.7,18.3,8.2,3.2,3.6,7.8,5.7,12.7,5.7,7.4,0,13.9-4.7,16.2-11.7,4.7-1,8.8-3.9,11.2-8.2,3.7-6.4,2.8-14.5-2.2-20ZM127.9,115.3c-3,0-5.8-1-8.1-2.9,0,0,.3-.2.4-.2l13.4-7.7c.7-.4,1.1-1.1,1.1-1.9v-18.9l5.7,3.2c0,0,0,0,0,.2v15.7c0,7-5.6,12.7-12.6,12.7ZM100.8,103.8c-1.5-2.6-2-5.6-1.5-8.5,0,0,.2.2.4.2l13.4,7.7c.7.4,1.5.4,2.2,0l16.4-9.5v6.6c0,0,0,.2,0,.2l-13.6,7.8c-6,3.5-13.7,1.4-17.2-4.6h0ZM97.3,74.5c1.5-2.6,3.8-4.5,6.6-5.6v16c0,.7.4,1.5,1.1,1.9l16.4,9.5-5.7,3.2c0,0-.2,0-.2,0l-13.6-7.8c-6.2-3.5-8.2-11.2-4.7-17.2h0ZM143.9,85.3l-16.4-9.5,5.7-3.2c0,0,.2,0,.2,0l13.6,7.8c6.1,3.5,8.1,11.2,4.6,17.2-1.5,2.6-3.8,4.5-6.6,5.5v-15.9c0-.7-.3-1.5-1-1.9h0ZM149.5,76.8c0,0-.2-.2-.4-.2l-13.4-7.7c-.7-.4-1.5-.4-2.2,0l-16.4,9.5v-6.6c0,0,0-.2,0-.2l13.6-7.8c6.1-3.5,13.7-1.4,17.2,4.7,1.5,2.5,2,5.5,1.5,8.4h0ZM114,88.4l-5.7-3.2c0,0,0,0,0-.2v-15.7c0-7,5.7-12.7,12.7-12.7s5.8,1,8.1,2.9c0,0-.2.2-.4.2l-13.4,7.7c-.7.4-1.1,1.1-1.1,1.9v18.9h0ZM117.1,81.8l7.3-4.2,7.3,4.2v8.4l-7.3,4.2-7.3-4.2v-8.4Z"/>
</svg>