<svg xmlns="http://www.w3.org/2000/svg" width="40" height="40" viewBox="0 0 40 40" fill="none">
  <path d="M38.7997 16.2566C38.6963 16.1745 37.7314 15.446 35.6967 15.446C35.1594 15.4483 34.6232 15.4944 34.0934 15.5838C33.6996 12.8845 31.4679 11.5684 31.3679 11.5094L30.8215 11.1943L30.4621 11.7128C30.0121 12.4094 29.6836 13.1773 29.4907 13.9839C29.1264 15.5247 29.3479 16.972 30.1306 18.2093C29.1855 18.736 27.6693 18.8656 27.3624 18.8771H2.25956C1.60388 18.878 1.07182 19.4079 1.06825 20.0635C1.03897 22.2626 1.41156 24.4487 2.16766 26.514C3.03241 28.7817 4.31892 30.4522 5.99268 31.4745C7.86825 32.6231 10.9155 33.2795 14.3696 33.2795C15.93 33.2844 17.4875 33.1432 19.0216 32.8578C21.1542 32.4662 23.2063 31.7208 25.0931 30.6524C26.6477 29.7521 28.0468 28.6068 29.2364 27.2606C31.2252 25.0092 32.41 22.5018 33.2911 20.2735H33.6423C35.8198 20.2735 37.1588 19.4022 37.8972 18.672C38.3879 18.2063 38.771 17.639 39.0196 17.0097L39.1755 16.5536L38.7997 16.2566Z" fill="#1D63ED"/>
  <path d="M4.58626 18.142H7.95016C8.1124 18.142 8.24386 18.0104 8.24386 17.8483V14.8519C8.24477 14.6896 8.114 14.5574 7.95181 14.5565C7.95128 14.5565 7.95069 14.5565 7.95016 14.5565H4.58626C4.42402 14.5565 4.29256 14.688 4.29256 14.8502V14.8519V17.8482C4.29256 18.0104 4.42402 18.142 4.58626 18.142Z" fill="#1D63ED"/>
  <path d="M9.22199 18.142H12.5859C12.7481 18.142 12.8796 18.0104 12.8796 17.8483V14.8519C12.8805 14.6896 12.7497 14.5574 12.5875 14.5565C12.5869 14.5565 12.5864 14.5565 12.5858 14.5565H9.22194C9.05879 14.5565 8.92657 14.6887 8.92657 14.8519V17.8482C8.92753 18.0107 9.05948 18.142 9.22199 18.142Z" fill="#1D63ED"/>
  <path d="M13.9281 18.142H17.292C17.4543 18.142 17.5857 18.0104 17.5857 17.8483V14.8519C17.5867 14.6896 17.4559 14.5574 17.2936 14.5565C17.2931 14.5565 17.2925 14.5565 17.292 14.5565H13.9281C13.7659 14.5565 13.6344 14.688 13.6344 14.8502V14.8519V17.8482C13.6344 18.0104 13.766 18.142 13.9281 18.142Z" fill="#1D63ED"/>
  <path d="M18.5785 18.142H21.9424C22.1049 18.142 22.2368 18.0108 22.2377 17.8483V14.8519C22.2377 14.6887 22.1055 14.5565 21.9424 14.5565H18.5785C18.4162 14.5565 18.2848 14.688 18.2848 14.8502V14.8519V17.8482C18.2848 18.0104 18.4163 18.142 18.5785 18.142Z" fill="#1D63ED"/>
  <path d="M9.22193 13.8312H12.5858C12.7483 13.8303 12.8795 13.6983 12.8795 13.5359V10.5395C12.8795 10.3773 12.748 10.2458 12.5858 10.2458H9.22193C9.05948 10.2458 8.92748 10.377 8.92657 10.5395V13.5359C8.92748 13.6986 9.05916 13.8303 9.22193 13.8312Z" fill="#1D63ED"/>
  <path d="M13.9281 13.8312H17.292C17.4544 13.8303 17.5857 13.6983 17.5857 13.5359V10.5395C17.5857 10.3773 17.4542 10.2458 17.292 10.2458H13.9281C13.7659 10.2458 13.6344 10.3774 13.6344 10.5395V13.5359C13.6344 13.6983 13.7656 13.8303 13.9281 13.8312Z" fill="#1D63ED"/>
  <path d="M18.5785 13.8312H21.9424C22.1051 13.8303 22.2368 13.6986 22.2377 13.5359V10.5395C22.2368 10.377 22.1049 10.2458 21.9424 10.2458H18.5785C18.4162 10.2458 18.2848 10.3774 18.2848 10.5395V13.5359C18.2848 13.6983 18.416 13.8303 18.5785 13.8312Z" fill="#1D63ED"/>
  <path d="M18.5785 9.51877H21.9424C22.1049 9.51877 22.2368 9.38752 22.2377 9.22507V6.22704C22.2368 6.06453 22.1049 5.93333 21.9424 5.93333H18.5785C18.4162 5.93333 18.2848 6.0648 18.2848 6.22704V9.22501C18.2848 9.38725 18.4163 9.51877 18.5785 9.51877Z" fill="#1D63ED"/>
  <path d="M23.2699 18.142H26.6338C26.7963 18.142 26.9282 18.0108 26.9291 17.8483V14.8519C26.9291 14.6887 26.7969 14.5565 26.6338 14.5565H23.2699C23.1077 14.5565 22.9762 14.688 22.9762 14.8502V14.8519V17.8482C22.9762 18.0104 23.1077 18.142 23.2699 18.142Z" fill="#1D63ED"/>
</svg>