<?xml version="1.0" encoding="utf-8"?>
<!-- Generator: Adobe Illustrator 25.0.1, SVG Export Plug-In . SVG Version: 6.00 Build 0)  -->
<svg version="1.0" id="katman_1" xmlns="http://www.w3.org/2000/svg" xmlns:xlink="http://www.w3.org/1999/xlink" x="0px" y="0px"
	 viewBox="0 0 301.3 204" style="enable-background:new 0 0 301.3 204;" xml:space="preserve">
<style type="text/css">
	.st0{fill-rule:evenodd;clip-rule:evenodd;fill:#4285F4;}
	.st1{fill-rule:evenodd;clip-rule:evenodd;fill:#E94235;}
	.st2{fill-rule:evenodd;clip-rule:evenodd;fill:#FBBC04;}
	.st3{fill-rule:evenodd;clip-rule:evenodd;fill:#34A853;}
	.st4{fill:#5E5E5E;}
</style>
<path class="st0" d="M42.4,100.2v2.5h5.9c-0.2,1.4-0.6,2.4-1.3,3.1c-0.9,0.9-2.2,1.8-4.5,1.8c-3.6,0-6.5-2.9-6.5-6.5
	s2.8-6.5,6.5-6.5c2,0,3.4,0.8,4.4,1.8l1.7-1.7c-1.5-1.4-3.4-2.5-6.2-2.5c-5,0-9.1,4-9.1,9s4.2,9,9.1,9c2.7,0,4.7-0.9,6.3-2.5
	c1.6-1.6,2.1-3.9,2.1-5.8c0-0.6,0-1.1-0.1-1.5H42.4z"/>
<path class="st1" d="M58.1,107.5c-1.8,0-3.3-1.5-3.3-3.5c0-2.1,1.5-3.5,3.3-3.5s3.3,1.4,3.3,3.5C61.4,106.1,59.9,107.5,58.1,107.5z
	 M58.1,98.2c-3.2,0-5.8,2.4-5.8,5.8c0,3.3,2.6,5.8,5.8,5.8s5.8-2.5,5.8-5.8C64,100.6,61.3,98.2,58.1,98.2z"/>
<path class="st0" d="M83.8,107.5c-1.8,0-3.1-1.5-3.1-3.5c0-2,1.3-3.5,3.1-3.5c1.7,0,3.1,1.5,3.1,3.5C86.9,106,85.5,107.5,83.8,107.5
	z M86.7,99.5L86.7,99.5c-0.7-0.7-1.8-1.3-3.1-1.3c-2.9,0-5.4,2.5-5.4,5.8c0,3.3,2.5,5.8,5.4,5.8c1.4,0,2.5-0.6,3.1-1.3h0.1v0.8
	c0,2.2-1.2,3.4-3.1,3.4c-1.6,0-2.5-1.1-2.9-2.1l-2.2,0.9c0.6,1.5,2.3,3.4,5.1,3.4c3,0,5.5-1.8,5.5-6.1V98.5h-2.4V99.5z"/>
<path class="st2" d="M71.1,107.5c-1.8,0-3.3-1.5-3.3-3.5c0-2.1,1.5-3.5,3.3-3.5c1.8,0,3.3,1.4,3.3,3.5
	C74.4,106.1,72.9,107.5,71.1,107.5z M71.1,98.2c-3.2,0-5.8,2.4-5.8,5.8c0,3.3,2.6,5.8,5.8,5.8c3.2,0,5.8-2.5,5.8-5.8
	C77,100.6,74.3,98.2,71.1,98.2z"/>
<path class="st3" d="M91.1,109.8h2.5V92.2h-2.5V109.8z"/>
<path class="st1" d="M101.2,100.4c1,0,1.9,0.5,2.2,1.3l-5.2,2.2C98.2,101.4,99.9,100.4,101.2,100.4z M101.4,107.5
	c-1.3,0-2.2-0.6-2.8-1.8l7.8-3.2l-0.3-0.7c-0.5-1.3-2-3.7-5-3.7c-3,0-5.5,2.4-5.5,5.8c0,3.3,2.5,5.8,5.8,5.8c2.7,0,4.2-1.6,4.8-2.6
	l-2-1.3C103.6,106.9,102.7,107.5,101.4,107.5z"/>
<path class="st4" d="M119.3,109.4c-0.8,0-1.5-0.2-2.3-0.5c-0.7-0.3-1.4-0.8-2-1.4c-0.6-0.6-1-1.4-1.3-2.4l1.8-0.7
	c0.2,0.9,0.7,1.7,1.4,2.3c0.7,0.6,1.5,0.9,2.4,0.9c0.6,0,1.1-0.1,1.6-0.3c0.5-0.2,0.9-0.5,1.2-0.9c0.3-0.4,0.5-0.9,0.5-1.5
	c0-0.8-0.3-1.4-0.9-1.8c-0.6-0.5-1.4-0.9-2.6-1.3l-1-0.4c-0.6-0.2-1.2-0.5-1.8-0.8s-1.1-0.8-1.5-1.3c-0.4-0.6-0.6-1.3-0.6-2.1
	c0-0.8,0.2-1.5,0.6-2.1c0.4-0.6,1-1.1,1.7-1.5c0.7-0.4,1.5-0.6,2.5-0.6c1,0,1.8,0.2,2.5,0.6c0.7,0.4,1.2,0.8,1.6,1.3
	c0.4,0.5,0.7,0.9,0.8,1.3l-1.7,0.7c-0.1-0.3-0.3-0.6-0.5-0.9c-0.2-0.3-0.6-0.6-1-0.8c-0.4-0.2-0.9-0.4-1.6-0.4c-0.5,0-1,0.1-1.5,0.3
	c-0.4,0.2-0.8,0.5-1.1,0.9c-0.3,0.4-0.4,0.8-0.4,1.2c0,0.7,0.3,1.2,0.8,1.6s1.2,0.7,2.1,1l1,0.4c0.5,0.2,0.9,0.4,1.4,0.6
	c0.5,0.2,1,0.5,1.4,0.9c0.4,0.4,0.8,0.8,1,1.4c0.3,0.5,0.4,1.2,0.4,1.9c0,0.8-0.2,1.5-0.5,2.1c-0.3,0.6-0.7,1-1.2,1.4
	c-0.5,0.4-1.1,0.6-1.7,0.8C120.5,109.3,119.9,109.4,119.3,109.4z M131.9,109.4c-1.1,0-2.1-0.3-2.9-0.8c-0.8-0.5-1.5-1.2-2-2.1
	c-0.5-0.9-0.7-1.9-0.7-3.1c0-1.1,0.2-2.1,0.7-3c0.5-0.9,1.1-1.6,1.9-2.2c0.8-0.6,1.8-0.8,2.9-0.8c1.1,0,2.1,0.2,2.9,0.7
	c0.8,0.5,1.4,1.2,1.8,2c0.4,0.9,0.7,1.9,0.7,3c0,0.1,0,0.2,0,0.3c0,0.1,0,0.2,0,0.3h-8.9c0.1,0.9,0.3,1.6,0.6,2.2
	c0.4,0.6,0.9,1,1.4,1.3c0.6,0.3,1.1,0.4,1.7,0.4c0.8,0,1.5-0.2,2-0.6c0.5-0.4,1-0.9,1.3-1.5l1.6,0.8c-0.4,0.9-1.1,1.6-1.9,2.1
	C134.1,109.1,133.1,109.4,131.9,109.4z M131.7,99.1c-0.9,0-1.7,0.3-2.3,0.9c-0.6,0.6-1,1.3-1.2,2.2h6.8c0-0.4-0.1-0.9-0.4-1.3
	c-0.2-0.5-0.6-0.9-1.1-1.2C133.2,99.3,132.5,99.1,131.7,99.1z M143,109.4c-0.8,0-1.6-0.2-2.2-0.5c-0.6-0.3-1.1-0.8-1.5-1.3
	c-0.4-0.6-0.5-1.2-0.5-1.9c0-0.8,0.2-1.5,0.6-2.1c0.4-0.6,1-1,1.7-1.3c0.7-0.3,1.5-0.4,2.4-0.4c0.7,0,1.4,0.1,2,0.2s1,0.3,1.2,0.5
	v-0.7c0-0.9-0.3-1.5-0.9-2c-0.6-0.5-1.3-0.7-2.2-0.7c-0.6,0-1.2,0.1-1.7,0.4c-0.5,0.3-0.9,0.6-1.3,1.1l-1.4-1.1
	c0.4-0.7,1-1.2,1.8-1.6c0.8-0.4,1.6-0.6,2.6-0.6c1.5,0,2.7,0.4,3.6,1.2c0.9,0.8,1.3,1.9,1.3,3.3v7.1h-1.8v-1.6h-0.1
	c-0.3,0.5-0.8,1-1.4,1.4C144.6,109.2,143.8,109.4,143,109.4z M143.1,107.7c0.6,0,1.2-0.2,1.8-0.5c0.5-0.3,1-0.8,1.3-1.3
	c0.3-0.5,0.5-1.1,0.5-1.8c-0.3-0.2-0.8-0.4-1.3-0.6c-0.5-0.1-1-0.2-1.7-0.2c-1.1,0-1.9,0.2-2.4,0.7c-0.5,0.4-0.7,1-0.7,1.6
	c0,0.6,0.2,1.1,0.7,1.5C141.8,107.5,142.4,107.7,143.1,107.7z M151.1,109V97.8h1.8v1.8h0.1c0.1-0.4,0.4-0.8,0.7-1.1
	c0.4-0.3,0.7-0.6,1.2-0.7c0.5-0.2,0.9-0.3,1.3-0.3c0.3,0,0.6,0,0.8,0.1c0.2,0,0.4,0.1,0.5,0.2v2c-0.5-0.2-1-0.4-1.6-0.4
	c-0.5,0-1,0.2-1.5,0.5s-0.8,0.7-1.1,1.2c-0.3,0.5-0.4,1.1-0.4,1.7v6.3H151.1z M163.7,109.4c-1.1,0-2.1-0.3-2.9-0.8
	c-0.9-0.5-1.5-1.2-2-2.1c-0.5-0.9-0.7-1.9-0.7-3.1c0-1.1,0.2-2.2,0.7-3.1s1.2-1.6,2-2.1c0.9-0.5,1.8-0.8,2.9-0.8
	c1.3,0,2.3,0.3,3.1,0.9c0.8,0.6,1.4,1.3,1.7,2.2l-1.7,0.7c-0.3-0.7-0.7-1.2-1.3-1.6c-0.5-0.4-1.2-0.5-2-0.5c-0.7,0-1.3,0.2-1.8,0.5
	c-0.6,0.4-1,0.9-1.4,1.5c-0.4,0.6-0.5,1.4-0.5,2.2c0,0.9,0.2,1.6,0.5,2.2c0.4,0.6,0.8,1.1,1.4,1.5c0.6,0.4,1.2,0.5,1.8,0.5
	c0.8,0,1.5-0.2,2-0.6c0.6-0.4,1-0.9,1.3-1.6l1.7,0.7c-0.4,0.9-1,1.6-1.8,2.2C166,109.1,165,109.4,163.7,109.4z M170.7,109V93.2h1.9
	v4.6l-0.1,1.5h0.1c0.3-0.6,0.8-1,1.4-1.4c0.7-0.4,1.4-0.6,2.2-0.6c1.4,0,2.5,0.4,3.2,1.3c0.7,0.8,1,1.9,1,3.1v7.2h-1.9v-6.9
	c0-1.1-0.3-1.8-0.8-2.3c-0.5-0.5-1.2-0.7-1.9-0.7c-0.6,0-1.2,0.2-1.6,0.5s-0.9,0.8-1.1,1.4c-0.3,0.6-0.4,1.1-0.4,1.7v6.2H170.7z
	 M195.5,109.4c-1.2,0-2.2-0.2-3.2-0.6c-1-0.4-1.8-1-2.6-1.7c-0.7-0.7-1.3-1.6-1.7-2.6c-0.4-1-0.6-2.1-0.6-3.3c0-1.2,0.2-2.3,0.6-3.3
	c0.4-1,1-1.9,1.7-2.6c0.7-0.7,1.6-1.3,2.6-1.7c1-0.4,2.1-0.6,3.2-0.6c1.2,0,2.3,0.2,3.3,0.7c1,0.4,1.8,1.1,2.5,1.9l-1.3,1.3
	c-1.2-1.4-2.6-2.1-4.4-2.1c-1.1,0-2.2,0.3-3.1,0.8c-1,0.5-1.7,1.3-2.3,2.2c-0.6,1-0.9,2.1-0.9,3.4c0,1.3,0.3,2.4,0.9,3.4
	c0.6,1,1.3,1.7,2.3,2.2c1,0.5,2,0.8,3.1,0.8c1,0,1.9-0.2,2.7-0.6c0.8-0.4,1.5-1,2.1-1.7l1.4,1.3c-0.7,0.8-1.6,1.5-2.6,2
	C198,109.1,196.8,109.4,195.5,109.4z M208.8,109.4c-1.1,0-2.1-0.3-3-0.8c-0.9-0.5-1.5-1.2-2-2.1c-0.5-0.9-0.7-1.9-0.7-3
	s0.2-2.1,0.7-3c0.5-0.9,1.2-1.6,2-2.2c0.9-0.5,1.9-0.8,3-0.8c1.1,0,2.1,0.3,3,0.8c0.9,0.5,1.5,1.2,2,2.2c0.5,0.9,0.7,1.9,0.7,3
	c0,1.1-0.2,2.1-0.7,3c-0.5,0.9-1.2,1.6-2,2.1C210.9,109.1,209.9,109.4,208.8,109.4z M208.8,107.7c0.7,0,1.3-0.2,1.9-0.5
	c0.6-0.3,1.1-0.8,1.5-1.5c0.4-0.6,0.6-1.4,0.6-2.3s-0.2-1.7-0.6-2.3c-0.4-0.6-0.8-1.1-1.5-1.5c-0.6-0.3-1.2-0.5-1.9-0.5
	c-0.7,0-1.3,0.2-1.9,0.5c-0.6,0.3-1.1,0.8-1.5,1.5c-0.4,0.6-0.6,1.4-0.6,2.3s0.2,1.7,0.6,2.3c0.4,0.6,0.9,1.1,1.5,1.5
	C207.5,107.5,208.1,107.7,208.8,107.7z M216.5,109V97.8h1.8v1.7h0.1c0.3-0.5,0.8-1,1.4-1.4c0.7-0.4,1.4-0.6,2.2-0.6
	c1.4,0,2.4,0.4,3.1,1.2c0.7,0.8,1.1,1.8,1.1,3.2v7.2h-1.9v-6.9c0-1.1-0.3-1.8-0.8-2.3c-0.5-0.5-1.2-0.7-2-0.7
	c-0.6,0-1.2,0.2-1.6,0.5c-0.5,0.3-0.8,0.8-1.1,1.3c-0.3,0.5-0.4,1.1-0.4,1.7v6.3H216.5z M232.7,109.4c-1.3,0-2.3-0.3-3.1-0.9
	c-0.8-0.6-1.3-1.3-1.6-2.1l1.7-0.7c0.3,0.7,0.7,1.2,1.3,1.6c0.6,0.4,1.2,0.5,1.9,0.5c0.7,0,1.3-0.1,1.7-0.4c0.5-0.3,0.7-0.7,0.7-1.2
	c0-0.5-0.2-0.9-0.7-1.2c-0.4-0.3-1-0.5-1.8-0.7l-1.4-0.4c-0.5-0.1-1-0.4-1.5-0.6c-0.5-0.3-0.8-0.6-1.1-1c-0.3-0.4-0.4-0.9-0.4-1.5
	c0-0.7,0.2-1.3,0.6-1.7c0.4-0.5,0.9-0.9,1.6-1.1c0.6-0.3,1.3-0.4,2.1-0.4c1,0,1.8,0.2,2.6,0.6c0.8,0.4,1.3,1,1.7,1.8l-1.6,0.7
	c-0.3-0.6-0.7-0.9-1.1-1.2c-0.5-0.2-1-0.3-1.6-0.3c-0.6,0-1.2,0.1-1.6,0.4c-0.5,0.3-0.7,0.6-0.7,1.1c0,0.5,0.2,0.8,0.6,1.1
	c0.4,0.2,0.8,0.4,1.4,0.6l1.6,0.4c2.2,0.6,3.3,1.7,3.3,3.3c0,0.7-0.2,1.3-0.6,1.8c-0.4,0.5-0.9,0.9-1.6,1.2
	C234.2,109.2,233.5,109.4,232.7,109.4z M244.4,109.4c-1.1,0-2.1-0.3-3-0.8c-0.9-0.5-1.5-1.2-2-2.1c-0.5-0.9-0.7-1.9-0.7-3
	s0.2-2.1,0.7-3c0.5-0.9,1.2-1.6,2-2.2c0.9-0.5,1.9-0.8,3-0.8c1.1,0,2.1,0.3,3,0.8c0.9,0.5,1.5,1.2,2,2.2c0.5,0.9,0.7,1.9,0.7,3
	c0,1.1-0.2,2.1-0.7,3c-0.5,0.9-1.2,1.6-2,2.1C246.6,109.1,245.6,109.4,244.4,109.4z M244.4,107.7c0.7,0,1.3-0.2,1.9-0.5
	c0.6-0.3,1.1-0.8,1.5-1.5c0.4-0.6,0.6-1.4,0.6-2.3s-0.2-1.7-0.6-2.3c-0.4-0.6-0.9-1.1-1.5-1.5c-0.6-0.3-1.2-0.5-1.9-0.5
	c-0.7,0-1.3,0.2-1.9,0.5c-0.6,0.3-1.1,0.8-1.5,1.5c-0.4,0.6-0.5,1.4-0.5,2.3s0.2,1.7,0.5,2.3c0.4,0.6,0.9,1.1,1.5,1.5
	C243.1,107.5,243.8,107.7,244.4,107.7z M252.3,109V93.2h1.9V109H252.3z M261.8,109.4c-1.1,0-2.1-0.3-2.9-0.8c-0.8-0.5-1.5-1.2-2-2.1
	c-0.5-0.9-0.7-1.9-0.7-3.1c0-1.1,0.2-2.1,0.7-3c0.5-0.9,1.1-1.6,1.9-2.2c0.8-0.6,1.8-0.8,2.9-0.8c1.1,0,2.1,0.2,2.9,0.7
	c0.8,0.5,1.4,1.2,1.8,2c0.4,0.9,0.7,1.9,0.7,3c0,0.1,0,0.2,0,0.3c0,0.1,0,0.2,0,0.3h-8.9c0.1,0.9,0.3,1.6,0.6,2.2
	c0.4,0.6,0.9,1,1.4,1.3c0.6,0.3,1.1,0.4,1.7,0.4c0.8,0,1.5-0.2,2-0.6c0.5-0.4,1-0.9,1.3-1.5l1.6,0.8c-0.4,0.9-1.1,1.6-1.9,2.1
	C264,109.1,263,109.4,261.8,109.4z M261.6,99.1c-0.9,0-1.7,0.3-2.3,0.9c-0.6,0.6-1,1.3-1.2,2.2h6.8c0-0.4-0.1-0.9-0.4-1.3
	c-0.2-0.5-0.6-0.9-1.1-1.2C263.1,99.3,262.5,99.1,261.6,99.1z"/>
</svg>
