<svg xmlns="http://www.w3.org/2000/svg" width="40" height="36" viewBox="0 0 40 36" fill="none">
  <g clip-path="url(#clip0_146_426)">
    <path fill-rule="evenodd" clip-rule="evenodd" d="M11.2162 2.97513L14.1892 0.00215912V5.67783H11.2162V2.97513ZM28.7838 2.97513L25.8108 0.00215912V5.67783H28.7838V2.97513Z" fill="#7B7B7B"/>
    <path d="M14.1892 0.00215912H25.8108V2.84H14.1892V0.00215912Z" fill="#5A5A5A"/>
    <path fill-rule="evenodd" clip-rule="evenodd" d="M36.7568 35.6778H3.24324C2.38308 35.6778 1.55815 35.3361 0.949924 34.7279C0.341698 34.1197 0 33.2948 0 32.4346L0 11.2505L5.5727 5.67784H34.4273L40 11.2505V32.4346C40 33.2948 39.6583 34.1197 39.0501 34.7279C38.4418 35.3361 37.6169 35.6778 36.7568 35.6778Z" fill="#E6E7E8"/>
    <path fill-rule="evenodd" clip-rule="evenodd" d="M0 17.1643V11.2505L5.5727 5.67784H34.4273L40 11.2505V17.1643H0Z" fill="#D0D1D2"/>
    <path fill-rule="evenodd" clip-rule="evenodd" d="M4.5946 35.6778V12.7049C4.5946 12.3465 4.73698 12.0027 4.99041 11.7493C5.24383 11.4959 5.58756 11.3535 5.94596 11.3535H34.0541C34.4125 11.3535 34.7562 11.4959 35.0096 11.7493C35.263 12.0027 35.4054 12.3465 35.4054 12.7049V35.6778H4.5946Z" fill="#458CF5"/>
    <path d="M4.5946 17.1643H35.4054V35.6778H4.5946V17.1643Z" fill="white"/>
    <path fill-rule="evenodd" clip-rule="evenodd" d="M26.2162 35.6778V30.1373L23.5135 27.4346L21.7567 22.5697L22.973 19.4616L29.8649 26.3535L31.0811 21.2184L35.4054 25.5427V35.6778H26.2162Z" fill="#D2D3D4"/>
    <path d="M6.62161 19.3265H16.8919V30.813H6.62161V19.3265ZM6.62161 33.3805H19.8649V35.6778H6.62161V33.3805Z" fill="#D2D3D4"/>
    <path fill-rule="evenodd" clip-rule="evenodd" d="M28.7838 31.367V35.6778H23.1081V31.4282C21.951 30.9016 20.9679 30.0562 20.2739 28.991C19.5799 27.9258 19.2038 26.6849 19.1897 25.4137C19.1755 24.1425 19.5238 22.8935 20.1938 21.8131C20.8639 20.7327 21.8279 19.8655 22.973 19.3132V25.6778L25.8108 27.4346L28.7838 25.6778V19.313C29.9176 19.8599 30.8741 20.7156 31.5435 21.7817C32.2129 22.8478 32.568 24.0812 32.568 25.34C32.568 26.5989 32.2129 27.8322 31.5435 28.8983C30.8741 29.9644 29.9176 30.8201 28.7838 31.367Z" fill="#505050"/>
    <path fill-rule="evenodd" clip-rule="evenodd" d="M7.77026 12.84C7.99744 12.84 8.21952 12.9074 8.40842 13.0336C8.59731 13.1598 8.74454 13.3392 8.83147 13.5491C8.91841 13.759 8.94116 13.9899 8.89684 14.2127C8.85252 14.4356 8.74312 14.6402 8.58248 14.8009C8.42184 14.9615 8.21717 15.0709 7.99435 15.1152C7.77154 15.1595 7.54058 15.1368 7.33069 15.0499C7.1208 14.9629 6.94141 14.8157 6.81519 14.6268C6.68898 14.4379 6.62161 14.2158 6.62161 13.9886C6.62161 13.684 6.74263 13.3918 6.95804 13.1764C7.17346 12.961 7.46562 12.84 7.77026 12.84ZM11.1486 12.84C11.3758 12.84 11.5979 12.9074 11.7868 13.0336C11.9757 13.1598 12.1229 13.3392 12.2099 13.5491C12.2968 13.759 12.3195 13.9899 12.2752 14.2127C12.2309 14.4356 12.1215 14.6402 11.9609 14.8009C11.8002 14.9615 11.5955 15.0709 11.3727 15.1152C11.1499 15.1595 10.919 15.1368 10.7091 15.0499C10.4992 14.9629 10.3198 14.8157 10.1936 14.6268C10.0674 14.4379 9.99999 14.2158 9.99999 13.9886C9.99999 13.684 10.121 13.3918 10.3364 13.1764C10.5518 12.961 10.844 12.84 11.1486 12.84Z" fill="#E6E7E8"/>
  </g>
  <defs>
    <clipPath id="clip0_146_426">
      <rect width="40" height="35.68" fill="white"/>
    </clipPath>
  </defs>
</svg>