<svg xmlns="http://www.w3.org/2000/svg" width="40" height="40" viewBox="0 0 40 40" fill="none">
  <path d="M6.54199 18.8845C5.73072 18.7944 5.67063 17.7746 4.631 17.8648C4.12622 17.8648 3.65748 18.062 3.65748 18.4958C3.65748 19.1493 4.73316 19.2113 5.38218 19.3746C6.48791 19.6901 7.55758 19.9042 7.55758 21.031C7.55758 22.462 6.36171 22.9577 4.78124 22.9577C3.45917 22.9577 2.11908 22.5183 2.11908 21.3803C2.11908 21.0648 2.44359 20.8169 2.75607 20.8169C3.15269 20.8169 3.29091 20.9746 3.42913 21.2338C3.73561 21.7408 4.07814 22.0113 4.93147 22.0113C5.47232 22.0113 6.02518 21.8197 6.02518 21.3803C6.02518 20.7549 5.34612 20.6197 4.64302 20.4676C3.39908 20.1408 2.32941 19.9718 2.20321 18.676C2.071 16.4676 6.98068 16.3831 7.26312 18.3211C7.25711 18.6704 6.90856 18.8845 6.54199 18.8845ZM12.3831 16.9465C14.1078 16.9465 15.0873 18.2986 15.0873 19.9662C15.0873 21.6394 14.1379 22.9859 12.3831 22.9859C11.4096 22.9859 10.8026 22.5972 10.364 22V24.2084C10.364 24.8732 10.1356 25.1944 9.6188 25.1944C8.98781 25.1944 8.87363 24.8169 8.87363 24.2084V17.7859C8.87363 17.262 9.108 16.9408 9.6188 16.9408C10.0995 16.9408 10.364 17.2958 10.364 17.7859V17.9662C10.8507 17.3915 11.4096 16.9465 12.3831 16.9465ZM11.9745 21.8366C12.9841 21.8366 13.4348 20.9634 13.4348 19.9437C13.4348 18.9465 12.978 18.0507 11.9745 18.0507C10.9228 18.0507 10.4361 18.862 10.4361 19.9437C10.4361 20.9972 10.9288 21.8366 11.9745 21.8366ZM16.2592 18.5239C16.2592 17.3634 17.6834 16.9465 19.0656 16.9465C21.0066 16.9465 21.8058 17.476 21.8058 19.2338V20.9239C21.8058 21.3239 22.0703 22.1239 22.0703 22.3662C22.0703 22.7324 21.7097 22.9634 21.3251 22.9634C20.8984 22.9634 20.5799 22.4901 20.3516 22.1521C19.7206 22.6253 19.0535 22.9634 18.0319 22.9634C16.9022 22.9634 16.0128 22.338 16.0128 21.307C16.0128 20.3944 16.7099 19.8704 17.5512 19.6901C17.5512 19.6958 20.2554 19.0929 20.2554 19.0873C20.2554 18.3098 19.961 17.9662 19.0896 17.9662C18.3204 17.9662 17.9298 18.1634 17.6293 18.5972C17.3889 18.9239 17.419 19.1211 16.9563 19.1211C16.5837 19.1155 16.2592 18.8789 16.2592 18.5239ZM18.5668 22.0113C19.7506 22.0113 20.2494 21.4253 20.2494 20.2591V20.0113C19.9309 20.1127 18.6449 20.4113 18.2964 20.462C17.9238 20.5296 17.5512 20.7887 17.5512 21.2C17.5632 21.6507 18.056 22.0113 18.5668 22.0113ZM27.2624 14.7437C28.933 14.7437 30.7418 15.6789 30.7418 17.1662C30.7418 17.5493 30.4353 17.8648 30.0327 17.8648C29.4858 17.8648 29.4077 17.5887 29.1673 17.2C28.7647 16.507 28.29 16.0451 27.2564 16.0451C25.6579 16.0338 24.9427 17.3183 24.9427 18.9183C24.9427 20.5296 25.5377 21.6901 27.1903 21.6901C28.29 21.6901 28.8969 21.0929 29.2094 20.3211C29.3356 19.9662 29.564 19.6225 30.0387 19.6225C30.4113 19.6225 30.7839 19.9775 30.7839 20.3606C30.7839 21.938 29.0652 23.031 27.2984 23.031C25.3634 23.031 24.2697 22.2648 23.6688 20.9915C23.3743 20.3831 23.188 19.7521 23.188 18.8845C23.176 16.4394 24.6964 14.7437 27.2624 14.7437ZM36.8173 16.9465C37.244 16.9465 37.4903 17.2056 37.4903 17.6113C37.4903 17.7746 37.3521 18.1014 37.298 18.276L35.2428 23.3408C34.7861 24.4394 34.4436 25.2 32.8872 25.2C32.148 25.2 31.505 25.138 31.505 24.5352C31.505 24.1859 31.7874 24.0113 32.178 24.0113C32.2502 24.0113 32.3703 24.0451 32.4425 24.0451C32.5566 24.0451 32.6348 24.0789 32.7069 24.0789C33.4881 24.0789 33.5963 23.3296 33.8727 22.8113L31.8896 18.2084C31.7754 17.9606 31.6973 17.7915 31.6973 17.6451C31.6973 17.2394 32.0338 16.9465 32.4845 16.9465C32.9893 16.9465 33.1876 17.3183 33.3138 17.7239L34.6239 21.3746L35.9339 18C36.1322 17.476 36.1503 16.9465 36.8173 16.9465Z" fill="#09A4D7"/>
</svg>