<svg xmlns="http://www.w3.org/2000/svg" width="40" height="40" viewBox="0 0 40 40" fill="none">
  <g clip-path="url(#clip0_173_36)">
    <path d="M12.0594 16.8083L19.8274 9.0406L27.5996 16.8124L32.1196 12.2925L19.8274 0L7.53939 12.2883L12.0594 16.8083Z" fill="#F3BA2F"/>
    <path d="M8.86731 19.9993L4.3474 15.4794L-0.172726 19.9995L4.34718 24.5194L8.86731 19.9993Z" fill="#F3BA2F"/>
    <path d="M12.0593 23.1917L19.8273 30.9594L27.5992 23.1879L32.1217 27.7053L32.1195 27.7079L19.8273 40L7.539 27.712L7.53268 27.7056L12.0593 23.1917Z" fill="#F3BA2F"/>
    <path d="M35.3078 24.5216L39.8279 20.0015L35.308 15.4816L30.7879 20.0017L35.3078 24.5216Z" fill="#F3BA2F"/>
    <path d="M24.4122 19.9977H24.4141L19.8275 15.411L16.4379 18.8006H16.4375L16.0483 19.1901L15.2449 19.9936L15.2386 19.9999L15.2449 20.0065L19.8275 24.589L24.4141 20.0024L24.4163 19.9999L24.4122 19.9977Z" fill="#F3BA2F"/>
  </g>
  <defs>
    <clipPath id="clip0_173_36">
      <rect width="40" height="40" fill="white"/>
    </clipPath>
  </defs>
</svg>