<?xml version="1.0" standalone="no"?>
<!DOCTYPE svg PUBLIC "-//W3C//DTD SVG 20010904//EN"
 "http://www.w3.org/TR/2001/REC-SVG-20010904/DTD/svg10.dtd">
<svg version="1.0" xmlns="http://www.w3.org/2000/svg"
 width="800.000000pt" height="366.000000pt" viewBox="0 0 800.000000 366.000000"
 preserveAspectRatio="xMidYMid meet">

<g transform="translate(0.000000,366.000000) scale(0.100000,-0.100000)"
fill="#000000" stroke="none">
<path d="M2935 2288 c-28 -16 -35 -28 -35 -65 0 -56 69 -84 110 -43 29 29 26
74 -6 99 -30 24 -41 25 -69 9z"/>
<path d="M1721 2264 c-108 -29 -197 -91 -255 -179 -193 -291 -21 -666 325
-709 186 -23 380 88 463 264 26 55 31 80 34 161 7 152 -29 247 -130 348 -111
111 -284 156 -437 115z m287 -114 c71 -37 128 -97 164 -168 20 -41 23 -62 23
-157 0 -106 -1 -112 -34 -173 -41 -75 -94 -125 -170 -161 -49 -23 -69 -26
-156 -26 -122 0 -171 20 -256 105 -73 73 -101 143 -101 255 0 163 79 279 237
348 31 13 62 16 135 14 86 -3 101 -6 158 -37z"/>
<path d="M4940 2150 l0 -120 -55 0 -55 0 0 -35 0 -35 55 0 55 0 0 -280 0 -280
40 0 40 0 0 280 0 280 65 0 65 0 0 35 0 34 -62 3 -63 3 -3 118 -3 117 -39 0
-40 0 0 -120z"/>
<path d="M6800 2207 c-14 -7 -31 -25 -38 -41 -40 -82 68 -156 133 -91 42 41
31 105 -22 133 -27 15 -42 15 -73 -1z m70 -12 c53 -27 50 -102 -5 -127 -58
-26 -120 33 -93 89 7 15 24 33 38 40 31 16 25 16 60 -2z"/>
<path d="M6800 2136 c0 -25 5 -46 10 -46 6 0 10 7 10 15 0 8 9 15 20 15 11 0
20 -6 20 -14 0 -8 4 -17 10 -21 5 -3 8 14 7 42 -2 48 -2 48 -39 51 l-38 3 0
-45z m60 19 c0 -8 -9 -15 -20 -15 -11 0 -20 7 -20 15 0 8 9 15 20 15 11 0 20
-7 20 -15z"/>
<path d="M2659 2030 c-20 -11 -48 -33 -63 -50 l-26 -32 0 41 0 41 -45 0 -45 0
0 -315 0 -315 44 0 45 0 3 213 c3 203 4 214 28 262 32 64 81 99 130 91 31 -5
37 -2 53 26 18 31 18 33 1 45 -25 19 -83 15 -125 -7z"/>
<path d="M3423 2032 c-151 -54 -238 -209 -212 -376 26 -159 139 -262 300 -273
128 -9 236 40 299 135 33 49 32 55 -10 77 -27 14 -28 14 -53 -25 -80 -119
-249 -151 -359 -67 -47 36 -87 105 -95 166 l-6 41 288 0 288 0 -6 53 c-11 107
-83 209 -180 256 -66 32 -184 38 -254 13z m188 -74 c22 -6 57 -27 79 -46 37
-31 80 -97 80 -122 0 -7 -79 -10 -236 -10 l-235 0 7 23 c20 67 79 130 140 152
48 17 114 19 165 3z"/>
<path d="M4303 2033 c-23 -8 -65 -35 -93 -60 l-50 -45 0 51 0 51 -40 0 -40 0
0 -315 0 -315 39 0 39 0 4 203 c3 183 5 206 25 242 47 88 117 129 211 123 59
-4 67 -7 98 -40 18 -20 37 -53 43 -75 6 -21 11 -129 11 -245 l0 -208 40 0 40
0 0 218 c0 261 -9 305 -74 367 -65 63 -160 81 -253 48z"/>
<path d="M2920 1715 l0 -315 40 0 40 0 0 315 0 315 -40 0 -40 0 0 -315z"/>
</g>
</svg>
