<svg xmlns="http://www.w3.org/2000/svg" viewBox="0 0 128 128"><path fill="#f89939" d="M98.18 88.13c15.63-15.62 18.23-38.36 5.8-50.78-12.43-12.42-35.17-9.82-50.8 5.8-15.63 15.62-11.11 45.48-5.8 50.78 4.29 4.29 35.17 9.82 50.8-5.8Z"/><path fill="#3499cd" d="M34.04 65.56c-9.07-9.06-22.27-10.57-29.48-3.37-7.21 7.21-5.7 20.4 3.37 29.46 9.07 9.07 26.4 6.44 29.48 3.37 2.49-2.49 5.71-20.4-3.37-29.46Z"/><path fill="#010101" d="M123.82 85.68c-.58 0-.87-.35-.87-1.06 0-.53.35-1.69 1.04-3.46 1.01-2.59 1.52-4.45 1.52-5.58 0-.68-.2-1.25-.6-1.7-.4-.45-.9-.68-1.5-.68-.88 0-1.89.41-3.03 1.24-1.14.83-2.67 2.32-4.6 4.48.28-1.4.88-3.32 1.78-5.76l-4.31.83c-.98 2.12-1.69 4.03-2.13 5.73-.22.83-.38 1.69-.49 2.56-1.35 1.31-2.23 2.1-2.61 2.39-.39.29-.8.43-1.22.43-.39 0-.7-.15-.93-.44-.23-.29-.34-.69-.34-1.18 0-.53.1-1.14.3-1.83s.64-1.99 1.33-3.9l1.64-4.52-1.61.07c-1.46 2.78-3.17 4.28-5.13 4.49.53-1.38.8-2.44.8-3.18 0-.94-.46-1.41-1.38-1.41-1.09 0-1.94.51-2.55 1.54-.62 1.03-.93 2-.93 2.91s.51 1.55 1.52 2c-.66.97-1.4 1.88-2.2 2.74-.95.94-1.69 1.66-2.23 2.13-.55.49-1.06.73-1.52.73-.72 0-1.08-.51-1.08-1.52s.4-2.75 1.2-5.35l1.56-5.18h-.99l-3.61 2c-.59-1.35-1.62-2.03-3.09-2.03-1.17 0-2.51.5-4.03 1.49-1.52.99-2.77 2.28-3.74 3.89-.75 1.24-1.21 2.54-1.38 3.88-1.36 1.36-2.38 2.24-3.06 2.65-.71.42-1.45.63-2.23.63-1.99 0-3.22-1.15-3.69-3.45 5.19-1.52 7.78-3.5 7.78-5.94 0-.92-.33-1.66-.99-2.23-.66-.57-1.54-.85-2.63-.85-2.11 0-4.03 1.01-5.76 3.03-1.57 1.83-2.42 3.86-2.57 6.09-1.43 1.41-2.51 2.34-3.21 2.79-.72.46-1.4.69-2.03.69s-1.13-.3-1.5-.9c-.38-.6-.57-1.41-.57-2.44 0-.46.05-1.3.14-2.53 2.36-2.56 4.09-4.96 5.2-7.21 1.11-2.25 1.66-4.58 1.66-6.98 0-.85-.11-1.52-.33-2.02-.22-.5-.5-.75-.84-.75-.07 0-.18.02-.32.07l-4.49 1.66c-1.53 2.92-2.84 6.11-3.91 9.58-1.07 3.46-1.61 6.43-1.61 8.9 0 1.65.38 2.96 1.16 3.94.77.98 1.79 1.47 3.05 1.47 1.1 0 2.25-.35 3.46-1.05 1.21-.7 2.61-1.79 4.22-3.26s0-.02 0-.02c.19 1.11.65 2.04 1.37 2.8.99 1.02 2.28 1.54 3.88 1.54 1.44 0 2.75-.35 3.94-1.05 1.15-.67 2.44-1.72 3.88-3.11.12 1.04.46 1.94 1.03 2.71.73.97 1.61 1.46 2.64 1.46s2.09-.4 3.09-1.2c1-.8 2.08-2.05 3.26-3.73-.11 3.29.77 4.93 2.63 4.93.74 0 1.52-.27 2.33-.81s2.16-1.71 4.05-3.5c1.64-1.62 2.84-3.14 3.61-4.56 1.04-.18 1.99-.49 2.86-.94-1.78 2.79-2.67 5.02-2.67 6.68 0 .9.25 1.65.74 2.25.49.6 1.1.91 1.82.91 1.57 0 3.8-1.41 6.68-4.2 0 .22-.02.43-.02.65 0 .78.07 1.96.19 3.55l3.91-.92c0-1.06.02-1.9.05-2.53.06-.84.18-1.76.35-2.76.11-.59.38-1.15.81-1.68l.99-1.15c.36-.42.71-.8 1.02-1.13.37-.39.7-.72.99-.99.33-.29.62-.53.87-.69.27-.16.49-.25.65-.25.29 0 .44.19.44.57s-.28 1.26-.83 2.65c-1.04 2.59-1.56 4.52-1.56 5.78 0 .93.24 1.67.73 2.23.48.55 1.12.83 1.91.83 1.94 0 4.28-1.44 7-4.31V82.3c-1.93 2.27-3.32 3.41-4.18 3.41Zm-65.26-8.29c.8-3.91 1.62-6.94 2.45-9.11.83-2.17 1.47-3.26 1.9-3.26.2 0 .37.13.5.4.13.26.19.62.19 1.05 0 1.49-.46 3.26-1.4 5.33-.93 2.06-2.15 3.93-3.64 5.59Zm11.79-.98c.71-1.19 1.45-1.78 2.23-1.78.82 0 1.24.57 1.24 1.7 0 2.29-1.51 3.85-4.53 4.7 0-1.9.35-3.44 1.06-4.62Zm17.48 5.85c-1.04 2.01-2.16 3.01-3.33 3.01-.48 0-.88-.2-1.19-.59-.31-.39-.47-.91-.47-1.55 0-1.68.53-3.53 1.58-5.53 1.05-2 2.17-3 3.35-3 .49 0 .89.18 1.18.56.29.37.44.89.44 1.55 0 1.7-.52 3.55-1.56 5.56Z"/><path fill="#fff" d="M75.46 64.88c.15.21.22.48.22.8s-.09.61-.27.88-.44.49-.79.64c-.34.15-.73.23-1.16.23-.72 0-1.26-.15-1.64-.45s-.62-.74-.72-1.33l.93-.15c.05.37.2.66.43.85.24.2.57.3 1 .3s.75-.09.96-.26c.21-.17.31-.38.31-.62 0-.21-.09-.38-.28-.5-.13-.08-.45-.19-.96-.32-.69-.17-1.16-.32-1.43-.45s-.47-.3-.6-.53-.21-.47-.21-.74c0-.25.06-.47.17-.68.11-.21.27-.38.46-.52.15-.11.34-.2.59-.27.25-.07.52-.11.81-.11.43 0 .81.06 1.14.19.33.12.57.29.73.51.16.21.26.5.32.86l-.92.12c-.04-.28-.16-.51-.36-.67-.2-.16-.48-.24-.85-.24-.43 0-.74.07-.92.21-.18.14-.28.31-.28.5 0 .12.04.23.11.33.08.1.2.18.36.25.09.03.37.11.83.24.66.18 1.12.32 1.39.43.26.11.47.28.62.49Zm4.47 1.44c-.25.23-.55.34-.92.34-.46 0-.83-.17-1.11-.5s-.43-.88-.43-1.62.15-1.27.44-1.6.68-.51 1.15-.51c.31 0 .58.09.8.28.22.19.37.47.46.84l.91-.14c-.11-.56-.35-.99-.73-1.29-.38-.3-.87-.45-1.47-.45-.48 0-.91.11-1.32.34-.4.22-.71.56-.9 1.01-.2.45-.3.97-.3 1.57 0 .92.23 1.63.69 2.12.46.49 1.07.74 1.82.74.6 0 1.11-.18 1.53-.54.41-.36.67-.86.77-1.49l-.92-.12c-.07.47-.22.81-.47 1.04Zm2.19.98h.94v-5.52h-.94v5.52Zm0-6.55h.94v-1.08h-.94v1.08Zm6.73 1.02h-1.21l-2.22 2.25v-4.35h-.94v7.62h.94V65.1l.66-.63 1.83 2.82h1.16l-2.33-3.47 2.11-2.05Zm.96-1.02h.94v-1.08h-.94v1.08Zm0 6.55h.94v-5.52h-.94v5.52Zm4.41-.84c-.17.02-.31.04-.41.04-.14 0-.25-.02-.32-.07s-.13-.11-.16-.18c-.03-.08-.05-.25-.05-.51v-3.23h.94v-.73h-.94v-1.93l-.93.56v1.37h-.69v.73h.69v3.18c0 .56.04.93.11 1.1.08.18.21.32.39.42.19.11.45.16.79.16.21 0 .44-.03.71-.08l-.14-.83Z"/></svg>
