<svg width="491" height="390" viewBox="0 0 491 390" fill="none" xmlns="http://www.w3.org/2000/svg">
<path fill-rule="evenodd" clip-rule="evenodd" d="M51.8537 372.469H38.3478L13.5059 340.481V372.469H0V320.241H13.5059L38.3478 352.189V320.241H51.8537V372.469ZM98.5563 357.01H72.3058C72.3058 362.343 74.8678 365.007 79.99 365.007C82.6023 365.007 84.606 363.886 86.001 361.641H98.0616C97.0975 364.855 95.6773 367.341 93.7992 369.101C90.4025 372.29 85.8484 373.885 80.1427 373.885C72.8893 373.885 67.4348 371.664 63.7829 367.226C61.0451 363.911 59.6751 359.867 59.6751 355.098C59.6751 349.434 61.3871 344.83 64.8109 341.286C68.2347 337.74 73.067 335.967 79.306 335.967C86.9903 335.967 92.4815 338.773 95.7778 344.383C97.6307 347.547 98.5563 351.22 98.5563 355.403V357.01ZM86.9149 349.817C86.0261 345.889 83.6553 343.925 79.8007 343.925C77.6695 343.925 75.946 344.551 74.6263 345.8C73.5868 346.795 72.926 348.134 72.6478 349.817H86.9149ZM146.399 354.677C146.399 360.646 144.358 365.44 140.274 369.064C136.85 372.1 132.945 373.615 128.557 373.615C125.842 373.615 123.421 373.017 121.29 371.818C119.998 371.103 118.792 370.007 117.675 368.528V372.469H105.197V315H117.675V340.445C119.02 339.04 120.326 338.033 121.594 337.421C123.802 336.35 126.159 335.814 128.671 335.814C132.984 335.814 136.8 337.254 140.123 340.137C144.306 343.76 146.399 348.606 146.399 354.677ZM133.426 354.715C133.426 352.751 132.779 351.004 131.486 349.473C129.888 347.586 127.846 346.641 125.361 346.641C123.13 346.641 121.226 347.426 119.654 348.995C118.083 350.565 117.296 352.469 117.296 354.715C117.296 356.96 118.083 358.866 119.654 360.434C121.226 362.005 123.13 362.788 125.361 362.788C127.871 362.788 129.913 361.845 131.486 359.956C132.779 358.4 133.426 356.653 133.426 354.715ZM190.667 359.498C190.667 366.105 187.56 370.491 181.346 372.659C178.759 373.553 175.602 374 171.873 374C164.544 374 159.281 372.187 156.085 368.565C154.056 366.27 153.042 363.246 153.042 359.498V336.962H165.52V357.086C165.52 359.307 166.053 360.938 167.117 361.985C168.259 363.106 169.844 363.668 171.873 363.668C173.876 363.668 175.449 363.106 176.591 361.985C177.656 360.938 178.189 359.307 178.189 357.086V336.962H190.667V359.498ZM198.68 372.469H211.157V315H198.68V372.469ZM259 372.469H246.522V368.528C245.33 370.032 244.124 371.13 242.907 371.818C240.778 373.017 238.355 373.615 235.64 373.615C231.252 373.615 227.347 372.1 223.923 369.064C219.839 365.44 217.798 360.646 217.798 354.677C217.798 348.606 219.891 343.76 224.076 340.137C227.397 337.254 231.215 335.814 235.526 335.814C238.038 335.814 240.397 336.35 242.604 337.421C243.871 338.033 245.177 339.04 246.522 340.445V336.962H259V372.469ZM246.903 354.715C246.903 352.469 246.116 350.565 244.543 348.995C242.971 347.426 241.068 346.641 238.836 346.641C236.351 346.641 234.309 347.586 232.711 349.473C231.418 351.004 230.771 352.751 230.771 354.715C230.771 356.68 231.418 358.425 232.711 359.956C234.284 361.845 236.326 362.788 238.836 362.788C241.095 362.788 243.002 362.01 244.563 360.454C246.122 358.899 246.903 356.985 246.903 354.715Z" fill="#009EFF"/>
<mask id="mask0_0_202" style="mask-type:alpha" maskUnits="userSpaceOnUse" x="0" y="315" width="259" height="59">
<path fill-rule="evenodd" clip-rule="evenodd" d="M198.679 372.469H211.157V315H198.679V372.469ZM105.198 315V372.469H117.676V368.528C118.793 370.007 119.997 371.103 121.291 371.816C123.42 373.017 125.843 373.617 128.558 373.617C132.944 373.617 136.851 372.098 140.275 369.062C144.358 365.44 146.4 360.645 146.4 354.675C146.4 348.607 144.307 343.761 140.124 340.139C136.801 337.257 132.983 335.813 128.67 335.813C126.16 335.813 123.801 336.349 121.594 337.42C120.327 338.032 119.021 339.043 117.676 340.444V315H105.198ZM119.655 360.435C118.082 358.867 117.295 356.96 117.295 354.714C117.295 352.472 118.082 350.566 119.655 348.994C121.227 347.427 123.131 346.642 125.36 346.642C127.847 346.642 129.889 347.587 131.485 349.474C132.78 351.003 133.427 352.752 133.427 354.714C133.427 356.653 132.78 358.4 131.485 359.957C129.914 361.846 127.872 362.788 125.36 362.788C123.131 362.788 121.227 362.005 119.655 360.435ZM38.3481 320.243V352.19L13.5041 320.243H0V372.469H13.5041V340.483L38.3481 372.469H51.8541V320.243H38.3481ZM224.078 340.139C219.893 343.761 217.8 348.607 217.8 354.675C217.8 360.645 219.84 365.44 223.925 369.062C227.349 372.098 231.254 373.617 235.642 373.617C238.357 373.617 240.778 373.017 242.909 371.816C244.126 371.13 245.332 370.032 246.522 368.528V372.469H259V336.962H246.522V340.444C245.177 339.043 243.871 338.032 242.603 337.42C240.397 336.349 238.04 335.813 235.528 335.813C231.215 335.813 227.399 337.257 224.078 340.139ZM232.713 359.957C231.42 358.426 230.773 356.679 230.773 354.714C230.773 352.752 231.42 351.003 232.713 349.474C234.311 347.587 236.353 346.642 238.838 346.642C241.071 346.642 242.973 347.427 244.545 348.994C246.116 350.566 246.903 352.472 246.903 354.714C246.903 356.984 246.124 358.898 244.565 360.454C243.003 362.009 241.094 362.788 238.838 362.788C236.326 362.788 234.285 361.846 232.713 359.957ZM64.8113 341.285C61.3856 344.831 59.6756 349.435 59.6756 355.097C59.6756 359.867 61.0436 363.909 63.7854 367.226C67.4372 371.664 72.8898 373.883 80.1432 373.883C85.8509 373.883 90.4032 372.288 93.7999 369.101C95.6761 367.341 97.0982 364.856 98.0604 361.64H86.0016C84.6066 363.884 82.6029 365.007 79.9906 365.007C74.8664 365.007 72.3063 362.341 72.3063 357.011H98.557V355.404C98.557 351.22 97.6295 347.548 95.7804 344.384C92.4822 338.774 86.9909 335.967 79.3066 335.967C73.0676 335.967 68.2352 337.741 64.8113 341.285ZM74.6269 345.801C75.9446 344.55 77.6701 343.926 79.8013 343.926C83.656 343.926 86.0268 345.89 86.9136 349.817H72.6483C72.9285 348.135 73.5873 346.796 74.6269 345.801ZM178.19 336.962V357.089C178.19 359.308 177.657 360.938 176.59 361.985C175.45 363.105 173.878 363.668 171.874 363.668C169.843 363.668 168.261 363.105 167.119 361.985C166.054 360.938 165.519 359.308 165.519 357.089V336.962H153.043V359.498C153.043 363.247 154.055 366.27 156.086 368.565C159.282 372.187 164.543 374 171.874 374C175.601 374 178.76 373.551 181.347 372.659C187.561 370.491 190.668 366.103 190.668 359.498V336.962H178.19Z" fill="white"/>
</mask>
<g mask="url(#mask0_0_202)">
<path fill-rule="evenodd" clip-rule="evenodd" d="M-154.1 455.173H644.096V92.9888H-154.1V455.173Z" fill="#009EFF"/>
<path fill-rule="evenodd" clip-rule="evenodd" d="M-0.867554 374.869H259.866V314.13H-0.867554V374.869Z" fill="#009EFF"/>
</g>
<mask id="mask1_0_202" style="mask-type:alpha" maskUnits="userSpaceOnUse" x="265" y="315" width="226" height="75">
<path fill-rule="evenodd" clip-rule="evenodd" d="M453.682 315V372.301H466.186V353.341C466.186 350.847 466.769 349.005 467.94 347.809C469.21 346.511 470.811 345.862 472.741 345.862C474.826 345.862 476.388 346.612 477.43 348.114C478.14 349.131 478.498 351.215 478.498 354.37V372.301H491V349.755C491 345.074 489.639 341.565 486.923 339.226C484.482 337.14 481.383 336.095 477.621 336.095C474.673 336.095 472.197 336.671 470.187 337.814C468.968 338.5 467.634 339.684 466.186 341.361V315H453.682ZM271.785 327.361C267.261 332.523 265 338.895 265 346.472C265 353.316 266.932 359.202 270.792 364.137C275.901 370.646 283.232 373.901 292.788 373.901C298.657 373.901 303.739 372.503 308.035 369.705C312.481 366.781 315.672 362.61 317.602 357.195C318.872 353.633 319.507 349.03 319.507 343.382H292.673V353.684H303.766C303.357 356.278 302.494 358.237 301.174 359.558C299.166 361.569 296.446 362.573 293.016 362.573C289.154 362.573 286.066 361.339 283.753 358.87C280.628 355.565 279.066 351.432 279.066 346.472C279.066 344.082 279.498 341.768 280.361 339.53C282.675 333.451 286.765 330.413 292.635 330.413C295.506 330.413 297.983 331.279 300.066 333.007C301.516 334.228 302.786 336.059 303.878 338.5L316.725 333.199C314.564 328.822 311.96 325.517 308.911 323.279C304.643 320.125 299.433 318.549 293.283 318.549C284.084 318.549 276.917 321.485 271.785 327.361ZM421.932 337.546C420.635 338.258 419.427 339.352 418.31 340.829V336.897H405.808V390H418.31V368.829C419.655 370.228 420.966 371.232 422.236 371.842C424.447 372.911 426.81 373.446 429.325 373.446C433.644 373.446 437.471 372.007 440.799 369.135C444.992 365.522 447.089 360.69 447.089 354.637C447.089 348.685 445.042 343.905 440.952 340.294C437.521 337.266 433.607 335.752 429.211 335.752C426.493 335.752 424.065 336.351 421.932 337.546ZM420.292 360.302C418.716 358.739 417.926 356.838 417.926 354.598C417.926 352.335 418.711 350.427 420.273 348.877C421.835 347.325 423.748 346.55 426.011 346.55C428.525 346.55 430.583 347.492 432.184 349.373C433.454 350.847 434.091 352.589 434.091 354.598C434.091 356.557 433.443 358.299 432.145 359.826C430.572 361.709 428.525 362.649 426.011 362.649C423.773 362.649 421.866 361.868 420.292 360.302ZM362.81 340.065C358.619 343.677 356.52 348.509 356.52 354.56C356.52 360.511 358.567 365.293 362.659 368.905C366.088 371.931 370.002 373.446 374.398 373.446C377.118 373.446 379.544 372.847 381.679 371.65C382.899 370.966 384.105 369.871 385.299 368.372V372.301H397.803V336.897H385.299V340.369C383.954 338.972 382.645 337.965 381.375 337.355C379.162 336.287 376.799 335.752 374.282 335.752C369.963 335.752 366.14 337.192 362.81 340.065ZM371.462 359.826C370.168 358.299 369.518 356.557 369.518 354.598C369.518 352.641 370.168 350.898 371.462 349.373C373.064 347.492 375.109 346.55 377.598 346.55C379.836 346.55 381.741 347.333 383.317 348.894C384.893 350.462 385.681 352.362 385.681 354.598C385.681 356.861 384.898 358.77 383.336 360.322C381.774 361.872 379.861 362.649 377.598 362.649C375.084 362.649 373.037 361.709 371.462 359.826ZM343.142 338.232C341.616 339.149 340.193 340.637 338.871 342.696V336.897H326.369V372.301H338.871V357.156C338.871 355.096 339.101 353.455 339.558 352.235C340.778 348.877 343.446 347.199 347.563 347.199C349.367 347.199 351.145 347.618 352.898 348.458V336.516C351.932 336.44 351.119 336.403 350.459 336.403C347.639 336.403 345.199 337.014 343.142 338.232Z" fill="white"/>
</mask>
<g mask="url(#mask1_0_202)">
<path fill-rule="evenodd" clip-rule="evenodd" d="M264.133 390.868H491.867V314.132H264.133V390.868Z" fill="#333333"/>
</g>
<mask id="mask2_0_202" style="mask-type:alpha" maskUnits="userSpaceOnUse" x="109" y="0" width="190" height="196">
<path fill-rule="evenodd" clip-rule="evenodd" d="M109 0H298.952V195.395H109V0Z" fill="white"/>
</mask>
<g mask="url(#mask2_0_202)">
<path fill-rule="evenodd" clip-rule="evenodd" d="M144.489 35.6655C167.39 12.6888 207.293 10.4041 249.061 28.7244C255.908 31.727 261.379 37.2112 264.542 44.0037L264.552 44.0249C269.066 53.3684 282.871 59.5742 293.165 49.2427C306.005 36.3525 295.592 18.2482 280.328 18.7866C280.115 18.7943 279.904 18.804 279.694 18.8155C272.414 19.2073 265.137 17.8353 258.503 14.7999C209.395 -7.65966 161.17 -4.51428 132.808 23.9427C95.6615 61.2125 102.601 131.974 149.307 192.197C150.938 194.297 153.373 195.395 155.835 195.395C157.607 195.395 159.394 194.825 160.901 193.648C164.501 190.837 165.149 185.629 162.349 182.016C120.833 128.487 113.322 66.9379 144.489 35.6655Z" fill="#009EFF"/>
</g>
<path fill-rule="evenodd" clip-rule="evenodd" d="M379.272 160.699C372.2 125.419 351.968 89.5979 322.303 59.8346C320.249 57.7737 318.133 55.7282 316.009 53.7483C313.086 51.0217 308.579 50.4833 305.352 52.8395C300.985 56.0273 300.784 62.1907 304.533 65.6757C306.585 67.5861 308.633 69.564 310.62 71.5574C338.008 99.036 356.636 131.856 363.077 163.968C369.268 194.858 363.344 221.235 346.393 238.243C331.318 253.368 308.28 259.844 281.506 256.482C259.16 253.675 235.467 244.241 213.329 229.532C206.556 225.034 202.804 217.646 200.908 209.72C199.068 202.025 191.895 195.62 185.174 195.313C174.204 194.814 164.461 201.382 164.789 213.989C164.979 221.258 169.452 229.295 183.949 232.985C194.025 235.551 201.687 241.718 203.959 243.237C234.371 263.559 266.449 274.002 295.006 274C319.82 273.998 341.983 266.111 358.074 249.966C379.064 228.907 386.592 197.203 379.272 160.699Z" fill="#009EFF"/>
<path fill-rule="evenodd" clip-rule="evenodd" d="M285.775 173.093H265.804L229.071 126.13V173.093H209.099V96.4133H229.071L265.804 143.32V96.4133H285.775V173.093ZM295.613 85.7634C251.506 41.7166 193.785 27.9445 166.691 55.0005C139.597 82.0565 153.388 139.696 197.495 183.743C241.604 227.79 299.325 241.562 326.419 214.506C353.514 187.45 339.722 129.81 295.613 85.7634Z" fill="#009EFF"/>
</svg>
