<svg xmlns="http://www.w3.org/2000/svg" width="38" height="36" viewBox="0 0 38 36" fill="none">
  <path d="M19.8169 0.055542C23.7042 1.1111 27.2535 3.80554 28.7465 7.1111C31 12.4444 30.4648 19.2222 28.0141 23.2222C25.9296 26.5278 22.7183 28.2778 19.0563 28.2222C13.338 28.1667 8.7183 23.6944 8.66197 18.0555C8.66197 12.4167 13.169 7.74999 19.0563 7.74999C20.0141 7.74999 21.3944 7.88888 22.9437 8.52776C22.9437 8.52776 21.8169 7.8611 18.9437 7.44443C10.662 6.38888 0.915487 12.5555 3.16901 26.8055C6.29577 32.2778 12.2676 36 19.0563 35.9444C29.0563 35.8889 37.2535 27.8333 37.1972 17.8889C37.1972 8.38887 29.338 0.305542 19.8169 0.055542Z" fill="url(#paint0_linear_195_222)"/>
  <path d="M26.6338 7.63882C25.2253 4.77771 22.3803 2.49993 18.8591 1.61104C18.0704 1.38882 17.2535 1.30549 16.3521 1.27771C15 1.27771 13.7042 1.44438 12.3803 1.77771C9.02815 2.74993 6.69012 4.6666 5.30984 6.1666C3.53519 8.1666 2.35209 10.2777 1.67604 12.361C1.67604 12.4166 1.6197 12.4444 1.6197 12.5277C1.56336 12.6944 1.39435 13.2222 1.39435 13.3333C1.33801 13.4166 1.33801 13.5555 1.30984 13.6388C1.2535 13.8055 1.22533 13.9722 1.16899 14.1388C1.16899 14.1944 1.16899 14.2222 1.11266 14.2777C-0.0141041 19.8055 1.84505 24.7499 2.97181 26.5833C3.2535 27.0555 3.47885 27.4166 3.7042 27.7777C1.14082 14.0833 8.49294 7.55549 16.8591 7.38882C21.2253 7.30549 25.6197 9.05549 27.7324 12.5555C27.6479 10.6666 27.5352 9.61104 26.6338 7.63882Z" fill="url(#paint1_linear_195_222)"/>
  <defs>
    <linearGradient id="paint0_linear_195_222" x1="36.4008" y1="6.21157" x2="10.1689" y2="29.6302" gradientUnits="userSpaceOnUse">
      <stop stop-color="#FF00FF"/>
      <stop offset="0.404" stop-color="#AA00FF"/>
      <stop offset="1" stop-color="#1E0A78"/>
    </linearGradient>
    <linearGradient id="paint1_linear_195_222" x1="3.65144" y1="5.76265" x2="19.5631" y2="22.14" gradientUnits="userSpaceOnUse">
      <stop offset="0.0354358" stop-color="#FF00FF"/>
      <stop offset="0.5129" stop-color="#8800CC"/>
      <stop offset="1" stop-color="#311B92"/>
    </linearGradient>
  </defs>
</svg>