<svg xmlns="http://www.w3.org/2000/svg" width="40" height="40" viewBox="0 0 40 40" fill="none">
  <path d="M36.7693 16.6193L20.0542 25.7561L2.29578 16.0239L1.46536 16.4551V23.5181L20.0755 33.7432L36.7906 24.6063V28.3637L20.0755 37.5006L2.29578 27.7683L1.46536 28.1995V29.3903L20.0755 39.6154L38.7495 29.3903V22.3273L37.9191 21.8961L20.0542 31.6283L3.40302 22.4915V18.7957L20.0542 27.871L38.7282 17.6459V10.6855L37.77 10.1927L20.0542 19.8634L4.29733 11.2193L20.0542 2.63688L33.0643 9.69996L34.2354 9.10452V8.24217L20.0542 0.522064L1.44406 10.706V11.7942L20.0542 22.0193L36.7693 12.8824V16.6193Z" fill="#FF3621"/>
</svg>