<svg xmlns="http://www.w3.org/2000/svg" width="40" height="40" viewBox="0 0 40 40" fill="none">
  <path d="M39.4107 6.56657C39.3046 6.47158 39.1697 6.42303 39.0324 6.43042C38.6345 6.48584 38.2515 6.6306 37.9078 6.85553L37.8056 6.91389C37.3659 7.1446 36.8875 7.27508 36.3998 7.29731C35.8886 7.31398 35.4694 7.34733 34.9097 7.41123C31.587 7.78077 30.1045 10.5482 28.6783 13.2266C27.9115 14.6826 27.0987 16.1941 25.9971 17.3499C25.7698 17.5902 25.5282 17.8139 25.2738 18.0195C24.1338 18.9392 22.7178 19.5977 21.5932 20.0617C20.5223 20.5063 19.3517 20.8953 18.2219 21.2954C17.1868 21.6482 16.2104 21.9844 15.3133 22.3456C14.9069 22.5096 14.5618 22.6235 14.2577 22.7457C13.4469 22.99 12.6796 23.3808 11.988 23.9016C11.6506 24.1489 11.3132 24.4212 11.0857 24.6212C10.4059 25.2168 9.80396 25.9104 9.29657 26.6829C8.85798 27.397 8.35171 28.0591 7.78603 28.6584C7.602 28.8501 7.27484 28.9362 6.79688 28.9362C6.13123 28.9051 5.46888 28.8169 4.81602 28.6723C4.09508 28.5138 3.36325 28.4209 2.62812 28.3944C2.19217 28.3659 1.75694 28.4617 1.3655 28.6723C1.07123 28.8622 0.819035 29.1202 0.626831 29.428L0.84408 29.5336C1.17717 29.7306 1.48555 29.9734 1.76165 30.256C2.05077 30.5459 2.37289 30.7943 2.72013 30.9951C2.82999 31.0398 2.93009 31.1089 3.01407 31.1979C2.92461 31.3424 2.79169 31.5286 2.65112 31.7286C1.88433 32.8206 1.43704 33.5096 1.69264 33.8847C1.81556 33.9541 1.95297 33.9876 2.09138 33.982C3.76297 33.982 4.66266 33.5096 5.7975 32.9122C6.12721 32.74 6.46205 32.5622 6.86078 32.3788C7.60376 31.9902 8.31888 31.5416 9.0001 31.0368C9.99181 30.331 11.0295 29.6086 12.0366 29.2613C12.8645 28.9867 13.727 28.8554 14.5925 28.8723C15.6845 28.899 16.7738 29.001 17.8539 29.1779C18.659 29.2891 19.4922 29.4058 20.3076 29.4558C20.6271 29.4752 20.9185 29.4864 21.2047 29.4864C21.5872 29.4864 21.9695 29.4641 22.3498 29.4197L22.4418 29.3863C23.0143 29.0029 23.2827 28.1805 23.5434 27.3858C23.6563 26.9367 23.8359 26.5106 24.075 26.1244C24.0875 26.11 24.1011 26.0969 24.1159 26.0855C24.1254 26.0774 24.1371 26.073 24.1491 26.073C24.1612 26.073 24.1729 26.0774 24.1824 26.0855V26.1077C24.0495 29.2169 22.9044 31.1896 21.7338 32.9428L20.967 33.8486C21.5445 33.8506 22.1194 33.7636 22.6744 33.5902C24.9338 32.8539 26.6387 31.2368 27.8808 28.6584C28.1853 27.9951 28.4583 27.3153 28.6987 26.6217C28.7217 26.5634 28.916 26.4578 28.8981 26.7551C28.8981 26.844 28.8981 26.9413 28.8802 27.033C28.8866 27.0948 28.8866 27.1573 28.8802 27.2191C28.8495 27.6526 28.755 28.5667 28.755 28.5667L29.4527 28.161C31.1345 27.0052 32.433 24.674 33.4144 21.0481C33.8234 19.5366 34.125 18.0362 34.3883 16.7136C34.7052 15.1243 34.9787 13.7629 35.2905 13.235C35.7813 12.4014 36.5276 11.8457 37.2535 11.29C37.3506 11.2178 37.4503 11.1455 37.5474 11.0677C38.4573 10.3731 39.3621 9.57291 39.5615 8.07808V8.1003C39.6714 6.9889 39.5487 6.71106 39.4107 6.56657Z" fill="#003545"/>
</svg>