<svg width="78" height="64" viewBox="0 0 78 64" fill="none" xmlns="http://www.w3.org/2000/svg">
  <path d="M14.1313 52.3532L16.9441 63.2252H14.8225L12.9505 55.3964L9.42252 63.206H7.62732L4.1185 55.4204L2.1985 63.206H0.120117L2.90889 52.334H4.74252L8.53934 60.7532L12.3169 52.334L14.1313 52.3532Z" fill="#003545"/>
  <path d="M24.9555 56.5532V55.2908H27.0051V63.206H24.9555V61.9244C24.4131 62.846 23.2994 63.3644 21.9458 63.3644C19.1138 63.3644 17.5347 61.3676 17.5347 59.0732C17.5347 56.8604 19.0322 55.0796 21.6434 55.0796C23.1362 55.1228 24.3699 55.622 24.9555 56.5532ZM19.733 59.2076C19.7107 59.5681 19.7651 59.9292 19.8927 60.2672C20.0202 60.6051 20.218 60.9121 20.4729 61.168C20.7279 61.4238 21.0341 61.6227 21.3716 61.7514C21.7091 61.8802 22.0701 61.9358 22.4306 61.9148C22.7844 61.9329 23.138 61.8763 23.4684 61.7486C23.7988 61.6209 24.0986 61.4249 24.3481 61.1735C24.5977 60.9222 24.7915 60.621 24.9168 60.2897C25.0421 59.9584 25.0962 59.6044 25.0755 59.2508C25.0911 58.8895 25.0304 58.529 24.8973 58.1928C24.7643 57.8566 24.5619 57.5522 24.3032 57.2995C24.0446 57.0467 23.7356 56.8514 23.3964 56.7261C23.0572 56.6008 22.6955 56.5484 22.3347 56.5724C21.9859 56.5555 21.6374 56.6124 21.3121 56.7393C20.9869 56.8663 20.692 57.0605 20.4469 57.3093C20.2018 57.558 20.012 57.8556 19.8898 58.1827C19.7676 58.5099 19.7158 58.8591 19.7379 59.2076H19.733Z" fill="#003545"/>
  <path d="M31.6224 63.2061H29.5776V55.2909H31.6224V57.0669C31.8583 56.4957 32.2572 56.0066 32.7695 55.6609C33.2817 55.3151 33.8845 55.128 34.5024 55.1229C34.9388 55.1161 35.3729 55.1876 35.784 55.3341L35.3472 56.8317C34.993 56.7377 34.6289 56.6861 34.2624 56.6781C33.9065 56.6742 33.5536 56.7436 33.2256 56.8818C32.8976 57.0201 32.6015 57.2242 32.3557 57.4817C32.11 57.7392 31.9198 58.0444 31.7969 58.3785C31.6741 58.7126 31.6212 59.0683 31.6417 59.4237L31.6224 63.2061Z" fill="#003545"/>
  <path d="M36.7885 53.1982C36.7847 53.0614 36.8078 52.9251 36.8566 52.7973C36.9055 52.6694 36.979 52.5525 37.0731 52.4531C37.1671 52.3537 37.2798 52.2738 37.4048 52.2179C37.5297 52.1621 37.6645 52.1315 37.8013 52.1277H37.8876C38.0295 52.1233 38.1709 52.1468 38.3036 52.197C38.4363 52.2471 38.5579 52.323 38.6613 52.4201C38.7647 52.5173 38.848 52.634 38.9063 52.7633C38.9647 52.8927 38.9969 53.0323 39.0013 53.1741V53.227C39.0045 53.3629 38.9807 53.4981 38.9315 53.6248C38.8822 53.7516 38.8085 53.8673 38.7143 53.9655C38.6202 54.0636 38.5077 54.1421 38.3831 54.1966C38.2585 54.2511 38.1244 54.2804 37.9885 54.2829H37.8876C37.6083 54.2946 37.3357 54.1951 37.1297 54.0062C36.9236 53.8172 36.801 53.5542 36.7885 53.2749V53.1982ZM36.8797 55.2909H38.9341V61.0894C38.9341 61.4446 39.0061 61.7037 39.3085 61.7037C39.439 61.6988 39.5689 61.6844 39.6972 61.6606L40.0141 63.1582C39.5828 63.3267 39.1235 63.4114 38.6605 63.4077C37.8013 63.4077 36.8845 63.1582 36.8845 61.2046L36.8797 55.2909Z" fill="#003545"/>
  <path d="M48.0767 56.5532V55.2908H50.131V63.206H48.0862V61.9244C47.5438 62.846 46.4303 63.3644 45.0767 63.3644C42.2447 63.3644 40.6606 61.3676 40.6606 59.0732C40.6606 56.8604 42.1583 55.0796 44.7743 55.0796C46.2575 55.1228 47.4911 55.622 48.0767 56.5532ZM42.8351 59.2076C42.8127 59.5681 42.8671 59.9292 42.9947 60.2672C43.1222 60.6051 43.32 60.9121 43.5749 61.168C43.8299 61.4238 44.1362 61.6227 44.4736 61.7514C44.8111 61.8802 45.1721 61.9358 45.5327 61.9148C45.8866 61.9329 46.2404 61.8762 46.571 61.7485C46.9017 61.6209 47.2017 61.425 47.4516 61.1737C47.7015 60.9224 47.8958 60.6213 48.0217 60.29C48.1475 59.9587 48.2023 59.6046 48.1823 59.2508C48.1972 58.8893 48.1359 58.5287 48.0023 58.1925C47.8687 57.8562 47.6658 57.5519 47.4068 57.2993C47.1478 57.0467 46.8385 56.8513 46.4991 56.7261C46.1597 56.6009 45.7977 56.5485 45.4367 56.5724C45.0879 56.5555 44.7394 56.6124 44.4142 56.7393C44.0889 56.8663 43.794 57.0605 43.5489 57.3093C43.3038 57.558 43.114 57.8556 42.9918 58.1827C42.8696 58.5099 42.8178 58.8591 42.8399 59.2076H42.8351Z" fill="#003545"/>
  <path d="M53.2704 52.3533H58.1807C62.3039 52.3533 64.368 54.6285 64.3344 57.7869C64.368 61.0701 62.0879 63.2253 58.5407 63.2253H53.2607L53.2704 52.3533ZM54.6239 53.3133V62.2701H58.3679C61.6511 62.2701 62.8992 60.0573 62.8992 57.7533C62.8992 55.1517 61.3343 53.3133 58.3679 53.3133H54.6239Z" fill="#003545"/>
  <path d="M72.7058 63.2061H66.4658V52.3533H72.0962C74.2466 52.3533 76.2962 52.7613 76.2626 55.1709C76.2626 56.8701 75.2114 57.3405 74.0978 57.5181C74.4495 57.5222 74.7965 57.5986 75.1174 57.7424C75.4384 57.8862 75.7264 58.0944 75.9635 58.3541C76.2007 58.6137 76.382 58.9193 76.4962 59.252C76.6104 59.5846 76.6551 59.9371 76.6274 60.2877C76.637 62.7261 74.4962 63.2061 72.7058 63.2061ZM72.2258 57.0765C74.381 57.0765 74.861 56.2509 74.861 55.1949C74.861 53.6157 73.901 53.2749 72.2258 53.2749H67.7522V57.1149L72.2258 57.0765ZM72.2834 57.9981H67.7522V62.2845H72.4802C73.805 62.2845 75.2066 61.8477 75.2066 60.1773C75.2066 58.2573 73.5938 57.9981 72.2834 57.9981Z" fill="#003545"/>
  <path d="M77.1076 0.556427C76.9084 0.392324 76.6551 0.308446 76.3972 0.321217C75.6499 0.416947 74.9307 0.667041 74.2852 1.05562L74.0932 1.15643C73.2676 1.555 72.3692 1.78041 71.4532 1.81881C70.4932 1.84761 69.706 1.90522 68.6548 2.01562C62.4149 2.65402 59.6308 7.43483 56.9524 12.062C55.5125 14.5772 53.9861 17.1884 51.9173 19.1852C51.4904 19.6003 51.0366 19.9868 50.5588 20.342C48.418 21.9308 45.7588 23.0684 43.6468 23.87C41.6356 24.638 39.4372 25.31 37.3156 26.0012C35.3716 26.6108 33.538 27.1916 31.8532 27.8156C31.09 28.0988 30.442 28.2956 29.8708 28.5068C28.3482 28.9288 26.9073 29.6039 25.6084 30.5036C24.9748 30.9308 24.3412 31.4012 23.914 31.7468C22.6373 32.7758 21.5069 33.974 20.554 35.3084C19.7304 36.5421 18.7796 37.6859 17.7173 38.7212C17.3717 39.0524 16.7573 39.2012 15.8597 39.2012C14.6096 39.1475 13.3657 38.995 12.1397 38.7452C10.7858 38.4715 9.41138 38.311 8.03084 38.2652C7.21212 38.216 6.39477 38.3814 5.65967 38.7452C5.10703 39.0733 4.63342 39.5191 4.27246 40.0508L4.68045 40.2332C5.30599 40.5736 5.88512 40.993 6.40363 41.4812C6.94659 41.982 7.55152 42.4111 8.20363 42.758C8.40993 42.8353 8.59793 42.9546 8.75564 43.1084C8.58764 43.358 8.33802 43.6796 8.07402 44.0252C6.63402 45.9116 5.79402 47.102 6.27402 47.75C6.50487 47.8699 6.76292 47.9278 7.02285 47.918C10.1621 47.918 11.8516 47.102 13.9828 46.07C14.602 45.7724 15.2309 45.4652 15.9797 45.1484C17.375 44.4772 18.7179 43.7022 19.9973 42.83C21.8597 41.6108 23.8085 40.3628 25.6997 39.7628C27.2545 39.2884 28.8743 39.0616 30.4997 39.0908C32.5504 39.1368 34.5961 39.3132 36.6244 39.6188C38.1364 39.8108 39.7013 40.0124 41.2325 40.0988C41.8325 40.1324 42.3797 40.1516 42.9173 40.1516C43.6356 40.1517 44.3534 40.1132 45.0676 40.0364L45.2404 39.9788C46.3156 39.3164 46.8196 37.8956 47.3092 36.5228C47.5213 35.747 47.8586 35.0109 48.3076 34.3436C48.331 34.3187 48.3566 34.2962 48.3844 34.2764C48.4022 34.2624 48.4242 34.2548 48.4468 34.2548C48.4694 34.2548 48.4914 34.2624 48.5092 34.2764V34.3148C48.2596 39.686 46.1092 43.094 43.9108 46.1228L42.4708 47.6876C43.5554 47.6911 44.6349 47.5408 45.6773 47.2412C49.9205 45.9692 53.1221 43.1756 55.4549 38.7212C56.0266 37.5754 56.5392 36.4011 56.9908 35.2028C57.034 35.102 57.3988 34.9196 57.3652 35.4332C57.3652 35.5868 57.3652 35.7548 57.3316 35.9132C57.3436 36.0201 57.3436 36.128 57.3316 36.2348C57.274 36.9836 57.0964 38.5628 57.0964 38.5628L58.4068 37.862C61.5652 35.8652 64.0036 31.838 65.8468 25.574C66.6148 22.9628 67.1812 20.3708 67.6756 18.086C68.2708 15.3404 68.7844 12.9884 69.37 12.0764C70.2916 10.6364 71.6932 9.67643 73.0564 8.71643C73.2388 8.59163 73.426 8.46682 73.6084 8.33242C75.3172 7.13242 77.0164 5.75003 77.3908 3.16763V3.20602C77.5972 1.28602 77.3668 0.806027 77.1076 0.556427Z" fill="#003545"/>
</svg>
