<?xml version="1.0" encoding="UTF-8"?>
<svg width="68px" height="68px" viewBox="0 0 68 68" version="1.1" xmlns="http://www.w3.org/2000/svg" xmlns:xlink="http://www.w3.org/1999/xlink">
    <title>GUI</title>
    <g id="Dumpster" stroke="none" stroke-width="1" fill="none" fill-rule="evenodd">
        <g id="GUI">
            <circle id="Oval-Copy-4" fill="#00B06D" cx="34" cy="34" r="34"></circle>
            <path d="M50.4999225,39.0000238 C50.9998813,39.0000238 51.4999106,38.4999945 51.4999106,38.0000415 L51.4999106,20.0000539 C51.4999106,19.5001009 50.9998813,19.0000715 50.4999225,19.0000715 L47.4999049,19.0000715 C46.9999518,19.0000715 46.4999225,19.5001009 46.4999225,20.0000539 L46.4999225,38.0000415 C46.4999225,38.4999945 46.9999518,39.0000238 47.4999049,39.0000238 L50.4999225,39.0000238 Z M52.7499076,49 C53.4405188,49 53.9999046,48.4406141 53.9999046,47.750003 L53.9999046,45.2500089 C53.9999046,44.5593978 53.4405188,44.0000119 52.7499076,44.0000119 L18.9999881,44.0000119 L18.9999881,20.2500685 C18.9999881,19.5594574 18.4406022,19.0000715 17.7499911,19.0000715 L15.249997,19.0000715 C14.5593859,19.0000715 14,19.5594574 14,20.2500685 L14,46.500006 C14,47.8804653 15.1195347,49 16.5,49 L52.7499076,49 Z M35.4999583,39.0000238 C35.999917,39.0000238 36.4999464,38.4999945 36.4999464,38.0000415 L36.4999464,22.5000479 C36.4999464,22.0000949 35.999917,21.5000656 35.4999583,21.5000656 L32.4999406,21.5000656 C31.9999876,21.5000656 31.4999583,22.0000949 31.4999583,22.5000479 L31.4999583,38.0000415 C31.4999583,38.4999945 31.9999876,39.0000238 32.4999406,39.0000238 L35.4999583,39.0000238 Z M42.9999404,39.0000238 C43.4998991,39.0000238 43.9999285,38.4999945 43.9999285,38.0000415 L43.9999285,27.500036 C43.9999285,27.000083 43.4998991,26.5000536 42.9999404,26.5000536 L39.9999228,26.5000536 C39.4999697,26.5000536 38.9999404,27.000083 38.9999404,27.500036 L38.9999404,38.0000415 C38.9999404,38.4999945 39.4999697,39.0000238 39.9999228,39.0000238 L42.9999404,39.0000238 Z M27.9999762,39.0000238 C28.4999349,39.0000238 28.9999642,38.4999945 28.9999642,38.0000417 L28.9999642,32.5000241 C28.9999642,32.000071 28.4999349,31.5000417 27.9999762,31.5000417 L24.9999585,31.5000417 C24.5000055,31.5000417 23.9999762,32.000071 23.9999762,32.5000241 L23.9999762,38.0000417 C23.9999762,38.4999945 24.5000055,39.0000238 24.9999585,39.0000238 L27.9999762,39.0000238 Z" id="c" fill="#FFFFFF" fill-rule="nonzero"></path>
        </g>
    </g>
</svg>