<?xml version="1.0" encoding="UTF-8"?>
<svg width="68px" height="68px" viewBox="0 0 68 68" version="1.1" xmlns="http://www.w3.org/2000/svg" xmlns:xlink="http://www.w3.org/1999/xlink">
    <title>Server Copy</title>
    <g id="Dumpster" stroke="none" stroke-width="1" fill="none" fill-rule="evenodd">
        <g id="Server-Copy">
            <circle id="Oval-Copy-5" fill="#00B06D" cx="34" cy="34" r="34"></circle>
            <path d="M49.9999142,41.9999428 L49.9999142,21 C49.9999142,19.3499724 48.6499418,18 46.9999213,18 L20.9999905,18 C19.3499628,18 17.9999905,19.3499724 17.9999905,21 L17.9999905,41.9999428 L49.9999142,41.9999428 Z M45.9999237,37.9999523 L21.9999809,37.9999523 L21.9999809,21.9999905 L45.9999237,21.9999905 L45.9999237,37.9999523 Z M31.3537184,34.3531104 L32.0605649,33.6462029 C32.4511889,33.2555789 32.4511889,32.6224627 32.0605649,32.2318386 L29.8280873,29.9999714 L32.0599545,27.7674938 C32.4505786,27.3768697 32.4505786,26.7437536 32.0599545,26.3531295 L31.353108,25.646222 C30.962484,25.2555979 30.3293068,25.2555979 29.9386827,25.646222 L26.2924512,29.2924535 C25.9018271,29.6830776 25.9018271,30.3161938 26.2924512,30.7068178 L29.9393541,34.3531104 C30.3299782,34.7437345 30.9630943,34.7437345 31.3537184,34.3531104 Z M38.0612219,34.3537208 L41.7074535,30.7074892 C42.0980775,30.3168652 42.0980775,29.683749 41.7074535,29.2931249 L38.0612219,25.6468324 C37.6705979,25.2562083 37.0374207,25.2562083 36.6467966,25.6468324 L35.9399501,26.3537398 C35.5493261,26.7443639 35.5493261,27.3774801 35.9399501,27.7681042 L38.1718174,29.9999714 L35.9399501,32.232449 C35.5493261,32.623073 35.5493261,33.2561892 35.9399501,33.6468133 L36.6467966,34.3537208 C37.0374207,34.7443448 37.6705979,34.7443448 38.0612219,34.3537208 Z M49.9999142,49.9999237 C52.1999211,49.9999237 53.9999046,48.1999402 53.9999046,45.999938 L53.9999046,44.999938 C53.9999046,44.4499491 53.5498935,43.999938 52.999907,43.999938 L37.8461956,43.999938 C37.799931,45.2380332 36.9268252,45.999938 35.7999358,45.999938 L31.9999571,45.999938 C30.831808,45.999938 29.9362413,44.9080779 29.9518663,43.999938 L15,43.999938 C14.4500111,43.999938 14,44.4499491 14,44.999938 L14,45.999938 C14,48.1999402 15.7999835,49.9999237 18,49.9999237 L49.9999142,49.9999237 Z" id="l" fill="#FFFFFF" fill-rule="nonzero"></path>
        </g>
    </g>
</svg>