<svg xmlns="http://www.w3.org/2000/svg" width="40" height="40" viewBox="0 0 40 40" fill="none">
  <path d="M30 10H10V30H30V10Z" fill="white"/>
  <path d="M30 39L39 30H30V39Z" fill="#EA4335"/>
  <path d="M39 10H30V30H39V10Z" fill="#FBBC04"/>
  <path d="M30 30H10V39H30V30Z" fill="#34A853"/>
  <path d="M1 30V36C1 37.6575 2.3425 39 4 39H10V30H1Z" fill="#188038"/>
  <path d="M39 10V4C39 2.3425 37.6575 1 36 1H30V10H39Z" fill="#1967D2"/>
  <path d="M30 1H4C2.3425 1 1 2.3425 1 4V30H10V10H30V1Z" fill="#4285F4"/>
  <path d="M14.5393 25.2555C13.7957 24.7576 13.281 24.0304 13 23.069L14.7258 22.364C14.8824 22.9556 15.1559 23.4141 15.5464 23.7395C15.9343 24.0649 16.4067 24.2251 16.9588 24.2251C17.5233 24.2251 18.0082 24.055 18.4135 23.7149C18.8188 23.3747 19.0227 22.9408 19.0227 22.4158C19.0227 21.8784 18.8089 21.4396 18.3812 21.0994C17.9535 20.7592 17.4163 20.5891 16.7748 20.5891H15.7776V18.8956H16.6728C17.2249 18.8956 17.6899 18.7477 18.0679 18.4519C18.4458 18.1561 18.6348 17.7518 18.6348 17.2366C18.6348 16.7781 18.4657 16.4133 18.1275 16.1397C17.7893 15.8661 17.3616 15.728 16.8419 15.728C16.3346 15.728 15.9318 15.8611 15.6334 16.1298C15.3352 16.3992 15.111 16.7394 14.9819 17.1183L13.2735 16.4133C13.4998 15.7773 13.9151 15.2153 14.5243 14.7297C15.1336 14.244 15.9119 14 16.8568 14C17.5556 14 18.1847 14.1331 18.7417 14.4018C19.2988 14.6705 19.7364 15.0427 20.0522 15.516C20.368 15.9918 20.5247 16.5242 20.5247 17.1159C20.5247 17.7198 20.378 18.2301 20.0845 18.6491C19.7911 19.0682 19.4306 19.3887 19.0028 19.613V19.714C19.5551 19.9398 20.0348 20.3105 20.3904 20.7863C20.751 21.267 20.9325 21.8414 20.9325 22.5119C20.9325 23.1824 20.7609 23.7814 20.4178 24.3065C20.0746 24.8315 19.5996 25.2457 18.9979 25.5464C18.3936 25.8471 17.7147 26 16.9613 26C16.0885 26.0024 15.2828 25.7535 14.5393 25.2555ZM25.14 16.7658L23.2451 18.1241L22.2977 16.6993L25.697 14.2687H27V25.7338H25.14V16.7658Z" fill="#4285F4"/>
</svg>