<?xml version="1.0" encoding="UTF-8"?>
<svg width="248px" height="246px" viewBox="0 0 248 246" version="1.1" xmlns="http://www.w3.org/2000/svg" xmlns:xlink="http://www.w3.org/1999/xlink">
    <!-- Generator: Sketch 49.3 (51167) - http://www.bohemiancoding.com/sketch -->
    <title>Group 29</title>
    <desc>Created with Sketch.</desc>
    <defs>
        <rect id="path-1" x="0" y="0" width="248" height="246"></rect>
    </defs>
    <g id="Home" stroke="none" stroke-width="1" fill="none" fill-rule="evenodd">
        <g id="Style-Guide---Homepage" transform="translate(-180.000000, -2007.000000)">
            <g id="Group-29" transform="translate(180.000000, 2007.000000)">
                <g id="Rectangle-3">
                    <use fill="#FFFFFF" fill-rule="evenodd" xlink:href="#path-1"></use>
                    <rect stroke="#CBD6E2" stroke-width="1.5" x="0.75" y="0.75" width="246.5" height="244.5"></rect>
                </g>
                <g id="--Marketing/Logos/Sprocket" transform="translate(53.000000, 49.000000)" fill="#FF7A59">
                    <path d="M103.798521,106.777299 C92.7306793,106.777299 83.7587284,97.8985374 83.7587284,86.9475573 C83.7587284,75.9946743 92.7306793,67.1159127 103.798521,67.1159127 C114.866363,67.1159127 123.838313,75.9946743 123.838313,86.9475573 C123.838313,97.8985374 114.866363,106.777299 103.798521,106.777299 M109.797768,48.7685016 L109.797768,31.127053 C114.45103,28.9520799 117.710236,24.2938697 117.710236,18.8878342 L117.710236,18.4806214 C117.710236,11.0194931 111.54178,4.91510664 104.002342,4.91510664 L103.592778,4.91510664 C96.0533392,4.91510664 89.8848826,11.0194931 89.8848826,18.4806214 L89.8848826,18.8878342 C89.8848826,24.2938697 93.1440889,28.9539828 97.797351,31.1289559 L97.797351,48.7685016 C90.8693744,49.8283967 84.5393996,52.656052 79.318901,56.8176147 L30.373121,19.1390122 C30.6961574,17.9116652 30.923052,16.6481637 30.9249748,15.3199649 C30.9326662,6.87125044 24.0219951,0.0114270942 15.4807594,9.91250375e-06 C6.94336934,-0.0095044056 0.00962419728,6.83129031 1.00193251e-05,15.2819076 C-0.00960415863,23.732525 6.90106696,30.5923483 15.4423027,30.6018626 C18.2246458,30.6056684 20.8012454,29.8235914 23.0586544,28.5524785 L71.2045348,65.618359 C67.1108178,71.7341627 64.711119,79.0601876 64.711119,86.9475573 C64.711119,95.2040825 67.3473266,102.842177 71.8006138,109.12353 L57.1601437,123.613836 C56.0025966,123.269418 54.8027472,123.029657 53.5298301,123.029657 C46.513403,123.029657 40.8237325,128.658328 40.8237325,135.601877 C40.8237325,142.547329 46.513403,148.176 53.5298301,148.176 C60.54818,148.176 66.2359276,142.547329 66.2359276,135.601877 C66.2359276,134.345987 65.9936504,133.156697 65.6456171,132.011174 L80.1284148,117.678805 C86.7025897,122.643376 94.8900236,125.627066 103.798521,125.627066 C125.386196,125.627066 142.884,108.309104 142.884,86.9475573 C142.884,67.6087543 128.528109,51.6323114 109.797768,48.7685016" id="Marketing/Logos/Sprocket"></path>
                </g>
            </g>
        </g>
    </g>
</svg>