<svg xmlns="http://www.w3.org/2000/svg" width="40" height="40" viewBox="0 0 40 40" fill="none">
  <path d="M12.721 16.5957H7.83727L5.09308 21.459L2.3489 16.5957H1.02332L5.09308 23.7859L8.51169 17.7359H12.721V16.5957Z" fill="black"/>
  <path d="M12.7209 20.6445V19.4811H7.86047V23.4601H12.7209V22.3199H9.00001V20.6445H12.7209Z" fill="black"/>
  <path d="M25.8837 16.5957H24.7441V23.4602H25.8837V16.5957Z" fill="black"/>
  <path d="M24.3024 16.5957H18.4884V16.619C18.8372 16.8982 19.1163 17.2938 19.2791 17.7359H20.8372V23.4602H21.9768V17.7359H24.3256L24.3024 16.5957Z" fill="black"/>
  <path d="M18.2093 23.4602H19.3488L17.6744 20.3653C18.3953 20.0861 18.907 19.3648 18.907 18.5503C18.907 17.4567 18.0232 16.5957 16.9535 16.5957H14.3721H13.6046H13.2325V23.4602H14.3721V20.5282H16.6279L18.2093 23.4602ZM14.3488 17.7359H16.9302C17.3953 17.7359 17.7442 18.1082 17.7442 18.5503C17.7442 19.0157 17.3721 19.3648 16.9302 19.3648H14.3488V17.7359Z" fill="black"/>
  <path d="M34.6977 16.3397L31.7675 21.2263C31.3489 21.9011 30.6047 22.3665 29.7675 22.3665C28.4652 22.3665 27.4186 21.3194 27.4186 20.0163C27.4186 18.7132 28.4652 17.6661 29.7675 17.6661C30.5582 17.6661 31.2559 18.0617 31.6977 18.6667L32.3024 17.6428C31.6745 16.968 30.7675 16.5259 29.7675 16.5259C27.8373 16.5259 26.3024 18.0849 26.3024 19.993C26.3024 21.9011 27.8605 23.4601 29.7675 23.4601C31.0233 23.4601 32.1396 22.7853 32.7442 21.7847L34.6977 18.527L37.6512 23.4601L38.9768 23.4369L34.6977 16.3397Z" fill="black"/>
</svg>