<svg xmlns="http://www.w3.org/2000/svg" width="40" height="40" viewBox="0 0 40 40" fill="none">
  <path fill-rule="evenodd" clip-rule="evenodd" d="M35.9307 30.1371C33.8099 30.0865 32.1655 30.3013 30.7862 30.8953C30.372 31.0596 29.7548 31.0596 29.7009 31.5735C29.9122 31.7883 29.937 32.138 30.1151 32.437C30.4775 33.0645 30.9442 33.6233 31.4945 34.0883C32.0537 34.5096 32.6087 34.9519 33.1927 35.3521C34.2241 36.0008 35.3922 36.3799 36.3987 37.037C36.9869 37.4161 37.5668 37.8795 38.1509 38.3007C38.4408 38.5156 38.6272 38.8694 39 39V38.92C38.8136 38.6756 38.7598 38.326 38.5858 38.0522C38.3248 37.7868 38.0556 37.5383 37.7905 37.2729C37.016 36.2231 36.0869 35.3009 35.036 34.5391C34.2076 33.9451 32.327 33.1321 31.9832 32.1338L31.9294 32.079C32.5507 31.994 33.1634 31.853 33.7602 31.6577C34.6632 31.4134 35.4833 31.4682 36.4112 31.2365C36.8254 31.127 37.2396 30.9922 37.6869 30.8574V30.6131C37.2065 30.1286 36.8585 29.4757 36.3615 29.0166C34.989 27.7949 33.5252 26.6837 31.9832 25.693C31.1548 25.1495 30.1027 24.7999 29.2246 24.3408C28.9098 24.1765 28.3962 24.0964 28.1932 23.8269C27.7572 23.1738 27.392 22.4746 27.1038 21.7417C26.3375 20.2589 25.5919 18.6077 24.9292 17.0364C24.4529 15.9833 24.1629 14.9302 23.5789 13.9571C20.8451 9.35718 17.8752 6.57698 13.3147 3.84733C12.333 3.27865 11.1691 3.03433 9.92228 2.73946C9.25954 2.70997 8.5968 2.65942 7.93406 2.62993C7.51984 2.44037 7.08492 1.92645 6.69142 1.68213C5.17954 0.709063 1.2818 -1.39714 0.167569 1.38727C-0.549018 3.14385 1.22795 4.87516 1.82442 5.76819C2.33675 6.39846 2.7889 7.07692 3.17475 7.79436C3.36115 8.25352 3.41499 8.74216 3.58896 9.22659C3.97562 10.463 4.43626 11.6742 4.96829 12.8535C5.24971 13.4406 5.57659 14.004 5.94583 14.5385C6.16122 14.8375 6.52988 14.9597 6.60858 15.461C6.23993 16.0002 6.19436 16.8132 5.99968 17.4872C5.04699 20.5454 5.41564 24.3281 6.77012 26.5733C7.18433 27.2515 8.19915 28.7385 9.55363 28.1699C10.7466 27.6812 10.4815 26.1395 10.8253 24.7999C10.904 24.4714 10.8501 24.2565 11.0117 24.0417V24.0248C11.3803 24.7789 11.7531 25.5076 12.0969 26.2658C13.0438 27.6578 14.2095 28.8817 15.5473 29.8885C16.181 30.3772 16.6864 31.2154 17.4817 31.5145V31.4303H17.4278C17.2497 31.2234 17.0449 31.042 16.8189 30.8911C16.3179 30.3882 15.8567 29.8459 15.4396 29.2693C14.317 27.716 13.3236 26.0702 12.4697 24.3492C12.0555 23.5067 11.6744 22.5884 11.3306 21.7501C11.1691 21.4258 11.1691 20.9413 10.9164 20.7771C10.5022 21.371 9.93885 21.8849 9.64476 22.6137C9.13942 23.7805 9.08971 25.2127 8.90331 26.6997C8.79562 26.7292 8.84947 26.6997 8.79562 26.7545C7.96719 26.5354 7.65653 25.6466 7.33759 24.8884C6.5423 22.9675 6.40976 19.884 7.10149 17.6683C7.28374 17.0996 8.08317 15.3178 7.76423 14.7744C7.60268 14.2604 7.07249 13.9656 6.78254 13.557C6.41185 13.0111 6.09155 12.4315 5.82571 11.8257C5.19197 10.3134 4.86888 8.63685 4.16886 7.12459C3.78935 6.39056 3.34574 5.6927 2.84339 5.03944C2.33805 4.31069 1.783 3.79677 1.38536 2.93322C1.25281 2.63414 1.06641 2.1455 1.27766 1.82535C1.29209 1.73254 1.33662 1.6473 1.40416 1.58319C1.47171 1.51907 1.55841 1.47976 1.65045 1.47151C1.99425 1.17243 2.97593 1.55155 3.3073 1.71584C4.22816 2.06697 5.10871 2.51895 5.93341 3.06381C6.3062 3.33762 6.70384 3.85153 7.17605 3.98633H7.73523C8.56366 4.17589 9.53706 4.0411 10.3323 4.28542C11.6765 4.74225 12.9594 5.3677 14.1514 6.14731C17.6703 8.4367 20.529 11.6346 22.4356 15.4146C22.7546 16.0339 22.8871 16.6025 23.1812 17.2513C23.7363 18.5782 24.4239 19.9304 24.983 21.2278C25.4691 22.5065 26.1017 23.7224 26.8677 24.8505C27.2612 25.4191 28.8559 25.714 29.5725 26.0131C30.194 26.2334 30.8037 26.4864 31.3992 26.7713C32.3022 27.3358 33.201 27.9845 34.0502 28.608C34.4644 28.9323 35.8023 29.6105 35.881 30.1497" fill="#00758F"/>
  <path fill-rule="evenodd" clip-rule="evenodd" d="M9.02147 7.00005C8.67688 6.99818 8.33354 7.0521 8 7.16049V7.2237H8.05049C8.28967 7.67455 8.55583 8.10203 8.84669 8.50245C9.04477 8.98866 9.23508 9.4992 9.41763 10L9.46812 9.93679C9.65328 9.7528 9.7984 9.51333 9.89005 9.24053C9.9817 8.96772 10.0169 8.67039 9.99245 8.37603C9.88259 8.16475 9.78273 7.94558 9.69339 7.71965C9.5458 7.40847 9.21955 7.23343 9.02147 7.00005" fill="#00758F"/>
</svg>