<svg xmlns="http://www.w3.org/2000/svg" width="40" height="40" viewBox="0 0 40 40" fill="none">
  <g clip-path="url(#clip0_173_183)">
    <path fill-rule="evenodd" clip-rule="evenodd" d="M12.9594 23.8162C14.036 23.8162 16.1776 23.7572 19.1379 22.5384C22.5876 21.1181 29.4508 18.5398 34.4019 15.8915C37.8645 14.0392 39.3823 11.5895 39.3823 8.29045C39.3823 3.71179 35.6706 0 31.092 0H11.9081C5.33143 0 0 5.33143 0 11.9081C0 18.4848 4.99179 23.8162 12.9594 23.8162Z" fill="#39594D"/>
    <path fill-rule="evenodd" clip-rule="evenodd" d="M16.2035 32.0167C16.2035 28.7929 18.1442 25.8863 21.1217 24.6505L27.1632 22.1432C33.274 19.6071 40.0001 24.0978 40.0001 30.7143C40.0001 35.8402 35.8439 39.9952 30.7178 39.9938L24.1768 39.9922C19.7729 39.991 16.2035 36.4207 16.2035 32.0167Z" fill="#D18EE2"/>
    <path d="M6.86468 25.3861C3.07348 25.3861 0 28.4593 0 32.2506V33.1398C0 36.9308 3.07336 40.0042 6.86456 40.0042C10.6558 40.0042 13.7292 36.9308 13.7292 33.1398V32.2506C13.7292 28.4593 10.6559 25.3861 6.86468 25.3861Z" fill="#FF7759"/>
  </g>
  <defs>
    <clipPath id="clip0_173_183">
      <rect width="40" height="40" fill="white"/>
    </clipPath>
  </defs>
</svg>