<svg xmlns="http://www.w3.org/2000/svg" width="40" height="34" viewBox="0 0 40 34" fill="none">
  <path d="M35.6906 26.5163C35.5978 26.4239 35.5049 26.3315 35.3193 26.3315H29.8414C29.6558 26.3315 29.5629 26.2392 29.4701 26.1468L20.0928 10.1631C20.0928 10.0707 19.9999 10.0707 19.9071 10.0707C19.9071 10.0707 19.8142 10.0707 19.8142 10.1631L10.437 26.0544C10.3441 26.1468 10.2513 26.2392 10.0656 26.2392H4.58777C4.40208 26.2392 4.30923 26.3315 4.21639 26.4239L2.91657 28.5489C2.82372 28.6413 2.91657 28.6413 2.91657 28.7337H3.00941H11.4583C11.6439 28.7337 11.7368 28.6413 11.8296 28.5489L19.8142 15.1522C19.8142 15.0598 19.9071 15.0598 19.9999 15.0598C19.9999 15.0598 20.0928 15.0598 20.0928 15.1522L27.9846 28.5489C28.0774 28.6413 28.1702 28.7337 28.3559 28.7337H36.7119C36.8976 28.7337 36.8976 28.6413 36.8048 28.5489L35.6906 26.5163Z" fill="#238FFB"/>
  <path d="M39.9615 33.7228C40.0544 33.8152 39.9615 33.9076 39.8687 33.9076H25.4778C25.2921 33.9076 25.1993 33.8152 25.1064 33.7228L20.0928 25.3152C20.0928 25.2229 20 25.2229 19.9072 25.2229C19.9072 25.2229 19.8143 25.2229 19.8143 25.3152L14.8007 33.8152C14.7079 33.9076 14.615 34 14.4293 34H0.131302C0.0384577 34 -0.0543871 33.9076 0.0384573 33.8152L1.33828 31.6902C1.43112 31.5979 1.52397 31.5055 1.70966 31.5055H13.1295C13.3152 31.5055 13.408 31.4131 13.5009 31.3207L20 20.4185C20 20.3261 20.0928 20.3261 20.1857 20.3261C20.1857 20.3261 20.2785 20.3261 20.2785 20.4185L26.7776 31.3207C26.8705 31.4131 26.9633 31.5055 27.149 31.5055H38.476C38.6617 31.5055 38.7546 31.5979 38.8474 31.6902L39.9615 33.7228Z" fill="#2549C9"/>
  <path d="M20.0928 30.3044C20.0928 30.212 20 30.212 19.9071 30.212C19.9071 30.212 19.8143 30.212 19.8143 30.3044L17.7717 33.7228C17.6789 33.8152 17.7717 33.9076 17.8645 33.9076H21.9497C22.1354 33.9076 22.1354 33.8152 22.0425 33.7228L20.0928 30.3044Z" fill="#2549C9"/>
  <path d="M19.9072 0.0923899C19.9072 -1.41116e-06 20 0 20.0928 0C20.0928 0 20.1857 -1.41116e-06 20.1857 0.0923899L34.0195 23.4674C34.1123 23.5598 34.0195 23.6522 33.9267 23.6522H31.4199C31.2342 23.6522 31.1413 23.5598 31.0485 23.4674L20.0928 5.17391C20.0928 5.08152 20 5.08152 19.9072 5.08152L19.8143 5.17391L9.04436 23.5598C8.95151 23.6522 8.85867 23.7446 8.67298 23.7446H6.16618C6.07334 23.7446 5.98049 23.6522 6.07334 23.5598L19.9072 0.0923899Z" fill="#86C1FD"/>
</svg>