<svg xmlns="http://www.w3.org/2000/svg" width="40" height="40" viewBox="0 0 40 40" fill="none">
  <path fill-rule="evenodd" clip-rule="evenodd" d="M4.57042 1.46205C10.5921 4.50176 16.4405 7.64977 22.2311 10.8483V13.5198L24.9314 12.3429C28.2888 14.2057 31.6318 16.083 34.9748 17.9602C37.1553 19.1444 37.0975 20.5595 34.9748 21.7509C25.0686 27.5343 15.1553 33.2599 5.24912 38.4296C4.07944 39.0866 2.96753 39.0361 2.96753 37.296C2.96753 25.5704 2.96753 13.8447 2.96753 2.11909C2.97475 0.841111 3.89172 1.09382 4.57042 1.46205Z" fill="#0B5EA0"/>
  <path fill-rule="evenodd" clip-rule="evenodd" d="M7.78342 5.9458H22.2311V13.5198L25.2491 12.2129L28.2672 13.5198V5.9458H31.4946C32.0433 5.9458 32.3827 6.42234 32.3827 6.92053V23.2743C24.1805 28.0469 15.9856 32.7545 7.78342 37.101V5.9458Z" fill="#3FDCFF"/>
  <path fill-rule="evenodd" clip-rule="evenodd" d="M13.1553 34.1913V5.9458H7.7762V37.101C9.57403 36.1407 11.3646 35.1732 13.1553 34.1913Z" fill="#009AF0"/>
</svg>