<svg xmlns="http://www.w3.org/2000/svg" width="40" height="40" viewBox="0 0 40 40" fill="none">
  <path d="M27.9004 15.9255H38.2325C39.2086 15.9255 39.9999 16.7152 39.9999 17.6894V27.0816C39.9999 30.6619 37.0916 33.5643 33.5041 33.5643H33.4734C29.8858 33.5648 26.9771 30.6628 26.9766 27.0825C26.9766 27.0822 26.9766 27.0819 26.9766 27.0815V16.8473C26.9766 16.3382 27.3902 15.9255 27.9004 15.9255Z" fill="#5059C9"/>
  <path d="M34.8837 14.0686C37.1956 14.0686 39.0697 12.1982 39.0697 9.89099C39.0697 7.58376 37.1956 5.71338 34.8837 5.71338C32.5718 5.71338 30.6976 7.58376 30.6976 9.89099C30.6976 12.1982 32.5718 14.0686 34.8837 14.0686Z" fill="#5059C9"/>
  <path d="M21.8604 14.0687C25.1998 14.0687 27.9069 11.367 27.9069 8.03434C27.9069 4.70166 25.1998 2 21.8604 2C18.521 2 15.8139 4.70166 15.8139 8.03434C15.8139 11.367 18.521 14.0687 21.8604 14.0687Z" fill="#7B83EB"/>
  <path d="M29.9229 15.9255H12.868C11.9035 15.9493 11.1405 16.7481 11.1629 17.7107V28.423C11.0282 34.1995 15.6075 38.9931 21.3954 39.1344C27.1834 38.9931 31.7627 34.1995 31.628 28.423V17.7107C31.6503 16.7481 30.8874 15.9493 29.9229 15.9255Z" fill="#7B83EB"/>
  <path opacity="0.1" d="M22.3257 15.9255V30.937C22.3211 31.6254 21.9031 32.2438 21.2652 32.506C21.0622 32.5917 20.8439 32.6359 20.6234 32.6359H11.9815C11.8606 32.3296 11.749 32.0232 11.6559 31.7076C11.3303 30.6423 11.1642 29.5349 11.1629 28.4212V17.7079C11.1405 16.7469 11.9023 15.9493 12.8652 15.9255H22.3257Z" fill="black"/>
  <path opacity="0.2" d="M21.3955 15.9255V31.8654C21.3954 32.0854 21.3511 32.3033 21.2652 32.506C21.0026 33.1425 20.3829 33.5597 19.6932 33.5643H12.4187C12.2606 33.2579 12.1117 32.9516 11.9815 32.6359C11.8513 32.3203 11.749 32.0232 11.6559 31.7076C11.3303 30.6423 11.1642 29.5349 11.1629 28.4212V17.7079C11.1405 16.7469 11.9023 15.9493 12.8652 15.9255H21.3955Z" fill="black"/>
  <path opacity="0.2" d="M21.3955 15.9255V30.0087C21.3884 30.944 20.6304 31.7005 19.6931 31.7076H11.6559C11.3303 30.6423 11.1642 29.5349 11.1629 28.4212V17.7079C11.1405 16.7469 11.9023 15.9493 12.8652 15.9255H21.3955Z" fill="black"/>
  <path opacity="0.2" d="M20.4652 15.9255V30.0087C20.4581 30.944 19.7001 31.7005 18.7629 31.7076H11.6559C11.3303 30.6423 11.1642 29.5349 11.1629 28.4212V17.7079C11.1405 16.7469 11.9023 15.9493 12.8652 15.9255H20.4652Z" fill="black"/>
  <path opacity="0.1" d="M22.3256 11.1256V14.05C22.1675 14.0592 22.0187 14.0685 21.8605 14.0685C21.7024 14.0685 21.5535 14.0593 21.3954 14.05C21.0814 14.0292 20.77 13.9795 20.4652 13.9014C18.5814 13.4562 17.0252 12.1378 16.2791 10.3551C16.1508 10.0557 16.0511 9.74488 15.9814 9.42676H20.6233C21.562 9.4303 22.3221 10.1888 22.3256 11.1256Z" fill="black"/>
  <path opacity="0.2" d="M21.3953 12.054V14.05C21.0813 14.0292 20.7699 13.9794 20.465 13.9014C18.5813 13.4562 17.0251 12.1378 16.279 10.3551H19.6929C20.6316 10.3586 21.3917 11.1172 21.3953 12.054Z" fill="black"/>
  <path opacity="0.2" d="M21.3953 12.054V14.05C21.0813 14.0292 20.7699 13.9794 20.465 13.9014C18.5813 13.4562 17.0251 12.1378 16.279 10.3551H19.6929C20.6316 10.3586 21.3917 11.1172 21.3953 12.054Z" fill="black"/>
  <path opacity="0.2" d="M20.465 12.054V13.9014C18.5813 13.4562 17.0251 12.1378 16.279 10.3551H18.7627C19.7014 10.3587 20.4615 11.1172 20.465 12.054Z" fill="black"/>
  <path d="M1.70511 10.3551H18.76C19.7017 10.3551 20.4651 11.117 20.4651 12.0568V29.0773C20.4651 30.0171 19.7017 30.779 18.76 30.779H1.70511C0.763395 30.779 0 30.0171 0 29.0773V12.0568C0 11.117 0.763413 10.3551 1.70511 10.3551Z" fill="url(#paint0_linear_155_1165)"/>
  <path d="M14.7201 16.8332H11.3108V26.0982H9.13873V16.8332H5.74524V15.0359H14.7201V16.8332Z" fill="white"/>
  <defs>
    <linearGradient id="paint0_linear_155_1165" x1="3.55521" y1="9.02544" x2="16.8696" y2="32.1319" gradientUnits="userSpaceOnUse">
      <stop stop-color="#5A62C3"/>
      <stop offset="0.5" stop-color="#4D55BD"/>
      <stop offset="1" stop-color="#3940AB"/>
    </linearGradient>
  </defs>
</svg>