<svg xmlns="http://www.w3.org/2000/svg" width="40" height="40" viewBox="0 0 40 40" fill="none">
  <path fill-rule="evenodd" clip-rule="evenodd" d="M29.7375 36.5524L28.9546 14.969L27.5369 9.27872L37.0001 10.2805V36.389L31.2194 39.7253L29.7375 36.5524Z" fill="#24386C"/>
  <path fill-rule="evenodd" clip-rule="evenodd" d="M36.9994 10.279L31.2187 13.6176L19.2894 11.0008L5.32635 16.686L3 10.279L11.4985 5.3716L19.9995 0.464188L28.4982 5.3716L36.9994 10.279Z" fill="#7589BE"/>
  <path fill-rule="evenodd" clip-rule="evenodd" d="M3.00043 10.279L8.78113 13.6176L12.1321 23.5834L23.4464 32.6362L20.0002 39.7235L11.4991 34.8158L3.00043 29.9084V10.279Z" fill="#B2BFE8"/>
  <path fill-rule="evenodd" clip-rule="evenodd" d="M23.8325 27.3996L20.0001 33.0494V39.724L25.4382 36.5864L28.2402 32.4023" fill="#24386C"/>
  <path fill-rule="evenodd" clip-rule="evenodd" d="M20.0025 26.3769L14.5621 16.9575L15.7339 13.8355L20.1887 11.6757L25.4382 16.9576L20.0025 26.3769Z" fill="#7589BE"/>
  <path fill-rule="evenodd" clip-rule="evenodd" d="M14.5621 16.9567L20.0001 20.0943V26.3748L14.9706 26.5912L11.9283 22.7065L14.5621 16.9567Z" fill="#B2BFE8"/>
  <path fill-rule="evenodd" clip-rule="evenodd" d="M20.0001 20.0938L25.4382 16.9565L29.1392 23.1189L24.6605 26.8195L20.0001 26.3745V20.0938Z" fill="#24386C"/>
  <path fill-rule="evenodd" clip-rule="evenodd" d="M25.4382 36.5859L31.2189 39.7238V13.6179L25.6083 10.3797L20.0002 7.14162L14.3895 10.3797L8.78137 13.6179V26.5727L14.3895 29.8108L20.0002 33.0492L25.4382 29.9087V36.5859ZM25.4382 23.2341L20.0002 26.3743L14.5621 23.2341V16.9562L20.0002 13.816L25.4382 16.9562V23.2341Z" fill="#DC244C"/>
</svg>