<svg xmlns="http://www.w3.org/2000/svg" width="38" height="33" viewBox="0 0 38 33" fill="none">
  <path d="M26.4375 21.1983C23.6697 20.7881 20.9326 20.3464 18.1647 19.9362C18.1647 19.8416 18.1647 19.7469 18.1647 19.6523C20.1329 19.3683 22.1012 19.0528 24.1002 18.7688C24.1002 18.6426 24.1002 18.4848 24.1002 18.3586C21.4861 17.8854 18.8413 17.3805 16.2272 16.9073C16.2272 16.8442 16.2272 16.7811 16.2272 16.7495C18.1954 16.4971 20.1637 16.2447 22.132 16.0238C19.7947 14.888 17.2113 14.6671 14.2897 13.973C16.627 13.3735 18.626 13.5628 20.7173 13.1526C18.0417 12.0168 15.2123 11.859 12.5982 10.8493C15.7044 10.8493 18.8105 10.8809 21.9167 10.8493C22.624 10.8493 22.87 11.3226 23.1776 11.7959C24.2232 13.4366 25.2996 15.1088 26.4375 16.9073C27.5139 15.235 28.5595 13.7205 29.4822 12.1114C30.0357 11.1333 30.7123 10.7862 31.8195 10.8493C33.3264 10.944 34.8641 10.8809 36.5248 10.8809C36.1865 11.9221 35.5099 12.6162 34.9564 13.405C33.3572 15.7714 31.7887 18.1378 30.128 20.4411C29.6359 21.1352 29.6667 21.5138 30.1895 22.1764C32.3115 24.9529 34.3413 27.7926 36.4018 30.6322C36.6478 30.9793 37.0784 31.2633 37.0784 31.9259C35.2331 31.9259 33.4187 31.8943 31.6042 31.9574C30.8968 31.989 30.6201 31.5472 30.3125 31.074C29.0824 29.244 27.8214 27.414 26.4683 25.4262C25.1766 27.3193 23.9464 29.0547 22.8085 30.8531C22.2857 31.705 21.6706 31.989 20.6865 31.9574C17.8879 31.8943 15.0585 31.9259 12.1984 31.7365C14.9663 31.1055 17.7341 30.4745 20.4712 29.8434C20.4712 29.7488 20.4712 29.6857 20.4712 29.591C18.8105 29.4333 17.1498 29.3071 15.5199 29.1493C17.6419 27.6979 20.1945 27.8241 22.9316 26.8776C20.3175 26.5936 18.1647 26.3728 16.0119 26.1203C16.0119 26.0572 15.9812 25.9626 15.9812 25.8995C18.8413 25.3631 21.7322 24.8267 24.5923 24.2904C24.5923 24.1957 24.5615 24.1326 24.5615 24.0379C22.4087 23.7224 20.2867 23.4069 18.1339 23.0914C18.1339 22.9967 18.1339 22.9021 18.1339 22.8074C20.9018 22.3973 23.7004 21.9555 26.4683 21.5454C26.4683 21.4192 26.4375 21.3245 26.4375 21.1983Z" fill="#0F3BBB"/>
  <path d="M10.63 13.2788C10.5377 14.1938 10.2302 15.2666 9.83036 16.3393C8.44643 20.0624 7.03175 23.8171 5.64782 27.5402C5.46329 28.0134 5.06349 28.5814 5.64782 28.9284C6.13988 29.2755 6.63194 28.8022 7.00099 28.4867C8.07738 27.6664 8.84623 26.5305 9.67659 25.4893C9.89187 25.2369 9.98413 24.7005 10.4454 24.9529C10.9067 25.2053 10.5685 25.584 10.3839 25.8679C9.06151 28.1081 7.58532 30.2536 5.27878 31.5472C3.98711 32.2729 2.60318 32.8093 1.25 31.7365C-0.0724163 30.6638 -0.0109083 29.1809 0.481155 27.7295C1.92659 23.6909 3.46429 19.6838 4.90972 15.6136C5.125 14.9826 5.89386 14.1623 5.12501 13.6574C4.44842 13.2157 3.80258 14.0045 3.34127 14.5093C2.51091 15.3612 1.80357 16.3393 1.03472 17.2228C0.850199 17.4436 0.696433 17.8538 0.327385 17.6329C-0.0724163 17.4121 0.173615 17.0966 0.327385 16.8442C1.61905 14.6986 2.97223 12.6478 5.12501 11.2595C6.04763 10.66 7.03175 10.313 8.16965 10.3445C9.79961 10.4707 10.63 11.3226 10.63 13.2788Z" fill="#FC2B19"/>
  <path d="M9.8611 0.973694C7.95436 0.973694 6.41666 2.55128 6.41666 4.50748C6.41666 6.46368 7.95436 8.04126 9.8611 8.04126C11.7679 8.04126 13.3055 6.46368 13.3055 4.50748C13.3055 2.55128 11.7679 0.973694 9.8611 0.973694Z" fill="#FC2B19"/>
</svg>