<svg xmlns="http://www.w3.org/2000/svg" width="40" height="40" viewBox="0 0 40 40" fill="none">
  <g clip-path="url(#clip0_146_633)">
    <path d="M20.0533 40C20.1233 39.7622 20.17 39.6195 20.2166 39.4768C20.31 39.0488 20.24 38.7158 19.7266 38.5969C19.4233 38.5256 19.1199 38.4542 18.9099 38.1451C19.0033 37.9073 19.1899 38.0024 19.3533 37.9786C19.6566 37.9548 20.03 38.0262 20.1233 37.5743C20.2166 37.1463 20.0766 36.8133 19.7033 36.5755C19.4233 36.409 19.1433 36.2663 18.9566 35.981C18.8399 35.7907 18.6766 35.5529 18.8633 35.3389C19.0966 35.1011 19.2833 35.3627 19.4466 35.4816C19.4933 35.5291 19.5399 35.5767 19.5866 35.6243C19.8666 35.7907 19.96 36.3377 20.4266 36.1237C20.8933 35.9096 21.29 35.1249 21.1967 34.6254C20.9867 33.3413 20.7767 32.0333 20.9633 30.7015C21.1267 29.5363 21.5 28.4661 22.1534 27.5386C22.9467 26.3971 22.9934 25.2794 22.2467 24.1141C22.2234 24.0666 22.2 23.9952 22.1534 23.9477C20.7067 21.8312 20.8933 19.7146 22.0834 17.5743C22.8767 16.1474 23.8334 14.8395 25.0001 13.698C25.3968 13.2937 25.6302 12.8656 25.7002 12.3187C26.3769 8.01427 25.8635 3.94768 23.4834 0.237812C23.4368 0.166468 23.4134 0.0951249 23.4368 0C24.2535 0.713436 24.9301 1.56956 25.5135 2.47325C27.7769 5.99287 28.4769 9.82164 27.8002 13.9596C27.7302 14.3876 27.5436 14.6968 27.2169 14.9822C26.0035 16.1237 24.9068 17.3841 24.0901 18.8585C23.6701 19.6195 23.3668 20.4281 23.3201 21.308C23.2967 21.5696 23.2267 21.9263 23.5301 22.0452C23.8568 22.1879 24.0901 21.9501 24.3001 21.736C25.1868 20.8799 25.9335 19.9524 26.6335 18.9298C27.0536 18.3353 27.4736 17.7408 27.8936 17.1463C27.9869 17.0273 28.0569 16.8847 28.2903 16.8847C28.4769 17.8597 28.3603 18.8347 28.1969 19.786C27.9403 21.1653 27.3569 22.3543 26.1669 23.1629C25.7702 23.4245 25.4435 23.7574 25.1868 24.1617C24.6035 25.0416 24.7201 25.7313 25.5368 26.3496C25.8168 26.5636 25.8402 26.6825 25.5135 26.8965C24.7901 27.3722 24.3935 28.1332 24.3235 28.9655C24.0434 31.962 23.7168 34.9584 22.5734 37.7883C22.1534 38.8347 21.4067 39.5006 20.38 39.8811C20.31 39.9762 20.24 39.9762 20.0533 40Z" fill="#2B5E86"/>
    <path d="M16.3432 0.118927C14.9431 2.3068 14.1498 4.61358 13.8931 7.08682C13.7064 8.98932 13.7764 10.868 14.1264 12.7468C14.1731 13.0559 14.3364 13.2937 14.5465 13.5315C15.8298 14.9108 17.0199 16.3615 17.7899 18.1213C18.2099 19.0726 18.5133 20.0476 18.5133 21.1177C18.4899 21.9976 17.5566 22.9965 16.7399 23.1154C16.3665 23.1629 16.3432 22.9251 16.3199 22.6397C16.2265 21.6171 16.1565 20.5946 15.7598 19.6195C15.1531 18.0975 14.2898 16.742 13.0764 15.6718C12.2364 14.9346 11.9097 14.0547 11.8164 12.9846C11.3963 8.2521 12.6564 4.09039 15.8065 0.57077C15.8998 0.380521 15.9932 0.190271 16.3432 0.118927Z" fill="#2B5E86"/>
    <path d="M18.4899 31.4625C18.1866 30.6777 17.8832 29.8692 17.5799 29.0844C17.4166 28.6801 17.2532 28.2996 16.7165 28.2996C16.4365 28.2996 16.2032 28.0856 16.1098 27.8002C15.9465 27.4197 15.7832 27.0868 15.3398 26.9441C15.0131 26.8252 15.2931 26.6349 15.4331 26.5398C16.2032 25.9928 17.1132 26.2069 17.6032 27.0392C18.1399 27.9667 18.3499 28.9893 18.5133 30.0356C18.5599 30.4875 18.6999 30.9393 18.4899 31.4625Z" fill="#2B5E86"/>
    <path d="M15.0365 23.4245C13.4731 22.4257 12.213 21.189 11.863 19.239C11.8397 19.0487 11.723 18.8109 11.9097 18.692C12.143 18.5493 12.283 18.8109 12.4464 18.9298C13.0531 19.4768 13.4497 20.1902 13.8464 20.9037C14.3131 21.7122 14.7331 22.5208 15.0365 23.4245Z" fill="#2B5E86"/>
  </g>
  <defs>
    <clipPath id="clip0_146_633">
      <rect width="40" height="40" fill="white"/>
    </clipPath>
  </defs>
</svg>