<svg xmlns="http://www.w3.org/2000/svg" width="40" height="40" viewBox="0 0 40 40" fill="none">
  <g clip-path="url(#clip0_195_341)">
    <path d="M20 40C31.0457 40 40 31.0457 40 20C40 8.95431 31.0457 0 20 0C8.95431 0 0 8.95431 0 20C0 31.0457 8.95431 40 20 40Z" fill="#FF4500"/>
    <path d="M33.34 20C33.344 20.274 33.31 20.5475 33.238 20.812C33.166 21.0765 33.057 21.33 32.914 21.564C32.7715 21.798 32.5965 22.011 32.3945 22.1965C32.1925 22.382 31.9655 22.538 31.72 22.66C31.7255 22.733 31.73 22.8065 31.7325 22.88C31.7385 23.0266 31.7385 23.1734 31.7325 23.32C31.73 23.3935 31.7255 23.467 31.72 23.54C31.72 28.02 26.5 31.66 20.06 31.66C13.62 31.66 8.39999 28.02 8.39999 23.54C8.39449 23.467 8.38999 23.3935 8.38749 23.32C8.38148 23.1734 8.38148 23.0266 8.38749 22.88C8.38999 22.8065 8.39449 22.733 8.39999 22.66C8.01537 22.4832 7.67376 22.225 7.39879 21.9031C7.12382 21.5813 6.92207 21.2035 6.80749 20.796C6.69311 20.3883 6.66874 19.9606 6.73609 19.5426C6.80343 19.1246 6.96087 18.7262 7.19749 18.375C7.43391 18.0239 7.74389 17.7285 8.10591 17.5092C8.46793 17.2899 8.87334 17.152 9.29399 17.105C9.7147 17.0579 10.1406 17.1027 10.5423 17.2366C10.9439 17.3704 11.3116 17.5899 11.62 17.88C12.1924 17.492 12.7921 17.146 13.4145 16.8445C14.037 16.5435 14.6805 16.2875 15.34 16.0795C15.9995 15.8715 16.6735 15.712 17.356 15.6015C18.0385 15.491 18.7285 15.4305 19.42 15.42L20.9 8.48001C20.9165 8.39951 20.949 8.32351 20.9955 8.25551C21.0415 8.18801 21.101 8.13001 21.1695 8.08551C21.2385 8.04101 21.3155 8.01051 21.3965 7.99551C21.477 7.98101 21.56 7.98251 21.64 8.00001L26.54 8.98001C27.0345 8.13051 28.0725 7.76651 28.989 8.12051C29.9055 8.47451 30.4295 9.44201 30.2245 10.403C30.02 11.364 29.147 12.034 28.166 11.9835C27.1845 11.933 26.385 11.177 26.28 10.2L22 9.30001L20.7 15.54C21.383 15.5545 22.0645 15.6185 22.7385 15.731C24.0882 15.956 25.3984 16.3746 26.6285 16.974C27.2429 17.273 27.8349 17.6159 28.4 18C28.8063 17.6099 29.3169 17.3458 29.87 17.2395C30.4231 17.1329 30.9953 17.1886 31.5175 17.4C32.0397 17.6113 32.4896 17.9692 32.813 18.4305C33.1364 18.8919 33.3195 19.4369 33.34 20ZM13.492 22.7655C13.593 23.008 13.74 23.2285 13.926 23.414C14.1115 23.6 14.332 23.747 14.5745 23.848C14.8172 23.9484 15.0773 24 15.34 24C16.149 24 16.878 23.5125 17.188 22.7655C17.4975 22.018 17.326 21.158 16.754 20.586C16.182 20.014 15.322 19.8425 14.5745 20.152C13.8275 20.462 13.34 21.191 13.34 22C13.34 22.2625 13.3915 22.5225 13.492 22.7655ZM24.947 27.5665C25.0495 27.4665 25.108 27.33 25.11 27.187C25.112 27.0435 25.0565 26.9055 24.9565 26.803C24.8565 26.7005 24.72 26.642 24.577 26.64C24.4335 26.638 24.2955 26.6935 24.18 26.78C23.8793 26.9957 23.5608 27.1856 23.228 27.3475C22.8952 27.5095 22.5493 27.6432 22.194 27.747C21.839 27.8505 21.4755 27.924 21.108 27.9665C20.74 28.009 20.3695 28.02 20 28C19.631 28.0165 19.261 28.0015 18.8945 27.9555C18.5279 27.91 18.1659 27.833 17.8125 27.7255C17.4585 27.6185 17.115 27.4815 16.7845 27.3165C16.454 27.1515 16.138 26.9585 15.84 26.74C15.7365 26.655 15.605 26.6115 15.471 26.618C15.337 26.6245 15.2105 26.681 15.1155 26.7755C15.021 26.8705 14.9645 26.997 14.958 27.131C14.9515 27.265 14.995 27.3965 15.08 27.5C15.4315 27.765 15.805 27.999 16.1965 28.2C16.588 28.401 16.9965 28.5675 17.4165 28.6985C17.8365 28.8295 18.267 28.924 18.7035 28.9815C19.14 29.0385 19.5805 29.058 20.02 29.04C20.4595 29.058 20.9 29.0385 21.3365 28.9815C22.2108 28.8665 23.0588 28.6022 23.8435 28.2C24.235 27.999 24.6085 27.765 24.96 27.5L24.947 27.5665ZM24.58 24.16C24.851 24.163 25.12 24.1105 25.3705 24.0065C25.621 23.902 25.8475 23.748 26.0365 23.5535C26.2255 23.359 26.3725 23.128 26.4695 22.8745C26.5666 22.6213 26.611 22.351 26.6 22.08C26.6 21.271 26.1125 20.542 25.3655 20.232C24.618 19.9225 23.758 20.094 23.186 20.666C22.614 21.238 22.4425 22.098 22.752 22.8455C23.062 23.5925 23.791 24.08 24.6 24.08L24.58 24.16Z" fill="white"/>
  </g>
  <defs>
    <clipPath id="clip0_195_341">
      <rect width="40" height="40" fill="white"/>
    </clipPath>
  </defs>
</svg>