<svg xmlns="http://www.w3.org/2000/svg" width="40" height="41" viewBox="0 0 40 41" fill="none">
  <g clip-path="url(#clip0_141_806)">
    <path d="M40.3918 21.1548C40.3918 19.4956 39.8747 17.8936 38.9554 16.5777C38.036 15.2046 36.6571 14.2319 35.1057 13.6598C35.2206 12.916 35.3356 12.2294 35.3356 11.4857C35.3356 9.08269 34.5886 6.73692 33.1522 4.73444C31.7158 2.73196 29.7048 1.30161 27.4065 0.557834C25.1082 -0.185945 22.5801 -0.185945 20.2818 0.557834C17.9835 1.30161 15.9725 2.78917 14.5361 4.73444C13.5018 3.93345 12.1803 3.47574 10.8588 3.47574C9.53729 3.47574 8.21577 3.87624 7.18154 4.67723C6.08986 5.47822 5.34291 6.56528 4.94071 7.82399C4.53851 9.08269 4.59597 10.4558 5.05563 11.6573C3.50429 12.2294 2.18277 13.2593 1.206 14.5752C0.229226 15.9483 -0.287888 17.5503 -0.287888 19.1523C-0.287888 20.8115 0.229227 22.4135 1.14854 23.7294C2.12531 25.1025 3.44683 26.0752 4.99817 26.6473C4.88326 27.3911 4.76834 28.0777 4.76834 28.8214C4.76834 31.2244 5.51529 33.5702 6.95172 35.5154C8.38814 37.4607 10.3991 38.8911 12.6974 39.6348C14.9957 40.3786 17.4664 40.3786 19.8221 39.6348C22.1204 38.8911 24.1314 37.4035 25.5104 35.4582C26.5446 36.2592 27.8087 36.7169 29.1876 36.7169C30.5092 36.7169 31.8307 36.3164 32.8649 35.5727C33.9566 34.7717 34.7035 33.6846 35.1057 32.4259C35.5079 31.1672 35.4505 29.7941 34.9908 28.5926C36.5422 28.0204 37.9211 26.9906 38.8405 25.6747C39.8172 24.416 40.3343 22.814 40.3918 21.1548Z" fill="white"/>
    <path d="M15.6852 17.3787L24.5911 21.4408L33.5544 13.6026C33.6693 12.9732 33.7268 12.2866 33.7268 11.6573C33.7268 9.54039 33.0373 7.42348 31.7732 5.70706C30.5092 3.99065 28.728 2.73195 26.6595 2.1026C24.5911 1.47325 22.4077 1.53046 20.3967 2.21702C18.3857 2.90359 16.6045 4.2195 15.3979 5.99313L13.9615 13.717L15.6852 17.3787Z" fill="#FEC514"/>
    <path d="M6.49206 26.7618C6.37714 27.3911 6.31969 28.0777 6.31969 28.7643C6.31969 30.8812 7.00917 32.9981 8.27323 34.7145C9.53729 36.4309 11.3759 37.6896 13.3869 38.319C15.4554 38.9483 17.6387 38.8911 19.6497 38.2045C21.6608 37.518 23.4419 36.1448 24.6485 34.3712L26.1424 26.7046L24.1889 22.9285L15.283 18.8663L6.49206 26.7618Z" fill="#00BFB3"/>
    <path d="M6.4346 11.4284L12.5251 12.8588L13.8466 5.93589C13.0422 5.30654 12.0079 4.96326 10.9737 4.96326C9.93948 4.96326 8.90525 5.30654 8.10085 5.87868C7.239 6.50803 6.66442 7.36624 6.37714 8.33887C6.0324 9.42593 6.08985 10.4558 6.4346 11.4284Z" fill="#F04E98"/>
    <path d="M5.91748 12.8588C4.59597 13.3165 3.38937 14.1747 2.58497 15.319C1.78057 16.4632 1.32091 17.8364 1.32091 19.2095C1.32091 20.5826 1.72311 21.8985 2.52751 22.9856C3.27445 24.1299 4.42359 24.9881 5.68765 25.4458L14.2488 17.7219L12.6974 14.4035L5.91748 12.8588Z" fill="#1BA9F5"/>
    <path d="M26.2573 34.3711C27.0617 35.0005 28.096 35.3438 29.1302 35.3438C30.1644 35.3438 31.1986 35.0005 32.003 34.4284C32.8649 33.799 33.4395 32.9408 33.7268 31.9682C34.014 30.9955 34.014 29.9085 33.6118 28.9358L27.5214 27.5055L26.2573 34.3711Z" fill="#93C90E"/>
    <path d="M27.4639 25.9035L34.1864 27.4483C35.5079 26.9906 36.7145 26.1324 37.5189 24.9881C38.3233 23.8438 38.783 22.4707 38.783 21.0976C38.783 19.7244 38.3808 18.4085 37.5764 17.3215C36.8294 16.2344 35.6803 15.3762 34.4162 14.8613L25.6253 22.5279L27.4639 25.9035Z" fill="#0077CC"/>
  </g>
  <defs>
    <clipPath id="clip0_141_806">
      <rect width="40" height="40.3478" fill="white"/>
    </clipPath>
  </defs>
</svg>