<svg xmlns="http://www.w3.org/2000/svg" width="40" height="40" viewBox="0 0 40 40" fill="none">
  <g clip-path="url(#clip0_155_1116)">
    <path d="M19.7184 38.7924C30.5368 38.7924 39.3068 30.283 39.3068 19.786C39.3068 9.28911 30.5368 0.779675 19.7184 0.779675C8.89999 0.779675 0.129944 9.28911 0.129944 19.786C0.129944 30.283 8.89999 38.7924 19.7184 38.7924Z" fill="#00A1E0"/>
    <mask id="mask0_155_1116" style="mask-type:alpha" maskUnits="userSpaceOnUse" x="0" y="7" width="37" height="34">
      <path fill-rule="evenodd" clip-rule="evenodd" d="M20.0235 11.4417C20.0235 11.4417 20.4207 10.8838 21.7737 11.5147C21.7737 11.5147 21.7656 12.1774 20.5095 12.2097C19.2538 12.242 19.7803 12.0643 19.7803 12.0643L20.0235 11.4417ZM17.9467 39.2245C25.439 41.6323 29.6698 38.5471 33.3025 36.8871C35.6138 35.831 37.7388 34.5779 35.3792 31.1777C35.1575 29.6671 33.7057 29.5995 32.7862 24.9271C33.4387 24.9213 33.9351 24.9558 34.6742 24.9876C34.6091 24.7815 34.3758 24.4476 34.1536 24.0871L34.1227 24.1036C33.5747 23.121 33.2112 21.7858 32.9909 20.7477L32.9882 20.7373L32.972 20.6603L32.9711 20.6558C32.7916 19.8086 32.7077 19.1616 32.6973 19.0779L32.6969 19.0777L32.6965 19.0711L32.696 19.0687C32.6534 18.7755 32.6264 18.5059 32.6112 18.2739L34.1025 18.596C32.8374 14.707 33.5209 12.5164 30.6913 10.0611L30.9893 8.85596C29.1 9.08151 26.787 7.443 23.4167 8.10822C22.2597 8.71257 22.0748 8.3103 20.7191 9.81375C19.844 10.7846 18.7871 10.5273 18.464 11.9617C17.0433 12.0408 15.3754 12.1709 15.4899 13.7133C15.5301 14.2581 15.597 15.601 15.7676 15.9585C16.1419 16.741 16.6059 16.3804 17.4053 16.6541C17.5382 16.4955 17.6724 16.355 17.8083 16.2307L18.179 16.8134C18.179 16.8134 18.3469 16.1678 18.8836 15.6168L18.9173 15.5536C21.2424 14.7747 23.12 17.8658 19.8758 18.2065L19.1075 18.2021C18.6449 17.8483 18.5084 17.3227 18.5084 17.3227L18.241 17.743L17.3753 18.1917C17.3641 19.1044 17.0321 19.29 17.2074 20.2085C17.9169 20.5158 18.7068 20.5475 19.677 20.5756C15.9385 28.7224 13.1319 21.1027 17.3757 29.7999C18.9213 33.0907 18.7369 36.0187 18.1566 38.4083M15.363 17.8803C15.363 17.8803 5.81092 18.9482 0.00170898 25.2619C0.94665 27.1492 0.797835 27.9135 2.06482 28.3915C7.57434 20.6125 15.2857 17.8255 15.0945 17.9552" fill="white"/>
    </mask>
    <g mask="url(#mask0_155_1116)">
      <path d="M19.7178 38.7933C30.5362 38.7933 39.3062 30.2839 39.3062 19.7869C39.3062 9.29002 30.5362 0.780586 19.7178 0.780586C8.89938 0.780586 0.129333 9.29002 0.129333 19.7869C0.129333 30.2839 8.89938 38.7933 19.7178 38.7933Z" fill="white"/>
    </g>
  </g>
  <defs>
    <clipPath id="clip0_155_1116">
      <rect width="40" height="40" fill="white"/>
    </clipPath>
  </defs>
</svg>