<svg xmlns="http://www.w3.org/2000/svg" width="40" height="40" viewBox="0 0 40 40" fill="none">
  <path d="M10.4626 34.9603C7.43159 34.9603 4.36365 34.9603 1.33267 34.9603C1.07393 34.9603 1 34.9233 1 34.6273C1 31.5933 1 28.5593 1 25.5253C1.18482 25.5253 1.2957 25.7103 1.40659 25.8213C4.32669 28.7073 7.24678 31.6303 10.1299 34.5533C10.2778 34.6643 10.4256 34.7383 10.4626 34.9603Z" fill="black"/>
  <path d="M28.8333 25.9693C29.5725 26.7833 30.3857 27.5973 31.1989 28.3373C31.3098 28.4483 31.3837 28.5963 31.5316 28.7073C32.9362 30.1133 34.3408 31.5193 35.7454 32.9253C36.4107 33.5913 37.113 34.2203 37.7044 34.9603H27.5026C27.3917 34.8493 27.3178 34.7013 27.1699 34.5903C25.5066 32.9253 23.8063 31.2603 22.1429 29.5953C16.4506 23.8973 10.7213 18.1993 4.99203 12.5013C3.66135 11.1693 2.36764 9.80031 1 8.54231V4.06531C2.77423 4.06531 4.54847 4.06531 6.35966 4.06531C6.50751 4.06531 6.65537 4.1023 6.76626 4.1393C6.91411 4.1763 7.025 4.28731 7.09893 4.39831C11.7933 9.09731 16.5245 13.7963 21.2558 18.4953C21.3298 18.5693 21.4406 18.6803 21.5515 18.7543C22.9192 20.1603 24.3238 21.5663 25.7284 22.9353C26.7264 23.9343 27.7983 24.9333 28.8333 25.9693Z" fill="black"/>
  <path d="M37.7045 34.9604C37.1131 34.2204 36.3738 33.5914 35.7454 32.9254C34.3408 31.5194 32.9362 30.1134 31.5316 28.7074C31.4208 28.5964 31.3099 28.4484 31.199 28.3374C31.199 28.1154 31.199 27.9304 31.199 27.7084C31.199 20.4934 31.199 13.3154 31.199 6.10036C31.199 5.73036 31.3468 5.36035 31.6056 5.06435C31.8643 4.69435 32.2709 4.39836 32.6775 4.21336C33.1211 4.02836 33.5646 3.95436 34.0451 4.02836C35.3389 4.13936 36.6695 4.06536 38.0002 4.02836C38.4068 4.02836 38.4807 4.13935 38.4807 4.50935C38.4807 11.7244 38.4807 18.9394 38.4807 26.1544C38.4807 28.8924 38.4807 31.6304 38.4807 34.3684C38.4807 34.5534 38.4807 34.7384 38.5177 34.9604H37.7045Z" fill="#3E3E3E"/>
  <path d="M1 22.1213V11.9093C1.14785 11.9463 1.22178 12.0943 1.33267 12.1683L4.47454 15.2763C10.2778 21.0853 16.081 26.8573 21.8842 32.6663C22.6235 33.4063 23.3997 34.1093 24.065 34.9233H13.8262C13.8262 34.7753 13.6784 34.7013 13.6044 34.6273C10.019 31.0383 6.43359 27.4863 2.84816 23.9343C2.29371 23.3053 1.66534 22.6763 1 22.1213Z" fill="black"/>
  <path d="M28.8333 25.9693C27.7983 24.9703 26.7633 23.9343 25.7283 22.9353C24.3237 21.5293 22.9561 20.1233 21.5515 18.7543C21.5515 17.6813 21.5515 16.5713 21.5515 15.4983C21.5515 15.3873 21.5515 15.2763 21.5885 15.1653C21.6254 15.0543 21.6994 14.9803 21.7733 14.8693L28.5745 8.09832C28.6115 8.06132 28.6854 7.98732 28.7593 7.95032C28.9072 7.98732 28.8702 8.13531 28.8702 8.20931C28.8702 14.0553 28.8702 19.9013 28.8702 25.7103C28.8333 25.8213 28.8333 25.8953 28.8333 25.9693Z" fill="#3E3E3E"/>
</svg>