<svg xmlns="http://www.w3.org/2000/svg" height="800" width="1200" viewBox="-35.602155 -10.3 308.55201 61.8"><path d="M0 41.2h237.3477V0H0z" fill="#c4373a"/><path d="M26.4484 17.0991l-8.9869 3.981 8.9869 4.0032zm-11.3047 4.8781l-2.0941-.8909 2.0941-.9603 17.7489-7.9824v2.1262l-4.6537 2.0515v9.5399l4.6537 2.0737v2.0292zm27.8848-9.6227h12.7389v1.829H45.0142V20.11h9.618v1.8325h-9.618v6.109H55.891v1.8254H43.0285zm30.3285 8.9352c.6562 0 1.2606-.0819 1.8183-.2483.5533-.1682 1.0305-.4032 1.4352-.7147.4064-.308.7207-.6817.9472-1.1277.2283-.4431.3402-.9433.3402-1.513v-.0498c0-1.0849-.3948-1.9295-1.1836-2.5392-.7923-.6096-1.8998-.9149-3.3331-.9149h-5.4487v7.1076zm-7.4174-8.9366h7.5786c1.0904 0 2.0627.1576 2.9132.4629.8443.3079 1.5444.7405 2.0976 1.2904.436.4326.7709.9444 1.009 1.5273.2346.5838.351 1.2256.351 1.9278v.048c0 .7183-.1164 1.3626-.351 1.9438-.2381.5732-.5676 1.0751-.991 1.5005-.4289.4264-.9374.7761-1.5301 1.052-.5855.2724-1.2238.4789-1.9123.6123l5.4147 7.1574h-2.4397l-5.1156-6.8067h-5.0315v6.8067h-1.9929zm32.4853 15.9945c1.0072 0 1.9374-.1824 2.7816-.5598.8469-.3756 1.5712-.8918 2.1764-1.5388.6043-.6533 1.0815-1.4134 1.4244-2.2784.3465-.8687.513-1.8023.513-2.8026v-.0526c0-1.0012-.1665-1.9402-.513-2.815-.3429-.8776-.8308-1.6412-1.4441-2.2891-.6249-.6533-1.359-1.1722-2.2068-1.5549-.8515-.3836-1.779-.5767-2.7861-.5767-1.0045 0-1.9312.1869-2.7781.5643-.8505.3791-1.5775.8908-2.18 1.5397-.6016.6533-1.0779 1.4097-1.4253 2.2784-.3411.8669-.513 1.8014-.513 2.8017v.0516c0 1 .1719 1.9403.513 2.816.3474.874.8299 1.6421 1.4477 2.2891.624.6541 1.3581 1.1704 2.205 1.5539.8461.3845 1.7781.5732 2.7853.5732m-.0546 1.829c-1.3421 0-2.5659-.2412-3.6591-.7281-1.1021-.4815-2.043-1.1365-2.8344-1.9616-.7923-.8285-1.3976-1.7862-1.8219-2.8773-.4324-1.0947-.6473-2.2411-.6473-3.4416v-.0526c0-1.1988.2149-2.3531.6536-3.4532.4368-1.1009 1.0564-2.0675 1.838-2.8943.7941-.8259 1.735-1.4809 2.8488-1.9766 1.1074-.4914 2.3304-.7361 3.6769-.7361 1.3393 0 2.5596.2421 3.6634.7227 1.0968.485 2.0404 1.1418 2.8345 1.9669.7834.8259 1.3949 1.7862 1.8219 2.8774.4297 1.0938.6464 2.2419.6464 3.4416.0143.0196.0143.0356 0 .0516 0 1.2033-.2229 2.3532-.6571 3.4541-.4387 1.101-1.0466 2.0639-1.8371 2.8899-.7897.8259-1.7405 1.4854-2.847 1.9802-1.1066.4922-2.3313.737-3.6796.737m25.2099-.0478c-1.4092 0-2.6966-.2305-3.8658-.6915-1.1702-.4592-2.2794-1.1597-3.3403-2.1128l1.2373-1.4543c.9239.8375 1.8541 1.4569 2.7941 1.8663.9401.4094 2.0225.6123 3.2526.6123 1.1898 0 2.1406-.2749 2.8506-.8366.7153-.5597 1.0725-1.2736 1.0725-2.1387v-.0533c0-.3997-.0663-.7628-.2023-1.0876-.1361-.324-.3671-.623-.7019-.8882-.3376-.2679-.804-.5109-1.4038-.7263-.5981-.2162-1.3582-.4281-2.2848-.6257-1.0045-.218-1.8881-.4663-2.6348-.7511-.7494-.283-1.3707-.6266-1.8559-1.0262-.4888-.3996-.847-.8677-1.0887-1.4062-.2354-.5305-.3518-1.1561-.3518-1.8735v-.0489c0-.6853.1423-1.3172.4252-1.9046.2901-.5838.6894-1.0885 1.2105-1.5166.521-.4245 1.1343-.7574 1.8433-1.0012.7028-.2377 1.4737-.3596 2.3099-.3596 1.2972 0 2.4244.1762 3.3922.5384.9669.3596 1.8971.8972 2.8076 1.6136l-1.1585 1.5282c-.8237-.6684-1.6491-1.1535-2.4826-1.4525-.8335-.3008-1.6957-.4512-2.6071-.4512-1.1594 0-2.0726.2714-2.7449.8161-.6697.5411-1.0045 1.2113-1.0045 2.0141v.0498c0 .4156.0698.7859.1987 1.1107.1361.3275.3796.6257.7342.9043.3545.2767.8371.5242 1.4611.752.6186.2252 1.4154.4388 2.3895.6355 1.9624.4192 3.411 1.0155 4.3456 1.788.9303.7796 1.3967 1.8325 1.3967 3.1693v.0489c0 .7503-.1486 1.433-.4512 2.0417-.2955.6096-.7118 1.1321-1.2293 1.5637-.5273.4353-1.1602.7663-1.8997 1.0031-.7369.2323-1.539.3506-2.4137.3506m22.4501-8.2616c.7342 0 1.402-.0926 1.9938-.275.5891-.1842 1.094-.4433 1.5265-.7841.4333-.3445.7547-.7503.9803-1.2255.231-.4726.3465-.9933.3465-1.5593v-.0499c0-1.246-.4369-2.1885-1.3045-2.832-.8639-.6416-2.0161-.9594-3.445-.9594h-4.4692v7.6852zm-6.3601-9.5141h6.6c.9911 0 1.8891.1281 2.7065.3907.8111.2589 1.5076.6221 2.0896 1.1.5783.4753 1.0233 1.0529 1.3286 1.7382.3115.6853.4745 1.4614.4745 2.33v.0499c0 .9478-.1871 1.7818-.5542 2.4929-.3743.7066-.8729 1.3038-1.5005 1.7853-.6276.4851-1.3662.8499-2.2015 1.0885-.8433.2456-1.7288.3676-2.676.3676h-4.2785v6.1801h-1.9885zm23.0363.001h1.9928v17.5224h-1.9928zm13.1951.0004h1.9947v10.4637l10.1194-10.4637h2.5667l-7.5517 7.6576 7.883 9.8648h-2.4925l-6.7755-8.4844-3.7494 3.7789v4.7055h-1.9947zm24.1515 0h12.739v1.829h-10.7533V20.11h20.1143v1.8325h-20.1143v6.109h10.8804v1.8254h-12.8661z" fill="#fff"/></svg>