<svg xmlns="http://www.w3.org/2000/svg" width="40" height="40" viewBox="0 0 40 40" fill="none">
  <g clip-path="url(#clip0_146_1000)">
    <rect x="0.0292969" width="39.9609" height="39.9902" rx="5.1416" fill="#00A587"/>
    <path d="M26.6851 20.0842C27.0527 22.9691 27.3939 25.6778 27.7481 28.3835C27.79 28.7076 27.7229 28.822 27.3599 28.8401C25.1739 28.9487 25.1751 28.9574 24.3849 26.9668C24.0559 26.1385 23.7353 25.307 23.3849 24.487C23.3077 24.3522 23.2793 24.1957 23.3041 24.0429C23.329 23.8902 23.4056 23.7503 23.5217 23.6459C24.5557 22.5162 25.5629 21.356 26.6851 20.0842Z" fill="white"/>
    <path d="M13.8364 22.5021C14.1494 24.0901 14.4583 25.5827 14.7302 27.0819C14.8142 27.546 15.1919 28.1357 14.8687 28.4495C14.5901 28.7191 13.9715 28.3376 13.496 28.3549C12.2328 28.402 11.6449 27.8181 11.4397 26.5922C11.3192 25.8726 11.2659 25.3742 11.869 24.8168C12.5729 24.0861 13.23 23.313 13.8364 22.5021Z" fill="white"/>
    <path d="M17.4031 25.3986C17.4031 24.5068 17.3892 23.6149 17.4098 22.7235C17.4178 22.3733 17.3187 22.2552 16.9406 22.2428C14.3611 22.1589 11.7821 22.057 9.20374 21.9373C8.79877 21.9187 8.63888 22.0319 8.55285 22.4258C8.15501 24.2499 7.70345 26.0634 7.31484 27.8896C7.20573 28.4025 7.00681 28.5916 6.46167 28.5333C5.8568 28.4717 5.24787 28.4578 4.64075 28.4921C4.18332 28.5148 4.09519 28.3269 4.10191 27.9351C4.14136 25.1959 4.19969 22.4567 4.17283 19.7184C4.16788 18.8757 4.4539 18.0564 4.98405 17.3946C6.4109 15.4437 7.78529 13.4576 9.16765 11.4765C9.24221 11.3409 9.35956 11.2327 9.50201 11.1684C9.64446 11.1041 9.80429 11.087 9.95745 11.1198C15.1117 11.6623 20.268 12.188 25.4262 12.6966C25.7488 12.7347 26.0569 12.8506 26.323 13.034C29.3924 14.9965 32.4564 16.966 35.5413 18.9046C36.0029 19.1936 36.0155 19.3588 35.5719 19.6201C35.4764 19.6709 35.3911 19.7383 35.3201 19.8191C34.4317 20.9484 33.3897 20.8976 32.1307 20.3972C30.609 19.7939 29.0042 19.3939 27.4439 18.881C27.2954 18.8218 27.1344 18.7994 26.975 18.8157C26.8157 18.8321 26.6628 18.8867 26.5299 18.9748C25.0946 19.8518 23.6528 20.718 22.2044 21.5735C22.074 21.6423 21.9626 21.7413 21.8798 21.8621C21.7971 21.9828 21.7456 22.1216 21.7298 22.2664C21.4121 24.1492 21.0487 26.0237 20.7566 27.9115C20.6727 28.4524 20.4767 28.6238 19.9303 28.5862C19.2364 28.5458 18.5407 28.5447 17.8467 28.5829C17.435 28.6011 17.3296 28.459 17.3431 28.073C17.3699 27.1815 17.3515 26.2888 17.3515 25.397L17.4031 25.3986Z" fill="white"/>
  </g>
  <defs>
    <clipPath id="clip0_146_1000">
      <rect width="40" height="40" fill="white"/>
    </clipPath>
  </defs>
</svg>