<svg version="1.1" id="Layer_1" xmlns:x="ns_extend;" xmlns:i="ns_ai;" xmlns:graph="ns_graphs;" xmlns="http://www.w3.org/2000/svg" xmlns:xlink="http://www.w3.org/1999/xlink" x="0px" y="0px" viewBox="0 0 55.4 60" style="enable-background:new 0 0 55.4 60;" xml:space="preserve">
 <style type="text/css">
  .st0{fill:#8039E9;}
 </style>
 <metadata>
  <sfw xmlns="ns_sfw;">
   <slices>
   </slices>
   <sliceSourceBounds bottomLeftOrigin="true" height="60" width="55.4" x="-133.5" y="-244.7">
   </sliceSourceBounds>
  </sfw>
 </metadata>
 <g>
  <path class="st0" d="M54.1,25.7H37.8c-0.9,0-1.6,1-1.3,1.8l3.9,10.1c0.2,0.4-0.2,0.9-0.7,0.9l-5-0.3c-0.2,0-0.4,0.1-0.6,0.3
		L30.3,44c-0.2,0.3-0.6,0.4-1,0.2l-5.8-3.9c-0.2-0.2-0.5-0.2-0.8,0l-8,5.4c-0.5,0.4-1.2-0.1-1-0.7L16,37c0.1-0.3-0.1-0.7-0.4-0.8
		l-4.2-1.7c-0.4-0.2-0.6-0.7-0.3-1l3.7-4.6c0.2-0.2,0.2-0.6,0-0.8l-3.1-4.5c-0.3-0.4,0-1,0.5-1l4.9-0.4c0.4,0,0.6-0.3,0.6-0.7
		l-0.4-6.8c0-0.5,0.5-0.8,0.9-0.7l6,2.5c0.3,0.1,0.6,0,0.8-0.2l4.2-4.6c0.3-0.4,0.9-0.3,1.1,0.2l2.5,6.4c0.3,0.8,1.3,1.1,2,0.6
		l9.8-7.3c1.1-0.8,0.4-2.6-1-2.4L37.3,10c-0.3,0-0.6-0.1-0.7-0.4l-3.4-8.7c-0.4-0.9-1.5-1.1-2.2-0.4l-7.4,8
		c-0.2,0.2-0.5,0.3-0.8,0.2l-9.7-4.1c-0.9-0.4-1.8,0.2-1.9,1.2l-0.4,10c0,0.4-0.3,0.6-0.6,0.6l-8.9,0.6c-1,0.1-1.6,1.2-1,2.1
		l5.9,8.7c0.2,0.2,0.2,0.6,0,0.8l-6,6.9C-0.3,36,0,37.1,0.8,37.4l6.9,3c0.3,0.1,0.5,0.5,0.4,0.8L3.7,58.3c-0.3,1.2,1.1,2.1,2.1,1.4
		l16.5-11.8c0.2-0.2,0.5-0.2,0.8,0l7.5,5.3c0.6,0.4,1.5,0.3,1.9-0.4l4.7-7.2c0.1-0.2,0.4-0.3,0.6-0.3l11.2,1.4
		c0.9,0.1,1.8-0.6,1.5-1.5l-4.7-12.1c-0.1-0.3,0-0.7,0.4-0.9l8.5-4C55.9,27.6,55.5,25.7,54.1,25.7z">
  </path>
 </g>
</svg>