<?xml version="1.0" standalone="no"?>
<svg version="1.0" xmlns="http://www.w3.org/2000/svg"
     width="163" height="56" viewBox="0 0 1975.000000 460.000000">
<g transform="translate(0.000000,460.000000) scale(0.100000,-0.100000)"
fill="none" stroke="none">
<path fill="blue" d="M14987 3985 c-384 -62 -714 -229 -978 -494 -303 -305 -474 -674 -510
-1102 -29 -339 57 -718 228 -1008 239 -406 634 -705 1077 -816 188 -47 297
-59 499 -52 273 9 472 59 712 178 285 141 507 339 691 614 147 221 243 490
273 767 43 392 -57 808 -273 1133 -271 406 -657 668 -1132 766 -132 27 -457
35 -587 14z m567 -105 c229 -45 459 -143 647 -277 173 -123 373 -344 479 -529
144 -252 213 -518 213 -819 0 -459 -161 -844 -493 -1176 -233 -233 -518 -384
-852 -451 -95 -19 -144 -22 -313 -22 -213 1 -288 11 -491 69 -118 34 -346 148
-464 232 -215 154 -430 409 -536 638 -233 504 -205 1096 75 1558 227 374 594
649 1009 753 74 19 172 38 216 44 129 14 384 4 510 -20z"/>
<path fill="blue" d="M15279 3510 c-139 -29 -198 -48 -314 -105 -307 -148 -549 -421 -654
-740 -51 -154 -65 -245 -65 -410 0 -165 14 -256 65 -410 106 -320 346 -591
656 -742 169 -81 306 -114 505 -120 250 -8 427 29 628 133 433 222 700 656
700 1139 0 620 -447 1152 -1059 1261 -111 20 -356 17 -462 -6z m536 -104 c215
-58 389 -158 545 -315 103 -104 191 -227 239 -334 146 -326 146 -678 0 -1004
-48 -107 -136 -230 -239 -334 -155 -156 -328 -256 -545 -315 -92 -25 -115 -28
-285 -28 -170 -1 -194 1 -295 27 -198 50 -398 162 -540 302 -143 140 -240 295
-299 477 -45 137 -59 229 -59 373 0 144 14 236 59 373 135 415 479 711 929
798 47 9 122 12 230 10 134 -3 176 -8 260 -30z"/>
<path fill="blue" d="M15730 3064 c-98 -11 -194 -40 -285 -84 -295 -144 -473 -450 -452
-775 14 -205 94 -380 239 -522 86 -86 119 -109 223 -158 139 -67 286 -92 436
-75 187 21 342 95 474 225 126 124 192 240 229 402 21 94 21 262 0 356 -81
355 -380 608 -744 630 -47 2 -101 3 -120 1z m252 -113 c237 -61 426 -239 505
-476 24 -72 27 -95 27 -220 0 -125 -3 -148 -27 -220 -101 -303 -366 -495 -682
-495 -278 0 -525 151 -645 395 -56 115 -73 190 -73 320 0 130 17 205 73 320
90 182 264 323 464 375 98 26 258 26 358 1z"/>
<path fill="blue" d="M16014 2590 c-103 -21 -187 -88 -241 -192 -24 -47 -28 -64 -28 -143
0 -79 4 -96 28 -143 69 -131 172 -196 313 -196 72 0 89 4 147 32 76 37 127 91
166 172 21 45 26 69 26 135 0 92 -26 159 -89 232 -70 81 -213 126 -322 103z
m185 -113 c180 -88 178 -355 -4 -446 -56 -28 -150 -32 -205 -9 -151 64 -204
246 -110 376 75 103 203 135 319 79z"/>
<path fill="blue" d="M9627 3768 c-9 -277 -33 -360 -113 -399 -35 -16 -70 -21 -198 -26
l-156 -6 0 -209 0 -208 215 0 215 0 0 -452 c0 -676 17 -863 95 -1026 62 -131
180 -221 335 -256 103 -24 258 -36 446 -36 l174 0 0 235 0 235 -142 0 c-294 0
 -374 37 -414 190 -15 57 -18 134 -21 588 l-4 522 290 0 291 0 0 220 0 220
 -290 0 -290 0 0 300 0 300 -213 0 -214 0 -6 -192z"/>
<path fill="black" d="M2800 2524 l0 -1376 588 5 c369 3 608 9 643 16 436 86 740 341 868
729 57 170 66 253 66 612 0 343 -4 389 -51 569 -93 358 -351 629 -709 745
 -200 65 -326 75 -947 76 l-458 0 0 -1376z m1160 907 c242 -71 393 -239 466
 -516 24 -91 27 -121 32 -342 5 -267 -6 -373 -54 -522 -55 -168 -175 -315 -314
 -383 -126 -63 -170 -69 -497 -75 l-293 -6 0 938 0 937 293 -5 c263 -4 299 -7
367 -26z"/>
<path fill="black" d="M6126 3409 c-379 -39 -655 -212 -787 -493 -38 -83 -75 -214 -81 -291
l-3 -40 258 -3 c141 -1 257 -1 257 0 9 70 33 164 50 201 35 74 103 142 176
177 103 50 185 62 369 57 140 -3 168 -7 227 -29 121 -45 168 -99 190 -216 13
 -72 -1 -129 -44 -178 -64 -72 -164 -104 -468 -149 -494 -72 -685 -129 -844
 -249 -122 -91 -198 -213 -230 -369 -54 -259 38 -503 234 -622 229 -139 646
 -149 939 -22 153 66 298 186 386 321 60 93 55 102 86 -161 l22 -193 204 0 204
0 -3 838 c-4 938 1 878 -79 1041 -98 199 -312 329 -610 370 -112 15 -353 21
 -453 10z m649 -1387 c-34 -149 -133 -301 -262 -399 -130 -99 -247 -136 -433
 -137 -108 0 -133 3 -185 23 -77 30 -129 84 -150 153 -47 158 20 285 190 364
85 39 177 63 390 99 185 32 310 66 395 108 l65 32 3 -85 c2 -52 -3 -113 -13
 -158z"/>
<path fill="blue" d="M11645 3409 c-235 -20 -432 -99 -565 -225 -131 -125 -190 -271 -190
 -468 0 -172 44 -292 144 -391 126 -125 299 -185 725 -251 415 -64 529 -109
561 -222 14 -50 13 -69 -6 -133 -23 -78 -90 -141 -181 -169 -140 -44 -392 -42
 -533 5 -131 43 -222 143 -259 283 l-12 42 -269 0 -270 0 0 -23 c0 -38 36 -169
70 -254 103 -259 335 -424 679 -484 156 -27 452 -29 596 -5 447 77 688 330
688 721 -1 162 -39 274 -127 372 -120 133 -303 199 -745 268 -352 55 -463 87
 -522 152 -75 80 -57 238 34 307 65 49 139 68 289 74 154 5 246 -7 323 -42 96
 -43 155 -116 184 -224 l12 -42 256 0 255 0 -7 47 c-32 217 -163 418 -341 525
 -186 111 -484 163 -789 137z"/>
<path fill="black" d="M8658 3360 c-233 -49 -393 -192 -474 -425 l-28 -80 -33 245 c-17 135
 -32 248 -32 253 -1 4 -93 7 -206 7 l-205 0 0 -1105 0 -1105 250 0 250 0 0 578
c0 357 4 611 11 667 23 189 81 307 185 377 106 72 241 98 500 98 l164 0 0 255
0 255 -147 -1 c-103 0 -175 -6 -235 -19z"/>
</g>
</svg>
