<svg xmlns="http://www.w3.org/2000/svg" width="40" height="40" viewBox="0 0 40 40" fill="none">
  <path d="M23.9804 6.12572L19.6161 1.76143C19.06 1.20377 18.3993 0.761187 17.672 0.458957C16.9447 0.156728 16.1649 0.000782551 15.3773 2.57491e-05C13.9247 -0.00438563 12.5276 0.55818 11.4834 1.56804C10.9381 2.09443 10.503 2.72407 10.2034 3.42028C9.90388 4.11648 9.74585 4.86533 9.73855 5.62321C9.73125 6.38111 9.87484 7.13287 10.1609 7.83471C10.447 8.53655 10.8699 9.17445 11.405 9.71124L19.3235 17.6297C19.4915 17.7889 19.714 17.8776 19.9455 17.8776C20.1768 17.8776 20.3995 17.7889 20.5675 17.6297L23.9752 14.2219C24.1895 13.9657 27.7541 9.89417 23.9804 6.12572Z" fill="#15A9CA"/>
  <path d="M31.1304 13.0981C30.2993 12.2932 29.4369 11.4622 28.6583 10.5632V10.5318C28.6304 10.6136 28.6095 10.6975 28.5955 10.7827C28.2685 12.6931 27.3315 14.4462 25.9247 15.7795C21.3304 20.3424 16.6838 25.0045 12.1889 29.5152L11.5826 30.1163C10.656 30.9687 10.0307 32.0983 9.80025 33.336C9.70293 34.2183 9.79529 35.1112 10.0711 35.955C10.347 36.7987 10.7999 37.5737 11.3996 38.2281C11.9116 38.8089 12.5462 39.2687 13.2576 39.5741C13.969 39.8797 14.7394 40.0233 15.5131 39.9948C17.3058 40.0209 18.1787 39.7857 19.4853 38.5156C24.712 33.3987 29.9388 28.2399 33.8953 24.3199C35.7613 22.4644 36.1899 19.3911 34.8676 17.3213C33.7921 15.7716 32.5377 14.3541 31.1304 13.0981Z" fill="#52CAA3"/>
  <path d="M5.83334 10.3646V29.6407C5.83325 29.8527 5.89604 30.06 6.01377 30.2363C6.1315 30.4125 6.29887 30.5499 6.49471 30.6311C6.69056 30.7121 6.90606 30.7333 7.11397 30.692C7.32188 30.6507 7.51284 30.5485 7.66268 30.3985L17.3635 20.6979C17.5467 20.5128 17.6494 20.2631 17.6494 20.0027C17.6494 19.7423 17.5467 19.4925 17.3635 19.3075L7.66268 9.60672C7.56525 9.50732 7.44896 9.42837 7.32061 9.37452C7.19226 9.32067 7.05445 9.293 6.91527 9.29312C6.63013 9.29311 6.3565 9.40566 6.1539 9.60631C5.95129 9.80695 5.83609 10.0795 5.83334 10.3646Z" fill="#5268AD"/>
</svg>