<svg xmlns="http://www.w3.org/2000/svg" width="40" height="40" viewBox="0 0 40 40" fill="none">
  <path fill-rule="evenodd" clip-rule="evenodd" d="M0 11.3334C0 5.07411 4.96381 0 11.087 0H14.1305C15.331 0 16.3043 0.994932 16.3043 2.22224V4.22224C16.3043 5.44954 15.331 6.44446 14.1305 6.44446H11.087C8.56568 6.44446 5.86959 8.75603 5.86959 11.3334V14.4445C5.86959 15.6718 4.89629 16.6668 3.69567 16.6668H2.17392C0.973297 16.6668 0 15.6718 0 14.4445V11.3334Z" fill="black"/>
  <path fill-rule="evenodd" clip-rule="evenodd" d="M39.9999 28.6672C39.9999 34.9263 35.036 40.0005 28.9129 40.0005H25.8695C24.6689 40.0005 23.6956 39.0056 23.6956 37.7782V35.7782C23.6956 34.5509 24.6689 33.5561 25.8695 33.5561H28.9129C31.4342 33.5561 34.1303 31.2445 34.1303 28.6672V25.556C34.1303 24.3287 35.1036 23.3337 36.3042 23.3337H37.8261C39.0266 23.3337 39.9999 24.3287 39.9999 25.556V28.6672Z" fill="black"/>
  <path fill-rule="evenodd" clip-rule="evenodd" d="M28.9129 0.00012207C35.036 0.00012207 39.9999 5.07424 39.9999 11.3335V14.4446C39.9999 15.6719 39.0266 16.6669 37.8261 16.6669H35.8695C34.6689 16.6669 33.6956 15.6719 33.6956 14.4446V11.3335C33.6956 8.75615 31.4342 6.00014 28.9129 6.00014H25.8695C24.6689 6.00014 23.6956 5.00521 23.6956 3.7779V2.22236C23.6956 0.995054 24.6689 0.00012207 25.8695 0.00012207H28.9129Z" fill="black"/>
  <path fill-rule="evenodd" clip-rule="evenodd" d="M11.087 40.0005C4.96381 40.0005 -8.02958e-07 34.9263 0 28.6672L3.99104e-07 25.556C5.56549e-07 24.3287 0.973297 23.3337 2.17392 23.3337H4.13045C5.33107 23.3337 6.30436 24.3287 6.30436 25.556V28.6672C6.30436 31.2445 8.56568 34.0005 11.087 34.0005H14.1305C15.331 34.0005 16.3043 34.9953 16.3043 36.2228V37.7782C16.3043 39.0056 15.331 40.0005 14.1305 40.0005H11.087Z" fill="black"/>
</svg>