<svg width="40" height="40" viewBox="0 0 40 40" fill="none" xmlns="http://www.w3.org/2000/svg">
<rect width="40" height="40" rx="7" fill="#252525"/>
<path d="M18.5398 18.5397L25.6108 14.6113L21.6824 21.6824M18.5398 18.5397L14.6113 25.6108L21.6824 21.6824M18.5398 18.5397L21.6824 21.6824" stroke="#E5E5E5" stroke-width="1.5" stroke-linecap="round" stroke-linejoin="round"/>
<path d="M20.1111 31.2222C26.2476 31.2222 31.2222 26.2476 31.2222 20.1111C31.2222 13.9746 26.2476 9 20.1111 9C13.9746 9 9 13.9746 9 20.1111C9 26.2476 13.9746 31.2222 20.1111 31.2222Z" stroke="#E5E5E5" stroke-width="1.5" stroke-linecap="round" stroke-linejoin="round"/>
<path d="M27.8888 20.1111H26.7777" stroke="#E5E5E5" stroke-width="1.5" stroke-linecap="round" stroke-linejoin="round"/>
<path d="M13.4444 20.1111H12.3333" stroke="#E5E5E5" stroke-width="1.5" stroke-linecap="round" stroke-linejoin="round"/>
<path d="M20.1111 12.3333V13.4444" stroke="#E5E5E5" stroke-width="1.5" stroke-linecap="round" stroke-linejoin="round"/>
<path d="M20.1111 26.7777V27.8888" stroke="#E5E5E5" stroke-width="1.5" stroke-linecap="round" stroke-linejoin="round"/>
<path d="M14.6115 14.6115L15.3971 15.3971" stroke="#E5E5E5" stroke-width="1.5" stroke-linecap="round" stroke-linejoin="round"/>
<path d="M24.8252 24.8252L25.6109 25.6109" stroke="#E5E5E5" stroke-width="1.5" stroke-linecap="round" stroke-linejoin="round"/>
</svg>
