<svg xmlns="http://www.w3.org/2000/svg" width="40" height="40" viewBox="0 0 40 40" fill="none">
  <path d="M18.3546 4.39568L3.068 10.1753C2.21793 10.4967 2.22673 11.6002 3.08214 11.91L18.4325 17.4721C19.7812 17.9609 21.2832 17.9609 22.6319 17.4721L37.9824 11.9098C38.8376 11.6002 38.8469 10.4969 37.9963 10.1755L22.7102 4.39547C21.3156 3.86818 19.749 3.86818 18.3544 4.39547" fill="#FCB400"/>
  <path d="M20.5323 21.0919V35.9953C20.5323 36.704 21.2619 37.1896 21.9345 36.9284L39.0467 30.4216C39.2375 30.3475 39.4012 30.2189 39.5166 30.0526C39.6319 29.8862 39.6936 29.6897 39.6935 29.4886V14.5853C39.6935 13.8765 38.9639 13.3911 38.2913 13.6523L21.1791 20.159C20.9883 20.2332 20.8246 20.3618 20.7093 20.5282C20.594 20.6945 20.5323 20.891 20.5323 21.0921" fill="#18BFFF"/>
  <path d="M16.8113 21.7832L12.1185 24.181L11.6421 24.4247L1.73588 29.4477C1.10815 29.7683 0.30645 29.2841 0.30645 28.5458V14.5829C0.30645 14.3159 0.435853 14.0853 0.60939 13.9118C0.680583 13.8368 0.761351 13.7727 0.849343 13.7214C1.08587 13.5711 1.42351 13.5309 1.7106 13.6511L16.7325 19.9499C17.4961 20.2705 17.556 21.4027 16.8113 21.7834" fill="#F82B60"/>
  <mask id="mask0_134_231" style="mask-type:alpha" maskUnits="userSpaceOnUse" x="0" y="13" width="18" height="17">
    <path d="M16.8113 21.7832L12.1185 24.181L11.6421 24.4247L1.73588 29.4477C1.10815 29.7683 0.30645 29.2841 0.30645 28.5458V14.5829C0.30645 14.3159 0.435853 14.0853 0.60939 13.9118C0.680583 13.8368 0.761351 13.7727 0.849343 13.7214C1.08587 13.5711 1.42351 13.5309 1.7106 13.6511L16.7325 19.9499C17.4961 20.2705 17.556 21.4027 16.8113 21.7834" fill="#F82B60"/>
  </mask>
  <g mask="url(#mask0_134_231)">
    <path d="M17.1419 21.8088L12.0161 25.2903L-0.225807 13.3807C-0.153311 13.3055 -0.0710807 13.2412 0.0184905 13.1897C0.259298 13.0388 1.61094 12.9277 1.90323 13.0484L17.0616 19.9677C17.839 20.2897 17.9001 21.4265 17.1419 21.8088Z" fill="black" fill-opacity="0.25"/>
  </g>
</svg>