<svg xmlns="http://www.w3.org/2000/svg" width="40" height="40" viewBox="0 0 40 40" fill="none">
  <path d="M0 13.869C0 7.3311 1.33514e-06 4.06215 2.0308 2.03106C4.0614 0 7.3298 0 13.8666 0H26.1334C32.6702 0 35.9386 0 37.9692 2.03106C40 4.06215 40 7.3311 40 13.869V26.1378C40 32.6757 40 35.9447 37.9692 37.9756C35.9386 40.0068 32.6702 40.0068 26.1334 40.0068H13.8666C7.3298 40.0068 4.0614 40.0068 2.0308 37.9756C1.33514e-06 35.9447 0 32.6757 0 26.1378V13.869Z" fill="#4945FF"/>
  <path fill-rule="evenodd" clip-rule="evenodd" d="M27.6 12.1353H14.1334V19.0032H21V25.871H27.8668V12.4021C27.8668 12.2548 27.7474 12.1353 27.6 12.1353Z" fill="white"/>
  <path d="M14.1333 19.0032H20.7333C20.8805 19.0032 20.9999 19.1226 20.9999 19.2699V25.871H14.3999C14.2527 25.871 14.1333 25.7516 14.1333 25.6043V19.0032Z" fill="#9593FF"/>
  <path d="M21.0001 25.871H27.8667L21.2277 32.5111C21.1437 32.5951 21.0001 32.5357 21.0001 32.4169V25.871Z" fill="#9593FF"/>
  <path d="M14.1333 19.0032H7.5885C7.4697 19.0032 7.4103 18.8595 7.4943 18.7755L14.1333 12.1353V19.0032Z" fill="#9593FF"/>
</svg>