<svg xmlns="http://www.w3.org/2000/svg" width="40" height="40" viewBox="0 0 40 40" fill="none">
  <rect width="40" height="40" rx="6" fill="#635BFF"/>
  <path fill-rule="evenodd" clip-rule="evenodd" d="M18.4603 14.9169C18.4603 13.7775 19.4038 13.3393 20.9667 13.3393C23.2077 13.3393 26.0385 14.0112 28.2795 15.209V8.34382C25.8321 7.37977 23.4141 7 20.9667 7C14.9808 7 11 10.0966 11 15.2674C11 23.3303 22.2051 22.0449 22.2051 25.5214C22.2051 26.8652 21.0256 27.3034 19.3744 27.3034C16.9269 27.3034 13.8013 26.3101 11.3244 24.9663V31.9191C14.0667 33.0876 16.8385 33.5843 19.3744 33.5843C25.5077 33.5843 29.7244 30.5753 29.7244 25.3461C29.6949 16.6404 18.4603 18.1888 18.4603 14.9169Z" fill="white"/>
</svg>