<svg xmlns="http://www.w3.org/2000/svg" width="40" height="40" viewBox="0 0 40 40" fill="none">
  <g clip-path="url(#clip0_155_1085)">
    <path opacity="0.65" d="M13.6923 6.48159C13.5764 8.00644 14.0007 9.52346 14.8908 10.767C15.5395 11.6208 16.4773 12.2088 17.5285 12.4208C17.6921 12.4426 17.8584 12.4294 18.0166 12.3822C18.1747 12.3349 18.321 12.2546 18.4458 12.1466C19.0092 11.6245 19.4324 10.9692 19.6766 10.2409C19.9208 9.51268 19.9782 8.73473 19.8435 7.97852C19.36 5.07852 17.4627 3.19775 15.0742 1.44006C14.2631 3.00425 13.7921 4.72241 13.6923 6.48159Z" fill="url(#paint0_linear_155_1085)"/>
    <path opacity="0.65" d="M10.4296 8.5709C10.7123 10.0738 11.5146 11.4293 12.6962 12.4001C13.5437 13.0574 14.6019 13.383 15.6723 13.3159C15.836 13.2946 15.9932 13.2388 16.1337 13.1522C16.2742 13.0656 16.3947 12.9502 16.4873 12.8136C16.8964 12.1634 17.1356 11.4209 17.183 10.6542C17.2304 9.88745 17.0844 9.12112 16.7585 8.42551C15.5408 5.7509 13.2216 4.42359 10.4616 3.34398C10.0823 5.06452 10.0714 6.84585 10.4296 8.5709Z" fill="url(#paint1_linear_155_1085)"/>
    <path opacity="0.65" d="M7.81889 11.4342C8.48103 12.8129 9.60717 13.9147 11 14.5465C11.9886 14.9623 13.0949 15.0034 14.1116 14.6619C14.2642 14.5989 14.4016 14.5044 14.5149 14.3843C14.6283 14.2643 14.7148 14.1217 14.7689 13.9657C14.9956 13.232 15.0344 12.4531 14.8818 11.7004C14.7292 10.9478 14.39 10.2455 13.8954 9.65804C12.0266 7.38881 9.44312 6.70804 6.49658 6.37996C6.57604 8.13909 7.02667 9.86153 7.81889 11.4342Z" fill="url(#paint2_linear_155_1085)"/>
    <path opacity="0.65" d="M6.03852 14.8761C7.0348 16.036 8.40734 16.8085 9.91583 17.0584C10.9784 17.2038 12.0574 16.9567 12.9508 16.3634C13.082 16.263 13.1904 16.1359 13.2687 15.9905C13.3471 15.8451 13.3937 15.6847 13.4054 15.5199C13.4347 14.7523 13.2706 13.9897 12.9284 13.302C12.5861 12.6144 12.0766 12.0237 11.4466 11.5842C9.05391 9.87532 6.38237 9.88724 3.4516 10.3326C3.98365 12.0127 4.86528 13.5611 6.03852 14.8761Z" fill="url(#paint3_linear_155_1085)"/>
    <path opacity="0.65" d="M5.20896 18.6616C6.47163 19.5245 7.99765 19.9157 9.51973 19.7666C10.5838 19.6321 11.5622 19.1141 12.2717 18.3097C12.3723 18.1789 12.444 18.0282 12.4822 17.8677C12.5203 17.7071 12.5239 17.5402 12.4928 17.3782C12.3224 16.6292 11.9665 15.935 11.4579 15.3593C10.9493 14.7837 10.3043 14.345 9.58204 14.0835C6.82819 13.0524 4.25088 13.7551 1.53473 14.9432C2.48342 16.428 3.73559 17.6952 5.20896 18.6616Z" fill="url(#paint4_linear_155_1085)"/>
    <path opacity="0.65" d="M5.3878 22.5323C6.83072 23.0389 8.40587 23.0218 9.83742 22.4839C10.8304 22.0786 11.6414 21.3251 12.1186 20.3646C12.1819 20.2123 12.2122 20.0482 12.2074 19.8832C12.2026 19.7183 12.1629 19.5562 12.0909 19.4077C11.7324 18.7284 11.209 18.15 10.5688 17.7256C9.92852 17.3013 9.19195 17.0445 8.42665 16.9789C5.50011 16.6954 3.19242 18.0412 0.876648 19.8927C2.17733 21.081 3.71472 21.9805 5.3878 22.5323Z" fill="url(#paint5_linear_155_1085)"/>
    <path opacity="0.65" d="M6.56236 26.2252C8.0867 26.3407 9.6031 25.9165 10.8462 25.0268C11.7001 24.3781 12.2881 23.4403 12.5001 22.3891C12.5218 22.2255 12.5087 22.0591 12.4614 21.901C12.4141 21.7429 12.3338 21.5966 12.2258 21.4718C11.7037 20.9084 11.0484 20.4852 10.3202 20.241C9.59191 19.9968 8.81397 19.9394 8.05775 20.0741C5.15775 20.5576 3.27698 22.4549 1.51929 24.8433C3.08395 25.6547 4.80265 26.1257 6.56236 26.2252Z" fill="url(#paint6_linear_155_1085)"/>
    <path opacity="0.65" d="M8.65392 29.4885C10.1568 29.2059 11.5123 28.4035 12.4832 27.222C13.1404 26.3744 13.466 25.3163 13.3989 24.2458C13.3776 24.0822 13.3218 23.9249 13.2352 23.7844C13.1486 23.6439 13.0332 23.5234 12.8966 23.4308C12.2464 23.0218 11.5039 22.7826 10.7372 22.7352C9.97048 22.6878 9.20416 22.8338 8.50854 23.1597C5.83239 24.3774 4.50854 26.6981 3.427 29.4581C5.14766 29.8369 6.92898 29.8473 8.65392 29.4885Z" fill="url(#paint7_linear_155_1085)"/>
    <path opacity="0.65" d="M11.5166 32.0992C12.8952 31.4372 13.9969 30.3114 14.6289 28.9188C15.0448 27.9302 15.0858 26.8239 14.7443 25.8073C14.6814 25.6547 14.5868 25.5172 14.4668 25.4039C14.3468 25.2906 14.2041 25.204 14.0482 25.1499C13.3144 24.9232 12.5355 24.8844 11.7829 25.037C11.0302 25.1896 10.328 25.5288 9.74048 26.0234C7.47125 27.8923 6.79048 30.4757 6.4624 33.4223C8.22159 33.3425 9.94403 32.8916 11.5166 32.0992Z" fill="url(#paint8_linear_155_1085)"/>
    <path opacity="0.65" d="M14.9581 33.8794C16.1184 32.8832 16.8912 31.5105 17.1412 30.0017C17.2866 28.9392 17.0395 27.8601 16.4462 26.9667C16.3459 26.8356 16.2189 26.7273 16.0737 26.649C15.9284 26.5706 15.7682 26.5239 15.6035 26.5121C14.8359 26.4829 14.0732 26.647 13.3856 26.9894C12.6979 27.3317 12.1072 27.8413 11.6678 28.4713C9.95891 30.864 9.97083 33.5356 10.4162 36.4663C12.0957 35.9341 13.6436 35.0525 14.9581 33.8794Z" fill="url(#paint9_linear_155_1085)"/>
    <path opacity="0.65" d="M18.7435 34.709C19.6063 33.4464 19.9975 31.9206 19.8485 30.3986C19.7139 29.3346 19.1959 28.3561 18.3916 27.6467C18.2608 27.546 18.1101 27.4743 17.9495 27.4361C17.789 27.398 17.6221 27.3944 17.46 27.4255C16.711 27.596 16.0169 27.9518 15.4412 28.4604C14.8656 28.969 14.4269 29.614 14.1654 30.3363C13.1343 33.0898 13.837 35.6671 15.0258 38.3828C16.5103 37.4342 17.7773 36.1822 18.7435 34.709Z" fill="url(#paint10_linear_155_1085)"/>
    <path opacity="0.65" d="M22.6153 34.5301C23.1221 33.0872 23.1051 31.512 22.5673 30.0804C22.1619 29.0874 21.4083 28.2764 20.4476 27.7993C20.2953 27.736 20.1312 27.7057 19.9662 27.7104C19.8013 27.7152 19.6392 27.7549 19.4907 27.827C18.8114 28.1855 18.2329 28.709 17.8086 29.3493C17.3842 29.9896 17.1274 30.7262 17.0619 31.4916C16.7784 34.4181 18.1242 36.7258 19.9757 39.0412C21.164 37.7405 22.0635 36.2031 22.6153 34.5301Z" fill="url(#paint11_linear_155_1085)"/>
    <path opacity="0.65" d="M26.3077 33.3555C26.4236 31.8307 25.9993 30.3137 25.1092 29.0701C24.4605 28.2163 23.5227 27.6283 22.4715 27.4163C22.3079 27.3945 22.1416 27.4077 21.9834 27.455C21.8253 27.5022 21.679 27.5825 21.5542 27.6905C20.9908 28.2127 20.5676 28.8679 20.3234 29.5962C20.0792 30.3245 20.0218 31.1024 20.1565 31.8586C20.64 34.7586 22.5373 36.6394 24.9258 38.3971C25.7369 36.8329 26.2079 35.1147 26.3077 33.3555Z" fill="url(#paint12_linear_155_1085)"/>
    <path opacity="0.65" d="M29.5704 31.2651C29.2878 29.7622 28.4854 28.4066 27.3039 27.4358C26.4564 26.7785 25.3982 26.4529 24.3277 26.5201C24.1641 26.5414 24.0068 26.5972 23.8663 26.6838C23.7259 26.7703 23.6053 26.8858 23.5127 27.0224C23.1037 27.6726 22.8645 28.4151 22.8171 29.1818C22.7697 29.9485 22.9157 30.7148 23.2416 31.4104C24.4593 34.0866 26.7801 35.4105 29.5397 36.492C29.9185 34.7714 29.929 32.99 29.5704 31.2651Z" fill="url(#paint13_linear_155_1085)"/>
    <path opacity="0.65" d="M32.1812 28.4014C31.5191 27.0227 30.3929 25.921 29.0001 25.2891C28.0115 24.8733 26.9052 24.8323 25.8886 25.1737C25.736 25.2367 25.5986 25.3313 25.4854 25.4513C25.3722 25.5713 25.2857 25.714 25.2316 25.8699C25.0049 26.6036 24.9661 27.3825 25.1187 28.1352C25.2713 28.8878 25.6105 29.5901 26.1051 30.1776C27.9739 32.4468 30.5574 33.1276 33.5039 33.4557C33.4244 31.6965 32.9736 29.9741 32.1812 28.4014Z" fill="url(#paint14_linear_155_1085)"/>
    <path opacity="0.65" d="M33.9615 24.9596C32.9653 23.7994 31.5926 23.0266 30.0838 22.7766C29.0213 22.6312 27.9422 22.8783 27.0488 23.4716C26.9178 23.5719 26.8095 23.6988 26.7311 23.8441C26.6527 23.9894 26.6061 24.1496 26.5942 24.3143C26.5649 25.082 26.729 25.8448 27.0713 26.5326C27.4136 27.2205 27.9233 27.8113 28.5535 28.2508C30.9461 29.9596 33.6177 29.9477 36.5485 29.5023C36.0163 27.8225 35.1347 26.2744 33.9615 24.9596Z" fill="url(#paint15_linear_155_1085)"/>
    <path opacity="0.65" d="M34.7912 21.1739C33.5286 20.3111 32.0027 19.9199 30.4808 20.0689C29.4167 20.2035 28.4383 20.7215 27.7288 21.5259C27.6283 21.6567 27.5566 21.8074 27.5185 21.9679C27.4804 22.1285 27.4769 22.2953 27.5081 22.4574C27.6787 23.2061 28.0346 23.9 28.5431 24.4754C29.0516 25.0509 29.6964 25.4894 30.4185 25.7509C33.1715 26.782 35.7492 26.0793 38.465 24.8905C37.5162 23.4064 36.2642 22.1398 34.7912 21.1739Z" fill="url(#paint16_linear_155_1085)"/>
    <path opacity="0.65" d="M34.6123 17.3029C33.1694 16.7963 31.5943 16.8135 30.1627 17.3514C29.1697 17.7568 28.3586 18.5104 27.8816 19.471C27.8182 19.6234 27.788 19.7875 27.7927 19.9525C27.7975 20.1174 27.8372 20.2795 27.9093 20.4279C28.2678 21.1073 28.7911 21.6856 29.4314 22.11C30.0716 22.5344 30.8082 22.7912 31.5735 22.8568C34.5 23.1403 36.8077 21.7945 39.1235 19.9429C37.8228 18.7546 36.2854 17.8549 34.6123 17.3029Z" fill="url(#paint17_linear_155_1085)"/>
    <path opacity="0.65" d="M33.4377 13.6105C31.9134 13.495 30.397 13.9192 29.1539 14.809C28.3 15.4577 27.712 16.3955 27.5 17.4467C27.4783 17.6103 27.4915 17.7767 27.5389 17.9348C27.5862 18.0929 27.6666 18.2392 27.7746 18.364C28.2968 18.9273 28.952 19.3506 29.6803 19.5948C30.4086 19.839 31.1865 19.8964 31.9427 19.7617C34.8427 19.2782 36.7235 17.3809 38.4812 14.9924C36.9164 14.181 35.1976 13.71 33.4377 13.6105Z" fill="url(#paint18_linear_155_1085)"/>
    <path opacity="0.65" d="M31.3462 10.3473C29.8433 10.63 28.4878 11.4323 27.5169 12.6139C26.8597 13.4614 26.5341 14.5196 26.6012 15.59C26.6227 15.7537 26.6787 15.9109 26.7655 16.0514C26.8522 16.1918 26.9678 16.3122 27.1046 16.4046C27.7548 16.8137 28.4973 17.0529 29.2641 17.1003C30.0308 17.1477 30.7971 17.0017 31.4927 16.6758C34.1689 15.4581 35.4927 13.1373 36.5742 10.3777C34.8532 9.9988 33.0715 9.98845 31.3462 10.3473Z" fill="url(#paint19_linear_155_1085)"/>
    <path opacity="0.65" d="M28.4835 7.73646C27.1049 8.39843 26.0032 9.52428 25.3712 10.9168C24.9554 11.9054 24.9143 13.0117 25.2558 14.0284C25.3187 14.181 25.4133 14.3184 25.5333 14.4318C25.6533 14.5451 25.796 14.6316 25.952 14.6857C26.6857 14.9124 27.4646 14.9512 28.2173 14.7986C28.9699 14.646 29.6722 14.3068 30.2597 13.8122C32.5289 11.9434 33.2097 9.35993 33.5377 6.41339C31.7785 6.4931 30.0561 6.94399 28.4835 7.73646Z" fill="url(#paint20_linear_155_1085)"/>
    <path opacity="0.65" d="M25.0419 5.95602C23.8816 6.95225 23.1088 8.32496 22.8588 9.83371C22.7134 10.8962 22.9605 11.9753 23.5538 12.8687C23.6541 12.9998 23.7811 13.1081 23.9264 13.1865C24.0716 13.2648 24.2319 13.3115 24.3965 13.3233C25.1639 13.3527 25.9265 13.1889 26.6141 12.8469C27.3018 12.5049 27.8926 11.9957 28.3323 11.366C30.0411 8.97333 30.0292 6.30179 29.5838 3.37102C27.9044 3.90268 26.3566 4.78364 25.0419 5.95602Z" fill="url(#paint21_linear_155_1085)"/>
    <path opacity="0.65" d="M21.2566 5.12705C20.3937 6.3896 20.0025 7.91548 20.1516 9.43743C20.2861 10.5015 20.8041 11.4799 21.6085 12.1894C21.7393 12.29 21.8899 12.3618 22.0505 12.3999C22.2111 12.438 22.3779 12.4416 22.54 12.4105C23.289 12.2401 23.9832 11.8842 24.5588 11.3756C25.1345 10.867 25.5732 10.222 25.8346 9.49974C26.8658 6.74628 26.1631 4.16897 24.9743 1.4532C23.4897 2.40185 22.2227 3.65389 21.2566 5.12705Z" fill="url(#paint22_linear_155_1085)"/>
    <path opacity="0.65" d="M17.3846 5.30593C16.878 6.74885 16.8952 8.324 17.4331 9.75554C17.8385 10.7485 18.5921 11.5596 19.5527 12.0367C19.7051 12.1 19.8692 12.1303 20.0341 12.1255C20.1991 12.1208 20.3612 12.081 20.5096 12.009C21.189 11.6505 21.7674 11.127 22.1918 10.4867C22.6162 9.84641 22.8729 9.10976 22.9385 8.34439C23.2227 5.41785 21.8769 3.11016 20.0254 0.794773C18.8368 2.09536 17.9368 3.63275 17.3846 5.30593Z" fill="url(#paint23_linear_155_1085)"/>
  </g>
  <defs>
    <linearGradient id="paint0_linear_155_1085" x1="0.769241" y1="39.2508" x2="39.2308" y2="0.789283" gradientUnits="userSpaceOnUse">
      <stop stop-color="#0A00B2"/>
      <stop offset="0.5" stop-color="#FF0000"/>
      <stop offset="1" stop-color="#FFFC00"/>
    </linearGradient>
    <linearGradient id="paint1_linear_155_1085" x1="0.769253" y1="39.2509" x2="39.2308" y2="0.789358" gradientUnits="userSpaceOnUse">
      <stop stop-color="#0A00B2"/>
      <stop offset="0.5" stop-color="#FF0000"/>
      <stop offset="1" stop-color="#FFFC00"/>
    </linearGradient>
    <linearGradient id="paint2_linear_155_1085" x1="0.769273" y1="39.2507" x2="39.2308" y2="0.789191" gradientUnits="userSpaceOnUse">
      <stop stop-color="#0A00B2"/>
      <stop offset="0.5" stop-color="#FF0000"/>
      <stop offset="1" stop-color="#FFFC00"/>
    </linearGradient>
    <linearGradient id="paint3_linear_155_1085" x1="0.769292" y1="39.2507" x2="39.2308" y2="0.789167" gradientUnits="userSpaceOnUse">
      <stop stop-color="#0A00B2"/>
      <stop offset="0.5" stop-color="#FF0000"/>
      <stop offset="1" stop-color="#FFFC00"/>
    </linearGradient>
    <linearGradient id="paint4_linear_155_1085" x1="0.769344" y1="39.2508" x2="39.2309" y2="0.78931" gradientUnits="userSpaceOnUse">
      <stop stop-color="#0A00B2"/>
      <stop offset="0.5" stop-color="#FF0000"/>
      <stop offset="1" stop-color="#FFFC00"/>
    </linearGradient>
    <linearGradient id="paint5_linear_155_1085" x1="0.76934" y1="39.2508" x2="39.2309" y2="0.789254" gradientUnits="userSpaceOnUse">
      <stop stop-color="#0A00B2"/>
      <stop offset="0.5" stop-color="#FF0000"/>
      <stop offset="1" stop-color="#FFFC00"/>
    </linearGradient>
    <linearGradient id="paint6_linear_155_1085" x1="0.769286" y1="39.2506" x2="39.2308" y2="0.789095" gradientUnits="userSpaceOnUse">
      <stop stop-color="#0A00B2"/>
      <stop offset="0.5" stop-color="#FF0000"/>
      <stop offset="1" stop-color="#FFFC00"/>
    </linearGradient>
    <linearGradient id="paint7_linear_155_1085" x1="0.769309" y1="39.2508" x2="39.2308" y2="0.789291" gradientUnits="userSpaceOnUse">
      <stop stop-color="#0A00B2"/>
      <stop offset="0.5" stop-color="#FF0000"/>
      <stop offset="1" stop-color="#FFFC00"/>
    </linearGradient>
    <linearGradient id="paint8_linear_155_1085" x1="0.769326" y1="39.2507" x2="39.2309" y2="0.78918" gradientUnits="userSpaceOnUse">
      <stop stop-color="#0A00B2"/>
      <stop offset="0.5" stop-color="#FF0000"/>
      <stop offset="1" stop-color="#FFFC00"/>
    </linearGradient>
    <linearGradient id="paint9_linear_155_1085" x1="0.769293" y1="39.2506" x2="39.2308" y2="0.789024" gradientUnits="userSpaceOnUse">
      <stop stop-color="#0A00B2"/>
      <stop offset="0.5" stop-color="#FF0000"/>
      <stop offset="1" stop-color="#FFFC00"/>
    </linearGradient>
    <linearGradient id="paint10_linear_155_1085" x1="0.769267" y1="39.2509" x2="39.2308" y2="0.789389" gradientUnits="userSpaceOnUse">
      <stop stop-color="#0A00B2"/>
      <stop offset="0.5" stop-color="#FF0000"/>
      <stop offset="1" stop-color="#FFFC00"/>
    </linearGradient>
    <linearGradient id="paint11_linear_155_1085" x1="0.769182" y1="39.2508" x2="39.2307" y2="0.789294" gradientUnits="userSpaceOnUse">
      <stop stop-color="#0A00B2"/>
      <stop offset="0.5" stop-color="#FF0000"/>
      <stop offset="1" stop-color="#FFFC00"/>
    </linearGradient>
    <linearGradient id="paint12_linear_155_1085" x1="0.769224" y1="39.2509" x2="39.2308" y2="0.789373" gradientUnits="userSpaceOnUse">
      <stop stop-color="#0A00B2"/>
      <stop offset="0.5" stop-color="#FF0000"/>
      <stop offset="1" stop-color="#FFFC00"/>
    </linearGradient>
    <linearGradient id="paint13_linear_155_1085" x1="0.769281" y1="39.2508" x2="39.2308" y2="0.789295" gradientUnits="userSpaceOnUse">
      <stop stop-color="#0A00B2"/>
      <stop offset="0.5" stop-color="#FF0000"/>
      <stop offset="1" stop-color="#FFFC00"/>
    </linearGradient>
    <linearGradient id="paint14_linear_155_1085" x1="0.769323" y1="39.2507" x2="39.2309" y2="0.789112" gradientUnits="userSpaceOnUse">
      <stop stop-color="#0A00B2"/>
      <stop offset="0.5" stop-color="#FF0000"/>
      <stop offset="1" stop-color="#FFFC00"/>
    </linearGradient>
    <linearGradient id="paint15_linear_155_1085" x1="0.769216" y1="39.2508" x2="39.2308" y2="0.789246" gradientUnits="userSpaceOnUse">
      <stop stop-color="#0A00B2"/>
      <stop offset="0.5" stop-color="#FF0000"/>
      <stop offset="1" stop-color="#FFFC00"/>
    </linearGradient>
    <linearGradient id="paint16_linear_155_1085" x1="0.769232" y1="39.2509" x2="39.2308" y2="0.789321" gradientUnits="userSpaceOnUse">
      <stop stop-color="#0A00B2"/>
      <stop offset="0.5" stop-color="#FF0000"/>
      <stop offset="1" stop-color="#FFFC00"/>
    </linearGradient>
    <linearGradient id="paint17_linear_155_1085" x1="0.769257" y1="39.2506" x2="39.2308" y2="0.7891" gradientUnits="userSpaceOnUse">
      <stop stop-color="#0A00B2"/>
      <stop offset="0.5" stop-color="#FF0000"/>
      <stop offset="1" stop-color="#FFFC00"/>
    </linearGradient>
    <linearGradient id="paint18_linear_155_1085" x1="0.769248" y1="39.2509" x2="39.2308" y2="0.789344" gradientUnits="userSpaceOnUse">
      <stop stop-color="#0A00B2"/>
      <stop offset="0.5" stop-color="#FF0000"/>
      <stop offset="1" stop-color="#FFFC00"/>
    </linearGradient>
    <linearGradient id="paint19_linear_155_1085" x1="0.769248" y1="39.2508" x2="39.2308" y2="0.789246" gradientUnits="userSpaceOnUse">
      <stop stop-color="#0A00B2"/>
      <stop offset="0.5" stop-color="#FF0000"/>
      <stop offset="1" stop-color="#FFFC00"/>
    </linearGradient>
    <linearGradient id="paint20_linear_155_1085" x1="0.769274" y1="39.2507" x2="39.2308" y2="0.789162" gradientUnits="userSpaceOnUse">
      <stop stop-color="#0A00B2"/>
      <stop offset="0.5" stop-color="#FF0000"/>
      <stop offset="1" stop-color="#FFFC00"/>
    </linearGradient>
    <linearGradient id="paint21_linear_155_1085" x1="0.769182" y1="39.2506" x2="39.2307" y2="0.789094" gradientUnits="userSpaceOnUse">
      <stop stop-color="#0A00B2"/>
      <stop offset="0.5" stop-color="#FF0000"/>
      <stop offset="1" stop-color="#FFFC00"/>
    </linearGradient>
    <linearGradient id="paint22_linear_155_1085" x1="0.769254" y1="39.2509" x2="39.2308" y2="0.789359" gradientUnits="userSpaceOnUse">
      <stop stop-color="#0A00B2"/>
      <stop offset="0.5" stop-color="#FF0000"/>
      <stop offset="1" stop-color="#FFFC00"/>
    </linearGradient>
    <linearGradient id="paint23_linear_155_1085" x1="0.769254" y1="39.2509" x2="39.2308" y2="0.78939" gradientUnits="userSpaceOnUse">
      <stop stop-color="#0A00B2"/>
      <stop offset="0.5" stop-color="#FF0000"/>
      <stop offset="1" stop-color="#FFFC00"/>
    </linearGradient>
    <clipPath id="clip0_155_1085">
      <rect width="40" height="40" fill="white"/>
    </clipPath>
  </defs>
</svg>